<!-- Generated by IcoMoon.io -->
<svg version="1.1" xmlns="http://www.w3.org/2000/svg" width="32" height="32" viewBox="0 0 32 32">
<title>1013_Reseau</title>
<path fill="#ff7900" d="M15.165 3.213c-0.006 0.006-0.182 0.022-0.387 0.032-0.208 0.013-0.41 0.029-0.448 0.035-0.042 0.006-0.16 0.019-0.266 0.032-1.309 0.141-2.733 0.486-3.978 0.963-1.578 0.608-2.989 1.446-4.182 2.49-0.81 0.71-1.6 1.642-2.147 2.534-0.717 1.168-1.162 2.458-1.309 3.805-0.042 0.387-0.048 1.613-0.006 1.792 0.010 0.035 0.026 0.15 0.038 0.256 0.054 0.499 0.189 1.050 0.403 1.696 0.79 2.349 2.637 4.461 5.165 5.91 0.819 0.47 1.875 0.938 2.778 1.229l0.374 0.122v5.494l4.794-4.794 0.618-0.022c0.342-0.013 0.65-0.029 0.685-0.035s0.173-0.022 0.304-0.032c1.629-0.125 3.613-0.637 5.12-1.328 0.704-0.323 1.584-0.813 2.109-1.174 0.246-0.173 0.877-0.643 0.998-0.752 0.048-0.042 0.157-0.134 0.24-0.205 0.72-0.614 1.498-1.507 2.045-2.349 0.234-0.355 0.723-1.296 0.845-1.616 0.451-1.184 0.63-2.118 0.634-3.28 0.010-2.47-1.027-4.835-2.963-6.749-1.034-1.021-2.182-1.824-3.539-2.48-0.55-0.266-0.566-0.272-1.088-0.477-1.334-0.525-3.002-0.922-4.352-1.030-0.141-0.013-0.298-0.029-0.352-0.035-0.115-0.019-2.115-0.048-2.131-0.032zM16.518 6.49c0.416 0.138 0.694 0.403 1.018 0.963 0.115 0.202 0.24 0.416 0.275 0.48 1.29 2.205 3.107 5.325 3.149 5.395 0.032 0.051 0.131 0.224 0.224 0.384 0.093 0.157 0.192 0.33 0.224 0.384 0.029 0.051 0.182 0.31 0.336 0.576 0.33 0.56 0.88 1.504 1.126 1.93 0.096 0.166 0.205 0.381 0.237 0.48 0.246 0.71-0.048 1.504-0.704 1.894-0.4 0.237 0.032 0.224-6.403 0.224-6.298 0-5.92 0.010-6.33-0.176-0.371-0.17-0.733-0.646-0.838-1.101-0.077-0.336 0.010-0.826 0.205-1.158 0.045-0.077 0.118-0.205 0.163-0.285s0.096-0.166 0.112-0.192c0.035-0.051 0.211-0.352 1.12-1.92 0.118-0.202 0.694-1.19 1.28-2.192 0.586-1.005 1.142-1.962 1.242-2.128 0.096-0.166 0.272-0.47 0.39-0.672s0.371-0.634 0.563-0.96c0.189-0.326 0.41-0.707 0.493-0.848 0.266-0.461 0.371-0.605 0.541-0.758 0.186-0.17 0.438-0.304 0.685-0.365 0.218-0.058 0.659-0.035 0.893 0.045z"></path>
<path fill="#ff7900" d="M15.715 9.654c-0.195 0.070-0.397 0.278-0.467 0.49-0.054 0.17-0.054 0.333 0 1.088 0.019 0.278 0.045 0.682 0.064 1.072 0.010 0.176 0.022 0.4 0.032 0.496 0.006 0.096 0.022 0.333 0.032 0.528 0.013 0.192 0.026 0.432 0.032 0.528 0.010 0.096 0.022 0.362 0.035 0.592 0.022 0.448 0.061 0.592 0.179 0.669 0.125 0.080 0.342 0.109 0.544 0.067 0.323-0.064 0.365-0.141 0.394-0.784 0.013-0.237 0.026-0.49 0.032-0.56s0.019-0.301 0.029-0.512c0.010-0.211 0.026-0.464 0.035-0.56 0.006-0.096 0.022-0.314 0.032-0.48 0.035-0.627 0.045-0.762 0.070-1.12 0.042-0.627 0.032-0.992-0.032-1.114-0.198-0.371-0.621-0.538-1.011-0.4z"></path>
<path fill="#ff7900" d="M15.715 16.054c-0.278 0.099-0.515 0.442-0.515 0.749 0 0.154 0.074 0.355 0.179 0.496 0.275 0.358 0.845 0.397 1.168 0.074 0.166-0.166 0.221-0.282 0.243-0.518 0.016-0.173 0.006-0.224-0.070-0.384-0.186-0.39-0.595-0.56-1.005-0.416z"></path>
</svg>
