<!-- Generated by IcoMoon.io -->
<svg version="1.1" xmlns="http://www.w3.org/2000/svg" width="32" height="32" viewBox="0 0 32 32">
<title>2for1cinematicket</title>
<path fill="#ff7900" d="M18.765 3.187c-0.528 0.381-1.027 0.749-1.117 0.813-0.262 0.195-2.192 1.594-2.464 1.786-0.070 0.048-0.573 0.413-1.12 0.81-0.544 0.397-1.574 1.142-2.288 1.661-0.714 0.515-1.366 0.992-1.456 1.056-0.256 0.189-1.686 1.226-1.776 1.286-0.045 0.029-0.317 0.227-0.608 0.438-0.291 0.214-0.694 0.506-0.896 0.653l-0.368 0.262 0.538 0.010c0.294 0.003 0.774 0.003 1.066 0l0.528-0.010-0.128-0.182-0.131-0.182 0.496-0.362c0.608-0.442 0.794-0.57 0.803-0.56 0.032 0.032 0.771 1.059 0.838 1.165l0.086 0.134 15.792 0.003-0.33-0.458c-0.182-0.25-0.458-0.63-0.611-0.845l-0.278-0.39-0.262 0.141c-0.362 0.192-0.666 0.275-1.078 0.288-0.72 0.026-1.315-0.211-1.808-0.717-0.31-0.317-0.531-0.739-0.624-1.187-0.051-0.259-0.035-0.778 0.035-1.056 0.112-0.442 0.445-0.989 0.762-1.242 0.070-0.058 0.131-0.118 0.131-0.134s-0.493-0.71-1.094-1.542c-0.602-0.832-1.222-1.693-1.379-1.914s-0.291-0.403-0.294-0.41c-0.003-0.003-0.438 0.304-0.963 0.685zM20.032 4.288c0.448 0.621 0.451 0.624 0.378 0.672-0.038 0.026-0.33 0.237-0.646 0.467l-0.576 0.422-0.179-0.246c-0.512-0.701-0.736-1.021-0.736-1.046 0.003-0.045 1.261-0.941 1.286-0.915 0.013 0.013 0.224 0.304 0.474 0.646zM18.080 5.683c0.25 0.346 0.442 0.64 0.426 0.653-0.080 0.077-1.229 0.896-1.254 0.896-0.016 0-0.205-0.25-0.422-0.554-0.214-0.301-0.419-0.582-0.454-0.621-0.032-0.038-0.051-0.083-0.042-0.099s0.106-0.093 0.211-0.17c0.109-0.077 0.384-0.278 0.618-0.451 0.23-0.17 0.432-0.301 0.445-0.294 0.013 0.010 0.227 0.298 0.474 0.64zM16.112 7.056c0.243 0.333 0.445 0.624 0.454 0.643 0.013 0.035-1.2 0.941-1.261 0.941-0.016 0-0.122-0.131-0.234-0.294-0.115-0.16-0.243-0.339-0.288-0.4s-0.157-0.214-0.246-0.342l-0.17-0.237 0.282-0.205c0.154-0.112 0.342-0.25 0.422-0.307 0.080-0.054 0.243-0.173 0.365-0.262 0.122-0.086 0.227-0.157 0.23-0.15 0.003 0.003 0.205 0.278 0.445 0.614zM14.205 8.509l0.448 0.624-0.198 0.144c-0.112 0.080-0.32 0.234-0.467 0.339s-0.346 0.253-0.445 0.326l-0.179 0.131-0.096-0.131c-0.051-0.074-0.147-0.208-0.211-0.294-0.067-0.090-0.234-0.32-0.378-0.515l-0.256-0.358 0.643-0.467c0.355-0.256 0.656-0.454 0.669-0.442s0.224 0.301 0.47 0.643zM12.24 9.882c0.246 0.346 0.448 0.637 0.448 0.65 0 0.035-1.235 0.928-1.267 0.918-0.016-0.006-0.23-0.291-0.477-0.634-0.429-0.592-0.448-0.624-0.394-0.675 0.032-0.029 0.275-0.208 0.538-0.397 0.266-0.192 0.525-0.378 0.576-0.419 0.054-0.042 0.102-0.077 0.112-0.074 0.010 0 0.218 0.282 0.464 0.63z"></path>
<path fill="#ff7900" d="M5.136 13.062c-0.685 0.49-1.344 0.957-1.462 1.043l-0.214 0.157 0.246 0.339c0.371 0.512 1.322 1.808 1.67 2.278 0.166 0.227 0.397 0.541 0.509 0.694l0.205 0.278 0.115-0.048c0.064-0.029 0.134-0.058 0.157-0.067 0.029-0.013 0.038-0.304 0.038-1.309 0-0.71-0.010-1.293-0.019-1.293-0.013 0-0.198 0.128-0.416 0.288-0.218 0.157-0.406 0.288-0.422 0.288-0.035 0-0.931-1.222-0.925-1.264 0-0.019 0.291-0.237 0.64-0.49l0.637-0.454 0.243 0.336 0.246 0.336 0.010-0.515c0.003-0.282 0.003-0.733 0-1.002l-0.010-0.486-1.248 0.89z"></path>
<path fill="#ff7900" d="M7.2 15.197v2.394l0.221 0.022c1.008 0.099 1.837 0.803 2.102 1.786 0.077 0.278 0.080 0.928 0.003 1.203-0.109 0.403-0.33 0.79-0.621 1.078-0.442 0.442-1.030 0.704-1.616 0.717l-0.090 0.003v4.8h20v-4.787l-0.278-0.035c-0.701-0.090-1.322-0.467-1.709-1.040-0.541-0.797-0.544-1.878-0.003-2.675 0.435-0.637 1.162-1.043 1.904-1.059l0.086-0.003v-4.8h-20v2.397zM9.6 14.4v0.8h-1.6v-1.6h1.6v0.8zM12 14.4v0.8h-1.6v-1.6h1.6v0.8zM14.4 14.4v0.8h-1.6v-1.6h1.6v0.8zM16.8 14.4v0.8h-1.6v-1.6h1.6v0.8zM19.2 14.4v0.8h-1.6v-1.6h1.6v0.8zM21.6 14.4v0.8h-1.6v-1.6h1.6v0.8zM24 14.4v0.8h-1.6v-1.6h1.6v0.8zM26.4 14.4v0.8h-1.6v-1.6h1.6v0.8zM17.312 16.861c0 0.016 0.122 0.285 0.272 0.595s0.272 0.57 0.272 0.576c0 0.003 0.093 0.202 0.208 0.438l0.205 0.432 0.298 0.038c0.163 0.022 0.342 0.045 0.394 0.054 0.054 0.006 0.403 0.054 0.778 0.106 0.374 0.048 0.688 0.099 0.698 0.109s-0.336 0.371-0.771 0.806c-0.65 0.65-0.787 0.803-0.771 0.858 0.006 0.038 0.112 0.544 0.227 1.126 0.115 0.579 0.221 1.091 0.23 1.13 0.016 0.074 0.013 0.074-0.186-0.035-0.112-0.061-0.32-0.173-0.461-0.246-0.141-0.077-0.326-0.176-0.416-0.224-0.086-0.048-0.259-0.141-0.384-0.208-0.122-0.067-0.314-0.17-0.426-0.23l-0.198-0.109-0.202 0.109c-0.109 0.061-0.394 0.214-0.63 0.342-0.461 0.246-0.605 0.326-1.002 0.541-0.237 0.131-0.25 0.134-0.234 0.061 0.010-0.038 0.112-0.55 0.227-1.13 0.118-0.582 0.221-1.088 0.23-1.126 0.013-0.058-0.125-0.208-0.774-0.858-0.435-0.435-0.784-0.797-0.774-0.803 0.019-0.019 0.086-0.032 0.438-0.077 0.15-0.019 0.307-0.042 0.352-0.048 0.208-0.029 0.349-0.048 0.512-0.064 0.096-0.013 0.198-0.026 0.224-0.032s0.128-0.019 0.224-0.032c0.451-0.051 0.406-0.019 0.595-0.432 0.634-1.376 0.79-1.696 0.819-1.696 0.013 0 0.026 0.013 0.026 0.029zM9.6 25.6v0.8h-1.6v-1.6h1.6v0.8zM12 25.6v0.8h-1.6v-1.6h1.6v0.8zM14.4 25.6v0.8h-1.6v-1.6h1.6v0.8zM16.8 25.6v0.8h-1.6v-1.6h1.6v0.8zM19.2 25.6v0.8h-1.6v-1.6h1.6v0.8zM21.6 25.6v0.8h-1.6v-1.6h1.6v0.8zM24 25.6v0.8h-1.6v-1.6h1.6v0.8zM26.4 25.6v0.8h-1.6v-1.6h1.6v0.8z"></path>
</svg>
