<!-- Generated by IcoMoon.io -->
<svg version="1.1" xmlns="http://www.w3.org/2000/svg" width="32" height="32" viewBox="0 0 32 32">
<title>3g</title>
<path fill="#ff7900" d="M21.712 7.142c-1.117 0.122-1.885 0.323-2.71 0.71-1.962 0.915-3.373 2.64-4.038 4.938-0.106 0.365-0.221 0.893-0.259 1.194-0.010 0.080-0.026 0.179-0.032 0.224-0.016 0.109-0.048 0.422-0.067 0.672-0.022 0.298-0.022 1.222 0 1.488 0.010 0.122 0.029 0.31 0.038 0.416 0.029 0.333 0.138 0.931 0.234 1.322 0.678 2.682 2.413 4.637 4.848 5.466 0.528 0.179 1.203 0.33 1.715 0.378 0.096 0.010 0.256 0.026 0.352 0.035 0.237 0.026 1.101 0.026 1.296 0 0.979-0.122 1.84-0.419 2.496-0.858 0.406-0.272 0.867-0.698 1.232-1.136l0.141-0.173 0.179 0.909 0.176 0.906 1.12 0.010c0.653 0.003 1.123-0.006 1.133-0.022s0.019-1.978 0.019-4.362v-4.33l-6.79-0.016 0.003 1.318 0.003 1.322 3.571 0.016-0.019 0.154c-0.058 0.419-0.118 0.698-0.224 1.014-0.445 1.363-1.485 2.141-3.056 2.285-0.31 0.026-1.024 0.019-1.219-0.013-0.381-0.064-0.518-0.093-0.749-0.166-1.539-0.483-2.592-1.946-2.877-3.994-0.083-0.592-0.083-0.621-0.083-1.232-0.003-1.549 0.381-2.963 1.050-3.904 0.762-1.066 1.923-1.622 3.366-1.613 1.408 0.010 2.49 0.646 3.056 1.795 0.128 0.266 0.304 0.758 0.304 0.861 0 0.022 0.010 0.045 0.026 0.048 0.013 0 0.762 0.006 1.667 0.006 1.056 0.003 1.658-0.006 1.683-0.026 0.032-0.026 0.026-0.125-0.035-0.464-0.227-1.315-0.778-2.374-1.715-3.29-0.483-0.474-0.982-0.822-1.661-1.155-0.742-0.368-1.494-0.586-2.509-0.723-0.23-0.032-1.402-0.038-1.664-0.010z"></path>
<path fill="#ff7900" d="M7.869 7.501c-0.006 0.006-0.112 0.019-0.237 0.029-1.203 0.102-2.374 0.627-3.181 1.43-0.925 0.918-1.434 2.077-1.584 3.606l-0.038 0.394 0.192 0.003c0.746 0.006 2.845-0.003 2.858-0.013 0.006-0.010 0.019-0.134 0.026-0.282 0.070-1.28 0.707-2.186 1.728-2.448 0.32-0.083 1.069-0.083 1.36 0 0.538 0.157 1.018 0.486 1.286 0.886 0.342 0.509 0.394 1.453 0.109 2.003-0.294 0.576-1.037 0.989-1.955 1.091-0.106 0.013-0.426 0.022-0.714 0.022h-0.518v2.256l0.41 0.003c0.925 0.006 1.382 0.061 1.85 0.221 0.378 0.128 0.605 0.266 0.861 0.525 0.4 0.403 0.541 0.826 0.538 1.603 0 0.349-0.016 0.502-0.070 0.698-0.237 0.893-0.902 1.51-1.853 1.718-0.384 0.086-1.098 0.070-1.443-0.029-1.024-0.301-1.683-1.11-1.904-2.342-0.042-0.23-0.080-0.541-0.083-0.653 0-0.022-0.525-0.032-1.51-0.029h-1.514l0.003 0.464c0.006 2.064 1.094 3.834 2.87 4.669 0.614 0.288 1.363 0.496 2.029 0.56 0.102 0.010 0.25 0.026 0.33 0.032 0.182 0.019 1.037 0.019 1.184 0.003 0.061-0.006 0.205-0.022 0.32-0.035 0.115-0.010 0.352-0.048 0.528-0.083s0.352-0.070 0.394-0.080c0.262-0.051 0.922-0.301 1.302-0.493 1.078-0.541 1.824-1.286 2.32-2.32 0.31-0.646 0.454-1.328 0.454-2.16 0-1.066-0.342-1.939-1.027-2.627-0.454-0.461-0.979-0.758-1.626-0.925-0.125-0.032-0.192-0.096-0.102-0.096 0.070 0 0.522-0.195 0.726-0.317 0.73-0.426 1.254-1.28 1.398-2.275 0.061-0.413 0.038-1.146-0.045-1.507-0.163-0.72-0.528-1.354-1.12-1.946-0.96-0.963-2.41-1.526-4.006-1.555-0.294-0.006-0.538-0.006-0.544-0.003z"></path>
</svg>
