<!-- Generated by IcoMoon.io -->
<svg version="1.1" xmlns="http://www.w3.org/2000/svg" width="32" height="32" viewBox="0 0 32 32">
<title>4G-Cam-Compact</title>
<path fill="#ff7900" d="M14.115 4.854c-0.253 0.090-0.515 0.442-0.515 0.688 0 0.054-0.141 0.058-3.658 0.058-2.49 0-3.718 0.010-3.85 0.035-0.611 0.112-1.146 0.646-1.258 1.258-0.019 0.106-0.035 0.57-0.035 1.050v0.858h0.8v0.8h-0.8v14.4h0.8v0.8h-0.8v0.858c0 0.48 0.016 0.944 0.035 1.050 0.109 0.602 0.63 1.13 1.238 1.258 0.237 0.048 19.562 0.051 19.834 0 0.579-0.106 1.078-0.573 1.232-1.155 0.051-0.198 0.061-0.349 0.061-1.12v-0.89h-0.8v-0.8h0.8v-14.4h-0.8v-0.8h0.806l-0.013-0.986c-0.013-0.925-0.019-0.992-0.086-1.155-0.211-0.509-0.582-0.854-1.072-0.995-0.118-0.032-0.221-0.061-0.227-0.061-0.010-0.003-1.677-0.003-3.709-0.003h-3.693l-0.019-0.144c-0.032-0.195-0.195-0.426-0.384-0.544l-0.157-0.096-1.795-0.006c-1.565-0.006-1.814 0-1.936 0.045zM17.024 11.293c2.157 0.416 3.869 2.022 4.4 4.131 0.045 0.166 0.086 0.355 0.096 0.416 0.006 0.061 0.029 0.198 0.045 0.304 0.045 0.285 0.019 1.264-0.042 1.584-0.083 0.445-0.173 0.762-0.323 1.139-0.723 1.814-2.31 3.101-4.256 3.456-0.339 0.061-1.238 0.083-1.584 0.042-2.166-0.275-3.955-1.712-4.653-3.741-0.218-0.637-0.291-1.101-0.291-1.84 0-0.714 0.083-1.229 0.301-1.834 0.464-1.299 1.376-2.381 2.579-3.053 0.611-0.342 1.494-0.618 2.176-0.675 0.378-0.035 1.2 0.003 1.552 0.070zM8.24 20.899c1.725 0.32 3.213 1.459 3.984 3.053 0.355 0.726 0.509 1.322 0.56 2.134l0.019 0.314h-0.803l-0.003-0.186c-0.003-0.378-0.109-0.957-0.256-1.379-0.656-1.894-2.413-3.174-4.435-3.232l-0.106-0.003v-0.81l0.346 0.022c0.189 0.013 0.502 0.051 0.694 0.086zM7.994 22.483c0.762 0.15 1.459 0.528 2.022 1.098 0.714 0.717 1.091 1.539 1.168 2.547l0.022 0.272h-0.806l-0.003-0.138c-0.003-0.224-0.029-0.378-0.109-0.691-0.342-1.296-1.485-2.246-2.835-2.358l-0.253-0.022v-0.797l0.282 0.019c0.154 0.013 0.384 0.045 0.512 0.070zM7.92 24.096c0.237 0.070 0.582 0.259 0.797 0.435 0.496 0.41 0.816 1.011 0.87 1.629l0.022 0.24h-0.797l-0.042-0.24c-0.118-0.714-0.72-1.274-1.427-1.334l-0.128-0.013-0.010-0.403c-0.006-0.365-0.003-0.406 0.048-0.416 0.067-0.016 0.483 0.051 0.666 0.102z"></path>
<path fill="#ff7900" d="M15.475 12.835c-0.877 0.115-1.645 0.499-2.294 1.149-0.48 0.48-0.784 0.97-0.986 1.597-0.147 0.451-0.179 0.678-0.176 1.251 0 0.458 0.013 0.573 0.083 0.864 0.125 0.496 0.275 0.851 0.528 1.254 0.179 0.285 0.227 0.342 0.586 0.698 0.515 0.515 1.098 0.848 1.779 1.021 0.39 0.099 0.416 0.102 0.877 0.115 1.168 0.032 2.122-0.342 2.947-1.168 0.563-0.56 0.88-1.126 1.075-1.92 0.074-0.291 0.086-0.41 0.086-0.864 0.003-0.854-0.16-1.453-0.595-2.154-0.198-0.317-0.237-0.362-0.602-0.726-0.557-0.557-1.248-0.925-2.013-1.078-0.291-0.054-0.992-0.077-1.296-0.038z"></path>
</svg>
