<!-- Generated by IcoMoon.io -->
<svg version="1.1" xmlns="http://www.w3.org/2000/svg" width="32" height="32" viewBox="0 0 32 32">
<title>4g</title>
<path fill="#ff7900" d="M21.6 7.155c-1.52 0.157-2.778 0.634-3.904 1.478-1.312 0.982-2.317 2.538-2.781 4.304-0.246 0.928-0.339 1.667-0.336 2.694 0 0.749 0.029 1.094 0.141 1.779 0.384 2.288 1.613 4.253 3.36 5.37 1.226 0.787 2.538 1.168 4.144 1.206 0.57 0.013 0.739 0.003 1.114-0.051 0.973-0.144 1.798-0.47 2.464-0.973 0.323-0.243 0.822-0.736 1.069-1.053 0.077-0.102 0.074-0.106 0.134 0.218 0.019 0.106 0.070 0.371 0.112 0.592 0.045 0.221 0.096 0.493 0.115 0.608s0.042 0.234 0.051 0.262c0.016 0.054 0.099 0.058 1.168 0.058h1.149v-0.954c0.003-0.522 0.010-2.486 0.019-4.368l0.016-3.414h-6.851v2.656h3.587l-0.022 0.166c-0.243 1.965-1.389 3.12-3.245 3.283-0.307 0.026-1.002 0.026-1.216-0.003-1.19-0.154-2.090-0.698-2.774-1.677-0.426-0.608-0.797-1.619-0.893-2.426-0.010-0.070-0.032-0.227-0.051-0.349-0.042-0.278-0.054-1.293-0.022-1.635 0.048-0.454 0.061-0.57 0.109-0.838 0.326-1.869 1.226-3.152 2.595-3.699 0.378-0.154 0.621-0.208 1.094-0.259 0.883-0.090 1.584 0.013 2.224 0.323 0.829 0.403 1.357 1.046 1.667 2.038l0.099 0.32h1.661c0.912 0.003 1.674-0.006 1.69-0.016 0.042-0.026 0.016-0.259-0.086-0.749-0.47-2.266-2.25-4.051-4.656-4.669-0.115-0.029-0.25-0.067-0.304-0.083-0.051-0.013-0.16-0.038-0.24-0.048-0.080-0.013-0.173-0.029-0.205-0.035-0.515-0.096-1.562-0.122-2.195-0.058z"></path>
<path fill="#ff7900" d="M8.198 9.254c-0.595 0.797-1.354 1.818-1.686 2.266-1.341 1.798-1.904 2.55-1.997 2.672-0.054 0.070-0.554 0.736-1.107 1.482l-1.008 1.35v2.976h6.688v3.648h3.072v-3.68h2.080v-2.656h-2.080v-9.504h-2.88l-1.082 1.446zM9.088 14.592v2.752h-4.16l0.506-0.682c0.278-0.371 0.784-1.053 1.126-1.51 0.339-0.458 0.8-1.078 1.024-1.376 0.221-0.301 0.637-0.858 0.922-1.242 0.285-0.381 0.534-0.694 0.55-0.694 0.022 0 0.032 0.95 0.032 2.752z"></path>
</svg>
