<!-- Generated by IcoMoon.io -->
<svg version="1.1" xmlns="http://www.w3.org/2000/svg" width="32" height="32" viewBox="0 0 32 32">
<title>4G_Cam__Live_80</title>
<path fill="#ff7900" d="M1.68 8.48c-0.68 0.68-0.68 19.16 0 19.84s21.96 0.68 22.64 0c0.28-0.28 0.48-1.68 0.48-3.44v-2.96l2.6 2.28c1.4 1.24 2.76 2.16 3 2 0.52-0.32 0.56-15.24 0.040-15.6-0.24-0.12-1.52 0.8-2.92 2.040l-2.52 2.24-0.2-2.92c-0.12-1.64-0.36-3.2-0.52-3.48-0.44-0.68-21.88-0.72-22.6 0zM4 17.6v2.8h1.6c1.16 0 1.6 0.16 1.6 0.6 0 0.48-0.52 0.6-2.4 0.6h-2.4v-3.4c0-3.12 0.080-3.4 0.8-3.4s0.8 0.28 0.8 2.8zM10 18.2c0 3.36 0 3.4-1 3.4s-1-0.040-1-3.4c0-3.36 0-3.4 1-3.4s1 0.040 1 3.4zM13.12 17.24c0.84 2.68 0.88 2.68 1.72-0.2 0.52-1.8 1.28-2.68 1.8-2.12 0.16 0.12-0.24 1.68-0.84 3.44-0.92 2.84-1.2 3.24-2 3.24-0.76 0-1.040-0.32-1.36-1.52-0.24-0.8-0.68-2.32-1-3.4-0.52-1.76-0.52-1.88 0.2-1.88 0.56 0 0.92 0.6 1.48 2.44zM22.8 15.4c0 0.44-0.48 0.6-1.8 0.6-1.52 0-1.8 0.12-1.8 0.8s0.28 0.8 1.6 0.8c1.16 0 1.6 0.16 1.6 0.6s-0.44 0.6-1.6 0.6c-1.32 0-1.6 0.12-1.6 0.8s0.28 0.8 1.8 0.8c1.32 0 1.8 0.16 1.8 0.6 0 0.48-0.56 0.6-2.6 0.6h-2.6v-6.8h2.6c2.040 0 2.6 0.12 2.6 0.6z"></path>
</svg>
