<!-- Generated by IcoMoon.io -->
<svg version="1.1" xmlns="http://www.w3.org/2000/svg" width="32" height="32" viewBox="0 0 32 32">
<title>4G_Cam_Rec_80</title>
<path fill="#ff7900" d="M2.059 8.554c-0.673 0.673-0.673 18.97 0 19.644 0.634 0.634 20.99 0.673 22.139 0.079 0.634-0.356 0.752-0.871 0.752-3.406v-2.97l2.376 2.099c1.307 1.148 2.614 2.099 2.891 2.099 0.356 0 0.515-1.941 0.594-7.644 0.119-8.871 0.158-8.832-3.446-5.545l-2.218 2.020-0.198-2.931c-0.119-1.624-0.356-3.168-0.515-3.446-0.436-0.673-21.663-0.713-22.376 0zM21.228 14.812c1.465 0.515 2.376 1.822 1.505 2.139-0.317 0.119-0.911-0.119-1.347-0.554-0.951-0.95-1.148-0.95-2.297-0.158-1.347 0.951-1.069 3.287 0.436 4.119 1.069 0.554 1.148 0.554 1.861-0.317 0.396-0.475 0.99-0.871 1.347-0.871 0.911 0 0 1.782-1.228 2.337-1.386 0.634-2.257 0.554-3.406-0.356-2.020-1.584-1.703-5.109 0.515-6.218 1.188-0.594 1.188-0.594 2.614-0.119zM8.871 15.446c0.752 0.713 0.832 1.782 0.198 2.416-0.317 0.317-0.317 0.673 0 1.228 0.634 1.188 0.554 2.455-0.158 2.455-0.317 0-0.594-0.198-0.594-0.396 0-1.465-0.713-2.376-1.782-2.376-0.871 0-0.99 0.158-0.99 1.386 0 1.109-0.158 1.386-0.792 1.386-0.713 0-0.792-0.277-0.792-3.366v-3.366h2.139c1.426 0 2.376 0.198 2.772 0.634zM15.842 15.406c0 0.436-0.475 0.594-1.782 0.594-1.505 0-1.782 0.119-1.782 0.792s0.277 0.792 1.584 0.792c1.149 0 1.584 0.158 1.584 0.594s-0.436 0.594-1.584 0.594c-1.307 0-1.584 0.119-1.584 0.792s0.277 0.792 1.782 0.792c1.307 0 1.782 0.158 1.782 0.594 0 0.475-0.554 0.594-2.574 0.594h-2.574v-6.733h2.574c2.020 0 2.574 0.119 2.574 0.594z"></path>
<path fill="#ff7900" d="M5.545 16.792c0 0.594 0.277 0.792 1.109 0.792 1.347 0 1.703-0.277 1.386-1.030-0.119-0.317-0.713-0.554-1.347-0.554-0.871 0-1.149 0.198-1.149 0.792z"></path>
</svg>
