<!-- Generated by IcoMoon.io -->
<svg version="1.1" xmlns="http://www.w3.org/2000/svg" width="32" height="32" viewBox="0 0 32 32">
<title>4g_cam</title>
<path fill="#ff7900" d="M24 6.797v0.403l0.186 0.003c0.589 0.003 1.414 0.189 2.022 0.454 1.341 0.582 2.4 1.648 2.96 2.982 0.243 0.579 0.432 1.456 0.432 2.016v0.144h0.81l-0.022-0.378c-0.144-2.4-1.6-4.496-3.795-5.469-0.736-0.326-1.456-0.499-2.262-0.541l-0.33-0.019v0.403z"></path>
<path fill="#ff7900" d="M24 8.39v0.4l0.275 0.022c1.184 0.090 2.234 0.669 2.944 1.619 0.368 0.496 0.666 1.206 0.736 1.776 0.013 0.106 0.026 0.205 0.029 0.224 0.003 0.016 0.010 0.109 0.010 0.198l0.006 0.17h0.81l-0.022-0.298c-0.026-0.374-0.070-0.646-0.15-0.941-0.534-1.994-2.269-3.411-4.339-3.549l-0.298-0.019v0.397z"></path>
<path fill="#ff7900" d="M5.331 9.325c-0.179 0.067-0.342 0.211-0.435 0.39-0.077 0.147-0.080 0.182-0.090 0.819l-0.010 0.666h-2.397v6.88c0 4.896 0.010 6.925 0.035 7.046 0.122 0.582 0.592 1.069 1.184 1.226 0.147 0.042 1.738 0.048 11.078 0.048h10.902l-0.006-6.982-0.010-6.986-0.083-0.198c-0.198-0.461-0.483-0.739-0.97-0.947l-0.163-0.070-15.568-0.016v-0.621c0-0.672-0.022-0.79-0.179-0.998-0.048-0.061-0.154-0.15-0.234-0.198l-0.147-0.086-1.392-0.006c-1.13-0.006-1.414 0-1.517 0.035zM8.272 13.331c0.163 0.058 0.362 0.23 0.454 0.403 0.048 0.090 0.058 0.186 0.058 0.666 0 0.554 0 0.56-0.090 0.71-0.102 0.176-0.243 0.294-0.435 0.362-0.205 0.070-2.714 0.070-2.918 0-0.192-0.067-0.333-0.186-0.435-0.362-0.083-0.144-0.090-0.176-0.102-0.618-0.013-0.589 0.029-0.768 0.234-0.97 0.234-0.237 0.246-0.237 1.75-0.24 1.152-0.003 1.35 0.003 1.485 0.048zM16.624 13.706c1.088 0.227 1.971 0.717 2.73 1.51 0.762 0.797 1.226 1.75 1.395 2.864 0.042 0.282 0.048 1.184 0.010 1.408-0.010 0.045-0.032 0.179-0.051 0.301-0.131 0.774-0.608 1.757-1.168 2.4-0.832 0.954-1.824 1.507-3.139 1.754-0.374 0.070-1.334 0.051-1.763-0.032-1.002-0.198-1.907-0.669-2.627-1.36-0.883-0.851-1.421-1.92-1.574-3.126-0.045-0.346-0.019-1.213 0.045-1.536 0.253-1.299 0.89-2.355 1.904-3.171 0.698-0.56 1.654-0.96 2.576-1.082 0.416-0.054 1.235-0.019 1.664 0.070z"></path>
<path fill="#ff7900" d="M24 9.997v0.403h0.109c0.189 0 0.57 0.086 0.803 0.182 0.858 0.352 1.462 1.219 1.485 2.128l0.003 0.090h0.81l-0.022-0.266c-0.064-0.755-0.39-1.453-0.931-1.99-0.534-0.538-1.235-0.864-1.994-0.928l-0.262-0.026v0.406z"></path>
</svg>
