<!-- Generated by IcoMoon.io -->
<svg version="1.1" xmlns="http://www.w3.org/2000/svg" width="32" height="32" viewBox="0 0 32 32">
<title>4G_Cam_Camera_80</title>
<path fill="#ff7900" d="M24.4 6c0 0.2 0.72 0.56 1.56 0.8 1.8 0.48 3.44 2.2 3.84 4 0.32 1.36 1 1.64 1 0.36 0-1.6-1.68-3.92-3.4-4.76-1.8-0.88-3-1.040-3-0.4z"></path>
<path fill="#ff7900" d="M24.4 7.6c0 0.2 0.44 0.48 1 0.64 1.12 0.28 3 2.28 3 3.2 0 0.32 0.2 0.56 0.4 0.56 0.56 0 0.48-1.2-0.16-2.32-0.92-1.68-4.24-3.28-4.24-2.080z"></path>
<path fill="#ff7900" d="M4 9.4c0 0.84-0.2 1-1.2 1h-1.2v7.32c0 5.16 0.16 7.48 0.48 7.8 0.36 0.36 3.6 0.48 12.2 0.48h11.72v-7.32c0-5.16-0.16-7.48-0.48-7.8-0.36-0.36-2.92-0.48-9-0.48h-8.52v-1c0-0.92-0.12-1-2-1s-2 0.080-2 1zM7.8 13.6c0 0.88-0.2 1-1.72 1.12-1.76 0.12-2.44-0.44-1.92-1.76 0.16-0.44 0.68-0.56 1.92-0.48 1.52 0.12 1.72 0.24 1.72 1.12zM18.4 13.92c2.68 1.96 3 5.56 0.64 7.92-2.56 2.56-6.040 2.12-8.16-1.040-3.040-4.52 3.080-10.12 7.52-6.88z"></path>
<path fill="#ff7900" d="M24.4 9.12c0 0.2 0.44 0.6 1 0.88 0.52 0.28 1.080 0.84 1.24 1.28 0.28 0.88 0.96 0.96 0.96 0.12 0-0.8-1.8-2.6-2.6-2.6-0.32 0-0.6 0.16-0.6 0.32z"></path>
</svg>
