<!-- Generated by IcoMoon.io -->
<svg version="1.1" xmlns="http://www.w3.org/2000/svg" width="32" height="32" viewBox="0 0 32 32">
<title>4G_Cam_Inbox80</title>
<path fill="#ff7900" d="M11.44 2.64c-0.52 0.48-0.64 1.64-0.64 6.2v5.56h-5.4l4.84 4.8c3.36 3.32 5.16 4.8 5.8 4.8 0.6 0 2.4-1.48 5.72-4.8l4.84-4.8h-5.4v-5.52c0-7 0.080-6.88-5.32-6.88-2.96 0-3.96 0.16-4.44 0.64z"></path>
<path fill="#ff7900" d="M2 23.040c0 4.56 0 4.64 1.16 5.8l1.16 1.16h23.36l1.16-1.16c1.16-1.16 1.16-1.24 1.16-5.8v-4.64h-4v7.6h-20v-7.6h-4v4.64z"></path>
</svg>
