<!-- Generated by IcoMoon.io -->
<svg version="1.1" xmlns="http://www.w3.org/2000/svg" width="32" height="32" viewBox="0 0 32 32">
<title>4g_plus</title>
<path fill="#ff7900" d="M17.402 10.832c-0.006 0.006-0.106 0.019-0.221 0.029-0.694 0.067-1.331 0.253-2.029 0.598-1.149 0.566-1.987 1.424-2.576 2.637-0.381 0.784-0.611 1.594-0.694 2.464-0.032 0.323-0.032 1.392-0.003 1.722 0.134 1.44 0.749 2.874 1.638 3.83 0.749 0.803 1.773 1.392 2.851 1.645 0.509 0.118 0.797 0.15 1.408 0.163 1.514 0.035 2.621-0.438 3.507-1.494l0.154-0.182 0.029 0.15c0.019 0.083 0.064 0.317 0.102 0.518 0.035 0.202 0.083 0.454 0.106 0.56l0.038 0.192h0.874c0.483 0 0.883-0.013 0.893-0.026 0.010-0.016 0.022-1.542 0.032-3.395l0.013-3.366h-5.315v2.064h1.066c0.582 0 1.21 0 1.389 0.003h0.33l-0.019 0.118c-0.074 0.515-0.16 0.816-0.323 1.146-0.16 0.314-0.275 0.47-0.506 0.701-0.374 0.362-0.88 0.598-1.44 0.675-0.086 0.013-0.195 0.029-0.24 0.035-0.192 0.032-0.87 0.013-1.136-0.035-0.515-0.090-0.874-0.246-1.283-0.554-0.41-0.31-0.698-0.666-0.941-1.168-0.358-0.742-0.496-1.427-0.496-2.454 0-1.222 0.246-2.163 0.771-2.96 0.461-0.698 1.277-1.194 2.112-1.283 1.034-0.109 1.846 0.128 2.429 0.704 0.282 0.282 0.47 0.592 0.624 1.037l0.115 0.339h2.589l-0.003-0.16c-0.016-0.57-0.317-1.405-0.739-2.042-0.256-0.387-0.803-0.947-1.178-1.21-0.963-0.672-2.125-1.018-3.414-1.011-0.278 0.003-0.509 0.006-0.512 0.010z"></path>
<path fill="#ff7900" d="M26.432 12.416v1.216h-2.4v1.6h2.4v2.368h1.6v-2.368h2.4v-1.6h-2.4v-2.432h-1.6v1.216z"></path>
<path fill="#ff7900" d="M7.024 12.31c-0.387 0.522-0.941 1.267-1.232 1.654-0.291 0.39-1.005 1.35-1.587 2.131-0.586 0.784-1.229 1.648-1.434 1.92l-0.368 0.496-0.003 1.158v1.162h5.184l0.006 1.414 0.010 1.414 1.174 0.003c0.758 0 1.181-0.013 1.187-0.032 0.006-0.016 0.010-0.662 0.010-1.434l-0.003-1.398h1.616v-1.024c0-0.954-0.003-1.024-0.054-1.027-0.032-0.003-0.397-0.006-0.81-0.010l-0.752-0.003v-7.376h-1.12l-1.12 0.003-0.704 0.947zM7.584 16.63v2.138h-1.6c-1.171 0-1.597-0.010-1.587-0.035 0.006-0.019 0.291-0.41 0.63-0.864 0.339-0.458 0.842-1.133 1.117-1.501 0.272-0.371 0.698-0.941 0.944-1.274 0.246-0.33 0.458-0.598 0.47-0.598 0.016 0 0.026 0.96 0.026 2.134z"></path>
</svg>
