<!-- Generated by IcoMoon.io -->
<svg version="1.1" xmlns="http://www.w3.org/2000/svg" width="32" height="32" viewBox="0 0 32 32">
<title>about_event</title>
<path fill="#ff7900" d="M10.096 3.661c-0.352 0.112-0.608 0.333-0.765 0.659l-0.099 0.208-0.010 0.742-0.010 0.746h-5.597l0.010 10.214c0.006 9.706 0.010 10.227 0.064 10.403 0.182 0.595 0.531 1.066 1.034 1.398 0.205 0.134 0.355 0.202 0.733 0.326 0.106 0.032 2.192 0.042 11.546 0.051l11.414 0.006-0.006-10.214-0.010-10.218-0.067-0.208c-0.15-0.454-0.33-0.758-0.618-1.050-0.272-0.275-0.691-0.525-1.027-0.614-0.080-0.022-0.173-0.048-0.208-0.058s-0.874-0.026-1.862-0.029l-1.802-0.013v-0.662c0-0.365-0.016-0.723-0.032-0.8-0.083-0.358-0.326-0.653-0.672-0.819-0.186-0.086-0.24-0.099-0.496-0.099s-0.31 0.010-0.499 0.099c-0.262 0.125-0.454 0.32-0.586 0.589l-0.099 0.208-0.010 0.742-0.013 0.746h-8.787l-0.013-0.746-0.010-0.742-0.099-0.208c-0.256-0.534-0.877-0.826-1.405-0.659zM9.331 9.312c0.128 0.266 0.326 0.464 0.589 0.589 0.186 0.090 0.24 0.099 0.496 0.099s0.31-0.010 0.496-0.099c0.266-0.128 0.464-0.326 0.589-0.589l0.099-0.208 0.032-1.888 0.208 0.211c0.602 0.605 0.739 1.504 0.349 2.294-0.317 0.646-1.037 1.094-1.757 1.094-1.152 0-2.083-0.979-2.006-2.109 0.035-0.518 0.218-0.928 0.576-1.29l0.198-0.202 0.032 1.888 0.099 0.208zM20.531 9.312c0.17 0.346 0.435 0.57 0.79 0.659 0.557 0.144 1.123-0.128 1.379-0.659l0.099-0.208 0.032-1.888 0.211 0.218c0.349 0.352 0.531 0.765 0.563 1.27 0.083 1.328-1.181 2.378-2.467 2.048-0.365-0.093-0.669-0.266-0.934-0.531-0.771-0.768-0.778-2.032-0.013-2.797l0.208-0.208 0.032 1.888 0.099 0.208zM26.128 13.334c0.234 0.122 0.358 0.234 0.49 0.432 0.211 0.31 0.198-0.115 0.198 6.784v6.266l-20.688-0.016-0.176-0.083c-0.234-0.112-0.406-0.253-0.534-0.445-0.214-0.32-0.202 0.125-0.202-6.79v-6.266l20.72 0.016 0.192 0.102z"></path>
<path fill="#ff7900" d="M15.488 14.838c-0.89 0.128-1.539 0.349-2.17 0.736-1.28 0.784-2.154 2.067-2.426 3.549-0.086 0.477-0.080 1.382 0.013 1.859 0.323 1.629 1.363 2.989 2.838 3.702 0.8 0.39 1.488 0.538 2.4 0.518 0.803-0.019 1.424-0.17 2.144-0.515 1.549-0.749 2.627-2.237 2.88-3.968 0.064-0.422 0.042-1.261-0.045-1.677-0.211-1.059-0.675-1.926-1.443-2.694-0.822-0.826-1.782-1.309-2.944-1.482-0.272-0.042-1.043-0.058-1.248-0.029zM16.394 16.147c0.339 0.115 0.576 0.454 0.57 0.819-0.006 0.598-0.576 0.992-1.149 0.797-0.557-0.189-0.746-0.915-0.355-1.36 0.246-0.278 0.592-0.374 0.934-0.256zM17.005 18.531c0.010 0.010 0.022 0.982 0.029 2.16 0.006 2 0.010 2.147 0.064 2.246 0.064 0.118 0.218 0.198 0.4 0.208 0.118 0.006 0.118 0.006 0.128 0.157l0.010 0.154h-2.819v-0.141c0-0.154 0.003-0.157 0.24-0.195 0.070-0.010 0.163-0.048 0.205-0.083 0.157-0.128 0.163-0.256 0.157-2.109-0.010-1.52-0.016-1.725-0.064-1.83-0.061-0.134-0.17-0.198-0.384-0.23l-0.154-0.022v-0.336l1.085 0.003c0.598 0 1.094 0.010 1.104 0.019z"></path>
</svg>
