<!-- Generated by IcoMoon.io -->
<svg version="1.1" xmlns="http://www.w3.org/2000/svg" width="32" height="32" viewBox="0 0 32 32">
<title>accessory_shop</title>
<path fill="#ff7900" d="M15.162 2.499c-0.829 0.131-1.562 0.419-2.269 0.89-1.142 0.762-1.981 1.942-2.317 3.264-0.083 0.336-0.176 0.97-0.176 1.222v0.157h-4.8l0.010 9.814c0.006 9.354 0.010 9.827 0.064 10.010 0.272 0.896 0.966 1.542 1.866 1.728 0.208 0.042 1.206 0.048 8.467 0.048 7.235 0 8.262-0.006 8.464-0.051 0.941-0.195 1.661-0.906 1.866-1.83 0.061-0.272 0.064-0.522 0.064-10v-9.718h-4.8l-0.003-0.17c0-0.090-0.006-0.211-0.013-0.262-0.006-0.054-0.019-0.179-0.032-0.282-0.096-0.899-0.522-1.917-1.123-2.694-0.874-1.13-2.064-1.846-3.517-2.118-0.403-0.074-1.299-0.080-1.75-0.006zM16.794 4.109c0.797 0.176 1.466 0.544 2.038 1.12 0.685 0.688 1.091 1.581 1.158 2.538l0.016 0.266h-8.013l0.019-0.266c0.074-1.002 0.467-1.856 1.174-2.557 0.666-0.656 1.446-1.037 2.381-1.155 0.218-0.029 1.005 0.006 1.226 0.054zM10.474 11.578c0.147 0.269 0.448 0.454 0.742 0.454 0.179 0 0.406-0.099 0.547-0.243 0.211-0.211 0.237-0.336 0.237-1.203v-0.733l0.070 0.038c0.122 0.064 0.371 0.317 0.474 0.477 0.304 0.474 0.333 1.117 0.067 1.616-0.131 0.25-0.47 0.576-0.71 0.685-0.643 0.288-1.296 0.186-1.798-0.282-0.72-0.675-0.646-1.862 0.154-2.442l0.128-0.093 0.016 0.81c0.013 0.701 0.022 0.822 0.074 0.915zM20.058 11.536c0.118 0.272 0.358 0.448 0.656 0.483 0.314 0.038 0.618-0.115 0.781-0.397l0.090-0.15 0.010-0.81 0.013-0.806 0.096 0.054c0.134 0.080 0.41 0.384 0.502 0.557 0.224 0.422 0.25 0.947 0.064 1.386-0.198 0.47-0.653 0.845-1.158 0.947-0.762 0.154-1.52-0.275-1.814-1.027-0.086-0.224-0.112-0.682-0.048-0.922 0.093-0.355 0.323-0.701 0.608-0.906l0.128-0.093 0.016 0.794c0.013 0.55 0.029 0.822 0.058 0.89zM16.864 14.509c1.837 0.358 3.331 1.754 3.776 3.52 0.051 0.202 0.106 0.461 0.125 0.582 0.019 0.134 0.029 1.488 0.026 3.466l-0.006 3.248-0.15 0.074c-0.365 0.182-1.101 0.285-1.363 0.189-0.192-0.070-0.339-0.192-0.445-0.365l-0.090-0.15-0.010-1.77c-0.006-1.171 0.003-1.811 0.026-1.894 0.048-0.182 0.218-0.384 0.4-0.477 0.134-0.070 0.208-0.083 0.506-0.093l0.346-0.013-0.013-1.059c-0.006-0.586-0.022-1.114-0.035-1.174-0.266-1.312-1.018-2.339-2.131-2.909-0.634-0.323-1.213-0.458-1.92-0.435-0.659 0.016-1.030 0.106-1.616 0.384-0.666 0.317-1.283 0.851-1.638 1.421-0.202 0.323-0.429 0.845-0.525 1.203l-0.102 0.384-0.013 1.094-0.016 1.098h0.317c0.173 0.003 0.365 0.022 0.429 0.045 0.17 0.061 0.336 0.198 0.435 0.365l0.090 0.15 0.010 1.77c0.006 1.171-0.003 1.811-0.026 1.894-0.048 0.182-0.218 0.384-0.4 0.477-0.122 0.064-0.211 0.083-0.4 0.090-0.378 0.006-0.954-0.125-1.178-0.272l-0.074-0.048 0.013-3.347c0.010-3.302 0.010-3.35 0.080-3.654 0.106-0.458 0.214-0.774 0.406-1.165 0.682-1.395 1.99-2.374 3.52-2.637 0.438-0.077 1.235-0.070 1.648 0.010zM10.88 23.27v1.795l-0.083-0.077c-0.144-0.134-0.365-0.448-0.461-0.656-0.422-0.902-0.301-1.894 0.32-2.63 0.106-0.125 0.202-0.23 0.208-0.23 0.010 0 0.016 0.81 0.016 1.798zM21.51 21.914c0.49 0.701 0.534 1.67 0.118 2.47-0.122 0.237-0.426 0.64-0.48 0.64-0.016 0-0.029-0.771-0.029-1.786v-1.782l0.147 0.16c0.080 0.086 0.189 0.221 0.243 0.298z"></path>
</svg>
