<!-- Generated by IcoMoon.io -->
<svg version="1.1" xmlns="http://www.w3.org/2000/svg" width="32" height="32" viewBox="0 0 32 32">
<title>Accessability</title>
<path fill="#ff7900" d="M15.194 2.416c-0.003 0.003-0.147 0.019-0.314 0.029-0.166 0.013-0.333 0.029-0.368 0.035s-0.134 0.022-0.224 0.032c-0.211 0.022-0.342 0.045-0.832 0.125-0.035 0.003-0.099 0.019-0.144 0.029s-0.218 0.051-0.384 0.086c-0.592 0.131-1.597 0.445-2 0.624-0.051 0.026-0.189 0.083-0.304 0.128-0.57 0.234-1.491 0.733-2.115 1.149-0.515 0.342-0.605 0.406-1.043 0.765-1.968 1.59-3.434 3.658-4.288 6.038-0.24 0.675-0.493 1.648-0.586 2.266-0.080 0.509-0.093 0.611-0.112 0.822-0.013 0.122-0.029 0.266-0.038 0.32-0.029 0.182-0.035 1.795-0.010 2.112 0.032 0.368 0.096 0.963 0.115 1.056 0.010 0.035 0.045 0.23 0.080 0.432 0.16 0.925 0.49 2.016 0.877 2.912 1.094 2.541 3.011 4.758 5.376 6.211 1.808 1.114 3.962 1.818 6.032 1.971 0.432 0.032 1.824 0.032 2.176 0 1.494-0.138 2.752-0.438 4.054-0.966 0.656-0.269 1.501-0.698 2.026-1.034 0.522-0.333 1.107-0.749 1.379-0.979 0.064-0.054 0.186-0.157 0.272-0.227 0.384-0.317 0.995-0.922 1.421-1.408 1.792-2.054 2.874-4.451 3.248-7.2 0.010-0.054 0.022-0.198 0.035-0.32 0.010-0.125 0.026-0.259 0.035-0.304 0.029-0.144 0.035-1.798 0.006-2.112-0.035-0.435-0.093-0.918-0.125-1.104-0.016-0.090-0.045-0.253-0.064-0.368-0.262-1.485-0.89-3.165-1.667-4.454-0.189-0.31-0.525-0.835-0.582-0.906-0.013-0.019-0.131-0.176-0.266-0.352-1.76-2.355-4.288-4.093-7.149-4.909-0.72-0.205-1.6-0.374-2.272-0.438-0.115-0.010-0.25-0.026-0.304-0.035-0.106-0.016-1.923-0.042-1.942-0.026zM17.056 4.842c0.045 0.006 0.16 0.022 0.256 0.035 1.325 0.166 2.454 0.499 3.632 1.075 2.019 0.992 3.722 2.602 4.842 4.592 0.688 1.226 1.197 2.797 1.334 4.128 0.013 0.106 0.026 0.227 0.035 0.272 0.006 0.045 0.022 0.301 0.032 0.566l0.022 0.49h-8.010v7.2h-2.4v-4.8h-1.6v4.8h-2.4v-7.2h-8.006l0.019-0.442c0.051-1.235 0.291-2.429 0.707-3.517 0.17-0.442 0.144-0.381 0.426-0.97 0.963-1.994 2.563-3.693 4.518-4.806 1.216-0.691 2.624-1.174 3.936-1.35 0.061-0.010 0.163-0.022 0.224-0.032 0.061-0.006 0.227-0.026 0.368-0.035 0.141-0.013 0.262-0.029 0.269-0.035 0.013-0.013 1.696 0.013 1.795 0.029z"></path>
<path fill="#ff7900" d="M15.648 6.419c-0.406 0.083-0.704 0.202-0.992 0.397-0.464 0.317-0.803 0.784-0.966 1.338-0.096 0.326-0.102 0.902-0.013 1.245 0.221 0.864 0.947 1.562 1.827 1.747 0.285 0.061 0.826 0.051 1.104-0.022 1.101-0.291 1.856-1.341 1.782-2.467-0.022-0.333-0.080-0.57-0.202-0.835-0.307-0.675-0.877-1.149-1.629-1.354-0.141-0.042-0.787-0.074-0.912-0.048z"></path>
<path fill="#ff7900" d="M15.312 12.083c-0.65 0.147-1.11 0.403-1.568 0.861-0.438 0.438-0.682 0.867-0.854 1.504-0.048 0.173-0.067 0.374-0.080 0.886l-0.019 0.666h6.419l-0.019-0.666c-0.019-0.71-0.070-0.995-0.262-1.424-0.611-1.386-2.154-2.163-3.616-1.827z"></path>
</svg>
