<!-- Generated by IcoMoon.io -->
<svg version="1.1" xmlns="http://www.w3.org/2000/svg" width="32" height="32" viewBox="0 0 32 32">
<title>accessibility_vision</title>
<path fill="#ff7900" d="M15.005 8.013c-0.006 0.006-0.15 0.019-0.317 0.029-2.31 0.15-4.973 1.018-7.28 2.374-1.475 0.867-2.602 1.731-3.728 2.861-0.755 0.758-1.299 1.43-1.766 2.179-0.349 0.563-0.336 0.509-0.195 0.762 0.282 0.509 0.816 1.261 1.277 1.786 2.374 2.726 5.968 4.851 9.533 5.645 0.435 0.096 1.082 0.208 1.408 0.243 0.106 0.010 0.218 0.026 0.246 0.032 0.326 0.061 2.486 0.086 3.146 0.038 3.040-0.224 6.339-1.53 9.117-3.603 1.142-0.854 2.352-2.032 3.082-2.998 0.253-0.336 0.541-0.771 0.73-1.094l0.15-0.262-0.15-0.266c-0.221-0.384-0.65-1.014-0.899-1.328-0.397-0.496-1.162-1.302-1.648-1.741-0.243-0.218-0.326-0.288-0.605-0.522-2.090-1.747-4.877-3.158-7.376-3.734-0.765-0.176-1.222-0.256-1.776-0.317-0.186-0.019-0.378-0.045-0.432-0.051-0.112-0.022-2.493-0.051-2.515-0.032zM16.8 10.301c1.587 0.24 3.037 1.152 3.92 2.467 0.89 1.328 1.187 2.861 0.861 4.461-0.339 1.68-1.562 3.216-3.158 3.971-0.57 0.269-1.12 0.432-1.731 0.512-0.317 0.042-1.251 0.042-1.491 0-0.65-0.109-1.008-0.211-1.514-0.422-1.203-0.506-2.278-1.514-2.867-2.688-0.323-0.65-0.464-1.117-0.595-2.010-0.026-0.166-0.026-1.018 0-1.184 0.131-0.883 0.272-1.363 0.595-2.010 0.822-1.642 2.47-2.832 4.285-3.091 0.131-0.019 0.275-0.042 0.32-0.048 0.157-0.022 1.139 0.006 1.376 0.042zM22.538 11.472c2.192 1.078 4.147 2.624 5.427 4.285 0.144 0.186 0.166 0.23 0.138 0.288-0.125 0.278-1.347 1.578-2.006 2.138-0.736 0.621-1.789 1.36-2.611 1.827-0.339 0.192-1.443 0.758-1.482 0.758-0.010 0 0.093-0.154 0.224-0.342 1.053-1.501 1.526-3.258 1.379-5.098-0.109-1.363-0.675-2.842-1.514-3.942-0.166-0.218-0.179-0.221 0.445 0.086zM9.706 11.542c-0.512 0.72-0.902 1.53-1.13 2.339-0.422 1.498-0.39 3.078 0.096 4.55 0.23 0.704 0.669 1.552 1.075 2.086 0.080 0.106 0.141 0.195 0.134 0.202-0.013 0.016-0.941-0.451-1.274-0.637-1.763-1.002-3.341-2.301-4.422-3.648-0.141-0.173-0.269-0.349-0.288-0.39-0.032-0.064 0-0.115 0.282-0.467 0.614-0.765 1.654-1.744 2.589-2.442 0.4-0.301 1.245-0.858 1.648-1.091 0.333-0.192 1.421-0.749 1.434-0.733 0.006 0.006-0.058 0.109-0.144 0.23z"></path>
<path fill="#ff7900" d="M15.632 12.499c-1.475 0.154-2.678 1.174-3.072 2.605-0.109 0.394-0.138 1.12-0.061 1.52 0.182 0.95 0.717 1.76 1.498 2.282 0.378 0.253 0.704 0.397 1.155 0.512 0.557 0.141 1.328 0.109 1.901-0.077 0.246-0.080 0.774-0.355 0.979-0.509 1.034-0.778 1.536-1.936 1.411-3.248-0.032-0.333-0.256-1.091-0.307-1.034-0.013 0.013-0.048 0.093-0.077 0.179-0.077 0.208-0.301 0.499-0.486 0.637-0.323 0.237-0.589 0.32-0.976 0.317-0.666-0.006-1.245-0.448-1.443-1.101-0.083-0.282-0.070-0.714 0.038-0.982 0.134-0.349 0.426-0.662 0.784-0.845 0.090-0.045 0.154-0.083 0.144-0.083s-0.157-0.035-0.326-0.077c-0.304-0.080-0.874-0.125-1.162-0.096z"></path>
</svg>
