<!-- Generated by IcoMoon.io -->
<svg version="1.1" xmlns="http://www.w3.org/2000/svg" width="32" height="32" viewBox="0 0 32 32">
<title>accessibility_dexterity</title>
<path fill="#ff7900" d="M9.709 5.024c-0.448 0.099-0.81 0.522-0.838 0.986-0.016 0.246 0.035 0.454 0.173 0.662 0.054 0.086 1.45 1.507 3.098 3.152 3.203 3.2 3.088 3.072 2.995 3.296-0.077 0.189-0.314 0.278-0.49 0.189-0.038-0.019-1.658-1.622-3.6-3.562-2.32-2.317-3.574-3.549-3.664-3.594-0.544-0.288-1.213-0.061-1.488 0.502-0.070 0.147-0.086 0.218-0.086 0.448 0 0.512-0.278 0.198 3.699 4.176 1.939 1.936 3.542 3.558 3.568 3.6 0.144 0.262-0.118 0.573-0.422 0.499-0.061-0.016-1.024-0.957-3.114-3.046-1.664-1.661-3.085-3.056-3.155-3.098-0.522-0.31-1.251-0.074-1.517 0.493-0.067 0.144-0.080 0.224-0.083 0.448 0 0.502-0.278 0.189 3.738 4.208 3.059 3.056 3.568 3.581 3.587 3.677 0.048 0.25-0.163 0.467-0.413 0.422-0.106-0.022-0.355-0.259-2.147-2.051-2.301-2.301-2.189-2.208-2.669-2.208-0.227 0-0.301 0.013-0.448 0.083-0.579 0.272-0.806 0.976-0.493 1.523 0.093 0.16 6.65 6.726 7.059 7.069 1.085 0.906 2.413 1.466 3.859 1.626 0.368 0.042 1.277 0.045 1.542 0.006 0.080-0.013 0.25-0.038 0.378-0.058l0.237-0.035 1.235 1.235c1.174 1.168 1.248 1.235 1.408 1.283 0.195 0.058 0.406 0.042 0.592-0.038 0.157-0.070 4.797-4.701 4.896-4.886 0.093-0.173 0.096-0.522 0.006-0.701-0.038-0.080-0.522-0.586-1.258-1.325l-1.197-1.197 0.026-0.118c0.013-0.064 0.026-0.138 0.029-0.163s0.013-0.099 0.026-0.16c0.064-0.352 0.090-1.181 0.051-1.555-0.013-0.122-0.032-0.307-0.042-0.413-0.032-0.298-0.163-0.896-0.275-1.248-0.272-0.848-0.64-1.542-1.21-2.288-0.266-0.349-5.174-5.27-5.414-5.43-0.765-0.512-1.837-0.147-2.141 0.726-0.131 0.378-0.112 0.742 0.061 1.11 0.096 0.198 0.218 0.333 1.488 1.61 1.069 1.072 1.389 1.414 1.408 1.491 0.048 0.243-0.157 0.451-0.41 0.419-0.122-0.016-0.352-0.24-3.923-3.808-2.49-2.49-3.84-3.814-3.923-3.856-0.221-0.109-0.518-0.15-0.739-0.102z"></path>
</svg>
