<!-- Generated by IcoMoon.io -->
<svg version="1.1" xmlns="http://www.w3.org/2000/svg" width="32" height="32" viewBox="0 0 32 32">
<title>accessibility_cognition</title>
<path fill="#ff7900" d="M14.486 3.283c-0.003 0.003-0.15 0.013-0.326 0.022-3.504 0.211-6.672 2.56-7.904 5.862-0.429 1.152-0.595 2.125-0.576 3.376 0.013 0.746 0.035 0.976 0.147 1.568 0.224 1.194 0.739 2.438 1.418 3.424 0.205 0.294 0.499 1.245 0.579 1.856 0.010 0.080 0.032 0.243 0.045 0.368 0.016 0.122 0.032 1.872 0.032 3.885 0.003 3.219 0.010 3.683 0.054 3.856 0.144 0.557 0.566 0.995 1.117 1.158 0.179 0.054 0.48 0.058 4.794 0.061h4.598v-1.99c0-1.098 0.010-1.994 0.026-1.997 0.013-0.003 0.931-0.006 2.038-0.010 1.83-0.006 2.035-0.013 2.208-0.064 0.506-0.15 0.864-0.49 1.082-1.021 0.070-0.163 0.070-0.205 0.086-2.502l0.016-2.336h0.896c0.835-0.003 0.906-0.010 1.040-0.070 0.288-0.134 0.48-0.426 0.48-0.73-0.003-0.275 0.102-0.112-1.846-2.864l-0.579-0.816-0.016-1.392c-0.010-0.765-0.026-1.456-0.038-1.536-0.195-1.421-0.586-2.576-1.242-3.664-1.024-1.702-2.55-3.014-4.387-3.776-0.611-0.253-1.533-0.502-2.131-0.579-0.080-0.010-0.176-0.022-0.218-0.029-0.218-0.035-1.36-0.086-1.392-0.061zM15.504 5.072c1.101 0.099 2.278 0.512 3.216 1.126 1.078 0.71 1.949 1.696 2.512 2.842 0.352 0.717 0.445 1.069 0.445 1.728 0.003 0.474-0.026 0.643-0.163 1.024-0.128 0.346-0.282 0.598-0.602 0.973-0.102 0.118-0.55 0.445-0.749 0.544-0.448 0.224-0.858 0.307-1.398 0.282-0.288-0.013-0.448-0.038-0.653-0.102-0.515-0.163-0.688-0.198-0.979-0.205-1.014-0.022-1.859 0.422-2.451 1.283-0.531 0.771-1.158 1.267-1.984 1.555-1.018 0.362-2.192 0.259-3.146-0.269-0.246-0.134-0.717-0.499-0.899-0.688-0.57-0.605-0.973-1.44-1.053-2.192-0.013-0.102-0.029-0.224-0.038-0.269s-0.022-0.374-0.029-0.736c-0.010-0.694 0.026-0.989 0.208-1.667 0.31-1.152 0.976-2.282 1.859-3.152 1.309-1.293 2.858-1.952 4.928-2.102 0.166-0.013 0.72 0.003 0.976 0.026z"></path>
</svg>
