<!-- Generated by IcoMoon.io -->
<svg version="1.1" xmlns="http://www.w3.org/2000/svg" width="32" height="32" viewBox="0 0 32 32">
<title>accessibility_speech</title>
<path fill="#ff7900" d="M10.048 9.424c-1.482 0.186-2.877 0.787-4.256 1.84-0.787 0.602-1.744 1.539-2.496 2.448-0.131 0.157-0.246 0.294-0.256 0.304-0.093 0.086-0.976 1.277-1.258 1.693l-0.182 0.269 0.099 0.179c0.17 0.304 0.685 1.062 0.928 1.363 1.158 1.437 2.79 2.794 4.656 3.875 0.413 0.237 1.152 0.618 1.549 0.797 0.186 0.083 0.394 0.176 0.464 0.208 1.299 0.579 3.28 1.123 4.624 1.264 0.096 0.010 0.205 0.026 0.24 0.032 0.317 0.064 2.57 0.090 3.264 0.038 0.589-0.045 1.558-0.186 2.032-0.298 0.957-0.224 1.072-0.256 1.792-0.493 0.49-0.163 1.165-0.416 1.482-0.557 1.216-0.541 2.093-1.018 3.062-1.661 1.206-0.803 2.41-1.843 3.216-2.774 0.083-0.096 0.192-0.221 0.237-0.272 0.253-0.282 0.701-0.922 0.982-1.402 0.195-0.33 0.208-0.262-0.125-0.736-0.608-0.877-1.482-1.971-2.048-2.573-1.965-2.090-3.786-3.178-5.894-3.517-0.55-0.090-1.52-0.083-2 0.013-0.854 0.173-1.741 0.557-2.656 1.155-0.096 0.061-0.182 0.122-0.192 0.131-0.042 0.048-0.477 0.314-0.592 0.362-0.352 0.141-0.714 0.176-1.101 0.099-0.288-0.054-0.477-0.144-0.845-0.403-1.107-0.771-2.192-1.242-3.206-1.389-0.349-0.048-1.104-0.048-1.52 0.003zM17.712 14.218c0.070 0.010 0.291 0.026 0.49 0.038 0.202 0.013 0.397 0.026 0.432 0.032 0.038 0.006 0.179 0.019 0.31 0.032 1.334 0.112 3.034 0.445 4.154 0.813 1.034 0.339 1.734 0.762 1.734 1.046 0 0.093-0.134 0.262-0.31 0.387-0.806 0.579-2.778 1.133-4.986 1.398-0.637 0.080-0.653 0.080-0.944 0.102-0.15 0.010-0.307 0.022-0.349 0.029-0.522 0.086-3.546 0.083-4.458 0-1.706-0.157-2.525-0.282-3.706-0.563-1.539-0.365-2.739-0.918-2.838-1.302-0.093-0.378 0.973-0.931 2.595-1.35 0.938-0.243 1.827-0.4 3.011-0.531 0.090-0.010 0.182-0.022 0.208-0.029s0.192-0.022 0.368-0.035c0.176-0.010 0.355-0.026 0.4-0.029 0.045-0.006 0.298-0.022 0.56-0.032 0.266-0.013 0.486-0.029 0.493-0.035 0.016-0.016 2.685 0.013 2.835 0.029z"></path>
</svg>
