<!-- Generated by IcoMoon.io -->
<svg version="1.1" xmlns="http://www.w3.org/2000/svg" width="32" height="32" viewBox="0 0 32 32">
<title>accessibility_mobility</title>
<path fill="#ff7900" d="M13.312 2.925c-1.008 0.186-1.859 0.826-2.314 1.731-0.598 1.194-0.374 2.675 0.544 3.619 0.474 0.493 0.886 0.73 1.61 0.928 0.16 0.045 0.326 0.058 0.704 0.058 0.438 0 0.531-0.010 0.813-0.086 1.814-0.496 2.81-2.355 2.211-4.138-0.333-0.989-1.165-1.763-2.198-2.048-0.374-0.099-1.005-0.131-1.37-0.064z"></path>
<path fill="#ff7900" d="M13.552 10.099c-0.346 0.070-0.442 0.096-0.608 0.163-0.573 0.24-1.066 0.73-1.293 1.283-0.186 0.451-0.179 0.298-0.179 3.75v3.184l0.074 0.234c0.109 0.349 0.211 0.554 0.397 0.797 0.202 0.269 0.336 0.397 0.602 0.57 0.31 0.205 0.637 0.326 1.008 0.381 0.054 0.006 1.386 0.016 2.96 0.016l2.864 0.006 0.96 1.539c0.528 0.845 1.011 1.619 1.075 1.718 0.061 0.099 0.435 0.698 0.829 1.331 0.79 1.267 0.947 1.469 1.296 1.632 0.253 0.118 0.342 0.144 0.618 0.166 0.464 0.035 0.662-0.042 1.661-0.675l0.646-0.406-0.154-0.246c-0.083-0.134-0.611-0.982-1.171-1.878-0.56-0.899-1.062-1.706-1.12-1.792-0.058-0.090-0.49-0.781-0.96-1.536-0.47-0.758-0.89-1.427-0.928-1.488s-0.134-0.214-0.214-0.336c-0.362-0.573-0.429-0.669-0.592-0.816-0.205-0.186-0.496-0.333-0.758-0.381-0.125-0.022-0.909-0.035-2.25-0.035h-2.058v-2.24h2.154c2.374 0 2.333 0.003 2.634-0.202 0.406-0.272 0.582-0.768 0.442-1.238-0.096-0.32-0.298-0.55-0.621-0.701l-0.176-0.083-4.432-0.019v-0.272c0-1.171-0.765-2.134-1.888-2.384-0.246-0.054-0.646-0.074-0.816-0.042z"></path>
<path fill="#ff7900" d="M10.083 13.651c-2.557 1.277-4.205 3.67-4.509 6.541-0.029 0.282-0.029 1.232 0.003 1.565 0.144 1.584 0.803 3.158 1.859 4.435 0.403 0.486 1.2 1.21 1.69 1.53 1.008 0.656 1.936 1.037 3.050 1.251 0.582 0.112 0.685 0.118 1.424 0.131 0.867 0.013 1.306-0.038 2.128-0.246 1.072-0.269 2.022-0.73 2.944-1.43 0.294-0.224 0.387-0.307 0.8-0.72s0.666-0.714 0.947-1.123c0.189-0.269 0.573-0.928 0.573-0.976 0-0.016-0.163-0.288-0.358-0.602-0.198-0.317-0.477-0.762-0.618-0.992s-0.262-0.419-0.272-0.419c-0.010-0.003-0.064 0.144-0.122 0.323-0.125 0.394-0.483 1.136-0.701 1.456-0.954 1.418-2.307 2.339-3.949 2.694-0.416 0.090-0.672 0.112-1.229 0.115-0.813 0-1.318-0.077-2.016-0.307-2.102-0.694-3.709-2.509-4.144-4.672-0.096-0.477-0.112-0.685-0.109-1.309 0.006-1.472 0.486-2.79 1.443-3.942 0.39-0.47 1.050-1.040 1.533-1.322l0.205-0.122v-1.050c0-0.87-0.006-1.053-0.045-1.053-0.022 0-0.259 0.109-0.528 0.243z"></path>
</svg>
