<!-- Generated by IcoMoon.io -->
<svg version="1.1" xmlns="http://www.w3.org/2000/svg" width="32" height="32" viewBox="0 0 32 32">
<title>accessibility_hearing</title>
<path fill="#ff7900" d="M15.197 3.725c-0.006 0.006-0.122 0.019-0.253 0.032-1.229 0.102-2.573 0.557-3.68 1.245-1.43 0.89-2.675 2.317-3.286 3.763-0.026 0.061-0.045 0.192-0.045 0.291 0.003 0.704 0.707 1.165 1.344 0.88 0.253-0.115 0.374-0.253 0.592-0.678 0.918-1.795 2.611-3.085 4.566-3.485 0.515-0.102 0.726-0.125 1.309-0.125 0.803 0 1.213 0.054 1.91 0.256 1.066 0.31 2.074 0.922 2.88 1.747 0.336 0.342 0.541 0.602 0.816 1.021 0.202 0.307 0.602 1.069 0.602 1.146 0 0.019 0.029 0.102 0.067 0.186 0.096 0.23 0.275 0.941 0.333 1.341 0.099 0.669 0.074 1.571-0.064 2.253-0.176 0.864-0.582 1.802-1.053 2.426-0.266 0.349-0.554 0.726-1.334 1.738-0.24 0.307-0.512 0.662-0.608 0.787s-0.726 0.944-1.405 1.821c-0.678 0.877-1.306 1.69-1.392 1.805-0.157 0.205-0.861 1.117-1.187 1.539-0.090 0.115-0.432 0.56-0.762 0.992-0.688 0.893-0.813 1.034-1.114 1.235-1.472 0.986-3.434 0.176-3.808-1.571-0.019-0.093-0.038-0.656-0.042-1.347l-0.010-1.19-0.080-0.176c-0.234-0.509-0.794-0.714-1.29-0.47-0.246 0.122-0.403 0.298-0.486 0.541-0.054 0.163-0.058 0.282-0.054 1.379 0.006 1.203 0.013 1.341 0.099 1.728 0.4 1.795 1.856 3.152 3.661 3.408 0.896 0.125 1.795-0.019 2.605-0.422 0.282-0.141 0.419-0.23 0.742-0.48 0.326-0.25 0.547-0.49 1.059-1.155 0.227-0.294 0.512-0.662 0.634-0.822 0.125-0.16 0.822-1.066 1.552-2.013s1.459-1.888 1.616-2.096c0.16-0.205 0.669-0.867 1.136-1.472s0.877-1.136 0.912-1.181c0.035-0.048 0.336-0.438 0.669-0.87 0.685-0.886 0.832-1.11 1.139-1.744 0.758-1.568 1.011-3.267 0.749-5.024-0.067-0.448-0.253-1.184-0.403-1.6-0.291-0.81-0.883-1.853-1.418-2.496-1.411-1.706-3.242-2.733-5.472-3.075-0.282-0.045-1.712-0.096-1.747-0.064z"></path>
<path fill="#ff7900" d="M15.613 7.466c-0.006 0.010-0.099 0.022-0.205 0.032-0.643 0.061-1.43 0.336-2.016 0.701-0.957 0.602-1.715 1.581-2.058 2.65-0.17 0.534-0.208 0.768-0.218 1.392-0.010 0.698 0.045 1.062 0.259 1.706 0.221 0.662 0.246 0.784 0.259 1.222 0.013 0.49-0.029 0.714-0.24 1.341-0.256 0.749-0.272 1.286-0.064 1.878 0.298 0.848 0.944 1.469 1.773 1.709 1.523 0.442 3.078-0.518 3.376-2.080 0.048-0.24 0.048-0.717 0-0.947-0.112-0.576-0.381-1.069-0.787-1.456-0.256-0.24-0.438-0.358-0.832-0.544-0.458-0.214-0.755-0.422-1.037-0.723-0.387-0.413-0.602-0.822-0.739-1.402-0.083-0.352-0.067-1.011 0.035-1.376 0.275-1.014 1.088-1.818 2.109-2.086 0.426-0.115 1.043-0.118 1.443-0.016 1.069 0.282 1.875 1.091 2.163 2.17 0.045 0.166 0.058 0.339 0.061 0.701 0 0.541-0.026 0.675-0.243 1.206-0.099 0.25-0.128 0.365-0.128 0.518-0.003 0.31 0.144 0.598 0.4 0.781 0.355 0.256 0.861 0.221 1.206-0.083 0.227-0.198 0.522-0.957 0.637-1.626 0.413-2.454-1.12-4.845-3.536-5.501-0.157-0.045-0.387-0.093-0.512-0.112-0.23-0.035-1.082-0.077-1.107-0.054z"></path>
</svg>
