<!-- Generated by IcoMoon.io -->
<svg version="1.1" xmlns="http://www.w3.org/2000/svg" width="32" height="32" viewBox="0 0 32 32">
<title>accessory_headphones</title>
<path fill="#ff7900" d="M15.453 4.81c-0.006 0.010-0.15 0.022-0.317 0.035-1.014 0.064-2.336 0.435-3.328 0.931-0.515 0.259-0.541 0.272-0.864 0.474-1.19 0.746-2.282 1.827-3.046 3.018-0.8 1.245-1.318 2.755-1.456 4.253-0.016 0.141-0.026 3.136-0.026 6.653v6.397l0.208 0.106c0.634 0.323 1.264 0.486 1.968 0.512 0.298 0.010 0.464 0 0.589-0.032 0.592-0.16 1.062-0.646 1.184-1.229 0.026-0.122 0.035-1.19 0.035-3.552 0-2.816-0.010-3.411-0.048-3.555-0.138-0.522-0.525-0.95-1.014-1.123-0.24-0.083-0.298-0.090-0.851-0.093l-0.486-0.003 0.003-1.85c0-1.014 0.016-1.955 0.032-2.086 0.054-0.474 0.067-0.563 0.128-0.861 0.179-0.87 0.531-1.763 1.008-2.55 0.845-1.395 2.17-2.547 3.677-3.197 0.656-0.282 1.456-0.509 2.048-0.576 0.106-0.013 0.221-0.032 0.256-0.038 0.125-0.029 1.347-0.035 1.6-0.006 2.486 0.269 4.608 1.562 5.955 3.629 0.595 0.915 0.979 1.891 1.184 3.024 0.083 0.461 0.086 0.47 0.099 2.486l0.016 2.026-0.493 0.003c-0.554 0.003-0.611 0.010-0.851 0.093-0.506 0.179-0.918 0.65-1.027 1.178-0.026 0.122-0.035 1.19-0.035 3.552 0 3.67-0.006 3.526 0.179 3.907 0.115 0.234 0.454 0.573 0.688 0.688 0.304 0.147 0.483 0.179 0.909 0.166 0.688-0.022 1.347-0.186 1.936-0.48l0.272-0.138v-6.381c0-3.51-0.010-6.515-0.026-6.678-0.128-1.52-0.733-3.203-1.619-4.486-0.832-1.206-1.891-2.198-3.114-2.909-1.478-0.858-2.947-1.27-4.653-1.302-0.387-0.010-0.71-0.010-0.72-0.003z"></path>
<path fill="#ff7900" d="M5.347 19.13c-0.694 0.755-1.078 1.51-1.27 2.486-0.090 0.438-0.080 1.36 0.016 1.808 0.189 0.896 0.563 1.632 1.171 2.314 0.147 0.17 0.285 0.314 0.304 0.326 0.022 0.013 0.032-1.139 0.032-3.581 0-1.981-0.006-3.603-0.013-3.603s-0.115 0.112-0.24 0.25z"></path>
<path fill="#ff7900" d="M26.4 22.502v3.594l0.253-0.266c0.579-0.608 0.986-1.347 1.2-2.176 0.224-0.858 0.17-1.99-0.138-2.816-0.182-0.49-0.458-0.989-0.762-1.366-0.186-0.234-0.493-0.56-0.525-0.56-0.016 0-0.029 1.507-0.029 3.59z"></path>
</svg>
