<!-- Generated by IcoMoon.io -->
<svg version="1.1" xmlns="http://www.w3.org/2000/svg" width="32" height="32" viewBox="0 0 32 32">
<title>Add</title>
<path fill="#ff7900" d="M13.981 3.258c-0.554 0.147-1.027 0.646-1.146 1.216-0.026 0.118-0.035 1.395-0.035 4.246v4.080l-4.096 0.003c-2.253 0.003-4.106 0.006-4.118 0.010-0.016 0.003-0.083 0.016-0.15 0.032-0.365 0.070-0.8 0.39-1.011 0.742-0.218 0.358-0.221 0.4-0.221 2.368-0.003 1.149 0.010 1.827 0.032 1.952 0.112 0.608 0.624 1.126 1.238 1.258 0.122 0.026 1.341 0.035 4.246 0.035h4.080v4.058c0 2.746 0.010 4.122 0.035 4.25 0.102 0.576 0.576 1.082 1.158 1.232 0.208 0.054 0.374 0.061 1.974 0.061 1.117 0 1.818-0.013 1.939-0.035 0.605-0.109 1.13-0.627 1.258-1.238 0.026-0.118 0.035-1.395 0.035-4.246v-4.080l8.336-0.016 0.189-0.074c0.522-0.198 0.89-0.602 1.027-1.13 0.058-0.221 0.070-3.578 0.013-3.885-0.112-0.618-0.643-1.149-1.258-1.261-0.131-0.026-1.472-0.035-4.25-0.035h-4.058v-4.090c0-3.91-0.003-4.102-0.061-4.32-0.032-0.128-0.109-0.314-0.166-0.41-0.214-0.358-0.643-0.662-1.046-0.746-0.112-0.022-0.771-0.035-1.952-0.032-1.578 0-1.808 0.006-1.994 0.054z"></path>
</svg>
