<!-- Generated by IcoMoon.io -->
<svg version="1.1" xmlns="http://www.w3.org/2000/svg" width="32" height="32" viewBox="0 0 32 32">
<title>add_more</title>
<path fill="#ff7900" d="M15.194 2.416c-0.003 0.003-0.147 0.019-0.314 0.029-0.166 0.013-0.333 0.029-0.368 0.035s-0.128 0.022-0.208 0.029c-0.352 0.042-0.493 0.064-0.928 0.15-3.763 0.746-7.018 3.018-9.008 6.301-0.608 0.998-1.082 2.067-1.405 3.168-0.147 0.499-0.326 1.27-0.387 1.664-0.054 0.365-0.077 0.554-0.096 0.752-0.013 0.122-0.029 0.266-0.038 0.32-0.029 0.182-0.035 1.795-0.010 2.112 0.032 0.349 0.096 0.954 0.115 1.056 0.006 0.035 0.042 0.23 0.080 0.432 0.243 1.357 0.749 2.797 1.411 4.010 0.944 1.728 2.275 3.267 3.84 4.432 1.661 1.235 3.642 2.102 5.642 2.467 0.39 0.070 0.477 0.083 0.992 0.147 0.541 0.067 2.032 0.090 2.576 0.038 1.862-0.173 3.405-0.605 4.992-1.398 0.202-0.099 0.426-0.218 0.496-0.256 0.070-0.042 0.192-0.109 0.272-0.154s0.33-0.202 0.56-0.352c2.71-1.77 4.704-4.426 5.622-7.494 0.070-0.237 0.141-0.483 0.154-0.544 0.093-0.397 0.256-1.226 0.269-1.36 0.010-0.090 0.026-0.189 0.032-0.224s0.022-0.173 0.035-0.304c0.013-0.131 0.029-0.285 0.038-0.336 0.029-0.195 0.035-1.834 0.006-2.128-0.038-0.435-0.093-0.918-0.125-1.104-0.016-0.090-0.045-0.253-0.064-0.368-0.083-0.49-0.298-1.318-0.486-1.872-1.293-3.792-4.106-6.771-7.821-8.285-1.098-0.445-2.512-0.797-3.629-0.902-0.115-0.010-0.25-0.026-0.304-0.035-0.109-0.016-1.923-0.042-1.942-0.026zM17.872 7.254c0.093 0.029 0.211 0.106 0.288 0.186 0.253 0.25 0.24 0.083 0.24 3.302v2.858h2.861c3.11 0 2.998-0.006 3.242 0.179 0.058 0.042 0.144 0.147 0.192 0.23l0.090 0.15 0.010 1.773c0.010 1.997 0.013 1.981-0.221 2.214-0.256 0.256 0.019 0.237-3.251 0.246l-2.918 0.010-0.019 5.837-0.080 0.141c-0.077 0.134-0.218 0.266-0.384 0.358-0.064 0.035-0.41 0.048-1.853 0.054-2.019 0.010-1.984 0.013-2.23-0.237-0.25-0.259-0.237-0.086-0.237-3.299v-2.858h-2.858c-3.219 0-3.053 0.013-3.302-0.24-0.246-0.243-0.243-0.214-0.234-2.227l0.010-1.773 0.086-0.147c0.048-0.080 0.138-0.186 0.198-0.234 0.246-0.186 0.128-0.179 3.238-0.179h2.861l0.006-2.922c0.010-3.277-0.010-2.998 0.253-3.254 0.23-0.221 0.195-0.218 2.128-0.221 1.53-0.003 1.747 0.003 1.885 0.051z"></path>
</svg>
