<!-- Generated by IcoMoon.io -->
<svg version="1.1" xmlns="http://www.w3.org/2000/svg" width="32" height="32" viewBox="0 0 32 32">
<title>address_book</title>
<path fill="#ff7900" d="M6.4 5.2v2l-0.486 0.003c-0.554 0.003-0.611 0.010-0.851 0.093-0.886 0.314-1.306 1.344-0.896 2.205 0.195 0.41 0.656 0.771 1.107 0.864 0.093 0.019 0.384 0.035 0.646 0.035h0.48v4h-0.48c-0.262 0-0.554 0.016-0.646 0.035-0.723 0.15-1.274 0.829-1.274 1.565 0 0.742 0.57 1.434 1.293 1.565 0.106 0.019 0.397 0.035 0.65 0.035h0.458v4h-0.48c-0.262 0-0.554 0.016-0.646 0.035-0.534 0.112-0.998 0.522-1.181 1.040-0.288 0.816 0.157 1.741 0.97 2.029 0.24 0.083 0.298 0.090 0.851 0.093l0.486 0.003v0.886c0 0.49 0.016 0.982 0.035 1.098 0.157 0.992 0.899 1.754 1.914 1.965 0.208 0.042 1.408 0.048 9.942 0.051h9.709l-0.006-11.798-0.010-11.802-0.067-0.224c-0.224-0.739-0.733-1.318-1.395-1.59-0.493-0.198 0.243-0.186-10.406-0.186h-9.715v2zM17.952 8.099c1.267 0.368 2.106 1.533 2.038 2.829-0.022 0.413-0.102 0.723-0.278 1.094-0.346 0.714-1.046 1.286-1.824 1.485-0.397 0.102-1.002 0.102-1.376 0.003-0.998-0.272-1.738-1.005-2.022-2.006-0.058-0.211-0.070-0.336-0.070-0.72 0-0.486 0.038-0.685 0.214-1.104 0.346-0.822 1.11-1.437 2.038-1.635 0.307-0.064 0.97-0.038 1.28 0.054zM18.048 14.48c1.453 0.31 2.643 1.286 3.2 2.618 0.157 0.374 0.275 0.822 0.32 1.197 0.019 0.166 0.032 1.379 0.032 2.995v2.71l-7.568-0.016-0.17-0.070c-0.531-0.218-0.918-0.666-1.027-1.19-0.048-0.23-0.048-4.074 0-4.451 0.253-1.971 1.75-3.51 3.725-3.827 0.336-0.051 1.171-0.035 1.488 0.035z"></path>
</svg>
