<!-- Generated by IcoMoon.io -->
<svg version="1.1" xmlns="http://www.w3.org/2000/svg" width="32" height="32" viewBox="0 0 32 32">
<title>administrator</title>
<path fill="#ff7900" d="M15.245 2.448c-0.906 0.134-1.68 0.426-2.413 0.906-0.362 0.237-0.563 0.406-0.928 0.771-0.87 0.877-1.398 1.926-1.606 3.203-0.051 0.323-0.051 1.392 0.003 1.696 0.109 0.634 0.285 1.178 0.547 1.702 0.752 1.501 2.093 2.586 3.709 3.005 2.029 0.525 4.192-0.096 5.622-1.613 0.787-0.835 1.299-1.862 1.504-3.014 0.070-0.394 0.080-1.44 0.016-1.808-0.058-0.346-0.211-0.922-0.31-1.174-0.579-1.485-1.69-2.64-3.136-3.258-0.477-0.205-0.797-0.294-1.485-0.416-0.237-0.045-1.232-0.042-1.523 0z"></path>
<path fill="#ff7900" d="M10.832 13.581c-0.035 0.022-0.208 0.134-0.384 0.25-1.757 1.136-2.954 3.075-3.206 5.194-0.013 0.122-0.026 1.946-0.026 4.048v3.824l0.083 0.304c0.198 0.71 0.608 1.325 1.165 1.744 0.269 0.202 0.634 0.394 0.934 0.493 0.512 0.17 0.176 0.163 8.080 0.163h7.325l-0.013-5.258c-0.006-2.89-0.022-5.312-0.035-5.382-0.096-0.544-0.195-0.995-0.266-1.216-0.531-1.686-1.6-3.078-3.088-4.013-0.17-0.109-0.326-0.195-0.346-0.195s-0.090 0.048-0.154 0.109c-0.781 0.723-1.984 1.37-3.059 1.638-0.666 0.17-1.085 0.221-1.811 0.221-0.656 0-0.934-0.026-1.478-0.131-0.912-0.176-1.83-0.557-2.618-1.078-0.278-0.186-0.749-0.554-0.861-0.675-0.086-0.093-0.147-0.102-0.243-0.038zM18.819 20.832c0.035 0.019 0.115 0.144 0.179 0.275 0.157 0.32 0.25 0.378 0.602 0.381 0.349 0 0.445-0.061 0.602-0.384 0.134-0.269 0.205-0.32 0.422-0.294 0.157 0.019 0.528 0.157 0.685 0.253 0.269 0.166 0.307 0.282 0.195 0.57-0.080 0.198-0.083 0.403-0.006 0.515 0.262 0.394 0.496 0.49 0.864 0.349 0.237-0.090 0.336-0.083 0.451 0.032 0.16 0.163 0.387 0.707 0.387 0.934 0 0.154-0.058 0.214-0.304 0.333-0.32 0.15-0.384 0.253-0.384 0.605 0 0.346 0.067 0.451 0.362 0.592 0.253 0.122 0.323 0.198 0.326 0.355 0 0.218-0.23 0.768-0.39 0.928-0.112 0.112-0.214 0.118-0.442 0.029-0.179-0.070-0.384-0.083-0.49-0.029-0.102 0.051-0.339 0.288-0.394 0.387-0.064 0.122-0.054 0.314 0.019 0.506 0.090 0.227 0.083 0.33-0.032 0.445-0.205 0.202-0.803 0.422-1.018 0.368-0.106-0.026-0.131-0.054-0.24-0.269-0.173-0.336-0.269-0.4-0.614-0.4-0.339 0-0.451 0.067-0.595 0.368-0.115 0.24-0.195 0.317-0.336 0.32-0.23 0-0.771-0.221-0.934-0.381-0.122-0.122-0.128-0.205-0.038-0.461 0.112-0.32 0.077-0.486-0.16-0.717-0.218-0.214-0.39-0.246-0.714-0.131-0.326 0.112-0.438 0.048-0.64-0.368-0.138-0.282-0.205-0.576-0.163-0.71 0.026-0.077 0.083-0.122 0.269-0.218 0.333-0.166 0.4-0.269 0.4-0.611 0-0.352-0.058-0.438-0.39-0.611-0.211-0.109-0.253-0.144-0.278-0.23-0.058-0.211 0.163-0.826 0.371-1.034 0.112-0.115 0.214-0.122 0.448-0.032 0.314 0.118 0.483 0.080 0.72-0.166 0.218-0.224 0.253-0.406 0.138-0.698-0.035-0.090-0.064-0.205-0.064-0.256 0-0.115 0.154-0.275 0.352-0.365 0.429-0.192 0.698-0.25 0.835-0.179z"></path>
<path fill="#ff7900" d="M19.248 22.733c-0.742 0.173-1.277 0.781-1.338 1.523-0.112 1.309 1.261 2.25 2.442 1.67 0.89-0.432 1.222-1.539 0.717-2.397-0.358-0.611-1.142-0.954-1.821-0.797z"></path>
</svg>
