<!-- Generated by IcoMoon.io -->
<svg version="1.1" xmlns="http://www.w3.org/2000/svg" width="32" height="32" viewBox="0 0 32 32">
<title>Adultcode</title>
<path fill="#ff7900" d="M15.52 1.61c-0.010 0.010-0.112 0.022-0.227 0.035-0.733 0.067-1.568 0.323-2.269 0.698-1.45 0.771-2.547 2.058-3.085 3.616-0.131 0.381-0.262 0.95-0.291 1.29-0.013 0.125-0.026 0.266-0.032 0.32-0.006 0.051-0.013 1.43-0.013 3.062l-0.003 2.97h-3.2l0.010 7.414c0.006 6.912 0.013 7.43 0.064 7.597 0.262 0.861 0.851 1.453 1.715 1.715 0.166 0.051 0.739 0.058 8.797 0.064l8.614 0.010-0.010-7.414c-0.006-7.014-0.010-7.427-0.064-7.603-0.227-0.746-0.758-1.341-1.43-1.61-0.454-0.179-0.237-0.173-6.41-0.173h-5.686l0.003-3.002 0.003-2.998 0.074-0.365c0.147-0.704 0.387-1.21 0.851-1.779 0.842-1.037 2.218-1.59 3.536-1.424 0.912 0.112 1.712 0.509 2.365 1.165 0.637 0.64 1.011 1.411 1.149 2.371 0.006 0.051 0.016 1.072 0.016 2.262l0.003 2.17h2.4l-0.003-2.234c-0.003-2.352-0.010-2.506-0.157-3.174-0.349-1.571-1.347-3.011-2.723-3.93-0.72-0.483-1.555-0.81-2.509-0.982-0.259-0.048-1.453-0.102-1.488-0.070zM9.162 19.232c0.218 0.080 0.301 0.17 0.694 0.736 0.176 0.256 0.333 0.467 0.349 0.474 0.013 0.003 0.157-0.182 0.317-0.419 0.387-0.563 0.486-0.675 0.698-0.778 0.15-0.074 0.202-0.083 0.378-0.070 0.477 0.038 0.819 0.4 0.819 0.861 0 0.208-0.086 0.368-0.598 1.107-0.269 0.39-0.502 0.746-0.518 0.787-0.035 0.093-0.045 0.077 0.49 0.854 0.621 0.896 0.669 1.005 0.595 1.36-0.074 0.352-0.387 0.611-0.787 0.646-0.358 0.032-0.573-0.112-0.925-0.63-0.339-0.493-0.445-0.64-0.461-0.64-0.013 0-0.17 0.218-0.355 0.483s-0.39 0.531-0.454 0.592c-0.234 0.208-0.64 0.259-0.925 0.112-0.192-0.099-0.278-0.182-0.368-0.362-0.163-0.32-0.131-0.602 0.109-0.963 0.083-0.128 0.31-0.458 0.502-0.736 0.474-0.678 0.451-0.64 0.406-0.733-0.035-0.064-0.198-0.304-0.803-1.165-0.266-0.374-0.307-0.48-0.307-0.733 0-0.186 0.016-0.253 0.096-0.394 0.214-0.39 0.63-0.547 1.050-0.39zM14.883 19.216c0.227 0.077 0.355 0.208 0.723 0.739 0.186 0.269 0.349 0.493 0.362 0.493s0.112-0.134 0.224-0.298c0.31-0.451 0.326-0.474 0.474-0.653 0.49-0.595 1.411-0.326 1.501 0.435 0.029 0.256-0.054 0.442-0.448 1.011-0.736 1.056-0.701 0.995-0.646 1.126 0.026 0.061 0.090 0.163 0.138 0.227 0.163 0.211 0.8 1.149 0.864 1.277 0.214 0.422 0.038 0.947-0.381 1.126-0.346 0.15-0.666 0.115-0.912-0.099-0.058-0.051-0.262-0.317-0.448-0.589-0.189-0.272-0.355-0.49-0.368-0.486-0.013 0.006-0.179 0.234-0.371 0.506-0.208 0.298-0.4 0.534-0.48 0.595-0.39 0.298-0.963 0.182-1.216-0.24-0.198-0.33-0.173-0.63 0.080-1.008 0.285-0.426 0.723-1.059 0.829-1.203 0.125-0.163 0.122-0.234-0.019-0.413-0.048-0.064-0.211-0.294-0.362-0.515-0.643-0.944-0.666-0.986-0.666-1.213 0-0.582 0.579-1.005 1.123-0.819zM20.698 19.216c0.269 0.080 0.333 0.154 0.934 1.030 0.077 0.112 0.147 0.202 0.16 0.202s0.128-0.154 0.256-0.346c0.362-0.528 0.47-0.669 0.592-0.762 0.413-0.314 1.014-0.179 1.254 0.285 0.070 0.134 0.086 0.211 0.090 0.39 0 0.304-0.029 0.355-0.829 1.482-0.122 0.17-0.24 0.355-0.262 0.413-0.048 0.112-0.077 0.064 0.662 1.13 0.326 0.474 0.406 0.627 0.432 0.842 0.054 0.461-0.301 0.861-0.81 0.909-0.205 0.019-0.413-0.048-0.573-0.192-0.061-0.051-0.266-0.317-0.451-0.586-0.189-0.272-0.349-0.493-0.362-0.493-0.010 0-0.166 0.214-0.349 0.477-0.381 0.554-0.47 0.646-0.701 0.736-0.198 0.080-0.352 0.083-0.57 0.019-0.426-0.125-0.685-0.63-0.541-1.056 0.054-0.157 0.122-0.259 0.79-1.226 0.349-0.499 0.349-0.499 0.186-0.71-0.288-0.378-0.944-1.379-0.982-1.504-0.128-0.413 0.134-0.912 0.544-1.043 0.182-0.054 0.33-0.054 0.528 0.003z"></path>
</svg>
