<!-- Generated by IcoMoon.io -->
<svg version="1.1" xmlns="http://www.w3.org/2000/svg" width="32" height="32" viewBox="0 0 32 32">
<title>Adult</title>
<path fill="#ff7900" d="M15.504 1.632c-0.086 0.013-0.218 0.032-0.288 0.042-0.259 0.038-0.784 0.211-1.075 0.355-0.387 0.189-0.467 0.234-0.739 0.438-0.96 0.714-1.565 1.728-1.747 2.941-0.029 0.186-0.029 0.998 0 1.184 0.15 0.986 0.563 1.818 1.254 2.512 0.63 0.63 1.382 1.034 2.291 1.222 0.381 0.080 1.254 0.080 1.632 0 0.909-0.192 1.648-0.586 2.288-1.222 0.608-0.605 1.027-1.366 1.203-2.202 0.074-0.339 0.102-1.062 0.061-1.43-0.195-1.645-1.331-3.062-2.896-3.616-0.467-0.163-0.838-0.23-1.36-0.24-0.256-0.003-0.534 0.003-0.624 0.016z"></path>
<path fill="#ff7900" d="M11.818 10.301c-0.72 0.429-1.245 0.922-1.741 1.635-0.122 0.176-0.179 0.282-0.346 0.624-0.24 0.496-0.378 0.947-0.464 1.52-0.058 0.39-0.074 4.285-0.016 4.688 0.15 1.104 1.158 2 2.278 2.029l0.086 0.003v3.68c0 2.531 0.010 3.731 0.035 3.846 0.118 0.582 0.592 1.069 1.19 1.229 0.221 0.058 6.029 0.067 6.301 0.010 0.582-0.125 1.12-0.65 1.229-1.197 0.016-0.070 0.029-0.138 0.032-0.154 0.003-0.013 0.006-1.683 0.010-3.715l0.003-3.69 0.218-0.022c1.014-0.102 1.786-0.749 2.106-1.766 0.058-0.176 0.061-0.336 0.061-2.429 0-2.509 0-2.496-0.166-3.136-0.237-0.902-0.666-1.638-1.366-2.336-0.374-0.374-0.909-0.774-1.242-0.931l-0.118-0.054-0.138 0.125c-0.227 0.208-0.502 0.41-0.842 0.611-0.595 0.352-1.114 0.554-1.827 0.701-0.365 0.077-0.49 0.086-1.053 0.090-0.688 0.003-0.986-0.035-1.568-0.195-0.752-0.208-1.523-0.618-2.115-1.12-0.128-0.112-0.246-0.202-0.259-0.202s-0.144 0.070-0.288 0.157z"></path>
</svg>
