<!-- Generated by IcoMoon.io -->
<svg version="1.1" xmlns="http://www.w3.org/2000/svg" width="32" height="32" viewBox="0 0 32 32">
<title>advertising</title>
<path fill="#ff7900" d="M10.051 9.302c-3.949 3.952-6.544 6.57-6.634 6.698-0.419 0.589-0.611 1.197-0.608 1.894 0.003 0.669 0.227 1.325 0.63 1.866 0.237 0.317 8.72 8.774 8.947 8.922 0.397 0.256 0.851 0.438 1.254 0.502 0.285 0.045 0.749 0.045 1.030 0 0.512-0.080 1.107-0.349 1.488-0.669 0.096-0.080 3.075-3.043 6.614-6.586l6.442-6.438v-5.626c0-6.186 0.010-5.834-0.195-6.218-0.125-0.237-0.403-0.512-0.64-0.64-0.378-0.202-0.077-0.192-6.23-0.192h-5.61l-6.49 6.486zM25.987 5.306c0.57 0.275 0.89 0.778 0.893 1.398 0 0.413-0.16 0.79-0.461 1.088-0.573 0.573-1.443 0.614-2.077 0.096-0.682-0.554-0.746-1.581-0.144-2.24 0.314-0.342 0.71-0.502 1.213-0.486 0.282 0.013 0.326 0.022 0.576 0.144zM17.213 9.245l0.714 0.714 0.31-0.083c0.17-0.045 0.63-0.166 1.027-0.272 0.394-0.106 0.723-0.186 0.733-0.179 0.013 0.016 0.442 1.584 0.518 1.907l0.038 0.144 0.259 0.070c0.141 0.038 0.554 0.15 0.915 0.246s0.71 0.192 0.778 0.208c0.093 0.026 0.118 0.048 0.106 0.090-0.006 0.029-0.102 0.384-0.211 0.79-0.106 0.403-0.214 0.806-0.24 0.896-0.102 0.355-0.166 0.25 0.675 1.088l0.758 0.758-1.523 1.523 0.099 0.362c0.054 0.202 0.166 0.608 0.243 0.909 0.080 0.298 0.16 0.595 0.179 0.656 0.016 0.061 0.019 0.122 0.006 0.131-0.013 0.013-0.195 0.070-0.406 0.125-0.502 0.134-1.306 0.349-1.488 0.397-0.166 0.045-0.118-0.077-0.467 1.235-0.118 0.448-0.227 0.829-0.24 0.842-0.019 0.026-0.294-0.042-1.549-0.381l-0.512-0.138-0.758 0.758-0.762 0.758-1.52-1.514-0.16 0.042c-0.086 0.019-0.544 0.141-1.011 0.269-0.467 0.125-0.864 0.227-0.88 0.227s-0.077-0.182-0.138-0.41c-0.429-1.613-0.445-1.67-0.493-1.67-0.022 0-0.298-0.070-0.614-0.157-0.317-0.083-0.758-0.205-0.982-0.262-0.227-0.061-0.41-0.122-0.41-0.138 0-0.029 0.304-1.181 0.451-1.715l0.093-0.336-1.52-1.52 0.758-0.762 0.762-0.758-0.048-0.16c-0.029-0.086-0.054-0.189-0.064-0.224-0.006-0.035-0.109-0.422-0.227-0.861-0.157-0.586-0.205-0.8-0.176-0.816 0.022-0.016 0.243-0.080 0.493-0.147 1.222-0.326 1.51-0.406 1.53-0.426 0.013-0.013 0.138-0.47 0.282-1.014 0.147-0.547 0.272-1.002 0.285-1.014s0.131 0.006 0.262 0.042c0.131 0.035 0.592 0.157 1.021 0.272l0.781 0.211 0.381-0.381c0.208-0.208 0.547-0.547 0.752-0.752 0.317-0.32 0.381-0.371 0.422-0.336 0.029 0.019 0.371 0.362 0.768 0.755z"></path>
</svg>
