<!-- Generated by IcoMoon.io -->
<svg version="1.1" xmlns="http://www.w3.org/2000/svg" width="32" height="32" viewBox="0 0 32 32">
<title>aeroplane</title>
<path fill="#ff7900" d="M27.024 3.994c-0.198 0.016-0.486 0.080-0.72 0.157-0.493 0.163-1.389 0.64-1.936 1.027-0.17 0.122-2.307 1.715-4.358 3.254l-1.238 0.931-1.779-0.598c-8.528-2.858-9.37-3.136-9.53-3.139-0.186 0-0.365 0.051-0.502 0.144-0.134 0.093-1.651 1.6-1.638 1.632 0.006 0.026 0.918 0.586 2.102 1.296 0.202 0.118 0.851 0.512 1.44 0.867 0.589 0.358 1.117 0.675 1.168 0.707 0.054 0.032 0.262 0.157 0.464 0.278 0.397 0.24 2.342 1.418 3.61 2.182 0.426 0.256 0.774 0.474 0.774 0.486 0 0.010-0.118 0.163-0.262 0.339-0.352 0.429-1.715 2.099-2.118 2.598-0.179 0.218-0.531 0.65-0.787 0.963s-0.73 0.896-1.056 1.296c-0.582 0.717-1.501 1.843-1.523 1.869-0.010 0.010-2.947-1.232-3.085-1.306-0.026-0.013-0.31-0.138-0.634-0.275-0.531-0.224-0.602-0.246-0.746-0.234-0.154 0.016-0.179 0.032-0.416 0.269-0.138 0.138-0.25 0.266-0.243 0.278 0.013 0.038 8.957 8.982 8.979 8.982 0.038 0 0.454-0.445 0.499-0.534 0.026-0.048 0.048-0.138 0.048-0.195 0-0.090-0.272-0.768-0.608-1.526-0.211-0.477-1.216-2.842-1.216-2.864 0-0.016 0.096-0.106 0.218-0.202 0.118-0.096 0.589-0.477 1.046-0.851s0.995-0.813 1.194-0.973c0.202-0.163 0.381-0.31 0.4-0.326 0.022-0.019 0.234-0.192 0.47-0.384s0.518-0.422 0.627-0.509c0.106-0.090 0.256-0.214 0.333-0.275s0.221-0.176 0.317-0.256c0.099-0.080 0.294-0.24 0.435-0.355 0.794-0.65 1.475-1.203 1.741-1.421 0.246-0.202 0.307-0.237 0.339-0.202 0.019 0.022 0.253 0.4 0.512 0.842 0.653 1.104 1.939 3.264 2.16 3.632 0.102 0.166 0.592 0.989 1.088 1.824 0.499 0.835 1.037 1.744 1.2 2.016s0.397 0.666 0.522 0.874c0.125 0.208 0.237 0.378 0.253 0.378 0.013 0 0.387-0.362 0.832-0.803 0.867-0.864 0.931-0.954 0.96-1.274 0.013-0.173-0.077-0.451-1.856-5.789l-1.872-5.606 2-2.666c2.118-2.826 2.243-2.995 2.544-3.494 0.64-1.056 0.931-1.978 0.79-2.499-0.048-0.182-0.179-0.362-0.333-0.451-0.131-0.077-0.422-0.131-0.608-0.115z"></path>
</svg>
