<!-- Generated by IcoMoon.io -->
<svg version="1.1" xmlns="http://www.w3.org/2000/svg" width="32" height="32" viewBox="0 0 32 32">
<title>age-rating_mono_7</title>
<path fill="#ff7900" d="M0 16v16h32v-32h-32v16zM20.912 6.080c0.794 0.115 1.395 0.531 1.738 1.206 0.211 0.413 0.269 1.040 0.141 1.53-0.090 0.336-0.045 0.23-1.926 4.528-0.243 0.554-0.688 1.578-0.992 2.272-0.301 0.694-0.576 1.328-0.611 1.405-0.038 0.077-0.41 0.928-0.829 1.888-2.781 6.378-2.71 6.224-3.008 6.627-0.368 0.496-0.88 0.838-1.389 0.928-0.32 0.058-0.781 0.022-1.101-0.083-0.63-0.214-1.155-0.659-1.434-1.213-0.285-0.573-0.259-1.341 0.064-2.038 0.061-0.128 0.256-0.557 0.435-0.954 0.384-0.845 0.794-1.741 0.95-2.080 0.064-0.131 0.176-0.384 0.256-0.56 0.134-0.301 1.062-2.336 1.811-3.968 0.096-0.211 0.214-0.47 0.262-0.576s0.125-0.272 0.166-0.368c0.083-0.182 0.355-0.778 0.541-1.178 0.061-0.128 0.109-0.237 0.109-0.243s0.064-0.147 0.141-0.31c0.077-0.166 0.246-0.538 0.381-0.829 0.131-0.291 0.282-0.621 0.336-0.736 0.093-0.202 0.371-0.813 0.486-1.072 0.032-0.070 0.054-0.134 0.048-0.138-0.006-0.006-1.491-0.016-3.302-0.019-3.213-0.010-3.296-0.010-3.514-0.074-1.021-0.301-1.578-1.024-1.549-2.022 0.019-0.685 0.294-1.2 0.835-1.558 0.25-0.166 0.538-0.285 0.858-0.349 0.262-0.051 9.731-0.067 10.096-0.016z"></path>
</svg>
