<!-- Generated by IcoMoon.io -->
<svg version="1.1" xmlns="http://www.w3.org/2000/svg" width="32" height="32" viewBox="0 0 32 32">
<title>Age-rating_12</title>
<path fill="#ff7900" d="M0 16v16h32v-32h-32v16zM31.36 16v15.36h-30.72v-30.72h30.72v15.36z"></path>
<path fill="#ff7900" d="M20.659 5.574c-3.078 0.179-5.75 2.48-6.304 5.424-0.134 0.714-0.122 1.472 0.032 1.904 0.32 0.902 1.024 1.402 1.981 1.402 0.608 0 0.966-0.138 1.328-0.512 0.355-0.362 0.467-0.611 0.813-1.85 0.227-0.806 0.458-1.267 0.79-1.603 0.659-0.653 1.747-0.79 2.474-0.307 0.381 0.253 0.714 0.736 0.842 1.232 0.064 0.256 0.074 0.896 0.013 1.152-0.182 0.774-0.432 1.251-1.2 2.269-0.63 0.838-1.114 1.418-2.544 3.043-0.102 0.115-0.55 0.624-0.995 1.136-0.448 0.509-0.819 0.934-0.832 0.944-0.010 0.010-0.218 0.246-0.464 0.528s-0.627 0.714-0.848 0.96c-0.218 0.246-0.426 0.483-0.464 0.525-0.035 0.042-0.144 0.163-0.24 0.266-0.294 0.323-0.32 0.352-0.554 0.666-0.403 0.531-0.544 0.922-0.518 1.424 0.016 0.362 0.067 0.57 0.208 0.864 0.275 0.579 0.848 0.922 1.728 1.037 0.115 0.016 2.397 0.029 5.072 0.029 5.286 0 5.12 0.006 5.584-0.176 0.458-0.179 0.87-0.541 1.056-0.922 0.138-0.282 0.198-0.554 0.198-0.922 0.003-0.806-0.374-1.434-1.072-1.779-0.506-0.25-0.365-0.237-3.309-0.256l-2.63-0.019 0.598-0.608c0.643-0.653 1.187-1.232 1.686-1.792 0.173-0.195 0.365-0.41 0.429-0.48 0.214-0.234 1.258-1.469 1.405-1.664 0.080-0.106 0.211-0.278 0.294-0.384 0.544-0.71 1.117-1.629 1.472-2.371 0.49-1.014 0.723-2.099 0.71-3.277-0.026-2.397-1.53-4.496-3.878-5.418-0.662-0.259-1.376-0.419-2.032-0.458-0.192-0.010-0.365-0.022-0.384-0.026-0.016-0.003-0.218 0.006-0.445 0.019z"></path>
<path fill="#ff7900" d="M5.306 6.080c-0.832 0.141-1.459 0.64-1.69 1.347-0.067 0.198-0.080 0.301-0.080 0.653 0 0.355 0.013 0.451 0.077 0.65 0.16 0.49 0.512 0.883 1.005 1.123 0.422 0.205 0.611 0.234 1.622 0.246l0.912 0.010 0.003 6.89c0.003 3.789 0.013 7.011 0.026 7.165 0.067 0.89 0.544 1.661 1.242 2.013 0.365 0.182 0.65 0.237 1.142 0.214 0.749-0.029 1.235-0.269 1.667-0.829 0.138-0.179 0.349-0.646 0.422-0.931l0.074-0.294v-8.128c0-7.606-0.003-8.144-0.054-8.387-0.214-0.979-0.877-1.6-1.866-1.741-0.266-0.035-4.278-0.038-4.502 0z"></path>
</svg>
