<!-- Generated by IcoMoon.io -->
<svg version="1.1" xmlns="http://www.w3.org/2000/svg" width="32" height="32" viewBox="0 0 32 32">
<title>age-rating_mono_3</title>
<path fill="#ff7900" d="M0 16v16h32v-32h-32v16zM16.323 5.571c1.766 0.035 3.53 0.819 4.522 2.010 0.621 0.746 1.008 1.597 1.152 2.531 0.054 0.339 0.048 1.158-0.010 1.578-0.086 0.634-0.285 1.219-0.566 1.69-0.301 0.499-0.845 1.088-1.363 1.475-0.205 0.154-0.259 0.218-0.186 0.218 0.045 0 0.646 0.368 0.912 0.554 1.197 0.851 1.949 1.923 2.243 3.206 0.24 1.046 0.144 2.394-0.25 3.456-0.509 1.379-1.437 2.49-2.739 3.277-0.944 0.57-2 0.906-3.206 1.024-0.278 0.029-1.584 0.022-1.728-0.010-0.045-0.010-0.202-0.032-0.352-0.051-0.973-0.131-1.926-0.464-2.733-0.95-1.261-0.765-2.413-2.134-2.819-3.354-0.096-0.288-0.208-0.877-0.208-1.094 0-0.426 0.202-0.947 0.509-1.312 0.493-0.586 1.043-0.838 1.747-0.8 0.55 0.032 0.986 0.221 1.312 0.573 0.093 0.099 0.288 0.387 0.435 0.64 0.477 0.829 0.608 1.021 0.861 1.274 0.451 0.451 0.982 0.739 1.552 0.848 0.186 0.035 0.758 0.016 0.998-0.035 0.576-0.118 0.995-0.349 1.373-0.755 0.333-0.362 0.518-0.733 0.611-1.222 0.058-0.307 0.038-0.96-0.035-1.229-0.246-0.893-0.992-1.411-2.243-1.558-0.070-0.010-0.198-0.022-0.288-0.032-0.464-0.054-0.954-0.179-1.248-0.32-0.394-0.186-0.736-0.592-0.883-1.046-0.067-0.202-0.077-0.294-0.077-0.698 0-0.4 0.010-0.493 0.074-0.678 0.086-0.25 0.211-0.435 0.416-0.624 0.269-0.246 0.611-0.39 1.645-0.694 0.278-0.083 0.602-0.192 0.72-0.25 0.819-0.378 1.264-1.021 1.261-1.818-0.003-1.389-1.728-2.090-3.088-1.258-0.349 0.211-0.566 0.4-1.101 0.941-0.71 0.726-1.094 0.992-1.613 1.133-0.288 0.077-0.762 0.054-1.034-0.048-0.502-0.192-0.973-0.662-1.181-1.181-0.186-0.474-0.154-1.216 0.077-1.85 0.586-1.597 2.563-2.97 4.928-3.43 0.432-0.083 1.203-0.17 1.283-0.141 0.010 0.003 0.154 0.010 0.32 0.013z"></path>
</svg>
