<!-- Generated by IcoMoon.io -->
<svg version="1.1" xmlns="http://www.w3.org/2000/svg" width="32" height="32" viewBox="0 0 32 32">
<title>Age-rating_3</title>
<path fill="#ff7900" d="M0 16v16h32v-32h-32v16zM31.36 16v15.36h-30.72v-30.72h30.72v15.36z"></path>
<path fill="#ff7900" d="M15.824 5.558c-1.222 0.061-2.653 0.486-3.757 1.123-1.386 0.797-2.301 1.968-2.448 3.142-0.032 0.237-0.026 0.675 0.010 0.851 0.122 0.627 0.602 1.2 1.213 1.456 0.198 0.083 0.304 0.106 0.541 0.118 0.736 0.038 1.258-0.246 2.186-1.197 0.765-0.784 1.136-1.037 1.792-1.222 0.112-0.029 0.307-0.048 0.544-0.048 0.307 0.003 0.41 0.016 0.627 0.086 0.416 0.134 0.765 0.39 0.979 0.723 0.317 0.493 0.291 1.267-0.058 1.808-0.31 0.483-0.784 0.79-1.581 1.024-0.71 0.205-1.194 0.374-1.408 0.483-0.378 0.198-0.643 0.496-0.774 0.87-0.064 0.186-0.074 0.278-0.074 0.678 0 0.403 0.010 0.496 0.077 0.698 0.147 0.454 0.49 0.861 0.883 1.046 0.294 0.141 0.784 0.266 1.248 0.32 0.090 0.010 0.218 0.022 0.288 0.032 1.091 0.128 1.795 0.534 2.112 1.216 0.339 0.726 0.269 1.754-0.166 2.448-0.243 0.387-0.733 0.794-1.162 0.96-0.512 0.202-1.197 0.253-1.67 0.131-0.506-0.131-0.954-0.39-1.347-0.781-0.275-0.272-0.381-0.422-0.819-1.184-0.371-0.64-0.563-0.874-0.87-1.056-0.342-0.202-0.586-0.262-1.069-0.259-0.349 0-0.448 0.013-0.624 0.074-0.307 0.109-0.563 0.275-0.832 0.547-0.547 0.544-0.749 1.158-0.624 1.904 0.17 1.043 0.739 2.048 1.699 3.008 0.838 0.838 1.76 1.386 2.899 1.728 0.304 0.090 0.925 0.221 1.226 0.256 0.102 0.013 0.218 0.029 0.256 0.038 0.122 0.026 1.44 0.032 1.712 0.006 1.194-0.115 2.266-0.458 3.206-1.024 1.293-0.781 2.218-1.878 2.73-3.245 0.163-0.435 0.221-0.662 0.32-1.254 0.077-0.47 0.086-1.331 0.019-1.802-0.25-1.686-1.174-2.966-2.877-3.994-0.182-0.109-0.342-0.198-0.358-0.198-0.064 0-0.029-0.061 0.074-0.131 0.214-0.154 0.662-0.547 0.867-0.768 0.586-0.634 0.918-1.251 1.085-2.019 0.106-0.47 0.122-0.611 0.134-1.226 0.026-1.056-0.224-1.93-0.806-2.832-0.979-1.51-2.864-2.483-4.902-2.525-0.166-0.003-0.31-0.010-0.32-0.013-0.013-0.003-0.090-0.003-0.179 0z"></path>
</svg>
