<!-- Generated by IcoMoon.io -->
<svg version="1.1" xmlns="http://www.w3.org/2000/svg" width="32" height="32" viewBox="0 0 32 32">
<title>Age-rating_4</title>
<path fill="#ff7900" d="M0 16v16h32v-32h-32v16zM31.36 16v15.36h-30.72v-30.72h30.72v15.36z"></path>
<path fill="#ff7900" d="M17.312 5.763c-0.342 0.038-0.467 0.067-0.742 0.173-0.813 0.301-1.626 1.056-2.128 1.968-0.054 0.096-0.253 0.464-0.442 0.816s-0.384 0.71-0.432 0.8c-0.048 0.086-0.198 0.368-0.336 0.624s-0.301 0.557-0.362 0.672c-0.093 0.17-0.643 1.19-1.766 3.28-0.077 0.141-0.195 0.355-0.262 0.474-0.067 0.122-0.122 0.224-0.122 0.23s-0.17 0.326-0.378 0.71c-0.208 0.384-0.448 0.826-0.534 0.986-0.285 0.531-0.378 0.704-0.432 0.8-0.029 0.051-0.125 0.224-0.208 0.384-0.086 0.157-0.285 0.531-0.448 0.832-0.16 0.298-0.307 0.586-0.33 0.64-0.202 0.518-0.154 1.264 0.112 1.693 0.298 0.483 0.979 0.851 1.738 0.938 0.096 0.010 1.549 0.022 3.226 0.022 1.674 0 3.050 0.010 3.050 0.019 0.003 0.010 0.010 0.598 0.013 1.312 0.010 1.411 0.019 1.53 0.208 1.981 0.214 0.525 0.618 0.95 1.069 1.136 0.365 0.15 0.934 0.189 1.389 0.096 0.755-0.154 1.325-0.771 1.549-1.677 0.019-0.086 0.042-0.688 0.054-1.504l0.019-1.36 0.307-0.006c0.637-0.016 1.2-0.262 1.674-0.73 0.454-0.451 0.675-1.149 0.55-1.741-0.144-0.688-0.579-1.178-1.261-1.424-0.256-0.090-0.464-0.122-0.87-0.134-0.166-0.003-0.33-0.010-0.358-0.010-0.051-0.003-0.058-0.285-0.067-4.637-0.013-5.011 0-4.669-0.173-5.206-0.262-0.816-0.915-1.574-1.638-1.894-0.509-0.227-1.13-0.323-1.667-0.262zM16.528 14.624c0 2.093-0.010 3.136-0.032 3.139-0.189 0.016-3.258 0.006-3.27-0.013-0.006-0.013 0.042-0.128 0.112-0.256 0.15-0.278 0.32-0.592 0.566-1.062 0.102-0.195 0.246-0.467 0.32-0.608s0.285-0.538 0.464-0.88c0.179-0.342 0.381-0.726 0.448-0.848 0.064-0.125 0.208-0.397 0.32-0.608 0.109-0.211 0.24-0.458 0.288-0.544 0.048-0.090 0.186-0.349 0.304-0.576 0.122-0.23 0.256-0.49 0.304-0.576 0.048-0.090 0.102-0.192 0.125-0.234 0.019-0.038 0.042-0.070 0.045-0.070s0.006 1.411 0.006 3.136z"></path>
</svg>
