<!-- Generated by IcoMoon.io -->
<svg version="1.1" xmlns="http://www.w3.org/2000/svg" width="32" height="32" viewBox="0 0 32 32">
<title>Age-rating_7</title>
<path fill="#ff7900" d="M0 16v16h32v-32h-32v16zM31.36 16v15.36h-30.72v-30.72h30.72v15.36z"></path>
<path fill="#ff7900" d="M10.816 6.096c-0.858 0.173-1.472 0.72-1.638 1.456-0.166 0.73 0.029 1.469 0.506 1.923 0.272 0.262 0.573 0.426 0.989 0.55 0.218 0.064 0.301 0.064 3.514 0.074 1.811 0.003 3.296 0.013 3.302 0.019s-0.016 0.067-0.048 0.138c-0.115 0.259-0.394 0.87-0.486 1.072-0.054 0.115-0.205 0.445-0.336 0.736-0.134 0.291-0.304 0.662-0.381 0.829-0.077 0.163-0.141 0.304-0.141 0.31s-0.048 0.115-0.109 0.243c-0.186 0.4-0.458 0.995-0.541 1.178-0.042 0.096-0.118 0.262-0.166 0.368s-0.166 0.365-0.262 0.576c-0.749 1.632-1.677 3.667-1.811 3.968-0.080 0.176-0.192 0.429-0.256 0.56-0.157 0.339-0.566 1.235-0.95 2.080-0.179 0.397-0.374 0.826-0.435 0.957-0.234 0.502-0.32 1.114-0.224 1.571 0.157 0.749 0.781 1.402 1.594 1.677 0.211 0.070 0.288 0.083 0.621 0.106 0.883 0.058 1.667-0.464 2.179-1.446 0.118-0.23 0.717-1.59 3.808-8.672 0.483-1.11 1.078-2.47 1.322-3.024 1.114-2.541 1.68-3.84 1.766-4.048 0.237-0.57 0.291-1.142 0.157-1.626-0.243-0.877-0.922-1.453-1.875-1.59-0.365-0.051-9.834-0.035-10.096 0.016z"></path>
</svg>
