<!-- Generated by IcoMoon.io -->
<svg version="1.1" xmlns="http://www.w3.org/2000/svg" width="32" height="32" viewBox="0 0 32 32">
<title>age-rating_mono_18</title>
<path fill="#ff7900" d="M0 16v16h32v-32h-32v16zM22.506 5.635c0.243 0.032 0.528 0.080 0.634 0.109 0.106 0.026 0.234 0.054 0.282 0.064 0.048 0.006 0.224 0.058 0.39 0.109 1.085 0.336 1.965 0.848 2.656 1.549 0.774 0.784 1.206 1.651 1.357 2.726 0.064 0.448 0.042 1.421-0.045 1.878-0.195 1.066-0.672 1.926-1.53 2.768l-0.269 0.262 0.307 0.224c1.523 1.133 2.259 2.307 2.451 3.917 0.035 0.291 0.026 1.44-0.013 1.606-0.010 0.035-0.026 0.144-0.038 0.24-0.080 0.595-0.31 1.318-0.602 1.882-0.784 1.52-2.074 2.605-3.808 3.197-0.608 0.205-1.392 0.371-1.99 0.419-0.442 0.035-1.594 0.022-1.968-0.022-2.614-0.31-4.64-1.626-5.661-3.67-0.333-0.672-0.496-1.277-0.627-2.317-0.019-0.173-0.022-1.075-0.003-1.174 0.010-0.038 0.022-0.154 0.035-0.253 0.074-0.675 0.397-1.555 0.794-2.163 0.323-0.499 0.736-0.934 1.414-1.494 0.035-0.029 0.17-0.128 0.298-0.224l0.23-0.17-0.214-0.214c-0.784-0.781-1.28-1.622-1.494-2.547-0.141-0.608-0.186-1.635-0.096-2.211 0.163-1.021 0.624-1.933 1.354-2.669 0.493-0.496 0.899-0.784 1.555-1.107 0.515-0.253 0.931-0.403 1.488-0.538 0.39-0.096 0.566-0.128 1.168-0.208 0.365-0.051 1.475-0.032 1.946 0.032zM9.328 6.096c0.998 0.176 1.619 0.806 1.808 1.84 0.032 0.157 0.042 2.122 0.042 8.144 0 4.365-0.010 8.045-0.022 8.176-0.048 0.474-0.211 0.915-0.483 1.296-0.202 0.282-0.429 0.474-0.736 0.624-0.598 0.298-1.414 0.307-2.016 0.029-0.253-0.118-0.346-0.182-0.57-0.403-0.33-0.326-0.573-0.778-0.682-1.274-0.051-0.24-0.058-0.691-0.061-7.318 0-3.885-0.010-7.072-0.022-7.082-0.010-0.010-0.419-0.022-0.909-0.029-0.992-0.010-1.158-0.035-1.565-0.224-0.589-0.275-0.96-0.71-1.094-1.283-0.064-0.262-0.061-0.787 0.006-1.043 0.195-0.762 0.854-1.325 1.712-1.466 0.096-0.016 1.107-0.029 2.243-0.032 1.728-0.003 2.115 0.006 2.349 0.045z"></path>
<path fill="#ff7900" d="M20.96 9.491c-0.358 0.074-0.653 0.246-0.96 0.554-0.294 0.294-0.432 0.506-0.547 0.835-0.058 0.17-0.070 0.278-0.074 0.592 0 0.429 0.029 0.56 0.198 0.912 0.163 0.339 0.595 0.768 0.938 0.938 0.794 0.39 1.661 0.246 2.285-0.378 0.442-0.438 0.605-0.842 0.605-1.472 0-0.336-0.010-0.416-0.090-0.64-0.163-0.474-0.557-0.941-0.982-1.168-0.39-0.208-0.912-0.272-1.373-0.173z"></path>
<path fill="#ff7900" d="M21.040 16.838c-0.538 0.070-1.114 0.365-1.52 0.771-0.24 0.24-0.349 0.394-0.512 0.72-0.195 0.387-0.266 0.717-0.266 1.19 0.006 0.765 0.243 1.328 0.79 1.872 0.41 0.41 0.874 0.65 1.424 0.739 0.957 0.157 1.917-0.208 2.515-0.957 0.314-0.394 0.525-0.87 0.586-1.325 0.154-1.133-0.477-2.266-1.539-2.774-0.474-0.227-0.973-0.307-1.478-0.237z"></path>
</svg>
