<!-- Generated by IcoMoon.io -->
<svg version="1.1" xmlns="http://www.w3.org/2000/svg" width="32" height="32" viewBox="0 0 32 32">
<title>age-rating_mono_4</title>
<path fill="#ff7900" d="M0 16v16h32v-32h-32v16zM18.106 5.776c0.685 0.102 1.178 0.336 1.642 0.774 0.397 0.378 0.71 0.874 0.87 1.37 0.173 0.538 0.16 0.195 0.173 5.206 0.010 4.352 0.016 4.634 0.067 4.637 0.029 0 0.198 0.006 0.374 0.010 0.509 0.016 0.774 0.074 1.114 0.246 0.531 0.269 0.877 0.72 1.002 1.312 0.064 0.294 0.038 0.611-0.067 0.954-0.272 0.854-1.178 1.491-2.157 1.517l-0.307 0.006-0.019 1.36c-0.013 0.816-0.035 1.418-0.054 1.504-0.173 0.704-0.55 1.232-1.082 1.51-0.496 0.262-1.318 0.291-1.856 0.070-0.454-0.186-0.854-0.608-1.069-1.133-0.189-0.454-0.198-0.57-0.208-1.984-0.003-0.714-0.010-1.302-0.013-1.312 0-0.010-1.376-0.019-3.050-0.019-1.677 0-3.13-0.013-3.226-0.022-0.758-0.086-1.44-0.454-1.738-0.938-0.266-0.429-0.314-1.174-0.112-1.693 0.022-0.054 0.17-0.342 0.33-0.64 0.163-0.301 0.362-0.675 0.448-0.832 0.083-0.16 0.179-0.333 0.208-0.384 0.054-0.096 0.147-0.269 0.432-0.8 0.086-0.16 0.326-0.602 0.534-0.986s0.378-0.704 0.378-0.71c0-0.006 0.054-0.109 0.122-0.23 0.067-0.118 0.186-0.333 0.262-0.474 1.123-2.090 1.674-3.11 1.766-3.28 0.061-0.115 0.224-0.416 0.362-0.672s0.288-0.538 0.336-0.624c0.048-0.090 0.243-0.448 0.432-0.8 0.496-0.922 0.525-0.973 0.666-1.184 0.576-0.861 1.395-1.491 2.202-1.699 0.349-0.090 0.883-0.115 1.238-0.061z"></path>
<path fill="#ff7900" d="M16.477 11.558c-0.022 0.042-0.077 0.144-0.125 0.234-0.048 0.086-0.182 0.346-0.304 0.576-0.118 0.227-0.256 0.486-0.304 0.576-0.048 0.086-0.179 0.333-0.288 0.544-0.112 0.211-0.256 0.483-0.32 0.608-0.067 0.122-0.269 0.506-0.448 0.848s-0.39 0.739-0.464 0.88c-0.074 0.141-0.218 0.413-0.32 0.608-0.246 0.47-0.416 0.784-0.566 1.062-0.070 0.128-0.118 0.243-0.112 0.256 0.013 0.019 3.082 0.029 3.27 0.013 0.022-0.003 0.032-1.046 0.032-3.139 0-1.725-0.003-3.136-0.006-3.136s-0.026 0.032-0.045 0.070z"></path>
</svg>
