<!-- Generated by IcoMoon.io -->
<svg version="1.1" xmlns="http://www.w3.org/2000/svg" width="32" height="32" viewBox="0 0 32 32">
<title>Age-rating_17</title>
<path fill="#ff7900" d="M0 16v16h32v-32h-32v16zM31.36 16v15.36h-30.72v-30.72h30.72v15.36z"></path>
<path fill="#ff7900" d="M6.179 6.115c-0.765 0.17-1.312 0.64-1.542 1.325-0.064 0.189-0.074 0.288-0.074 0.64 0 0.426 0.026 0.557 0.166 0.88 0.163 0.378 0.589 0.768 1.030 0.947 0.445 0.179 0.528 0.186 2.294 0.205h0.131v7.014c0 5.066 0.013 7.078 0.038 7.242 0.163 1.011 0.835 1.789 1.712 1.984 0.374 0.083 0.966 0.054 1.322-0.064 0.586-0.195 1.005-0.602 1.28-1.238 0.23-0.538 0.211 0.221 0.221-8.762 0.006-6.653 0-8.125-0.035-8.336-0.093-0.538-0.291-0.941-0.621-1.267-0.243-0.237-0.432-0.358-0.739-0.47-0.442-0.16-0.563-0.166-2.819-0.163-1.93 0.003-2.118 0.006-2.365 0.064z"></path>
<path fill="#ff7900" d="M15.722 6.080c-0.851 0.125-1.53 0.682-1.725 1.408-0.067 0.253-0.077 0.835-0.016 1.088 0.176 0.742 0.797 1.302 1.626 1.469 0.259 0.054 0.534 0.058 3.386 0.061 1.709 0.003 3.158 0.003 3.229 0.006 0.093 0 0.115 0.010 0.090 0.038-0.016 0.022-0.096 0.186-0.176 0.362s-0.195 0.429-0.256 0.56c-0.115 0.253-0.931 2.042-1.344 2.944-0.131 0.291-0.397 0.874-0.592 1.296-0.192 0.422-0.381 0.838-0.422 0.928-0.038 0.086-0.118 0.259-0.176 0.384-0.058 0.122-0.173 0.374-0.256 0.56s-0.214 0.47-0.291 0.637c-0.077 0.163-0.141 0.304-0.141 0.307 0 0.006-0.051 0.125-0.115 0.262-0.118 0.253-0.24 0.518-0.39 0.842-0.045 0.096-0.154 0.342-0.246 0.544-0.23 0.506-0.787 1.728-0.912 2-0.058 0.122-0.15 0.33-0.211 0.458-0.061 0.131-0.109 0.24-0.109 0.246 0 0.003-0.074 0.166-0.163 0.355-0.32 0.685-0.387 0.934-0.39 1.469-0.003 0.304 0.010 0.387 0.086 0.608 0.371 1.075 1.581 1.763 2.691 1.536 0.432-0.090 0.768-0.285 1.117-0.65 0.304-0.317 0.531-0.704 0.851-1.446 0.093-0.221 0.227-0.518 0.294-0.666s0.122-0.272 0.122-0.278c0-0.010 0.646-1.491 1.088-2.496 0.083-0.195 0.432-0.986 0.768-1.76 0.339-0.774 0.643-1.472 0.678-1.552s0.256-0.592 0.496-1.136c0.237-0.547 0.461-1.056 0.496-1.136 0.038-0.080 0.112-0.253 0.17-0.384 0.112-0.259 0.634-1.459 0.704-1.616 0.022-0.054 0.074-0.17 0.112-0.256 0.083-0.192 1.136-2.602 1.216-2.784 0.435-0.986 0.499-1.139 0.579-1.427 0.23-0.822-0.010-1.67-0.637-2.237-0.243-0.218-0.554-0.384-0.925-0.49l-0.25-0.070-4.944-0.003c-2.72-0.003-5.018 0.006-5.11 0.019z"></path>
</svg>
