<!-- Generated by IcoMoon.io -->
<svg version="1.1" xmlns="http://www.w3.org/2000/svg" width="32" height="32" viewBox="0 0 32 32">
<title>age-rating_mono_17</title>
<path fill="#ff7900" d="M0 16v16h32v-32h-32v16zM10.896 6.093c0.547 0.099 0.928 0.294 1.261 0.646 0.211 0.224 0.362 0.483 0.467 0.797 0.144 0.429 0.141 0.211 0.134 8.752-0.010 8.982 0.010 8.224-0.221 8.762-0.138 0.32-0.304 0.566-0.522 0.778-0.394 0.381-0.797 0.541-1.427 0.566-0.499 0.019-0.787-0.038-1.158-0.227-0.454-0.234-0.842-0.685-1.050-1.222-0.054-0.141-0.106-0.285-0.112-0.32-0.077-0.378-0.080-0.877-0.083-7.498v-7.014h-0.131c-1.77-0.019-1.853-0.026-2.294-0.205s-0.867-0.57-1.030-0.947c-0.141-0.323-0.166-0.454-0.166-0.88 0-0.352 0.010-0.451 0.074-0.64 0.23-0.685 0.778-1.155 1.542-1.325 0.246-0.058 0.435-0.061 2.365-0.064 1.683-0.003 2.147 0.006 2.352 0.042zM26.026 6.134c0.89 0.253 1.475 0.893 1.622 1.776 0.086 0.512-0.035 1.053-0.435 1.904-0.058 0.128-0.109 0.24-0.109 0.25 0 0.006-0.035 0.090-0.077 0.182-0.067 0.15-1.053 2.403-1.235 2.826-0.038 0.086-0.090 0.202-0.112 0.256-0.070 0.157-0.592 1.357-0.704 1.616-0.058 0.131-0.131 0.304-0.166 0.384-0.067 0.15-0.195 0.438-0.659 1.504-0.15 0.342-0.301 0.688-0.336 0.768s-0.339 0.778-0.678 1.552c-0.336 0.774-0.685 1.565-0.768 1.76-0.442 1.005-1.088 2.486-1.088 2.496 0 0.006-0.054 0.131-0.122 0.278s-0.202 0.445-0.294 0.666c-0.397 0.922-0.688 1.357-1.155 1.728-0.704 0.557-1.802 0.541-2.643-0.035-0.378-0.259-0.714-0.701-0.861-1.133-0.077-0.221-0.090-0.304-0.086-0.608 0.003-0.534 0.070-0.784 0.39-1.469 0.090-0.189 0.163-0.352 0.163-0.355 0-0.006 0.048-0.115 0.109-0.246 0.061-0.128 0.154-0.336 0.211-0.458 0.125-0.272 0.682-1.494 0.912-2 0.093-0.202 0.202-0.448 0.246-0.544 0.15-0.323 0.272-0.589 0.39-0.842 0.064-0.138 0.115-0.256 0.115-0.262 0-0.003 0.064-0.144 0.141-0.307 0.077-0.166 0.208-0.451 0.291-0.637s0.198-0.438 0.256-0.56c0.058-0.125 0.138-0.298 0.176-0.384 0.042-0.090 0.23-0.506 0.422-0.928 0.195-0.422 0.528-1.158 0.746-1.632 0.218-0.477 0.435-0.957 0.49-1.072 0.051-0.115 0.166-0.368 0.256-0.56 0.282-0.618 0.333-0.73 0.445-0.976 0.061-0.131 0.176-0.384 0.256-0.56s0.16-0.339 0.176-0.362c0.026-0.029 0.006-0.038-0.074-0.042-0.061 0-1.514 0-3.229-0.003-2.864-0.003-3.142-0.006-3.402-0.061-0.672-0.134-1.219-0.531-1.475-1.069-0.15-0.307-0.192-0.518-0.192-0.928 0.003-0.598 0.154-0.986 0.528-1.357 0.323-0.323 0.771-0.541 1.254-0.611 0.093-0.013 2.39-0.022 5.11-0.019l4.944 0.003 0.25 0.070z"></path>
</svg>
