<!-- Generated by IcoMoon.io -->
<svg version="1.1" xmlns="http://www.w3.org/2000/svg" width="32" height="32" viewBox="0 0 32 32">
<title>age-rating_mono_12</title>
<path fill="#ff7900" d="M0 16v16h32v-32h-32v16zM21.504 5.584c0.646 0.035 1.363 0.198 2.016 0.454 2.371 0.928 3.875 3.050 3.878 5.472 0.003 1.181-0.224 2.214-0.71 3.222-0.355 0.742-0.928 1.661-1.472 2.371-0.083 0.106-0.214 0.278-0.294 0.384-0.147 0.195-1.19 1.43-1.405 1.664-0.064 0.070-0.256 0.285-0.429 0.48-0.499 0.56-1.040 1.136-1.686 1.792l-0.598 0.608 2.63 0.019c2.944 0.019 2.803 0.006 3.309 0.256 0.698 0.346 1.075 0.973 1.072 1.779 0 0.368-0.061 0.64-0.198 0.922-0.186 0.381-0.598 0.742-1.056 0.922-0.464 0.182-0.298 0.176-5.584 0.176-2.675 0-4.957-0.013-5.072-0.029-0.614-0.080-1.107-0.288-1.418-0.595-0.534-0.528-0.682-1.507-0.333-2.214 0.054-0.115 0.205-0.349 0.333-0.515 0.234-0.314 0.259-0.342 0.554-0.666 0.096-0.102 0.205-0.224 0.24-0.266s0.144-0.163 0.237-0.269c0.096-0.106 0.218-0.243 0.272-0.304s0.32-0.362 0.592-0.672c0.269-0.307 0.538-0.611 0.592-0.672s0.467-0.531 0.912-1.040c0.448-0.512 0.896-1.021 0.998-1.136 1.699-1.933 2.496-2.909 3.075-3.776 0.685-1.027 0.893-2.096 0.573-2.947-0.278-0.73-0.896-1.216-1.606-1.254-0.806-0.048-1.475 0.288-1.91 0.95-0.198 0.304-0.336 0.643-0.506 1.242-0.346 1.238-0.458 1.488-0.813 1.85-0.362 0.374-0.72 0.512-1.328 0.512-0.957 0-1.661-0.499-1.981-1.402-0.246-0.694-0.122-1.987 0.291-3.030 0.867-2.189 2.909-3.821 5.28-4.224 0.262-0.045 1.091-0.109 1.178-0.093 0.019 0.006 0.182 0.016 0.368 0.029zM9.808 6.080c0.989 0.141 1.651 0.762 1.866 1.741 0.051 0.243 0.054 0.781 0.054 8.387v8.128l-0.074 0.294c-0.074 0.285-0.285 0.752-0.422 0.931-0.432 0.56-0.918 0.8-1.667 0.829-0.493 0.022-0.778-0.032-1.142-0.214-0.698-0.352-1.174-1.123-1.242-2.013-0.013-0.154-0.022-3.376-0.026-7.165l-0.003-6.89-0.912-0.010c-0.81-0.010-0.941-0.019-1.165-0.080-0.739-0.198-1.254-0.653-1.462-1.29-0.064-0.198-0.077-0.294-0.077-0.65 0-0.352 0.013-0.454 0.080-0.653 0.118-0.362 0.346-0.682 0.653-0.912 0.288-0.218 0.65-0.368 1.037-0.435 0.224-0.038 4.237-0.035 4.502 0z"></path>
</svg>
