<!-- Generated by IcoMoon.io -->
<svg version="1.1" xmlns="http://www.w3.org/2000/svg" width="32" height="32" viewBox="0 0 32 32">
<title>Age-rating_16</title>
<path fill="#ff7900" d="M0 16v16h32v-32h-32v16zM31.36 16v15.36h-30.72v-30.72h30.72v15.36z"></path>
<path fill="#ff7900" d="M22.144 5.616c-0.63 0.179-1.184 0.618-2.083 1.648-1.693 1.939-3.312 4.096-4.259 5.664-1.366 2.259-1.962 3.872-2.138 5.757-0.038 0.416-0.038 1.293 0.003 1.699 0.154 1.571 0.81 2.989 1.888 4.099 1.114 1.146 2.736 1.898 4.509 2.093 0.304 0.035 1.443 0.042 1.744 0.013 1.939-0.186 3.67-1.082 4.794-2.477 1.104-1.373 1.635-2.992 1.606-4.896-0.026-1.597-0.643-3.072-1.766-4.224-0.934-0.957-2.278-1.632-3.514-1.763-0.086-0.010-0.202-0.022-0.256-0.032-0.122-0.016-0.806-0.016-0.912 0-0.045 0.006-0.15 0.022-0.24 0.035-0.138 0.019-0.637 0.138-0.826 0.195-0.147 0.045 1.811-2.445 2.394-3.046 0.131-0.134 0.899-0.95 1.002-1.066 0.138-0.15 0.358-0.483 0.47-0.707 0.365-0.726 0.374-1.517 0.022-2.022-0.272-0.39-0.774-0.739-1.318-0.918-0.282-0.096-0.87-0.122-1.12-0.051zM21.472 17.024c0.63 0.166 1.062 0.442 1.469 0.944 0.717 0.883 0.742 2.134 0.061 3.062-0.365 0.496-0.874 0.851-1.44 1.005-0.272 0.074-0.874 0.086-1.162 0.029-1.043-0.218-1.904-1.152-2.026-2.208-0.096-0.813 0.144-1.514 0.72-2.106 0.397-0.406 0.886-0.669 1.402-0.755 0.214-0.035 0.797-0.019 0.976 0.029z"></path>
<path fill="#ff7900" d="M5.408 6.080c-0.454 0.080-0.915 0.31-1.232 0.621-0.675 0.662-0.717 1.955-0.090 2.672 0.259 0.294 0.746 0.57 1.21 0.678 0.096 0.022 0.512 0.042 1.053 0.048 0.49 0.006 0.899 0.019 0.912 0.029 0.010 0.013 0.019 3.2 0.022 7.082 0.003 7.811-0.010 7.258 0.205 7.782 0.205 0.493 0.643 0.992 1.040 1.184 0.646 0.31 1.482 0.307 2.112-0.006 0.47-0.237 0.867-0.726 1.069-1.331 0.15-0.448 0.15-0.278 0.147-8.726-0.003-7.338-0.010-7.99-0.058-8.243-0.179-0.918-0.688-1.472-1.59-1.734-0.234-0.067-0.285-0.067-2.448-0.074-1.213-0.003-2.272 0.006-2.352 0.019z"></path>
</svg>
