<!-- Generated by IcoMoon.io -->
<svg version="1.1" xmlns="http://www.w3.org/2000/svg" width="32" height="32" viewBox="0 0 32 32">
<title>Age-rating_9</title>
<path fill="#ff7900" d="M0 16v16h32v-32h-32v16zM31.36 16v15.36h-30.72v-30.72h30.72v15.36z"></path>
<path fill="#ff7900" d="M15.066 5.584c-0.006 0.003-0.122 0.016-0.256 0.029-0.496 0.042-1.43 0.262-1.837 0.435-0.086 0.038-0.198 0.083-0.253 0.106-0.406 0.163-1.146 0.602-1.562 0.928-1.318 1.034-2.282 2.778-2.515 4.55-0.189 1.43-0.051 2.602 0.442 3.722 0.829 1.885 2.634 3.299 4.557 3.574 0.086 0.010 0.189 0.029 0.224 0.038 0.038 0.006 0.301 0.019 0.582 0.026 0.547 0.010 0.752-0.013 1.318-0.157 0.179-0.045 0.333-0.083 0.346-0.083 0.064 0-1.792 2.339-2.237 2.816-0.074 0.080-0.221 0.237-0.323 0.352-0.106 0.115-0.333 0.362-0.502 0.544-0.464 0.506-0.65 0.752-0.826 1.104-0.205 0.406-0.288 0.736-0.288 1.136-0.003 0.326 0.038 0.493 0.176 0.768 0.224 0.442 0.832 0.89 1.446 1.062 0.358 0.099 0.899 0.102 1.21 0.003 0.56-0.179 1.21-0.736 2.115-1.818 2.032-2.429 3.149-3.923 4.054-5.414 1.216-2.003 1.818-3.472 2.067-5.037 0.061-0.378 0.077-0.515 0.115-0.925 0.019-0.208 0.022-1.267 0.003-1.36-0.006-0.035-0.022-0.166-0.035-0.288-0.195-1.962-1.28-3.766-2.902-4.848-1.072-0.714-2.192-1.101-3.61-1.251-0.253-0.026-1.482-0.038-1.51-0.013zM16.525 10.157c0.848 0.237 1.594 0.992 1.814 1.837 0.086 0.33 0.096 0.89 0.019 1.222-0.173 0.73-0.726 1.411-1.414 1.744-0.397 0.189-0.656 0.25-1.104 0.25-0.835 0-1.523-0.358-2.061-1.066-0.608-0.806-0.662-1.942-0.134-2.813 0.154-0.25 0.493-0.611 0.739-0.787 0.243-0.176 0.557-0.323 0.842-0.403 0.272-0.074 1.008-0.067 1.299 0.016z"></path>
</svg>
