<!-- Generated by IcoMoon.io -->
<svg version="1.1" xmlns="http://www.w3.org/2000/svg" width="32" height="32" viewBox="0 0 32 32">
<title>age-rating_mono_9</title>
<path fill="#ff7900" d="M0 16v16h32v-32h-32v16zM16.592 5.6c1.386 0.144 2.531 0.541 3.594 1.248 1.622 1.082 2.707 2.886 2.902 4.848 0.013 0.122 0.029 0.253 0.035 0.288 0.019 0.093 0.016 1.152-0.003 1.36-0.038 0.41-0.054 0.547-0.115 0.925-0.176 1.114-0.531 2.173-1.117 3.331-1.005 1.984-2.262 3.814-4.365 6.352-0.16 0.192-0.448 0.538-0.637 0.768-0.192 0.227-0.509 0.579-0.704 0.778-0.627 0.637-0.998 0.909-1.414 1.040-0.31 0.099-0.854 0.096-1.21-0.003-0.614-0.173-1.222-0.621-1.446-1.062-0.138-0.275-0.179-0.442-0.176-0.768 0-0.4 0.083-0.73 0.288-1.136 0.176-0.352 0.362-0.598 0.826-1.104 0.17-0.182 0.397-0.429 0.502-0.544 0.102-0.115 0.25-0.272 0.323-0.352 0.445-0.477 2.301-2.816 2.237-2.816-0.013 0-0.166 0.038-0.346 0.083-0.566 0.144-0.771 0.166-1.318 0.157-0.282-0.006-0.541-0.016-0.576-0.026s-0.134-0.026-0.221-0.035c-0.515-0.070-1.146-0.275-1.69-0.547-1.597-0.8-2.762-2.253-3.21-4-0.301-1.174-0.243-2.637 0.157-3.936 0.406-1.328 1.242-2.576 2.25-3.366 0.416-0.326 1.155-0.765 1.562-0.928 0.054-0.022 0.166-0.067 0.253-0.106 0.406-0.173 1.341-0.394 1.837-0.435 0.134-0.013 0.25-0.026 0.256-0.029 0.029-0.026 1.261-0.013 1.526 0.016z"></path>
<path fill="#ff7900" d="M15.226 10.141c-0.778 0.214-1.472 0.829-1.77 1.562-0.25 0.621-0.224 1.392 0.061 2.010 0.195 0.419 0.55 0.819 0.982 1.11 0.403 0.269 0.806 0.387 1.341 0.387 0.448 0 0.707-0.061 1.104-0.25 0.522-0.253 0.963-0.691 1.216-1.216 0.192-0.39 0.253-0.678 0.25-1.136-0.006-0.624-0.16-1.053-0.55-1.539-0.339-0.426-0.854-0.778-1.338-0.912-0.288-0.083-1.024-0.090-1.296-0.016z"></path>
</svg>
