<!-- Generated by IcoMoon.io -->
<svg version="1.1" xmlns="http://www.w3.org/2000/svg" width="32" height="32" viewBox="0 0 32 32">
<title>agriculture</title>
<path fill="#ff7900" d="M7.68 5.635c-0.403 0.077-0.88 0.442-1.082 0.822-0.192 0.362-0.179 0.118-0.198 4.291l-0.016 3.853-0.614 0.355c-0.336 0.195-0.659 0.4-0.717 0.451-0.208 0.195-0.288 0.515-0.202 0.806 0.067 0.218 0.202 0.371 0.413 0.474 0.362 0.179 0.672 0.090 1.299-0.374 1.046-0.774 1.936-1.072 3.277-1.098 0.646-0.013 0.832 0.006 1.437 0.131 1.494 0.317 2.87 1.264 3.731 2.576 0.656 0.998 0.986 2.109 0.992 3.331v0.346h4.451l-0.112 0.214c-0.298 0.592-0.4 1.261-0.291 1.914 0.269 1.594 1.68 2.739 3.283 2.662 0.838-0.042 1.555-0.358 2.144-0.947 0.493-0.493 0.829-1.155 0.912-1.798 0.019-0.144 0.23-1.379 0.461-2.685 0.16-0.918 0.259-1.485 0.432-2.48 0.301-1.734 0.339-1.962 0.4-2.259 0.125-0.618 0.003-1.085-0.403-1.507-0.336-0.352-0.659-0.474-1.389-0.522-0.259-0.016-0.854-0.058-1.386-0.099-0.138-0.010-0.275-0.022-0.304-0.029s-0.086-0.013-0.128-0.013l-0.074-0.003 0.010-1.946 0.010-1.949 0.096-0.157c0.118-0.189 0.349-0.352 0.544-0.384l0.144-0.019v-1.594h-0.49c-0.531 0-0.746 0.038-1.040 0.179-0.221 0.109-0.506 0.374-0.646 0.608-0.221 0.368-0.221 0.346-0.221 2.864-0.003 1.242-0.010 2.266-0.019 2.272-0.006 0.010-0.141 0.006-0.294-0.006s-0.419-0.032-0.586-0.042c-0.166-0.013-0.368-0.029-0.448-0.035s-0.288-0.022-0.464-0.032c-0.176-0.010-0.39-0.026-0.48-0.032-0.086-0.006-0.288-0.022-0.448-0.032-0.157-0.010-0.368-0.026-0.464-0.032s-0.304-0.022-0.464-0.032c-0.157-0.010-0.368-0.026-0.464-0.035-0.096-0.006-0.282-0.022-0.413-0.029-0.131-0.010-0.246-0.022-0.253-0.032-0.010-0.006-0.23-0.739-0.493-1.622-0.259-0.886-0.576-1.955-0.701-2.378-0.128-0.422-0.24-0.813-0.256-0.864-0.013-0.054-0.070-0.246-0.125-0.432-0.102-0.333-0.205-0.685-0.365-1.226-0.045-0.154-0.083-0.294-0.083-0.314s-0.038-0.115-0.086-0.214c-0.208-0.451-0.579-0.758-1.050-0.883-0.17-0.045-0.589-0.048-3.408-0.048-1.77 0.003-3.28 0.016-3.36 0.032zM14.157 7.35c0.026 0.086 0.115 0.384 0.195 0.666 0.083 0.282 0.269 0.915 0.416 1.408s0.282 0.947 0.298 1.008c0.061 0.221 0.909 3.085 0.925 3.126 0.013 0.035-0.662 0.042-3.987 0.042h-4.003v-6.4h6.106l0.051 0.15z"></path>
<path fill="#ff7900" d="M9.472 16.022c-1.629 0.211-2.922 0.995-3.805 2.31-0.589 0.877-0.87 1.85-0.851 2.963 0.010 0.838 0.157 1.45 0.528 2.208 0.755 1.539 2.163 2.557 3.936 2.845 0.406 0.067 1.267 0.045 1.699-0.042 1.056-0.211 1.926-0.678 2.688-1.44 0.982-0.982 1.488-2.163 1.52-3.539 0.019-0.909-0.134-1.616-0.515-2.4-0.758-1.562-2.243-2.637-3.968-2.877-0.285-0.038-1.018-0.058-1.232-0.029zM10.707 17.677c0.464 0.099 0.938 0.304 1.338 0.57 0.266 0.179 0.771 0.694 0.957 0.979 0.794 1.213 0.787 2.752-0.016 3.974-0.192 0.291-0.698 0.794-1.002 0.989-1.491 0.97-3.414 0.762-4.63-0.502-0.701-0.73-1.059-1.667-1.008-2.643 0.048-0.931 0.387-1.702 1.043-2.358 0.576-0.576 1.28-0.934 2.067-1.050 0.278-0.042 0.989-0.016 1.251 0.042z"></path>
</svg>
