<!-- Generated by IcoMoon.io -->
<svg version="1.1" xmlns="http://www.w3.org/2000/svg" width="32" height="32" viewBox="0 0 32 32">
<title>airbox_auto</title>
<path fill="#ff7900" d="M7.574 6.448c-0.224 0.061-0.486 0.202-0.656 0.352-0.166 0.144-5.062 6.669-5.178 6.896-0.176 0.352-0.173 0.282-0.173 3.52 0 3.245-0.003 3.136 0.179 3.517 0.118 0.243 0.454 0.576 0.701 0.691 0.304 0.144 0.458 0.17 0.998 0.176 0.275 0 0.506 0.006 0.509 0.010s0.016 0.134 0.026 0.288c0.051 0.701 0.301 1.398 0.707 1.99 0.208 0.301 0.746 0.832 1.040 1.021 0.477 0.314 1.030 0.541 1.536 0.63 0.362 0.064 1.142 0.058 1.472-0.013 1.341-0.285 2.39-1.142 2.922-2.39 0.17-0.4 0.307-1.027 0.31-1.402v-0.134h7.2l0.003 0.134c0.003 0.326 0.093 0.797 0.211 1.146 0.336 0.998 1.062 1.824 2.019 2.304 0.592 0.294 1.149 0.413 1.878 0.4 0.643-0.013 1.11-0.128 1.69-0.419 0.403-0.202 0.659-0.394 1.034-0.765 0.682-0.682 1.078-1.539 1.152-2.496 0.010-0.16 0.022-0.291 0.026-0.294s0.41-0.010 0.906-0.010c0.653-0.003 0.944-0.016 1.066-0.048 0.566-0.15 1.021-0.605 1.168-1.171 0.070-0.269 0.070-5.274 0-5.549-0.077-0.294-0.205-0.518-0.419-0.739-0.253-0.256-0.547-0.4-1.005-0.49-0.186-0.035-0.867-0.166-1.52-0.288-0.65-0.125-1.408-0.269-1.68-0.32l-0.496-0.099-0.272-0.278c-0.275-0.285-0.448-0.47-1.28-1.354-0.256-0.272-0.573-0.608-0.707-0.752-0.134-0.141-0.285-0.301-0.333-0.352-0.048-0.054-0.285-0.304-0.528-0.56-0.24-0.256-0.486-0.515-0.544-0.576-0.157-0.17-0.845-0.906-1.136-1.213-0.141-0.147-0.32-0.336-0.394-0.416-0.432-0.458-0.662-0.672-0.822-0.768-0.374-0.227 0.080-0.211-5.984-0.218-4.454-0.003-5.501 0.003-5.626 0.038zM14.256 8.288c1.174 0.109 2.358 0.499 3.357 1.114 0.278 0.17 0.992 0.685 1.024 0.739 0.010 0.013-0.006 0.054-0.038 0.086-0.029 0.035-0.147 0.17-0.262 0.301s-0.243 0.282-0.288 0.33l-0.083 0.090-0.125-0.109c-0.755-0.63-1.69-1.091-2.768-1.363-0.883-0.224-2.221-0.208-3.152 0.032s-1.821 0.675-2.512 1.226c-0.115 0.093-0.224 0.176-0.246 0.189-0.022 0.016-0.166-0.125-0.378-0.368l-0.339-0.39 0.074-0.061c1.018-0.822 1.968-1.309 3.165-1.619 0.234-0.061 0.979-0.186 1.213-0.205 0.336-0.026 1.024-0.022 1.36 0.010zM14.512 10.384c0.931 0.17 1.741 0.538 2.474 1.114l0.198 0.157-0.182 0.211c-0.102 0.118-0.23 0.262-0.288 0.326-0.054 0.061-0.125 0.144-0.16 0.186l-0.058 0.070-0.16-0.128c-0.374-0.304-0.89-0.582-1.366-0.739-0.518-0.17-0.762-0.205-1.37-0.205-0.586 0-0.71 0.010-1.056 0.093-0.63 0.144-1.386 0.518-1.808 0.886-0.093 0.083-0.118 0.090-0.15 0.054-0.17-0.176-0.634-0.726-0.634-0.752 0-0.016 0.096-0.102 0.218-0.192 0.819-0.618 1.651-0.966 2.662-1.114 0.371-0.054 1.312-0.038 1.68 0.032zM14.080 12.435c0.611 0.096 1.206 0.358 1.645 0.723l0.093 0.077-0.346 0.39-0.342 0.394-0.106-0.080c-0.275-0.211-0.531-0.333-0.925-0.435-0.275-0.074-0.864-0.067-1.155 0.013-0.259 0.070-0.605 0.24-0.797 0.384-0.182 0.141-0.115 0.182-0.56-0.333l-0.291-0.336 0.070-0.058c0.144-0.115 0.493-0.336 0.688-0.435 0.598-0.301 1.35-0.413 2.026-0.304zM14.102 14.762c0.339 0.176 0.522 0.47 0.522 0.848 0 0.826-1.008 1.242-1.59 0.659-0.189-0.189-0.272-0.39-0.275-0.656-0.003-0.23 0.038-0.358 0.173-0.56 0.246-0.365 0.771-0.493 1.171-0.291z"></path>
</svg>
