<!-- Generated by IcoMoon.io -->
<svg version="1.1" xmlns="http://www.w3.org/2000/svg" width="32" height="32" viewBox="0 0 32 32">
<title>alarm_off</title>
<path fill="#ff7900" d="M15.2 14.717l-13.6 13.6 0.851 0.848 0.848 0.851 27.2-27.197-0.442-0.438c-0.243-0.243-0.624-0.624-0.851-0.851l-0.406-0.413-13.6 13.6z"></path>
<path fill="#ff7900" d="M15.744 1.59c-0.371 0.058-0.81 0.234-1.088 0.438-0.643 0.474-0.982 1.123-1.002 1.93l-0.006 0.314-0.394 0.122c-1.52 0.467-2.842 1.261-3.962 2.374-0.765 0.765-1.286 1.472-1.779 2.416-0.576 1.107-0.874 2.154-1.037 3.616-0.013 0.115-0.026 2.138-0.026 4.496l-0.003 4.288-0.566 0.938c-0.31 0.515-0.541 0.918-0.512 0.896 0.035-0.029 16.896-16.896 16.998-17.005 0.010-0.010-0.022-0.051-0.067-0.086-0.941-0.784-1.76-1.28-2.765-1.68-0.365-0.144-0.915-0.326-0.989-0.326-0.077 0-0.093-0.058-0.102-0.381-0.038-1.296-1.040-2.314-2.317-2.352-0.166-0.003-0.339-0.003-0.384 0.003z"></path>
<path fill="#ff7900" d="M16.829 17.616c-4.371 4.378-7.952 7.958-7.955 7.962s4.029 0.006 8.96 0.006l8.966-0.003 0.179-0.083c0.285-0.131 0.451-0.4 0.451-0.733 0-0.221 0.003-0.214-0.65-1.299-0.285-0.474-0.544-0.902-0.573-0.954-0.032-0.054-0.17-0.285-0.307-0.512l-0.253-0.416-0.003-4.24c0-2.333-0.013-4.349-0.026-4.48-0.083-0.88-0.246-1.638-0.515-2.4-0.099-0.285-0.294-0.768-0.317-0.79-0.003-0.006-3.587 3.568-7.958 7.942z"></path>
<path fill="#ff7900" d="M12.851 26.486c0.032 0.365 0.051 0.512 0.090 0.662 0.4 1.507 1.773 2.506 3.318 2.406 1.51-0.093 2.758-1.258 2.957-2.755 0.022-0.176 0.038-0.339 0.032-0.368-0.006-0.042-0.365-0.048-3.206-0.058l-3.203-0.006 0.013 0.118z"></path>
</svg>
