<!-- Generated by IcoMoon.io -->
<svg version="1.1" xmlns="http://www.w3.org/2000/svg" width="32" height="32" viewBox="0 0 32 32">
<title>alarm_clock</title>
<path fill="#ff7900" d="M7.76 2.435c-0.534 0.099-0.848 0.282-1.542 0.886-0.294 0.259-0.934 0.816-1.418 1.238s-0.931 0.813-0.992 0.867c-0.061 0.054-0.25 0.221-0.416 0.368-0.368 0.326-0.41 0.371-0.589 0.637-0.262 0.387-0.371 0.742-0.387 1.248-0.019 0.56 0.122 1.037 0.422 1.446 0.115 0.154 1.299 1.526 1.789 2.074 0.054 0.061 0.186 0.211 0.291 0.333l0.189 0.218-0.166 0.39c-0.413 0.96-0.762 2.288-0.861 3.283-0.013 0.115-0.029 0.243-0.038 0.288-0.029 0.166-0.035 1.693-0.006 2.032 0.061 0.714 0.221 1.622 0.387 2.208 0.035 0.122 0.077 0.275 0.093 0.336 0.096 0.384 0.426 1.216 0.72 1.808 0.509 1.034 1.133 1.942 1.974 2.874l0.218 0.24-0.819 1.414c-0.448 0.778-0.838 1.466-0.867 1.53-0.256 0.595-0.15 1.245 0.282 1.718 0.394 0.429 0.973 0.611 1.539 0.48 0.304-0.070 0.525-0.195 0.758-0.432 0.182-0.182 0.301-0.368 0.925-1.456 0.394-0.688 0.723-1.254 0.73-1.264 0.006-0.006 0.061 0.013 0.115 0.045 1.418 0.822 3.2 1.37 4.934 1.514 0.371 0.032 1.504 0.032 1.926 0.003 1.645-0.122 3.395-0.646 4.848-1.456 0.118-0.064 0.221-0.112 0.227-0.102 0.013 0.013 0.749 1.29 1.21 2.093 0.39 0.685 0.746 0.979 1.286 1.072 1.043 0.182 1.965-0.672 1.866-1.731-0.010-0.122-0.048-0.294-0.086-0.387-0.035-0.093-0.336-0.637-0.669-1.21-0.33-0.573-0.704-1.219-0.829-1.437l-0.227-0.394 0.102-0.118c0.054-0.064 0.154-0.173 0.221-0.243 0.256-0.275 0.666-0.787 0.925-1.162 1.232-1.776 1.917-3.642 2.128-5.814 0.058-0.595 0.042-1.872-0.029-2.448-0.15-1.2-0.435-2.282-0.864-3.286l-0.166-0.387 0.522-0.598c0.288-0.33 0.605-0.694 0.71-0.81 1.018-1.152 1.133-1.302 1.286-1.67 0.307-0.742 0.23-1.574-0.211-2.24-0.16-0.243-0.278-0.365-0.707-0.739-1.059-0.928-1.414-1.238-1.501-1.312-0.051-0.048-0.291-0.256-0.528-0.461-0.237-0.208-0.49-0.429-0.56-0.493-0.602-0.544-0.832-0.71-1.174-0.848-0.637-0.253-1.306-0.234-1.923 0.058-0.333 0.154-0.589 0.362-0.941 0.765-0.173 0.198-0.326 0.374-0.346 0.394-0.042 0.042-0.253 0.285-0.941 1.075l-0.55 0.627-0.163-0.061c-0.48-0.173-1.51-0.426-2.010-0.493-0.080-0.010-0.179-0.026-0.224-0.032-0.464-0.077-1.024-0.106-1.824-0.096-0.774 0.013-0.861 0.019-1.456 0.099-0.694 0.093-1.494 0.278-2.118 0.49l-0.266 0.090-0.406-0.467c-0.224-0.256-0.448-0.512-0.493-0.563-0.448-0.509-0.675-0.771-0.842-0.96-0.454-0.528-0.746-0.762-1.158-0.925-0.413-0.166-0.896-0.218-1.309-0.144zM17.024 7.248c2.275 0.291 4.182 1.203 5.718 2.73 1.517 1.504 2.448 3.35 2.765 5.478 0.096 0.643 0.102 2.067 0.013 2.592-0.006 0.045-0.035 0.224-0.067 0.4-0.186 1.117-0.618 2.288-1.206 3.264-1.578 2.624-4.285 4.342-7.302 4.643-0.32 0.032-1.45 0.035-1.792 0.006-2.266-0.198-4.387-1.2-5.981-2.822-1.526-1.555-2.438-3.459-2.714-5.651-0.026-0.202-0.042-0.656-0.038-1.136 0.003-0.861 0.051-1.312 0.224-2.096 0.557-2.496 2.17-4.723 4.397-6.074 1.229-0.746 2.778-1.251 4.096-1.338 0.166-0.013 0.31-0.029 0.32-0.035 0.019-0.019 1.382 0.016 1.568 0.038z"></path>
<path fill="#ff7900" d="M15.696 8.448c-0.285 0.070-0.547 0.253-0.701 0.486-0.224 0.342-0.214 0.106-0.205 4.349l0.010 3.821 0.093 0.189c0.080 0.166 0.387 0.483 2.246 2.342 2.326 2.326 2.288 2.291 2.685 2.342 0.81 0.106 1.472-0.554 1.357-1.35-0.054-0.397-0.042-0.381-2.106-2.448l-1.907-1.907-0.016-3.488c-0.016-3.482-0.016-3.488-0.083-3.632-0.166-0.352-0.413-0.57-0.755-0.678-0.195-0.058-0.445-0.070-0.618-0.026z"></path>
</svg>
