<!-- Generated by IcoMoon.io -->
<svg version="1.1" xmlns="http://www.w3.org/2000/svg" width="32" height="32" viewBox="0 0 32 32">
<title>Alias_numbers</title>
<path fill="#ff7900" d="M18.304 2.419c-0.045 0.010-0.224 0.035-0.4 0.064-1.843 0.294-3.459 1.693-4.042 3.501-0.154 0.477-0.157 0.438 0.070 0.464 0.438 0.048 0.941 0.173 1.408 0.352 1.84 0.701 3.232 2.285 3.693 4.208 0.115 0.474 0.166 1.002 0.166 1.686v0.093l0.218-0.026c2.166-0.259 3.99-1.901 4.454-4.010 0.144-0.646 0.163-1.485 0.048-2.064-0.102-0.525-0.218-0.88-0.438-1.341-0.269-0.563-0.611-1.034-1.091-1.494-0.726-0.701-1.677-1.19-2.678-1.373-0.282-0.054-1.203-0.093-1.408-0.061z"></path>
<path fill="#ff7900" d="M12.733 7.213c-0.006 0.006-0.093 0.022-0.189 0.032-0.4 0.048-0.739 0.131-1.181 0.298-0.714 0.266-1.254 0.618-1.83 1.194-0.762 0.758-1.213 1.6-1.44 2.688-0.106 0.49-0.106 1.469-0.003 1.952 0.237 1.114 0.71 1.984 1.494 2.746 0.742 0.72 1.632 1.187 2.646 1.386 0.518 0.102 1.424 0.106 1.933 0.003 2.237-0.445 3.92-2.24 4.202-4.486 0.051-0.4 0.022-1.216-0.058-1.6-0.394-1.914-1.706-3.389-3.546-3.978-0.493-0.16-0.899-0.224-1.501-0.234-0.285-0.006-0.522-0.006-0.528 0z"></path>
<path fill="#ff7900" d="M22.16 13.142c-0.573 0.349-1.437 0.685-2.077 0.806-0.346 0.067-0.774 0.122-1.027 0.128-0.090 0.003-0.099 0.019-0.16 0.202-0.301 0.96-1.002 2.013-1.77 2.656l-0.134 0.112 0.294 0.102c0.467 0.163 1.242 0.55 1.546 0.778 1.123 0.835 1.862 1.766 2.32 2.918 0.192 0.486 0.362 1.162 0.403 1.606 0.013 0.138 0.026 0.282 0.032 0.317 0.003 0.035 0.010 0.506 0.010 1.046l0.003 0.986h4.803l-0.013-3.53c-0.006-1.939-0.019-3.578-0.032-3.638s-0.038-0.186-0.058-0.272c-0.106-0.515-0.272-1.011-0.48-1.434-0.589-1.184-1.552-2.109-2.765-2.65-0.205-0.090-0.65-0.253-0.694-0.253-0.006 0-0.096 0.051-0.202 0.118z"></path>
<path fill="#ff7900" d="M9.264 17.949c-1.898 0.723-3.203 2.288-3.587 4.291-0.054 0.278-0.058 0.557-0.067 3.136-0.010 3.082-0.016 2.973 0.17 3.357 0.115 0.234 0.454 0.573 0.688 0.688 0.394 0.189-0.086 0.179 7.43 0.179h6.906l-0.013-3.526c-0.006-1.942-0.022-3.587-0.035-3.658-0.189-0.995-0.47-1.712-0.95-2.4-0.653-0.944-1.594-1.667-2.701-2.080l-0.32-0.122-0.176 0.102c-1.2 0.694-2.259 0.973-3.568 0.947-1.171-0.022-2.198-0.32-3.206-0.928-0.102-0.061-0.198-0.112-0.218-0.112-0.016 0-0.176 0.058-0.352 0.125z"></path>
</svg>
