<!-- Generated by IcoMoon.io -->
<svg version="1.1" xmlns="http://www.w3.org/2000/svg" width="32" height="32" viewBox="0 0 32 32">
<title>all_channels</title>
<path fill="#ff7900" d="M2.4 14.72v8.32h4.8v2.56h17.6v-2.56h4.8v-16.64h-27.2v8.32zM27.68 14.72v6.4h-23.36v-12.8h23.36v6.4zM16.342 22.31c0.522 0.195 0.758 0.806 0.509 1.318-0.349 0.714-1.402 0.688-1.725-0.042-0.342-0.771 0.422-1.574 1.216-1.277z"></path>
<path fill="#ff7900" d="M9.376 10.429c-0.234 0.070-0.445 0.259-0.534 0.477-0.061 0.147-0.058 0.448 0.006 0.605 0.154 0.371 0.592 0.57 0.982 0.445 0.547-0.179 0.73-0.88 0.336-1.296-0.198-0.211-0.534-0.307-0.79-0.23z"></path>
<path fill="#ff7900" d="M12.515 10.454c-0.189 0.067-0.397 0.278-0.461 0.474-0.109 0.317-0.038 0.611 0.202 0.845 0.253 0.243-0.147 0.227 5.347 0.227 4.317 0 4.934-0.006 5.056-0.048 0.557-0.198 0.717-0.883 0.304-1.306-0.256-0.266 0.176-0.246-5.376-0.243-4.381 0-4.947 0.006-5.072 0.051z"></path>
<path fill="#ff7900" d="M9.28 12.864c-0.506 0.237-0.653 0.858-0.294 1.254 0.176 0.195 0.333 0.262 0.598 0.262s0.422-0.067 0.598-0.262c0.342-0.378 0.221-0.989-0.24-1.229-0.189-0.096-0.486-0.106-0.662-0.026z"></path>
<path fill="#ff7900" d="M12.534 12.851c-0.294 0.090-0.534 0.429-0.534 0.749 0 0.195 0.096 0.416 0.24 0.56 0.259 0.259-0.166 0.243 5.424 0.234l4.976-0.010 0.131-0.070c0.595-0.317 0.554-1.146-0.067-1.437l-0.16-0.077-4.928 0.003c-4.262 0-4.95 0.006-5.082 0.048z"></path>
<path fill="#ff7900" d="M9.376 15.229c-0.576 0.176-0.778 0.886-0.374 1.312 0.144 0.15 0.387 0.259 0.582 0.259 0.301 0 0.621-0.218 0.739-0.496 0.112-0.272 0.048-0.63-0.157-0.845-0.198-0.211-0.534-0.307-0.79-0.23z"></path>
<path fill="#ff7900" d="M12.464 15.28c-0.416 0.205-0.573 0.669-0.371 1.085 0.083 0.173 0.304 0.355 0.486 0.403 0.080 0.022 1.802 0.029 5.091 0.026l4.97-0.010 0.147-0.086c0.288-0.173 0.394-0.362 0.394-0.698 0.003-0.275-0.042-0.381-0.234-0.573-0.243-0.243 0.15-0.227-5.376-0.227h-4.947l-0.16 0.080z"></path>
<path fill="#ff7900" d="M9.334 17.645c-0.544 0.195-0.726 0.858-0.349 1.274 0.31 0.346 0.794 0.371 1.136 0.061 0.166-0.15 0.25-0.339 0.25-0.576 0.003-0.33-0.16-0.582-0.467-0.726-0.182-0.086-0.384-0.096-0.57-0.032z"></path>
<path fill="#ff7900" d="M12.515 17.654c-0.077 0.029-0.202 0.112-0.275 0.186-0.374 0.374-0.291 0.986 0.173 1.258l0.147 0.086 4.96 0.010c3.738 0.006 4.995 0 5.098-0.029 0.192-0.054 0.371-0.192 0.474-0.368 0.074-0.125 0.090-0.192 0.090-0.378 0.003-0.278-0.083-0.48-0.275-0.63-0.246-0.198 0.080-0.186-5.306-0.186-4.394 0.003-4.96 0.006-5.085 0.051z"></path>
</svg>
