<!-- Generated by IcoMoon.io -->
<svg version="1.1" xmlns="http://www.w3.org/2000/svg" width="32" height="32" viewBox="0 0 32 32">
<title>antenna</title>
<path fill="#ff7900" d="M6.704 2.902c-0.138 0.042-0.211 0.099-0.544 0.435-0.41 0.416-0.992 1.123-1.334 1.622-1.117 1.619-1.818 3.309-2.218 5.344-0.038 0.195-0.125 0.874-0.16 1.254-0.042 0.451-0.042 1.997 0 2.346 0.080 0.666 0.125 0.982 0.195 1.354 0.483 2.563 1.731 4.979 3.536 6.845 0.32 0.33 0.48 0.432 0.714 0.445 0.317 0.016 0.589-0.128 0.746-0.397 0.077-0.131 0.090-0.186 0.090-0.406 0-0.31-0.010-0.326-0.509-0.867-1.213-1.315-2.067-2.752-2.611-4.397-0.243-0.73-0.458-1.686-0.525-2.336-0.010-0.096-0.029-0.285-0.042-0.416-0.032-0.314-0.032-1.702 0-2.032 0.099-1.021 0.272-1.878 0.554-2.733 0.582-1.757 1.482-3.235 2.835-4.65 0.253-0.266 0.33-0.454 0.304-0.733-0.045-0.502-0.528-0.822-1.030-0.678z"></path>
<path fill="#ff7900" d="M24.8 2.912c-0.358 0.122-0.57 0.438-0.538 0.813 0.019 0.234 0.090 0.355 0.365 0.643 1.283 1.35 2.192 2.851 2.762 4.557 0.211 0.624 0.406 1.45 0.483 2.035 0.016 0.122 0.035 0.253 0.045 0.288 0.086 0.422 0.086 2.381 0 2.877-0.006 0.038-0.032 0.224-0.061 0.419-0.205 1.414-0.73 2.909-1.45 4.144-0.49 0.842-0.989 1.507-1.699 2.269-0.387 0.416-0.458 0.55-0.442 0.842 0.029 0.458 0.378 0.771 0.829 0.746 0.256-0.013 0.419-0.115 0.749-0.461 1.843-1.942 3.066-4.333 3.53-6.899 0.163-0.906 0.211-1.456 0.211-2.496 0-1.050-0.042-1.498-0.224-2.515-0.314-1.725-1.040-3.504-2.042-5.005-0.634-0.947-1.651-2.112-1.955-2.24-0.17-0.070-0.381-0.077-0.563-0.016z"></path>
<path fill="#ff7900" d="M8.928 5.174c-0.33 0.122-1.27 1.226-1.83 2.154-0.794 1.312-1.299 2.838-1.456 4.384-0.032 0.32-0.032 1.648 0 1.968 0.224 2.192 1.059 4.157 2.451 5.776 0.586 0.678 0.79 0.832 1.126 0.832 0.694 0 1.046-0.851 0.56-1.357-1.030-1.069-1.709-2.166-2.125-3.443-0.317-0.966-0.448-1.786-0.448-2.8 0.003-2.275 0.822-4.323 2.419-6.038 0.218-0.237 0.301-0.352 0.342-0.474 0.125-0.374-0.058-0.803-0.41-0.97-0.17-0.080-0.458-0.096-0.63-0.032z"></path>
<path fill="#ff7900" d="M22.563 5.155c-0.416 0.125-0.669 0.608-0.534 1.014 0.042 0.122 0.128 0.24 0.346 0.477 1.315 1.414 2.090 3.027 2.352 4.906 0.083 0.605 0.077 1.818-0.016 2.416-0.195 1.267-0.614 2.406-1.267 3.434-0.307 0.486-0.614 0.877-1.101 1.405-0.134 0.144-0.269 0.323-0.298 0.4-0.147 0.358 0.003 0.774 0.352 0.979 0.125 0.074 0.182 0.086 0.387 0.086 0.31-0.003 0.419-0.061 0.739-0.39 1.088-1.126 1.962-2.611 2.413-4.099 0.147-0.486 0.253-0.934 0.317-1.35 0.029-0.186 0.061-0.381 0.070-0.432 0.061-0.371 0.083-1.744 0.035-2.24-0.23-2.378-1.174-4.451-2.835-6.23-0.131-0.141-0.291-0.275-0.371-0.314-0.166-0.080-0.432-0.109-0.589-0.061z"></path>
<path fill="#ff7900" d="M11.222 7.424c-0.112 0.035-0.294 0.166-0.432 0.317-0.298 0.32-0.618 0.726-0.826 1.046-0.224 0.342-0.595 1.059-0.701 1.357-0.208 0.582-0.371 1.274-0.429 1.84-0.032 0.294-0.022 1.382 0.013 1.584 0.010 0.061 0.032 0.211 0.051 0.336 0.141 0.928 0.563 1.987 1.123 2.816 0.371 0.544 0.851 1.088 1.075 1.21 0.531 0.288 1.171-0.096 1.168-0.701-0.003-0.24-0.090-0.419-0.317-0.659-0.822-0.864-1.334-1.936-1.501-3.142-0.058-0.413-0.042-1.274 0.032-1.667 0.134-0.73 0.378-1.373 0.758-1.994 0.173-0.282 0.362-0.531 0.688-0.899 0.192-0.214 0.278-0.339 0.31-0.448 0.115-0.397-0.086-0.819-0.477-0.982-0.118-0.048-0.394-0.054-0.538-0.013z"></path>
<path fill="#ff7900" d="M20.304 7.414c-0.336 0.083-0.608 0.486-0.57 0.842 0.022 0.205 0.112 0.371 0.317 0.592 0.851 0.912 1.36 1.994 1.514 3.216 0.051 0.4 0.019 1.277-0.061 1.677-0.214 1.082-0.672 1.978-1.45 2.829-0.25 0.272-0.304 0.378-0.317 0.598-0.038 0.634 0.576 1.046 1.146 0.768 0.16-0.080 0.429-0.346 0.768-0.768 0.736-0.915 1.274-2.134 1.453-3.296 0.019-0.125 0.042-0.259 0.051-0.304 0.006-0.045 0.022-0.31 0.035-0.592 0.064-1.69-0.438-3.274-1.472-4.64-0.349-0.458-0.669-0.781-0.87-0.877-0.138-0.064-0.381-0.083-0.544-0.045z"></path>
<path fill="#ff7900" d="M15.517 9.648c-1.635 0.262-2.794 1.686-2.704 3.328 0.032 0.576 0.182 1.056 0.486 1.546 0.182 0.288 0.618 0.739 0.902 0.931l0.198 0.134 0.003 6.294c0 3.462 0.010 6.336 0.016 6.387 0.118 0.73 0.819 1.328 1.555 1.331 0.781 0 1.485-0.579 1.606-1.331 0.006-0.051 0.016-2.925 0.016-6.387l0.003-6.291 0.25-0.176c0.387-0.272 0.79-0.733 0.998-1.146 0.093-0.182 0.208-0.496 0.275-0.765 0.090-0.358 0.083-1.066-0.016-1.456-0.304-1.197-1.258-2.118-2.458-2.368-0.317-0.067-0.819-0.080-1.133-0.032z"></path>
</svg>
