<!-- Generated by IcoMoon.io -->
<svg version="1.1" xmlns="http://www.w3.org/2000/svg" width="32" height="32" viewBox="0 0 32 32">
<title>anti_spam</title>
<path fill="#ff7900" d="M15.197 2.413c-0.006 0.006-0.141 0.022-0.301 0.032-0.272 0.022-0.634 0.064-0.88 0.102-0.739 0.112-1.085 0.186-1.725 0.368-1.222 0.346-2.522 0.922-3.507 1.558-0.496 0.32-0.586 0.381-0.81 0.544-2.198 1.613-3.875 3.862-4.797 6.438-0.301 0.848-0.582 2.022-0.666 2.8-0.013 0.106-0.029 0.227-0.035 0.272-0.093 0.576-0.080 2.365 0.019 3.13 0.051 0.368 0.051 0.374 0.128 0.79 0.448 2.477 1.578 4.768 3.28 6.656 1.59 1.763 3.562 3.053 5.824 3.808 0.656 0.221 1.67 0.461 2.272 0.541 0.070 0.010 0.23 0.032 0.352 0.048 0.611 0.083 2.118 0.115 2.736 0.058 1.494-0.138 2.755-0.438 4.048-0.963 0.621-0.253 1.52-0.707 1.968-0.995 0.48-0.307 0.637-0.413 0.96-0.65 0.202-0.15 0.419-0.317 0.483-0.371s0.186-0.157 0.272-0.227c0.406-0.333 1.040-0.963 1.472-1.466 1.386-1.61 2.323-3.395 2.87-5.462 0.090-0.336 0.266-1.184 0.291-1.408 0.010-0.080 0.022-0.189 0.032-0.24 0.093-0.525 0.134-2.093 0.074-2.832-0.032-0.432-0.138-1.219-0.211-1.568-0.605-2.957-2.074-5.536-4.294-7.523-2.099-1.882-4.893-3.12-7.613-3.376-0.115-0.010-0.25-0.026-0.304-0.035-0.115-0.016-1.923-0.045-1.939-0.029zM17.008 5.651c1.581 0.163 3.008 0.634 4.346 1.427l0.218 0.131-0.090 0.093c-0.093 0.099-14.24 14.24-14.262 14.259-0.006 0.006-0.128-0.192-0.272-0.445-0.726-1.286-1.165-2.682-1.309-4.189-0.029-0.304-0.029-1.427 0-1.808 0.141-1.891 0.893-3.85 2.067-5.392 1.514-1.987 3.658-3.36 6.054-3.885 0.202-0.045 0.419-0.086 0.48-0.096s0.154-0.026 0.205-0.035c0.109-0.016 0.65-0.077 0.835-0.090 0.314-0.026 1.379-0.010 1.728 0.029zM25.005 10.797c0.758 1.318 1.184 2.65 1.344 4.195 0.048 0.448 0.058 1.411 0.019 1.824-0.051 0.531-0.061 0.621-0.128 0.998-0.566 3.251-2.691 6.067-5.68 7.53-1.146 0.56-2.413 0.912-3.664 1.021-0.336 0.029-1.709 0.022-1.92-0.010-0.061-0.010-0.234-0.032-0.384-0.054-0.816-0.106-1.555-0.298-2.416-0.627-0.368-0.141-1.248-0.576-1.53-0.755l-0.218-0.138 7.178-7.174c3.946-3.946 7.184-7.165 7.197-7.152 0.013 0.016 0.102 0.166 0.202 0.342z"></path>
</svg>
