<!-- Generated by IcoMoon.io -->
<svg version="1.1" xmlns="http://www.w3.org/2000/svg" width="32" height="32" viewBox="0 0 32 32">
<title>antivirus</title>
<path fill="#ff7900" d="M15.68 2.611c-0.65 0.445-1.67 1.014-2.368 1.325-0.166 0.074-0.374 0.17-0.464 0.208-0.979 0.438-2.506 0.902-3.664 1.117-0.15 0.029-0.342 0.067-0.432 0.083-0.086 0.016-0.23 0.038-0.32 0.048-0.086 0.010-0.189 0.026-0.227 0.032-0.115 0.026-0.947 0.109-1.28 0.128-0.173 0.013-0.387 0.026-0.477 0.032-0.086 0.006-0.496 0.013-0.906 0.013l-0.746 0.003 0.013 4.966c0.006 2.733 0.022 5.005 0.029 5.050 0.010 0.045 0.026 0.179 0.038 0.304 0.099 1.088 0.362 2.342 0.73 3.472 1.114 3.424 3.248 6.269 6.154 8.202 1.181 0.787 2.374 1.373 3.795 1.862l0.435 0.15 0.381-0.128c1.987-0.659 4.010-1.802 5.421-3.062 1.162-1.040 1.968-1.965 2.758-3.168 1.13-1.715 1.949-3.738 2.342-5.76 0.112-0.579 0.147-0.81 0.208-1.392 0.019-0.166 0.045-0.362 0.054-0.432 0.013-0.070 0.029-2.365 0.035-5.098l0.013-4.966-0.746-0.003c-0.41 0-0.816-0.006-0.906-0.013-0.086-0.006-0.32-0.019-0.515-0.032-0.195-0.010-0.403-0.026-0.464-0.032-0.061-0.010-0.179-0.022-0.269-0.032-0.381-0.045-0.71-0.086-0.784-0.099-0.045-0.010-0.166-0.029-0.272-0.045-0.752-0.115-1.875-0.397-2.755-0.691-0.365-0.122-1.258-0.464-1.533-0.589-0.979-0.442-1.859-0.928-2.678-1.478-0.157-0.102-0.285-0.186-0.288-0.182-0.006 0-0.147 0.093-0.314 0.208zM16.317 5.421c0.714 0.4 1.491 0.771 2.237 1.072l0.397 0.157-5.638 5.638c-3.101 3.101-5.642 5.632-5.648 5.626-0.010-0.013-0.163-0.682-0.221-0.986-0.051-0.256-0.134-0.806-0.163-1.072-0.010-0.090-0.026-0.224-0.038-0.304-0.010-0.080-0.026-1.824-0.032-3.882l-0.013-3.734 0.138-0.003c0.077 0 0.16-0.006 0.186-0.010 0.026-0.006 0.157-0.019 0.288-0.032 0.909-0.086 2.634-0.406 3.376-0.627 0.054-0.016 0.246-0.074 0.432-0.128 1.456-0.432 2.934-1.062 4.24-1.811 0.070-0.042 0.134-0.074 0.141-0.077 0.003 0 0.147 0.077 0.32 0.173zM24.79 13.856c-0.010 0.87-0.026 1.635-0.035 1.696s-0.026 0.182-0.035 0.272c-0.122 1.114-0.349 2.096-0.73 3.184-0.832 2.365-2.326 4.47-4.262 6.003-0.374 0.298-1.222 0.864-1.632 1.091-0.602 0.336-1.389 0.704-1.888 0.886l-0.218 0.080-0.403-0.16c-0.816-0.326-1.632-0.749-2.384-1.238-0.429-0.278-1.171-0.829-1.171-0.867 0-0.022 1.446-1.475 3.741-3.747 2.544-2.518 7.965-7.904 8.496-8.438 0.477-0.48 0.515-0.512 0.525-0.432 0.006 0.048 0.006 0.8-0.003 1.67z"></path>
</svg>
