<!-- Generated by IcoMoon.io -->
<svg version="1.1" xmlns="http://www.w3.org/2000/svg" width="32" height="32" viewBox="0 0 32 32">
<title>Apartment_building</title>
<path fill="#ff7900" d="M10.886 2.662c-0.176 0.147-0.374 0.31-0.442 0.368-0.067 0.054-0.765 0.637-1.549 1.29s-1.482 1.235-1.552 1.29c-0.067 0.058-0.192 0.16-0.275 0.23-0.080 0.070-0.266 0.227-0.41 0.346l-0.259 0.218v22.397h-0.8v0.8h20.8v-0.8h-0.8l-0.003-11.21-0.003-11.206-0.851-0.704c-0.467-0.387-1.546-1.283-2.397-1.994l-1.546-1.286-1.469 1.222c-0.806 0.675-1.888 1.574-2.4 2.003l-0.931 0.774-1.066-0.886c-0.582-0.486-1.664-1.389-2.397-2l-1.334-1.114-0.317 0.262zM11.2 9.2v1.2h-2.4v-2.4h2.4v1.2zM15.2 9.2v1.2h-2.4v-2.4h2.4v1.2zM19.2 9.2v1.2h-2.4v-2.4h2.4v1.2zM23.2 9.2v1.2h-2.4v-2.4h2.4v1.2zM11.2 13.2v1.2h-2.368v-2.4h2.368v1.2zM15.2 13.2v1.2h-2.4v-2.4h2.4v1.2zM19.2 13.2v1.2h-2.4v-2.4h2.4v1.2zM23.2 13.2v1.2h-2.4v-2.4h2.4v1.2zM11.2 17.2v1.2h-2.4v-2.4h2.4v1.2zM15.2 17.2v1.2h-2.4v-2.4h2.4v1.2zM19.2 17.2v1.2h-2.4v-2.4h2.4v1.2zM23.2 17.2v1.2h-2.4v-2.4h2.4v1.2zM11.2 21.2v1.2h-2.4v-2.4h2.4v1.2zM15.2 21.2v1.2h-2.4v-2.4h2.4v1.2zM19.2 21.2v1.2h-2.4v-2.4h2.4v1.2zM23.2 21.2v1.2h-2.4v-2.4h2.4v1.2zM11.2 25.2v1.2h-2.4v-2.4h2.4v1.2zM15.68 26.4v2.4h-2.88v-4.8h2.88v2.4zM19.2 26.4v2.4h-2.912v-4.8h2.912v2.4zM23.2 25.2v1.2h-2.4v-2.4h2.4v1.2z"></path>
</svg>
