<!-- Generated by IcoMoon.io -->
<svg version="1.1" xmlns="http://www.w3.org/2000/svg" width="32" height="32" viewBox="0 0 32 32">
<title>Apps</title>
<path fill="#ff7900" d="M5.206 4.048c-0.582 0.16-1.053 0.653-1.171 1.226-0.026 0.122-0.035 1.405-0.035 4.352 0 3.51 0.010 4.211 0.048 4.355 0.157 0.602 0.659 1.075 1.248 1.184 0.262 0.048 8.346 0.048 8.611 0 0.605-0.109 1.13-0.627 1.258-1.238 0.026-0.122 0.035-1.405 0.035-4.352 0-3.51-0.010-4.211-0.048-4.355-0.15-0.573-0.598-1.021-1.171-1.171-0.246-0.067-8.538-0.064-8.774 0z"></path>
<path fill="#ff7900" d="M18.026 4.045c-0.515 0.125-0.941 0.509-1.136 1.030l-0.074 0.189-0.006 4.272c-0.006 3.488 0 4.301 0.035 4.432 0.166 0.624 0.666 1.098 1.267 1.2 0.147 0.026 1.437 0.032 4.432 0.026l4.224-0.010 0.198-0.083c0.534-0.23 0.902-0.672 0.998-1.197 0.026-0.131 0.035-1.482 0.035-4.352 0-3.491-0.010-4.189-0.048-4.333-0.157-0.592-0.64-1.059-1.226-1.184-0.256-0.054-8.474-0.045-8.701 0.010z"></path>
<path fill="#ff7900" d="M5.226 16.845c-0.589 0.144-1.085 0.662-1.19 1.251-0.026 0.131-0.035 1.482-0.035 4.352 0 3.491 0.010 4.189 0.048 4.333 0.157 0.592 0.643 1.062 1.226 1.184 0.237 0.048 8.365 0.051 8.634 0 0.614-0.112 1.146-0.643 1.258-1.261 0.026-0.131 0.035-1.482 0.035-4.352 0-3.491-0.010-4.189-0.048-4.333-0.157-0.602-0.659-1.078-1.245-1.184-0.291-0.054-8.458-0.045-8.682 0.010z"></path>
<path fill="#ff7900" d="M18.006 16.848c-0.502 0.138-0.89 0.483-1.107 0.986l-0.083 0.198-0.010 4.256c-0.006 3.194 0 4.301 0.029 4.432 0.131 0.621 0.653 1.136 1.258 1.245 0.269 0.051 8.397 0.048 8.634 0 0.611-0.128 1.13-0.653 1.238-1.261 0.026-0.131 0.035-1.482 0.035-4.352 0-3.491-0.010-4.189-0.048-4.333-0.15-0.573-0.598-1.021-1.171-1.171-0.246-0.067-8.538-0.064-8.774 0z"></path>
</svg>
