<!-- Generated by IcoMoon.io -->
<svg version="1.1" xmlns="http://www.w3.org/2000/svg" width="32" height="32" viewBox="0 0 32 32">
<title>Apps_disabled</title>
<path fill="#ff7900" d="M15.136 15.136l-13.6 13.6 1.696 1.696 6.81-6.81c3.744-3.744 9.862-9.862 13.597-13.597l6.794-6.794-1.696-1.696-13.6 13.6z"></path>
<path fill="#ff7900" d="M5.206 4.048c-0.582 0.16-1.053 0.653-1.171 1.226-0.026 0.122-0.035 1.405-0.035 4.352 0 3.51 0.010 4.211 0.048 4.355 0.157 0.602 0.659 1.075 1.248 1.184 0.128 0.026 1.354 0.035 3.837 0.035h3.651l1.21-1.2 1.206-1.2v-3.706c0-3.094-0.010-3.731-0.048-3.875-0.15-0.573-0.598-1.021-1.171-1.171-0.246-0.067-8.538-0.064-8.774 0z"></path>
<path fill="#ff7900" d="M18.026 4.045c-0.589 0.144-1.085 0.662-1.19 1.248-0.022 0.128-0.035 1.136-0.035 3.050v2.858l3.53-3.533c1.939-1.942 3.555-3.562 3.587-3.6l0.061-0.067-2.893 0.003c-2.195 0-2.931 0.013-3.059 0.042z"></path>
<path fill="#ff7900" d="M24.394 11.6c-1.958 1.958-3.562 3.571-3.562 3.581 0 0.013 1.299 0.019 2.89 0.019 2.387 0 2.915-0.010 3.059-0.048 0.602-0.157 1.078-0.659 1.184-1.245 0.042-0.221 0.051-5.875 0.013-5.872-0.016 0-1.629 1.606-3.584 3.565z"></path>
<path fill="#ff7900" d="M5.226 16.845c-0.589 0.144-1.085 0.662-1.19 1.248-0.022 0.128-0.035 1.136-0.035 3.050v2.858l3.584-3.587c1.971-1.974 3.584-3.594 3.584-3.6s-1.299-0.013-2.886-0.010c-2.195 0-2.928 0.013-3.056 0.042z"></path>
<path fill="#ff7900" d="M18.010 18.003l-1.21 1.2v3.677c0 2.56 0.010 3.728 0.035 3.846 0.128 0.611 0.653 1.13 1.258 1.238 0.269 0.051 8.397 0.048 8.634 0 0.611-0.128 1.13-0.653 1.238-1.258 0.026-0.131 0.035-1.501 0.035-4.352 0-4.525 0.006-4.301-0.179-4.688-0.115-0.234-0.454-0.573-0.688-0.688-0.384-0.186-0.208-0.179-4.221-0.179h-3.696l-1.206 1.203z"></path>
<path fill="#ff7900" d="M11.594 24.4c-1.958 1.958-3.562 3.571-3.562 3.581 0 0.035 5.677 0.019 5.875-0.016 0.614-0.112 1.146-0.643 1.258-1.258 0.042-0.221 0.051-5.875 0.013-5.872-0.016 0-1.629 1.603-3.584 3.565z"></path>
</svg>
