<!-- Generated by IcoMoon.io -->
<svg version="1.1" xmlns="http://www.w3.org/2000/svg" width="32" height="32" viewBox="0 0 32 32">
<title>Archive</title>
<path fill="#ff7900" d="M4.003 14.934c0.003 11.987-0.013 11.126 0.189 11.6 0.285 0.666 0.861 1.174 1.584 1.392 0.182 0.054 0.704 0.058 11.21 0.064l11.014 0.010v-10.906c0-7.619-0.010-10.963-0.035-11.098-0.179-0.989-0.912-1.741-1.901-1.949-0.195-0.042-1.645-0.048-11.146-0.048h-10.918l0.003 10.934zM24.518 6.486c0.55 0.211 0.947 0.666 1.046 1.206 0.048 0.266 0.048 5.997 0 6.234-0.125 0.598-0.64 1.114-1.238 1.238-0.24 0.051-16.413 0.051-16.653 0-0.589-0.122-1.069-0.589-1.229-1.19-0.058-0.218-0.067-5.971-0.010-6.278 0.106-0.576 0.582-1.085 1.171-1.248 0.125-0.035 1.635-0.042 8.442-0.038l8.288 0.006 0.182 0.070zM24.326 16.835c0.531 0.112 0.982 0.506 1.184 1.040l0.074 0.189 0.010 3.024c0.006 2.166 0 3.078-0.026 3.216-0.115 0.598-0.582 1.088-1.194 1.251-0.138 0.035-1.52 0.045-8.326 0.045-5.744 0-8.221-0.010-8.352-0.035-0.621-0.112-1.146-0.637-1.261-1.261-0.045-0.246-0.048-5.981-0.003-6.224 0.109-0.566 0.618-1.094 1.194-1.235 0.227-0.054 16.442-0.064 16.701-0.010z"></path>
<path fill="#ff7900" d="M7.718 7.254c-0.074 0.026-0.198 0.109-0.275 0.189-0.256 0.256-0.243 0.070-0.243 3.36 0 3.171-0.006 3.056 0.179 3.299 0.042 0.058 0.147 0.144 0.23 0.192l0.15 0.090 8.176 0.010c9.184 0.010 8.362 0.029 8.627-0.234 0.246-0.25 0.237-0.099 0.237-3.376s0.013-3.098-0.246-3.347c-0.266-0.259 0.538-0.237-8.566-0.234-7.158 0-8.147 0.006-8.269 0.051zM17.853 9.651c0.221 0.064 0.422 0.262 0.496 0.486 0.048 0.138 0.054 0.262 0.045 0.736-0.010 0.547-0.013 0.57-0.096 0.714-0.048 0.080-0.138 0.186-0.198 0.234-0.237 0.179-0.23 0.179-2.096 0.179-1.946 0-1.923 0.003-2.163-0.24-0.202-0.202-0.24-0.349-0.24-0.944 0-0.554 0.032-0.72 0.176-0.909 0.093-0.122 0.25-0.234 0.394-0.275 0.048-0.016 0.858-0.029 1.802-0.029 1.469-0.003 1.738 0.003 1.882 0.048z"></path>
<path fill="#ff7900" d="M7.776 17.629c-0.243 0.074-0.442 0.269-0.528 0.518-0.074 0.202-0.070 5.907 0 6.112 0.067 0.192 0.186 0.333 0.362 0.435l0.15 0.090 8.176 0.010c9.155 0.010 8.352 0.029 8.618-0.23 0.259-0.25 0.246-0.067 0.246-3.366 0-3.171 0.006-3.056-0.179-3.299-0.042-0.058-0.147-0.144-0.23-0.192l-0.15-0.090-8.192-0.006c-4.506-0.003-8.227 0.006-8.272 0.019zM17.859 20.048c0.192 0.067 0.333 0.186 0.435 0.362l0.090 0.15v1.28l-0.090 0.154c-0.106 0.179-0.285 0.317-0.477 0.371-0.099 0.029-0.611 0.035-1.898 0.029-1.965-0.010-1.837 0.003-2.090-0.246-0.195-0.192-0.23-0.339-0.23-0.947s0.035-0.746 0.237-0.957c0.237-0.243 0.195-0.237 2.15-0.24 1.472-0.003 1.754 0.003 1.872 0.045z"></path>
</svg>
