<!-- Generated by IcoMoon.io -->
<svg version="1.1" xmlns="http://www.w3.org/2000/svg" width="26" height="32" viewBox="0 0 26 32">
<title>arrow_up</title>
<path fill="#ff7900" d="M12.756 8.022c-0.006 0.019-0.342 0.429-0.749 0.909-0.403 0.48-1.050 1.248-1.437 1.706-0.384 0.461-0.742 0.886-0.8 0.95-0.054 0.064-0.272 0.323-0.483 0.573-0.211 0.253-0.512 0.611-0.672 0.8-0.157 0.186-0.349 0.41-0.422 0.496-0.317 0.381-4.48 5.328-4.602 5.472-0.502 0.592-0.784 0.925-1.376 1.632-0.368 0.438-0.685 0.816-0.704 0.835-0.016 0.019-0.205 0.24-0.416 0.493s-0.544 0.646-0.739 0.877l-0.355 0.419 6.394 0.010c3.52 0.003 9.274 0.003 12.79 0l6.397-0.010-0.435-0.515c-0.438-0.518-0.65-0.768-2.262-2.685-0.49-0.582-1.034-1.229-1.213-1.44s-0.723-0.861-1.213-1.44c-0.49-0.582-0.95-1.13-1.024-1.216-0.077-0.090-0.294-0.349-0.483-0.576-0.192-0.23-0.416-0.496-0.499-0.592s-0.557-0.659-1.053-1.248c-0.496-0.589-1.158-1.376-1.469-1.744-0.314-0.371-0.954-1.133-1.427-1.696-1.37-1.629-1.475-1.75-1.606-1.904-0.070-0.077-0.134-0.125-0.141-0.106z"></path>
</svg>
