<!-- Generated by IcoMoon.io -->
<svg version="1.1" xmlns="http://www.w3.org/2000/svg" width="32" height="32" viewBox="0 0 32 32">
<title>Art</title>
<path fill="#ff7900" d="M4.112 5.622c-0.714 0.093-1.366 0.64-1.6 1.334-0.358 1.066 0.23 2.221 1.296 2.55l0.176 0.054 0.010 1.267 0.006 1.264-0.086 0.048c-0.192 0.106-0.416 0.368-0.534 0.63-0.182 0.394-0.179 0.352-0.17 3.309 0.010 3.014-0.003 2.829 0.221 3.254 0.102 0.192 0.339 0.451 0.483 0.525l0.086 0.048-0.006 1.267-0.010 1.27-0.144 0.042c-0.669 0.189-1.2 0.746-1.376 1.44-0.266 1.056 0.387 2.134 1.459 2.41 1.005 0.259 2.074-0.346 2.384-1.344l0.054-0.176 1.261-0.010 1.264-0.006 0.083 0.125c0.198 0.301 0.576 0.538 0.998 0.627 0.342 0.070 11.322 0.070 11.67 0 0.426-0.086 0.806-0.326 1.011-0.634l0.080-0.118 1.456 0.006 1.453 0.010 0.058 0.182c0.115 0.378 0.384 0.762 0.685 0.982 0.41 0.304 0.848 0.438 1.331 0.41 0.355-0.022 0.435-0.045 0.8-0.224 0.797-0.394 1.226-1.296 1.040-2.182-0.144-0.688-0.685-1.283-1.36-1.491l-0.176-0.054-0.010-1.267-0.006-1.264 0.086-0.048c0.16-0.083 0.397-0.352 0.509-0.579 0.211-0.429 0.208-0.397 0.198-3.389-0.013-2.979 0-2.8-0.221-3.222-0.106-0.192-0.342-0.458-0.486-0.528l-0.086-0.048 0.006-1.264 0.010-1.267 0.176-0.054c0.877-0.272 1.462-1.13 1.398-2.051-0.061-0.838-0.637-1.542-1.459-1.779-1.014-0.291-2.122 0.314-2.438 1.331l-0.054 0.176-1.459 0.010-1.456 0.006-0.048-0.086c-0.083-0.16-0.352-0.397-0.579-0.509-0.438-0.214-0.083-0.205-6.307-0.205-5.462 0-5.645 0.003-5.878 0.061-0.442 0.115-0.81 0.362-0.97 0.653l-0.048 0.086-1.264-0.006-1.264-0.010-0.080-0.234c-0.301-0.896-1.216-1.456-2.173-1.328zM26.4 16v7.2h-20.8v-14.4h20.8v7.2z"></path>
<path fill="#ff7900" d="M9.12 9.616c-0.358 0.070-0.608 0.173-0.89 0.365-1.072 0.726-1.376 2.154-0.694 3.254 0.589 0.947 1.757 1.36 2.816 0.998 0.758-0.259 1.318-0.874 1.555-1.706 0.067-0.237 0.058-0.906-0.013-1.165-0.346-1.229-1.549-1.987-2.774-1.747z"></path>
<path fill="#ff7900" d="M19.386 13.994c-0.064 0.038-0.221 0.198-0.349 0.358-0.595 0.739-1.286 1.558-1.802 2.141-0.678 0.768-0.918 1.037-1.235 1.379-0.115 0.125-0.365 0.397-0.56 0.608-0.192 0.211-0.502 0.541-0.688 0.736-0.182 0.192-0.349 0.368-0.368 0.387-0.23 0.256-0.608 0.618-0.624 0.598-0.013-0.013-0.15-0.176-0.304-0.362-0.157-0.186-0.294-0.342-0.304-0.352s-0.246-0.275-0.531-0.592c-1.315-1.478-1.84-2.074-2.086-2.358-0.301-0.352-0.422-0.442-0.605-0.442-0.221 0-0.301 0.074-2.134 1.984-0.227 0.237-0.634 0.656-0.902 0.931l-0.493 0.496v2.893h19.2v-1.005c0-0.55-0.010-1.046-0.019-1.094-0.010-0.051-0.077-0.16-0.15-0.24s-0.266-0.291-0.426-0.464c-0.16-0.173-0.432-0.477-0.605-0.669-0.173-0.195-0.358-0.403-0.413-0.464s-0.365-0.416-0.691-0.784c-0.47-0.538-1.248-1.411-1.424-1.603-0.227-0.25-0.662-0.717-0.758-0.822-0.448-0.483-1.21-1.222-1.312-1.274-0.157-0.080-0.272-0.077-0.416 0.013z"></path>
</svg>
