<!-- Generated by IcoMoon.io -->
<svg version="1.1" xmlns="http://www.w3.org/2000/svg" width="32" height="32" viewBox="0 0 32 32">
<title>assistance</title>
<path fill="#ff7900" d="M15.261 2.413c-0.006 0.006-0.15 0.019-0.317 0.032-0.285 0.019-1.165 0.128-1.344 0.163-0.045 0.010-0.115 0.022-0.157 0.032-0.218 0.042-0.944 0.214-1.139 0.275-0.122 0.035-0.317 0.093-0.432 0.125-0.205 0.061-0.851 0.291-0.976 0.352-0.035 0.016-0.157 0.067-0.272 0.115-0.477 0.192-1.382 0.672-1.888 0.998-0.618 0.397-0.746 0.49-1.213 0.864-2 1.606-3.488 3.69-4.346 6.086-0.24 0.672-0.493 1.645-0.586 2.256-0.077 0.499-0.093 0.621-0.112 0.832-0.013 0.122-0.029 0.266-0.038 0.32-0.029 0.182-0.035 1.795-0.010 2.112 0.032 0.368 0.096 0.963 0.115 1.056 0.010 0.035 0.045 0.23 0.080 0.432 0.301 1.718 1.008 3.485 2.006 5.002 0.115 0.179 0.224 0.339 0.237 0.358 0.016 0.016 0.070 0.090 0.122 0.16s0.141 0.192 0.198 0.269c0.23 0.307 0.893 1.059 1.226 1.389 1.616 1.606 3.491 2.717 5.76 3.411 0.304 0.096 1.040 0.266 1.424 0.336 0.822 0.144 1.44 0.195 2.4 0.195 0.762 0 1.379-0.035 1.728-0.096 0.045-0.006 0.16-0.022 0.256-0.032 0.365-0.042 1.053-0.192 1.664-0.358 2.554-0.698 4.886-2.176 6.634-4.202 1.082-1.254 1.878-2.598 2.467-4.15 0.138-0.365 0.378-1.13 0.435-1.386 0.189-0.848 0.304-1.494 0.339-1.92 0.010-0.131 0.026-0.275 0.035-0.32 0.029-0.144 0.035-1.798 0.006-2.112-0.038-0.435-0.093-0.918-0.125-1.104-0.016-0.090-0.045-0.253-0.064-0.368-0.237-1.411-0.896-3.178-1.67-4.458-0.63-1.046-1.293-1.894-2.141-2.739-1.6-1.594-3.68-2.813-5.821-3.414-0.592-0.163-1.427-0.342-1.808-0.384-0.070-0.006-0.157-0.019-0.192-0.026-0.035-0.010-0.157-0.022-0.272-0.035-0.115-0.010-0.272-0.026-0.352-0.035-0.163-0.019-1.843-0.048-1.859-0.032zM16.88 7.405c0.054 0.010 0.16 0.026 0.24 0.035 1.178 0.157 2.192 0.589 2.998 1.27 0.358 0.304 0.573 0.547 0.822 0.931 0.294 0.454 0.458 0.819 0.586 1.318 0.064 0.262 0.083 0.416 0.093 0.848 0.019 0.925-0.134 1.482-0.624 2.224-0.352 0.538-0.678 0.87-2.019 2.080-1.149 1.037-1.411 1.318-1.619 1.76-0.093 0.195-0.208 0.573-0.253 0.816-0.048 0.272-0.186 0.73-0.259 0.861-0.157 0.291-0.467 0.531-0.765 0.598-0.186 0.038-0.586 0.042-0.758 0-0.355-0.083-0.723-0.362-0.87-0.653-0.138-0.282-0.163-0.438-0.16-0.998 0.003-0.448 0.016-0.582 0.086-0.89 0.125-0.538 0.374-1.078 0.71-1.526 0.275-0.365 0.902-0.979 1.968-1.92 0.586-0.518 0.858-0.803 1.085-1.139 0.275-0.403 0.339-0.621 0.339-1.117 0-0.362-0.010-0.426-0.093-0.65-0.349-0.947-1.258-1.507-2.397-1.475-0.803 0.026-1.344 0.214-1.738 0.611-0.352 0.358-0.678 0.928-0.941 1.642-0.221 0.608-0.291 0.765-0.432 0.957-0.262 0.355-0.605 0.541-1.037 0.563-0.461 0.026-0.832-0.115-1.149-0.429-0.323-0.323-0.454-0.627-0.454-1.053 0-0.246 0.064-0.685 0.131-0.899 0.090-0.294 0.243-0.675 0.339-0.845 0.058-0.106 0.106-0.195 0.106-0.202 0-0.010 0.074-0.125 0.163-0.259 0.938-1.386 2.49-2.272 4.317-2.454 0.355-0.038 1.389-0.042 1.584-0.006zM16.301 21.293c0.208 0.061 0.381 0.157 0.589 0.326 0.413 0.33 0.624 0.819 0.602 1.389-0.019 0.493-0.15 0.81-0.467 1.12-0.57 0.563-1.44 0.666-2.16 0.256-0.218-0.125-0.49-0.397-0.602-0.598-0.182-0.339-0.246-0.95-0.134-1.334 0.182-0.63 0.771-1.126 1.44-1.213 0.182-0.022 0.56 0.006 0.733 0.054z"></path>
</svg>
