<!-- Generated by IcoMoon.io -->
<svg version="1.1" xmlns="http://www.w3.org/2000/svg" width="32" height="32" viewBox="0 0 32 32">
<title>attachment</title>
<path fill="#ff7900" d="M17.504 1.619c-0.045 0.010-0.224 0.035-0.4 0.064-1.030 0.163-1.974 0.659-2.771 1.453-0.752 0.752-1.206 1.59-1.443 2.672l-0.070 0.32-0.010 8.688c-0.010 9.363-0.016 8.835 0.15 9.379 0.179 0.576 0.602 1.171 1.098 1.542 1.302 0.976 3.056 0.861 4.202-0.278 0.483-0.483 0.813-1.139 0.906-1.795 0.045-0.33 0.045-10.122 0-10.368-0.109-0.598-0.576-1.088-1.19-1.251-0.109-0.029-0.346-0.045-0.669-0.045h-0.506v5.661c0 6.17 0.013 5.786-0.179 6.038-0.048 0.061-0.154 0.15-0.234 0.198-0.125 0.074-0.186 0.086-0.387 0.086s-0.262-0.013-0.387-0.086c-0.080-0.048-0.186-0.138-0.234-0.202-0.192-0.253-0.182 0.39-0.173-8.88l0.010-8.496 0.090-0.288c0.298-0.95 0.995-1.645 1.926-1.92 0.477-0.141 1.133-0.134 1.6 0.016 0.557 0.179 1.072 0.547 1.418 1.018 0.202 0.275 0.336 0.541 0.445 0.893l0.090 0.282 0.006 8.624c0.006 9.533 0.019 8.909-0.205 9.658-0.461 1.562-1.786 2.835-3.37 3.238-0.15 0.038-0.301 0.077-0.336 0.083-0.397 0.080-1.309 0.080-1.738 0-1.638-0.298-3.018-1.443-3.622-3.002-0.115-0.301-0.246-0.803-0.272-1.066-0.013-0.106-0.026-0.237-0.032-0.288-0.006-0.054-0.013-2.678-0.013-5.837l-0.003-5.738-0.582 0.016c-0.531 0.013-0.605 0.022-0.784 0.096-0.518 0.211-0.89 0.646-1.002 1.174-0.026 0.131-0.032 1.51-0.026 5.424 0.006 2.886 0.019 5.277 0.032 5.312 0.010 0.035 0.029 0.144 0.042 0.24 0.080 0.624 0.333 1.44 0.653 2.096 0.854 1.747 2.358 3.062 4.195 3.677 0.826 0.272 1.373 0.355 2.32 0.352 0.605-0.003 0.768-0.016 1.168-0.086 3.184-0.566 5.53-3.046 5.936-6.278 0.070-0.538 0.067-17.491-0.003-17.936-0.106-0.701-0.342-1.376-0.672-1.93-0.314-0.518-0.819-1.094-1.277-1.45-0.637-0.493-1.357-0.822-2.157-0.992-0.291-0.064-0.49-0.083-0.915-0.090-0.298-0.006-0.579-0.006-0.624 0z"></path>
</svg>
