<!-- Generated by IcoMoon.io -->
<svg version="1.1" xmlns="http://www.w3.org/2000/svg" width="32" height="32" viewBox="0 0 32 32">
<title>Auditorium</title>
<path fill="#ff7900" d="M2.4 11.2v8h2.819l-0.173-0.218c-0.298-0.374-0.602-0.902-0.73-1.264-0.038-0.112-0.048-0.118-0.179-0.118h-0.138v-12.8h24v12.8h-0.272l-0.093 0.234c-0.16 0.4-0.429 0.842-0.733 1.213l-0.125 0.154h2.822v-16h-27.2v8z"></path>
<path fill="#ff7900" d="M8.24 12.003c-1.683 0.243-3.043 1.549-3.379 3.245-0.058 0.282-0.058 1.178 0 1.44 0.182 0.861 0.525 1.498 1.123 2.096 0.582 0.582 1.222 0.931 2.022 1.107 0.31 0.067 1.050 0.080 1.418 0.026 0.79-0.122 1.533-0.49 2.131-1.062 0.317-0.301 0.371-0.374 0.32-0.432-0.016-0.022-0.096-0.17-0.176-0.326-0.707-1.418-0.653-3.13 0.141-4.525 0.061-0.106 0.061-0.112 0-0.192-0.109-0.157-0.557-0.563-0.787-0.717-0.445-0.294-0.934-0.499-1.469-0.621-0.256-0.058-1.053-0.080-1.344-0.038z"></path>
<path fill="#ff7900" d="M15.475 12.003c-1.354 0.186-2.506 1.030-3.098 2.269-0.115 0.243-0.272 0.72-0.32 0.982-0.042 0.218-0.054 1.155-0.019 1.338 0.048 0.25 0.166 0.656 0.24 0.832 0.15 0.358 0.195 0.448 0.358 0.698 0.221 0.339 0.202 0.314 0.563 0.678 0.576 0.579 1.21 0.918 2.032 1.094 0.202 0.042 0.406 0.054 0.8 0.054 0.454-0.003 0.576-0.016 0.864-0.086 0.726-0.176 1.312-0.49 1.827-0.976 0.867-0.816 1.286-1.824 1.261-3.030-0.016-0.79-0.211-1.418-0.65-2.090-0.586-0.902-1.549-1.53-2.678-1.75-0.182-0.035-0.96-0.045-1.181-0.013z"></path>
<path fill="#ff7900" d="M22.57 12.019c-0.81 0.125-1.539 0.496-2.163 1.098l-0.317 0.307 0.16 0.32c0.4 0.784 0.534 1.357 0.531 2.224 0 0.643-0.051 0.97-0.224 1.498-0.096 0.301-0.349 0.854-0.435 0.957-0.048 0.058 0.010 0.134 0.323 0.432 0.79 0.755 1.722 1.117 2.826 1.098 1.088-0.016 1.981-0.397 2.746-1.165 0.819-0.822 1.2-1.779 1.168-2.931-0.026-1.069-0.403-1.942-1.165-2.707-0.576-0.576-1.226-0.928-2.022-1.104-0.323-0.070-1.053-0.083-1.427-0.026z"></path>
<path fill="#ff7900" d="M4.934 19.872c-1.184 0.646-2.051 1.747-2.378 3.021-0.144 0.563-0.15 0.685-0.154 3.171-0.003 1.93 0.006 2.4 0.042 2.534 0.093 0.352 0.358 0.688 0.666 0.845s0.272 0.157 3.299 0.157c1.562 0 2.838-0.006 2.838-0.013 0-0.010-0.045-0.080-0.096-0.16-0.144-0.214-0.246-0.464-0.304-0.746-0.045-0.224-0.051-0.554-0.038-2.733 0.006-1.363 0.022-2.541 0.035-2.621 0.118-0.749 0.406-1.536 0.79-2.163l0.128-0.208-0.17 0.019c-0.093 0.013-0.205 0.029-0.25 0.035s-0.294 0.013-0.56 0.013c-1.219 0.006-2.416-0.4-3.382-1.139-0.099-0.077-0.192-0.141-0.208-0.141-0.013 0-0.131 0.058-0.259 0.128z"></path>
<path fill="#ff7900" d="M26.672 19.824c-0.694 0.576-1.699 1.008-2.672 1.152-0.304 0.045-1.165 0.070-1.328 0.038-0.035-0.010-0.147-0.026-0.25-0.038l-0.186-0.022 0.134 0.221c0.403 0.653 0.701 1.501 0.784 2.24 0.010 0.102 0.026 0.214 0.029 0.25s0.010 1.386 0.013 2.998l0.003 2.938h6.403l-0.013-3.050c-0.006-1.674-0.022-3.098-0.035-3.158s-0.045-0.211-0.070-0.33c-0.205-0.986-0.806-1.971-1.616-2.646-0.314-0.262-0.976-0.675-1.075-0.672-0.013 0.003-0.067 0.038-0.122 0.080z"></path>
<path fill="#ff7900" d="M12.24 19.843c-0.573 0.298-1.194 0.8-1.594 1.293-0.442 0.547-0.787 1.29-0.957 2.064-0.074 0.336-0.074 0.339-0.074 2.864v2.528l0.102 0.218c0.118 0.246 0.371 0.522 0.589 0.63 0.32 0.166 0.048 0.16 6.278 0.16h5.814v-2.954c-0.003-2.771-0.006-2.973-0.067-3.302-0.173-0.989-0.659-1.93-1.35-2.618-0.314-0.31-0.845-0.691-1.21-0.87l-0.176-0.086-0.288 0.211c-1.094 0.806-2.499 1.194-3.882 1.059-0.96-0.093-2.042-0.522-2.819-1.12-0.102-0.080-0.198-0.144-0.214-0.144-0.013 0.003-0.083 0.032-0.154 0.067z"></path>
</svg>
