<!-- Generated by IcoMoon.io -->
<svg version="1.1" xmlns="http://www.w3.org/2000/svg" width="32" height="32" viewBox="0 0 32 32">
<title>avatar</title>
<path fill="#ff7900" d="M15.456 2.419c-2.195 0.23-4.010 1.578-4.822 3.581-0.186 0.451-0.307 0.89-0.352 1.264-0.010 0.080-0.029 0.208-0.042 0.288-0.029 0.154-0.019 1.178 0.016 1.392 0.118 0.784 0.438 1.661 0.835 2.282 0.349 0.541 0.845 1.091 1.341 1.478 1.629 1.277 3.866 1.568 5.776 0.758 1.907-0.81 3.238-2.579 3.478-4.63 0.045-0.381 0.026-1.238-0.035-1.597-0.163-0.944-0.531-1.808-1.088-2.547-0.23-0.301-0.787-0.87-1.059-1.078-0.826-0.627-1.802-1.030-2.794-1.162-0.285-0.035-1.018-0.054-1.254-0.029z"></path>
<path fill="#ff7900" d="M10.704 13.638c-0.582 0.365-1.069 0.746-1.485 1.174-1.11 1.146-1.795 2.573-2.003 4.195-0.035 0.269-0.042 1.085-0.035 4.112 0.006 3.478 0.010 3.792 0.061 3.984 0.086 0.314 0.182 0.573 0.285 0.765 0.477 0.883 1.229 1.45 2.202 1.664 0.304 0.064 0.333 0.064 7.674 0.067h7.37l-0.013-5.254c-0.003-2.893-0.019-5.293-0.029-5.338-0.013-0.045-0.038-0.189-0.058-0.32-0.166-1.133-0.71-2.368-1.462-3.318-0.416-0.528-0.998-1.075-1.539-1.443-0.326-0.224-0.605-0.39-0.65-0.39-0.016 0-0.086 0.051-0.154 0.112-0.813 0.752-1.958 1.36-3.101 1.645-0.643 0.163-1.014 0.208-1.718 0.208-0.867 0.003-1.363-0.058-2.077-0.256-0.688-0.192-1.581-0.605-2.083-0.957-0.307-0.218-0.608-0.451-0.762-0.592-0.096-0.086-0.195-0.16-0.218-0.157-0.026 0-0.115 0.045-0.205 0.099z"></path>
</svg>
