<!-- Generated by IcoMoon.io -->
<svg version="1.1" xmlns="http://www.w3.org/2000/svg" width="32" height="32" viewBox="0 0 32 32">
<title>Baby</title>
<path fill="#ff7900" d="M15.408 1.648c-1.52 0.243-2.739 1.277-3.21 2.72-0.381 1.162-0.205 2.41 0.49 3.472 0.195 0.301 0.758 0.864 1.059 1.062 0.477 0.317 1.030 0.544 1.549 0.637 0.355 0.064 1.139 0.058 1.472-0.013 0.55-0.118 1.104-0.355 1.53-0.653 0.314-0.221 0.829-0.752 1.034-1.066 0.467-0.714 0.669-1.414 0.653-2.272-0.016-1.094-0.394-1.987-1.165-2.752-0.598-0.595-1.222-0.931-2.035-1.107-0.326-0.067-1.037-0.083-1.376-0.029z"></path>
<path fill="#ff7900" d="M12.624 10.416c-0.016 0.006-0.141 0.035-0.272 0.064-0.278 0.064-0.688 0.259-0.896 0.426-0.080 0.061-0.346 0.32-0.592 0.57s-1.123 1.142-1.952 1.984c-3.203 3.251-3.011 3.050-3.139 3.328-0.506 1.091 0.202 2.323 1.379 2.403 0.288 0.019 0.554-0.035 0.848-0.173 0.186-0.086 0.678-0.57 3.034-2.97l0.966-0.989v3.341h8v-3.344l0.467 0.48c2.166 2.221 3.258 3.306 3.411 3.402 0.294 0.176 0.515 0.24 0.858 0.24 0.371 0.003 0.602-0.061 0.883-0.237 0.774-0.49 1.008-1.514 0.525-2.304-0.074-0.125-0.566-0.65-1.44-1.536-0.73-0.746-1.709-1.741-2.176-2.214-1.917-1.949-1.952-1.981-2.224-2.141-0.141-0.080-0.378-0.189-0.528-0.237l-0.272-0.093-3.424-0.006c-1.882-0.003-3.437 0-3.456 0.006z"></path>
<path fill="#ff7900" d="M11.405 20.154c-0.243 0.224-1.094 1.030-1.494 1.414-0.63 0.608-0.922 1.107-1.062 1.824-0.058 0.307-0.045 0.896 0.032 1.216 0.122 0.515 0.438 1.085 0.806 1.456 0.202 0.202 0.31 0.307 1.242 1.184 0.317 0.298 0.685 0.643 0.816 0.768s0.378 0.358 0.544 0.515c0.166 0.16 0.435 0.41 0.592 0.56 0.173 0.163 0.362 0.31 0.47 0.362 0.656 0.32 1.421 0.077 1.728-0.55 0.096-0.195 0.106-0.24 0.106-0.502-0.003-0.253-0.013-0.31-0.093-0.464-0.112-0.218-0.154-0.266-0.531-0.624-0.166-0.157-0.458-0.429-0.643-0.608-0.186-0.176-0.451-0.426-0.592-0.557-0.746-0.698-0.781-0.746-0.806-1.053-0.022-0.246 0.058-0.422 0.294-0.659 0.109-0.106 0.442-0.426 0.739-0.707 0.301-0.282 0.643-0.605 0.762-0.72l0.221-0.208-0.221-0.205c-0.118-0.112-0.426-0.4-0.682-0.643s-0.515-0.486-0.576-0.544c-0.061-0.054-0.227-0.211-0.368-0.346-0.227-0.214-0.403-0.384-0.992-0.938l-0.128-0.122-0.163 0.15z"></path>
<path fill="#ff7900" d="M20.208 20.214c-0.122 0.115-0.432 0.41-0.688 0.65-0.256 0.243-0.522 0.493-0.592 0.56-0.070 0.064-0.33 0.31-0.576 0.541-0.246 0.234-0.547 0.518-0.666 0.63l-0.221 0.205 0.509 0.48c0.278 0.262 0.621 0.589 0.762 0.723s0.333 0.314 0.422 0.397c0.291 0.269 0.387 0.56 0.291 0.893-0.029 0.102-0.115 0.208-0.378 0.467-0.285 0.282-0.928 0.896-1.325 1.261-0.816 0.755-0.931 0.928-0.931 1.395 0 0.227 0.013 0.301 0.086 0.454 0.304 0.653 1.094 0.912 1.763 0.579 0.125-0.061 0.71-0.582 1.27-1.13 0.048-0.045 0.208-0.198 0.362-0.342s0.4-0.374 0.544-0.512c1.571-1.482 1.632-1.542 1.83-1.837 0.33-0.493 0.496-1.008 0.515-1.597 0.016-0.573-0.064-0.95-0.31-1.456-0.23-0.47-0.365-0.618-1.85-2.016-0.166-0.16-0.333-0.317-0.371-0.352-0.035-0.035-0.102-0.096-0.144-0.134l-0.080-0.070-0.224 0.211z"></path>
</svg>
