<!-- Generated by IcoMoon.io -->
<svg version="1.1" xmlns="http://www.w3.org/2000/svg" width="32" height="32" viewBox="0 0 32 32">
<title>backup</title>
<path fill="#ff7900" d="M5.603 12.55l0.003 10.154 0.070 0.272c0.182 0.707 0.614 1.248 1.248 1.562 0.515 0.256 0.326 0.243 3.261 0.253l2.614 0.013v1.542c0.003 0.848 0.010 1.6 0.019 1.67 0.102 0.771 0.557 1.338 1.222 1.517 0.24 0.064 0.317 0.067 2.010 0.067 1.894 0 1.949-0.006 2.234-0.173 0.278-0.163 0.608-0.534 0.742-0.842 0.157-0.346 0.17-0.538 0.173-2.227v-1.558h7.2v-10.138c0-9.155-0.006-10.157-0.051-10.358-0.214-0.934-0.915-1.638-1.827-1.84-0.275-0.061-0.502-0.064-9.603-0.064h-9.318l0.003 10.15zM23.581 4.048c0.573 0.15 1.021 0.598 1.171 1.171 0.042 0.147 0.048 1.462 0.048 9.075v8.906h-4.016l-0.374-0.384c-0.208-0.211-0.378-0.39-0.378-0.4s0.893-0.016 1.984-0.016h1.984v-17.6h-16v17.6l3.965 0.016-0.384 0.394-0.384 0.39h-1.286c-1.421 0-1.498-0.010-1.856-0.198-0.397-0.211-0.726-0.659-0.819-1.107-0.026-0.122-0.035-2.726-0.035-9.034v-8.861h8.106c6.909 0 8.128 0.006 8.275 0.048zM16.477 8.883c0.563 0.134 1.059 0.531 1.309 1.037 0.17 0.342 0.234 0.634 0.214 0.992-0.016 0.326-0.070 0.528-0.208 0.813-0.125 0.25-0.442 0.608-0.672 0.755-0.086 0.058-0.16 0.112-0.16 0.125 0 0.010 0.035 0.262 0.080 0.563 0.106 0.698 0.099 0.662 0.141 0.944 0.045 0.32 0.224 1.523 0.243 1.648 0.042 0.246 0.048 0.301 0.067 0.48 0.013 0.106 0.026 0.202 0.032 0.211 0.006 0.013 0.019 0.093 0.032 0.186l0.019 0.163h-1.587c-0.906 0-1.587-0.013-1.587-0.029s0.019-0.141 0.045-0.278c0.026-0.141 0.054-0.323 0.067-0.406 0.010-0.086 0.061-0.41 0.112-0.72s0.128-0.79 0.173-1.062c0.045-0.272 0.125-0.765 0.179-1.094 0.051-0.326 0.096-0.605 0.096-0.611 0-0.010-0.067-0.061-0.15-0.112-0.56-0.362-0.906-0.998-0.906-1.667 0-0.544 0.192-0.998 0.592-1.398 0.275-0.275 0.518-0.422 0.89-0.528 0.253-0.074 0.704-0.077 0.979-0.010zM16.528 19.789c0.166 0.077 0.349 0.25 1.338 1.248 0.63 0.634 1.542 1.552 2.026 2.038s0.877 0.896 0.877 0.906c0 0.010-0.531 0.019-1.184 0.019h-1.181l-0.010 2.070c-0.013 2.342-0.003 2.262-0.262 2.522-0.214 0.214-0.202 0.211-2.179 0.202-1.731-0.010-1.763-0.010-1.888-0.080-0.214-0.115-0.342-0.291-0.416-0.576-0.042-0.154-0.048-0.509-0.048-2.16v-1.978h-2.4l0.154-0.147c0.083-0.080 0.669-0.653 1.299-1.274 0.63-0.618 1.245-1.216 1.36-1.328s0.48-0.467 0.81-0.79c0.73-0.714 0.842-0.784 1.274-0.771 0.189 0.006 0.282 0.026 0.432 0.099z"></path>
</svg>
