<!-- Generated by IcoMoon.io -->
<svg version="1.1" xmlns="http://www.w3.org/2000/svg" width="32" height="32" viewBox="0 0 32 32">
<title>banking</title>
<path fill="#ff7900" d="M15.824 4.88c-0.179 0.086-0.646 0.301-0.912 0.422-0.096 0.045-0.326 0.15-0.506 0.237-0.182 0.086-0.336 0.157-0.342 0.157-0.003 0-0.157 0.070-0.339 0.157-0.182 0.083-0.621 0.288-0.973 0.451s-0.749 0.346-0.88 0.406c-0.131 0.061-0.32 0.147-0.416 0.192s-0.285 0.131-0.416 0.195c-0.131 0.061-0.326 0.15-0.432 0.198-0.211 0.096-0.288 0.131-1.28 0.592-0.368 0.17-0.781 0.362-0.912 0.422s-0.461 0.211-0.73 0.336l-0.486 0.227v1.526h-4.8v1.6h0.8v13.6h-0.8v0.8h-0.8v0.8h28.8v-0.8h-0.8v-0.8h-0.8v-13.6h0.8v-1.6h-4.8v-1.526l-0.262-0.122c-0.147-0.067-0.48-0.224-0.746-0.346-0.262-0.122-0.63-0.291-0.813-0.378s-0.336-0.157-0.342-0.157c-0.006 0-0.192-0.086-0.416-0.192-0.221-0.106-0.406-0.192-0.413-0.192-0.010 0-0.65-0.298-1.328-0.614-0.25-0.118-0.346-0.16-1.472-0.682-0.483-0.224-0.979-0.454-1.104-0.512-0.192-0.093-0.474-0.221-1.706-0.787-0.109-0.051-0.205-0.093-0.208-0.090-0.003 0-0.077 0.035-0.166 0.077zM16.227 6.669c0.131 0.058 0.378 0.173 0.55 0.256 0.176 0.080 0.32 0.147 0.326 0.147 0.003 0 0.173 0.077 0.371 0.173 0.202 0.093 0.451 0.211 0.557 0.259s0.301 0.138 0.432 0.198c0.131 0.061 0.31 0.144 0.4 0.186 0.086 0.042 0.275 0.128 0.416 0.192 1.277 0.589 1.507 0.694 1.517 0.707 0.006 0.006-2.154 0.013-4.8 0.010l-4.813-0.003 0.16-0.074c0.090-0.042 0.253-0.122 0.368-0.173 0.115-0.054 0.352-0.163 0.528-0.246 0.176-0.080 0.48-0.221 0.672-0.307 0.195-0.090 0.483-0.221 0.64-0.294 0.515-0.243 0.851-0.4 1.648-0.771 0.432-0.198 0.787-0.365 0.787-0.365 0.003-0.003 0.112 0.045 0.24 0.106zM11.2 18.4v6.4h-1.6v-12.8h1.6v6.4zM14.4 18.4v6.4h-1.6v-12.8h1.6v6.4zM19.2 18.4v6.4h-1.6v-12.8h1.6v6.4zM22.4 18.4v6.4h-1.6v-12.8h1.6v6.4zM8 15.6v2h-3.2v-4h3.2v2zM27.2 15.6v2h-3.2v-4h3.2v2zM8 21.216v1.984h-3.2v-3.968h3.2v1.984zM27.2 21.216v1.984h-3.2v-3.968h3.2v1.984z"></path>
</svg>
