<!-- Generated by IcoMoon.io -->
<svg version="1.1" xmlns="http://www.w3.org/2000/svg" width="32" height="32" viewBox="0 0 32 32">
<title>battery_empty</title>
<path fill="#ff7900" d="M2.864 7.238c-0.557 0.106-1.062 0.595-1.216 1.181-0.042 0.147-0.048 1.264-0.048 7.565 0 8.234-0.016 7.616 0.224 8.019 0.227 0.381 0.624 0.669 1.050 0.762 0.237 0.048 23.558 0.051 23.834 0 0.614-0.112 1.146-0.643 1.258-1.258 0.022-0.122 0.035-0.797 0.035-1.85v-1.658h0.842c0.986 0 1.088-0.019 1.312-0.234 0.266-0.259 0.25-0.016 0.24-3.834l-0.010-3.373-0.090-0.15c-0.048-0.083-0.134-0.189-0.192-0.23-0.218-0.166-0.314-0.179-1.242-0.179h-0.861l-0.003-1.696c-0.003-0.934-0.006-1.706-0.010-1.722-0.003-0.013-0.016-0.080-0.032-0.147-0.112-0.563-0.662-1.094-1.248-1.2-0.25-0.045-23.606-0.042-23.843 0.003zM25.6 16v6.4h-21.6v-12.8h21.6v6.4z"></path>
</svg>
