<!-- Generated by IcoMoon.io -->
<svg version="1.1" xmlns="http://www.w3.org/2000/svg" width="32" height="32" viewBox="0 0 32 32">
<title>Betting</title>
<path fill="#ff7900" d="M5.6 14.109v10.112l0.080 0.253c0.141 0.451 0.483 0.822 0.915 1.005 0.227 0.096 0.259 0.099 0.822 0.115l0.582 0.013v-19.206h15.2v-0.506c0-0.333-0.016-0.56-0.048-0.675-0.157-0.592-0.643-1.062-1.226-1.184-0.122-0.026-2.474-0.035-8.246-0.035h-8.080v10.109z"></path>
<path fill="#ff7900" d="M8.8 17.302c0 11.011-0.013 10.234 0.179 10.63 0.115 0.234 0.454 0.573 0.688 0.688 0.394 0.189-0.195 0.179 8.63 0.179h8.102v-10.054c0-6.134-0.013-10.128-0.032-10.24-0.093-0.579-0.586-1.098-1.187-1.258-0.147-0.042-1.366-0.048-8.275-0.048h-8.106v10.102zM17.891 11.638c0.147 0.227 0.586 0.893 0.973 1.482 0.39 0.589 0.861 1.302 1.046 1.584s0.646 0.979 1.024 1.552c1.053 1.594 1.101 1.67 1.184 1.824 0.339 0.611 0.365 1.475 0.064 2.112-0.733 1.568-2.771 1.888-3.949 0.624l-0.15-0.16 0.045 0.144c0.342 1.126 0.989 2.291 1.658 2.982l0.208 0.218h-2.381c-1.309 0-2.381-0.006-2.381-0.016s0.054-0.070 0.122-0.138c0.634-0.624 1.245-1.67 1.642-2.819 0.070-0.202 0.118-0.371 0.109-0.381s-0.016 0-0.016 0.019c0 0.054-0.346 0.384-0.544 0.518-0.426 0.291-0.794 0.397-1.344 0.397-0.547 0-0.925-0.112-1.344-0.397-0.976-0.666-1.318-1.914-0.826-3.008 0.070-0.15 0.125-0.237 1.162-1.808 0.349-0.528 0.781-1.184 0.96-1.456 0.362-0.55 1.606-2.438 2.106-3.194 0.176-0.266 0.333-0.486 0.342-0.486 0.013 0 0.144 0.182 0.291 0.406z"></path>
</svg>
