<!-- Generated by IcoMoon.io -->
<svg version="1.1" xmlns="http://www.w3.org/2000/svg" width="32" height="32" viewBox="0 0 32 32">
<title>billboard</title>
<path fill="#ff7900" d="M4.582 2.432c-0.131 0.032-0.342 0.176-0.426 0.291-0.128 0.179-0.157 0.336-0.157 0.816v0.461l1.126 0.006 1.123 0.010 0.125 0.368c0.067 0.202 0.122 0.378 0.122 0.39s-0.816 0.029-1.814 0.035c-1.61 0.010-1.837 0.016-1.974 0.064-0.47 0.163-0.838 0.525-1.018 1.002l-0.074 0.189v13.472l0.074 0.192c0.182 0.467 0.486 0.774 0.973 0.982l0.17 0.074 13.024 0.010c9.299 0.006 13.082 0 13.229-0.026 0.621-0.106 1.152-0.621 1.28-1.242 0.051-0.24 0.051-13.213 0-13.453-0.125-0.595-0.643-1.114-1.238-1.238-0.112-0.022-0.758-0.035-1.894-0.035-0.95 0-1.728-0.013-1.728-0.026s0.054-0.189 0.122-0.39l0.125-0.368 1.126-0.010 1.13-0.006-0.013-0.522c-0.013-0.579-0.026-0.63-0.246-0.851-0.227-0.227-0.221-0.227-2.147-0.227-1.952 0-1.923-0.003-2.163 0.246-0.198 0.202-0.237 0.349-0.237 0.896v0.458h0.848c0.467 0 0.848 0.013 0.848 0.026s-0.054 0.189-0.122 0.39l-0.125 0.368h-8.25v-0.384l0.003-0.384 1.002-0.010 1.002-0.006-0.013-0.522c-0.013-0.579-0.029-0.634-0.246-0.851-0.227-0.227-0.221-0.227-2.15-0.227-1.862 0-1.866 0-2.099 0.179-0.058 0.042-0.144 0.147-0.192 0.23-0.086 0.144-0.090 0.17-0.099 0.669l-0.013 0.522h2.006v0.8l-8.25-0.016-0.125-0.368c-0.067-0.202-0.122-0.378-0.122-0.39s0.384-0.026 0.851-0.026h0.851l-0.013-0.522c-0.013-0.579-0.026-0.63-0.246-0.851-0.227-0.227-0.221-0.227-2.144-0.224-0.944 0.003-1.763 0.016-1.821 0.029zM28.8 12.8v6.4h-25.6v-12.8h25.6v6.4z"></path>
<path fill="#ff7900" d="M3.789 21.632c-0.144 0.032-0.32 0.15-0.413 0.269-0.25 0.326-0.224 0.774 0.064 1.059 0.256 0.259-0.157 0.24 5.302 0.24h4.858v7.2h4.8v-7.2h4.842c2.765 0 4.893-0.013 4.963-0.032 0.294-0.067 0.547-0.358 0.582-0.672 0.038-0.349-0.128-0.653-0.445-0.81l-0.179-0.086-12.138 0.003c-6.675 0.003-12.182 0.013-12.237 0.029z"></path>
</svg>
