<!-- Generated by IcoMoon.io -->
<svg version="1.1" xmlns="http://www.w3.org/2000/svg" width="32" height="32" viewBox="0 0 32 32">
<title>bluetooth</title>
<path fill="#ff7900" d="M15.706 2.413c-0.291 0.083-0.55 0.278-0.717 0.541-0.179 0.278-0.173 0.074-0.173 5.318v4.832l-2.15-2.15c-2.336-2.33-2.294-2.291-2.698-2.342-0.384-0.045-0.739 0.077-1.005 0.342-0.362 0.365-0.448 0.902-0.224 1.376 0.054 0.115 0.701 0.784 2.832 2.918l2.765 2.768-2.781 2.784c-2.659 2.666-2.781 2.794-2.851 2.976-0.294 0.784 0.218 1.597 1.046 1.661 0.208 0.016 0.506-0.064 0.688-0.182 0.096-0.064 1.078-1.021 2.266-2.211l2.096-2.099 0.016 4.902 0.016 4.906 0.102 0.214c0.122 0.262 0.31 0.448 0.586 0.582 0.189 0.090 0.237 0.099 0.496 0.096 0.259 0 0.31-0.013 0.512-0.106 0.214-0.102 0.374-0.259 3.475-3.36 2.515-2.515 3.267-3.283 3.322-3.398 0.163-0.352 0.163-0.73 0.003-1.075-0.058-0.122-0.675-0.758-2.835-2.922l-2.765-2.768 2.749-2.749c3.149-3.149 2.96-2.928 2.96-3.475 0-0.544 0.259-0.243-3.434-3.939-3.011-3.014-3.267-3.261-3.462-3.357-0.253-0.122-0.589-0.154-0.835-0.083zM18.886 11.462l-1.67 1.674v-6.688l1.67 1.674 1.674 1.67-1.674 1.67zM18.886 23.91l-1.67 1.674v-6.688l1.67 1.674 1.674 1.67-1.674 1.67z"></path>
</svg>
