<!-- Generated by IcoMoon.io -->
<svg version="1.1" xmlns="http://www.w3.org/2000/svg" width="32" height="32" viewBox="0 0 32 32">
<title>book_download</title>
<path fill="#ff7900" d="M2.4 13.766c0 6.72 0.010 8.198 0.045 8.33 0.144 0.547 0.589 0.97 1.123 1.069 0.131 0.026 1.29 0.038 3.584 0.045 1.866 0.006 3.437 0.019 3.488 0.032 0.054 0.010 0.227 0.035 0.384 0.054 0.845 0.109 1.664 0.349 2.368 0.688 0.528 0.256 0.934 0.506 2.006 1.242 0.342 0.234 0.451 0.275 0.666 0.256 0.141-0.013 0.429-0.15 0.56-0.266 0.090-0.080 1.062-0.723 1.398-0.925 0.525-0.314 1.034-0.534 1.706-0.739 0.266-0.080 1.066-0.24 1.36-0.272 0.115-0.013 0.237-0.032 0.272-0.042s1.648-0.026 3.584-0.035c2.381-0.016 3.552-0.032 3.616-0.054 0.531-0.192 0.912-0.614 1.005-1.117 0.026-0.131 0.035-2.592 0.035-8.31v-8.125l-4.086 0.013c-2.25 0.006-4.141 0.019-4.202 0.029s-0.221 0.029-0.352 0.038c-1.517 0.138-3.261 0.691-4.634 1.469-0.304 0.17-0.339 0.182-0.4 0.141-0.288-0.186-1.082-0.582-1.546-0.771-0.586-0.237-1.123-0.41-1.741-0.56-0.528-0.125-1.050-0.218-1.6-0.278-0.096-0.010-0.227-0.026-0.288-0.038-0.061-0.010-1.965-0.022-4.23-0.029l-4.122-0.013v8.17zM11.546 8.874c0.637 0.349 0.579 1.242-0.093 1.478-0.112 0.042-0.624 0.048-3.453 0.048-3.635 0-3.459 0.010-3.709-0.189-0.278-0.221-0.368-0.694-0.186-1.002 0.099-0.17 0.253-0.301 0.429-0.365 0.099-0.035 0.736-0.042 3.514-0.035 3.2 0.006 3.398 0.010 3.498 0.064zM24.266 8.851c0.090 0.032 0.208 0.109 0.291 0.192 0.25 0.25 0.243 0.173 0.243 2.499v2.058h1.184c0.653 0 1.184 0.006 1.184 0.016 0 0.035-4.019 4.026-4.125 4.096-0.243 0.16-0.605 0.227-0.899 0.16-0.342-0.077-0.339-0.074-2.474-2.205-1.12-1.12-2.038-2.045-2.038-2.051 0-0.010 0.531-0.016 1.184-0.016h1.181l0.010-2.122 0.010-2.118 0.086-0.147c0.102-0.173 0.269-0.31 0.454-0.368 0.099-0.032 0.538-0.042 1.846-0.042 1.491-0.003 1.734 0.003 1.862 0.048zM11.466 12.051c0.298 0.102 0.534 0.432 0.534 0.749 0 0.275-0.189 0.582-0.448 0.723-0.109 0.058-0.24 0.061-3.485 0.070-3.795 0.010-3.562 0.022-3.821-0.23-0.326-0.314-0.323-0.813 0-1.13 0.25-0.24 0.045-0.23 3.757-0.23 2.954-0.003 3.331 0.003 3.462 0.048zM8.23 15.232c0.067 0.019 0.179 0.080 0.256 0.138 0.39 0.301 0.403 0.941 0.019 1.242-0.237 0.189-0.208 0.186-2.093 0.189-1.952 0-1.92 0.003-2.17-0.237-0.419-0.41-0.262-1.12 0.291-1.318 0.154-0.054 3.504-0.064 3.696-0.013zM10.752 20.038c0.045 0.013 0.173 0.029 0.288 0.038 0.234 0.022 0.266 0.029 0.72 0.102 0.934 0.15 1.869 0.419 2.784 0.803 0.272 0.115 0.96 0.461 1.229 0.614l0.224 0.131 0.33-0.186c1.158-0.653 2.467-1.117 3.818-1.35 0.989-0.17 0.989-0.17 4.538-0.182l3.318-0.013v0.445c0 0.554-0.042 0.714-0.237 0.915-0.246 0.25-0.090 0.24-3.443 0.253-1.629 0.010-3.024 0.022-3.104 0.035s-0.266 0.035-0.416 0.054c-0.426 0.051-1.162 0.208-1.578 0.333-0.822 0.25-1.405 0.515-2.33 1.066-0.634 0.378-0.621 0.371-0.893 0.368-0.272 0-0.262 0.006-0.896-0.371-1.549-0.918-2.736-1.302-4.512-1.459-0.166-0.016-1.565-0.029-3.104-0.032-1.696-0.003-2.845-0.016-2.915-0.035-0.176-0.048-0.387-0.227-0.477-0.403-0.074-0.144-0.080-0.198-0.090-0.662l-0.010-0.506 3.338 0.013c1.837 0.006 3.373 0.019 3.418 0.029z"></path>
</svg>
