<!-- Generated by IcoMoon.io -->
<svg version="1.1" xmlns="http://www.w3.org/2000/svg" width="32" height="32" viewBox="0 0 32 32">
<title>bookmark</title>
<path fill="#ff7900" d="M6.816 4.525c-0.573 0.166-1.018 0.598-1.158 1.136-0.029 0.115-0.054 0.33-0.054 0.474l-0.003 0.266h-3.2v9.686c0 10.573-0.010 9.914 0.182 10.307 0.102 0.211 0.342 0.467 0.557 0.592 0.080 0.048 0.259 0.115 0.397 0.15 0.25 0.064 0.352 0.064 12.416 0.064 8.598 0 12.221-0.010 12.355-0.035 0.579-0.106 1.062-0.56 1.226-1.149l0.067-0.24v-19.376l-5.798 0.010c-3.19 0.003-5.83 0.016-5.866 0.029-0.035 0.010-0.128 0.035-0.208 0.058-0.781 0.208-1.475 0.934-1.651 1.728-0.029 0.131-0.064 0.269-0.077 0.304-0.022 0.054-0.029 0.051-0.032-0.032 0-0.054-0.022-0.176-0.045-0.272-0.234-0.957-1.059-1.69-2.035-1.805-0.080-0.010-0.464-0.016-0.854-0.016l-0.714-0.003v-0.25c0-0.758-0.432-1.366-1.136-1.594-0.224-0.074-0.234-0.074-2.224-0.074-1.53 0.003-2.035 0.013-2.144 0.042zM11.088 5.379c0.179 0.090 0.349 0.291 0.4 0.47 0.029 0.115 0.032 1.178 0.032 13.344 0 2.077-0.013 3.654-0.029 3.648s-0.592-0.502-1.283-1.107l-1.254-1.101-0.102 0.096c-0.298 0.278-2.426 2.122-2.438 2.112-0.029-0.032-0.013-16.877 0.019-16.982 0.070-0.243 0.266-0.445 0.528-0.541 0.067-0.022 0.701-0.032 2.032-0.029l1.939 0.006 0.157 0.083z"></path>
</svg>
