<!-- Generated by IcoMoon.io -->
<svg version="1.1" xmlns="http://www.w3.org/2000/svg" width="32" height="32" viewBox="0 0 32 32">
<title>Book_award</title>
<path fill="#ff7900" d="M7.507 2.454c-0.966 0.205-1.715 0.992-1.872 1.962-0.026 0.144-0.035 3.802-0.035 11.616 0 12.23-0.006 11.549 0.157 12.013 0.086 0.246 0.31 0.602 0.509 0.806 0.304 0.314 0.637 0.518 1.094 0.666l0.208 0.067 18.832 0.016v-24.8h-9.046c-8.918 0-9.050 0-9.152-0.064-0.266-0.16-0.262-0.528 0.006-0.682 0.048-0.029 2.086-0.042 8.048-0.054l7.984-0.016 0.154-0.093c0.595-0.355 0.512-1.213-0.141-1.443-0.202-0.074-16.413-0.067-16.746 0.006zM16.704 10.16l0.506 0.506 0.205-0.051c0.109-0.029 0.422-0.112 0.688-0.182 0.778-0.202 0.787-0.195 1.034 0.739 0.093 0.358 0.186 0.669 0.205 0.691 0.019 0.019 0.317 0.112 0.659 0.202 0.342 0.093 0.669 0.192 0.723 0.227 0.112 0.067 0.173 0.179 0.173 0.317 0 0.074-0.17 0.755-0.32 1.28l-0.032 0.112 0.515 0.515c0.461 0.461 0.515 0.528 0.531 0.643 0.010 0.080 0 0.16-0.029 0.214-0.026 0.048-0.266 0.307-0.531 0.576l-0.486 0.486 0.176 0.65c0.096 0.358 0.176 0.694 0.176 0.746 0 0.128-0.102 0.291-0.214 0.342-0.077 0.035-0.771 0.227-1.2 0.33l-0.147 0.035-0.067 0.243c-0.038 0.134-0.118 0.438-0.182 0.675-0.118 0.442-0.15 0.515-0.266 0.598-0.128 0.086-0.237 0.077-0.922-0.106l-0.685-0.182-0.493 0.493c-0.534 0.531-0.643 0.605-0.832 0.541-0.064-0.022-0.291-0.221-0.602-0.531l-0.499-0.499-0.25 0.064c-0.138 0.035-0.454 0.118-0.704 0.182-0.272 0.074-0.486 0.112-0.534 0.099-0.042-0.010-0.118-0.061-0.17-0.112-0.077-0.074-0.118-0.192-0.259-0.71-0.093-0.342-0.166-0.637-0.166-0.656 0-0.070-0.086-0.106-0.64-0.25-0.307-0.083-0.621-0.17-0.694-0.198-0.16-0.058-0.266-0.208-0.266-0.368 0-0.061 0.080-0.397 0.176-0.746l0.176-0.64-0.502-0.502c-0.275-0.275-0.512-0.528-0.525-0.56-0.038-0.096-0.029-0.246 0.016-0.326 0.022-0.042 0.259-0.294 0.525-0.56l0.483-0.486-0.16-0.592c-0.086-0.326-0.17-0.653-0.179-0.726-0.022-0.173 0.035-0.31 0.163-0.39 0.054-0.032 0.39-0.138 0.746-0.23l0.646-0.17 0.096-0.355c0.051-0.192 0.134-0.496 0.179-0.669 0.086-0.33 0.125-0.41 0.234-0.486 0.128-0.090 0.246-0.077 0.838 0.083 0.326 0.086 0.634 0.166 0.688 0.176 0.090 0.016 0.128-0.016 0.576-0.467 0.266-0.266 0.522-0.502 0.57-0.525 0.061-0.026 0.138-0.029 0.221-0.016 0.112 0.022 0.198 0.093 0.634 0.528zM12.352 20.304c0.17 0.298 0.432 0.493 0.771 0.579 0.23 0.061 0.416 0.045 0.838-0.067 0.157-0.042 0.278-0.064 0.272-0.051-0.010 0.026-0.288 0.432-0.634 0.931-0.096 0.138-0.237 0.342-0.314 0.454s-0.342 0.496-0.592 0.858c-0.25 0.362-0.506 0.733-0.566 0.822s-0.122 0.157-0.131 0.144c-0.010-0.013-0.102-0.365-0.205-0.784l-0.189-0.762-0.115 0.019c-0.061 0.010-0.182 0.038-0.272 0.064-0.234 0.067-1.184 0.298-1.19 0.291-0.010-0.006 0.445-0.678 0.89-1.322 0.112-0.163 0.435-0.634 0.717-1.046l0.512-0.752 0.067 0.246c0.038 0.134 0.102 0.304 0.141 0.374zM20.131 20.086c0.128 0.192 0.598 0.877 1.043 1.526s0.806 1.184 0.803 1.19c-0.006 0.003-0.346-0.077-0.758-0.182-0.413-0.102-0.765-0.189-0.784-0.189-0.022 0-0.118 0.317-0.227 0.758-0.102 0.419-0.195 0.771-0.208 0.784-0.010 0.016-0.080-0.064-0.15-0.176-0.074-0.109-0.189-0.278-0.256-0.374-0.070-0.096-0.234-0.336-0.365-0.528-0.134-0.195-0.518-0.752-0.854-1.242-0.339-0.49-0.614-0.896-0.614-0.902 0-0.013 0.096 0.010 0.355 0.083 0.326 0.093 0.534 0.106 0.768 0.048 0.477-0.122 0.784-0.464 0.925-1.037 0.019-0.074 0.048-0.128 0.061-0.118 0.016 0.010 0.134 0.17 0.262 0.358z"></path>
<path fill="#ff7900" d="M15.485 12.467c-1.322 0.25-2.282 1.408-2.275 2.749 0.003 1.283 0.845 2.374 2.093 2.71 0.381 0.102 1.021 0.102 1.395 0 0.899-0.243 1.606-0.886 1.926-1.741 0.256-0.691 0.214-1.555-0.099-2.179-0.586-1.155-1.805-1.773-3.040-1.539zM16.371 13.251c0.387 0.090 0.618 0.202 0.896 0.426 0.352 0.285 0.602 0.701 0.704 1.174 0.032 0.15 0.022 0.63-0.019 0.8-0.051 0.234-0.256 0.653-0.406 0.832-0.739 0.893-2.122 0.973-2.934 0.166-0.502-0.499-0.701-1.146-0.56-1.84 0.147-0.742 0.714-1.334 1.459-1.53 0.259-0.067 0.65-0.080 0.861-0.029z"></path>
</svg>
