<!-- Generated by IcoMoon.io -->
<svg version="1.1" xmlns="http://www.w3.org/2000/svg" width="32" height="32" viewBox="0 0 32 32">
<title>Boxes</title>
<path fill="#ff7900" d="M4.557 4.045c-0.186 0.058-0.352 0.195-0.454 0.368l-0.086 0.147-0.010 2.118-0.010 2.122h24.003v-2.074c-0.003-1.6-0.013-2.096-0.045-2.186-0.061-0.173-0.205-0.342-0.368-0.438l-0.147-0.086-11.376-0.006c-9.238-0.003-11.402 0.003-11.507 0.035z"></path>
<path fill="#ff7900" d="M4.8 18.8v9.2h22.4v-18.4h-22.4v9.2zM18.723 13.635c0.621 0.128 1.149 0.672 1.248 1.286 0.138 0.832-0.368 1.613-1.19 1.83-0.144 0.038-0.621 0.048-2.755 0.048-1.763 0-2.637-0.013-2.752-0.035-0.579-0.122-1.072-0.595-1.222-1.174-0.218-0.829 0.307-1.712 1.155-1.942 0.205-0.054 5.254-0.067 5.517-0.013z"></path>
</svg>
