<!-- Generated by IcoMoon.io -->
<svg version="1.1" xmlns="http://www.w3.org/2000/svg" width="32" height="32" viewBox="0 0 32 32">
<title>broadcast</title>
<path fill="#ff7900" d="M12.582 5.99c-0.538 1.114-0.934 2.461-1.043 3.546-0.010 0.096-0.029 0.269-0.042 0.384-0.048 0.432-0.026 1.958 0.038 2.301 0.003 0.029 0.019 0.138 0.029 0.243 0.038 0.317 0.205 1.098 0.326 1.523 0.186 0.659 0.429 1.283 0.746 1.907l0.163 0.33v2.176l-2.797 2.8-2.8 2.797-2.675 0.019-0.147 0.086c-0.080 0.048-0.186 0.138-0.234 0.198-0.166 0.221-0.179 0.307-0.179 1.238v0.861h17.6v-0.861c0-0.928-0.013-1.024-0.179-1.242-0.042-0.058-0.147-0.144-0.23-0.192l-0.15-0.090-3.459-0.032-2.765-2.765 0.419-0.419h2.202l0.381 0.189c0.794 0.39 1.706 0.701 2.71 0.915 0.176 0.038 0.941 0.144 1.19 0.166 0.499 0.045 1.875 0.022 2.314-0.035 1.344-0.179 2.477-0.512 3.578-1.050l0.394-0.192-7.594-7.597c-4.176-4.176-7.597-7.597-7.6-7.597s-0.090 0.176-0.195 0.39zM15.024 23.008l0.992 0.992h-0.848l-0.784-0.784c-0.432-0.432-0.784-0.794-0.784-0.803 0-0.026 0.384-0.397 0.413-0.397 0.010 0 0.467 0.445 1.011 0.992zM13.219 23.994c-0.211 0.003-0.566 0.003-0.794 0l-0.41-0.010 0.79-0.79 0.397 0.394 0.397 0.397-0.381 0.010z"></path>
<path fill="#ff7900" d="M22.128 9.664c-0.835 0.218-2.678 0.685-2.794 0.71l-0.134 0.032 1.987 1.984c1.091 1.091 1.997 1.971 2.010 1.958 0.022-0.026 0.32-1.187 0.547-2.125 0.096-0.4 0.224-0.909 0.243-0.966 0.013-0.038-0.211-0.282-0.784-0.854-0.442-0.442-0.813-0.803-0.826-0.8-0.016 0.003-0.125 0.029-0.25 0.061z"></path>
</svg>
