<!-- Generated by IcoMoon.io -->
<svg version="1.1" xmlns="http://www.w3.org/2000/svg" width="32" height="32" viewBox="0 0 32 32">
<title>burst_mode</title>
<path fill="#ff7900" d="M2.826 2.861c-0.56 0.138-1.027 0.598-1.178 1.174-0.042 0.147-0.048 1.325-0.048 7.965 0 6.902 0.006 7.814 0.048 7.984 0.157 0.605 0.63 1.069 1.226 1.197 0.24 0.051 18.010 0.051 18.253 0 0.605-0.128 1.13-0.659 1.238-1.258 0.026-0.134 0.035-2.528 0.035-7.939 0-7.498-0.003-7.757-0.061-7.978-0.147-0.566-0.586-0.992-1.171-1.142-0.166-0.042-1.206-0.048-9.184-0.045-7.075 0.003-9.027 0.010-9.158 0.042zM20 12.016v6.8h-16v-13.6h16v6.8z"></path>
<path fill="#ff7900" d="M24 14.096c0 5.187-0.010 7.325-0.035 7.446-0.122 0.579-0.595 1.072-1.184 1.226-0.147 0.042-1.408 0.048-8.675 0.048h-8.506v0.506c0 0.403 0.013 0.547 0.064 0.72 0.15 0.534 0.531 0.925 1.066 1.098l0.23 0.074 9.014 0.003c9.859 0 9.158 0.013 9.562-0.182 0.227-0.109 0.573-0.454 0.682-0.682 0.195-0.4 0.182 0.179 0.182-8.346 0-8.493 0.013-7.93-0.179-8.323-0.122-0.25-0.454-0.576-0.717-0.701-0.278-0.131-0.502-0.166-1.046-0.166h-0.458v7.28z"></path>
<path fill="#ff7900" d="M28 18.096c0 5.187-0.010 7.325-0.035 7.446-0.131 0.621-0.678 1.152-1.296 1.254-0.051 0.006-3.914 0.016-8.582 0.016l-8.49 0.003 0.003 0.512c0.003 0.314 0.022 0.576 0.048 0.675 0.154 0.579 0.653 1.059 1.226 1.178 0.237 0.048 17.962 0.051 18.234 0 0.586-0.106 1.085-0.582 1.248-1.184 0.038-0.147 0.042-1.299 0.035-8.061l-0.006-7.888-0.074-0.17c-0.16-0.374-0.381-0.64-0.691-0.829-0.294-0.179-0.554-0.234-1.13-0.234h-0.49v7.28z"></path>
</svg>
