<!-- Generated by IcoMoon.io -->
<svg version="1.1" xmlns="http://www.w3.org/2000/svg" width="32" height="32" viewBox="0 0 32 32">
<title>business_telephonie</title>
<path fill="#ff7900" d="M15.197 2.413c-0.006 0.006-0.141 0.022-0.301 0.032-3.504 0.266-6.858 1.965-9.187 4.662-1.808 2.096-2.957 4.733-3.229 7.421-0.013 0.115-0.029 0.259-0.035 0.32-0.010 0.061-0.022 0.486-0.029 0.944-0.016 0.864 0.032 1.654 0.131 2.224 0.198 1.139 0.352 1.754 0.643 2.56 1.050 2.915 3.066 5.398 5.69 7.011 1.808 1.114 3.936 1.808 6.032 1.971 0.426 0.032 1.818 0.032 2.176 0 1.19-0.109 2.237-0.326 3.248-0.669 4.198-1.418 7.472-4.816 8.701-9.030 0.237-0.806 0.416-1.699 0.483-2.387 0.010-0.115 0.032-0.339 0.045-0.496 0.016-0.16 0.029-2.845 0.029-5.968 0.003-6.096 0.010-5.888-0.157-6.4-0.307-0.954-1.075-1.725-2.045-2.045-0.506-0.166-0.256-0.16-6.435-0.16-3.162 0-5.754 0.003-5.76 0.010zM19.098 5.181c0.067 0.035 0.202 0.144 0.301 0.25 0.272 0.278 0.838 0.979 1.050 1.299 0.342 0.515 0.307 0.659-0.317 1.302-0.25 0.259-0.387 0.426-0.394 0.48-0.051 0.41 0.346 1.050 1.19 1.93 0.342 0.358 0.81 0.813 0.976 0.954 0.070 0.061 0.15 0.128 0.176 0.154 0.099 0.096 0.547 0.416 0.71 0.509 0.243 0.138 0.502 0.211 0.65 0.186 0.093-0.019 0.192-0.096 0.496-0.39 0.435-0.426 0.47-0.454 0.659-0.512 0.186-0.054 0.381 0 0.64 0.186 0.39 0.278 1.123 0.877 1.347 1.098 0.317 0.317 0.349 0.47 0.154 0.752-0.122 0.176-1.117 1.155-1.238 1.219-0.294 0.154-0.838 0.154-1.434 0-1.011-0.262-2.115-0.883-3.232-1.814-0.355-0.294-1.174-1.101-1.491-1.469-1.414-1.626-2.202-3.341-2.054-4.454 0.048-0.358 0.115-0.458 0.71-1.053 0.688-0.688 0.822-0.765 1.101-0.624zM8.32 12.083c0.214 0.099 0.621 0.502 1.072 1.069 0.176 0.221 0.326 0.406 0.336 0.416s0.134 0.166 0.275 0.352c0.56 0.733 0.704 1.011 0.675 1.318-0.026 0.301-0.141 0.461-0.838 1.171-0.531 0.544-0.579 0.624-0.547 0.928 0.083 0.739 1.091 2.054 2.838 3.702 1.322 1.245 2.317 1.811 2.832 1.616 0.048-0.019 0.326-0.269 0.618-0.554 0.528-0.518 0.621-0.598 0.838-0.72 0.352-0.198 0.707-0.090 1.389 0.422 0.71 0.531 1.571 1.248 1.85 1.533 0.442 0.454 0.429 0.726-0.061 1.283-0.365 0.413-1.459 1.472-1.616 1.565-0.237 0.134-0.461 0.186-0.893 0.202-0.701 0.022-1.51-0.163-2.448-0.557-2.093-0.88-4.288-2.595-6.192-4.838-0.483-0.57-0.938-1.19-1.427-1.952-0.16-0.253-0.448-0.774-0.618-1.123-0.243-0.502-0.246-0.509-0.39-0.902-0.394-1.059-0.512-1.907-0.362-2.595 0.093-0.432 0.15-0.512 1.005-1.363 0.787-0.79 0.95-0.931 1.174-1.011 0.179-0.061 0.291-0.054 0.49 0.038zM18.125 12.896c0.65 0.243 1.056 0.832 1.050 1.523-0.003 0.819-0.64 1.504-1.459 1.568-0.608 0.051-1.216-0.269-1.517-0.794-0.522-0.912-0.019-2.086 1.005-2.346 0.253-0.064 0.682-0.042 0.922 0.048zM14.784 16.058c0.704 0.179 1.19 0.813 1.19 1.542 0 0.445-0.154 0.816-0.464 1.13-0.547 0.544-1.382 0.618-2.029 0.182-0.845-0.57-0.931-1.795-0.173-2.486 0.397-0.365 0.957-0.506 1.475-0.368z"></path>
</svg>
