<!-- Generated by IcoMoon.io -->
<svg version="1.1" xmlns="http://www.w3.org/2000/svg" width="32" height="32" viewBox="0 0 32 32">
<title>business_invoices</title>
<path fill="#ff7900" d="M5.216 5.6v2.4h1.6v-3.2h7.338c4.195 0 7.382 0.013 7.446 0.029 0.262 0.067 0.288 0.070 0.288 0.022 0-0.077-0.157-0.403-0.285-0.592-0.32-0.467-0.694-0.742-1.328-0.973l-0.195-0.070-14.864-0.016v2.4z"></path>
<path fill="#ff7900" d="M7.616 7.984v2.384h1.6v-3.168h7.322c6.342 0 7.347 0.006 7.542 0.048 0.122 0.026 0.227 0.048 0.23 0.048 0.006 0-0.074-0.202-0.141-0.352-0.291-0.637-0.995-1.168-1.744-1.309-0.112-0.022-2.698-0.032-7.488-0.035h-7.322v2.384z"></path>
<path fill="#ff7900" d="M10.016 10.48v2.48h0.979l0.163-0.157c0.189-0.182 0.307-0.25 0.538-0.31 0.893-0.24 1.699 0.589 1.456 1.491-0.051 0.189-0.23 0.454-0.41 0.598-0.477 0.387-1.213 0.33-1.626-0.128-0.077-0.086-0.141-0.17-0.141-0.186s-0.214-0.029-0.48-0.029h-0.48v7.872h0.992l0.128-0.141c0.070-0.077 0.224-0.186 0.346-0.246 0.198-0.099 0.24-0.106 0.518-0.106 0.266-0.003 0.326 0.010 0.483 0.086 0.25 0.122 0.448 0.304 0.566 0.525 0.099 0.189 0.17 0.499 0.147 0.65-0.038 0.25-0.058 0.314-0.125 0.445-0.269 0.534-0.854 0.787-1.418 0.614-0.25-0.074-0.506-0.256-0.624-0.435l-0.070-0.112h-0.947l0.013 1.718c0.010 1.533 0.016 1.744 0.067 1.914 0.211 0.71 0.736 1.315 1.376 1.578 0.483 0.195-0.195 0.179 7.933 0.189l7.414 0.010-0.006-9.414-0.010-9.418-0.070-0.208c-0.099-0.31-0.163-0.442-0.314-0.675-0.301-0.464-0.739-0.79-1.344-1.002l-0.192-0.067-14.864-0.016v2.48zM23.821 12.998c0.070 0.022 0.182 0.093 0.246 0.16 0.304 0.314 0.211 0.832-0.179 1.014l-0.147 0.067-8.333-0.016-0.115-0.070c-0.285-0.179-0.39-0.544-0.24-0.842 0.070-0.141 0.259-0.304 0.387-0.33 0.035-0.006 1.904-0.016 4.157-0.019 3.146-0.003 4.122 0.006 4.224 0.035zM23.92 16.243c0.496 0.259 0.413 1.008-0.128 1.165-0.093 0.026-1.226 0.032-4.256 0.026l-4.128-0.010-0.115-0.070c-0.243-0.154-0.362-0.458-0.288-0.733 0.045-0.163 0.25-0.384 0.394-0.426 0.064-0.019 1.699-0.029 4.25-0.026 4.134 0.006 4.144 0.006 4.272 0.074zM19.971 19.475c0.435 0.317 0.342 0.96-0.16 1.13-0.077 0.026-0.726 0.035-2.224 0.035l-2.115-0.003-0.141-0.070c-0.074-0.038-0.182-0.134-0.24-0.211-0.086-0.122-0.099-0.163-0.099-0.355s0.013-0.237 0.096-0.355c0.054-0.077 0.16-0.17 0.24-0.211l0.144-0.074 4.362 0.016 0.138 0.099zM24.141 21.869c0.419 0.141 0.698 0.374 0.918 0.768 0.090 0.166 0.125 0.266 0.125 0.365 0 0.262-0.176 0.432-0.438 0.429-0.189-0.006-0.301-0.090-0.41-0.314-0.163-0.336-0.355-0.49-0.675-0.547-0.454-0.083-0.912 0.064-1.158 0.371-0.112 0.141-0.243 0.387-0.272 0.518l-0.019 0.080h0.947c0.81-0.003 0.966 0.003 1.066 0.048 0.246 0.112 0.269 0.538 0.038 0.688-0.074 0.048-0.198 0.054-1.126 0.058l-1.040 0.003-0.010 0.198-0.010 0.202h0.874c0.634 0 0.896 0.013 0.954 0.042 0.234 0.115 0.24 0.554 0.010 0.659-0.048 0.022-0.384 0.035-0.909 0.035h-0.832l0.019 0.070c0.093 0.32 0.333 0.614 0.602 0.739 0.202 0.096 0.33 0.118 0.624 0.122 0.474 0.006 0.726-0.141 0.915-0.528 0.106-0.211 0.23-0.307 0.416-0.307 0.234 0 0.467 0.205 0.467 0.41 0 0.16-0.227 0.547-0.451 0.768-0.182 0.179-0.528 0.349-0.829 0.406-0.378 0.070-0.947 0.045-1.264-0.058-0.64-0.211-1.072-0.694-1.28-1.44l-0.051-0.182h-0.198c-0.109 0-0.234-0.019-0.278-0.042-0.115-0.058-0.198-0.237-0.176-0.371 0.042-0.221 0.182-0.323 0.451-0.323 0.147 0 0.147 0 0.147-0.176 0-0.24 0.010-0.23-0.179-0.234-0.288 0-0.445-0.166-0.416-0.435 0.029-0.246 0.16-0.342 0.474-0.349 0.202-0.003 0.214-0.006 0.23-0.083 0.045-0.211 0.189-0.576 0.31-0.778 0.25-0.416 0.598-0.694 1.037-0.822 0.307-0.090 0.333-0.093 0.762-0.083 0.31 0.010 0.432 0.026 0.637 0.093z"></path>
<path fill="#ff7900" d="M5.216 13.216v3.936h1.6v-7.872h-1.6v3.936z"></path>
<path fill="#ff7900" d="M7.616 15.584v3.936h1.6v-7.872h-1.6v3.936z"></path>
<path fill="#ff7900" d="M5.226 20.23c0.013 1.962 0.010 1.926 0.205 2.355 0.25 0.55 0.762 1.034 1.315 1.251 0.157 0.064 0.17 0.064 0.154 0.013-0.010-0.032-0.026-0.109-0.035-0.17s-0.026-0.141-0.032-0.176c-0.006-0.035-0.013-1.19-0.013-2.57l-0.003-2.502h-1.603l0.013 1.798z"></path>
<path fill="#ff7900" d="M7.622 22.614c0.013 1.741 0.016 1.827 0.080 2.029 0.195 0.614 0.541 1.072 1.046 1.389 0.234 0.144 0.563 0.288 0.563 0.246 0-0.013-0.013-0.074-0.029-0.134-0.058-0.221-0.064-0.435-0.064-2.874l-0.003-2.47h-1.603l0.010 1.814z"></path>
</svg>
