<!-- Generated by IcoMoon.io -->
<svg version="1.1" xmlns="http://www.w3.org/2000/svg" width="32" height="32" viewBox="0 0 32 32">
<title>business_lounge</title>
<path fill="#ff7900" d="M15.296 3.248c-1.83 0.262-3.318 1.318-4.15 2.944-0.253 0.493-0.429 1.053-0.538 1.712-0.035 0.202-0.045 1.098-0.016 1.344 0.144 1.187 0.675 2.317 1.485 3.152 0.851 0.874 1.808 1.382 3.011 1.606 0.579 0.106 1.51 0.077 2.15-0.070 1.782-0.406 3.29-1.763 3.898-3.504 0.198-0.573 0.278-1.053 0.288-1.696 0.010-0.611-0.029-0.97-0.16-1.466-0.25-0.938-0.733-1.779-1.427-2.474-0.867-0.867-2.019-1.427-3.229-1.562-0.346-0.038-0.995-0.032-1.312 0.013z"></path>
<path fill="#ff7900" d="M11.139 13.696c-1.443 0.877-2.454 2.192-2.899 3.773-0.24 0.854-0.24 0.854-0.23 5.139l0.006 3.776 0.090 0.285c0.218 0.701 0.627 1.267 1.174 1.626 0.336 0.224 0.579 0.326 1.085 0.464 0.045 0.013 3.133 0.029 6.861 0.032l6.778 0.010-0.010-5.158-0.010-5.162-0.090-0.438c-0.301-1.52-1.050-2.787-2.214-3.763-0.269-0.227-0.768-0.573-0.995-0.688-0.096-0.048-0.106-0.048-0.16 0.013-0.106 0.115-0.595 0.493-0.877 0.678-0.851 0.55-1.773 0.886-2.832 1.027-0.448 0.061-1.411 0.045-1.85-0.029-1.091-0.179-2.096-0.602-2.963-1.242-0.246-0.182-0.314-0.237-0.502-0.413l-0.096-0.090-0.266 0.16zM16.016 16.483c0.291 0 0.541-0.006 0.557-0.016 0.058-0.038 0.090 0.074 0.141 0.525 0.032 0.256 0.061 0.499 0.070 0.544 0.006 0.045 0.042 0.317 0.080 0.608 0.035 0.291 0.070 0.57 0.080 0.624 0.029 0.218 0.109 0.842 0.125 0.976 0.026 0.202 0.077 0.602 0.096 0.736 0.010 0.061 0.026 0.182 0.035 0.272 0.013 0.086 0.026 0.202 0.032 0.256 0.048 0.336 0.144 1.082 0.16 1.216 0.010 0.086 0.048 0.374 0.083 0.64 0.035 0.262 0.070 0.538 0.080 0.608 0.006 0.070 0.022 0.182 0.032 0.246 0.016 0.106 0 0.141-0.17 0.355-0.102 0.131-0.323 0.416-0.49 0.634s-0.442 0.579-0.618 0.806l-0.314 0.406-0.24-0.31c-0.282-0.371-0.726-0.954-1.091-1.43-0.23-0.298-0.262-0.355-0.25-0.445 0.006-0.058 0.029-0.224 0.048-0.374s0.048-0.365 0.064-0.48c0.016-0.115 0.038-0.272 0.048-0.352s0.038-0.294 0.064-0.48c0.061-0.445 0.106-0.784 0.128-0.96 0.010-0.080 0.022-0.173 0.029-0.208s0.022-0.144 0.032-0.24c0.013-0.096 0.035-0.269 0.051-0.384 0.042-0.298 0.054-0.371 0.128-0.944 0.035-0.282 0.074-0.557 0.080-0.608 0.010-0.054 0.022-0.147 0.032-0.208 0.022-0.192 0.112-0.861 0.176-1.328 0.032-0.246 0.064-0.493 0.070-0.544 0.010-0.112 0.051-0.182 0.096-0.157 0.016 0.010 0.266 0.019 0.554 0.016z"></path>
</svg>
