<!-- Generated by IcoMoon.io -->
<svg version="1.1" xmlns="http://www.w3.org/2000/svg" width="32" height="32" viewBox="0 0 32 32">
<title>Business_everywhere</title>
<path fill="#ff7900" d="M15.088 2.448c-2.138 0.237-3.958 1.136-5.466 2.694-1.206 1.251-2.029 2.912-2.314 4.672-0.099 0.614-0.131 1.597-0.070 2.218 0.118 1.229 0.477 2.365 1.123 3.546 0.112 0.205 0.259 0.474 0.326 0.598 0.067 0.122 0.144 0.266 0.176 0.32 0.032 0.051 0.115 0.205 0.186 0.336s0.432 0.8 0.806 1.488c0.374 0.685 0.733 1.341 0.794 1.456s0.23 0.422 0.374 0.688c0.144 0.262 0.317 0.579 0.384 0.704 0.131 0.243 0.266 0.493 0.394 0.72 0.042 0.080 0.266 0.49 0.493 0.912 0.23 0.422 0.493 0.906 0.586 1.072 0.186 0.333 0.256 0.464 0.576 1.056 0.202 0.374 0.278 0.512 0.496 0.912 0.16 0.291 1.846 3.389 1.939 3.558 0.048 0.093 0.099 0.17 0.112 0.17s0.080-0.112 0.154-0.25c0.070-0.134 0.186-0.349 0.253-0.47 0.067-0.125 0.182-0.333 0.253-0.464 0.074-0.131 0.205-0.378 0.298-0.544s0.24-0.442 0.326-0.608c0.090-0.166 0.205-0.371 0.253-0.458 0.051-0.083 0.093-0.157 0.093-0.163s0.109-0.211 0.243-0.454c0.134-0.243 0.301-0.554 0.374-0.685 0.070-0.131 0.381-0.701 0.688-1.264s0.608-1.117 0.669-1.232c0.064-0.115 0.202-0.368 0.307-0.56 0.253-0.461 0.307-0.566 0.678-1.248 0.326-0.598 0.358-0.659 0.688-1.264 0.112-0.202 0.243-0.445 0.291-0.538 0.051-0.090 0.134-0.243 0.186-0.336 0.048-0.090 0.31-0.57 0.579-1.062s0.534-0.982 0.592-1.088c0.058-0.106 0.16-0.294 0.224-0.416 0.067-0.125 0.23-0.419 0.362-0.656 0.307-0.557 0.461-0.864 0.63-1.28 0.656-1.603 0.822-3.357 0.48-5.066-0.39-1.955-1.478-3.779-3.005-5.030-0.086-0.070-0.202-0.166-0.256-0.211-0.269-0.227-0.986-0.669-1.475-0.909-0.934-0.461-1.798-0.714-2.928-0.864-0.317-0.042-1.494-0.042-1.872 0zM16.8 4.848c0.755 0.131 0.986 0.189 1.437 0.358 1.309 0.486 2.525 1.491 3.232 2.672l0.074 0.122h-6.342l-0.006-0.794-0.010-0.797-0.47 0.323c-0.259 0.179-0.954 0.65-1.539 1.053-0.666 0.454-1.085 0.762-1.12 0.819-0.134 0.227-0.038 0.416 0.33 0.669 0.25 0.17 1.629 1.114 2.474 1.693l0.342 0.237v-1.603h3.504c1.926 0 3.504 0.006 3.504 0.010 0 0.006 0.029 0.147 0.061 0.314 0.096 0.464 0.115 0.698 0.112 1.357-0.006 1.011-0.179 1.773-0.618 2.688-0.333 0.694-0.746 1.27-1.306 1.808-0.4 0.387-0.493 0.464-0.922 0.752-0.806 0.541-1.869 0.931-2.803 1.030-0.291 0.032-1.194 0.032-1.453 0.003-1.731-0.205-3.36-1.13-4.371-2.49-0.202-0.269-0.352-0.493-0.41-0.602l-0.038-0.070h6.339l0.006 0.797 0.010 0.794 1.44-0.986c0.794-0.541 1.488-1.018 1.546-1.059 0.288-0.202 0.259-0.518-0.067-0.739-0.093-0.061-0.426-0.291-0.742-0.509-0.32-0.214-0.886-0.602-1.261-0.858s-0.733-0.506-0.797-0.554l-0.118-0.093-0.010 0.803-0.006 0.803h-7.002l-0.054-0.246c-0.202-0.909-0.17-2.090 0.080-3.034 0.659-2.464 2.819-4.346 5.363-4.669 0.346-0.042 1.376-0.045 1.613-0.003z"></path>
</svg>
