<!-- Generated by IcoMoon.io -->
<svg version="1.1" xmlns="http://www.w3.org/2000/svg" width="32" height="32" viewBox="0 0 32 32">
<title>buy</title>
<path fill="#ff7900" d="M15.581 3.568c-0.006 0.006-0.115 0.022-0.237 0.032-0.483 0.048-1.258 0.291-1.744 0.554-1.373 0.736-2.365 2.093-2.637 3.606-0.077 0.435-0.080 0.522-0.080 2.63l-0.003 1.962h-3.706c-4.042 0-3.869-0.006-4.262 0.182-0.102 0.048-0.266 0.176-0.387 0.294-0.342 0.342-0.506 0.774-0.464 1.229 0.026 0.275 0.067 0.426 0.205 0.71 0.061 0.122 0.253 0.541 0.429 0.928s0.349 0.768 0.384 0.848c0.038 0.080 0.141 0.31 0.234 0.512s0.205 0.448 0.25 0.544c0.045 0.096 0.765 1.686 1.606 3.536 0.838 1.846 1.562 3.44 1.606 3.536 0.042 0.096 0.368 0.81 0.72 1.584s0.675 1.488 0.72 1.584c0.045 0.096 0.115 0.253 0.157 0.346l0.077 0.166 14.89-0.016 0.266-0.576c0.371-0.803 0.422-0.918 0.717-1.552 0.144-0.307 0.291-0.624 0.326-0.704s0.211-0.454 0.384-0.832c0.365-0.781 0.422-0.909 0.691-1.488 0.214-0.474 0.326-0.71 0.518-1.12 0.074-0.16 0.17-0.362 0.208-0.448 0.093-0.205 0.211-0.464 0.48-1.040 0.192-0.416 1.267-2.736 1.488-3.216 0.048-0.106 0.186-0.4 0.304-0.656 0.301-0.65 0.368-0.79 0.592-1.28 0.109-0.237 0.259-0.557 0.336-0.707 0.198-0.39 0.253-0.598 0.23-0.877-0.048-0.618-0.445-1.136-1.069-1.386l-0.218-0.086-7.504-0.016-0.003-1.978c0-1.085-0.006-2.019-0.010-2.070-0.042-0.483-0.144-0.947-0.314-1.405-0.739-2-2.634-3.325-4.781-3.341-0.214-0.003-0.394 0.003-0.4 0.010zM16.669 6.048c0.944 0.262 1.661 0.97 1.93 1.907 0.070 0.25 0.070 0.288 0.083 2.323l0.010 2.074h-5.414l0.013-2.058c0.003-1.13 0.019-2.099 0.032-2.15 0.211-0.848 0.605-1.392 1.315-1.821 0.176-0.106 0.458-0.227 0.611-0.266 0.515-0.122 1.005-0.125 1.421-0.010zM10.861 15.638c0.010 0.051 0.048 0.285 0.083 0.522 0.118 0.8 0.224 1.485 0.272 1.792 0.029 0.166 0.070 0.442 0.096 0.608s0.067 0.448 0.096 0.624c0.026 0.176 0.048 0.33 0.048 0.342 0 0.016-0.973 0.026-2.163 0.026h-2.16l-0.138-0.298c-0.077-0.16-0.227-0.48-0.336-0.707-0.106-0.224-0.195-0.413-0.195-0.419 0-0.003-0.112-0.243-0.253-0.531-0.138-0.288-0.282-0.595-0.32-0.678s-0.157-0.336-0.266-0.56c-0.106-0.224-0.234-0.496-0.285-0.608l-0.090-0.198h5.59l0.019 0.086zM18.688 15.578c0 0.013-0.022 0.198-0.048 0.406-0.070 0.534-0.070 0.554-0.128 1.056-0.051 0.442-0.067 0.579-0.096 0.768-0.006 0.051-0.022 0.16-0.029 0.24-0.029 0.246-0.15 1.261-0.163 1.344-0.006 0.045-0.013 0.099-0.013 0.118-0.003 0.032-0.458 0.042-2.163 0.042-1.187 0-2.16-0.010-2.163-0.026 0-0.013-0.006-0.058-0.016-0.102-0.045-0.262-0.176-1.075-0.205-1.264-0.016-0.125-0.038-0.259-0.048-0.304-0.006-0.042-0.022-0.134-0.032-0.208-0.013-0.070-0.067-0.432-0.128-0.8-0.061-0.371-0.125-0.774-0.144-0.896-0.019-0.125-0.042-0.262-0.051-0.314l-0.019-0.086h2.723c1.498 0 2.723 0.013 2.723 0.026zM26.518 15.59c-0.010 0.022-0.17 0.394-0.358 0.826s-0.49 1.13-0.672 1.552c-0.182 0.422-0.41 0.947-0.506 1.168l-0.173 0.4-4.394 0.016 0.016-0.070c0.006-0.042 0.102-0.781 0.208-1.642 0.109-0.864 0.202-1.603 0.208-1.648s0.022-0.173 0.035-0.288c0.013-0.115 0.029-0.218 0.032-0.234 0.003-0.013 0.006-0.045 0.010-0.070 0.003-0.042 0.339-0.048 2.806-0.048 2.23 0 2.8 0.010 2.787 0.038zM11.853 22.086c0.019 0.122 0.064 0.4 0.214 1.386 0.019 0.122 0.045 0.304 0.061 0.4s0.086 0.557 0.157 1.024c0.070 0.467 0.138 0.896 0.15 0.95l0.022 0.106h-2.413l-0.17-0.362c-0.096-0.195-0.275-0.576-0.403-0.838-0.128-0.266-0.301-0.624-0.384-0.8s-0.246-0.515-0.362-0.752c-0.112-0.237-0.288-0.605-0.39-0.816-0.099-0.211-0.189-0.394-0.198-0.41-0.006-0.013 0.822-0.022 1.84-0.022h1.853l0.022 0.134zM17.875 22.038c-0.010 0.051-0.064 0.371-0.118 0.714s-0.118 0.746-0.141 0.896c-0.166 1.034-0.211 1.315-0.269 1.712-0.038 0.246-0.077 0.48-0.086 0.522l-0.013 0.070h-2.554l-0.019-0.090c-0.010-0.048-0.026-0.144-0.035-0.214s-0.026-0.163-0.032-0.208c-0.010-0.045-0.022-0.125-0.029-0.176-0.010-0.054-0.051-0.32-0.096-0.592s-0.118-0.733-0.163-1.024c-0.048-0.291-0.090-0.563-0.099-0.608-0.006-0.045-0.029-0.173-0.045-0.288s-0.051-0.33-0.080-0.48c-0.026-0.15-0.048-0.282-0.048-0.298 0-0.013 0.864-0.022 1.923-0.022h1.923l-0.019 0.086zM23.619 22.342c-0.182 0.381-0.336 0.704-0.787 1.642-0.118 0.246-0.285 0.592-0.368 0.768s-0.246 0.518-0.362 0.758l-0.211 0.442h-1.203c-0.938 0-1.2-0.010-1.2-0.042 0-0.019 0.022-0.157 0.045-0.301 0.026-0.144 0.058-0.323 0.067-0.4 0.045-0.301 0.336-2.099 0.365-2.25 0.019-0.090 0.054-0.31 0.083-0.496 0.026-0.186 0.058-0.374 0.067-0.426l0.019-0.086h3.67l-0.186 0.39z"></path>
</svg>
