<!-- Generated by IcoMoon.io -->
<svg version="1.1" xmlns="http://www.w3.org/2000/svg" width="32" height="32" viewBox="0 0 32 32">
<title>buy_back_euro</title>
<path fill="#ff7900" d="M12.95 2.547c-0.003 0.003-0.173 0.013-0.374 0.022-0.784 0.035-1.507 0.336-2.077 0.87-0.272 0.253-0.358 0.378-0.915 1.283-0.259 0.419-0.506 0.816-0.544 0.877s-0.371 0.602-0.736 1.2c-0.365 0.598-0.762 1.245-0.88 1.44-0.195 0.31-0.211 0.355-0.166 0.387 0.032 0.019 0.733 0.429 1.558 0.909 0.829 0.48 1.555 0.906 1.616 0.944s0.307 0.182 0.544 0.32c0.237 0.138 0.477 0.275 0.528 0.304 0.342 0.205 0.608 0.352 0.627 0.352 0.010 0 0.074-0.090 0.141-0.202 0.067-0.109 0.154-0.25 0.192-0.31 0.064-0.099 3.907-6.451 4.125-6.816 0.045-0.080 0.278-0.461 0.512-0.848 0.237-0.387 0.413-0.707 0.394-0.714-0.038-0.006-4.534-0.026-4.544-0.019z"></path>
<path fill="#ff7900" d="M19.296 2.624c-0.55 0.15-0.87 0.4-1.2 0.938-0.464 0.752-1.648 2.739-1.648 2.768 0 0.016 0.419 0.73 0.931 1.578 0.512 0.851 0.944 1.571 0.96 1.6 0.022 0.045-0.115 0.134-0.787 0.528-0.941 0.55-0.915 0.464-0.192 0.694 0.531 0.17 2.752 0.89 3.072 0.998 0.195 0.064 2.080 0.675 2.49 0.806 0.253 0.080 0.586-0.013 0.72-0.205 0.102-0.147 0.096-0.115 0.406-1.786 0.163-0.87 0.246-1.318 0.272-1.472 0.016-0.090 0.086-0.477 0.16-0.864s0.144-0.778 0.16-0.864c0.048-0.266 0.186-1.005 0.243-1.306 0.029-0.154 0.045-0.288 0.035-0.298s-0.374 0.192-0.81 0.448c-0.618 0.362-0.803 0.458-0.832 0.426-0.019-0.019-0.195-0.304-0.387-0.63-1.242-2.086-1.616-2.685-1.786-2.858-0.211-0.211-0.47-0.374-0.752-0.47-0.285-0.096-0.768-0.112-1.056-0.032z"></path>
<path fill="#ff7900" d="M8.096 11.997c-0.237 0.080-6.093 2.246-6.102 2.256-0.016 0.013 0.144 0.106 0.976 0.547 0.355 0.189 0.646 0.358 0.646 0.374s-0.157 0.314-0.349 0.659c-0.368 0.672-1.187 2.163-1.366 2.493-0.218 0.4-0.298 0.717-0.278 1.098 0.038 0.742 0.602 1.459 1.286 1.638 0.189 0.048 0.41 0.051 2.099 0.048l1.885-0.006 0.109-0.192c0.086-0.154 0.966-1.75 1.107-2.016 0.019-0.035 0.157-0.282 0.304-0.55l0.269-0.486 0.131 0.074c0.182 0.102 0.499 0.275 0.803 0.435 0.141 0.074 0.362 0.192 0.49 0.262 0.166 0.090 0.23 0.112 0.23 0.077 0-0.045-0.422-1.946-0.48-2.163-0.016-0.061-0.131-0.573-0.256-1.136s-0.256-1.139-0.288-1.28c-0.032-0.141-0.134-0.589-0.227-0.992-0.090-0.406-0.192-0.79-0.23-0.854-0.096-0.176-0.282-0.285-0.499-0.301-0.099-0.006-0.214 0-0.259 0.016z"></path>
<path fill="#ff7900" d="M15.552 12.336c-0.938 0.157-1.648 0.694-2.099 1.59-0.122 0.24-0.365 0.941-0.365 1.046 0 0.058-0.032 0.064-0.368 0.074l-0.365 0.010-0.128 0.125c-0.288 0.282-0.25 0.806 0.074 0.998 0.086 0.051 0.246 0.070 0.566 0.077h0.080l-0.003 0.278c-0.003 0.157-0.006 0.298-0.010 0.314-0.003 0.019-0.099 0.032-0.221 0.032-0.288-0.003-0.406 0.035-0.538 0.179-0.166 0.186-0.195 0.544-0.054 0.733 0.118 0.157 0.253 0.208 0.595 0.224l0.32 0.016 0.054 0.224c0.253 1.030 0.912 1.85 1.757 2.186 0.397 0.157 0.662 0.205 1.216 0.214 1.258 0.026 2.029-0.326 2.55-1.162 0.214-0.342 0.307-0.595 0.288-0.768-0.035-0.32-0.346-0.566-0.714-0.566-0.294 0-0.432 0.106-0.624 0.48-0.253 0.49-0.458 0.662-0.899 0.768-0.259 0.061-0.896 0.042-1.146-0.032-0.557-0.17-0.96-0.56-1.152-1.123-0.035-0.099-0.064-0.195-0.064-0.211 0-0.013 0.557-0.026 1.242-0.026 1.139 0 1.248-0.006 1.37-0.061 0.419-0.189 0.358-0.925-0.083-1.053-0.067-0.019-0.602-0.029-1.36-0.026-0.685 0.003-1.261-0.003-1.28-0.016-0.032-0.026-0.038-0.56-0.006-0.592 0.010-0.013 0.701-0.019 1.533-0.019 0.992 0.003 1.552-0.010 1.626-0.032 0.163-0.048 0.285-0.179 0.336-0.362 0.067-0.234 0.035-0.435-0.102-0.618-0.157-0.208-0.118-0.205-1.757-0.202-0.816 0-1.485-0.010-1.485-0.022s0.026-0.096 0.058-0.182c0.333-0.902 0.902-1.328 1.782-1.328 0.707 0 1.075 0.221 1.363 0.816 0.131 0.269 0.278 0.448 0.413 0.506 0.045 0.019 0.163 0.038 0.262 0.042 0.15 0.006 0.205-0.006 0.323-0.083 0.077-0.048 0.182-0.144 0.234-0.211 0.083-0.106 0.093-0.144 0.090-0.346 0-0.189-0.019-0.262-0.102-0.435-0.422-0.867-1.075-1.338-2.038-1.466-0.314-0.042-0.883-0.038-1.168 0.010z"></path>
<path fill="#ff7900" d="M27.040 13.443c-0.096 0.054-0.298 0.163-0.448 0.243-0.15 0.083-1.043 0.566-1.984 1.075s-1.837 0.995-1.987 1.075c-0.15 0.080-0.307 0.17-0.346 0.195l-0.070 0.048 0.365 0.608c0.202 0.333 1.11 1.853 2.019 3.376 2.662 4.448 2.877 4.8 2.896 4.8 0.010-0.003 0.515-0.832 1.123-1.85 0.605-1.014 1.162-1.939 1.232-2.054 0.198-0.31 0.317-0.538 0.394-0.752 0.278-0.771 0.23-1.622-0.134-2.352-0.083-0.163-1.194-1.91-2.336-3.68-0.074-0.115-0.227-0.349-0.336-0.522-0.112-0.17-0.205-0.31-0.208-0.31 0 0-0.083 0.045-0.179 0.099z"></path>
<path fill="#ff7900" d="M20.944 20.25c-0.070 0.064-0.224 0.198-0.336 0.298-0.294 0.253-1.005 0.87-1.232 1.069-0.106 0.090-0.387 0.336-0.624 0.544-0.237 0.205-0.474 0.413-0.528 0.461-0.090 0.077-0.678 0.589-1.734 1.498-0.23 0.198-0.451 0.416-0.493 0.483-0.086 0.144-0.093 0.429-0.016 0.57s0.122 0.186 0.723 0.701c0.307 0.262 0.566 0.49 0.576 0.499s0.125 0.112 0.256 0.224c0.131 0.112 0.291 0.25 0.352 0.304s0.416 0.362 0.784 0.685c0.371 0.32 0.723 0.63 0.784 0.685s0.221 0.192 0.352 0.307c0.131 0.115 0.256 0.221 0.275 0.24 0.048 0.045 0.387 0.342 0.733 0.64l0.288 0.25 0.010-0.979 0.006-0.982 1.962-0.003c1.075 0 1.994-0.006 2.038-0.016 0.397-0.064 0.746-0.246 1.040-0.541 0.509-0.509 0.678-1.264 0.432-1.926-0.035-0.093-0.23-0.467-0.435-0.832-0.202-0.368-0.579-1.043-0.838-1.507l-0.47-0.838h-3.728v-0.976c0-0.538-0.010-0.976-0.022-0.976-0.016 0-0.083 0.054-0.154 0.122z"></path>
<path fill="#ff7900" d="M3.13 22.182c0.035 0.058 0.448 0.739 0.918 1.514 0.474 0.774 1.046 1.722 1.277 2.106 0.438 0.733 0.666 1.021 1.011 1.286 0.381 0.294 0.902 0.522 1.408 0.611 0.189 0.032 0.838 0.042 3.050 0.045h2.806v-5.664h-10.534l0.064 0.102z"></path>
</svg>
