<!-- Generated by IcoMoon.io -->
<svg version="1.1" xmlns="http://www.w3.org/2000/svg" width="32" height="32" viewBox="0 0 32 32">
<title>buzz</title>
<path fill="#ff7900" d="M22.938 5.062c-1.030 1.024-1.949 1.939-2.045 2.026-0.931 0.861-2.192 1.6-3.427 2.013-0.544 0.182-1.306 0.352-1.866 0.422-0.106 0.013-0.221 0.026-0.256 0.032-0.035 0.003-0.083 0.010-0.102 0.010-0.032 0.003-0.042 0.992-0.042 4.832v4.832l0.154 0.019c1.101 0.134 1.978 0.362 2.886 0.752 0.358 0.154 0.906 0.432 1.152 0.589 0.986 0.621 1.235 0.845 3.443 3.050l1.968 1.968 0.518-0.013c0.496-0.010 0.525-0.013 0.666-0.096 0.179-0.106 0.31-0.272 0.368-0.467 0.038-0.118 0.045-0.854 0.045-4.182v-4.035l0.298-0.038c0.269-0.035 0.602-0.131 0.794-0.23 0.166-0.086 0.499-0.339 0.63-0.477 0.784-0.822 0.896-2.083 0.269-3.002-0.419-0.611-1.066-0.992-1.798-1.056-0.096-0.010-0.179-0.019-0.182-0.022-0.006-0.006-0.010-1.837-0.010-4.074 0-3.629-0.006-4.080-0.051-4.189-0.077-0.182-0.198-0.326-0.362-0.422-0.141-0.083-0.17-0.086-0.662-0.096l-0.518-0.013-1.869 1.869z"></path>
<path fill="#ff7900" d="M7.52 9.622c-1.078 0.157-1.859 0.483-2.56 1.069-0.221 0.182-0.512 0.461-0.512 0.493 0 0.010 0.73 0.016 1.626 0.016 1.552 0 1.626 0.003 1.725 0.064 0.195 0.118 0.253 0.346 0.138 0.534-0.115 0.192-0.038 0.186-2.157 0.202l-1.952 0.016-0.134 0.275c-0.074 0.15-0.173 0.381-0.218 0.512-0.077 0.227-0.211 0.717-0.211 0.771 0 0.013 0.816 0.026 1.818 0.026 1.386 0 1.834 0.010 1.894 0.042 0.109 0.054 0.224 0.237 0.224 0.355 0 0.054-0.029 0.144-0.064 0.202-0.125 0.208-0.061 0.202-2.099 0.202h-1.846l0.022 0.301c0.022 0.339 0.080 0.662 0.182 1.043l0.067 0.256h2.118c1.629 0 2.134 0.010 2.195 0.042 0.042 0.022 0.112 0.090 0.154 0.15 0.131 0.195 0.058 0.451-0.16 0.563-0.070 0.038-0.426 0.045-2.010 0.045h-1.923l0.118 0.182c0.81 1.28 2.195 2.096 3.741 2.205 0.16 0.013 0.294 0.026 0.301 0.032 0.006 0.003 0.518 2.042 1.139 4.522 0.621 2.483 1.146 4.56 1.168 4.611 0.061 0.15 0.326 0.371 0.493 0.413 0.099 0.022 0.688 0.035 1.85 0.035h1.706l0.176-0.090c0.131-0.067 0.208-0.134 0.294-0.262 0.227-0.333 0.294 0.013-0.918-4.832-0.589-2.368-1.082-4.33-1.091-4.362-0.016-0.051 0.035-0.054 0.784-0.054h0.803v-9.6l-3.398 0.003c-1.872 0.003-3.437 0.013-3.482 0.019z"></path>
</svg>
