<!-- Generated by IcoMoon.io -->
<svg version="1.1" xmlns="http://www.w3.org/2000/svg" width="32" height="32" viewBox="0 0 32 32">
<title>Calculator</title>
<path fill="#ff7900" d="M7.203 14.934c0.003 13.616-0.010 12.72 0.173 13.165 0.083 0.208 0.31 0.566 0.47 0.736 0.275 0.298 0.71 0.563 1.13 0.691 0.182 0.054 0.589 0.058 8.010 0.064l7.814 0.010v-12.486c0-13.322 0.006-12.758-0.147-13.146-0.307-0.774-0.944-1.331-1.728-1.504-0.278-0.061-0.445-0.064-8.006-0.064h-7.718l0.003 12.534zM21.99 4.906c0.083 0.048 0.186 0.134 0.227 0.192 0.176 0.243 0.166 0.080 0.166 2.915 0 2.944 0.019 2.704-0.237 2.96-0.246 0.246 0.246 0.23-6.211 0.221l-5.776-0.010-0.15-0.090c-0.186-0.109-0.304-0.259-0.365-0.458-0.067-0.227-0.067-5.094 0.003-5.29 0.086-0.246 0.288-0.445 0.522-0.515 0.048-0.016 2.694-0.026 5.878-0.022l5.792 0.006 0.15 0.090zM12.598 12.864c0.195 0.118 0.202 0.16 0.202 1.142 0 0.826-0.003 0.896-0.064 0.992-0.122 0.202-0.118 0.202-1.536 0.202-1.37 0-1.376 0-1.52-0.16-0.061-0.067-0.064-0.125-0.074-0.992-0.010-1.027-0.006-1.062 0.195-1.184 0.096-0.061 0.17-0.064 1.398-0.064s1.302 0.003 1.398 0.064zM17.411 12.874c0.186 0.125 0.189 0.144 0.189 1.126s-0.003 1.002-0.189 1.126c-0.109 0.074-0.109 0.074-1.402 0.074-1.427 0-1.424 0-1.546-0.202-0.061-0.096-0.064-0.166-0.064-0.992 0-0.982 0.006-1.024 0.202-1.142 0.096-0.061 0.17-0.064 1.402-0.064h1.299l0.109 0.074zM22.24 12.88c0.154 0.141 0.16 0.182 0.16 1.13 0 0.877 0 0.896-0.074 1.002-0.128 0.189-0.112 0.189-1.52 0.189-1.424 0-1.421 0-1.542-0.202-0.061-0.096-0.064-0.166-0.064-0.992 0-0.982 0.006-1.024 0.202-1.146 0.099-0.061 0.157-0.061 1.434-0.054 1.283 0.010 1.338 0.013 1.405 0.074zM12.598 16.864c0.195 0.118 0.202 0.157 0.202 1.142 0 0.973-0.003 0.995-0.189 1.12l-0.109 0.074h-2.605l-0.109-0.074c-0.186-0.125-0.189-0.147-0.189-1.12 0-0.986 0.006-1.024 0.202-1.142 0.096-0.061 0.17-0.064 1.398-0.064s1.302 0.003 1.398 0.064zM17.398 16.864c0.195 0.118 0.202 0.16 0.202 1.136s-0.006 1.018-0.202 1.136c-0.096 0.061-0.17 0.064-1.392 0.064-1.424 0-1.421 0-1.542-0.202-0.061-0.096-0.064-0.166-0.064-0.992 0-0.982 0.006-1.024 0.202-1.142 0.096-0.061 0.17-0.064 1.398-0.064s1.302 0.003 1.398 0.064zM22.198 16.864c0.195 0.118 0.202 0.16 0.202 1.136s-0.006 1.018-0.202 1.136c-0.096 0.061-0.17 0.064-1.392 0.064-1.424 0-1.421 0-1.542-0.202-0.061-0.096-0.064-0.166-0.064-0.992 0-0.982 0.006-1.024 0.202-1.142 0.096-0.061 0.17-0.064 1.398-0.064s1.302 0.003 1.398 0.064zM12.598 20.864c0.195 0.118 0.202 0.16 0.202 1.136s-0.006 1.018-0.202 1.136c-0.096 0.061-0.17 0.064-1.392 0.064-1.424 0-1.421 0-1.542-0.202-0.061-0.096-0.064-0.166-0.064-0.992 0-0.982 0.006-1.024 0.202-1.142 0.096-0.061 0.17-0.064 1.398-0.064s1.302 0.003 1.398 0.064zM17.398 20.864c0.195 0.118 0.202 0.16 0.202 1.136s-0.006 1.018-0.202 1.136c-0.096 0.061-0.17 0.064-1.392 0.064-1.424 0-1.421 0-1.542-0.202-0.061-0.096-0.064-0.166-0.064-0.992 0-0.982 0.006-1.024 0.202-1.142 0.096-0.061 0.17-0.064 1.398-0.064s1.302 0.003 1.398 0.064zM22.198 20.864c0.214 0.128 0.202-0.048 0.202 3.142 0 2.246-0.010 2.906-0.042 2.97-0.022 0.042-0.090 0.112-0.147 0.15l-0.109 0.074h-1.299c-1.232 0-1.306-0.003-1.402-0.064-0.214-0.128-0.202 0.048-0.202-3.136s-0.013-3.008 0.202-3.136c0.096-0.061 0.17-0.064 1.398-0.064s1.302 0.003 1.398 0.064zM12.598 24.864c0.195 0.118 0.202 0.157 0.202 1.142 0 0.973-0.003 0.995-0.189 1.12-0.109 0.074-0.109 0.074-1.402 0.074-1.427 0-1.424 0-1.546-0.202-0.061-0.096-0.064-0.166-0.064-0.992 0-0.982 0.006-1.024 0.202-1.142 0.096-0.061 0.17-0.064 1.398-0.064s1.302 0.003 1.398 0.064zM17.398 24.864c0.195 0.118 0.202 0.16 0.202 1.136s-0.006 1.018-0.202 1.136c-0.096 0.061-0.17 0.064-1.392 0.064-1.424 0-1.421 0-1.542-0.202-0.061-0.096-0.064-0.166-0.064-0.998 0-0.982 0.003-1.002 0.189-1.126l0.109-0.074h1.299c1.232 0 1.306 0.003 1.402 0.064z"></path>
</svg>
