<!-- Generated by IcoMoon.io -->
<svg version="1.1" xmlns="http://www.w3.org/2000/svg" width="32" height="32" viewBox="0 0 32 32">
<title>Calendar_football_match</title>
<path fill="#ff7900" d="M9.712 3.232c-0.32 0.074-0.643 0.349-0.797 0.669l-0.099 0.211-0.010 0.742-0.013 0.746h-5.594l0.006 10.214 0.010 10.218 0.070 0.218c0.291 0.906 0.947 1.51 1.85 1.699 0.195 0.042 1.654 0.048 11.546 0.051h11.318v-10.086c0-6.605-0.013-10.157-0.032-10.288-0.115-0.714-0.563-1.36-1.194-1.718-0.189-0.109-0.531-0.234-0.707-0.259-0.070-0.013-0.16-0.026-0.195-0.032s-0.829-0.013-1.766-0.013l-1.702-0.003-0.010-0.746c-0.010-0.733-0.010-0.746-0.096-0.931-0.221-0.47-0.595-0.707-1.114-0.707-0.237 0-0.298 0.013-0.48 0.099-0.262 0.125-0.458 0.32-0.589 0.589l-0.099 0.208-0.010 0.742-0.010 0.746h-8.794l-0.010-0.746-0.010-0.742-0.099-0.208c-0.202-0.419-0.586-0.675-1.034-0.688-0.134-0.006-0.285 0.003-0.339 0.016zM8.915 8.896c0.131 0.269 0.323 0.464 0.586 0.589 0.192 0.090 0.24 0.099 0.515 0.099 0.278-0.003 0.32-0.010 0.496-0.102 0.259-0.131 0.451-0.333 0.573-0.586l0.099-0.208 0.032-1.888 0.218 0.221c0.758 0.774 0.749 2.016-0.026 2.787-0.79 0.784-2.045 0.784-2.822-0.003-0.768-0.781-0.774-2.016-0.019-2.784l0.218-0.221 0.032 1.888 0.099 0.208zM20.115 8.896c0.131 0.269 0.323 0.464 0.586 0.589 0.186 0.086 0.246 0.099 0.483 0.099 0.426 0 0.707-0.138 0.966-0.464 0.224-0.285 0.25-0.422 0.25-1.424 0-0.483 0.013-0.88 0.026-0.88 0.061 0 0.416 0.426 0.528 0.634 0.8 1.494-0.512 3.254-2.166 2.902-0.403-0.086-0.816-0.323-1.075-0.618-0.694-0.79-0.672-1.971 0.054-2.714l0.218-0.221 0.032 1.888 0.099 0.208zM25.664 12.918c0.333 0.163 0.563 0.413 0.672 0.73 0.064 0.182 0.064 0.269 0.064 6.47v6.282h-20.566l-0.205-0.067c-0.326-0.106-0.557-0.31-0.714-0.637l-0.099-0.208-0.010-6.346-0.006-6.342 20.656 0.016 0.208 0.102z"></path>
<path fill="#ff7900" d="M15.056 13.622c-1.146 0.102-2.326 0.582-3.216 1.306-1.155 0.934-1.878 2.176-2.163 3.696-0.077 0.413-0.083 1.363-0.013 1.824 0.205 1.35 0.784 2.493 1.744 3.437 0.88 0.864 2.077 1.472 3.232 1.635 0.090 0.013 0.189 0.032 0.224 0.038s0.323 0.019 0.64 0.026c0.666 0.010 1.149-0.048 1.725-0.211 3.008-0.851 4.864-3.875 4.256-6.941-0.477-2.422-2.4-4.298-4.858-4.742-0.339-0.061-1.232-0.099-1.571-0.067zM14.019 14.973l-0.192 0.381 0.87 0.346c0.48 0.189 0.893 0.342 0.918 0.342 0.026-0.003 0.432-0.16 0.902-0.346l0.854-0.342-0.189-0.381c-0.106-0.208-0.186-0.381-0.179-0.381s0.125 0.038 0.262 0.083c0.525 0.17 1.114 0.493 1.565 0.854 0.314 0.253 0.784 0.742 0.97 1.008 0.128 0.186 0.134 0.198 0.064 0.182-0.074-0.016-0.39-0.067-0.656-0.102l-0.138-0.019-0.003 0.173c0 0.096-0.006 0.202-0.013 0.237s-0.019 0.23-0.029 0.432c-0.038 0.714-0.058 0.976-0.067 1.011-0.013 0.045 1.178 1.494 1.219 1.485 0.016-0.003 0.154-0.125 0.307-0.275 0.157-0.147 0.291-0.269 0.301-0.269 0.013 0 0.013 0.192 0.003 0.426-0.048 0.995-0.32 1.837-0.861 2.653-0.125 0.189-0.24 0.346-0.253 0.346s-0.048-0.173-0.077-0.381c-0.032-0.211-0.067-0.397-0.077-0.416-0.016-0.022-0.086-0.016-0.211 0.016-0.106 0.029-0.214 0.058-0.24 0.061-0.496 0.112-1.373 0.358-1.411 0.397-0.054 0.054-0.941 1.459-0.973 1.539-0.013 0.035 0.083 0.099 0.358 0.237l0.378 0.189-0.112 0.048c-0.15 0.064-0.502 0.157-0.816 0.218-0.522 0.102-1.424 0.080-2.048-0.051-0.17-0.035-0.694-0.195-0.682-0.208 0.006-0.006 0.17-0.090 0.368-0.189s0.368-0.195 0.378-0.208c0.010-0.016-0.035-0.106-0.096-0.198-0.061-0.096-0.288-0.454-0.506-0.797l-0.394-0.624-0.909-0.23c-0.502-0.128-0.918-0.221-0.931-0.208-0.010 0.013-0.045 0.198-0.080 0.413-0.032 0.218-0.067 0.394-0.077 0.394-0.019 0-0.237-0.307-0.381-0.544-0.24-0.387-0.512-1.066-0.611-1.52-0.096-0.429-0.166-1.36-0.106-1.36 0.013 0 0.157 0.131 0.314 0.288l0.288 0.288 0.058-0.070c0.032-0.042 0.307-0.374 0.608-0.739 0.304-0.368 0.547-0.688 0.547-0.714-0.003-0.026-0.016-0.224-0.029-0.438-0.010-0.214-0.026-0.454-0.032-0.534s-0.022-0.304-0.035-0.496c-0.010-0.195-0.026-0.358-0.029-0.365-0.006-0.006-0.202 0.016-0.429 0.051-0.23 0.032-0.419 0.058-0.419 0.054s0.086-0.118 0.192-0.256c0.499-0.653 1.136-1.174 1.872-1.533 0.291-0.144 0.758-0.326 0.858-0.333 0.013-0.003-0.064 0.17-0.166 0.378z"></path>
<path fill="#ff7900" d="M14.73 18.253c-0.496 0.346-0.87 0.63-0.87 0.659 0 0.026 0.157 0.502 0.342 1.056l0.342 1.008 1.062 0.010 1.059 0.006 0.234-0.694c0.128-0.384 0.288-0.861 0.352-1.059l0.118-0.358-0.323-0.23c-0.179-0.125-0.541-0.381-0.806-0.566-0.262-0.189-0.515-0.362-0.56-0.39-0.080-0.051-0.093-0.042-0.95 0.56z"></path>
</svg>
