<!-- Generated by IcoMoon.io -->
<svg version="1.1" xmlns="http://www.w3.org/2000/svg" width="32" height="32" viewBox="0 0 32 32">
<title>calendar_month</title>
<path fill="#ff7900" d="M9.68 3.245c-0.349 0.109-0.611 0.333-0.765 0.656l-0.099 0.211-0.010 0.742-0.013 0.746h-5.594l0.006 10.214 0.010 10.218 0.067 0.211c0.099 0.304 0.182 0.477 0.33 0.698 0.262 0.387 0.685 0.73 1.085 0.88 0.499 0.189-0.355 0.176 11.984 0.179h11.318v-10.086c0-6.605-0.013-10.157-0.032-10.288-0.115-0.714-0.563-1.36-1.194-1.718-0.189-0.109-0.531-0.234-0.707-0.259-0.070-0.013-0.16-0.026-0.195-0.032s-0.829-0.013-1.766-0.013l-1.702-0.003-0.010-0.746c-0.010-0.733-0.010-0.746-0.096-0.931-0.221-0.47-0.595-0.707-1.114-0.707-0.237 0-0.301 0.013-0.48 0.099-0.122 0.058-0.266 0.16-0.346 0.243-0.317 0.333-0.358 0.486-0.358 1.366v0.675h-8.797l-0.010-0.746-0.010-0.742-0.099-0.208c-0.202-0.419-0.586-0.675-1.034-0.691-0.134-0.003-0.301 0.010-0.371 0.032zM8.915 8.896c0.131 0.269 0.323 0.464 0.586 0.589 0.192 0.090 0.24 0.099 0.515 0.099 0.278-0.003 0.32-0.010 0.499-0.102 0.256-0.134 0.445-0.33 0.57-0.586l0.099-0.208 0.032-1.888 0.218 0.221c0.762 0.778 0.749 2.026-0.032 2.79-0.269 0.266-0.566 0.435-0.925 0.525-1.005 0.256-2.070-0.342-2.381-1.334-0.218-0.698-0.032-1.475 0.474-1.984l0.214-0.218 0.032 1.888 0.099 0.208zM20.077 8.832c0.067 0.16 0.259 0.419 0.384 0.515 0.045 0.035 0.163 0.102 0.266 0.15 0.157 0.074 0.227 0.086 0.458 0.086 0.426 0 0.707-0.138 0.966-0.464 0.224-0.285 0.25-0.422 0.25-1.424 0-0.483 0.013-0.88 0.026-0.88 0.061 0 0.416 0.426 0.528 0.634 0.8 1.494-0.512 3.254-2.166 2.902-0.403-0.086-0.816-0.323-1.075-0.618-0.698-0.794-0.672-1.971 0.054-2.714l0.218-0.221 0.016 0.944c0.016 0.832 0.026 0.96 0.077 1.088zM9.066 12.8h0.534v4h-4.8v-3.997l0.266-0.010c0.144-0.006 0.982-0.006 1.862-0.003s1.84 0.010 2.138 0.010zM14.938 12.8h0.262v4h-4.8v-3.997l0.090-0.010c0.048-0.006 1.008-0.006 2.134-0.003 1.126 0.006 2.166 0.010 2.314 0.010zM20.474 12.8h0.326v4h-4.8v-1.994c0-1.098 0.006-2.003 0.013-2.010s0.941-0.010 2.074-0.006c1.133 0.006 2.205 0.010 2.387 0.010zM25.171 12.81c0.278 0.010 0.352 0.026 0.528 0.109 0.269 0.128 0.442 0.298 0.576 0.57l0.109 0.224 0.010 1.542 0.010 1.546h-4.803v-3.997l0.122-0.010c0.16-0.013 3.040 0 3.45 0.016zM9.6 19.6v2h-4.8v-4h4.8v2zM15.2 19.6v2h-4.8v-4h4.8v2zM20.8 19.6v2h-4.8v-4h4.8v2zM26.4 19.6v2h-4.8v-4h4.8v2zM9.6 24.4v2h-1.866c-1.99 0-2.016-0.003-2.326-0.16-0.182-0.093-0.387-0.32-0.493-0.544l-0.099-0.208-0.010-1.546-0.010-1.542h4.803v2zM15.2 24.4v2h-4.8v-4h4.8v2zM20.8 24.4v2h-4.8v-4h4.8v2z"></path>
</svg>
