<!-- Generated by IcoMoon.io -->
<svg version="1.1" xmlns="http://www.w3.org/2000/svg" width="32" height="32" viewBox="0 0 32 32">
<title>calendaralarm</title>
<path fill="#ff7900" d="M9.68 3.245c-0.349 0.109-0.611 0.333-0.765 0.656l-0.099 0.211-0.010 0.742-0.013 0.746h-5.594l0.006 10.214 0.010 10.218 0.067 0.211c0.099 0.304 0.182 0.477 0.33 0.698 0.262 0.387 0.685 0.73 1.085 0.88 0.499 0.189-0.355 0.176 11.984 0.179h11.318v-10.086c0-6.605-0.013-10.157-0.032-10.288-0.115-0.714-0.563-1.36-1.194-1.718-0.189-0.109-0.531-0.234-0.707-0.259-0.070-0.013-0.16-0.026-0.195-0.032s-0.829-0.013-1.766-0.013l-1.702-0.003-0.010-0.746c-0.010-0.733-0.010-0.746-0.096-0.931-0.221-0.47-0.595-0.707-1.114-0.707-0.237 0-0.301 0.013-0.48 0.099-0.122 0.058-0.266 0.16-0.346 0.243-0.317 0.333-0.358 0.486-0.358 1.366v0.675h-8.797l-0.010-0.746-0.010-0.742-0.099-0.208c-0.202-0.419-0.586-0.675-1.034-0.691-0.134-0.003-0.301 0.010-0.371 0.032zM8.915 8.896c0.131 0.269 0.323 0.464 0.586 0.589 0.192 0.090 0.24 0.099 0.515 0.099 0.278-0.003 0.32-0.010 0.499-0.102 0.256-0.134 0.445-0.33 0.57-0.586l0.099-0.208 0.032-1.888 0.218 0.224c0.762 0.784 0.749 2.022-0.032 2.787-0.797 0.784-2.038 0.781-2.816-0.006-0.768-0.781-0.774-2.016-0.019-2.784l0.218-0.221 0.032 1.888 0.099 0.208zM20.077 8.832c0.067 0.16 0.259 0.419 0.384 0.515 0.045 0.035 0.163 0.102 0.266 0.15 0.157 0.074 0.227 0.086 0.458 0.086 0.426 0 0.707-0.138 0.966-0.464 0.224-0.285 0.25-0.422 0.25-1.424 0-0.483 0.013-0.88 0.026-0.88 0.061 0 0.416 0.426 0.528 0.634 0.8 1.494-0.512 3.254-2.166 2.902-1.254-0.266-1.939-1.642-1.395-2.794 0.109-0.227 0.33-0.531 0.486-0.662l0.106-0.090 0.016 0.941c0.016 0.829 0.026 0.957 0.077 1.085zM25.664 12.918c0.333 0.163 0.563 0.413 0.672 0.73 0.064 0.182 0.064 0.278 0.064 6.467v6.285h-20.566l-0.205-0.067c-0.326-0.106-0.557-0.31-0.714-0.637l-0.099-0.208-0.010-6.346-0.006-6.342 20.656 0.016 0.208 0.102z"></path>
<path fill="#ff7900" d="M15.277 14.464c-0.285 0.112-0.448 0.317-0.541 0.678l-0.064 0.259-0.368 0.147c-0.394 0.163-0.646 0.31-0.928 0.544-0.634 0.525-1.053 1.203-1.251 2.035-0.067 0.275-0.070 0.368-0.077 1.936-0.006 1.344-0.016 1.67-0.054 1.776-0.026 0.074-0.17 0.339-0.323 0.598-0.294 0.49-0.33 0.611-0.23 0.752 0.029 0.042 0.102 0.080 0.17 0.093 0.064 0.013 1.875 0.022 4.022 0.022 2.963 0 3.933-0.010 4.019-0.038 0.157-0.051 0.211-0.173 0.157-0.342-0.022-0.067-0.141-0.288-0.266-0.49-0.39-0.64-0.355-0.422-0.362-2.246-0.006-1.315-0.016-1.642-0.061-1.904-0.131-0.758-0.496-1.453-1.046-1.984-0.352-0.342-0.653-0.531-1.28-0.81-0.23-0.099-0.285-0.17-0.326-0.403-0.048-0.256-0.221-0.48-0.47-0.611-0.163-0.083-0.528-0.090-0.72-0.013z"></path>
<path fill="#ff7900" d="M14.445 23.734c0.086 0.467 0.282 0.733 0.682 0.925 0.211 0.102 0.272 0.118 0.49 0.118 0.224 0.003 0.272-0.006 0.49-0.115 0.4-0.198 0.634-0.512 0.675-0.912l0.013-0.134h-2.368l0.019 0.118z"></path>
</svg>
