<!-- Generated by IcoMoon.io -->
<svg version="1.1" xmlns="http://www.w3.org/2000/svg" width="32" height="32" viewBox="0 0 32 32">
<title>calendar_30</title>
<path fill="#ff7900" d="M9.712 3.232c-0.32 0.074-0.643 0.349-0.797 0.669l-0.099 0.211-0.010 0.742-0.013 0.746h-5.594l0.006 10.214 0.010 10.218 0.070 0.218c0.291 0.906 0.947 1.51 1.85 1.699 0.195 0.042 1.654 0.048 11.546 0.051h11.318v-10.086c0-6.605-0.013-10.157-0.032-10.288-0.115-0.714-0.563-1.36-1.194-1.718-0.189-0.109-0.531-0.234-0.707-0.259-0.070-0.013-0.16-0.026-0.195-0.032s-0.829-0.013-1.766-0.013l-1.702-0.003-0.010-0.746c-0.010-0.733-0.010-0.746-0.096-0.931-0.221-0.47-0.595-0.707-1.114-0.707-0.237 0-0.298 0.013-0.48 0.099-0.262 0.125-0.458 0.32-0.589 0.589l-0.099 0.208-0.010 0.742-0.010 0.746h-8.794l-0.010-0.746-0.010-0.742-0.099-0.208c-0.202-0.419-0.586-0.675-1.034-0.688-0.134-0.006-0.285 0.003-0.339 0.016zM8.915 8.896c0.131 0.269 0.323 0.464 0.586 0.589 0.192 0.090 0.24 0.099 0.515 0.099 0.278-0.003 0.32-0.010 0.496-0.102 0.259-0.131 0.451-0.333 0.573-0.586l0.099-0.208 0.032-1.888 0.218 0.221c0.758 0.774 0.749 2.016-0.026 2.787-0.79 0.784-2.045 0.784-2.822-0.003-0.768-0.781-0.774-2.016-0.019-2.784l0.218-0.221 0.032 1.888 0.099 0.208zM20.115 8.896c0.131 0.269 0.323 0.464 0.586 0.589 0.186 0.086 0.246 0.099 0.483 0.099 0.426 0 0.707-0.138 0.966-0.464 0.224-0.285 0.25-0.422 0.25-1.424 0-0.483 0.013-0.88 0.026-0.88 0.061 0 0.416 0.426 0.528 0.634 0.8 1.494-0.512 3.254-2.166 2.902-0.403-0.086-0.816-0.323-1.075-0.618-0.694-0.79-0.672-1.971 0.054-2.714l0.218-0.221 0.032 1.888 0.099 0.208zM25.67 12.922c0.256 0.125 0.509 0.371 0.627 0.611l0.086 0.179 0.010 6.342 0.006 6.346h-20.566l-0.205-0.067c-0.326-0.106-0.557-0.31-0.714-0.637l-0.099-0.208-0.010-6.346-0.006-6.342 20.656 0.016 0.214 0.106z"></path>
<path fill="#ff7900" d="M11.072 14.448c-0.531 0.086-1.11 0.317-1.459 0.576-0.816 0.614-1.251 1.475-1.366 2.71-0.010 0.115-0.006 0.122 0.090 0.122 0.112 0.003 1.702 0.003 1.779 0 0.042 0 0.054-0.051 0.074-0.253 0.058-0.701 0.394-1.222 0.915-1.424 0.326-0.125 0.768-0.134 1.104-0.026 0.605 0.198 0.922 0.63 0.922 1.258 0 0.355-0.074 0.547-0.301 0.774-0.326 0.323-0.774 0.47-1.453 0.47h-0.368v0.166c-0.006 0.941-0.003 1.216 0.016 1.235 0.010 0.013 0.157 0.022 0.323 0.026 1.29 0.022 1.872 0.384 1.955 1.213 0.026 0.262 0.026 0.291-0.003 0.525-0.067 0.56-0.416 0.998-0.966 1.206-0.266 0.099-0.762 0.138-1.034 0.080-0.461-0.099-0.912-0.451-1.114-0.87-0.115-0.243-0.227-0.646-0.237-0.87-0.006-0.083-0.026-0.163-0.042-0.179-0.019-0.013-0.451-0.022-0.963-0.022l-0.928 0.003 0.006 0.355c0.016 0.768 0.285 1.517 0.739 2.058 0.24 0.282 0.358 0.387 0.669 0.598 0.598 0.403 1.366 0.611 2.266 0.611 2.246 0.006 3.818-1.414 3.738-3.376-0.042-1.034-0.611-1.798-1.562-2.106-0.173-0.054-0.208-0.077-0.16-0.093 0.662-0.237 1.085-0.694 1.27-1.376 0.118-0.432 0.093-1.082-0.054-1.504-0.112-0.317-0.413-0.755-0.701-1.018-0.394-0.358-0.979-0.666-1.491-0.784-0.080-0.019-0.214-0.051-0.304-0.070-0.256-0.058-1.046-0.070-1.36-0.016z"></path>
<path fill="#ff7900" d="M18.966 14.451c-0.269 0.042-0.768 0.192-0.966 0.294-0.39 0.195-0.864 0.634-1.12 1.027-0.4 0.618-0.704 1.533-0.803 2.419-0.010 0.106-0.029 0.221-0.035 0.256-0.038 0.166-0.032 1.885 0.010 2.298 0.16 1.619 0.72 2.864 1.565 3.462 0.285 0.205 0.448 0.285 0.784 0.397 0.842 0.285 1.85 0.246 2.656-0.096 0.403-0.17 0.89-0.57 1.184-0.973 0.387-0.525 0.752-1.517 0.848-2.304 0.013-0.090 0.026-0.182 0.032-0.208 0.061-0.227 0.086-1.907 0.042-2.486-0.166-2.064-0.992-3.466-2.317-3.926-0.538-0.189-1.296-0.253-1.878-0.16zM20.074 16.16c0.346 0.131 0.691 0.534 0.851 1.002 0.099 0.291 0.195 0.774 0.243 1.222 0.038 0.394 0.045 2.243 0.003 2.448-0.006 0.045-0.022 0.166-0.035 0.272-0.109 0.944-0.47 1.667-0.96 1.907-0.355 0.173-0.893 0.166-1.222-0.022-0.358-0.205-0.666-0.749-0.806-1.43-0.122-0.566-0.141-0.877-0.144-2.006 0-1.354 0.054-1.805 0.294-2.464 0.134-0.368 0.445-0.758 0.701-0.88 0.31-0.147 0.755-0.166 1.075-0.048z"></path>
</svg>
