<!-- Generated by IcoMoon.io -->
<svg version="1.1" xmlns="http://www.w3.org/2000/svg" width="32" height="32" viewBox="0 0 32 32">
<title>call_forward</title>
<path fill="#ff7900" d="M15.197 2.413c-0.006 0.006-0.141 0.022-0.301 0.032-3.504 0.266-6.858 1.965-9.187 4.662-1.808 2.096-2.957 4.733-3.229 7.421-0.013 0.115-0.029 0.259-0.035 0.32-0.010 0.061-0.022 0.486-0.029 0.944-0.016 0.864 0.032 1.654 0.131 2.224 0.198 1.139 0.352 1.754 0.643 2.56 1.050 2.915 3.066 5.398 5.69 7.011 1.808 1.114 3.936 1.808 6.032 1.971 0.426 0.032 1.818 0.032 2.176 0 1.19-0.109 2.237-0.326 3.248-0.669 4.198-1.418 7.472-4.816 8.701-9.030 0.237-0.806 0.416-1.699 0.483-2.387 0.010-0.115 0.032-0.339 0.045-0.496 0.016-0.16 0.029-2.845 0.029-5.968 0.003-6.096 0.010-5.888-0.157-6.4-0.307-0.954-1.075-1.725-2.045-2.045-0.506-0.166-0.256-0.16-6.435-0.16-3.162 0-5.754 0.003-5.76 0.010zM25.456 5.651c0.48 0.128 0.797 0.483 0.88 0.995 0.019 0.109 0.032 1.504 0.032 3.37v3.184l-1.92-1.92-1.421 1.421c-0.781 0.781-1.485 1.462-1.565 1.51-0.362 0.224-0.771 0.243-1.133 0.058-0.173-0.093-0.394-0.294-1.376-1.277-1.376-1.373-1.37-1.366-1.37-1.888 0.003-0.518-0.042-0.461 1.638-2.138l1.453-1.45-0.966-0.96-0.966-0.957h3.261c2.854 0 3.283 0.006 3.453 0.051zM9.315 9.894c0.352 0.118 0.749 0.534 1.808 1.882 0.688 0.877 0.877 1.21 0.88 1.549 0.006 0.346-0.179 0.611-0.973 1.411-0.243 0.246-0.464 0.483-0.486 0.528-0.301 0.576 0.413 1.802 2 3.437 1.814 1.869 3.11 2.832 3.824 2.842 0.326 0.006 0.342-0.003 0.979-0.634 0.326-0.32 0.685-0.64 0.794-0.71 0.496-0.32 0.838-0.237 1.696 0.41 0.23 0.176 0.531 0.41 0.666 0.522 0.138 0.109 0.4 0.323 0.586 0.47 0.454 0.365 0.838 0.739 0.963 0.934 0.086 0.134 0.106 0.192 0.106 0.358 0.003 0.32-0.093 0.451-1.091 1.459-0.925 0.938-1.069 1.053-1.443 1.158-0.288 0.083-0.941 0.102-1.35 0.038-1.648-0.253-3.629-1.245-5.568-2.784-0.202-0.16-0.438-0.355-0.528-0.432-0.624-0.557-0.819-0.739-1.235-1.149-2.374-2.362-3.987-4.966-4.416-7.139-0.096-0.48-0.106-1.28-0.016-1.594 0.131-0.474 0.262-0.64 1.539-1.898 0.618-0.608 0.934-0.774 1.267-0.659z"></path>
</svg>
