<!-- Generated by IcoMoon.io -->
<svg version="1.1" xmlns="http://www.w3.org/2000/svg" width="32" height="32" viewBox="0 0 32 32">
<title>call</title>
<path fill="#ff7900" d="M7.178 3.36c-0.454 0.163-1.024 0.653-2.246 1.939-0.182 0.192-0.515 0.534-0.736 0.765-0.547 0.563-0.682 0.768-0.845 1.286-0.144 0.451-0.179 0.736-0.166 1.402 0.003 0.333 0.019 0.659 0.029 0.72 0.013 0.061 0.035 0.211 0.054 0.336 0.25 1.702 1.19 3.946 2.576 6.134 0.909 1.44 2.099 2.979 3.43 4.442 0.381 0.419 2 2.035 2.406 2.403 3.491 3.162 7.229 5.29 10.352 5.898 0.659 0.131 1.587 0.179 2.080 0.112 0.544-0.077 1.024-0.253 1.35-0.496 0.186-0.138 2.458-2.41 2.634-2.634 0.637-0.803 0.749-1.168 0.518-1.677-0.224-0.486-0.794-1.018-2.918-2.714-1.706-1.363-2.336-1.664-3.005-1.437-0.451 0.15-0.723 0.374-1.93 1.578-0.8 0.797-0.864 0.838-1.322 0.835-0.394-0.003-0.733-0.102-1.248-0.365-0.589-0.298-1.29-0.778-2.016-1.373-1.216-1.002-2.941-2.685-4.112-4.019-1.914-2.179-2.643-3.696-2.154-4.474 0.042-0.067 0.352-0.4 0.691-0.739 0.896-0.896 1.123-1.142 1.354-1.475 0.442-0.637 0.422-1.117-0.086-1.958-0.147-0.24-0.922-1.299-1.072-1.466-0.035-0.038-0.109-0.131-0.17-0.208-0.477-0.618-1.434-1.75-1.763-2.083-0.714-0.72-1.168-0.918-1.686-0.733z"></path>
</svg>
