<!-- Generated by IcoMoon.io -->
<svg version="1.1" xmlns="http://www.w3.org/2000/svg" width="32" height="32" viewBox="0 0 32 32">
<title>call_log</title>
<path fill="#ff7900" d="M15.197 2.413c-0.006 0.006-0.15 0.022-0.317 0.032-0.166 0.013-0.333 0.029-0.368 0.035s-0.134 0.022-0.224 0.032c-0.211 0.022-0.342 0.045-0.832 0.125-0.035 0.003-0.099 0.019-0.144 0.029s-0.218 0.051-0.384 0.086c-0.592 0.131-1.597 0.445-2 0.624-0.051 0.026-0.189 0.083-0.304 0.128-0.307 0.128-1.117 0.534-1.469 0.742-1.024 0.602-1.907 1.283-2.752 2.122-1.437 1.43-2.534 3.162-3.226 5.088-0.24 0.675-0.493 1.648-0.586 2.266-0.080 0.509-0.093 0.611-0.112 0.822-0.013 0.122-0.029 0.266-0.038 0.32-0.029 0.182-0.035 1.795-0.010 2.112 0.032 0.368 0.096 0.963 0.115 1.056 0.010 0.035 0.045 0.23 0.080 0.432 0.301 1.725 1.005 3.475 2.010 5.008 0.115 0.176 0.221 0.333 0.237 0.352 0.013 0.016 0.125 0.17 0.25 0.336 0.762 1.018 1.658 1.914 2.669 2.678 0.806 0.605 1.299 0.912 2.195 1.36 1.203 0.598 2.765 1.088 4.013 1.254 0.070 0.010 0.23 0.032 0.352 0.048 0.611 0.083 2.118 0.115 2.736 0.058 1.494-0.138 2.755-0.438 4.048-0.963 0.662-0.272 1.507-0.701 2.032-1.037 0.522-0.333 1.107-0.749 1.379-0.979 0.064-0.054 0.186-0.157 0.272-0.227s0.256-0.221 0.381-0.336c2.144-1.997 3.552-4.49 4.122-7.296 0.102-0.493 0.176-0.963 0.202-1.28 0.010-0.131 0.026-0.275 0.038-0.32 0.010-0.045 0.022-2.723 0.029-5.952 0.010-6.41 0.019-6.067-0.173-6.621-0.304-0.886-1.056-1.651-1.923-1.952-0.557-0.195 0.010-0.176-6.426-0.186-3.222-0.003-5.866-0.003-5.872 0.003zM21.030 8.454l-2.854 2.854-0.605-0.605c-0.694-0.691-0.755-0.781-0.755-1.12 0-0.186 0.016-0.25 0.086-0.368 0.048-0.080 0.605-0.662 1.238-1.296 0.637-0.634 1.155-1.162 1.155-1.178 0-0.013-0.243-0.269-0.544-0.57-0.298-0.298-0.544-0.55-0.544-0.557 0-0.010 1.277-0.016 2.838-0.016h2.838l-2.854 2.854zM25.667 7.382c0.56 0.566 0.634 0.653 0.685 0.806 0.074 0.221 0.051 0.467-0.061 0.653-0.042 0.074-0.598 0.653-1.232 1.286-0.637 0.634-1.155 1.162-1.155 1.174s0.253 0.275 0.563 0.586l0.56 0.56h-2.832c-1.562 0-2.835-0.010-2.835-0.019 0-0.026 5.638-5.677 5.664-5.677 0.010 0 0.301 0.285 0.643 0.63zM9.939 10.48c0.211 0.106 0.56 0.442 0.909 0.874 0.061 0.077 0.138 0.173 0.173 0.208 0.032 0.038 0.096 0.122 0.144 0.182 0.045 0.061 0.093 0.118 0.102 0.128 0.058 0.045 0.71 0.918 0.81 1.085 0.227 0.374 0.278 0.646 0.163 0.918-0.070 0.173-0.294 0.438-0.781 0.931-0.246 0.253-0.474 0.502-0.502 0.56-0.109 0.211-0.058 0.55 0.15 0.966 0.192 0.378 0.659 1.046 0.957 1.363 0.026 0.029 0.147 0.166 0.272 0.307 0.24 0.272 1.277 1.322 1.616 1.629 0.531 0.486 1.187 0.982 1.6 1.21 0.448 0.246 0.864 0.314 1.088 0.179 0.061-0.038 0.285-0.243 0.496-0.458 0.714-0.72 0.922-0.864 1.248-0.864 0.333-0.003 0.627 0.17 1.552 0.902 1.702 1.354 1.866 1.587 1.498 2.147-0.173 0.266-1.632 1.715-1.85 1.837-0.237 0.138-0.454 0.186-0.88 0.198-1.77 0.058-4.394-1.267-6.72-3.392-2.374-2.17-4.083-4.691-4.624-6.832-0.125-0.49-0.144-0.669-0.141-1.2 0.003-0.397 0.013-0.477 0.090-0.698 0.045-0.138 0.118-0.301 0.16-0.362 0.093-0.141 1.28-1.347 1.539-1.571 0.387-0.33 0.637-0.397 0.931-0.25z"></path>
</svg>
