<!-- Generated by IcoMoon.io -->
<svg version="1.1" xmlns="http://www.w3.org/2000/svg" width="32" height="32" viewBox="0 0 32 32">
<title>Car_pooling</title>
<path fill="#ff7900" d="M7.626 8.045c-0.224 0.054-0.499 0.198-0.675 0.355-0.115 0.099-4.925 6.477-5.13 6.8-0.029 0.045-0.086 0.166-0.128 0.272l-0.077 0.192-0.010 3.072c-0.006 3.36-0.016 3.2 0.179 3.6 0.109 0.23 0.451 0.573 0.682 0.685 0.294 0.141 0.467 0.173 1.011 0.179 0.275 0 0.506 0.006 0.509 0.010s0.013 0.122 0.026 0.262c0.074 0.95 0.435 1.779 1.066 2.448 0.563 0.598 1.21 0.976 2.016 1.174 0.301 0.074 0.413 0.083 0.874 0.086 0.582 0.003 0.854-0.042 1.35-0.208 1.267-0.432 2.262-1.536 2.566-2.851 0.074-0.314 0.112-0.589 0.115-0.819v-0.102h7.2l0.003 0.134c0 0.134 0.006 0.173 0.045 0.474 0.070 0.528 0.307 1.13 0.646 1.642 0.211 0.32 0.765 0.864 1.098 1.082 0.717 0.464 1.354 0.653 2.208 0.653 1.088-0.003 1.978-0.355 2.752-1.091 0.755-0.72 1.229-1.77 1.245-2.758l0.003-0.134h0.88c0.515 0 0.947-0.016 1.046-0.035 0.611-0.128 1.123-0.65 1.242-1.261 0.026-0.138 0.032-0.944 0.026-2.816l-0.010-2.624-0.077-0.192c-0.25-0.624-0.73-0.979-1.459-1.082-0.102-0.016-0.864-0.16-1.104-0.211-0.080-0.019-0.541-0.106-1.024-0.195s-0.938-0.176-1.008-0.192c-0.070-0.016-0.208-0.045-0.307-0.061-0.186-0.032-0.24-0.077-0.701-0.579-0.058-0.061-0.205-0.221-0.333-0.352-0.342-0.365-1.117-1.187-1.216-1.296-0.051-0.054-0.288-0.304-0.528-0.56-0.243-0.256-0.48-0.509-0.528-0.56-0.048-0.054-0.192-0.205-0.317-0.336-0.294-0.314-0.598-0.634-1.206-1.28-1.21-1.283-1.165-1.242-1.411-1.373-0.378-0.205-0.058-0.195-5.981-0.192-4.205 0.003-5.427 0.010-5.558 0.042zM12.384 12.064v2.336h-0.982l-0.141-0.131c-0.784-0.73-1.875-0.874-2.813-0.371-0.195 0.106-0.422 0.278-0.544 0.413l-0.077 0.090h-1.533c-0.842 0-1.526-0.013-1.52-0.026 0.006-0.016 0.787-1.069 1.738-2.336l1.725-2.31h4.147v2.336zM18.672 10.067c0.176 0.189 0.349 0.371 0.381 0.41 0.035 0.035 0.179 0.189 0.32 0.339 0.291 0.307 0.566 0.598 1.219 1.296 0.246 0.262 0.563 0.602 0.707 0.752 0.141 0.15 0.371 0.394 0.512 0.544 0.138 0.147 0.349 0.371 0.467 0.496 0.115 0.122 0.266 0.282 0.33 0.352l0.115 0.128-3.651 0.016-0.086-0.090c-0.288-0.288-0.72-0.538-1.107-0.634-0.346-0.090-0.918-0.083-1.251 0.016-0.378 0.109-0.723 0.31-1.005 0.576l-0.134 0.131h-0.704v-4.672h3.568l0.32 0.339z"></path>
<path fill="#ff7900" d="M9.376 10.829c-0.854 0.147-1.261 1.181-0.736 1.878 0.541 0.72 1.635 0.621 2.032-0.182 0.33-0.662-0.054-1.517-0.752-1.674-0.253-0.054-0.333-0.061-0.544-0.022z"></path>
<path fill="#ff7900" d="M17.056 10.822c-0.31 0.054-0.646 0.294-0.819 0.586-0.166 0.285-0.195 0.704-0.074 1.018 0.342 0.877 1.498 1.040 2.070 0.291 0.307-0.397 0.32-0.989 0.029-1.402-0.262-0.378-0.749-0.576-1.206-0.493z"></path>
</svg>
