<!-- Generated by IcoMoon.io -->
<svg version="1.1" xmlns="http://www.w3.org/2000/svg" width="32" height="32" viewBox="0 0 32 32">
<title>Car_park</title>
<path fill="#ff7900" d="M6.669 4.048c-0.826 0.15-1.53 0.576-2.013 1.216-0.272 0.362-0.435 0.707-0.582 1.232-0.054 0.198-0.058 0.614-0.058 9.504v9.296l0.086 0.31c0.298 1.078 1.094 1.914 2.154 2.25 0.138 0.042 0.355 0.093 0.486 0.112 0.16 0.022 3.216 0.032 9.27 0.032 9.939 0 9.29 0.013 9.875-0.195 0.15-0.051 0.374-0.154 0.496-0.227 0.752-0.442 1.254-1.088 1.507-1.946l0.093-0.304 0.010-9.136c0.010-6.829 0-9.203-0.026-9.408-0.16-1.165-0.906-2.122-1.987-2.557-0.099-0.038-0.288-0.102-0.416-0.141l-0.237-0.070-9.216-0.003c-7.398-0.006-9.261 0-9.443 0.035zM18.621 8.845c1.222 0.176 2.166 0.618 2.864 1.344 0.755 0.787 1.165 1.866 1.181 3.117 0.016 1.206-0.291 2.237-0.902 3.027-0.595 0.768-1.533 1.331-2.579 1.555-0.63 0.134-0.806 0.141-2.95 0.144h-1.866v5.168h-3.168v-14.403l3.642 0.013c2 0.010 3.702 0.022 3.779 0.035z"></path>
<path fill="#ff7900" d="M14.522 11.258l-0.154 0.010v4.314l1.418-0.003c1.437-0.003 1.76-0.019 2.211-0.109 1.082-0.211 1.642-0.96 1.603-2.141-0.016-0.522-0.093-0.813-0.298-1.136-0.362-0.573-1.014-0.861-2.070-0.915-0.432-0.022-2.445-0.035-2.71-0.019z"></path>
</svg>
