<!-- Generated by IcoMoon.io -->
<svg version="1.1" xmlns="http://www.w3.org/2000/svg" width="32" height="32" viewBox="0 0 32 32">
<title>Casting</title>
<path fill="#ff7900" d="M8.074 2.448c-0.333 0.093-0.598 0.323-0.758 0.656l-0.099 0.208-0.010 5.542-0.006 5.542-1.488 0.019-0.208 0.099c-0.253 0.122-0.454 0.314-0.586 0.573-0.090 0.176-0.099 0.221-0.102 0.496 0 0.266 0.010 0.326 0.086 0.49 0.157 0.336 0.39 0.55 0.72 0.659 0.189 0.064 0.266 0.067 1.638 0.067h1.44l4.634 4.634 0.851-0.848 0.848-0.851-1.466-1.469-1.469-1.466h3.488c1.917 0 3.485 0.006 3.485 0.016 0 0.006-2.442 2.458-5.427 5.44-5.126 5.13-5.43 5.44-5.526 5.642-0.090 0.192-0.102 0.246-0.102 0.502 0 0.246 0.013 0.314 0.086 0.474 0.048 0.102 0.128 0.234 0.173 0.288 0.355 0.422 0.934 0.55 1.434 0.317 0.189-0.090 0.653-0.544 6.486-6.378l6.285-6.285 3.808-0.032 0.208-0.099c0.554-0.266 0.832-0.893 0.643-1.45-0.118-0.342-0.304-0.55-0.643-0.717l-0.205-0.102-1.491-0.019-0.006-5.542-0.010-5.542-0.099-0.208c-0.125-0.266-0.323-0.464-0.589-0.589-0.186-0.090-0.24-0.099-0.496-0.099s-0.31 0.010-0.499 0.099c-0.262 0.125-0.454 0.32-0.586 0.589-0.086 0.186-0.099 0.246-0.109 0.55l-0.013 0.346h-12.784l-0.016-0.346c-0.013-0.301-0.026-0.371-0.112-0.554-0.25-0.531-0.851-0.81-1.408-0.653zM16.118 5.046c0.365 0.784 0.563 1.162 0.611 1.165 0.029 0 0.083 0.006 0.118 0.013s0.157 0.026 0.272 0.048c0.115 0.019 0.413 0.067 0.666 0.109s0.464 0.080 0.467 0.086c0.006 0.006-0.253 0.246-0.576 0.534s-0.589 0.541-0.589 0.56c0 0.022 0.086 0.378 0.189 0.79 0.106 0.413 0.182 0.758 0.176 0.765s-0.333-0.163-0.723-0.378l-0.714-0.39-0.192 0.096c-0.182 0.093-0.355 0.186-1.018 0.55-0.208 0.112-0.278 0.141-0.266 0.099 0.006-0.029 0.096-0.39 0.198-0.803l0.186-0.749-0.16-0.147c-0.237-0.218-0.608-0.547-0.835-0.742-0.16-0.138-0.189-0.176-0.144-0.192 0.029-0.010 0.39-0.074 0.8-0.141l0.746-0.125 0.218-0.448c0.118-0.25 0.266-0.557 0.323-0.685 0.061-0.125 0.118-0.23 0.128-0.23s0.064 0.096 0.118 0.214zM22.4 12.4v2h-12.8v-4h12.8v2z"></path>
<path fill="#ff7900" d="M17.002 23.43l-0.835 0.835 2.515 2.515c1.386 1.386 2.57 2.554 2.63 2.602 0.061 0.045 0.205 0.115 0.32 0.154 0.563 0.192 1.19-0.086 1.453-0.64 0.090-0.186 0.099-0.24 0.099-0.496s-0.013-0.314-0.102-0.502c-0.096-0.205-0.262-0.378-2.646-2.762-1.398-1.398-2.554-2.544-2.57-2.544-0.013 0-0.403 0.378-0.864 0.838z"></path>
</svg>
