<!-- Generated by IcoMoon.io -->
<svg version="1.1" xmlns="http://www.w3.org/2000/svg" width="32" height="32" viewBox="0 0 32 32">
<title>Categories</title>
<path fill="#ff7900" d="M3.2 15.094c0 10.566-0.019 9.706 0.227 10.211 0.243 0.502 0.723 0.883 1.296 1.030 0.243 0.064 0.41 0.064 12.163 0.064h11.914v-7.898c0-6.806-0.006-7.926-0.048-8.118-0.154-0.73-0.736-1.331-1.475-1.52-0.243-0.064-0.368-0.064-6.56-0.064h-6.31l-0.070-0.090c-0.038-0.048-0.579-0.765-1.197-1.59l-1.13-1.504-8.81-0.016v9.494zM19.2 17.2v2.8h-5.6v-5.6h5.6v2.8zM24 14.432c1.024 0.144 1.904 0.87 2.246 1.856 0.166 0.477 0.189 1.126 0.061 1.616-0.381 1.443-1.83 2.342-3.267 2.032-0.592-0.128-1.002-0.352-1.424-0.781-0.576-0.582-0.854-1.312-0.803-2.118 0.096-1.635 1.562-2.835 3.187-2.605zM8.851 14.486c0.019 0.032 0.083 0.144 0.141 0.25s0.115 0.205 0.128 0.224c0.013 0.016 0.061 0.096 0.102 0.176 0.083 0.147 0.733 1.29 2.029 3.552l0.742 1.296-1.597 0.010c-0.88 0.003-2.317 0.003-3.194 0l-1.597-0.010 0.176-0.304c0.096-0.166 0.218-0.378 0.266-0.464 0.051-0.090 0.275-0.483 0.502-0.88s0.822-1.437 1.322-2.314c0.499-0.874 0.918-1.59 0.928-1.59s0.032 0.026 0.051 0.054z"></path>
</svg>
