<!-- Generated by IcoMoon.io -->
<svg version="1.1" xmlns="http://www.w3.org/2000/svg" width="32" height="32" viewBox="0 0 32 32">
<title>CD</title>
<path fill="#ff7900" d="M15.194 2.416c-0.003 0.003-0.147 0.019-0.314 0.029-0.166 0.013-0.333 0.029-0.368 0.035s-0.134 0.022-0.224 0.032c-0.211 0.022-0.342 0.045-0.832 0.125-0.035 0.003-0.099 0.019-0.144 0.029s-0.218 0.051-0.384 0.086c-0.592 0.131-1.597 0.445-2 0.624-0.051 0.026-0.189 0.083-0.304 0.128-0.307 0.128-1.117 0.534-1.469 0.742-1.024 0.602-1.907 1.283-2.752 2.122-1.437 1.43-2.534 3.162-3.226 5.088-0.24 0.675-0.493 1.648-0.586 2.266-0.080 0.509-0.093 0.611-0.112 0.822-0.013 0.122-0.029 0.266-0.038 0.32-0.029 0.182-0.035 1.795-0.010 2.112 0.032 0.368 0.096 0.963 0.115 1.056 0.010 0.035 0.045 0.23 0.080 0.432 0.301 1.725 1.005 3.475 2.010 5.008 0.115 0.176 0.221 0.333 0.237 0.352 0.013 0.016 0.125 0.17 0.25 0.336 0.762 1.018 1.658 1.914 2.669 2.678 0.806 0.605 1.299 0.912 2.195 1.36 1.203 0.598 2.765 1.088 4.013 1.254 0.070 0.010 0.23 0.032 0.352 0.048 0.611 0.083 2.118 0.115 2.736 0.058 1.494-0.138 2.755-0.438 4.048-0.963 0.662-0.272 1.507-0.701 2.032-1.037 0.522-0.333 1.107-0.749 1.379-0.979 0.064-0.054 0.186-0.157 0.272-0.227s0.256-0.221 0.381-0.336c2.144-1.997 3.552-4.49 4.122-7.296 0.102-0.493 0.176-0.963 0.202-1.28 0.010-0.131 0.026-0.275 0.035-0.32 0.029-0.144 0.035-1.798 0.006-2.112-0.035-0.435-0.093-0.918-0.125-1.104-0.016-0.090-0.045-0.253-0.064-0.368-0.262-1.485-0.89-3.165-1.667-4.454-0.189-0.31-0.525-0.835-0.582-0.906-0.013-0.019-0.131-0.176-0.266-0.352-1.642-2.195-3.955-3.859-6.589-4.736-0.874-0.291-1.99-0.531-2.832-0.611-0.115-0.010-0.25-0.026-0.304-0.035-0.106-0.016-1.923-0.042-1.942-0.026zM11.498 5.126c0.138 0.339 0.368 0.893 1.219 2.947 0.451 1.088 0.819 1.987 0.816 2 0 0.013-0.17 0.106-0.378 0.205-0.643 0.314-1.133 0.662-1.674 1.2-0.234 0.23-0.32 0.301-0.352 0.275-0.064-0.048-2.067-1.584-2.163-1.658-1.030-0.774-2.198-1.696-2.198-1.728 0-0.054 0.544-0.666 0.874-0.979 0.96-0.915 1.859-1.552 2.982-2.106 0.624-0.31 0.71-0.352 0.755-0.352 0.022-0.003 0.074 0.086 0.118 0.195zM6.912 9.53c0.362 0.278 1.21 0.931 1.888 1.45 1.293 0.992 1.725 1.325 1.827 1.405 0.058 0.045 0.054 0.054-0.074 0.256-0.112 0.182-0.41 0.755-0.448 0.87-0.010 0.029-0.278-0.067-0.861-0.307-0.464-0.192-0.902-0.374-0.973-0.403-0.070-0.032-0.256-0.109-0.416-0.173-0.157-0.064-0.317-0.131-0.352-0.147s-0.221-0.093-0.416-0.173c-0.333-0.138-1.526-0.627-1.958-0.81-0.112-0.045-0.202-0.096-0.202-0.112 0-0.074 0.371-0.832 0.666-1.354 0.163-0.291 0.621-1.008 0.646-1.008 0.010 0 0.31 0.227 0.672 0.506zM16.944 11.293c0.963 0.211 1.741 0.627 2.416 1.29 0.554 0.544 0.957 1.19 1.2 1.926 0.163 0.496 0.218 0.832 0.224 1.411 0.013 0.81-0.138 1.514-0.474 2.189-0.128 0.253-0.413 0.73-0.467 0.771-0.010 0.010-0.077 0.086-0.147 0.176-0.73 0.915-1.901 1.555-3.12 1.709-0.381 0.048-1.149 0.019-1.52-0.061-1.939-0.406-3.414-1.907-3.779-3.84-0.067-0.355-0.083-1.152-0.029-1.52 0.291-2.035 1.811-3.648 3.811-4.048 0.429-0.083 0.464-0.086 1.053-0.080 0.384 0.006 0.592 0.026 0.832 0.077zM22.154 18.547c0.109 0.045 0.243 0.102 0.294 0.125 0.054 0.022 0.349 0.147 0.656 0.272 1.987 0.816 3.946 1.632 3.965 1.651 0.032 0.032-0.438 0.995-0.726 1.485-0.138 0.237-0.512 0.822-0.57 0.893-0.006 0.006-0.099-0.058-0.211-0.144-0.243-0.182-1.19-0.909-1.546-1.181-0.141-0.109-0.739-0.566-1.328-1.021-1.555-1.19-1.386-1.043-1.322-1.139 0.102-0.147 0.387-0.678 0.464-0.851 0.042-0.096 0.086-0.173 0.099-0.173s0.115 0.038 0.224 0.083zM20.95 20.298c0.048 0.042 0.211 0.17 0.362 0.285s0.963 0.739 1.808 1.386c0.845 0.65 1.667 1.28 1.824 1.402 0.16 0.118 0.294 0.234 0.298 0.25 0.026 0.067-0.87 1.008-1.354 1.427-0.915 0.787-1.949 1.446-3.002 1.91-0.154 0.070-0.285 0.118-0.294 0.112-0.006-0.010-0.208-0.49-0.451-1.069-0.24-0.582-0.65-1.568-0.909-2.192-0.797-1.926-0.787-1.898-0.736-1.914 0.134-0.045 0.752-0.374 0.976-0.522 0.39-0.253 0.64-0.454 1.008-0.816 0.186-0.182 0.346-0.333 0.358-0.333 0.010 0 0.061 0.032 0.112 0.074z"></path>
<path fill="#ff7900" d="M15.6 12.019c-0.563 0.074-0.96 0.192-1.405 0.416-0.659 0.333-1.194 0.819-1.578 1.437-0.413 0.669-0.595 1.293-0.598 2.064-0.003 0.525 0.019 0.73 0.125 1.114 0.186 0.685 0.512 1.242 1.040 1.766 0.56 0.563 1.267 0.954 1.952 1.085 0.115 0.022 0.272 0.054 0.352 0.070 0.25 0.048 1.037 0.013 1.376-0.067 1.059-0.24 1.984-0.899 2.534-1.808 0.262-0.432 0.429-0.835 0.502-1.232 0.022-0.115 0.054-0.272 0.067-0.352 0.045-0.23 0.016-1.008-0.045-1.296-0.166-0.765-0.496-1.402-1.005-1.942-0.573-0.605-1.277-1.008-2.070-1.181-0.275-0.061-1.018-0.106-1.248-0.074zM16.566 14.509c1.117 0.438 1.386 1.866 0.502 2.675-0.525 0.477-1.331 0.547-1.933 0.16-0.285-0.182-0.512-0.47-0.65-0.826-0.058-0.154-0.070-0.24-0.067-0.534 0.003-0.298 0.016-0.384 0.086-0.554 0.202-0.493 0.614-0.858 1.12-0.986 0.246-0.064 0.694-0.035 0.941 0.064z"></path>
</svg>
