<!-- Generated by IcoMoon.io -->
<svg version="1.1" xmlns="http://www.w3.org/2000/svg" width="32" height="32" viewBox="0 0 32 32">
<title>Change_wallpaper_1</title>
<path fill="#ff7900" d="M9.226 2.445c-0.579 0.141-1.069 0.646-1.19 1.229-0.051 0.24-0.051 24.413 0 24.653 0.125 0.598 0.64 1.114 1.238 1.238 0.24 0.051 13.213 0.051 13.453 0 0.598-0.125 1.114-0.64 1.238-1.238 0.051-0.24 0.051-24.413 0-24.653-0.125-0.598-0.64-1.114-1.238-1.238-0.259-0.054-13.274-0.045-13.501 0.010zM17.398 3.264c0.115 0.070 0.202 0.211 0.202 0.336s-0.086 0.266-0.202 0.336c-0.096 0.061-0.17 0.064-1.392 0.064-1.424 0-1.421 0-1.542-0.202-0.115-0.189-0.058-0.416 0.138-0.534 0.096-0.061 0.17-0.064 1.398-0.064s1.302 0.003 1.398 0.064zM16.973 10.227l5.427 5.427v1.933c0 1.062-0.006 1.933-0.013 1.933-0.010 0-0.189-0.176-0.4-0.39l-0.387-0.387v-1.142h-1.142l-3.658-3.654v-1.146h-1.146l-3.654-3.658v-1.142h-1.146l-0.627-0.627-0.627-0.63v-1.942h1.942l5.43 5.427zM18.173 6.627l1.827 1.83v1.142h1.142l1.258 1.258v1.93c0 1.062-0.006 1.933-0.013 1.933-0.010 0-9.818-9.805-9.878-9.875-0.032-0.038 0.266-0.045 1.898-0.045h1.936l1.83 1.827zM22.4 7.36c0 1.408-0.006 2.56-0.013 2.56-0.010 0-0.189-0.176-0.4-0.39l-0.387-0.387v-1.142h-1.142l-1.552-1.549c-0.851-0.854-1.568-1.574-1.59-1.6-0.038-0.048 0.198-0.051 2.522-0.051h2.563v2.56zM10.013 8.067l0.387 0.39v1.142h1.142l1.83 1.827 1.827 1.83v1.142h1.142l3.658 3.658v1.142h1.142l0.627 0.627 0.63 0.627v3.875l-0.067-0.061c-0.038-0.032-2.918-2.909-6.4-6.394l-6.333-6.333v-1.93c0-1.062 0.006-1.933 0.013-1.933s0.186 0.176 0.4 0.387zM22.4 25.827v0.573h-2.742l-1.43-1.427-1.427-1.427v-1.146h-1.146l-3.654-3.658v-1.142h-1.142l-0.63-0.627-0.627-0.627v-3.891l12.8 12.803v0.57zM10.4 18.627v0.573h1.142l1.83 1.827 1.827 1.83v1.142h1.142l1.117 1.117c0.614 0.614 1.152 1.155 1.194 1.2l0.077 0.083h-3.872l-2.63-2.627-2.627-2.63v-3.888l0.4 0.403 0.4 0.4v0.57zM11.734 24.192c1.162 1.162 2.131 2.131 2.154 2.16 0.035 0.042-0.186 0.048-2.125 0.048h-2.163v-2.16c0-1.187 0.006-2.16 0.013-2.16s0.96 0.95 2.122 2.112zM16.397 27.309c0.275 0.16 0.422 0.448 0.39 0.765-0.038 0.397-0.317 0.672-0.72 0.717-0.557 0.058-1.008-0.512-0.819-1.043 0.086-0.246 0.282-0.442 0.522-0.518 0.16-0.051 0.47-0.013 0.627 0.080z"></path>
</svg>
