<!-- Generated by IcoMoon.io -->
<svg version="1.1" xmlns="http://www.w3.org/2000/svg" width="32" height="32" viewBox="0 0 32 32">
<title>change_wallpaper</title>
<path fill="#ff7900" d="M9.226 2.445c-0.579 0.141-1.069 0.646-1.19 1.229-0.051 0.24-0.051 24.413 0 24.653 0.125 0.598 0.64 1.114 1.238 1.238 0.122 0.026 2.067 0.035 6.736 0.035 5.715 0 6.592-0.006 6.752-0.048 0.605-0.157 1.078-0.64 1.203-1.226 0.026-0.118 0.035-1.091 0.035-3.19v-3.021l-0.762-0.762c-0.422-0.419-0.784-0.778-0.81-0.8-0.038-0.032-0.045 0.237-0.038 1.866 0.003 1.046-0.003 1.901-0.013 1.901s-1.002-0.986-2.208-2.189l-2.192-2.192-0.224 0.227-0.224 0.23 2.429 2.422 2.426 2.426 0.006 0.576 0.003 0.579h-2.758l-2.835-2.848v-1.152h-1.158l-3.642-3.648v-1.152h-1.142l-0.63-0.621-0.627-0.624v-3.904l3.581 3.581c1.968 1.971 3.59 3.584 3.6 3.584s0.019-0.192 0.019-0.429v-0.432l-7.2-7.2 0.006-1.946 0.010-1.942 0.394 0.397 0.39 0.397v1.139h1.136l1.834 1.824 1.83 1.827v1.149h1.6v-1.6h-1.152l-3.648-3.648v-1.152h-1.142l-1.258-1.245v-1.955h1.936l5.901 5.901 0.227-0.118c0.128-0.064 0.256-0.118 0.288-0.118 0.035 0 0.067-0.013 0.077-0.029 0.010-0.013-1.242-1.29-2.781-2.832l-2.8-2.803h3.888l3.664 3.658v1.142h1.136l0.8 0.8h2.064v-3.29c0-3.587 0.006-3.446-0.186-3.84-0.112-0.234-0.448-0.573-0.678-0.685-0.413-0.198 0.074-0.186-7.155-0.182-5.155 0.003-6.624 0.010-6.755 0.042zM17.373 3.245c0.269 0.141 0.285 0.534 0.029 0.691-0.102 0.064-0.147 0.064-1.44 0.058l-1.338-0.010-0.099-0.102c-0.080-0.077-0.106-0.134-0.115-0.256-0.016-0.138-0.006-0.17 0.074-0.262 0.048-0.058 0.118-0.118 0.154-0.131 0.038-0.016 0.646-0.029 1.357-0.029 1.066-0.003 1.306 0.006 1.379 0.042zM22.4 7.36c0 1.408-0.006 2.56-0.016 2.56-0.006 0-0.186-0.173-0.4-0.384l-0.384-0.384v-1.152h-1.168l-1.597-1.6-1.594-1.6h5.158v2.56zM10.013 17.67l0.387 0.394v1.136h1.136l3.664 3.654v1.146h1.136l2.4 2.4h-3.891l-5.245-5.245v-1.939c0-1.066 0.006-1.936 0.013-1.936s0.189 0.176 0.4 0.39zM11.786 24.243c1.165 1.171 2.125 2.134 2.131 2.144 0.006 0.006-0.96 0.013-2.15 0.013h-2.166v-2.163c0-1.475 0.010-2.154 0.032-2.141 0.019 0.013 0.989 0.979 2.154 2.147zM16.304 27.277c0.214 0.099 0.349 0.24 0.426 0.445 0.125 0.33 0.016 0.714-0.262 0.912-0.179 0.128-0.301 0.163-0.525 0.154-0.445-0.019-0.774-0.4-0.733-0.851 0.048-0.554 0.605-0.89 1.094-0.659z"></path>
<path fill="#ff7900" d="M18.131 11.248c-0.186 0.064-0.346 0.211-0.445 0.403l-0.086 0.173 0.006 3.677 0.010 3.677 1.136-1.139 1.136-1.142 2.23 2.218c1.226 1.216 2.307 2.314 2.403 2.438 1.069 1.37 1.446 3.139 1.030 4.835-0.080 0.32-0.272 0.848-0.397 1.098-0.038 0.070-0.067 0.144-0.067 0.16 0 0.045 0.093 0.131 0.141 0.131 0.035 0 1.622-1.574 1.917-1.904 1.619-1.808 2.064-4.406 1.146-6.682-0.128-0.317-0.227-0.515-0.429-0.854-0.378-0.637-0.531-0.806-2.595-2.854l-1.987-1.978 1.13-1.126c0.618-0.621 1.136-1.139 1.149-1.155 0.010-0.013-1.629-0.022-3.642-0.022-3.030 0.003-3.683 0.010-3.786 0.048z"></path>
</svg>
