<!-- Generated by IcoMoon.io -->
<svg version="1.1" xmlns="http://www.w3.org/2000/svg" width="32" height="32" viewBox="0 0 32 32">
<title>charger</title>
<path fill="#ff7900" d="M12.074 2.448c-0.397 0.109-0.72 0.435-0.826 0.835-0.042 0.16-0.048 0.618-0.048 3.251v3.066h-0.861c-0.931 0-1.018 0.013-1.238 0.179-0.061 0.048-0.15 0.154-0.198 0.234l-0.086 0.147-0.006 3.568c-0.003 3.734 0 3.846 0.138 4.528 0.438 2.157 1.894 4.032 3.898 5.011 0.41 0.202 1.152 0.474 1.437 0.525l0.118 0.022v5.786h3.2v-5.786l0.122-0.022c0.131-0.022 0.752-0.221 0.95-0.301 0.493-0.202 1.171-0.576 1.562-0.864 0.733-0.541 1.386-1.245 1.875-2.016 0.48-0.755 0.909-1.917 1.011-2.739 0.013-0.090 0.029-0.195 0.042-0.24 0.010-0.045 0.022-1.728 0.029-3.744l0.010-3.664-0.090-0.176c-0.099-0.195-0.294-0.362-0.48-0.416-0.067-0.016-0.483-0.032-0.973-0.032h-0.854l-0.010-3.162-0.010-3.158-0.102-0.192c-0.176-0.333-0.381-0.512-0.704-0.621-0.451-0.154-0.938-0.026-1.267 0.333-0.051 0.051-0.138 0.189-0.192 0.304l-0.102 0.208-0.010 3.142-0.006 3.146h-4.8l-0.006-3.146-0.010-3.142-0.102-0.214c-0.256-0.541-0.826-0.806-1.408-0.65zM17.565 12.134c-0.016 0.058-0.189 0.659-0.384 1.338-0.192 0.678-0.371 1.302-0.4 1.392-0.026 0.086-0.109 0.374-0.182 0.64l-0.138 0.48 1.354 0.010c0.746 0.003 1.354 0.016 1.354 0.026 0 0.016-0.499 0.602-1.341 1.581-0.16 0.186-1.334 1.558-1.456 1.696-0.058 0.070-0.486 0.57-0.71 0.832-0.038 0.045-0.31 0.362-0.605 0.704s-0.56 0.65-0.592 0.682c-0.038 0.045 0.032-0.25 0.246-0.992 0.166-0.576 0.336-1.181 0.381-1.338 0.042-0.16 0.16-0.576 0.262-0.928l0.186-0.64-1.37-0.010-1.37-0.006 0.691-0.81c0.381-0.442 0.73-0.851 0.778-0.902 0.045-0.054 0.81-0.941 1.696-1.978 0.886-1.034 1.616-1.878 1.619-1.878 0.006 0-0.003 0.048-0.019 0.102z"></path>
</svg>
