<!-- Generated by IcoMoon.io -->
<svg version="1.1" xmlns="http://www.w3.org/2000/svg" width="32" height="32" viewBox="0 0 32 32">
<title>check_your_balance</title>
<path fill="#ff7900" d="M15.293 2.413c-0.006 0.006-0.176 0.019-0.374 0.032s-0.378 0.029-0.4 0.035c-0.022 0.006-0.118 0.019-0.214 0.032-0.522 0.054-1.398 0.23-1.952 0.387-2.595 0.739-4.864 2.182-6.637 4.221-0.477 0.55-1.178 1.533-1.459 2.048-0.058 0.106-0.115 0.205-0.128 0.224-0.016 0.016-0.141 0.262-0.282 0.544-2.045 4.096-1.888 8.957 0.416 12.906 0.819 1.402 1.984 2.758 3.219 3.744 0.39 0.31 1.504 1.094 1.555 1.094 0.006 0 0.138 0.074 0.294 0.163 0.845 0.486 1.866 0.915 2.886 1.213 0.57 0.166 1.405 0.352 1.798 0.397 0.080 0.010 0.202 0.026 0.275 0.035 0.493 0.074 1.040 0.102 1.837 0.096 0.483-0.006 0.954-0.019 1.040-0.029 0.090-0.010 0.218-0.026 0.288-0.035 0.070-0.006 0.214-0.022 0.32-0.035 0.707-0.074 1.802-0.33 2.64-0.618 1.971-0.672 3.718-1.763 5.2-3.248 1.734-1.738 2.925-3.798 3.552-6.147 0.205-0.765 0.317-1.437 0.419-2.512 0.026-0.269 0.026-1.651 0-1.92-0.013-0.115-0.029-0.282-0.038-0.368-0.013-0.163-0.093-0.771-0.125-0.976-0.16-1.002-0.64-2.547-1.056-3.392-0.048-0.096-0.131-0.269-0.186-0.384-0.81-1.674-2.205-3.379-3.77-4.618-1.456-1.149-3.184-2-5.005-2.47-0.694-0.179-1.258-0.278-2.208-0.387-0.173-0.019-1.888-0.048-1.907-0.032zM17.072 4.842c0.035 0.010 0.15 0.026 0.256 0.035 0.163 0.019 0.528 0.074 0.896 0.138 0.208 0.035 1.075 0.269 1.376 0.371 2.154 0.733 4.051 2.115 5.411 3.946 0.15 0.202 0.266 0.378 0.256 0.394s-0.144 0.099-0.298 0.189c-0.157 0.086-0.512 0.291-0.794 0.454-0.739 0.429-0.941 0.544-0.954 0.544-0.006 0-0.147-0.17-0.314-0.374-0.304-0.381-0.787-0.89-1.13-1.187-0.202-0.176-0.243-0.195-0.243-0.118 0 0.026-0.035 0.15-0.077 0.278-0.045 0.128-0.259 0.803-0.483 1.498-0.221 0.694-0.474 1.478-0.56 1.744-0.086 0.262-0.243 0.762-0.352 1.104-0.112 0.342-0.246 0.768-0.304 0.944-0.125 0.378-0.502 1.555-0.614 1.92-0.24 0.778-0.541 1.267-1.056 1.712-1.094 0.941-2.717 1.018-3.907 0.186-0.851-0.598-1.35-1.555-1.357-2.602 0-0.538 0.096-0.966 0.326-1.43 0.195-0.39 0.307-0.541 0.861-1.13 0.198-0.214 0.813-0.88 0.883-0.96 0.019-0.019 0.125-0.134 0.24-0.259 0.301-0.323 0.512-0.55 0.957-1.037 0.221-0.237 0.48-0.518 0.576-0.624 0.154-0.163 0.406-0.435 1.475-1.597 0.080-0.086 0.16-0.173 0.179-0.192 0.394-0.419 0.877-0.957 0.877-0.976 0-0.061-0.966-0.342-1.584-0.464-0.925-0.186-2.298-0.179-3.264 0.010-2.141 0.419-4.035 1.6-5.363 3.347-1.139 1.494-1.766 3.37-1.766 5.28-0.003 0.378 0.032 0.979 0.061 1.091 0.019 0.080 0.080 0.042-1.379 0.886-0.438 0.256-0.81 0.458-0.822 0.445-0.022-0.026-0.173-0.912-0.202-1.19-0.042-0.403-0.054-0.682-0.058-1.152-0.003-0.448 0.032-1.238 0.058-1.28 0.003-0.010 0.016-0.102 0.029-0.208 0.115-1.098 0.502-2.384 1.059-3.52 1.299-2.643 3.61-4.678 6.413-5.651 0.323-0.112 1.062-0.32 1.286-0.362 0.042-0.006 0.198-0.035 0.349-0.064 0.378-0.070 0.669-0.109 1.024-0.134 0.166-0.010 0.31-0.026 0.317-0.032 0.016-0.016 1.638 0.013 1.715 0.029zM26.282 11.52c0.71 1.632 1.021 3.402 0.909 5.206-0.019 0.317-0.042 0.515-0.102 0.97-0.038 0.262-0.122 0.691-0.141 0.71-0.010 0.010-0.128-0.045-0.259-0.122-0.131-0.080-0.269-0.157-0.304-0.173-0.035-0.019-0.416-0.237-0.848-0.49-0.755-0.442-0.784-0.461-0.778-0.554 0.003-0.051 0.016-0.214 0.026-0.365 0.093-1.206-0.048-2.371-0.426-3.504-0.070-0.211-0.173-0.483-0.227-0.602-0.054-0.122-0.099-0.24-0.099-0.266 0-0.022 0.054-0.070 0.122-0.106 0.064-0.035 0.528-0.301 1.030-0.592 0.499-0.288 0.912-0.525 0.918-0.522 0.003 0.003 0.083 0.186 0.179 0.406z"></path>
<path fill="#ff7900" d="M21.296 6.746c-0.154 0.17-0.378 0.413-0.493 0.538-0.115 0.122-0.275 0.294-0.355 0.384-0.080 0.086-0.246 0.266-0.368 0.397-0.189 0.205-0.826 0.893-0.928 1.005-0.099 0.109-1.219 1.322-1.248 1.35-0.016 0.019-0.16 0.176-0.32 0.349-0.157 0.173-0.339 0.365-0.4 0.432-0.090 0.096-0.339 0.368-0.72 0.781-0.144 0.16-0.835 0.906-0.976 1.056-0.096 0.102-0.189 0.205-0.208 0.224-0.070 0.080-0.781 0.848-0.938 1.014-0.634 0.672-0.858 1.469-0.65 2.304 0.371 1.485 2.013 2.243 3.379 1.565 0.323-0.16 0.573-0.355 0.8-0.63 0.285-0.342 0.33-0.458 0.902-2.266 0.061-0.195 0.138-0.432 0.17-0.528 0.058-0.176 0.173-0.531 0.618-1.92 0.134-0.413 0.365-1.133 0.515-1.6 0.147-0.467 0.387-1.216 0.531-1.664s0.339-1.053 0.432-1.344c0.378-1.165 0.56-1.741 0.55-1.75-0.006-0.003-0.138 0.131-0.294 0.304z"></path>
</svg>
