<!-- Generated by IcoMoon.io -->
<svg version="1.1" xmlns="http://www.w3.org/2000/svg" width="32" height="32" viewBox="0 0 32 32">
<title>child_protection</title>
<path fill="#ff7900" d="M15.232 2.016c-0.355 0.051-0.858 0.179-1.088 0.275-0.061 0.026-0.285 0.134-0.496 0.237-1.565 0.768-2.646 2.31-2.861 4.080-0.035 0.301-0.019 1.094 0.029 1.392 0.186 1.146 0.707 2.154 1.539 2.966 0.294 0.285 0.419 0.384 0.774 0.621 0.557 0.368 1.286 0.659 1.958 0.784 0.394 0.074 1.315 0.086 1.696 0.026 1.2-0.195 2.218-0.723 3.030-1.568 0.925-0.966 1.424-2.173 1.45-3.501 0.022-1.075-0.221-1.981-0.765-2.864-0.73-1.19-1.888-2.032-3.251-2.362-0.653-0.16-1.328-0.189-2.016-0.086z"></path>
<path fill="#ff7900" d="M11.648 12.134c-0.627 0.384-1.043 0.714-1.472 1.165-0.749 0.79-1.261 1.706-1.536 2.746-0.218 0.826-0.208 0.653-0.208 3.987 0 3.366-0.003 3.315 0.224 4.211 0.672 2.64 2.726 4.723 5.36 5.44 0.749 0.202 1.181 0.253 2.096 0.25 0.63 0 0.915-0.032 1.533-0.16 1.379-0.285 2.71-1.014 3.747-2.054 1.037-1.037 1.731-2.304 2.045-3.725 0.17-0.758 0.176-0.918 0.17-4.090l-0.010-2.928-0.083-0.432c-0.365-1.827-1.392-3.325-2.963-4.31-0.15-0.093-0.285-0.17-0.304-0.17-0.016 0-0.122 0.074-0.23 0.16-1.114 0.886-2.509 1.376-3.936 1.386-0.557 0.003-0.688-0.006-1.184-0.093-1.018-0.173-2.048-0.637-2.883-1.296-0.109-0.086-0.211-0.157-0.224-0.157-0.016 0-0.080 0.032-0.141 0.070zM14.957 16c0.694 0.176 1.251 0.704 1.478 1.395 0.163 0.496 0.115 1.104-0.118 1.565-0.445 0.877-1.44 1.341-2.371 1.104-1.706-0.429-2.17-2.618-0.781-3.696 0.506-0.39 1.171-0.528 1.792-0.368zM16.467 20.291c0.531 0.368 0.902 0.902 1.091 1.565 0.051 0.189 0.058 0.346 0.058 1.632v1.424l-0.086 0.31c-0.163 0.582-0.413 1.014-0.822 1.434-1.226 1.242-3.242 1.248-4.464 0.006-0.4-0.406-0.646-0.826-0.803-1.37-0.112-0.384-0.128-0.656-0.125-1.965 0.006-1.238 0.019-1.376 0.198-1.83 0.176-0.454 0.563-0.941 0.957-1.203l0.17-0.112 0.218 0.147c0.502 0.346 0.941 0.48 1.574 0.483 0.435 0 0.624-0.032 0.992-0.166 0.23-0.083 0.736-0.378 0.787-0.458 0.029-0.048 0.058-0.035 0.256 0.102z"></path>
</svg>
