<!-- Generated by IcoMoon.io -->
<svg version="1.1" xmlns="http://www.w3.org/2000/svg" width="32" height="32" viewBox="0 0 32 32">
<title>Children_channel</title>
<path fill="#ff7900" d="M6.749 5.613c-0.006 0.006-0.086 0.019-0.179 0.032-0.486 0.058-1.034 0.227-1.52 0.47-1.331 0.669-2.246 1.872-2.56 3.363-0.102 0.496-0.099 1.45 0.010 1.91 0.307 1.296 1.005 2.314 2.061 3.018 0.243 0.16 0.79 0.442 0.982 0.502 0.112 0.038 0.115 0.042 0.096 0.157-0.029 0.166-0.029 1.603 0.003 1.894 0.23 2.211 1.069 4.186 2.474 5.827 0.128 0.147 0.928 0.954 1.075 1.078 1.523 1.309 3.456 2.182 5.402 2.435 0.15 0.022 0.323 0.045 0.384 0.054 0.214 0.032 1.587 0.038 1.92 0.010 1.894-0.163 3.795-0.886 5.306-2.022 0.518-0.387 0.678-0.528 1.174-1.027 1.718-1.728 2.736-3.894 2.976-6.339 0.042-0.435 0.045-1.75 0.003-1.939-0.016-0.077-0.006-0.090 0.134-0.141 0.083-0.032 0.275-0.118 0.429-0.195 1.376-0.678 2.342-1.965 2.605-3.469 0.064-0.352 0.083-1.146 0.038-1.462-0.291-1.997-1.731-3.59-3.658-4.035-0.416-0.099-0.493-0.106-1.024-0.118-0.803-0.019-1.491 0.131-2.202 0.483-0.461 0.23-0.902 0.541-1.251 0.883l-0.090 0.093-0.134-0.080c-1.232-0.72-2.691-1.19-4.163-1.341-0.669-0.070-1.722-0.058-2.352 0.026-0.307 0.042-0.378 0.054-0.704 0.118-1.088 0.214-2.298 0.669-3.203 1.206l-0.112 0.067-0.144-0.131c-0.957-0.883-2.061-1.328-3.328-1.334-0.24-0.003-0.442 0-0.448 0.006zM12.573 11.315c1.366 0.554 1.363 2.435-0.006 2.979-0.573 0.224-1.238 0.080-1.69-0.371-0.307-0.31-0.477-0.704-0.477-1.123 0-0.717 0.518-1.376 1.226-1.555 0.256-0.067 0.694-0.035 0.947 0.070zM20.522 11.29c0.64 0.23 1.078 0.845 1.078 1.51 0 0.422-0.166 0.813-0.483 1.13-0.336 0.336-0.746 0.493-1.21 0.461-1.338-0.090-1.984-1.654-1.094-2.653 0.323-0.358 0.749-0.541 1.235-0.525 0.192 0.006 0.349 0.032 0.474 0.077zM17.872 16.758c0.467 0.259 0.653 0.797 0.432 1.251-0.074 0.154-1.638 1.744-1.821 1.846l-0.106 0.064 0.016 0.432c0.026 0.653 0.186 1.053 0.579 1.44 0.355 0.349 0.762 0.531 1.254 0.566 0.518 0.035 0.986-0.122 1.421-0.477 0.186-0.15 0.224-0.17 0.358-0.17 0.128 0 0.17 0.016 0.253 0.099 0.125 0.125 0.157 0.317 0.077 0.448-0.029 0.051-0.134 0.157-0.227 0.237-0.947 0.781-2.269 0.851-3.28 0.17-0.234-0.154-0.669-0.589-0.752-0.749-0.026-0.051-0.058-0.093-0.070-0.093s-0.080 0.080-0.15 0.179c-0.403 0.56-1.043 0.966-1.744 1.098-0.24 0.045-0.902 0.019-1.133-0.042-0.454-0.125-0.922-0.384-1.21-0.675-0.192-0.192-0.198-0.41-0.022-0.579 0.080-0.077 0.125-0.093 0.246-0.093 0.134 0 0.173 0.019 0.358 0.17 0.819 0.669 1.93 0.637 2.659-0.074 0.426-0.413 0.605-0.88 0.605-1.568 0-0.307-0.006-0.333-0.064-0.352-0.109-0.035-1.779-1.718-1.859-1.875-0.061-0.112-0.074-0.192-0.074-0.397 0-0.349 0.102-0.56 0.368-0.762 0.24-0.179 0.218-0.179 2.061-0.173 1.69 0.006 1.696 0.006 1.824 0.077z"></path>
</svg>
