<!-- Generated by IcoMoon.io -->
<svg version="1.1" xmlns="http://www.w3.org/2000/svg" width="32" height="32" viewBox="0 0 32 32">
<title>Child</title>
<path fill="#ff7900" d="M15.44 3.235c-0.784 0.134-1.302 0.333-1.872 0.717-0.579 0.39-1.056 0.902-1.386 1.488l-0.080 0.144-0.493 0.019c-0.563 0.026-0.95 0.112-1.344 0.298-0.874 0.419-1.466 1.123-1.741 2.080-0.083 0.282-0.086 0.32-0.099 1.36l-0.016 1.069 0.234-0.019c0.579-0.048 1.085-0.224 1.581-0.55 0.24-0.16 0.666-0.582 0.819-0.816 0.278-0.419 0.48-0.928 0.528-1.328 0.029-0.234 0.045-0.218 0.048 0.042 0.003 0.128 0.006 0.24 0.010 0.253 0.003 0.016 0.019 0.112 0.032 0.218 0.237 1.805 1.635 3.302 3.459 3.699 0.339 0.074 1.13 0.106 1.472 0.058 0.97-0.134 1.837-0.57 2.528-1.261 0.688-0.691 1.149-1.606 1.248-2.493 0.013-0.106 0.029-0.214 0.032-0.24 0.006-0.029 0.013-0.144 0.016-0.259l0.006-0.208 0.042 0.227c0.122 0.675 0.397 1.219 0.861 1.69 0.573 0.586 1.245 0.902 2.061 0.97l0.237 0.019-0.013-1.053c-0.013-1.011-0.016-1.066-0.096-1.363-0.205-0.762-0.694-1.44-1.341-1.859-0.371-0.24-0.701-0.378-1.197-0.493-0.035-0.006-0.282-0.022-0.55-0.032l-0.483-0.019-0.186-0.298c-0.646-1.046-1.795-1.837-2.925-2.013-0.080-0.013-0.173-0.032-0.208-0.038-0.115-0.029-1.021-0.035-1.184-0.006zM11.638 7.27c-0.010 0.026-0.019 0.016-0.019-0.019-0.003-0.035 0.006-0.054 0.016-0.042 0.010 0.010 0.013 0.038 0.003 0.061z"></path>
<path fill="#ff7900" d="M11.814 11.901c-0.454 0.272-0.685 0.454-1.082 0.848-0.694 0.698-1.12 1.456-1.376 2.451-0.125 0.496-0.134 0.723-0.128 2.608 0.006 2.029 0 1.962 0.234 2.442 0.176 0.365 0.464 0.704 0.762 0.899 0.070 0.045 0.134 0.090 0.144 0.099 0.112 0.112 0.605 0.282 0.954 0.326l0.294 0.038v3.274c0 2.237 0.010 3.325 0.035 3.44 0.118 0.582 0.592 1.069 1.19 1.229 0.221 0.058 6.029 0.067 6.301 0.010 0.582-0.125 1.12-0.65 1.229-1.197 0.016-0.070 0.029-0.138 0.032-0.154 0.003-0.013 0.006-1.507 0.010-3.318l0.003-3.296h0.122c0.064 0 0.243-0.029 0.394-0.064 0.918-0.202 1.632-0.918 1.834-1.84 0.074-0.342 0.054-3.814-0.026-4.208-0.304-1.53-1.171-2.778-2.474-3.558-0.17-0.102-0.323-0.186-0.339-0.186s-0.125 0.083-0.243 0.189c-0.72 0.634-1.795 1.126-2.806 1.286-0.304 0.045-1.19 0.064-1.501 0.026-1.082-0.128-2.112-0.563-2.96-1.254-0.131-0.109-0.243-0.208-0.25-0.221-0.022-0.051-0.099-0.022-0.352 0.131z"></path>
</svg>
