<!-- Generated by IcoMoon.io -->
<svg version="1.1" xmlns="http://www.w3.org/2000/svg" width="32" height="32" viewBox="0 0 32 32">
<title>cineday_silhouette</title>
<path fill="#ff7900" d="M24.406 5.043c-0.003 0.003-0.096 0.013-0.202 0.022-0.253 0.026-0.429 0.067-1.456 0.342-0.464 0.125-1.242 0.333-1.725 0.461-0.483 0.131-0.915 0.246-0.96 0.256-0.909 0.25-2.438 0.659-2.864 0.771-0.157 0.042-0.858 0.227-1.552 0.416-1.152 0.31-1.536 0.413-2.928 0.784-0.368 0.099-1.485 0.397-2.768 0.742-0.131 0.035-0.39 0.106-0.576 0.154-0.186 0.051-0.445 0.118-0.576 0.154-0.131 0.038-0.378 0.102-0.544 0.147s-0.384 0.102-0.48 0.128c-1.232 0.33-2.765 0.742-2.992 0.803-0.643 0.17-1.152 0.31-1.158 0.317-0.003 0.003 0.048 0.214 0.115 0.47 0.070 0.253 0.173 0.634 0.227 0.845 0.058 0.211 0.138 0.506 0.176 0.656 0.042 0.15 0.118 0.438 0.173 0.643l0.099 0.368 0.010 5.904c0.006 5.517 0.013 5.914 0.064 6.093 0.205 0.701 0.445 1.117 0.899 1.568 0.387 0.384 0.851 0.65 1.418 0.806l0.314 0.090 21.296 0.016v-14.4l-20.752-0.003 1.84-0.496c1.011-0.272 2.438-0.653 3.168-0.848s1.45-0.39 1.6-0.429c0.56-0.154 1.693-0.458 3.872-1.040 0.659-0.176 1.466-0.394 1.792-0.48s0.752-0.202 0.944-0.253c0.195-0.051 0.899-0.24 1.568-0.419s1.29-0.346 1.376-0.368c0.198-0.054 0.614-0.166 0.848-0.227 0.23-0.064 0.874-0.237 1.36-0.365 0.211-0.054 0.506-0.134 0.656-0.176 0.234-0.064 0.538-0.147 1.030-0.275l0.115-0.029-0.077-0.298c-0.214-0.787-0.326-1.072-0.573-1.443-0.47-0.71-1.322-1.248-2.144-1.36-0.243-0.032-0.618-0.061-0.634-0.048zM24.867 5.875c0.096 0.080 0.224 0.195 0.285 0.25 0.061 0.058 0.416 0.368 0.784 0.688 0.371 0.323 0.726 0.64 0.79 0.701l0.122 0.115-0.33 0.086c-0.179 0.045-0.493 0.128-0.694 0.182-0.563 0.15-1.555 0.419-1.818 0.49l-0.234 0.064-0.090-0.074c-0.086-0.070-1.005-0.874-1.251-1.094-0.061-0.054-0.275-0.243-0.477-0.419-0.355-0.314-0.362-0.32-0.272-0.342 0.224-0.054 1.613-0.426 1.773-0.474 0.307-0.090 1.142-0.314 1.187-0.317 0.026 0 0.128 0.064 0.224 0.144zM19.104 7.904c1.248 1.091 1.536 1.347 1.536 1.37 0 0.013-0.083 0.042-0.182 0.067-0.102 0.022-0.278 0.067-0.394 0.099-0.195 0.054-0.816 0.221-1.901 0.512-0.266 0.070-0.502 0.134-0.531 0.144s-0.141-0.064-0.288-0.195c-0.131-0.115-0.522-0.458-0.864-0.758s-0.63-0.557-0.64-0.566c-0.010-0.010-0.106-0.096-0.218-0.189-0.109-0.096-0.195-0.176-0.189-0.182 0.003-0.003 0.496-0.138 1.094-0.298 1.43-0.384 1.67-0.448 1.824-0.496 0.090-0.029 0.141-0.029 0.176-0.006 0.026 0.019 0.285 0.243 0.576 0.499zM12.611 9.283c0.342 0.307 1.514 1.331 1.712 1.501l0.17 0.144-0.134 0.042c-0.074 0.022-0.32 0.090-0.55 0.15-0.227 0.058-0.525 0.138-0.656 0.173s-0.579 0.157-0.995 0.269l-0.758 0.202-0.25-0.221c-0.294-0.259-0.314-0.275-0.861-0.755-0.227-0.202-0.515-0.451-0.64-0.56-0.122-0.109-0.266-0.234-0.317-0.278-0.090-0.077-0.090-0.086-0.032-0.102 0.032-0.013 0.682-0.186 1.437-0.39 0.758-0.202 1.421-0.381 1.472-0.394 0.118-0.035 0.115-0.035 0.403 0.221zM6.278 10.806c0.077 0.067 0.144 0.128 0.154 0.138s0.173 0.154 0.365 0.32c0.192 0.166 0.4 0.352 0.464 0.406 0.064 0.058 0.32 0.282 0.57 0.496 0.25 0.218 0.454 0.403 0.454 0.413 0.003 0.010-0.122 0.051-0.275 0.090-0.157 0.038-0.317 0.083-0.362 0.099-0.093 0.032-2.381 0.64-2.406 0.64-0.022 0-0.112-0.301-0.25-0.832-0.054-0.221-0.112-0.435-0.128-0.48-0.093-0.275-0.259-0.97-0.237-0.989 0.016-0.016 0.237-0.080 0.493-0.147s0.579-0.154 0.72-0.195c0.141-0.038 0.266-0.074 0.278-0.074 0.016-0.003 0.086 0.051 0.16 0.115zM7.616 15.6l-0.8 1.2h-1.6v-2.4h3.2l-0.8 1.2zM14.016 15.6l-0.8 1.2h-3.2l1.6-2.4h3.2l-0.8 1.2zM20.416 15.6l-0.8 1.2h-3.2l1.6-2.4h3.2l-0.8 1.2zM26.816 15.6l-0.8 1.2h-3.2l1.6-2.4h3.2l-0.8 1.2zM17.117 20.49c0.141 0.298 0.259 0.547 0.259 0.56 0.006 0.109 0.106 0.138 0.963 0.278 0.483 0.080 0.922 0.15 0.973 0.163 0.054 0.010 0.147 0.026 0.208 0.035s0.131 0.026 0.154 0.038c0.032 0.019-0.925 0.899-1.581 1.459l-0.074 0.064 0.285 1.136c0.157 0.624 0.288 1.139 0.288 1.146 0 0.003-0.077-0.032-0.166-0.083-0.093-0.051-0.304-0.17-0.467-0.259-0.16-0.090-0.301-0.163-0.307-0.163-0.010 0-0.099-0.048-0.202-0.109-0.102-0.058-0.285-0.16-0.41-0.227-0.122-0.067-0.294-0.16-0.384-0.208l-0.16-0.086-1.040 0.566c-0.573 0.314-1.043 0.566-1.046 0.563s0.122-0.515 0.278-1.139l0.285-1.136-0.074-0.064c-0.442-0.378-1.613-1.44-1.603-1.453 0.010-0.010 0.042-0.019 0.074-0.026 2.064-0.336 2.24-0.374 2.246-0.496 0-0.013 0.138-0.307 0.307-0.656 0.166-0.349 0.365-0.762 0.438-0.918l0.131-0.285 0.182 0.381c0.099 0.211 0.298 0.624 0.442 0.918z"></path>
</svg>
