<!-- Generated by IcoMoon.io -->
<svg version="1.1" xmlns="http://www.w3.org/2000/svg" width="32" height="32" viewBox="0 0 32 32">
<title>clock</title>
<path fill="#ff7900" d="M15.194 2.416c-0.003 0.003-0.147 0.019-0.314 0.029-0.166 0.013-0.333 0.029-0.368 0.035s-0.134 0.022-0.224 0.032c-0.211 0.022-0.342 0.045-0.832 0.125-0.035 0.003-0.099 0.019-0.144 0.029s-0.218 0.051-0.384 0.086c-0.592 0.131-1.597 0.445-2 0.624-0.051 0.026-0.189 0.083-0.304 0.128-0.307 0.128-1.117 0.534-1.469 0.742-1.024 0.602-1.907 1.283-2.752 2.122-1.437 1.43-2.534 3.162-3.226 5.088-0.24 0.675-0.493 1.648-0.586 2.266-0.080 0.509-0.093 0.611-0.112 0.822-0.013 0.122-0.029 0.266-0.038 0.32-0.029 0.182-0.035 1.795-0.010 2.112 0.032 0.368 0.096 0.963 0.115 1.056 0.010 0.035 0.045 0.23 0.080 0.432 0.301 1.725 1.005 3.475 2.010 5.008 0.115 0.176 0.221 0.333 0.237 0.352 0.013 0.016 0.125 0.17 0.25 0.336 0.762 1.018 1.658 1.914 2.669 2.678 0.806 0.605 1.299 0.912 2.195 1.36 1.203 0.598 2.765 1.088 4.013 1.254 0.070 0.010 0.23 0.032 0.352 0.048 0.611 0.083 2.118 0.115 2.736 0.058 1.494-0.138 2.755-0.438 4.048-0.963 0.662-0.272 1.507-0.701 2.032-1.037 0.522-0.333 1.107-0.749 1.379-0.979 0.064-0.054 0.186-0.157 0.272-0.227s0.256-0.221 0.381-0.336c2.144-1.997 3.552-4.49 4.122-7.296 0.102-0.493 0.176-0.963 0.202-1.28 0.010-0.131 0.026-0.275 0.035-0.32 0.029-0.144 0.035-1.798 0.006-2.112-0.035-0.435-0.093-0.918-0.125-1.104-0.016-0.090-0.045-0.253-0.064-0.368-0.262-1.485-0.89-3.165-1.667-4.454-0.189-0.31-0.525-0.835-0.582-0.906-0.013-0.019-0.131-0.176-0.266-0.352-1.76-2.358-4.288-4.093-7.149-4.909-0.72-0.205-1.6-0.374-2.272-0.438-0.115-0.010-0.25-0.026-0.304-0.035-0.106-0.016-1.923-0.042-1.942-0.026zM16.48 4.915c0.23 0.109 0.451 0.31 0.55 0.506 0.16 0.31 0.154 0.131 0.154 4.65v4.234l2.192 2.192c1.206 1.206 2.234 2.253 2.288 2.326 0.205 0.278 0.256 0.746 0.128 1.094-0.096 0.253-0.282 0.467-0.528 0.614-0.378 0.221-0.915 0.198-1.264-0.054-0.074-0.054-1.229-1.194-2.566-2.531-2.253-2.256-2.442-2.451-2.534-2.646l-0.099-0.211-0.010-4.621c-0.010-5.037-0.016-4.8 0.166-5.088 0.246-0.381 0.618-0.579 1.075-0.566 0.192 0.003 0.282 0.026 0.448 0.102z"></path>
</svg>
