<!-- Generated by IcoMoon.io -->
<svg version="1.1" xmlns="http://www.w3.org/2000/svg" width="32" height="32" viewBox="0 0 32 32">
<title>cloud_backup</title>
<path fill="#ff7900" d="M18.256 6.451c-0.384 0.045-1.002 0.15-1.184 0.205-1.645 0.486-2.614 1.002-3.715 1.968-0.182 0.157-0.685 0.675-0.819 0.838l-0.17 0.205-0.144-0.022c-0.266-0.042-0.941-0.038-1.2 0.003-1.36 0.218-2.49 1.226-2.88 2.563-0.045 0.157-0.093 0.365-0.106 0.461l-0.022 0.176-0.304 0.051c-1.99 0.339-3.693 1.597-4.614 3.405-0.326 0.643-0.515 1.245-0.634 2.006-0.045 0.307-0.058 0.525-0.048 0.986 0.006 0.326 0.019 0.627 0.026 0.672 0.010 0.045 0.032 0.186 0.051 0.314 0.144 0.966 0.656 2.106 1.312 2.918 0.278 0.346 0.858 0.915 1.107 1.088 0.906 0.627 1.616 0.957 2.474 1.155 0.678 0.154 0.442 0.15 9.494 0.144 4.682-0.003 8.557-0.016 8.608-0.029 0.054-0.013 0.176-0.038 0.272-0.058 0.285-0.054 0.701-0.186 0.976-0.31 1.373-0.621 2.355-1.789 2.717-3.226 0.099-0.4 0.112-0.483 0.134-0.957 0.054-1.005-0.227-2.016-0.803-2.88-0.23-0.346-0.483-0.634-0.845-0.954l-0.138-0.125 0.051-0.259c0.029-0.144 0.058-0.342 0.070-0.438 0.010-0.096 0.026-0.211 0.035-0.256 0.006-0.045 0.019-0.355 0.029-0.688 0.067-2.72-1.082-5.238-3.187-6.995-1.194-0.995-2.784-1.702-4.304-1.917-0.141-0.019-0.298-0.042-0.352-0.051-0.237-0.038-1.523-0.035-1.888 0.006zM17.158 12.419c0.106 0.054 5.21 5.114 5.21 5.165 0 0.010-0.714 0.016-1.584 0.016h-1.581l-0.010 2.518-0.010 2.522-0.090 0.15c-0.102 0.176-0.243 0.294-0.435 0.362-0.202 0.070-3.51 0.074-3.712 0-0.189-0.064-0.346-0.195-0.445-0.365l-0.086-0.147-0.010-2.522-0.006-2.518h-1.584c-0.87 0-1.584-0.006-1.584-0.016 0-0.045 5.101-5.107 5.19-5.155 0.224-0.118 0.518-0.122 0.736-0.010z"></path>
</svg>
