<!-- Generated by IcoMoon.io -->
<svg version="1.1" xmlns="http://www.w3.org/2000/svg" width="32" height="32" viewBox="0 0 32 32">
<title>Coat_hanger</title>
<path fill="#ff7900" d="M15.613 4.813c-0.006 0.006-0.099 0.019-0.205 0.029s-0.333 0.054-0.502 0.099c-0.813 0.214-1.478 0.605-2.067 1.219-0.819 0.848-1.235 1.888-1.229 3.056 0.003 0.442 0.006 0.483 0.090 0.89 0.262 1.28 1.094 2.368 2.301 3.014 0.435 0.23 0.589 0.39 0.726 0.739 0.061 0.157 0.067 0.246 0.070 0.902 0.003 0.4-0.003 0.739-0.013 0.752-0.010 0.016-0.102 0.074-0.208 0.134-0.214 0.118-1.734 0.973-2.445 1.373-0.253 0.144-0.467 0.259-0.477 0.259-0.006 0-0.051 0.026-0.096 0.058-0.048 0.035-0.186 0.115-0.31 0.182-0.122 0.067-0.563 0.31-0.976 0.544-1.021 0.576-0.989 0.56-1.152 0.65-0.080 0.042-0.186 0.102-0.24 0.134-0.051 0.032-0.166 0.096-0.256 0.144-0.086 0.048-0.317 0.176-0.512 0.288-0.538 0.304-3.898 2.192-4.72 2.65-0.912 0.509-1.453 1.174-1.686 2.070-0.275 1.066 0.029 2.211 0.797 3.011 0.467 0.49 1.056 0.803 1.754 0.938 0.358 0.070 23.085 0.070 23.469 0.003 1.034-0.186 1.882-0.822 2.346-1.76 0.458-0.918 0.422-2.099-0.090-2.963-0.362-0.618-0.694-0.915-1.565-1.405-0.55-0.31-1.45-0.816-1.696-0.954-0.16-0.090-2.128-1.197-2.304-1.296-0.061-0.035-0.234-0.131-0.384-0.214-0.253-0.141-4.765-2.675-5.968-3.354-0.298-0.17-0.614-0.346-0.704-0.394l-0.157-0.090-0.006-0.842c-0.006-0.72-0.016-0.886-0.074-1.149-0.243-1.094-0.864-1.914-1.891-2.477-0.57-0.314-0.832-0.57-1.040-1.024-0.141-0.301-0.189-0.522-0.186-0.848 0.013-1.149 0.998-2.061 2.138-1.971 0.509 0.038 0.95 0.246 1.299 0.618s0.512 0.765 0.557 1.338c0.032 0.445 0.163 0.73 0.442 0.954 0.182 0.15 0.294 0.202 0.528 0.25 0.499 0.102 1.037-0.15 1.277-0.602 0.122-0.227 0.16-0.426 0.147-0.762-0.048-1.219-0.627-2.384-1.584-3.19-0.531-0.448-1.232-0.784-1.962-0.941-0.227-0.048-1.197-0.099-1.235-0.064zM16.522 17.894c0.285 0.16 0.582 0.326 0.662 0.371 0.218 0.122 0.848 0.477 1.13 0.634 0.458 0.259 0.739 0.419 1.286 0.726 0.301 0.166 0.602 0.336 0.672 0.378 0.070 0.038 0.301 0.166 0.512 0.285s1.197 0.672 2.192 1.232c0.995 0.56 1.882 1.059 1.968 1.107 1.616 0.896 2.742 1.549 2.838 1.642 0.336 0.333 0.253 0.941-0.16 1.19-0.093 0.054-0.221 0.109-0.285 0.122-0.214 0.035-22.573 0.022-22.726-0.016-0.432-0.099-0.707-0.592-0.566-1.014 0.077-0.224 0.234-0.371 0.662-0.608 0.202-0.109 0.438-0.24 0.525-0.291 0.090-0.048 0.979-0.55 1.984-1.114 1.005-0.566 1.882-1.059 1.952-1.098 0.070-0.042 0.237-0.134 0.368-0.208 0.346-0.192 4.358-2.448 4.816-2.704 0.211-0.122 0.666-0.378 1.008-0.57 0.342-0.195 0.627-0.355 0.634-0.355 0.003-0.003 0.24 0.128 0.528 0.291z"></path>
</svg>
