<!-- Generated by IcoMoon.io -->
<svg version="1.1" xmlns="http://www.w3.org/2000/svg" width="32" height="32" viewBox="0 0 32 32">
<title>Comedy_channel</title>
<path fill="#ff7900" d="M5.603 11.142c0.003 7.517 0.006 7.971 0.061 8.419 0.224 1.779 0.758 3.232 1.722 4.656 1.274 1.891 3.178 3.338 5.334 4.054 0.317 0.106 1.165 0.323 1.36 0.352 0.080 0.010 0.218 0.032 0.304 0.051 0.531 0.112 2.106 0.147 2.752 0.064 1.341-0.17 2.291-0.448 3.424-0.995 1.050-0.512 1.923-1.136 2.768-1.984 0.528-0.525 0.614-0.624 0.97-1.094 0.842-1.123 1.446-2.381 1.782-3.706 0.106-0.419 0.208-0.966 0.24-1.296 0.013-0.125 0.032-0.253 0.042-0.288 0.013-0.035 0.022-2.874 0.029-6.304 0.006-6.682 0.016-6.365-0.15-6.973-0.070-0.269-0.131-0.416-0.31-0.771-0.186-0.362-0.355-0.589-0.714-0.944-0.582-0.586-1.171-0.909-2.016-1.107-0.227-0.054-0.723-0.058-8.922-0.067l-8.678-0.010 0.003 7.942zM11.818 8.864c1.411 0.291 2.461 1.469 2.57 2.89 0.019 0.227 0.013 0.288-0.032 0.358-0.080 0.122-0.186 0.102-0.477-0.093-0.794-0.528-1.642-0.79-2.582-0.806-1.053-0.013-1.91 0.237-2.774 0.806-0.291 0.195-0.397 0.214-0.477 0.093-0.045-0.067-0.051-0.131-0.032-0.365 0.080-1.062 0.704-2.022 1.664-2.56 0.598-0.339 1.44-0.464 2.141-0.323zM21.354 8.851c0.682 0.128 1.235 0.426 1.734 0.925 0.518 0.522 0.848 1.258 0.902 2.010 0.016 0.24 0.013 0.288-0.038 0.342-0.090 0.099-0.195 0.077-0.474-0.109-0.794-0.525-1.616-0.784-2.566-0.803-0.826-0.019-1.488 0.122-2.192 0.461-0.218 0.106-0.589 0.323-0.733 0.432s-0.272 0.109-0.342 0.003c-0.064-0.096-0.048-0.394 0.035-0.8 0.192-0.928 0.861-1.779 1.712-2.182 0.195-0.093 0.547-0.221 0.691-0.25 0.413-0.086 0.902-0.099 1.27-0.029zM10.128 18.029c0.058 0.026 0.189 0.106 0.288 0.179 0.429 0.317 1.184 0.749 1.728 0.986 0.566 0.246 1.434 0.522 1.93 0.614 0.099 0.016 0.214 0.038 0.256 0.048 0.739 0.144 2.128 0.173 2.918 0.064 1.501-0.208 2.874-0.726 4.090-1.549 0.534-0.362 0.576-0.384 0.701-0.368 0.259 0.032 0.368 0.195 0.358 0.534-0.035 1.61-0.682 3.162-1.798 4.307-0.934 0.96-2.147 1.613-3.414 1.84-0.15 0.029-0.314 0.058-0.368 0.070-0.051 0.010-0.378 0.022-0.72 0.029-0.64 0.010-1.040-0.029-1.574-0.157-1.069-0.253-2.147-0.838-2.934-1.597-1.206-1.162-1.888-2.656-1.974-4.326-0.019-0.32-0.013-0.403 0.029-0.483 0.067-0.128 0.189-0.208 0.352-0.234 0.013 0 0.074 0.016 0.134 0.042z"></path>
</svg>
