<!-- Generated by IcoMoon.io -->
<svg version="1.1" xmlns="http://www.w3.org/2000/svg" width="32" height="32" viewBox="0 0 32 32">
<title>Comic</title>
<path fill="#ff7900" d="M18.957 2.403c-3.811 0.294-6.931 1.939-8.102 4.269-0.55 1.098-0.602 2.41-0.141 3.494l0.099 0.234h-8.413v7.747c0 5.382 0.010 7.814 0.035 7.974 0.134 0.909 0.493 1.632 1.117 2.266 0.496 0.506 0.989 0.813 1.638 1.021 0.611 0.195-0.061 0.186 11.043 0.189l10.166 0.003v-16.403l0.442-0.291c1.459-0.966 2.387-2.179 2.666-3.482 0.237-1.117-0.010-2.282-0.704-3.318-0.25-0.371-0.672-0.858-0.947-1.098-0.102-0.090-0.224-0.192-0.269-0.234s-0.227-0.179-0.403-0.31c-1.398-1.024-3.245-1.706-5.373-1.987-0.707-0.093-2.141-0.128-2.854-0.074zM22.688 5.174c0.074 0.39 0.144 0.771 0.192 1.050 0.016 0.086 0.109 0.595 0.205 1.13 0.099 0.531 0.179 0.976 0.179 0.982s0.019 0.006 0.042-0.003c0.026-0.010 0.045-0.064 0.045-0.134 0-0.141 0.042-1.174 0.058-1.494 0.006-0.125 0.022-0.461 0.032-0.752 0.032-0.813 0.042-0.998 0.054-1.011 0.006-0.006 0.288-0.019 0.621-0.032l0.611-0.019-0.106 0.554c-0.058 0.307-0.144 0.742-0.186 0.973-0.291 1.504-0.384 2-0.502 2.624-0.074 0.387-0.134 0.707-0.138 0.71-0.013 0.016-0.224 0.038-0.531 0.058l-0.336 0.022-0.368-0.966c-0.202-0.531-0.41-1.075-0.458-1.21s-0.099-0.256-0.112-0.269c-0.016-0.016-0.138 0.653-0.275 1.485s-0.262 1.542-0.275 1.578c-0.019 0.051-0.112 0.086-0.435 0.17-0.227 0.061-0.445 0.122-0.486 0.138-0.051 0.019-0.077 0.016-0.086-0.013-0.013-0.042-0.224-0.918-0.419-1.744-0.067-0.285-0.134-0.518-0.144-0.518-0.013 0-0.032 0.048-0.042 0.102-0.026 0.141-0.179 0.461-0.317 0.666-0.602 0.893-1.642 1.168-2.451 0.65-0.56-0.358-0.893-1.040-0.899-1.83v-0.24l-0.198 0.205c-0.358 0.362-0.963 0.81-1.411 1.040l-0.186 0.096 0.019 0.643c0.010 0.352 0.022 0.723 0.029 0.822 0.006 0.147 0 0.182-0.042 0.186-0.029 0-0.080 0.006-0.112 0.013-0.035 0.006-0.208 0.016-0.384 0.022l-0.32 0.010-0.006-0.096c-0.003-0.054-0.016-0.246-0.026-0.432s-0.026-0.467-0.035-0.624c-0.010-0.16-0.022-0.381-0.032-0.496s-0.026-0.368-0.035-0.56c-0.010-0.195-0.022-0.416-0.029-0.496s-0.013-0.208-0.013-0.285c-0.003-0.144-0.019-0.154-0.205-0.083-0.035 0.016-0.077-0.109-0.195-0.598-0.083-0.339-0.157-0.64-0.163-0.666-0.026-0.093 1.114-0.688 1.856-0.97 0.989-0.374 1.702-0.346 1.923 0.080 0.077 0.15 0.173 0.506 0.173 0.643v0.122l0.208-0.179c0.586-0.496 1.306-0.608 1.92-0.298 0.141 0.074 0.362 0.237 0.422 0.314 0.029 0.038 0.035 0.022 0.019-0.083-0.013-0.099-0.006-0.134 0.032-0.15 0.026-0.010 0.256-0.176 0.512-0.371s0.48-0.355 0.496-0.355c0.016 0 0.042 0.118 0.054 0.262 0.013 0.147 0.029 0.294 0.035 0.33s0.032 0.259 0.061 0.496c0.026 0.237 0.083 0.742 0.128 1.12s0.102 0.902 0.131 1.168c0.029 0.262 0.067 0.493 0.083 0.512 0.051 0.058 0.080-0.048 0.086-0.314 0.003-0.144 0.013-0.32 0.019-0.39 0.003-0.070 0.019-0.307 0.029-0.528 0.013-0.221 0.029-0.486 0.035-0.592s0.022-0.381 0.032-0.608c0.013-0.23 0.026-0.49 0.032-0.576 0.006-0.090 0.019-0.349 0.032-0.576 0.013-0.23 0.026-0.416 0.029-0.419 0.013-0.010 1.386-0.358 1.414-0.362 0.022-0.003 0.067 0.147 0.109 0.371zM26.323 5.846c-0.010 0.102-0.022 0.381-0.035 0.618-0.010 0.237-0.026 0.512-0.032 0.608s-0.019 0.371-0.032 0.608c-0.010 0.237-0.026 0.525-0.032 0.64s-0.022 0.416-0.035 0.672c-0.010 0.256-0.022 0.486-0.029 0.512-0.003 0.032-0.086 0.064-0.259 0.102-0.432 0.093-0.451 0.093-0.451 0.051 0-0.064-0.045-0.573-0.058-0.698-0.006-0.061-0.022-0.205-0.032-0.32-0.013-0.115-0.026-0.259-0.032-0.32s-0.029-0.301-0.048-0.528c-0.019-0.23-0.042-0.451-0.048-0.496s-0.022-0.202-0.032-0.352c-0.013-0.15-0.026-0.307-0.032-0.352s-0.019-0.205-0.032-0.355l-0.022-0.275 0.378-0.099c0.211-0.054 0.461-0.122 0.557-0.147 0.314-0.083 0.32-0.080 0.307 0.131zM26.154 10.243c0.17 0.086 0.246 0.195 0.246 0.342 0 0.186-0.074 0.333-0.243 0.483-0.323 0.285-0.819 0.272-0.96-0.022-0.163-0.346 0.272-0.822 0.765-0.835 0.067-0.003 0.154 0.013 0.192 0.032zM9.6 20v8h-1.718c-0.986-0.003-1.798-0.016-1.898-0.035-0.352-0.064-0.784-0.256-1.040-0.464-0.237-0.192-0.294-0.253-0.458-0.47-0.189-0.246-0.304-0.483-0.403-0.806l-0.067-0.224-0.010-7.002-0.006-6.998h5.6v8zM12.72 12.608c1.421 1.069 3.443 1.83 5.488 2.067 0.096 0.010 0.182 0.026 0.189 0.032 0.006 0.003-0.080 0.374-0.189 0.819s-0.298 1.213-0.416 1.706c-0.122 0.493-0.218 0.896-0.214 0.902 0.006 0.003 0.202-0.112 0.438-0.259s1.168-0.717 2.064-1.267c0.899-0.55 1.811-1.114 2.032-1.248 1.658-1.027 1.795-1.107 2.208-1.245 0.221-0.077 0.419-0.144 0.442-0.154 0.029-0.013 0.038 0.602 0.038 3.011v3.027h-12.8v-8.006l0.218 0.198c0.118 0.109 0.346 0.298 0.502 0.416zM24.8 25.2v2.8h-12.8v-5.6h12.8v2.8z"></path>
<path fill="#ff7900" d="M15.008 6.442c-0.17 0.048-0.381 0.154-0.56 0.275l-0.128 0.086 0.003 0.4c0.006 0.646 0.026 1.181 0.045 1.213 0.026 0.045 0.49-0.269 0.723-0.486 0.445-0.416 0.618-0.861 0.49-1.261-0.070-0.221-0.285-0.307-0.573-0.227z"></path>
<path fill="#ff7900" d="M17.994 6.979c-0.531 0.096-0.915 0.662-0.861 1.258 0.051 0.541 0.413 0.928 0.87 0.928 0.566 0 1.008-0.509 1.011-1.165 0-0.646-0.474-1.12-1.021-1.021z"></path>
</svg>
