<!-- Generated by IcoMoon.io -->
<svg version="1.1" xmlns="http://www.w3.org/2000/svg" width="32" height="32" viewBox="0 0 32 32">
<title>Comments</title>
<path fill="#ff7900" d="M15.165 2.829c-0.006 0.006-0.157 0.019-0.333 0.029-3.018 0.189-6.026 1.267-8.237 2.96-1.645 1.258-2.858 2.797-3.542 4.496-0.426 1.046-0.621 2.019-0.637 3.142-0.013 0.87 0.054 1.498 0.246 2.272 0.867 3.514 3.968 6.506 8.163 7.875l0.374 0.125v5.491l4.79-4.794 0.624-0.022c0.346-0.013 0.659-0.029 0.701-0.035s0.182-0.019 0.31-0.032c0.131-0.010 0.282-0.022 0.336-0.032 0.058-0.006 0.269-0.035 0.47-0.064 1.558-0.214 3.2-0.707 4.592-1.376 2.618-1.261 4.589-3.139 5.68-5.408 0.416-0.861 0.656-1.638 0.8-2.557 0.131-0.835 0.099-2.24-0.067-2.979-0.259-1.155-0.598-2.006-1.178-2.976-0.115-0.195-0.221-0.368-0.234-0.384-0.016-0.019-0.131-0.176-0.259-0.352-0.429-0.589-1.014-1.235-1.568-1.738-0.941-0.854-2.275-1.709-3.606-2.304-1.434-0.643-3.424-1.152-4.976-1.274-0.141-0.010-0.307-0.026-0.368-0.035-0.134-0.016-2.067-0.045-2.083-0.029zM14.31 9.312c0.291 0.134 0.445 0.39 0.467 0.765 0.022 0.445-0.154 0.739-0.595 0.986-0.467 0.262-0.925 0.666-1.168 1.034-0.189 0.282-0.349 0.797-0.358 1.133 0 0.016 0.102 0.035 0.224 0.042 0.576 0.026 1.050 0.256 1.459 0.71 0.339 0.371 0.486 0.781 0.49 1.347 0 0.304-0.013 0.41-0.077 0.605-0.218 0.678-0.842 1.203-1.59 1.341-1.040 0.189-1.936-0.278-2.41-1.258-0.269-0.56-0.374-1.178-0.342-1.984 0.048-1.072 0.346-2.006 0.941-2.941 0.582-0.909 1.421-1.619 2.16-1.827 0.227-0.064 0.611-0.042 0.8 0.048zM20.282 9.309c0.39 0.202 0.557 0.666 0.41 1.165-0.070 0.237-0.198 0.371-0.566 0.598-0.691 0.426-1.062 0.81-1.286 1.338-0.086 0.198-0.227 0.803-0.195 0.835 0.010 0.010 0.118 0.019 0.24 0.026 0.79 0.026 1.562 0.624 1.818 1.411 0.096 0.291 0.122 0.752 0.054 1.062-0.198 0.938-1.059 1.594-2.083 1.594-1.232 0-2.118-0.963-2.282-2.49-0.032-0.288-0.026-1.040 0.010-1.28 0.154-1.062 0.451-1.83 1.030-2.672 0.534-0.778 1.366-1.446 2.038-1.632 0.218-0.064 0.65-0.038 0.813 0.045z"></path>
</svg>
