<!-- Generated by IcoMoon.io -->
<svg version="1.1" xmlns="http://www.w3.org/2000/svg" width="32" height="32" viewBox="0 0 32 32">
<title>commercial_representitive</title>
<path fill="#ff7900" d="M15.245 2.448c-0.906 0.134-1.68 0.426-2.413 0.906-0.362 0.237-0.563 0.406-0.928 0.771-0.87 0.877-1.398 1.926-1.606 3.203-0.051 0.323-0.051 1.392 0.003 1.696 0.109 0.634 0.285 1.178 0.547 1.702 0.752 1.501 2.093 2.586 3.709 3.005 2.029 0.525 4.192-0.096 5.622-1.613 0.787-0.835 1.299-1.862 1.504-3.014 0.070-0.394 0.080-1.44 0.016-1.808-0.058-0.346-0.211-0.922-0.31-1.174-0.579-1.485-1.69-2.64-3.136-3.258-0.477-0.205-0.797-0.294-1.485-0.416-0.237-0.045-1.232-0.042-1.523 0z"></path>
<path fill="#ff7900" d="M10.832 13.581c-0.035 0.022-0.208 0.134-0.384 0.25-1.757 1.136-2.954 3.075-3.206 5.194-0.013 0.122-0.026 1.946-0.026 4.048v3.824l0.083 0.304c0.198 0.71 0.608 1.325 1.165 1.744 0.269 0.202 0.634 0.394 0.934 0.493 0.512 0.17 0.176 0.163 8.080 0.163h7.325l-0.013-5.258c-0.006-2.89-0.022-5.312-0.035-5.382-0.096-0.544-0.195-0.995-0.266-1.216-0.531-1.686-1.6-3.078-3.088-4.013-0.17-0.109-0.326-0.195-0.346-0.195s-0.090 0.048-0.154 0.109c-0.781 0.723-1.984 1.37-3.059 1.638-0.666 0.17-1.085 0.221-1.811 0.221-0.656 0-0.934-0.026-1.478-0.131-0.912-0.176-1.83-0.557-2.618-1.078-0.278-0.186-0.749-0.554-0.861-0.675-0.086-0.093-0.147-0.102-0.243-0.038zM21.184 20.906c0.49 0.138 0.851 0.378 1.126 0.742 0.179 0.237 0.346 0.573 0.368 0.746 0.074 0.547-0.666 0.858-0.992 0.416-0.042-0.058-0.118-0.192-0.166-0.298-0.17-0.355-0.454-0.582-0.806-0.646-0.208-0.035-0.595-0.019-0.81 0.035-0.538 0.138-0.896 0.525-1.101 1.19-0.019 0.064-0.019 0.064 1.251 0.067 1.424 0 1.408-0.003 1.549 0.224 0.054 0.086 0.074 0.163 0.074 0.301-0.003 0.218-0.080 0.368-0.234 0.458-0.102 0.058-0.179 0.061-1.456 0.064l-1.347 0.003-0.003 0.262v0.266h1.114c1.21 0 1.264 0.006 1.395 0.173 0.038 0.051 0.077 0.16 0.086 0.259 0.026 0.202-0.038 0.371-0.186 0.477-0.086 0.064-0.134 0.067-1.174 0.067-0.598 0.003-1.094 0.010-1.104 0.019-0.029 0.032 0.106 0.371 0.218 0.547 0.294 0.464 0.733 0.669 1.414 0.669 0.592 0 0.89-0.176 1.139-0.662 0.154-0.301 0.266-0.406 0.486-0.445 0.298-0.051 0.637 0.189 0.678 0.477 0.019 0.128 0.006 0.176-0.109 0.413-0.301 0.627-0.758 1.008-1.411 1.178-0.294 0.074-0.973 0.102-1.363 0.051-0.365-0.045-0.845-0.237-1.117-0.448-0.435-0.339-0.79-0.883-0.947-1.45-0.038-0.138-0.077-0.272-0.090-0.294-0.013-0.032-0.099-0.048-0.278-0.054-0.394-0.013-0.547-0.122-0.579-0.413-0.019-0.17 0.074-0.406 0.195-0.483 0.051-0.035 0.176-0.061 0.339-0.070l0.256-0.019v-0.25c0-0.275 0.013-0.259-0.214-0.269-0.25-0.010-0.355-0.048-0.454-0.16-0.208-0.24-0.154-0.653 0.109-0.816 0.090-0.054 0.163-0.070 0.384-0.070l0.272-0.003 0.032-0.131c0.266-1.053 0.816-1.75 1.619-2.054 0.342-0.128 0.618-0.166 1.117-0.154 0.355 0.006 0.506 0.026 0.72 0.086z"></path>
</svg>
