<!-- Generated by IcoMoon.io -->
<svg version="1.1" xmlns="http://www.w3.org/2000/svg" width="32" height="32" viewBox="0 0 32 32">
<title>community_sms</title>
<path fill="#ff7900" d="M3.21 12.614c0.006 8.17 0.010 8.627 0.064 8.803 0.298 0.97 1.062 1.632 2.038 1.766 0.045 0.006 0.848 0.013 1.786 0.013l1.702 0.003v5.603l2.8-2.803 2.803-2.8h14.397l-0.003-8.538c-0.003-9.347 0.010-8.726-0.189-9.197-0.285-0.666-0.819-1.139-1.568-1.382l-0.208-0.067-23.632-0.016 0.010 8.614zM16.48 6.803c0.614 0.125 1.088 0.384 1.51 0.822 1.050 1.085 1.024 2.848-0.058 3.917-0.202 0.198-0.499 0.413-0.694 0.502-0.547 0.25-0.733 0.288-1.286 0.288-0.368 0-0.493-0.016-0.704-0.077-1.635-0.47-2.48-2.147-1.882-3.728 0.301-0.797 0.979-1.408 1.85-1.674 0.346-0.102 0.896-0.125 1.264-0.051zM12.208 7.277c0.221 0.058 0.733 0.298 0.714 0.336-0.006 0.010-0.086 0.173-0.179 0.365-0.512 1.040-0.49 2.25 0.061 3.28 0.115 0.218 0.15 0.31 0.128 0.339-0.051 0.061-0.509 0.266-0.723 0.326-0.266 0.070-0.81 0.086-1.078 0.029-1.354-0.285-2.189-1.616-1.85-2.947 0.227-0.883 0.931-1.558 1.84-1.757 0.259-0.054 0.81-0.042 1.088 0.029zM20.886 7.254c1.222 0.256 2.035 1.389 1.891 2.64-0.086 0.768-0.598 1.494-1.302 1.85-0.352 0.176-0.605 0.234-1.043 0.237-0.301 0.003-0.474-0.013-0.624-0.054-0.202-0.054-0.659-0.262-0.781-0.355-0.058-0.045-0.058-0.051 0.010-0.144 0.208-0.291 0.448-0.973 0.502-1.427 0.086-0.714-0.058-1.501-0.387-2.125-0.061-0.115-0.112-0.221-0.112-0.234 0-0.070 0.56-0.323 0.877-0.394 0.246-0.054 0.694-0.051 0.97 0.006zM9.44 11.949c0.582 0.547 1.357 0.845 2.186 0.838 0.205-0.003 0.374-0.003 0.374 0s-0.064 0.102-0.144 0.224c-0.314 0.477-0.547 1.088-0.608 1.597-0.013 0.106-0.029 0.214-0.035 0.24-0.003 0.026-0.010 0.835-0.010 1.798l-0.003 1.754h-0.944c-0.57 0-1.008-0.013-1.11-0.035-0.541-0.115-0.998-0.57-1.114-1.11-0.022-0.102-0.032-0.758-0.026-1.898 0.013-1.981 0.013-1.965 0.294-2.541 0.131-0.266 0.202-0.374 0.41-0.634 0.080-0.096 0.464-0.438 0.496-0.438 0.010 0 0.115 0.093 0.234 0.205zM22.982 11.888c0.41 0.336 0.733 0.835 0.912 1.414l0.090 0.282 0.010 2.406 0.010 2.41h-3.203l-0.003-1.738c0-0.954-0.006-1.786-0.016-1.846-0.006-0.061-0.019-0.157-0.026-0.208-0.070-0.522-0.31-1.152-0.627-1.626-0.070-0.102-0.128-0.192-0.128-0.195 0 0 0.192-0.003 0.426-0.003 0.493-0.003 0.787-0.061 1.203-0.234 0.326-0.138 0.758-0.419 0.979-0.643 0.090-0.090 0.17-0.163 0.179-0.163 0.013 0 0.099 0.064 0.195 0.144zM18.39 12.422c0.675 0.39 1.229 1.072 1.45 1.786 0.157 0.502 0.157 0.528 0.16 3.238v2.554h-3.277c-2.272 0-3.331-0.010-3.45-0.035-0.438-0.093-0.909-0.448-1.091-0.829-0.186-0.387-0.186-0.394-0.173-2.518 0.010-1.885 0.013-1.952 0.080-2.189 0.179-0.63 0.442-1.078 0.883-1.52 0.195-0.192 0.653-0.525 0.726-0.525 0.019 0 0.154 0.077 0.294 0.173 1.222 0.806 2.89 0.781 4.038-0.058 0.106-0.080 0.202-0.144 0.214-0.144 0.013-0.003 0.077 0.029 0.144 0.067z"></path>
</svg>
