<!-- Generated by IcoMoon.io -->
<svg version="1.1" xmlns="http://www.w3.org/2000/svg" width="32" height="32" viewBox="0 0 32 32">
<title>Concierge_bell</title>
<path fill="#ff7900" d="M13.936 6.477c-0.307 0.099-0.4 0.15-0.614 0.352-0.4 0.371-0.522 0.72-0.522 1.482v0.49h2.4v1.6h-0.614c-1.149 0.003-1.904 0.093-2.906 0.339-3.37 0.832-6.205 3.245-7.578 6.461-0.291 0.685-0.499 1.334-0.64 2-0.106 0.506-0.131 0.643-0.166 0.944-0.019 0.157-0.042 0.346-0.048 0.416-0.010 0.070-0.026 0.333-0.035 0.582l-0.019 0.458h25.613l-0.019-0.49c-0.013-0.266-0.026-0.522-0.032-0.566s-0.022-0.166-0.035-0.272c-0.061-0.582-0.246-1.43-0.448-2.074-0.669-2.109-2.019-4.051-3.744-5.395-0.141-0.109-0.278-0.218-0.31-0.243-0.134-0.109-0.909-0.602-1.197-0.762-1.104-0.614-2.403-1.062-3.645-1.254-0.176-0.029-0.355-0.058-0.4-0.064-0.093-0.013-0.483-0.048-0.736-0.064-0.096-0.006-0.461-0.013-0.806-0.013l-0.634-0.003v-1.6h2.403l-0.006-0.496c0-0.275-0.022-0.576-0.045-0.672-0.138-0.595-0.653-1.088-1.248-1.197-0.128-0.026-0.797-0.035-1.968-0.035-1.754 0.003-1.779 0.003-2 0.077z"></path>
<path fill="#ff7900" d="M6.39 22.662c-0.022 0.333-0.090 0.582-0.234 0.877-0.282 0.57-0.832 1.021-1.44 1.181-0.102 0.029-0.358 0.061-0.563 0.077-0.432 0.032-0.608 0.099-0.762 0.291-0.16 0.205-0.192 0.339-0.192 0.851v0.461h25.606l-0.010-0.522c-0.013-0.493-0.016-0.525-0.096-0.662-0.176-0.298-0.362-0.39-0.861-0.419-0.432-0.029-0.662-0.083-0.979-0.24-0.442-0.221-0.832-0.618-1.037-1.056-0.134-0.294-0.189-0.493-0.211-0.816l-0.022-0.285h-19.181l-0.019 0.262z"></path>
</svg>
