<!-- Generated by IcoMoon.io -->
<svg version="1.1" xmlns="http://www.w3.org/2000/svg" width="32" height="32" viewBox="0 0 32 32">
<title>conference_call</title>
<path fill="#ff7900" d="M9.098 2.432c-0.429 0.058-0.586 0.096-0.957 0.227-1.462 0.515-2.538 1.77-2.848 3.325-0.070 0.342-0.083 1.101-0.029 1.456 0.285 1.814 1.638 3.274 3.392 3.651 0.381 0.083 0.496 0.093 1.008 0.090 0.387 0 0.573-0.016 0.848-0.074 0.195-0.042 0.362-0.083 0.374-0.093 0.013-0.013 0.003-0.16-0.022-0.326-0.17-1.206 0.138-2.544 0.826-3.568 0.442-0.662 1.075-1.251 1.776-1.651l0.291-0.163-0.064-0.16c-0.214-0.544-0.541-1.027-1.014-1.491-0.64-0.63-1.491-1.059-2.39-1.203-0.301-0.048-0.909-0.058-1.19-0.019z"></path>
<path fill="#ff7900" d="M15.28 5.664c-1.69 0.304-3.011 1.485-3.491 3.12-0.237 0.806-0.218 1.824 0.054 2.608 0.208 0.614 0.573 1.206 1.014 1.658 0.704 0.723 1.478 1.123 2.518 1.306 0.054 0.010 0.298 0.022 0.544 0.029 0.509 0.013 0.883-0.032 1.338-0.163 0.058-0.019 0.058-0.045 0.003-0.317-0.045-0.214-0.042-1.094 0.003-1.408 0.234-1.629 1.174-3.011 2.598-3.824l0.294-0.166-0.061-0.157c-0.282-0.714-0.915-1.514-1.539-1.939-0.976-0.669-2.176-0.941-3.277-0.746z"></path>
<path fill="#ff7900" d="M21.776 8.848c-1.267 0.198-2.326 0.877-3.046 1.952-0.282 0.419-0.518 1.008-0.637 1.584-0.080 0.381-0.080 1.254-0.003 1.632 0.192 0.915 0.589 1.654 1.226 2.291 0.778 0.778 1.773 1.222 2.861 1.283 0.752 0.038 1.466-0.102 2.144-0.429 1.248-0.598 2.15-1.77 2.422-3.139 0.077-0.397 0.077-1.27 0-1.638-0.198-0.928-0.592-1.661-1.226-2.291-0.448-0.445-0.854-0.71-1.552-1.014-0.141-0.061-0.714-0.202-0.97-0.243-0.275-0.042-0.922-0.035-1.219 0.013z"></path>
<path fill="#ff7900" d="M5.418 11.101c-0.4 0.237-0.653 0.429-0.966 0.726-0.733 0.694-1.206 1.488-1.453 2.429-0.176 0.666-0.176 0.694-0.179 3.824-0.003 1.869 0.010 2.97 0.029 3.101 0.134 0.819 0.675 1.504 1.44 1.83 0.413 0.176 0.506 0.182 2.394 0.186l1.734 0.003 0.003-2.39c0-1.318 0.006-2.422 0.013-2.454s0.016-0.134 0.019-0.224c0.003-0.090 0.019-0.205 0.032-0.256 0.016-0.051 0.035-0.154 0.045-0.224 0.022-0.147 0.058-0.278 0.16-0.627 0.467-1.53 1.584-2.851 3.030-3.581 0.186-0.093 0.272-0.154 0.253-0.176-0.179-0.227-0.368-0.509-0.499-0.749-0.134-0.25-0.17-0.291-0.224-0.278-0.672 0.186-1.082 0.237-1.76 0.224-0.544-0.010-0.819-0.048-1.328-0.176-0.323-0.080-0.899-0.307-1.206-0.47-0.384-0.205-0.979-0.624-1.142-0.806-0.035-0.038-0.077-0.067-0.096-0.067s-0.154 0.070-0.298 0.157z"></path>
<path fill="#ff7900" d="M11.824 14.294c-0.41 0.24-0.71 0.477-1.107 0.87-0.829 0.832-1.344 1.91-1.469 3.094-0.022 0.208-0.032 1.312-0.026 3.245 0.013 2.64 0.019 2.944 0.067 3.107 0.282 0.931 1.002 1.587 1.923 1.754 0.122 0.022 0.822 0.035 1.898 0.035h1.706l0.003-2.362c0.003-2.602 0-2.474 0.074-2.966 0.272-1.859 1.501-3.555 3.194-4.413l0.31-0.157-0.090-0.115c-0.15-0.192-0.451-0.662-0.518-0.819-0.048-0.109-0.080-0.144-0.118-0.131-0.182 0.058-0.768 0.182-0.97 0.208-0.352 0.042-1.277 0.019-1.603-0.038-1.008-0.186-1.814-0.541-2.57-1.126-0.141-0.109-0.285-0.23-0.317-0.269-0.035-0.035-0.077-0.067-0.096-0.067s-0.15 0.067-0.291 0.15z"></path>
<path fill="#ff7900" d="M18.224 17.494c-0.403 0.234-0.707 0.474-1.075 0.838-0.771 0.768-1.19 1.555-1.443 2.691-0.067 0.294-0.067 0.39-0.080 3.28-0.010 1.962-0.003 3.062 0.019 3.226 0.045 0.336 0.157 0.643 0.339 0.934 0.15 0.24 0.522 0.64 0.63 0.675 0.032 0.010 0.058 0.029 0.058 0.045 0 0.054 0.557 0.294 0.822 0.352 0.272 0.061 0.461 0.064 6.003 0.064h5.722l-0.013-4.138c-0.010-3.075-0.022-4.179-0.051-4.31-0.115-0.531-0.243-0.954-0.358-1.197-0.035-0.070-0.061-0.138-0.061-0.15 0-0.042-0.314-0.566-0.49-0.826-0.259-0.378-0.902-1.008-1.302-1.27-0.186-0.122-0.403-0.256-0.486-0.301l-0.147-0.077-0.144 0.131c-0.653 0.602-1.693 1.12-2.614 1.306-0.512 0.099-1.267 0.134-1.792 0.077-0.768-0.086-1.715-0.422-2.394-0.851-0.218-0.138-0.669-0.486-0.755-0.582-0.035-0.035-0.077-0.067-0.096-0.067s-0.15 0.067-0.291 0.15zM21.85 20.909c0.093 0.048 0.333 0.291 0.534 0.547 0.070 0.086 0.134 0.166 0.144 0.176 0.054 0.048 0.32 0.419 0.394 0.547 0.166 0.285 0.109 0.429-0.339 0.883-0.246 0.253-0.259 0.272-0.259 0.403 0.006 0.333 0.333 0.794 1.114 1.578 0.768 0.768 1.254 1.11 1.578 1.114 0.131 0.003 0.15-0.013 0.4-0.259 0.544-0.534 0.637-0.547 1.178-0.141 0.131 0.099 0.371 0.285 0.528 0.419 0.582 0.483 0.611 0.589 0.259 0.995-0.259 0.304-0.656 0.682-0.787 0.749-0.054 0.029-0.198 0.061-0.314 0.070-0.752 0.061-1.898-0.438-2.982-1.302-0.358-0.288-1.053-0.96-1.363-1.328-1.075-1.264-1.648-2.65-1.402-3.389 0.045-0.128 0.128-0.234 0.442-0.557 0.531-0.547 0.656-0.621 0.877-0.506z"></path>
</svg>
