<!-- Generated by IcoMoon.io -->
<svg version="1.1" xmlns="http://www.w3.org/2000/svg" width="32" height="32" viewBox="0 0 32 32">
<title>connection</title>
<path fill="#ff7900" d="M14.429 2.477c-0.006 0.006-0.141 0.019-0.301 0.029-1.616 0.106-3.427 0.662-4.896 1.51-3.2 1.843-5.318 5.018-5.789 8.688-0.048 0.352-0.067 0.803-0.067 1.44 0 0.794 0.022 1.094 0.128 1.779 0.621 3.952 3.277 7.341 6.982 8.906 0.973 0.413 2.016 0.698 2.986 0.819 0.096 0.013 0.202 0.029 0.234 0.035s0.192 0.019 0.352 0.032c0.163 0.010 0.304 0.026 0.32 0.035 0.064 0.038 0.026-0.032-0.41-0.774-0.157-0.266-0.339-0.576-0.41-0.698-0.080-0.138-0.15-0.221-0.192-0.23-0.038-0.006-0.157-0.029-0.262-0.048-0.797-0.15-1.795-0.49-2.547-0.864-1.037-0.522-1.85-1.11-2.685-1.949-0.925-0.931-1.555-1.853-2.106-3.078-0.246-0.547-0.435-1.155-0.646-2.077-0.144-0.637-0.214-1.843-0.15-2.688 0.298-4.051 3.088-7.571 6.998-8.826 0.531-0.17 1.158-0.31 1.792-0.403 0.621-0.090 1.891-0.090 2.608 0 1.546 0.192 3.184 0.816 4.464 1.702 0.726 0.506 1.642 1.354 2.147 1.99 1.146 1.446 1.837 3.021 2.122 4.848 0.118 0.752 0.128 2.070 0.019 2.752-0.016 0.106-0.038 0.256-0.048 0.336-0.070 0.502-0.269 1.245-0.502 1.872-0.074 0.192-0.131 0.368-0.131 0.384 0 0.045 0.915 1.616 0.941 1.616 0.032 0 0.387-0.736 0.554-1.142 0.246-0.605 0.557-1.642 0.64-2.138 0.166-0.998 0.205-1.456 0.195-2.368-0.010-0.774-0.013-0.838-0.099-1.472-0.256-1.894-1.021-3.754-2.186-5.312-1.939-2.598-4.848-4.272-8.067-4.643-0.061-0.006-0.182-0.019-0.272-0.032-0.189-0.019-1.696-0.051-1.715-0.032z"></path>
<path fill="#ff7900" d="M14.48 5.795c-2.013 0.141-3.914 1.008-5.347 2.442-2.112 2.118-2.941 5.165-2.189 8.061 0.538 2.083 1.875 3.891 3.722 5.034 0.445 0.275 1.053 0.573 1.504 0.736l0.122 0.045-0.102-0.186c-0.058-0.099-0.115-0.198-0.128-0.214-0.029-0.042-0.662-1.12-0.858-1.469-0.035-0.061-0.099-0.17-0.144-0.24-0.048-0.070-0.083-0.138-0.083-0.147 0-0.054-0.24-0.371-0.342-0.448-0.291-0.224-0.842-0.826-1.168-1.28-0.528-0.736-0.989-1.827-1.133-2.672-0.013-0.080-0.026-0.15-0.029-0.16s-0.016-0.109-0.029-0.224c-0.013-0.115-0.032-0.253-0.038-0.304-0.022-0.147-0.016-1.011 0.003-1.238 0.054-0.566 0.269-1.43 0.48-1.942 0.947-2.294 3.082-3.926 5.504-4.211 0.106-0.013 0.221-0.029 0.256-0.035 0.083-0.019 1.059-0.016 1.184 0 0.054 0.010 0.176 0.022 0.272 0.035 0.349 0.035 0.854 0.154 1.28 0.291 2.141 0.704 3.805 2.426 4.442 4.605 0.096 0.32 0.211 0.928 0.246 1.267 0.013 0.16 0.067 0.269 0.454 0.928 0.24 0.413 0.538 0.925 0.662 1.139 0.125 0.218 0.237 0.394 0.246 0.394 0.029 0 0.157-0.829 0.182-1.197 0.256-3.389-1.571-6.611-4.624-8.144-0.909-0.458-1.856-0.726-2.979-0.854-0.256-0.026-1.014-0.032-1.366-0.010z"></path>
<path fill="#ff7900" d="M14.496 9.11c-0.346 0.051-0.832 0.16-1.072 0.24-1.117 0.378-2.058 1.101-2.717 2.090-0.163 0.24-0.486 0.87-0.464 0.893 0.013 0.013 1.344-0.758 2.925-1.693 0.794-0.47 2.269-1.338 2.416-1.421l0.144-0.080-0.112-0.026c-0.109-0.022-0.957-0.026-1.12-0.003z"></path>
<path fill="#ff7900" d="M17.379 9.475c-0.141 0.029-0.182 0.048-0.858 0.442-0.218 0.125-0.563 0.326-0.768 0.448-0.208 0.118-1.184 0.691-2.17 1.267-2.198 1.286-2.538 1.485-3.258 1.907-0.608 0.355-0.736 0.458-0.858 0.694-0.064 0.128-0.077 0.198-0.077 0.454v0.304l0.179 0.32c0.096 0.176 0.656 1.139 1.245 2.144 0.586 1.002 1.091 1.866 1.12 1.92 0.147 0.256 0.829 1.434 1.264 2.176 0.269 0.458 0.71 1.213 0.982 1.68s0.707 1.206 0.96 1.648c0.39 0.669 1.046 1.795 2.064 3.536 0.298 0.509 0.387 0.637 0.531 0.739 0.224 0.163 0.336 0.198 0.63 0.202 0.23 0 0.294-0.010 0.432-0.080 0.131-0.067 4.547-2.637 5.68-3.306 0.186-0.109 0.643-0.378 1.018-0.595 0.374-0.221 0.733-0.448 0.797-0.512 0.24-0.237 0.352-0.678 0.253-1.005-0.022-0.074-0.422-0.79-0.89-1.59-0.464-0.8-0.883-1.526-0.928-1.613-0.099-0.202-0.861-1.498-0.89-1.52-0.013-0.010-0.080-0.118-0.15-0.24-0.070-0.125-0.278-0.483-0.464-0.8s-0.365-0.634-0.4-0.704c-0.061-0.122-0.486-0.851-1.453-2.48-0.48-0.813-0.554-0.934-1.059-1.808-0.592-1.014-1.021-1.75-1.242-2.128-0.118-0.202-0.317-0.544-0.442-0.758-0.157-0.262-0.278-0.429-0.381-0.515-0.224-0.192-0.563-0.282-0.87-0.227zM18.346 11.782c0.147 0.253 0.349 0.595 0.445 0.762 0.198 0.342 3.584 6.147 3.76 6.448 0.061 0.106 0.595 1.021 1.184 2.032s1.091 1.872 1.117 1.91c0.045 0.070 0.006 0.099-0.733 0.518-0.202 0.115-6.218 3.626-6.31 3.683l-0.099 0.061-0.227-0.39c-0.477-0.816-1.238-2.122-1.29-2.214-0.032-0.054-0.33-0.563-0.662-1.136s-0.736-1.264-0.896-1.536c-0.157-0.272-0.614-1.059-1.018-1.744-0.4-0.688-0.755-1.299-0.79-1.36s-0.102-0.176-0.154-0.256c-0.157-0.253-1.725-2.96-1.744-3.008-0.010-0.032 0.029-0.074 0.118-0.125 0.077-0.042 0.355-0.202 0.618-0.355 0.774-0.454 1.786-1.043 2.32-1.354 0.272-0.157 0.79-0.461 1.152-0.672s0.8-0.467 0.976-0.57c0.176-0.102 0.688-0.403 1.136-0.666s0.819-0.48 0.822-0.48c0.003-0.003 0.128 0.202 0.275 0.451zM14.81 12c0.038 0.038 0.070 0.077 0.074 0.090 0 0.013 0.006 0.054 0.016 0.093 0.022 0.122-0.128 0.237-0.835 0.65-0.72 0.422-0.822 0.454-0.954 0.323-0.086-0.083-0.086-0.275 0-0.355 0.048-0.045 1.133-0.688 1.386-0.822 0.115-0.061 0.234-0.051 0.314 0.022zM22.099 25.491c0.448 0.211 0.502 0.832 0.099 1.117-0.115 0.083-0.163 0.096-0.346 0.096-0.176 0-0.23-0.013-0.342-0.090-0.323-0.211-0.374-0.698-0.102-0.979 0.186-0.189 0.47-0.25 0.691-0.144z"></path>
</svg>
