<!-- Generated by IcoMoon.io -->
<svg version="1.1" xmlns="http://www.w3.org/2000/svg" width="32" height="32" viewBox="0 0 32 32">
<title>construction</title>
<path fill="#ff7900" d="M21.488 2.934c-0.448 0.051-0.941 0.259-1.28 0.544-0.234 0.195-0.246 0.211-2.752 3.501-0.579 0.765-1.248 1.638-1.485 1.949-0.234 0.307-0.547 0.717-0.694 0.912-0.147 0.192-0.438 0.579-0.65 0.854l-0.387 0.506 0.618 0.003c0.336 0 1.53 0 2.65 0h2.032l0.166 0.822c0.093 0.454 0.173 0.851 0.179 0.886 0.010 0.035 0.070 0.342 0.138 0.678 0.067 0.339 0.131 0.618 0.141 0.618 0.013 0 0.058-0.083 0.102-0.186 0.045-0.099 0.198-0.419 0.336-0.71 0.141-0.291 0.291-0.608 0.336-0.704 0.042-0.096 0.17-0.365 0.278-0.592 0.109-0.23 0.24-0.502 0.288-0.608s0.214-0.448 0.365-0.765c0.15-0.314 0.275-0.576 0.275-0.579 0-0.006 0.131-0.278 0.288-0.608 0.16-0.33 0.288-0.602 0.288-0.608 0-0.003 0.122-0.259 0.266-0.563 0.147-0.307 0.323-0.672 0.39-0.813s0.205-0.435 0.31-0.656c0.378-0.79 0.445-1.018 0.445-1.491 0-1.126-0.781-2.099-1.875-2.349-0.166-0.038-0.598-0.061-0.768-0.042z"></path>
<path fill="#ff7900" d="M24.624 6.694c-0.032 0.077-0.186 0.403-0.342 0.726-0.154 0.323-0.282 0.592-0.282 0.598 0 0.003-0.138 0.291-0.304 0.64-0.166 0.346-0.304 0.634-0.304 0.637 0 0.006-0.109 0.237-0.243 0.515-0.134 0.282-0.285 0.602-0.339 0.717s-0.147 0.307-0.205 0.426l-0.106 0.218 0.090 0.102c0.048 0.058 0.106 0.134 0.131 0.17 0.026 0.038 0.394 0.512 0.816 1.053s0.826 1.059 0.896 1.152c0.070 0.090 0.294 0.378 0.496 0.637s0.538 0.691 0.746 0.957c0.512 0.659 0.541 0.698 0.614 0.778l0.064 0.070 0.928-0.73c0.598-0.474 0.925-0.752 0.918-0.784-0.006-0.026-0.093-0.24-0.195-0.474-0.102-0.23-0.387-0.877-0.627-1.43-0.243-0.554-0.467-1.066-0.496-1.136-0.032-0.070-0.314-0.71-0.624-1.424s-0.589-1.354-0.621-1.424c-0.032-0.070-0.25-0.566-0.483-1.104s-0.435-0.986-0.445-1.002c-0.013-0.013-0.048 0.038-0.083 0.112z"></path>
<path fill="#ff7900" d="M12.406 14.39l-1.197 2.394-3.005 0.019c-3.136 0.016-3.062 0.013-3.459 0.16-0.704 0.266-1.235 0.854-1.475 1.645-0.042 0.131-0.051 0.429-0.061 1.642-0.013 1.552-0.003 1.76 0.125 2.128 0.23 0.682 0.794 1.254 1.45 1.478 0.422 0.147 0.15 0.141 7.568 0.141 7.77 0.003 7.238 0.016 7.632-0.205 0.381-0.211 0.691-0.637 0.781-1.072 0.045-0.205 0.045-1.28 0-1.459-0.016-0.070-0.086-0.406-0.154-0.749-0.176-0.874-0.403-1.987-0.739-3.648-0.16-0.784-0.333-1.632-0.384-1.888-0.422-2.090-0.579-2.87-0.595-2.922s-0.17-0.054-2.653-0.054h-2.637l-1.197 2.39z"></path>
<path fill="#ff7900" d="M28.125 15.786c-0.342 0.272-1.421 1.12-2.397 1.888-0.976 0.771-1.965 1.549-2.198 1.734s-0.435 0.336-0.448 0.336c-0.013 0-0.067-0.061-0.122-0.131-0.134-0.182-0.25-0.256-0.4-0.259-0.224-0.003-0.394 0.166-0.397 0.39 0 0.17 0.17 0.413 0.573 0.819 0.406 0.41 0.624 0.57 1.066 0.794 1.306 0.656 2.861 0.541 4.102-0.304 0.288-0.195 0.787-0.701 0.982-0.992 0.362-0.538 0.611-1.174 0.675-1.725 0.042-0.365 0.022-1.053-0.035-1.331-0.112-0.528-0.355-1.107-0.64-1.507l-0.141-0.202-0.621 0.49z"></path>
<path fill="#ff7900" d="M5.309 24.813c-0.006 0.006-0.070 0.022-0.141 0.032-0.736 0.115-1.482 0.704-1.77 1.408-0.115 0.285-0.163 0.483-0.186 0.787-0.090 1.194 0.736 2.272 1.923 2.509 0.23 0.048 0.906 0.051 6.976 0.042 6.362-0.006 6.73-0.010 6.912-0.064 1.098-0.33 1.795-1.277 1.763-2.39-0.013-0.509-0.16-0.954-0.435-1.328-0.368-0.496-0.851-0.813-1.44-0.947-0.262-0.058-0.512-0.058-6.931-0.061-3.661 0-6.662 0.006-6.672 0.013zM5.846 26.448c0.349 0.102 0.582 0.467 0.544 0.842-0.067 0.656-0.883 0.941-1.35 0.47-0.317-0.314-0.314-0.8 0.006-1.12 0.221-0.221 0.486-0.285 0.8-0.192zM9.216 26.522c0.512 0.314 0.499 1.066-0.022 1.373-0.307 0.179-0.778 0.096-1.005-0.179-0.109-0.131-0.189-0.352-0.189-0.515 0-0.307 0.23-0.643 0.515-0.746 0.208-0.077 0.512-0.048 0.701 0.067zM12.259 26.448c0.192 0.067 0.333 0.186 0.435 0.362 0.074 0.125 0.090 0.186 0.090 0.39s-0.013 0.262-0.090 0.39c-0.314 0.534-1.075 0.534-1.389 0.003-0.179-0.307-0.096-0.778 0.182-1.008 0.208-0.17 0.518-0.227 0.771-0.138zM15.616 26.522c0.378 0.23 0.493 0.733 0.253 1.107-0.266 0.422-0.874 0.49-1.229 0.134-0.141-0.141-0.24-0.368-0.24-0.55 0-0.314 0.234-0.656 0.522-0.762 0.202-0.074 0.509-0.045 0.694 0.070zM18.672 26.454c0.608 0.205 0.704 1.069 0.16 1.414-0.496 0.314-1.162-0.003-1.222-0.579-0.061-0.589 0.499-1.027 1.062-0.835z"></path>
</svg>
