<!-- Generated by IcoMoon.io -->
<svg version="1.1" xmlns="http://www.w3.org/2000/svg" width="32" height="32" viewBox="0 0 32 32">
<title>control_centre</title>
<path fill="#ff7900" d="M15.421 2.413c-0.006 0.006-0.122 0.022-0.253 0.032-1.514 0.141-3.094 0.794-4.448 1.84-1.962 1.517-3.53 3.894-4.368 6.63l-0.083 0.275-0.598 0.019c-0.403 0.013-0.662 0.035-0.79 0.070-0.682 0.186-1.101 0.426-1.558 0.89-0.157 0.154-0.282 0.294-0.282 0.31s-0.035 0.067-0.077 0.118c-0.115 0.138-0.301 0.502-0.387 0.758-0.173 0.512-0.179 0.659-0.166 2.79 0.010 1.862 0.013 1.962 0.077 2.205 0.272 1.018 0.97 1.827 1.907 2.211 0.416 0.17 0.643 0.208 1.277 0.227l0.595 0.019 0.102 0.323c1.235 3.974 3.888 6.992 7.078 8.051 0.371 0.125 0.979 0.269 1.338 0.32 0.15 0.019 0.307 0.045 0.352 0.051s0.304 0.022 0.576 0.032c3.091 0.125 6.074-1.584 8.122-4.643 0.755-1.133 1.392-2.49 1.814-3.866l0.086-0.278h0.438c0.704 0 1.152-0.093 1.648-0.339 0.342-0.17 0.547-0.317 0.832-0.602 0.416-0.413 0.688-0.88 0.845-1.456l0.086-0.307v-4.192l-0.083-0.304c-0.323-1.158-1.162-1.99-2.333-2.307-0.186-0.051-0.378-0.070-0.838-0.083-0.576-0.016-0.602-0.019-0.618-0.086-0.090-0.317-0.346-1.050-0.502-1.443-0.883-2.205-2.304-4.154-3.946-5.411-0.87-0.666-2-1.251-2.944-1.526-0.464-0.134-0.698-0.186-1.408-0.294-0.141-0.022-1.472-0.054-1.491-0.035zM9.792 9.421c1.514 0.291 3.043 0.976 4.774 2.141 0.474 0.317 0.678 0.467 1.53 1.117 0.947 0.72 1.795 1.178 2.832 1.526 0.589 0.198 1.328 0.352 1.968 0.41 0.333 0.032 1.206 0.032 1.546 0 0.723-0.064 1.635-0.294 2.064-0.522 0.080-0.042 0.147-0.077 0.154-0.077 0.019 0 0.048 0.221 0.090 0.688 0.058 0.63 0.045 2.234-0.022 2.88-0.173 1.648-0.557 3.136-1.178 4.56-0.035 0.080-0.074 0.166-0.090 0.192-0.022 0.042-0.352 0.048-2.605 0.058l-2.579 0.006-0.118-0.243c-0.291-0.608-0.838-1.069-1.504-1.264-0.211-0.064-0.323-0.077-0.669-0.074-0.384 0-0.438 0.010-0.733 0.109-1.696 0.576-2.202 2.688-0.95 3.962 0.301 0.304 0.714 0.538 1.133 0.643 0.445 0.109 1.040 0.067 1.466-0.109 0.544-0.221 1.040-0.698 1.286-1.238l0.086-0.186h4.259l-0.058 0.099c-0.208 0.352-0.845 1.123-1.302 1.581-1.603 1.597-3.472 2.39-5.427 2.307-0.256-0.010-0.506-0.026-0.56-0.035-0.051-0.010-0.182-0.032-0.288-0.051-1.213-0.202-2.41-0.784-3.536-1.718-0.323-0.269-0.954-0.928-1.283-1.341-0.346-0.429-0.8-1.104-1.078-1.594-0.182-0.326-0.573-1.136-0.662-1.376-0.032-0.090-0.070-0.176-0.083-0.192-0.013-0.019-0.125-0.336-0.246-0.704-0.426-1.274-0.646-2.374-0.771-3.856-0.032-0.387-0.032-1.818-0.003-2.176 0.016-0.15 0.035-0.374 0.045-0.496 0.096-1.203 0.429-2.656 0.883-3.872 0.224-0.602 0.346-0.819 0.554-0.973 0.301-0.224 0.592-0.275 1.078-0.182z"></path>
</svg>
