<!-- Generated by IcoMoon.io -->
<svg version="1.1" xmlns="http://www.w3.org/2000/svg" width="32" height="32" viewBox="0 0 32 32">
<title>control_mydata</title>
<path fill="#ff7900" d="M15.194 2.416c-0.003 0.003-0.147 0.019-0.314 0.029-0.166 0.013-0.333 0.029-0.368 0.035s-0.134 0.022-0.224 0.032c-0.211 0.022-0.342 0.045-0.832 0.125-0.035 0.003-0.099 0.019-0.144 0.029s-0.218 0.051-0.384 0.086c-0.592 0.131-1.597 0.445-2 0.624-0.051 0.026-0.189 0.083-0.304 0.128-0.57 0.234-1.491 0.733-2.115 1.149-0.515 0.342-0.605 0.406-1.043 0.765-1.968 1.59-3.434 3.658-4.288 6.038-0.24 0.675-0.493 1.648-0.586 2.266-0.080 0.509-0.093 0.611-0.112 0.822-0.013 0.122-0.029 0.266-0.038 0.32-0.029 0.182-0.035 1.795-0.010 2.112 0.032 0.368 0.096 0.963 0.115 1.056 0.010 0.035 0.045 0.23 0.080 0.432 0.301 1.725 1.005 3.475 2.010 5.008 0.115 0.176 0.221 0.333 0.237 0.352 0.013 0.016 0.125 0.17 0.25 0.336 0.762 1.018 1.658 1.914 2.669 2.678 0.806 0.605 1.299 0.912 2.195 1.36 1.203 0.598 2.765 1.088 4.013 1.254 0.070 0.010 0.23 0.032 0.352 0.048 0.611 0.083 2.118 0.115 2.736 0.058 1.494-0.138 2.755-0.438 4.048-0.963 0.662-0.272 1.507-0.701 2.032-1.037 0.522-0.333 1.107-0.749 1.379-0.979 0.064-0.054 0.186-0.157 0.272-0.227s0.256-0.221 0.381-0.336c2.144-1.997 3.552-4.49 4.122-7.296 0.102-0.493 0.176-0.963 0.202-1.28 0.010-0.131 0.026-0.275 0.035-0.32 0.029-0.144 0.035-1.798 0.006-2.112-0.035-0.435-0.093-0.918-0.125-1.104-0.016-0.090-0.045-0.253-0.064-0.368-0.262-1.485-0.89-3.165-1.667-4.454-0.189-0.31-0.525-0.835-0.582-0.906-0.013-0.019-0.131-0.176-0.266-0.352-1.76-2.355-4.288-4.093-7.149-4.909-0.72-0.205-1.6-0.374-2.272-0.438-0.115-0.010-0.25-0.026-0.304-0.035-0.106-0.016-1.923-0.042-1.942-0.026zM17.088 4.845c0.045 0.010 0.253 0.038 0.464 0.067 1.584 0.208 3.242 0.832 4.576 1.715 0.502 0.333 0.915 0.65 1.389 1.075l0.115 0.099-0.848 0.848-0.845 0.851-0.157-0.134c-0.493-0.416-1.098-0.848-1.133-0.81-0.019 0.019-0.182 0.886-0.637 3.363-0.064 0.362-0.384 2.096-0.477 2.592-0.042 0.227-0.15 0.819-0.24 1.312-0.17 0.931-0.259 1.274-0.426 1.6-0.282 0.56-0.733 1.040-1.254 1.334-0.499 0.282-0.963 0.413-1.52 0.429-1.258 0.032-2.384-0.643-2.96-1.779-0.358-0.707-0.426-1.645-0.173-2.41 0.125-0.384 0.314-0.694 1.101-1.798 0.438-0.618 0.848-1.194 0.909-1.283 0.179-0.253 0.941-1.328 2-2.819 1.027-1.44 1.146-1.619 1.11-1.638-0.067-0.042-0.755-0.166-1.155-0.208-0.691-0.074-1.92-0.032-2.512 0.090-0.317 0.064-0.573 0.122-0.71 0.163-0.093 0.026-0.237 0.067-0.32 0.093-0.342 0.096-0.822 0.294-1.309 0.534-0.669 0.333-1.251 0.72-1.837 1.216l-0.179 0.15-0.838-0.838c-0.461-0.461-0.838-0.848-0.838-0.861 0-0.016 0.394-0.358 0.72-0.624 0.646-0.531 1.856-1.229 2.72-1.568 0.858-0.336 1.866-0.608 2.605-0.694 0.080-0.010 0.182-0.026 0.227-0.032s0.195-0.022 0.336-0.035c0.141-0.010 0.262-0.026 0.269-0.032 0.016-0.016 1.738 0.013 1.827 0.032zM8.662 9.222l0.838 0.838-0.093 0.112c-0.048 0.064-0.118 0.144-0.15 0.179-0.266 0.282-0.762 1.018-1.037 1.533l-0.195 0.371 0.173 0.074c0.093 0.038 0.426 0.179 0.736 0.31l0.566 0.234-0.042 0.099c-0.022 0.054-0.090 0.218-0.15 0.365-0.077 0.195-0.122 0.262-0.157 0.253-0.026-0.006-0.733-0.298-1.568-0.646s-1.642-0.682-1.792-0.742c-0.15-0.061-0.275-0.115-0.282-0.118-0.003-0.006 0.051-0.154 0.125-0.326 0.483-1.168 1.136-2.214 1.974-3.174 0.096-0.109 0.182-0.198 0.195-0.198 0.010 0 0.397 0.378 0.858 0.838zM24.47 8.678c0.64 0.752 1.069 1.386 1.514 2.25 0.182 0.355 0.525 1.136 0.502 1.155-0.006 0.006-1.616 0.675-3.056 1.267-0.339 0.141-0.624 0.25-0.63 0.246-0.006-0.006-0.054-0.122-0.106-0.253-0.054-0.131-0.118-0.291-0.147-0.355l-0.048-0.118 0.678-0.278c0.374-0.154 0.704-0.294 0.736-0.31 0.051-0.026 0.045-0.051-0.080-0.291-0.138-0.269-0.429-0.762-0.554-0.934-0.227-0.317-0.458-0.614-0.608-0.79l-0.173-0.202 0.838-0.842c0.461-0.461 0.848-0.838 0.861-0.838 0.010 0 0.134 0.134 0.272 0.294z"></path>
<path fill="#ff7900" d="M20.195 5.942c-0.282 0.387-0.678 0.947-1.2 1.69-0.298 0.422-0.602 0.848-0.672 0.947-0.074 0.096-0.202 0.282-0.291 0.406-0.086 0.128-0.326 0.464-0.531 0.752-0.202 0.285-0.614 0.864-0.915 1.286-0.298 0.422-1.005 1.414-1.565 2.208-0.563 0.79-1.059 1.507-1.107 1.587-0.374 0.64-0.403 1.555-0.067 2.214 0.317 0.627 0.861 1.085 1.514 1.27 0.374 0.106 0.867 0.112 1.232 0.016 0.816-0.218 1.462-0.819 1.699-1.581 0.042-0.134 0.291-1.427 0.477-2.467 0.042-0.237 0.112-0.627 0.157-0.864s0.131-0.714 0.195-1.056c0.064-0.342 0.138-0.739 0.163-0.88s0.058-0.301 0.064-0.352c0.010-0.054 0.061-0.326 0.112-0.608 0.054-0.282 0.109-0.586 0.125-0.672 0.048-0.288 0.253-1.402 0.301-1.648 0.042-0.211 0.112-0.592 0.16-0.88 0.010-0.054 0.032-0.176 0.054-0.272 0.019-0.096 0.042-0.227 0.051-0.288s0.054-0.31 0.102-0.554c0.048-0.24 0.083-0.438 0.080-0.438s-0.064 0.083-0.138 0.182z"></path>
</svg>
