<!-- Generated by IcoMoon.io -->
<svg version="1.1" xmlns="http://www.w3.org/2000/svg" width="32" height="32" viewBox="0 0 32 32">
<title>contact_card</title>
<path fill="#ff7900" d="M2.403 14.95c0.003 10.608-0.010 9.93 0.179 10.374 0.31 0.742 0.963 1.28 1.744 1.44 0.211 0.045 0.57 0.051 2.57 0.051h2.32v-1.552l-0.096-0.112c-0.054-0.061-0.144-0.205-0.202-0.32-0.093-0.186-0.102-0.234-0.102-0.496s0.010-0.31 0.106-0.502c0.134-0.272 0.317-0.454 0.582-0.582 0.186-0.090 0.24-0.099 0.496-0.099s0.31 0.013 0.496 0.099c0.262 0.125 0.451 0.314 0.582 0.582 0.096 0.192 0.106 0.24 0.106 0.502 0 0.33-0.058 0.49-0.272 0.768l-0.128 0.166v1.546h10.4v-0.816c0-0.448-0.013-0.816-0.029-0.816-0.061 0-0.259-0.349-0.31-0.544-0.202-0.794 0.422-1.552 1.229-1.494 0.445 0.032 0.816 0.288 1.005 0.688 0.211 0.445 0.134 0.909-0.211 1.299l-0.083 0.093v1.59h6.816v-9.69c0-6.608-0.010-9.754-0.035-9.894-0.16-1.005-0.976-1.821-1.981-1.981-0.144-0.026-4.128-0.035-12.698-0.035h-12.486l0.003 9.734zM14.672 9.267c0.182 0.064 0.381 0.25 0.464 0.438 0.058 0.128 0.058 0.339 0.061 5.078 0.003 3.325-0.006 4.982-0.029 5.062-0.051 0.179-0.221 0.381-0.4 0.47-0.147 0.077-0.195 0.083-0.662 0.093l-0.506 0.010-0.003-0.352c-0.003-0.195-0.006-0.365-0.010-0.381-0.003-0.013-0.019-0.109-0.032-0.214-0.147-1.107-0.915-2.157-1.955-2.672-0.87-0.432-1.824-0.496-2.742-0.192-1.107 0.371-1.984 1.286-2.31 2.41-0.109 0.371-0.141 0.614-0.144 1.101l-0.003 0.298h-0.458c-0.55 0-0.704-0.042-0.902-0.24-0.259-0.259-0.243 0.166-0.234-5.427l0.010-4.973 0.090-0.15c0.048-0.083 0.134-0.189 0.195-0.234 0.237-0.179-0.026-0.173 4.886-0.173 4.122-0.003 4.544 0 4.685 0.048zM26.605 9.248c0.582 0.134 0.787 0.909 0.352 1.331-0.262 0.253 0.042 0.237-4.586 0.237-3.354-0.003-4.138-0.010-4.237-0.045-0.176-0.064-0.323-0.189-0.426-0.362-0.080-0.134-0.093-0.186-0.093-0.394 0-0.205 0.016-0.266 0.090-0.39 0.106-0.179 0.259-0.304 0.445-0.362 0.112-0.035 0.909-0.045 4.234-0.045 2.355 0 4.15 0.010 4.221 0.029zM26.659 13.264c0.192 0.067 0.333 0.186 0.435 0.358 0.070 0.122 0.086 0.189 0.086 0.378 0.003 0.272-0.086 0.48-0.272 0.627-0.253 0.198 0.006 0.189-4.506 0.189-4.63 0-4.307 0.016-4.563-0.24-0.419-0.419-0.246-1.139 0.317-1.315 0.106-0.032 0.976-0.042 4.246-0.042 3.606-0.003 4.134 0.003 4.256 0.045zM23.568 17.306c0.259 0.147 0.432 0.438 0.432 0.726 0 0.179-0.099 0.406-0.24 0.544-0.25 0.25-0.125 0.24-2.944 0.24-2.064 0-2.528-0.006-2.653-0.045-0.566-0.173-0.746-0.893-0.323-1.315 0.246-0.246 0.099-0.237 3.008-0.23l2.592 0.006 0.128 0.074z"></path>
<path fill="#ff7900" d="M9.648 10.838c-0.294 0.064-0.502 0.122-0.624 0.179-1.165 0.534-1.712 1.811-1.296 3.008 0.256 0.726 0.89 1.309 1.648 1.514 0.259 0.070 0.81 0.083 1.078 0.026 0.739-0.154 1.338-0.611 1.67-1.28 0.192-0.384 0.24-0.602 0.24-1.069 0.003-0.461-0.045-0.669-0.243-1.069-0.326-0.669-0.928-1.13-1.664-1.28-0.227-0.048-0.659-0.064-0.81-0.029z"></path>
</svg>
