<!-- Generated by IcoMoon.io -->
<svg version="1.1" xmlns="http://www.w3.org/2000/svg" width="32" height="32" viewBox="0 0 32 32">
<title>copy</title>
<path fill="#ff7900" d="M4.81 11.814c0.010 10.323-0.006 9.45 0.192 9.933 0.218 0.538 0.704 1.021 1.264 1.261 0.422 0.179 0.506 0.186 2.4 0.189l1.734 0.003v-4h-1.258c-1.434 0-1.469-0.006-1.702-0.24-0.374-0.371-0.294-0.976 0.166-1.251l0.154-0.093 2.64-0.019v-1.594l-1.318-0.010c-1.475-0.010-1.408 0-1.654-0.246-0.371-0.371-0.266-1.011 0.208-1.251l0.157-0.080 2.608-0.019v-1.594l-2.611-0.019-0.157-0.083c-0.554-0.285-0.56-1.091-0.013-1.405l0.141-0.080 2.64-0.019v-3.197h4.611l-0.109-0.138c-0.214-0.259-0.397-0.675-0.467-1.056-0.016-0.083-0.029-0.16-0.032-0.166 0-0.010-0.003-0.966-0.003-2.128v-2.112h-9.6l0.010 9.414z"></path>
<path fill="#ff7900" d="M16 4.474c0 2.317-0.006 2.243 0.246 2.49 0.25 0.243 0.176 0.237 2.496 0.237h2.058l-2.384-2.384c-1.312-1.312-2.394-2.384-2.4-2.384-0.010 0-0.016 0.918-0.016 2.042z"></path>
<path fill="#ff7900" d="M11.2 18.112c0 10.128-0.010 9.507 0.173 9.974 0.218 0.557 0.704 1.062 1.248 1.302 0.474 0.211-0.179 0.192 7.565 0.202l7.014 0.010v-14.397l-2.214-0.010c-2.483-0.013-2.358-0.003-2.858-0.253-0.723-0.368-1.229-1.085-1.309-1.856-0.010-0.077-0.016-1.072-0.016-2.214l-0.003-2.070h-9.6v9.312zM24.403 17.712c0.189 0.118 0.355 0.355 0.384 0.554 0.051 0.336-0.125 0.685-0.419 0.835l-0.157 0.083-4.944 0.010c-5.562 0.010-5.171 0.026-5.424-0.23-0.282-0.282-0.317-0.714-0.086-1.040 0.083-0.115 0.294-0.259 0.426-0.291 0.058-0.016 2.346-0.022 5.085-0.022l4.979 0.006 0.157 0.096zM24.259 20.848c0.554 0.189 0.717 0.899 0.301 1.312-0.259 0.259 0.17 0.243-5.424 0.234-5.574-0.010-5.043 0.013-5.306-0.246-0.307-0.304-0.301-0.803 0.016-1.11 0.256-0.25-0.163-0.23 5.341-0.234 4.342-0.003 4.947 0.003 5.072 0.045zM24.394 24.109c0.461 0.275 0.541 0.88 0.166 1.251-0.256 0.259 0.163 0.24-5.36 0.24-5.51 0-5.091 0.019-5.354-0.237-0.288-0.278-0.323-0.714-0.083-1.046 0.080-0.112 0.291-0.253 0.429-0.288 0.054-0.013 2.336-0.019 5.072-0.019l4.976 0.006 0.154 0.093z"></path>
<path fill="#ff7900" d="M22.4 10.874c0 2.294-0.006 2.24 0.23 2.477 0.256 0.256 0.134 0.243 2.467 0.246 1.139 0.003 2.070-0.003 2.070-0.013 0-0.019-4.733-4.752-4.752-4.752-0.010 0-0.016 0.918-0.016 2.042z"></path>
</svg>
