<!-- Generated by IcoMoon.io -->
<svg version="1.1" xmlns="http://www.w3.org/2000/svg" width="32" height="32" viewBox="0 0 32 32">
<title>Courier</title>
<path fill="#ff7900" d="M7.136 4.022c-0.461 0.045-0.976 0.192-1.363 0.384-0.266 0.134-2.842 1.603-3.005 1.715-0.32 0.221-0.432 0.611-0.278 0.96 0.128 0.291 0.381 0.451 0.71 0.454 0.25 0 0.179 0.035 2.016-1.024 1.389-0.797 1.603-0.893 2.083-0.931 0.576-0.042 1.136 0.122 1.613 0.474 0.285 0.208 0.499 0.48 0.774 0.97 0.070 0.122 1.501 2.586 3.178 5.472s3.085 5.312 3.13 5.392c0.042 0.080 0.125 0.224 0.186 0.32 0.211 0.355 1.139 1.962 1.152 1.997 0.010 0.026-0.102 0.032-0.394 0.029-0.63-0.010-1.162 0.106-1.731 0.374-2.477 1.174-2.998 4.464-1.005 6.339 0.557 0.525 1.222 0.861 1.99 1.011 0.362 0.067 1.050 0.067 1.408 0 1.632-0.317 2.87-1.562 3.155-3.171 0.029-0.16 0.054-0.477 0.058-0.704l0.003-0.413 0.848-0.486c0.467-0.266 1.296-0.742 1.84-1.056 0.547-0.314 1.142-0.656 1.328-0.762s0.381-0.218 0.432-0.246c0.054-0.032 0.666-0.384 1.36-0.784s1.338-0.768 1.424-0.816c0.090-0.048 0.269-0.154 0.4-0.23 0.131-0.080 0.326-0.192 0.432-0.25 0.496-0.272 0.656-0.429 0.714-0.694 0.080-0.365-0.128-0.765-0.464-0.893-0.294-0.112-0.522-0.067-0.97 0.198-0.080 0.048-0.675 0.39-1.328 0.765-1.818 1.043-3.901 2.237-5.286 3.034l-1.254 0.72-0.374-0.643c-0.205-0.355-0.678-1.171-1.053-1.814s-1.12-1.933-1.661-2.864c-1.027-1.766-1.123-1.936-1.386-2.384-0.394-0.675-0.592-1.014-1.85-3.184-0.733-1.267-1.459-2.522-1.616-2.784-0.154-0.266-0.573-0.986-0.928-1.6-0.819-1.418-1.053-1.722-1.648-2.144-0.47-0.336-1.018-0.57-1.571-0.672-0.259-0.051-0.832-0.080-1.069-0.058zM17.293 22.624c0.826 0.211 1.331 1.050 1.12 1.869-0.182 0.707-0.787 1.178-1.517 1.178-1.382 0.003-2.086-1.664-1.114-2.637 0.41-0.41 0.944-0.557 1.51-0.41z"></path>
<path fill="#ff7900" d="M23.485 8.65c-0.064 0.026-0.278 0.138-0.48 0.253-2.691 1.549-4.003 2.301-5.341 3.066-1.238 0.707-1.366 0.803-1.459 1.098-0.112 0.362-0.298 0.006 2.755 5.254 0.214 0.368 0.582 1.002 0.816 1.408 0.458 0.787 0.547 0.909 0.755 1.008 0.15 0.074 0.461 0.093 0.602 0.035 0.093-0.038 1.651-0.928 4.547-2.595 0.301-0.173 0.605-0.349 0.675-0.39 1.277-0.723 1.763-1.014 1.84-1.091 0.154-0.15 0.227-0.326 0.23-0.547 0.003-0.202-0.035-0.307-0.205-0.595-0.365-0.618-1.571-2.698-1.67-2.88-0.051-0.096-0.106-0.192-0.118-0.208-0.013-0.019-0.416-0.71-0.896-1.536-0.477-0.829-0.928-1.606-1.002-1.728-0.16-0.275-0.288-0.419-0.451-0.502-0.16-0.083-0.445-0.106-0.598-0.048z"></path>
</svg>
