<!-- Generated by IcoMoon.io -->
<svg version="1.1" xmlns="http://www.w3.org/2000/svg" width="32" height="32" viewBox="0 0 32 32">
<title>CPU</title>
<path fill="#ff7900" d="M8.8 4.4v1.2h-0.902c-0.979 0-1.091 0.016-1.43 0.179-0.362 0.176-0.752 0.675-0.826 1.053-0.013 0.070-0.026 0.138-0.029 0.15-0.003 0.016-0.006 0.429-0.010 0.922l-0.003 0.896h-2.4v1.6h2.4v1.6h-2.4v1.6h2.4v1.6h-2.4v1.6h2.4v1.6h-2.4v1.6h2.4v1.6h-2.4v1.6h2.4l0.003 0.886c0.003 0.97 0.003 0.998 0.093 1.251 0.17 0.48 0.589 0.867 1.085 1.002 0.179 0.051 0.342 0.058 1.117 0.061h0.902v2.4h1.6v-2.4h1.6v2.4h1.6v-2.4h1.6v2.4h1.6v-2.4h1.6v2.4h1.6v-2.4h1.6v2.4h1.6v-2.4l0.89-0.003c0.95-0.003 0.963-0.003 1.206-0.080 0.47-0.15 0.874-0.55 1.021-1.021 0.077-0.243 0.077-0.256 0.080-1.21l0.003-0.886h2.4v-1.6h-2.4v-1.6h2.4v-1.6h-2.4v-1.6h2.4v-1.6h-2.4v-1.6h2.4v-1.6h-2.4v-1.6h2.4v-1.6h-2.4l-0.003-0.896c-0.003-0.493-0.006-0.906-0.010-0.922-0.003-0.013-0.016-0.080-0.032-0.147-0.048-0.25-0.214-0.541-0.432-0.758-0.234-0.23-0.368-0.31-0.691-0.41-0.195-0.061-0.294-0.067-1.123-0.067h-0.909v-2.4h-1.6v2.4h-1.6v-2.4h-1.6v2.4h-1.6v-2.4h-1.6v2.4h-1.6v-2.4h-1.6v2.4h-1.6v-2.4h-1.6v1.2zM21.6 16v5.6h-11.2v-11.2h11.2v5.6z"></path>
<path fill="#ff7900" d="M11.2 16v4.8h9.6v-9.6h-9.6v4.8z"></path>
</svg>
