<!-- Generated by IcoMoon.io -->
<svg version="1.1" xmlns="http://www.w3.org/2000/svg" width="32" height="32" viewBox="0 0 32 32">
<title>crane</title>
<path fill="#ff7900" d="M7.408 2.461c-0.122 0.077-5.706 5.664-5.763 5.766-0.032 0.061-0.042 0.362-0.045 1.373 0 1.229 0.003 1.302 0.064 1.398 0.128 0.211-0.022 0.202 2.896 0.202h2.64v15.2h-0.842c-0.915 0-1.050 0.019-1.254 0.173-0.061 0.048-0.15 0.154-0.198 0.237l-0.090 0.15-0.010 1.718-0.010 1.722h11.203v-1.661c0-1.798 0-1.808-0.179-2.042-0.042-0.058-0.147-0.144-0.23-0.192l-0.15-0.090-1.84-0.019v-15.197h12v4h0.8v-4h1.6v4h0.8v-3.984l0.243-0.042c0.918-0.144 1.536-1.059 1.309-1.942-0.138-0.528-0.506-0.95-0.986-1.123-0.198-0.074-0.234-0.080-0.566-0.106-0.25-0.022-0.381-0.054-0.736-0.189-0.429-0.16-0.79-0.291-2.768-1.014-0.563-0.205-1.21-0.442-1.44-0.528-0.486-0.179-1.366-0.502-2.976-1.088-0.634-0.23-1.229-0.448-1.318-0.48-0.093-0.035-0.246-0.093-0.336-0.128-0.093-0.032-0.608-0.221-1.146-0.419-0.538-0.195-1.43-0.522-1.984-0.723-0.554-0.205-1.158-0.426-1.344-0.49-0.186-0.067-0.573-0.214-0.864-0.326l-0.528-0.202-2.928-0.010c-2.822-0.006-2.931-0.003-3.024 0.054zM14.451 3.683c0.438 0.16 0.928 0.339 1.085 0.397 0.16 0.058 0.611 0.224 1.008 0.371 0.397 0.144 0.8 0.291 0.896 0.323 0.096 0.035 0.205 0.074 0.24 0.090s0.301 0.115 0.592 0.221c0.518 0.186 3.341 1.216 4.256 1.555 0.256 0.093 1.155 0.422 2 0.73 0.845 0.31 1.571 0.576 1.616 0.595 0.054 0.019-1.994 0.032-6.23 0.032l-6.314 0.003v-2.304c0-1.267 0.013-2.304 0.026-2.304 0.016 0 0.387 0.131 0.826 0.291zM7.2 5.888v2.112h-4.24l2.112-2.112c1.162-1.162 2.115-2.112 2.118-2.112 0.006 0 0.010 0.95 0.010 2.112zM11.472 4.061c-0.083 0.080-2.582 2.16-2.634 2.192-0.029 0.019-0.038-0.224-0.038-1.114v-1.139h1.366c1.344 0 1.366 0 1.306 0.061zM11.99 7.99c-0.006 0.006-0.621 0.006-1.366 0.003l-1.357-0.010 2.717-2.262 0.010 1.126c0.003 0.621 0.003 1.136-0.003 1.142zM11.44 11.286c-0.176 0.157-2.56 2.141-2.598 2.163-0.032 0.022-0.042-0.211-0.042-1.11v-1.139h1.37l1.366 0.003-0.096 0.083zM11.99 15.19c-0.006 0.006-0.621 0.006-1.366 0.003l-1.357-0.010 2.717-2.262 0.010 1.126c0.003 0.621 0.003 1.136-0.003 1.142zM11.456 16.877c-0.099 0.093-2.56 2.141-2.614 2.176-0.032 0.019-0.042-0.214-0.042-1.114v-1.139h2.736l-0.080 0.077zM11.99 20.79c-0.006 0.006-0.621 0.006-1.366 0.003l-1.354-0.010 1.357-1.133 1.357-1.13 0.010 1.126c0.003 0.621 0.003 1.136-0.003 1.142zM11.52 22.413c0 0.016-2.614 2.198-2.678 2.237-0.035 0.022-0.042-0.179-0.042-1.114v-1.136h1.36c0.749 0 1.36 0.006 1.36 0.013zM11.99 26.39c-0.006 0.006-0.621 0.006-1.366 0.003l-1.354-0.010 2.714-2.266 0.010 1.13c0.003 0.621 0.003 1.136-0.003 1.142z"></path>
<path fill="#ff7900" d="M24.986 16.051c-0.109 0.058-0.186 0.198-0.186 0.342 0 0.122 0.096 0.288 0.544 0.931 0.166 0.24 0.474 0.682 0.682 0.979l0.374 0.544v0.618c0 0.704 0.032 0.867 0.198 1.056 0.154 0.17 0.317 0.243 0.614 0.282 0.39 0.048 0.63 0.221 0.742 0.538 0.179 0.496-0.224 1.059-0.755 1.059-0.419 0-0.8-0.378-0.8-0.797 0-0.214-0.173-0.39-0.378-0.394-0.298-0.003-0.445 0.189-0.41 0.544 0.067 0.682 0.538 1.222 1.219 1.398 0.531 0.134 1.085-0.022 1.491-0.429 0.486-0.486 0.608-1.2 0.314-1.814-0.102-0.221-0.355-0.515-0.528-0.621l-0.109-0.070v-1.376l0.266-0.381c0.144-0.211 0.477-0.688 0.736-1.062 0.262-0.371 0.502-0.733 0.538-0.797 0.115-0.224 0.051-0.458-0.15-0.554-0.154-0.070-4.272-0.070-4.403 0.003z"></path>
</svg>
