<!-- Generated by IcoMoon.io -->
<svg version="1.1" xmlns="http://www.w3.org/2000/svg" width="32" height="32" viewBox="0 0 32 32">
<title>Crop</title>
<path fill="#ff7900" d="M8.448 2.442c-0.624 0.147-1.123 0.675-1.229 1.302-0.010 0.045-0.016 0.838-0.016 1.766l-0.003 1.69h-1.658c-1.053 0-1.728 0.013-1.85 0.035-0.534 0.096-1.011 0.509-1.203 1.043-0.086 0.234-0.106 0.666-0.042 0.902 0.16 0.614 0.682 1.098 1.296 1.2 0.045 0.010 0.838 0.016 1.77 0.016l1.686 0.003v6.48c0 4.605 0.010 6.525 0.035 6.646 0.128 0.611 0.653 1.13 1.258 1.238 0.134 0.026 2.15 0.035 6.65 0.035h6.458l0.003 1.686c0 0.931 0.006 1.725 0.016 1.77 0.096 0.576 0.525 1.072 1.085 1.264 0.218 0.074 0.608 0.096 0.819 0.048 0.64-0.147 1.155-0.682 1.258-1.299 0.006-0.051 0.016-0.851 0.016-1.782l0.003-1.686h1.68c1.101 0 1.734-0.013 1.846-0.035 0.771-0.16 1.328-0.902 1.264-1.686-0.054-0.701-0.579-1.299-1.264-1.443-0.112-0.022-0.746-0.035-1.846-0.035h-1.68v-13.264l2.317-2.32c1.386-1.382 2.346-2.368 2.387-2.445 0.205-0.384 0.042-0.886-0.355-1.091-0.16-0.083-0.41-0.096-0.608-0.032-0.163 0.054-0.294 0.176-2.525 2.403l-2.352 2.349h-13.264v-1.706c0-1.373-0.010-1.734-0.048-1.875-0.138-0.528-0.525-0.95-1.030-1.13-0.23-0.080-0.634-0.102-0.874-0.048zM19.6 11.264c-1.286 1.29-9.168 9.165-9.184 9.181-0.010 0.006-0.016-2.25-0.016-5.014v-5.030h10.064l-0.864 0.864zM21.59 21.59c-0.006 0.006-2.269 0.006-5.027 0.003l-5.011-0.010 10.032-10.032 0.010 5.014c0.003 2.755 0.003 5.018-0.003 5.024z"></path>
</svg>
