<!-- Generated by IcoMoon.io -->
<svg version="1.1" xmlns="http://www.w3.org/2000/svg" width="32" height="32" viewBox="0 0 32 32">
<title>currency_converter</title>
<path fill="#ff7900" d="M5.603 14.566c0 7.731 0.013 12.253 0.032 12.394 0.166 1.197 0.89 2.106 1.968 2.474 0.509 0.176 0.006 0.166 9.782 0.166h9.014v-24.336l-0.077-0.368c-0.042-0.202-0.112-0.461-0.157-0.573-0.352-0.858-1.002-1.488-1.818-1.763-0.493-0.166-0.042-0.16-9.734-0.16h-9.014l0.003 12.166zM22.672 4.854c0.205 0.067 0.406 0.272 0.477 0.48 0.048 0.144 0.051 0.406 0.045 2.733-0.010 2.563-0.010 2.573-0.077 2.701-0.090 0.163-0.208 0.282-0.358 0.358-0.115 0.054-0.371 0.058-6.742 0.058h-6.624l-0.128-0.070c-0.17-0.090-0.317-0.25-0.397-0.426-0.064-0.141-0.067-0.198-0.067-2.675 0-2.749-0.006-2.669 0.176-2.909 0.086-0.109 0.294-0.25 0.416-0.282 0.035-0.006 3.002-0.016 6.595-0.019 6-0.003 6.541 0 6.685 0.051zM14.608 12.835c0.173 0.045 0.406 0.24 0.506 0.426l0.070 0.131 0.010 2.56c0.006 1.958 0 2.595-0.032 2.704-0.026 0.099-0.090 0.195-0.202 0.307-0.134 0.134-0.195 0.173-0.339 0.205-0.125 0.026-0.848 0.032-2.701 0.026-2.134-0.010-2.544-0.016-2.624-0.058-0.195-0.093-0.346-0.237-0.422-0.403l-0.074-0.166 0.006-2.57 0.010-2.573 0.070-0.134c0.125-0.24 0.246-0.346 0.506-0.448 0.134-0.051 5.011-0.058 5.216-0.006zM22.704 12.877c0.186 0.086 0.317 0.208 0.413 0.387 0.067 0.128 0.067 0.128 0.067 2.752v2.624l-0.090 0.15c-0.048 0.083-0.134 0.189-0.192 0.23-0.24 0.182-0.166 0.179-2.867 0.179-2.864 0-2.723 0.013-2.998-0.269-0.109-0.112-0.173-0.211-0.198-0.307-0.032-0.109-0.038-0.746-0.032-2.672l0.010-2.528 0.083-0.16c0.090-0.17 0.32-0.371 0.49-0.426 0.064-0.019 1.024-0.032 2.627-0.035l2.528-0.003 0.16 0.077zM14.63 20.838c0.16 0.048 0.39 0.25 0.483 0.422l0.070 0.131 0.010 2.573c0.010 2.874 0.016 2.768-0.211 2.989-0.064 0.064-0.182 0.144-0.262 0.179-0.141 0.064-0.202 0.064-2.694 0.067-2.339 0-2.56-0.006-2.701-0.058-0.195-0.070-0.435-0.304-0.486-0.477-0.029-0.096-0.038-0.774-0.038-2.64 0-2.842-0.013-2.694 0.253-2.966 0.259-0.269 0.102-0.253 2.944-0.256 1.837-0.003 2.541 0.006 2.634 0.035zM22.768 20.87c0.163 0.093 0.33 0.288 0.381 0.458 0.048 0.144 0.051 0.442 0.045 2.736l-0.010 2.576-0.070 0.131c-0.109 0.202-0.294 0.352-0.493 0.397-0.125 0.026-0.874 0.032-2.701 0.026l-2.528-0.010-0.131-0.070c-0.186-0.099-0.381-0.333-0.426-0.506-0.048-0.198-0.048-5.037 0-5.216 0.067-0.243 0.307-0.483 0.563-0.56 0.051-0.016 1.258-0.026 2.682-0.022 2.374 0.006 2.602 0.010 2.688 0.061z"></path>
<path fill="#ff7900" d="M11.808 13.632c-0.349 0.061-0.653 0.23-0.912 0.502-0.134 0.144-0.378 0.63-0.432 0.864l-0.038 0.17h-0.192c-0.182 0-0.202 0.006-0.301 0.115-0.243 0.256-0.077 0.589 0.294 0.589 0.112 0 0.115 0.006 0.115 0.176 0 0.173-0.003 0.176-0.134 0.176-0.298 0-0.464 0.237-0.349 0.49 0.051 0.112 0.157 0.157 0.358 0.157h0.179l0.035 0.166c0.022 0.090 0.096 0.282 0.17 0.426 0.323 0.659 0.912 0.976 1.712 0.928 0.493-0.032 0.771-0.144 1.046-0.419 0.173-0.173 0.368-0.518 0.368-0.653 0-0.189-0.198-0.358-0.422-0.358-0.144 0-0.237 0.070-0.33 0.253-0.186 0.368-0.323 0.454-0.752 0.477-0.259 0.010-0.333 0.003-0.493-0.058-0.218-0.083-0.422-0.275-0.525-0.49-0.134-0.282-0.182-0.262 0.643-0.266 0.726-0.003 0.733-0.003 0.806-0.080 0.093-0.093 0.122-0.234 0.077-0.374-0.061-0.182-0.131-0.198-0.957-0.198h-0.739l0.019-0.358h0.877c0.506 0 0.906-0.013 0.947-0.032 0.214-0.096 0.214-0.531-0.003-0.63-0.054-0.022-0.358-0.035-0.909-0.035-0.458 0-0.832-0.006-0.832-0.016 0-0.051 0.122-0.31 0.198-0.426 0.202-0.298 0.451-0.426 0.832-0.426 0.406-0.003 0.595 0.106 0.771 0.445 0.144 0.272 0.176 0.301 0.374 0.32 0.147 0.013 0.166 0.006 0.272-0.099 0.154-0.154 0.157-0.275 0.022-0.563-0.102-0.221-0.416-0.541-0.624-0.637-0.32-0.15-0.781-0.202-1.174-0.134z"></path>
<path fill="#ff7900" d="M19.818 13.485c-0.080 0.070-0.093 0.102-0.106 0.323l-0.016 0.246-0.186 0.061c-0.358 0.122-0.573 0.307-0.736 0.634-0.090 0.182-0.099 0.237-0.099 0.48 0 0.323 0.070 0.502 0.266 0.704 0.157 0.16 0.227 0.195 0.691 0.339 0.554 0.173 0.672 0.227 0.736 0.349 0.077 0.144 0.045 0.31-0.083 0.416-0.176 0.15-0.432 0.15-0.877 0.003-0.416-0.138-0.557-0.112-0.685 0.115-0.211 0.374 0.077 0.666 0.79 0.8l0.198 0.038 0.003 0.147c0.003 0.259 0.022 0.336 0.109 0.41 0.115 0.099 0.256 0.096 0.352-0.010 0.070-0.077 0.080-0.115 0.080-0.336 0-0.246 0-0.253 0.090-0.272 0.182-0.045 0.496-0.221 0.63-0.358 0.246-0.246 0.362-0.595 0.323-0.995-0.045-0.515-0.333-0.774-1.155-1.040-0.445-0.147-0.496-0.173-0.544-0.288-0.051-0.122-0.029-0.195 0.083-0.291 0.144-0.118 0.285-0.131 0.602-0.048 0.15 0.042 0.33 0.070 0.394 0.070 0.314-0.006 0.493-0.362 0.314-0.614-0.083-0.115-0.317-0.237-0.566-0.291l-0.166-0.038v-0.218c0.003-0.294-0.080-0.41-0.298-0.413-0.029 0-0.096 0.035-0.144 0.077z"></path>
<path fill="#ff7900" d="M11.84 21.869c-0.534 0.131-0.925 0.41-1.075 0.774-0.077 0.179-0.083 0.493-0.016 0.736l0.058 0.205h-0.173c-0.192 0-0.304 0.048-0.426 0.176-0.067 0.074-0.080 0.115-0.080 0.288 0 0.323 0.147 0.435 0.589 0.451 0.147 0.006 0.272 0.016 0.282 0.022 0.006 0.010-0.013 0.122-0.045 0.25-0.042 0.179-0.099 0.304-0.243 0.518-0.166 0.25-0.189 0.301-0.189 0.438 0.003 0.186 0.064 0.32 0.189 0.403 0.083 0.058 0.176 0.061 1.434 0.070 1.235 0.006 1.354 0.003 1.453-0.048 0.317-0.166 0.342-0.602 0.042-0.778-0.109-0.064-0.157-0.070-0.963-0.070-0.467-0.003-0.861-0.006-0.874-0.016-0.013-0.006 0.019-0.099 0.067-0.211 0.093-0.205 0.17-0.496 0.144-0.541-0.010-0.013 0.003-0.026 0.026-0.029 0.022 0 0.144-0.003 0.266-0.010 0.365-0.013 0.528-0.134 0.554-0.406 0.032-0.355-0.166-0.509-0.662-0.509h-0.294l-0.064-0.15c-0.112-0.262-0.083-0.454 0.096-0.611 0.128-0.112 0.307-0.147 0.506-0.102s0.291 0.112 0.461 0.342c0.173 0.23 0.294 0.304 0.47 0.288 0.256-0.026 0.461-0.243 0.461-0.483 0-0.397-0.33-0.749-0.877-0.938-0.288-0.096-0.838-0.128-1.114-0.061z"></path>
<path fill="#ff7900" d="M18.56 22.234c-0.093 0.093-0.128 0.157-0.144 0.275-0.029 0.195-0.013 0.23 0.339 0.71 0.157 0.214 0.285 0.4 0.285 0.41s-0.122 0.019-0.266 0.019c-0.288 0-0.374 0.042-0.374 0.182s0.090 0.17 0.518 0.17h0.403l0.115 0.157c0.064 0.086 0.115 0.186 0.115 0.224 0 0.067-0.013 0.067-0.522 0.067-0.467 0-0.531 0.006-0.576 0.058-0.070 0.077-0.067 0.176 0.003 0.24 0.051 0.045 0.141 0.054 0.573 0.054h0.515v0.557c0 0.608 0.029 0.739 0.189 0.842 0.17 0.112 0.426 0.102 0.566-0.019 0.138-0.122 0.157-0.218 0.163-0.803l0.003-0.56 0.509-0.010c0.547-0.010 0.624-0.032 0.624-0.182s-0.077-0.173-0.624-0.182l-0.512-0.010 0.010-0.077c0.006-0.042 0.058-0.141 0.112-0.214l0.102-0.138 0.403-0.003c0.349 0 0.41-0.006 0.454-0.058 0.070-0.077 0.067-0.176-0.003-0.24-0.045-0.042-0.122-0.054-0.32-0.054h-0.262l0.288-0.378c0.323-0.429 0.416-0.608 0.394-0.755-0.042-0.253-0.198-0.403-0.426-0.403-0.256 0-0.304 0.045-0.88 0.848-0.122 0.173-0.25 0.342-0.282 0.381-0.067 0.080-0.032 0.115-0.406-0.429-0.422-0.621-0.461-0.666-0.579-0.733-0.067-0.038-0.176-0.067-0.253-0.067-0.115 0-0.154 0.019-0.256 0.122z"></path>
</svg>
