<!-- Generated by IcoMoon.io -->
<svg version="1.1" xmlns="http://www.w3.org/2000/svg" width="32" height="32" viewBox="0 0 32 32">
<title>Currency_brazilian_real</title>
<path fill="#ff7900" d="M2.4 15.2v8h25.6v-16h-25.6v8zM24.010 9.078c-0.070 1.194 0.915 2.182 2.112 2.112l0.278-0.016v8.045h-0.374c-0.275 0-0.429 0.016-0.57 0.058-0.912 0.278-1.501 1.114-1.446 2.042l0.019 0.282h-17.658l0.019-0.25c0.061-0.803-0.374-1.574-1.085-1.923-0.352-0.176-0.662-0.24-1.024-0.214l-0.282 0.019v-8.048h0.394c0.339-0.003 0.422-0.016 0.637-0.090 0.49-0.17 0.906-0.525 1.139-0.973 0.166-0.32 0.227-0.608 0.214-1.011l-0.010-0.31h17.654l-0.019 0.278z"></path>
<path fill="#ff7900" d="M14.618 10.435c-1.971 0.256-3.558 1.648-4.058 3.552-0.122 0.461-0.144 0.691-0.141 1.325 0.006 0.707 0.141 1.302 0.432 1.92 0.682 1.443 1.981 2.422 3.594 2.704 0.362 0.064 1.248 0.064 1.539 0.003 0.090-0.019 0.189-0.038 0.224-0.045 0.262-0.045 0.784-0.23 1.117-0.397 1.373-0.685 2.285-1.891 2.598-3.434 0.061-0.301 0.080-1.194 0.035-1.504-0.17-1.114-0.646-2.051-1.427-2.813-0.717-0.694-1.542-1.101-2.627-1.299-0.189-0.032-1.059-0.042-1.286-0.013zM15.488 11.754c0.205 0.134 0.24 0.24 0.253 0.794 0.003 0.077 0.026 0.090 0.259 0.15 0.832 0.224 1.12 0.621 0.845 1.174-0.163 0.333-0.416 0.41-0.845 0.259-0.778-0.275-1.229-0.179-1.549 0.326-0.355 0.566-0.221 1.418 0.285 1.766 0.339 0.234 0.701 0.234 1.334 0.003 0.102-0.038 0.23-0.067 0.288-0.067 0.154 0 0.352 0.112 0.458 0.266 0.086 0.118 0.096 0.16 0.093 0.365 0 0.192-0.013 0.25-0.086 0.358-0.128 0.192-0.352 0.339-0.685 0.448-0.16 0.054-0.317 0.099-0.342 0.099-0.029 0-0.051 0.010-0.054 0.022 0 0.016-0.003 0.163-0.006 0.33-0.006 0.237-0.022 0.326-0.070 0.413-0.189 0.323-0.605 0.339-0.806 0.029-0.083-0.122-0.096-0.211-0.106-0.707 0-0.067-0.016-0.086-0.074-0.086-0.038 0-0.166-0.035-0.282-0.077-0.758-0.275-1.245-0.8-1.488-1.603-0.077-0.259-0.086-0.339-0.090-0.784 0-0.579 0.061-0.87 0.269-1.299 0.317-0.653 0.749-1.018 1.443-1.238 0.122-0.035 0.221-0.083 0.224-0.099 0-0.019 0.003-0.154 0.010-0.298 0.006-0.237 0.016-0.282 0.102-0.4 0.15-0.214 0.426-0.278 0.621-0.144z"></path>
<path fill="#ff7900" d="M7.392 14.019c-0.208 0.038-0.509 0.198-0.643 0.339-0.662 0.691-0.314 1.818 0.621 2.013 0.106 0.022 0.221 0.035 0.259 0.029s0.131-0.019 0.208-0.029c0.499-0.074 0.963-0.627 0.963-1.152 0-0.746-0.691-1.331-1.408-1.2z"></path>
<path fill="#ff7900" d="M22.656 14.010c-0.902 0.125-1.347 1.13-0.835 1.875 0.419 0.605 1.29 0.688 1.808 0.17 0.592-0.592 0.442-1.549-0.294-1.923-0.202-0.102-0.477-0.15-0.678-0.122z"></path>
<path fill="#ff7900" d="M28.8 16.8v7.2h-24.8v1.6h26.4v-16h-1.6v7.2z"></path>
</svg>
