<!-- Generated by IcoMoon.io -->
<svg version="1.1" xmlns="http://www.w3.org/2000/svg" width="32" height="32" viewBox="0 0 32 32">
<title>Currency_yen</title>
<path fill="#ff7900" d="M2.4 15.2v8h25.6v-16h-25.6v8zM24.010 9.078c-0.070 1.194 0.915 2.182 2.112 2.112l0.278-0.016v8.045h-0.374c-0.275 0-0.429 0.016-0.57 0.058-0.912 0.278-1.501 1.114-1.446 2.042l0.019 0.282h-17.658l0.019-0.25c0.061-0.803-0.374-1.574-1.085-1.923-0.352-0.176-0.662-0.24-1.024-0.214l-0.282 0.019v-8.048h0.394c0.339-0.003 0.422-0.016 0.637-0.090 0.49-0.17 0.906-0.525 1.139-0.973 0.166-0.32 0.227-0.608 0.214-1.011l-0.010-0.31h17.654l-0.019 0.278z"></path>
<path fill="#ff7900" d="M14.618 10.435c-1.971 0.256-3.558 1.648-4.058 3.552-0.122 0.461-0.144 0.691-0.141 1.325 0.006 0.707 0.141 1.302 0.432 1.92 0.682 1.443 1.981 2.422 3.594 2.704 0.362 0.064 1.248 0.064 1.539 0.003 0.090-0.019 0.189-0.038 0.224-0.045 0.262-0.045 0.784-0.23 1.117-0.397 1.373-0.685 2.285-1.891 2.598-3.434 0.061-0.301 0.080-1.194 0.035-1.504-0.17-1.114-0.646-2.051-1.427-2.813-0.717-0.694-1.542-1.101-2.627-1.299-0.189-0.032-1.059-0.042-1.286-0.013zM17.728 12.867c0 0.010-0.224 0.403-0.496 0.874s-0.496 0.861-0.496 0.864c0 0.006 0.189 0.010 0.416 0.006l0.416-0.003v0.483l-0.557-0.003h-0.554l-0.227 0.39-0.227 0.394 0.102 0.003c0.058 0 0.387 0 0.736 0l0.63-0.003v0.496h-1.616l-0.010 0.886-0.006 0.89h-1.309v-0.762c0-0.416 0-0.816 0-0.886l-0.003-0.131-0.79 0.003h-0.794l-0.003-0.246-0.006-0.246h0.704c0.387 0 0.71-0.003 0.717-0.010 0.003-0.006-0.083-0.17-0.198-0.362-0.112-0.195-0.208-0.365-0.214-0.384s-0.237-0.032-0.57-0.032h-0.557v-0.477h0.41c0.224 0.003 0.406-0.010 0.406-0.022s-0.125-0.237-0.275-0.499c-0.323-0.554-0.378-0.65-0.486-0.842-0.045-0.080-0.109-0.189-0.141-0.24-0.032-0.054-0.058-0.106-0.058-0.122 0-0.013 0.307-0.022 0.682-0.022h0.682l0.128 0.246c0.070 0.138 0.307 0.595 0.525 1.018s0.419 0.816 0.448 0.87l0.051 0.102 0.278-0.55c0.509-0.995 0.838-1.638 0.861-1.674s1.402-0.048 1.402-0.010z"></path>
<path fill="#ff7900" d="M7.392 14.019c-0.208 0.038-0.509 0.198-0.643 0.339-0.662 0.691-0.314 1.818 0.621 2.013 0.106 0.022 0.221 0.035 0.259 0.029s0.131-0.019 0.208-0.029c0.499-0.074 0.963-0.627 0.963-1.152 0-0.746-0.691-1.331-1.408-1.2z"></path>
<path fill="#ff7900" d="M22.656 14.010c-0.902 0.125-1.347 1.13-0.835 1.875 0.419 0.605 1.29 0.688 1.808 0.17 0.592-0.592 0.442-1.549-0.294-1.923-0.202-0.102-0.477-0.15-0.678-0.122z"></path>
<path fill="#ff7900" d="M28.8 16.8v7.2h-24.8v1.6h26.4v-16h-1.6v7.2z"></path>
</svg>
