<!-- Generated by IcoMoon.io -->
<svg version="1.1" xmlns="http://www.w3.org/2000/svg" width="32" height="32" viewBox="0 0 32 32">
<title>Currency_dollar</title>
<path fill="#ff7900" d="M2.4 15.2v8h25.6v-16h-25.6v8zM24.010 9.078c-0.070 1.194 0.915 2.182 2.112 2.112l0.278-0.016v8.045h-0.374c-0.275 0-0.429 0.016-0.57 0.058-0.912 0.278-1.501 1.114-1.446 2.042l0.019 0.282h-17.658l0.019-0.25c0.061-0.803-0.374-1.574-1.085-1.923-0.352-0.176-0.662-0.24-1.024-0.214l-0.282 0.019v-8.048h0.394c0.339-0.003 0.422-0.016 0.637-0.090 0.49-0.17 0.906-0.525 1.139-0.973 0.166-0.32 0.227-0.608 0.214-1.011l-0.010-0.31h17.654l-0.019 0.278z"></path>
<path fill="#ff7900" d="M14.618 10.435c-1.971 0.256-3.558 1.648-4.058 3.552-0.122 0.461-0.144 0.691-0.141 1.325 0.006 0.707 0.141 1.302 0.432 1.92 0.682 1.443 1.981 2.422 3.594 2.704 0.358 0.064 1.245 0.064 1.539 0.003 0.090-0.019 0.195-0.042 0.24-0.048 0.656-0.125 1.475-0.528 2.035-0.998 0.88-0.736 1.427-1.67 1.664-2.829 0.061-0.301 0.080-1.194 0.035-1.504-0.17-1.104-0.64-2.038-1.414-2.797-0.717-0.704-1.546-1.117-2.64-1.315-0.189-0.032-1.059-0.042-1.286-0.013zM15.475 11.523c0.106 0.090 0.147 0.23 0.154 0.522l0.003 0.288 0.208 0.038c0.384 0.070 0.717 0.246 0.835 0.438 0.182 0.301-0.042 0.755-0.403 0.806-0.141 0.022-0.211 0.010-0.688-0.125-0.317-0.090-0.602-0.048-0.806 0.118-0.080 0.064-0.128 0.214-0.106 0.333 0.029 0.154 0.173 0.253 0.538 0.365 1.373 0.422 1.763 0.736 1.856 1.488 0.083 0.653-0.186 1.28-0.682 1.603-0.163 0.106-0.48 0.246-0.63 0.278-0.122 0.029-0.131 0.051-0.131 0.413-0.003 0.227-0.016 0.301-0.070 0.39-0.134 0.214-0.461 0.221-0.611 0.013-0.067-0.096-0.074-0.131-0.090-0.672-0.003-0.038-0.061-0.061-0.25-0.090-0.64-0.099-1.072-0.33-1.194-0.634-0.083-0.214 0.042-0.563 0.243-0.698 0.138-0.090 0.39-0.074 0.733 0.045 0.381 0.131 0.64 0.189 0.816 0.176 0.643-0.042 0.867-0.682 0.333-0.95-0.054-0.029-0.365-0.134-0.688-0.234-0.806-0.246-0.963-0.333-1.19-0.646-0.176-0.243-0.256-0.49-0.256-0.806 0-0.31 0.038-0.477 0.176-0.752 0.192-0.4 0.675-0.765 1.136-0.864 0.058-0.010 0.112-0.032 0.122-0.048s0.022-0.154 0.029-0.31c0.013-0.339 0.054-0.435 0.218-0.518 0.131-0.064 0.298-0.051 0.397 0.032z"></path>
<path fill="#ff7900" d="M7.392 14.019c-0.208 0.038-0.509 0.198-0.643 0.339-0.662 0.691-0.314 1.818 0.621 2.013 0.106 0.022 0.221 0.035 0.259 0.029s0.131-0.019 0.208-0.029c0.499-0.074 0.963-0.627 0.963-1.152 0-0.746-0.691-1.331-1.408-1.2z"></path>
<path fill="#ff7900" d="M22.656 14.010c-0.902 0.125-1.347 1.13-0.835 1.875 0.419 0.605 1.29 0.688 1.808 0.17 0.592-0.592 0.442-1.549-0.294-1.923-0.202-0.102-0.477-0.15-0.678-0.122z"></path>
<path fill="#ff7900" d="M28.8 16.8v7.2h-24.8v1.6h26.4v-16h-1.6v7.2z"></path>
</svg>
