<!-- Generated by IcoMoon.io -->
<svg version="1.1" xmlns="http://www.w3.org/2000/svg" width="32" height="32" viewBox="0 0 32 32">
<title>currency_euro</title>
<path fill="#ff7900" d="M2.4 15.2v8h25.6v-16h-25.6v8zM24.013 9.008c0.090 0.864 0.563 1.558 1.318 1.933 0.304 0.15 0.528 0.214 0.838 0.246l0.23 0.022v7.99h-0.118c-0.342 0.003-0.851 0.17-1.203 0.4-0.618 0.397-1.056 1.174-1.075 1.894l-0.003 0.106h-17.6l-0.003-0.074c-0.019-0.944-0.65-1.827-1.546-2.17-0.15-0.058-0.595-0.163-0.65-0.154-0.016 0.003-0.064 0.003-0.112 0l-0.090-0.003v-7.99l0.221-0.022c0.861-0.086 1.594-0.608 1.968-1.405 0.096-0.202 0.208-0.672 0.211-0.864v-0.118h17.59l0.022 0.208z"></path>
<path fill="#ff7900" d="M14.618 10.435c-1.971 0.256-3.568 1.658-4.054 3.555-0.125 0.48-0.131 0.538-0.147 1.098-0.016 0.659 0.022 0.941 0.224 1.584 0.403 1.29 1.35 2.342 2.63 2.922 0.32 0.144 0.742 0.269 1.174 0.342 0.358 0.064 1.245 0.064 1.539 0.003 0.090-0.019 0.195-0.042 0.24-0.048 0.656-0.125 1.475-0.528 2.035-0.998 0.88-0.736 1.427-1.67 1.664-2.829 0.061-0.301 0.080-1.194 0.035-1.504-0.17-1.114-0.646-2.051-1.427-2.813-0.717-0.694-1.542-1.101-2.627-1.299-0.189-0.032-1.059-0.042-1.286-0.013zM16.16 12.227c0.595 0.115 1.037 0.448 1.293 0.976 0.134 0.272 0.15 0.454 0.051 0.611-0.086 0.144-0.285 0.24-0.458 0.221-0.189-0.026-0.275-0.102-0.419-0.371-0.237-0.445-0.49-0.608-0.963-0.611-0.298-0.003-0.445 0.026-0.656 0.131-0.246 0.125-0.432 0.323-0.579 0.627-0.125 0.256-0.147 0.33-0.099 0.336 0.013 0.003 0.499 0.006 1.078 0.010 1.197 0.006 1.184 0.003 1.283 0.259 0.074 0.195 0.042 0.394-0.086 0.515l-0.096 0.093-0.758 0.006c-0.416 0.003-0.941 0.006-1.165 0.010h-0.41v0.445l1.99 0.019 0.093 0.112c0.074 0.086 0.093 0.141 0.093 0.266 0 0.176-0.064 0.323-0.17 0.381-0.051 0.026-0.326 0.038-0.973 0.042-0.496 0-0.909 0.010-0.922 0.019-0.022 0.026 0.067 0.275 0.16 0.429 0.166 0.282 0.451 0.483 0.784 0.557 0.080 0.019 0.288 0.029 0.464 0.026 0.506-0.013 0.714-0.144 0.931-0.573 0.128-0.256 0.246-0.346 0.454-0.346 0.186 0 0.346 0.080 0.442 0.221 0.128 0.192 0.086 0.384-0.17 0.778-0.362 0.55-0.906 0.803-1.738 0.803-0.442 0-0.749-0.064-1.088-0.224-0.32-0.154-0.701-0.531-0.877-0.867-0.125-0.243-0.275-0.65-0.275-0.749 0-0.064 0-0.064-0.256-0.070-0.33-0.010-0.474-0.128-0.486-0.397-0.003-0.15 0.096-0.33 0.214-0.384 0.045-0.022 0.166-0.038 0.266-0.038h0.182v-0.442l-0.221-0.016c-0.208-0.013-0.23-0.022-0.33-0.131-0.086-0.093-0.106-0.141-0.106-0.259 0-0.339 0.141-0.474 0.49-0.48 0.211 0 0.234-0.006 0.269-0.080 0.022-0.045 0.042-0.102 0.042-0.131 0-0.086 0.211-0.592 0.32-0.771 0.282-0.461 0.611-0.726 1.098-0.886 0.358-0.118 0.883-0.144 1.302-0.064z"></path>
<path fill="#ff7900" d="M7.392 14.019c-0.208 0.038-0.509 0.198-0.643 0.339-0.662 0.691-0.314 1.818 0.621 2.013 0.106 0.022 0.221 0.035 0.259 0.029s0.131-0.019 0.208-0.029c0.499-0.074 0.963-0.627 0.963-1.152 0-0.746-0.691-1.331-1.408-1.2z"></path>
<path fill="#ff7900" d="M22.656 14.010c-0.902 0.125-1.347 1.13-0.835 1.875 0.419 0.605 1.29 0.688 1.808 0.17 0.592-0.592 0.442-1.549-0.294-1.923-0.202-0.102-0.477-0.15-0.678-0.122z"></path>
<path fill="#ff7900" d="M28.8 16.8v7.2h-24.8v1.6h26.4v-16h-1.6v7.2z"></path>
</svg>
