<!-- Generated by IcoMoon.io -->
<svg version="1.1" xmlns="http://www.w3.org/2000/svg" width="32" height="32" viewBox="0 0 32 32">
<title>Currency_sterling</title>
<path fill="#ff7900" d="M2.4 15.2v8h25.6v-16h-25.6v8zM24.010 9.078c-0.070 1.194 0.915 2.182 2.112 2.112l0.278-0.016v8.045h-0.374c-0.275 0-0.429 0.016-0.57 0.058-0.912 0.278-1.501 1.114-1.446 2.042l0.019 0.282h-17.658l0.019-0.25c0.061-0.803-0.374-1.574-1.085-1.923-0.352-0.176-0.662-0.24-1.024-0.214l-0.282 0.019v-8.048h0.394c0.339-0.003 0.422-0.016 0.637-0.090 0.49-0.17 0.906-0.525 1.139-0.973 0.166-0.32 0.227-0.608 0.214-1.011l-0.010-0.31h17.654l-0.019 0.278z"></path>
<path fill="#ff7900" d="M14.618 10.435c-1.971 0.256-3.558 1.648-4.058 3.552-0.122 0.461-0.144 0.691-0.141 1.325 0.006 0.707 0.141 1.302 0.432 1.92 0.682 1.443 1.981 2.422 3.594 2.704 0.362 0.064 1.248 0.064 1.539 0.003 0.090-0.019 0.189-0.038 0.224-0.045 0.262-0.045 0.784-0.23 1.117-0.397 1.373-0.685 2.285-1.891 2.598-3.434 0.061-0.301 0.080-1.194 0.035-1.504-0.17-1.114-0.646-2.051-1.427-2.813-0.717-0.694-1.542-1.101-2.627-1.299-0.189-0.032-1.059-0.042-1.286-0.013zM15.882 12.317c0.438 0.074 0.794 0.24 1.078 0.502 0.25 0.23 0.336 0.416 0.336 0.707 0 0.202-0.010 0.243-0.096 0.365-0.125 0.176-0.298 0.266-0.515 0.266-0.208 0-0.336-0.090-0.544-0.378-0.182-0.246-0.333-0.358-0.554-0.403-0.282-0.061-0.544 0.010-0.704 0.189-0.154 0.173-0.173 0.39-0.061 0.682 0.061 0.157 0.086 0.186 0.154 0.189 0.045 0 0.218 0.006 0.384 0.010 0.502 0.010 0.726 0.166 0.752 0.522 0.010 0.182-0.022 0.282-0.138 0.403-0.163 0.176-0.272 0.208-0.666 0.211l-0.259 0.003-0.003 0.131c-0.006 0.144-0.141 0.566-0.234 0.726-0.032 0.058-0.061 0.112-0.061 0.118s0.467 0.013 1.040 0.013c0.634 0 1.088 0.013 1.165 0.035 0.262 0.070 0.416 0.333 0.371 0.627-0.032 0.211-0.198 0.374-0.432 0.426-0.109 0.022-0.685 0.035-1.674 0.035-1.715-0.003-1.741-0.006-1.923-0.234-0.090-0.112-0.099-0.147-0.099-0.336 0-0.237 0.006-0.25 0.275-0.653 0.173-0.256 0.256-0.47 0.301-0.755l0.022-0.134h-0.304c-0.566 0-0.794-0.163-0.8-0.573-0.003-0.342 0.205-0.538 0.608-0.563 0.115-0.010 0.218-0.022 0.227-0.029 0.006-0.010-0.010-0.086-0.042-0.17-0.029-0.083-0.061-0.262-0.070-0.394-0.048-0.666 0.371-1.194 1.152-1.456 0.41-0.134 0.842-0.163 1.312-0.083z"></path>
<path fill="#ff7900" d="M7.392 14.019c-0.208 0.038-0.509 0.198-0.643 0.339-0.662 0.691-0.314 1.818 0.621 2.013 0.106 0.022 0.221 0.035 0.259 0.029s0.131-0.019 0.208-0.029c0.499-0.074 0.963-0.627 0.963-1.152 0-0.746-0.691-1.331-1.408-1.2z"></path>
<path fill="#ff7900" d="M22.656 14.010c-0.902 0.125-1.347 1.13-0.835 1.875 0.419 0.605 1.29 0.688 1.808 0.17 0.592-0.592 0.442-1.549-0.294-1.923-0.202-0.102-0.477-0.15-0.678-0.122z"></path>
<path fill="#ff7900" d="M28.8 16.8v7.2h-24.8v1.6h26.4v-16h-1.6v7.2z"></path>
</svg>
