<!-- Generated by IcoMoon.io -->
<svg version="1.1" xmlns="http://www.w3.org/2000/svg" width="32" height="32" viewBox="0 0 32 32">
<title>data_protection</title>
<path fill="#ff7900" d="M15.68 2.611c-0.65 0.445-1.67 1.014-2.368 1.325-0.166 0.074-0.381 0.17-0.474 0.211-0.934 0.422-2.518 0.906-3.654 1.114-0.15 0.029-0.342 0.067-0.432 0.083-0.086 0.016-0.23 0.038-0.32 0.048-0.086 0.010-0.195 0.026-0.24 0.032-0.16 0.029-0.95 0.109-1.264 0.128-0.176 0.013-0.39 0.026-0.48 0.032-0.086 0.006-0.496 0.013-0.906 0.013l-0.746 0.003 0.013 4.966c0.006 2.733 0.022 5.005 0.029 5.050 0.010 0.045 0.026 0.179 0.038 0.304 0.099 1.088 0.362 2.342 0.73 3.472 1.114 3.424 3.248 6.269 6.154 8.202 1.181 0.787 2.374 1.373 3.795 1.862l0.435 0.15 0.381-0.128c1.987-0.659 4.010-1.802 5.421-3.062 1.162-1.040 1.968-1.965 2.758-3.168 1.13-1.715 1.949-3.738 2.342-5.76 0.112-0.579 0.147-0.81 0.208-1.392 0.019-0.166 0.045-0.362 0.054-0.432 0.013-0.070 0.029-2.365 0.035-5.098l0.013-4.966-0.746-0.003c-0.41 0-0.816-0.006-0.906-0.013-0.086-0.006-0.317-0.019-0.512-0.032-0.192-0.010-0.39-0.026-0.442-0.029-0.048-0.006-0.176-0.022-0.288-0.032-0.208-0.022-0.611-0.074-0.774-0.102-0.051-0.006-0.182-0.029-0.288-0.045-0.765-0.118-1.875-0.397-2.755-0.691-0.365-0.122-1.258-0.464-1.533-0.589-0.979-0.442-1.859-0.928-2.678-1.478-0.157-0.102-0.285-0.186-0.288-0.182-0.006 0-0.147 0.093-0.314 0.208zM16.672 7.104c0.646 0.134 1.299 0.493 1.773 0.976 1.101 1.114 1.293 2.822 0.474 4.189-0.173 0.291-0.57 0.726-0.864 0.95-0.829 0.627-1.942 0.842-2.963 0.57-0.973-0.256-1.808-0.957-2.221-1.859-0.243-0.522-0.307-0.816-0.31-1.402 0-0.618 0.038-0.851 0.23-1.328 0.442-1.107 1.453-1.917 2.634-2.112 0.307-0.051 0.963-0.042 1.248 0.016zM13.44 14.051c0.736 0.528 1.606 0.803 2.544 0.806 0.736 0 1.414-0.166 2.051-0.502 0.33-0.176 0.733-0.454 0.874-0.605 0.074-0.080 0.080-0.083 0.176-0.032 0.227 0.115 0.63 0.426 0.899 0.698 0.608 0.605 0.97 1.277 1.187 2.192 0.051 0.221 0.058 0.509 0.067 3.45l0.013 3.206-9.011-0.016-0.23-0.086c-0.384-0.141-0.749-0.422-0.963-0.739-0.109-0.163-0.25-0.499-0.294-0.694-0.019-0.086-0.029-1.030-0.029-2.4 0-2.47 0.006-2.544 0.192-3.152 0.176-0.573 0.48-1.114 0.89-1.578 0.221-0.256 0.694-0.653 0.963-0.813l0.198-0.118 0.112 0.102c0.061 0.058 0.224 0.182 0.362 0.282z"></path>
</svg>
