<!-- Generated by IcoMoon.io -->
<svg version="1.1" xmlns="http://www.w3.org/2000/svg" width="32" height="32" viewBox="0 0 32 32">
<title>data_services</title>
<path fill="#ff7900" d="M15.197 2.413c-0.006 0.006-0.141 0.022-0.301 0.032-0.272 0.022-0.634 0.064-0.88 0.102-0.739 0.112-1.085 0.186-1.725 0.368-1.222 0.346-2.522 0.922-3.507 1.558-0.496 0.32-0.586 0.381-0.81 0.544-2.198 1.613-3.875 3.862-4.797 6.438-0.301 0.848-0.582 2.022-0.666 2.8-0.013 0.106-0.029 0.227-0.035 0.272-0.093 0.576-0.080 2.365 0.019 3.13 0.051 0.368 0.051 0.374 0.128 0.79 0.448 2.477 1.578 4.768 3.28 6.656 1.59 1.763 3.562 3.053 5.824 3.808 0.656 0.221 1.67 0.461 2.272 0.541 0.070 0.010 0.23 0.032 0.352 0.048 0.611 0.083 2.118 0.115 2.736 0.058 1.494-0.138 2.755-0.438 4.048-0.963 0.621-0.253 1.52-0.707 1.968-0.995 0.48-0.307 0.637-0.413 0.96-0.65 0.202-0.15 0.419-0.317 0.483-0.371s0.186-0.157 0.272-0.227c0.406-0.333 1.040-0.963 1.472-1.466 1.386-1.61 2.323-3.395 2.87-5.462 0.090-0.336 0.266-1.184 0.291-1.408 0.010-0.080 0.022-0.189 0.032-0.24 0.093-0.525 0.134-2.093 0.074-2.832-0.032-0.432-0.138-1.219-0.211-1.568-0.605-2.957-2.074-5.536-4.294-7.523-2.099-1.882-4.893-3.12-7.613-3.376-0.115-0.010-0.25-0.026-0.304-0.035-0.115-0.016-1.923-0.045-1.939-0.029zM19.082 4.4c1.44 0.384 2.867 1.069 4.016 1.93l0.23 0.173-0.109 0.128c-0.061 0.067-0.115 0.15-0.125 0.182-0.029 0.109 0.054 0.272 0.186 0.362 0.198 0.134 0.314 0.147 0.518 0.045 0.093-0.045 0.198-0.083 0.23-0.083 0.067 0 0.304 0.211 0.333 0.294 0.026 0.070-0.093 0.218-0.173 0.218-0.064 0-0.096-0.051-0.109-0.17-0.003-0.038-0.010-0.080-0.013-0.090-0.010-0.051-0.17-0.058-0.259-0.013-0.147 0.077-0.166 0.144-0.106 0.336 0.051 0.16 0.051 0.166-0.016 0.23-0.054 0.054-0.102 0.067-0.243 0.061-0.227-0.006-0.314 0.032-0.736 0.33-0.365 0.256-0.566 0.339-0.816 0.339-0.179 0-0.368 0.051-0.416 0.109-0.061 0.074-0.003 0.144 0.224 0.275 0.118 0.070 0.24 0.16 0.269 0.198 0.058 0.086 0.061 0.214 0.006 0.285-0.102 0.134-0.266 0.154-0.598 0.074-0.301-0.074-0.576-0.061-0.576 0.026 0 0.016 0.029 0.074 0.067 0.125 0.154 0.218 0.243 0.701 0.173 0.928-0.022 0.064-0.013 0.064 0.154 0.045 0.099-0.013 0.25-0.006 0.355 0.016 0.23 0.048 0.32 0 0.352-0.182 0.029-0.173 0.24-0.397 0.397-0.422 0.102-0.016 0.128-0.038 0.186-0.16 0.083-0.17 0.163-0.208 0.339-0.16 0.102 0.026 0.173 0.022 0.342-0.019 0.115-0.032 0.253-0.074 0.304-0.096 0.125-0.054 0.224-0.019 0.314 0.109 0.067 0.099 0.259 0.221 0.57 0.355 0.131 0.054 0.394 0.227 0.438 0.282 0.051 0.070 0.051 0.077 0 0.147-0.035 0.045-0.099 0.061-0.282 0.074-0.259 0.013-0.317 0.026-0.317 0.070 0 0.038 0.266 0.16 0.336 0.15 0.029-0.003 0.141-0.077 0.243-0.16 0.17-0.138 0.189-0.166 0.189-0.272 0-0.064 0.016-0.134 0.035-0.154 0.022-0.022 0.029-0.061 0.019-0.090-0.026-0.064-0.285-0.176-0.406-0.176-0.064 0-0.112-0.026-0.15-0.083-0.067-0.096-0.16-0.195-0.259-0.275-0.086-0.070-0.090-0.141-0.013-0.182 0.067-0.035 0.378 0.096 0.534 0.227 0.054 0.045 0.131 0.093 0.176 0.106s0.115 0.051 0.157 0.083c0.042 0.035 0.093 0.061 0.115 0.061 0.080 0 0.208 0.131 0.208 0.218 0.003 0.125 0.061 0.211 0.214 0.323 0.096 0.070 0.147 0.134 0.173 0.23 0.022 0.070 0.061 0.138 0.083 0.147 0.042 0.016 0.23-0.086 0.317-0.176 0.048-0.045 0.042-0.058-0.051-0.134-0.086-0.070-0.102-0.102-0.083-0.17 0.026-0.106 0.166-0.182 0.336-0.182 0.16 0 0.208 0.051 0.275 0.272 0.029 0.099 0.077 0.205 0.112 0.24 0.122 0.122 0.502 0.992 0.464 1.056-0.045 0.074-0.432 0.016-0.963-0.147-0.538-0.163-0.662-0.141-0.784 0.138-0.058 0.134-0.067 0.144-0.166 0.128-0.272-0.038-0.525-0.131-0.637-0.234-0.064-0.058-0.166-0.112-0.224-0.122s-0.17-0.026-0.246-0.035c-0.173-0.022-0.342-0.099-0.368-0.163-0.010-0.029-0.003-0.077 0.016-0.112 0.035-0.067 0.013-0.307-0.038-0.365-0.029-0.038-1.251-0.035-1.315 0.003-0.019 0.013-0.086 0.029-0.15 0.035-0.307 0.029-0.346-0.032 0.595 0.915 0.474 0.48 0.915 0.954 0.982 1.056 0.157 0.24 0.288 0.534 0.374 0.829 0.077 0.266 0.109 0.925 0.061 1.194-0.054 0.291-0.195 0.682-0.339 0.928-0.118 0.208-0.131 0.256-0.106 0.33 0.019 0.048 0.022 0.221 0.013 0.419-0.026 0.426-0.003 0.499 0.32 0.963 0.32 0.464 0.378 0.595 0.381 0.896 0.003 0.227-0.006 0.256-0.157 0.544-0.237 0.451-0.227 0.592 0.080 1.104 0.128 0.214 0.256 0.477 0.256 0.528 0 0.096 0.144 0.442 0.266 0.63 0.077 0.118 0.173 0.298 0.211 0.394 0.298 0.707 0.493 0.861 0.8 0.637 0.074-0.051 0.147-0.093 0.163-0.086 0.032 0.013-0.243 0.442-0.563 0.877-0.864 1.171-1.878 2.138-3.101 2.941-1.571 1.034-3.264 1.648-5.21 1.891-0.675 0.086-2 0.083-2.726 0-1.114-0.131-2.166-0.4-3.158-0.803-3.235-1.325-5.734-3.981-6.851-7.28-0.122-0.358-0.266-0.854-0.31-1.069-0.013-0.074-0.054-0.275-0.090-0.451-0.064-0.301-0.118-0.65-0.154-0.976-0.010-0.080-0.022-0.189-0.032-0.24-0.010-0.054-0.022-0.47-0.029-0.928-0.010-0.912 0.013-1.274 0.131-2.038l0.054-0.352 0.099 0.019c0.054 0.013 0.138 0.048 0.186 0.083s0.106 0.064 0.128 0.064c0.022 0 0.15 0.045 0.278 0.099 0.182 0.077 0.262 0.096 0.358 0.080 0.413-0.064 0.378-0.067 0.502 0.054 0.157 0.147 0.323 0.227 0.614 0.291 0.451 0.102 0.474 0.112 0.582 0.246 0.384 0.48 0.502 0.547 1.056 0.624 0.157 0.019 0.141 0.029 0.355-0.202l0.090-0.096-0.17-0.054c-0.214-0.070-0.403-0.192-0.826-0.541-0.182-0.154-0.416-0.32-0.518-0.374l-0.186-0.099 0.010-0.262c0.013-0.278-0.013-0.432-0.080-0.477-0.115-0.070-0.317 0.013-0.554 0.237-0.362 0.336-0.813 0.243-1.011-0.211-0.112-0.246-0.106-0.646 0.013-0.87 0.214-0.416 0.749-0.666 1.405-0.659 0.301 0.003 0.602 0.064 0.81 0.17 0.173 0.086 0.198 0.109 0.397 0.339 0.182 0.211 0.278 0.253 0.307 0.128 0.006-0.038 0.013-0.237 0.006-0.438-0.006-0.442 0.026-0.522 0.278-0.685 0.195-0.125 0.291-0.24 0.432-0.525l0.102-0.205-0.054-0.163c-0.154-0.458-0.026-0.922 0.339-1.248 0.269-0.243 0.432-0.285 1.078-0.291 0.304 0 0.554-0.006 0.554-0.010 0-0.029-0.269-0.138-0.342-0.141l-0.090-0.003 0.096-0.029c0.064-0.019 0.17-0.016 0.304 0.006 0.115 0.019 0.275 0.042 0.355 0.045 0.131 0.010 0.147 0.003 0.134-0.048-0.013-0.048 0.029-0.074 0.256-0.144 0.259-0.080 0.515-0.112 0.557-0.067 0.013 0.010-0.010 0.077-0.048 0.144-0.134 0.24-0.128 0.243 0.362 0.243 0.237 0.003 0.432-0.006 0.432-0.019 0-0.010-0.064-0.061-0.144-0.112-0.186-0.115-0.23-0.186-0.269-0.426-0.016-0.106-0.048-0.221-0.067-0.256-0.038-0.074-0.195-0.163-0.4-0.227-0.090-0.029-0.221-0.134-0.442-0.355-0.378-0.378-0.458-0.413-0.794-0.355-0.419 0.074-0.57 0.038-0.797-0.17-0.128-0.122-0.451-0.304-0.627-0.355-0.090-0.026-0.25-0.048-0.358-0.048-0.109-0.003-0.198-0.006-0.198-0.013 0-0.003 0.080-0.070 0.179-0.144 0.218-0.166 0.266-0.163 0.787 0.048 0.243 0.099 0.432 0.154 0.592 0.17 0.262 0.029 0.32 0.006 0.154-0.058-0.141-0.054-0.147-0.112-0.006-0.083 0.314 0.064 0.339 0.061 0.464-0.026 0.074-0.051 0.182-0.090 0.275-0.099 0.176-0.019 0.41-0.163 0.499-0.314 0.045-0.074 0.058-0.144 0.051-0.291-0.006-0.106-0.029-0.198-0.048-0.205-0.115-0.038-0.176-0.131-0.17-0.256 0.010-0.122 0-0.134-0.109-0.192l-0.118-0.061 0.413-0.16c0.579-0.227 0.534-0.221 0.666-0.102 0.083 0.070 0.122 0.138 0.134 0.224 0.019 0.125 0.022 0.125 0.163 0.125 0.077 0 0.17-0.016 0.202-0.032 0.048-0.026 0.067-0.019 0.096 0.032 0.026 0.048 0.054 0.061 0.109 0.045 0.080-0.019 0.275 0.064 0.275 0.115 0 0.019-0.054 0.032-0.118 0.032-0.131 0-0.275 0.061-0.154 0.064 0.035 0.003 0.109 0.022 0.16 0.045l0.096 0.042-0.166 0.083c-0.17 0.086-0.298 0.218-0.298 0.304 0 0.099 0.134 0.326 0.298 0.496 0.365 0.384 0.819 0.637 1.181 0.656 0.288 0.019 0.387-0.048 0.614-0.387 0.093-0.144 0.198-0.291 0.23-0.33 0.131-0.147 0.534-0.294 1.373-0.493 0.301-0.074 0.682-0.173 0.848-0.227 0.166-0.051 0.381-0.102 0.474-0.115 0.205-0.022 0.24-0.064 0.080-0.090-0.326-0.058-0.31-0.093 0.045-0.102 0.294-0.006 0.365-0.035 0.285-0.112-0.038-0.042-0.042-0.070-0.013-0.173 0.051-0.173 0.070-0.192 0.243-0.237 0.083-0.019 0.176-0.061 0.208-0.086 0.061-0.058 0.074-0.154 0.022-0.186-0.048-0.029-0.038-0.080 0.016-0.080 0.026 0 0.182 0.035 0.346 0.080zM8.522 7.094c0.048 0.179 0.086 0.368 0.086 0.422 0 0.086-0.013 0.099-0.131 0.131-0.237 0.064-0.278 0.144-0.205 0.4 0.022 0.074-0.086 0.208-0.166 0.208-0.051 0-0.288-0.224-0.413-0.39-0.035-0.045-0.118-0.118-0.182-0.163l-0.115-0.077 0.214-0.208c0.406-0.387 0.781-0.704 0.803-0.678 0.013 0.016 0.064 0.176 0.109 0.355z"></path>
<path fill="#ff7900" d="M21.162 7.203c-0.214 0.064-0.278 0.282-0.118 0.41 0.042 0.032 0.077 0.077 0.077 0.096 0 0.029 0.131 0.118 0.154 0.106 0.045-0.032 0.166 0.067 0.166 0.138 0 0.026-0.038 0.048-0.086 0.054-0.064 0.006-0.093 0.029-0.099 0.080-0.006 0.038-0.032 0.086-0.058 0.106-0.064 0.054-0.054 0.096 0.019 0.096 0.090 0 0.080 0.035-0.032 0.144-0.070 0.067-0.096 0.118-0.090 0.176 0.013 0.102 0.083 0.093 0.282-0.032 0.163-0.102 0.355-0.144 0.592-0.131 0.192 0.010 0.304-0.070 0.304-0.221 0-0.077-0.016-0.099-0.086-0.115-0.074-0.019-0.618-0.525-0.618-0.573 0-0.010 0.022-0.061 0.048-0.109 0.054-0.112 0.038-0.131-0.115-0.131-0.090 0-0.122-0.016-0.134-0.064-0.019-0.070-0.048-0.074-0.205-0.029z"></path>
<path fill="#ff7900" d="M14.336 9.978l-4.432 0.006 0.31 0.298c0.17 0.16 0.723 0.701 1.232 1.194 0.506 0.496 0.97 0.947 1.030 1.002l0.109 0.102-2.080 2.086c-1.904 1.91-2.086 2.102-2.176 2.294-0.128 0.272-0.176 0.477-0.173 0.755 0 0.291 0.045 0.486 0.17 0.749 0.086 0.179 0.205 0.314 0.902 1.018l0.803 0.806 9.878-9.872-0.138-0.125c-0.211-0.186-0.438-0.278-0.746-0.304-0.141-0.010-2.253-0.016-4.691-0.010z"></path>
<path fill="#ff7900" d="M16.387 16.826l-4.909 4.915 0.157 0.144c0.182 0.163 0.41 0.278 0.653 0.323 0.109 0.019 1.782 0.032 4.678 0.032h4.509l-1.334-1.328c-0.736-0.73-1.331-1.331-1.325-1.341 0.010-0.010 0.938-0.944 2.064-2.074 1.965-1.974 2.054-2.067 2.163-2.298 0.269-0.554 0.237-1.117-0.090-1.629-0.106-0.166-1.584-1.67-1.632-1.664-0.016 0.003-2.234 2.214-4.934 4.918z"></path>
<path fill="#ff7900" d="M9.629 21.638c-0.010 0.531-0.035 0.653-0.272 1.216-0.186 0.435-0.208 0.573-0.109 0.698 0.035 0.045 0.064 0.109 0.064 0.144s-0.080 0.186-0.179 0.336c-0.16 0.246-0.176 0.285-0.16 0.4 0.013 0.083 0.003 0.16-0.029 0.221-0.112 0.211 0.003 0.49 0.333 0.816 0.406 0.4 0.906 0.576 1.104 0.39 0.109-0.102 0.154-0.227 0.141-0.39-0.010-0.131-0.016-0.141-0.106-0.15-0.214-0.019-0.24-0.035-0.24-0.144 0-0.054 0.058-0.224 0.128-0.374 0.128-0.275 0.154-0.397 0.096-0.432-0.051-0.032-0.038-0.218 0.019-0.304 0.115-0.173 0.326-0.362 0.541-0.486 0.125-0.074 0.285-0.182 0.362-0.243l0.134-0.112-0.15-0.080c-0.394-0.208-0.829-0.64-0.938-0.925-0.083-0.221-0.109-0.47-0.070-0.64l0.032-0.138-0.086 0.022c-0.109 0.029-0.413 0.026-0.522 0l-0.090-0.022-0.003 0.198z"></path>
</svg>
