<!-- Generated by IcoMoon.io -->
<svg version="1.1" xmlns="http://www.w3.org/2000/svg" width="32" height="32" viewBox="0 0 32 32">
<title>decoder</title>
<path fill="#ff7900" d="M2.4 14.4v8.8l3.2 3.2h24v-20.8h-27.2v8.8zM28 21.2v0.4h-21.6v-0.8h21.6v0.4zM7.667 23.261c0.074 0.032 0.173 0.115 0.224 0.182l0.093 0.118 0.010 0.781c0.010 0.749 0.006 0.787-0.061 0.925-0.042 0.090-0.118 0.179-0.198 0.23-0.125 0.083-0.15 0.086-0.534 0.086-0.387 0-0.41-0.003-0.538-0.086-0.24-0.16-0.246-0.189-0.246-1.117v-0.819l0.093-0.118c0.144-0.189 0.294-0.243 0.691-0.243 0.259 0 0.365 0.016 0.467 0.061zM10.067 23.264c0.077 0.038 0.173 0.125 0.224 0.198l0.093 0.131 0.010 0.765c0.010 0.733 0.006 0.774-0.061 0.909-0.042 0.090-0.118 0.179-0.198 0.23-0.125 0.083-0.15 0.086-0.531 0.086-0.467 0-0.557-0.032-0.701-0.246l-0.086-0.131-0.010-0.739c-0.013-0.819 0.003-0.918 0.16-1.078 0.157-0.157 0.259-0.186 0.63-0.189 0.272 0 0.358 0.013 0.47 0.064zM14.138 23.306c0.24 0.17 0.262 0.262 0.262 1.101 0 0.675-0.006 0.736-0.067 0.867-0.042 0.083-0.122 0.173-0.198 0.224-0.125 0.083-0.147 0.086-0.534 0.086-0.384 0-0.41-0.003-0.534-0.086-0.080-0.051-0.157-0.141-0.198-0.23-0.067-0.134-0.070-0.176-0.061-0.909l0.010-0.765 0.090-0.131c0.154-0.218 0.291-0.266 0.73-0.256 0.349 0.010 0.378 0.016 0.502 0.099zM16.538 23.306c0.24 0.17 0.262 0.262 0.262 1.101 0 0.675-0.006 0.736-0.067 0.867-0.042 0.083-0.122 0.173-0.198 0.224-0.125 0.083-0.15 0.086-0.531 0.086-0.467 0-0.557-0.032-0.701-0.246l-0.086-0.134v-1.61l0.090-0.131c0.154-0.218 0.291-0.266 0.73-0.256 0.349 0.010 0.378 0.016 0.502 0.099zM21.376 24.042c0.106 0.054 0.224 0.237 0.224 0.349 0 0.205-0.192 0.41-0.384 0.41-0.211 0-0.416-0.192-0.416-0.394 0-0.285 0.326-0.493 0.576-0.365zM22.976 24.042c0.109 0.054 0.224 0.237 0.224 0.355 0 0.202-0.202 0.403-0.4 0.403-0.282 0-0.483-0.323-0.352-0.573 0.099-0.192 0.342-0.278 0.528-0.186zM24.579 24.048c0.118 0.064 0.221 0.224 0.221 0.352 0 0.198-0.202 0.4-0.4 0.4-0.195 0-0.4-0.202-0.4-0.394 0-0.202 0.198-0.406 0.394-0.406 0.048 0 0.131 0.022 0.186 0.048zM11.712 24.288c0.15 0.15-0.003 0.397-0.202 0.323-0.134-0.051-0.163-0.256-0.048-0.336 0.096-0.067 0.173-0.064 0.25 0.013zM11.738 25.046c0.042 0.061 0.051 0.166 0.013 0.221-0.026 0.042-0.147 0.109-0.195 0.109-0.067 0-0.163-0.131-0.163-0.221 0-0.176 0.237-0.25 0.346-0.109z"></path>
</svg>
