<!-- Generated by IcoMoon.io -->
<svg version="1.1" xmlns="http://www.w3.org/2000/svg" width="32" height="32" viewBox="0 0 32 32">
<title>Defibrillator</title>
<path fill="#ff7900" d="M9.888 3.21c-0.010 0.006-0.131 0.022-0.272 0.035-0.141 0.010-0.285 0.026-0.32 0.032s-0.134 0.022-0.224 0.032c-0.278 0.042-0.938 0.211-1.322 0.342-0.448 0.154-1.091 0.461-1.51 0.714-1.040 0.637-2.038 1.635-2.675 2.675-0.512 0.842-0.922 1.955-1.066 2.896-0.019 0.122-0.042 0.282-0.051 0.352-0.045 0.285-0.042 1.443 0.003 1.808 0.205 1.696 0.867 3.165 2.016 4.467 0.925 1.046 1.469 1.664 1.485 1.677 0.010 0.010 0.17 0.189 0.352 0.4 0.186 0.211 0.346 0.39 0.355 0.4 0.016 0.016 0.342 0.384 0.749 0.848 0.106 0.122 0.214 0.243 0.24 0.269 0.029 0.029 0.144 0.16 0.256 0.291 0.115 0.131 0.214 0.246 0.224 0.256s0.176 0.195 0.368 0.413c0.195 0.221 0.429 0.486 0.525 0.592 0.096 0.109 0.218 0.246 0.272 0.307 0.054 0.064 0.208 0.237 0.339 0.384 0.134 0.15 0.406 0.458 0.608 0.688 0.202 0.227 0.374 0.422 0.384 0.432s0.173 0.195 0.368 0.416c0.192 0.221 0.397 0.451 0.451 0.512 0.211 0.237 0.448 0.506 0.541 0.611 0.051 0.061 0.208 0.24 0.352 0.397 0.141 0.16 0.358 0.403 0.48 0.544 0.125 0.138 0.24 0.266 0.256 0.285 0.019 0.019 0.189 0.214 0.384 0.435 0.605 0.688 1.514 1.722 1.709 1.936 0.064 0.070 0.278 0.31 0.474 0.531 0.195 0.224 0.368 0.397 0.381 0.384 0.016-0.010 0.077-0.077 0.138-0.147s0.202-0.23 0.314-0.355c0.112-0.128 0.23-0.259 0.259-0.291 0.029-0.035 0.144-0.163 0.25-0.285 0.109-0.122 0.432-0.486 0.72-0.813 0.285-0.326 0.637-0.723 0.778-0.88 0.144-0.16 0.352-0.397 0.467-0.528 0.272-0.31 1.002-1.133 1.149-1.296 0.064-0.070 0.208-0.237 0.323-0.368 0.112-0.131 0.214-0.246 0.224-0.256s0.182-0.202 0.384-0.432c0.202-0.227 0.413-0.467 0.467-0.528 0.259-0.291 1.478-1.67 1.882-2.128 0.246-0.282 0.458-0.518 0.467-0.528s0.176-0.195 0.368-0.416c0.195-0.221 0.358-0.406 0.368-0.416s0.173-0.195 0.368-0.416c0.192-0.221 0.403-0.458 0.467-0.528s0.243-0.272 0.397-0.448c0.154-0.176 0.326-0.371 0.381-0.432s0.278-0.314 0.496-0.56c0.218-0.246 0.493-0.557 0.611-0.688 0.4-0.448 0.496-0.56 0.643-0.752 0.851-1.117 1.363-2.333 1.584-3.776 0.061-0.381 0.080-1.469 0.038-1.901-0.141-1.379-0.662-2.765-1.466-3.875-0.096-0.131-0.189-0.256-0.208-0.275-0.016-0.022-0.080-0.099-0.141-0.176-0.227-0.288-0.96-0.982-1.315-1.248-0.522-0.387-0.781-0.547-1.334-0.816-1.072-0.525-2.138-0.778-3.37-0.797-0.595-0.010-0.781 0-1.36 0.083-1.482 0.208-3.024 0.95-4.192 2.019l-0.173 0.157-0.378-0.326c-1.155-0.995-2.707-1.699-4.122-1.869-0.102-0.013-0.218-0.029-0.256-0.038-0.086-0.019-1.341-0.048-1.36-0.032zM18.384 8.070c-0.013 0.038-0.208 0.931-0.371 1.706-0.035 0.157-0.070 0.314-0.080 0.342-0.010 0.032-0.022 0.093-0.032 0.141-0.022 0.125-0.426 1.965-0.461 2.109-0.048 0.192-0.256 1.168-0.256 1.203 0 0.016 0.848 0.029 2.208 0.029h2.211l-0.73 0.909c-0.717 0.896-1.763 2.202-4.365 5.456-0.723 0.906-1.309 1.616-1.299 1.584s0.026-0.096 0.035-0.141c0.058-0.278 0.733-3.357 1.062-4.835 0.058-0.275 0.109-0.515 0.109-0.534 0-0.029-0.55-0.038-2.208-0.038h-2.208l1.12-1.402c0.614-0.768 1.811-2.262 2.656-3.318s1.776-2.218 2.067-2.586c0.291-0.365 0.538-0.662 0.544-0.662s0.003 0.019-0.003 0.038z"></path>
</svg>
