<!-- Generated by IcoMoon.io -->
<svg version="1.1" xmlns="http://www.w3.org/2000/svg" width="32" height="32" viewBox="0 0 32 32">
<title>delete</title>
<path fill="#ff7900" d="M8.797 5.414c-0.125 0.029-0.307 0.106-0.406 0.166-0.218 0.134-2.611 2.515-2.781 2.765-0.227 0.339-0.314 0.806-0.221 1.2 0.115 0.496-0.022 0.342 3.165 3.536l2.918 2.918-2.918 2.922c-2.902 2.902-2.918 2.918-3.034 3.165-0.138 0.301-0.176 0.48-0.16 0.784 0.013 0.31 0.112 0.598 0.291 0.858 0.106 0.15 2.566 2.586 2.701 2.672 0.352 0.227 0.851 0.304 1.251 0.195 0.451-0.122 0.381-0.058 3.491-3.165l2.906-2.902 2.918 2.918c2.813 2.81 2.931 2.922 3.155 3.030 0.528 0.25 1.158 0.214 1.59-0.093 0.198-0.141 2.579-2.512 2.707-2.694 0.237-0.342 0.336-0.854 0.237-1.245-0.125-0.499 0.016-0.342-3.162-3.526l-2.918-2.918 2.915-2.922c2.067-2.067 2.941-2.963 3.002-3.075 0.294-0.541 0.262-1.197-0.080-1.699-0.099-0.147-2.525-2.576-2.669-2.675-0.285-0.192-0.627-0.288-0.97-0.269-0.304 0.013-0.541 0.086-0.774 0.23-0.115 0.074-1.181 1.117-3.062 2.995l-2.89 2.886-2.918-2.918c-3.19-3.184-3.040-3.050-3.533-3.165-0.256-0.058-0.451-0.051-0.752 0.026z"></path>
</svg>
