<!-- Generated by IcoMoon.io -->
<svg version="1.1" xmlns="http://www.w3.org/2000/svg" width="32" height="32" viewBox="0 0 32 32">
<title>device-managment-express</title>
<path fill="#ff7900" d="M18.256 6.451c-0.384 0.045-1.002 0.15-1.184 0.205-1.094 0.323-1.674 0.566-2.384 0.992-0.432 0.259-1.008 0.675-1.28 0.928-0.272 0.25-0.646 0.627-0.806 0.813-0.278 0.32-0.246 0.304-0.496 0.256-0.307-0.061-1.005-0.035-1.344 0.048-1.229 0.304-2.166 1.142-2.582 2.307-0.093 0.259-0.179 0.624-0.179 0.762 0 0.086-0.010 0.090-0.266 0.128-1.075 0.17-2.246 0.717-3.091 1.45-0.662 0.573-1.155 1.203-1.546 1.965-0.461 0.909-0.672 1.77-0.678 2.784-0.003 0.778 0.038 1.155 0.192 1.744 0.474 1.779 1.715 3.299 3.344 4.096 0.326 0.16 0.336 0.166 0.96 0.803 1.392 1.418 2.454 2.477 2.621 2.614 0.48 0.39 1.152 0.544 1.734 0.394 0.445-0.115 0.758-0.317 1.21-0.774 0.131-0.138 0.707-0.723 1.277-1.306l1.040-1.059h3.603v0.906c0 0.8 0.006 0.928 0.064 1.12 0.157 0.554 0.592 0.979 1.152 1.126 0.134 0.035 0.474 0.045 1.565 0.048 1.274 0 1.414-0.003 1.629-0.061 0.566-0.147 0.992-0.586 1.142-1.171 0.038-0.147 0.048-0.384 0.048-1.078v-0.89l0.538-0.003c0.294 0 0.586-0.006 0.646-0.013 1.651-0.144 3.066-1.078 3.862-2.547 0.208-0.381 0.438-1.082 0.502-1.517 0.048-0.317 0.058-0.918 0.022-1.232-0.141-1.222-0.701-2.294-1.629-3.114l-0.141-0.125 0.051-0.259c0.029-0.144 0.058-0.342 0.070-0.438 0.010-0.096 0.026-0.211 0.035-0.256 0.035-0.192 0.032-1.418-0.006-1.792-0.24-2.31-1.354-4.39-3.152-5.891-1.194-0.995-2.784-1.702-4.304-1.917-0.141-0.019-0.298-0.042-0.352-0.051-0.237-0.038-1.523-0.035-1.888 0.006zM12.237 19.238c0.176 0.051 0.474 0.349 0.525 0.525 0.029 0.096 0.038 0.672 0.038 2.186v2.051h1.184c0.653 0 1.184 0.006 1.184 0.019 0 0.010-0.854 0.87-1.894 1.91-1.482 1.478-1.933 1.914-2.051 1.968-0.31 0.144-0.682 0.125-0.966-0.051-0.070-0.045-0.406-0.362-0.746-0.707s-1.171-1.184-1.85-1.866c-0.675-0.678-1.229-1.245-1.229-1.254s0.534-0.019 1.184-0.019h1.184v-4.144l0.080-0.16c0.042-0.090 0.096-0.182 0.118-0.208 0.070-0.083 0.259-0.214 0.362-0.25 0.144-0.051 2.704-0.051 2.877 0zM21.584 19.296c0.106 0.051 0.301 0.218 0.566 0.48 0.89 0.877 3.418 3.398 3.418 3.411 0 0.006-0.531 0.013-1.184 0.013h-1.181l-0.010 2.102c-0.010 1.981-0.013 2.112-0.070 2.218-0.096 0.186-0.278 0.349-0.458 0.416-0.163 0.061-0.253 0.064-1.488 0.064-0.893 0-1.354-0.013-1.437-0.035-0.163-0.051-0.33-0.192-0.438-0.374l-0.086-0.15-0.010-2.122-0.010-2.118h-2.435l1.248-1.258c0.688-0.688 1.536-1.546 1.885-1.898 0.768-0.778 0.87-0.845 1.306-0.832 0.16 0.006 0.269 0.029 0.384 0.083z"></path>
</svg>
