<!-- Generated by IcoMoon.io -->
<svg version="1.1" xmlns="http://www.w3.org/2000/svg" width="32" height="32" viewBox="0 0 32 32">
<title>device_fixed-line_phone</title>
<path fill="#ff7900" d="M10.131 2.451c-0.182 0.067-0.326 0.186-0.426 0.358l-0.090 0.15-0.006 11.024c-0.006 9.472-0.003 11.050 0.038 11.197 0.15 0.566 0.576 1.002 1.13 1.155 0.221 0.061 0.336 0.064 3.603 0.064 2.342 0 3.427-0.010 3.546-0.035 0.579-0.122 1.072-0.598 1.226-1.184 0.042-0.147 0.048-1.533 0.048-9.533 0-6.608-0.010-9.418-0.035-9.552-0.058-0.314-0.202-0.579-0.451-0.826-0.237-0.234-0.419-0.336-0.746-0.422-0.166-0.042-0.614-0.048-3.478-0.048h-3.286l-0.010-0.922-0.010-0.918-0.086-0.147c-0.198-0.339-0.608-0.493-0.966-0.362zM17.6 10v3.6h-6.4v-7.2h6.4v3.6zM12.253 15.248c0.301 0.106 0.496 0.342 0.531 0.653 0.026 0.23-0.016 0.394-0.147 0.573-0.285 0.387-0.854 0.429-1.197 0.086-0.317-0.317-0.314-0.813 0.006-1.123 0.224-0.218 0.525-0.288 0.806-0.189zM14.762 15.293c0.179 0.086 0.358 0.304 0.41 0.496 0.080 0.294-0.038 0.653-0.272 0.832-0.509 0.387-1.213 0.096-1.286-0.531-0.045-0.394 0.17-0.71 0.595-0.87 0.102-0.038 0.406 0.003 0.554 0.074zM17.158 15.283c0.128 0.067 0.294 0.237 0.362 0.368 0.070 0.134 0.096 0.4 0.051 0.56-0.077 0.291-0.368 0.538-0.672 0.579-0.307 0.042-0.659-0.144-0.803-0.426-0.099-0.192-0.112-0.544-0.022-0.71 0.096-0.176 0.294-0.352 0.461-0.403 0.182-0.061 0.477-0.045 0.624 0.032zM12.403 17.712c0.646 0.381 0.448 1.376-0.294 1.472-0.448 0.061-0.854-0.256-0.899-0.704-0.038-0.374 0.221-0.762 0.573-0.851 0.176-0.045 0.47-0.006 0.621 0.083zM14.653 17.651c0.298 0.086 0.547 0.422 0.547 0.733 0 0.202-0.096 0.432-0.237 0.573-0.314 0.314-0.81 0.317-1.12 0.006-0.358-0.358-0.307-0.931 0.106-1.216 0.214-0.15 0.429-0.179 0.704-0.096zM17.168 17.693c0.294 0.16 0.458 0.47 0.419 0.797-0.051 0.438-0.397 0.72-0.848 0.694-0.611-0.032-0.941-0.733-0.586-1.245 0.096-0.141 0.275-0.272 0.429-0.31 0.166-0.042 0.445-0.010 0.586 0.064zM12.259 20.048c0.189 0.067 0.333 0.186 0.432 0.358 0.074 0.122 0.086 0.186 0.090 0.39 0.003 0.224-0.006 0.266-0.093 0.406-0.32 0.518-1.053 0.518-1.376 0-0.083-0.138-0.096-0.186-0.096-0.4 0-0.208 0.013-0.266 0.086-0.39 0.198-0.336 0.598-0.49 0.957-0.365zM14.659 20.048c0.192 0.067 0.333 0.186 0.435 0.362 0.077 0.128 0.090 0.186 0.090 0.394 0 0.214-0.013 0.259-0.096 0.4-0.176 0.285-0.512 0.438-0.842 0.381-0.182-0.029-0.419-0.198-0.528-0.374-0.381-0.627 0.25-1.405 0.941-1.162zM17.155 20.093c0.31 0.16 0.426 0.349 0.426 0.707 0.003 0.208-0.010 0.262-0.086 0.39-0.477 0.816-1.712 0.285-1.45-0.624 0.134-0.464 0.678-0.694 1.11-0.474zM15.776 24.042c0.109 0.054 0.224 0.237 0.224 0.355 0 0.138-0.061 0.243-0.189 0.33-0.109 0.074-0.109 0.074-1.402 0.074-1.427 0-1.424 0-1.546-0.202-0.035-0.058-0.064-0.134-0.064-0.176 0-0.128 0.090-0.291 0.198-0.358 0.102-0.061 0.157-0.064 1.402-0.064 0.973 0 1.315 0.010 1.376 0.042z"></path>
<path fill="#ff7900" d="M6.826 23.245c-0.579 0.141-1.069 0.646-1.19 1.229-0.022 0.115-0.035 0.963-0.035 2.646v2.48h20.8v-2.506c0-2.39-0.003-2.518-0.064-2.726-0.16-0.563-0.643-1.014-1.21-1.133-0.115-0.022-0.963-0.035-2.646-0.035h-2.48v0.886c0 0.49-0.016 0.976-0.032 1.082-0.166 1.021-0.934 1.805-1.952 1.997-0.115 0.022-1.389 0.029-3.728 0.026-3.293-0.010-3.565-0.013-3.738-0.064-0.842-0.256-1.466-0.877-1.696-1.69-0.074-0.266-0.083-0.394-0.083-1.35l-0.003-0.886-0.886 0.003c-0.595 0-0.944 0.016-1.056 0.042zM24.253 24.848c0.189 0.064 0.346 0.195 0.445 0.365 0.074 0.125 0.086 0.186 0.086 0.387s-0.013 0.262-0.086 0.384c-0.045 0.080-0.131 0.186-0.189 0.234-0.115 0.096-0.365 0.182-0.525 0.182-0.17 0-0.39-0.096-0.525-0.224-0.195-0.192-0.243-0.301-0.243-0.576 0-0.205 0.013-0.262 0.090-0.39 0.198-0.336 0.592-0.49 0.947-0.362z"></path>
</svg>
