<!-- Generated by IcoMoon.io -->
<svg version="1.1" xmlns="http://www.w3.org/2000/svg" width="32" height="32" viewBox="0 0 32 32">
<title>device_status</title>
<path fill="#ff7900" d="M9.28 2.422c-0.147 0.026-0.432 0.141-0.582 0.24-0.336 0.214-0.624 0.64-0.694 1.030-0.051 0.272-0.048 24.397 0 24.634 0.125 0.598 0.64 1.114 1.238 1.238 0.24 0.051 13.213 0.051 13.453 0 0.582-0.122 1.069-0.592 1.226-1.184 0.070-0.259 0.070-24.502 0-24.762-0.15-0.573-0.598-1.021-1.171-1.171-0.147-0.042-1.155-0.045-6.781-0.042-3.635 0-6.643 0.010-6.688 0.016zM17.366 3.264c0.115 0.070 0.202 0.211 0.202 0.336s-0.086 0.266-0.202 0.336c-0.096 0.061-0.17 0.064-1.392 0.064-1.424 0-1.421 0-1.542-0.202-0.118-0.189-0.067-0.397 0.125-0.525l0.109-0.074h1.299c1.232 0 1.306 0.003 1.402 0.064zM22.368 15.6v10.8h-12.8v-21.6h12.8v10.8zM16.384 27.322c0.365 0.224 0.486 0.707 0.266 1.088-0.163 0.288-0.518 0.438-0.858 0.362-0.765-0.173-0.829-1.251-0.093-1.526 0.189-0.070 0.502-0.035 0.685 0.077z"></path>
<path fill="#ff7900" d="M15.597 10.045c-0.48 0.134-0.842 0.496-0.986 0.989-0.048 0.163-0.051 0.55-0.006 0.742 0.042 0.176 0.23 0.486 0.387 0.637 0.451 0.429 1.085 0.515 1.651 0.227 0.176-0.090 0.48-0.394 0.57-0.57 0.397-0.778 0.022-1.715-0.797-2.006-0.214-0.077-0.586-0.083-0.819-0.019z"></path>
<path fill="#ff7900" d="M14.474 13.594l-0.906 0.006v0.563l0.355 0.054c0.413 0.061 0.57 0.128 0.634 0.262 0.122 0.246 0.128 0.445 0.128 3.184 0.003 2.73-0.006 3.011-0.118 3.168-0.086 0.122-0.323 0.221-0.678 0.278l-0.32 0.058v0.432h4.8v-0.445l-0.182-0.019c-0.256-0.029-0.586-0.109-0.685-0.17-0.118-0.067-0.179-0.189-0.218-0.426-0.022-0.131-0.035-1.389-0.035-3.574v-3.366h-0.102c-0.058 0-0.48-0.003-0.938-0.010-0.458-0.003-1.238-0.003-1.734 0.003z"></path>
</svg>
