<!-- Generated by IcoMoon.io -->
<svg version="1.1" xmlns="http://www.w3.org/2000/svg" width="32" height="32" viewBox="0 0 32 32">
<title>device_tablet_connected</title>
<path fill="#ff7900" d="M6.816 2.451c-0.272 0.074-0.499 0.195-0.698 0.381-0.227 0.211-0.371 0.448-0.454 0.746-0.064 0.227-0.064 0.352-0.064 12.429 0 13.299-0.013 12.33 0.179 12.726 0.115 0.234 0.454 0.573 0.688 0.688 0.394 0.192-0.275 0.179 9.485 0.179 6.32 0 9.021-0.010 9.152-0.035 0.589-0.106 1.088-0.582 1.248-1.184 0.042-0.147 0.048-1.91 0.048-12.374 0-12.077 0-12.202-0.064-12.429-0.154-0.557-0.586-0.979-1.155-1.13-0.262-0.070-18.102-0.067-18.365 0.003zM24.8 15.2v11.2h-17.6v-22.4h17.6v11.2zM16.4 27.309c0.39 0.23 0.512 0.749 0.266 1.12-0.112 0.17-0.221 0.256-0.413 0.323-0.608 0.214-1.222-0.394-1.005-1.005 0.086-0.246 0.282-0.442 0.522-0.518 0.16-0.051 0.47-0.013 0.63 0.080z"></path>
<path fill="#ff7900" d="M8.006 21.187l0.010 0.394 0.208 0.010c0.115 0.006 0.272 0.026 0.352 0.042s0.192 0.038 0.25 0.048c0.061 0.010 0.227 0.061 0.374 0.109 0.717 0.25 1.37 0.707 1.882 1.322 0.56 0.669 0.906 1.546 0.931 2.355l0.003 0.118 0.79 0.019-0.019-0.294c-0.093-1.411-0.79-2.714-1.891-3.526-0.419-0.314-0.566-0.397-1.040-0.605-0.422-0.189-1.027-0.33-1.546-0.365l-0.314-0.022 0.010 0.397z"></path>
<path fill="#ff7900" d="M8 22.778v0.387l0.154 0.019c0.739 0.093 1.206 0.314 1.635 0.771 0.355 0.381 0.573 0.877 0.627 1.427l0.022 0.218h0.762v-0.125c0-0.182-0.086-0.653-0.163-0.877-0.41-1.219-1.51-2.083-2.781-2.186l-0.256-0.019v0.384z"></path>
<path fill="#ff7900" d="M8 24.397v0.394l0.131 0.022c0.339 0.054 0.602 0.317 0.656 0.656l0.022 0.131h0.797l-0.022-0.186c-0.029-0.234-0.154-0.55-0.298-0.752-0.131-0.179-0.394-0.403-0.589-0.496-0.163-0.080-0.483-0.166-0.608-0.166h-0.090v0.397z"></path>
</svg>
