<!-- Generated by IcoMoon.io -->
<svg version="1.1" xmlns="http://www.w3.org/2000/svg" width="32" height="32" viewBox="0 0 32 32">
<title>device_laptop_computer_connected</title>
<path fill="#ff7900" d="M5.206 6.448c-0.582 0.16-1.053 0.65-1.171 1.226-0.026 0.122-0.035 2.365-0.035 7.846v7.68h24v-7.68c0-5.482-0.010-7.725-0.035-7.846-0.128-0.611-0.653-1.126-1.264-1.238-0.131-0.026-3.312-0.035-10.762-0.032-8.694 0.003-10.608 0.010-10.733 0.045zM26.4 14.8v6.8h-20.8v-13.6h20.8v6.8z"></path>
<path fill="#ff7900" d="M6.4 16.387v0.397l0.202 0.006c0.752 0.032 1.61 0.374 2.269 0.909 0.906 0.736 1.507 1.888 1.542 2.941l0.006 0.144 0.79 0.019-0.022-0.326c-0.128-1.92-1.418-3.6-3.235-4.214-0.243-0.083-0.461-0.138-0.861-0.218-0.035-0.006-0.205-0.019-0.378-0.032l-0.314-0.022v0.397z"></path>
<path fill="#ff7900" d="M6.4 17.981c0 0.214 0.010 0.387 0.026 0.387 0.666 0.022 1.322 0.314 1.76 0.784 0.352 0.374 0.554 0.819 0.621 1.366l0.035 0.282h0.765l-0.019-0.256c-0.102-1.206-0.89-2.275-2.003-2.714-0.282-0.112-0.637-0.195-0.918-0.218l-0.266-0.019v0.387z"></path>
<path fill="#ff7900" d="M6.4 19.59v0.4l0.131 0.022c0.339 0.054 0.602 0.317 0.656 0.656l0.022 0.131h0.79v-0.090c0-0.285-0.192-0.723-0.429-0.979-0.288-0.314-0.579-0.464-1.002-0.518l-0.17-0.022v0.4z"></path>
<path fill="#ff7900" d="M2.4 24.858c0 0.717 0.010 0.886 0.054 1.014 0.067 0.198 0.278 0.41 0.48 0.477 0.134 0.048 1.322 0.051 13.088 0.051h12.941l0.179-0.086c0.096-0.048 0.218-0.138 0.269-0.198 0.173-0.211 0.189-0.317 0.189-1.258v-0.858h-11.194l-0.019 0.118c-0.045 0.262-0.205 0.474-0.467 0.621-0.064 0.035-0.41 0.048-1.853 0.054-2.019 0.010-1.984 0.013-2.23-0.237-0.125-0.131-0.237-0.362-0.237-0.499 0-0.054-0.205-0.058-5.6-0.058h-5.6v0.858z"></path>
</svg>
