<!-- Generated by IcoMoon.io -->
<svg version="1.1" xmlns="http://www.w3.org/2000/svg" width="32" height="32" viewBox="0 0 32 32">
<title>device_laptop_computer</title>
<path fill="#ff7900" d="M5.206 6.448c-0.582 0.16-1.053 0.65-1.171 1.226-0.026 0.122-0.035 2.365-0.035 7.846v7.68h24v-7.68c0-5.482-0.010-7.725-0.035-7.846-0.128-0.611-0.653-1.126-1.264-1.238-0.131-0.026-3.312-0.035-10.762-0.032-8.694 0.003-10.608 0.010-10.733 0.045zM26.4 14.8v6.8h-20.8v-13.6h20.8v6.8z"></path>
<path fill="#ff7900" d="M2.4 24.858c0 0.717 0.010 0.886 0.054 1.014 0.067 0.198 0.278 0.41 0.48 0.477 0.134 0.048 1.322 0.051 13.088 0.051h12.941l0.179-0.086c0.096-0.048 0.218-0.138 0.269-0.198 0.173-0.211 0.189-0.317 0.189-1.258v-0.858h-11.194l-0.019 0.118c-0.045 0.262-0.205 0.474-0.467 0.621-0.064 0.035-0.41 0.048-1.853 0.054-2.019 0.010-1.984 0.013-2.23-0.237-0.125-0.131-0.237-0.362-0.237-0.499 0-0.054-0.205-0.058-5.6-0.058h-5.6v0.858z"></path>
</svg>
