<!-- Generated by IcoMoon.io -->
<svg version="1.1" xmlns="http://www.w3.org/2000/svg" width="32" height="32" viewBox="0 0 32 32">
<title>device-manager</title>
<path fill="#ff7900" d="M18.256 6.451c-0.384 0.045-1.002 0.15-1.184 0.205-1.094 0.323-1.674 0.566-2.384 0.992-0.432 0.259-1.008 0.675-1.28 0.928-0.272 0.25-0.646 0.627-0.806 0.813-0.278 0.32-0.246 0.304-0.496 0.256-0.307-0.061-1.005-0.035-1.344 0.048-1.229 0.304-2.166 1.142-2.582 2.307-0.093 0.259-0.179 0.624-0.179 0.762 0 0.086-0.010 0.090-0.266 0.128-1.078 0.17-2.262 0.723-3.094 1.453-0.682 0.598-1.152 1.197-1.542 1.962-0.461 0.909-0.672 1.77-0.678 2.784-0.003 0.778 0.038 1.155 0.192 1.744 0.474 1.779 1.715 3.299 3.344 4.096 0.326 0.16 0.336 0.166 0.96 0.803 1.392 1.418 2.454 2.477 2.621 2.614 0.602 0.49 1.459 0.589 2.15 0.246 0.346-0.173 0.432-0.256 2.477-2.346l0.637-0.646 5.296-0.010c2.912-0.003 5.341-0.019 5.392-0.032 0.054-0.013 0.176-0.038 0.272-0.058 0.285-0.054 0.701-0.186 0.976-0.31 1.373-0.621 2.355-1.789 2.717-3.226 0.099-0.4 0.112-0.483 0.134-0.957 0.054-1.005-0.227-2.016-0.803-2.88-0.23-0.346-0.483-0.634-0.845-0.954l-0.138-0.125 0.051-0.259c0.029-0.144 0.058-0.342 0.070-0.438 0.010-0.096 0.026-0.211 0.035-0.256 0.035-0.192 0.032-1.418-0.006-1.792-0.24-2.31-1.354-4.39-3.152-5.891-1.194-0.995-2.784-1.702-4.304-1.917-0.141-0.019-0.298-0.042-0.352-0.051-0.237-0.038-1.523-0.035-1.888 0.006zM19.472 8.854c0.096 0.032 0.208 0.106 0.291 0.192 0.25 0.256 0.237 0.077 0.237 3.354 0 3.283 0.013 3.11-0.24 3.36-0.17 0.173-0.403 0.256-0.64 0.23-0.205-0.022-0.333-0.083-0.493-0.243-0.24-0.24-0.23-0.080-0.221-3.414l0.010-2.973 0.093-0.154c0.109-0.186 0.275-0.31 0.499-0.384 0.102-0.035 0.314-0.019 0.464 0.032zM16.464 10.646c0.33 0.112 0.554 0.474 0.518 0.832-0.026 0.237-0.128 0.397-0.442 0.682-0.717 0.653-1.178 1.52-1.328 2.496-0.038 0.266-0.019 0.963 0.035 1.232 0.182 0.877 0.557 1.571 1.165 2.157 1.946 1.875 5.146 1.318 6.352-1.107 0.586-1.171 0.55-2.547-0.093-3.674-0.214-0.378-0.461-0.678-0.848-1.046-0.189-0.182-0.374-0.381-0.413-0.442-0.163-0.278-0.106-0.698 0.128-0.931 0.16-0.16 0.272-0.214 0.486-0.24 0.355-0.042 0.611 0.109 1.19 0.707 0.752 0.771 1.238 1.686 1.453 2.733 0.429 2.090-0.368 4.234-2.061 5.546-0.758 0.589-1.565 0.938-2.592 1.117-0.253 0.045-1.206 0.058-1.517 0.019-0.23-0.026-0.24-0.029-0.624-0.118-1.472-0.349-2.755-1.302-3.533-2.634-0.093-0.154-0.166-0.285-0.166-0.291 0-0.010-0.048-0.118-0.109-0.25-0.31-0.662-0.474-1.43-0.474-2.25-0.003-1.066 0.25-2.019 0.784-2.925 0.4-0.685 1.168-1.485 1.558-1.622 0.157-0.058 0.346-0.054 0.528 0.010zM12.237 19.238c0.176 0.051 0.474 0.349 0.525 0.525 0.029 0.096 0.038 0.672 0.038 2.186v2.051h1.184c0.653 0 1.184 0.006 1.184 0.019 0 0.010-0.854 0.87-1.894 1.91-1.482 1.478-1.933 1.914-2.051 1.968-0.31 0.144-0.682 0.125-0.966-0.051-0.070-0.045-0.406-0.362-0.746-0.707s-1.171-1.184-1.85-1.866c-0.675-0.678-1.229-1.245-1.229-1.254s0.534-0.019 1.184-0.019h1.184v-4.144l0.080-0.16c0.042-0.090 0.096-0.182 0.118-0.208 0.070-0.083 0.259-0.214 0.362-0.25 0.144-0.051 2.704-0.051 2.877 0z"></path>
</svg>
