<!-- Generated by IcoMoon.io -->
<svg version="1.1" xmlns="http://www.w3.org/2000/svg" width="32" height="32" viewBox="0 0 32 32">
<title>device_tv</title>
<path fill="#ff7900" d="M3.744 5.622c-0.618 0.102-1.149 0.605-1.296 1.229-0.042 0.179-0.048 1.155-0.048 7.952 0 5.139 0.010 7.805 0.032 7.92 0.112 0.582 0.624 1.107 1.21 1.229 0.163 0.035 0.509 0.048 1.488 0.048h1.27v2.4h19.2v-2.4h1.28c1.37 0 1.478-0.010 1.818-0.163 0.246-0.112 0.598-0.448 0.723-0.691 0.192-0.381 0.179 0.179 0.179-8.323 0-8.586 0.016-7.965-0.195-8.362-0.205-0.384-0.509-0.637-0.941-0.781l-0.237-0.080-12.202 0.003c-6.71 0.003-12.237 0.013-12.282 0.019zM28 14.8v7.6h-24v-15.2h24v7.6zM16.31 23.667c0.166 0.061 0.365 0.275 0.442 0.47 0.141 0.371-0.070 0.842-0.445 0.998-0.166 0.070-0.451 0.070-0.611 0.003-0.378-0.16-0.589-0.63-0.448-0.998 0.17-0.445 0.611-0.643 1.062-0.474z"></path>
</svg>
