<!-- Generated by IcoMoon.io -->
<svg version="1.1" xmlns="http://www.w3.org/2000/svg" width="32" height="32" viewBox="0 0 32 32">
<title>device-connected-printer</title>
<path fill="#ff7900" d="M7.2 10.4v4.8l-1.686 0.003c-0.931 0-1.728 0.010-1.776 0.016-0.608 0.102-1.126 0.586-1.293 1.206-0.035 0.138-0.045 0.912-0.045 4.349 0 2.947 0.010 4.23 0.035 4.352 0.122 0.582 0.592 1.069 1.184 1.226 0.259 0.070 24.502 0.070 24.762 0 0.528-0.141 0.934-0.509 1.13-1.027l0.074-0.189 0.010-4.266c0.006-3.827 0.003-4.285-0.045-4.464-0.144-0.57-0.582-1.005-1.165-1.158-0.144-0.038-0.486-0.048-1.878-0.048h-1.706v-3.2l-6.4-6.4h-11.2v4.8zM17.6 9.29c0 1.933 0.003 2.109 0.061 2.317 0.15 0.582 0.653 1.053 1.232 1.158 0.125 0.022 0.909 0.035 2.25 0.035h2.058v6.4h-14.4v-12h8.8v2.090zM16.272 23.254c0.448 0.15 0.662 0.73 0.422 1.139-0.096 0.163-0.157 0.218-0.339 0.314-0.624 0.323-1.341-0.298-1.107-0.96 0.15-0.435 0.586-0.643 1.024-0.493z"></path>
<path fill="#ff7900" d="M9.606 11.779l0.010 0.586 0.192 0.006c0.106 0.006 0.266 0.019 0.352 0.029 0.090 0.010 0.218 0.029 0.288 0.035 0.205 0.026 0.646 0.141 0.979 0.253 1.408 0.477 2.755 1.635 3.475 2.992 0.4 0.749 0.659 1.661 0.688 2.416l0.010 0.256 0.589 0.010 0.586 0.006-0.019-0.374c-0.013-0.208-0.035-0.477-0.054-0.602-0.474-3.398-3.29-5.994-6.71-6.179l-0.394-0.022 0.010 0.589z"></path>
<path fill="#ff7900" d="M9.6 14.17v0.57l0.346 0.035c1.299 0.138 2.339 0.835 2.896 1.946 0.138 0.278 0.262 0.646 0.31 0.915 0.019 0.112 0.042 0.234 0.048 0.269s0.013 0.154 0.013 0.262l0.003 0.202h0.576c0.438 0 0.576-0.010 0.579-0.042 0.013-0.173-0.022-0.563-0.070-0.822-0.179-0.934-0.621-1.789-1.28-2.464-0.49-0.499-1.037-0.864-1.67-1.117-0.474-0.189-1.126-0.323-1.565-0.323h-0.186v0.57z"></path>
<path fill="#ff7900" d="M9.6 16.576v0.608h0.106c0.115 0 0.355 0.067 0.49 0.138 0.278 0.144 0.534 0.522 0.579 0.854l0.026 0.176 0.598 0.010 0.598 0.006-0.016-0.182c-0.106-1.165-1.021-2.083-2.195-2.202l-0.186-0.016v0.608z"></path>
</svg>
