<!-- Generated by IcoMoon.io -->
<svg version="1.1" xmlns="http://www.w3.org/2000/svg" width="32" height="32" viewBox="0 0 32 32">
<title>device_tablet</title>
<path fill="#ff7900" d="M6.816 2.451c-0.272 0.074-0.499 0.195-0.698 0.381-0.227 0.211-0.371 0.448-0.454 0.746-0.064 0.227-0.064 0.352-0.064 12.429 0 13.299-0.013 12.33 0.179 12.726 0.115 0.234 0.454 0.573 0.688 0.688 0.394 0.192-0.275 0.179 9.485 0.179 6.32 0 9.021-0.010 9.152-0.035 0.589-0.106 1.088-0.582 1.248-1.184 0.042-0.147 0.048-1.91 0.048-12.374 0-12.077 0-12.202-0.064-12.429-0.154-0.557-0.586-0.979-1.155-1.13-0.262-0.070-18.102-0.067-18.365 0.003zM24.8 15.2v11.2h-17.6v-22.4h17.6v11.2zM16.4 27.309c0.39 0.23 0.512 0.749 0.266 1.12-0.112 0.17-0.221 0.256-0.413 0.323-0.608 0.214-1.222-0.394-1.005-1.005 0.086-0.246 0.282-0.442 0.522-0.518 0.16-0.051 0.47-0.013 0.63 0.080z"></path>
</svg>
