<!-- Generated by IcoMoon.io -->
<svg version="1.1" xmlns="http://www.w3.org/2000/svg" width="32" height="32" viewBox="0 0 32 32">
<title>device_desktop_computer_connected</title>
<path fill="#ff7900" d="M3.626 5.613c-0.419 0.102-0.867 0.454-1.043 0.819-0.195 0.406-0.182-0.099-0.182 7.552 0 5.946 0.006 7.018 0.048 7.165 0.157 0.592 0.643 1.062 1.226 1.184 0.24 0.051 17.981 0.051 18.221 0 0.598-0.125 1.114-0.64 1.238-1.238 0.048-0.237 0.051-13.962 0-14.234-0.080-0.435-0.442-0.922-0.829-1.11-0.4-0.195 0.288-0.182-9.536-0.179-7.062 0.003-9.011 0.010-9.142 0.042zM21.6 13.2v6h-17.6v-12h17.6v6zM13.037 20.022c0.63 0.214 0.71 1.098 0.128 1.437-0.285 0.166-0.752 0.106-0.97-0.128-0.298-0.323-0.294-0.819 0.013-1.123 0.218-0.221 0.528-0.288 0.829-0.186z"></path>
<path fill="#ff7900" d="M4.8 13.99v0.394l0.202 0.010c1.19 0.048 2.429 0.787 3.139 1.878 0.41 0.627 0.634 1.261 0.666 1.904l0.013 0.208 0.79 0.019-0.022-0.298c-0.038-0.525-0.093-0.79-0.262-1.299-0.499-1.478-1.808-2.669-3.357-3.056-0.33-0.083-0.79-0.15-1.030-0.15h-0.138v0.39z"></path>
<path fill="#ff7900" d="M4.8 15.581c0 0.346 0.006 0.387 0.058 0.387 0.118 0.003 0.32 0.038 0.557 0.096 1.040 0.253 1.773 1.168 1.814 2.262 0.003 0.074 0.010 0.074 0.39 0.074h0.39l-0.022-0.256c-0.064-0.762-0.381-1.45-0.922-1.994-0.544-0.544-1.264-0.88-2.016-0.938l-0.25-0.019v0.387z"></path>
<path fill="#ff7900" d="M4.8 17.197v0.397l0.138 0.022c0.339 0.058 0.595 0.314 0.65 0.653l0.022 0.131h0.797l-0.022-0.179c-0.061-0.531-0.406-1.018-0.893-1.254-0.192-0.093-0.461-0.166-0.611-0.166h-0.080v0.397z"></path>
<path fill="#ff7900" d="M24 8.8v1.6h4v0.8h-4v0.8h4v0.8h-4l-0.006 4.214-0.010 4.218-0.070 0.214c-0.262 0.822-0.864 1.421-1.658 1.654-0.301 0.086-0.4 0.096-0.97 0.099h-0.49l0.003 0.918c0.003 0.87 0.010 0.934 0.080 1.152 0.090 0.282 0.224 0.499 0.426 0.688 0.208 0.192 0.355 0.278 0.64 0.365l0.243 0.077h3.008c2.515 0 3.040-0.010 3.184-0.045 0.528-0.144 0.934-0.512 1.13-1.030l0.074-0.189 0.010-8.224c0.006-6.003 0-8.275-0.026-8.416-0.115-0.611-0.656-1.152-1.261-1.261-0.125-0.022-0.912-0.035-2.25-0.035h-2.058v1.6zM27.558 23.296c0.282 0.141 0.426 0.378 0.426 0.704-0.003 0.851-1.149 1.107-1.507 0.336-0.198-0.422 0.013-0.928 0.454-1.091 0.173-0.064 0.445-0.042 0.627 0.051z"></path>
<path fill="#ff7900" d="M10.4 24v0.797l-3.44 0.019-0.15 0.090c-0.323 0.189-0.4 0.384-0.406 1.024l-0.006 0.47h12.81l-0.010-0.522c-0.013-0.499-0.016-0.525-0.102-0.669-0.048-0.083-0.138-0.189-0.198-0.237-0.221-0.17-0.275-0.173-2.054-0.173h-1.642v-1.6h-4.8v0.8z"></path>
</svg>
