<!-- Generated by IcoMoon.io -->
<svg version="1.1" xmlns="http://www.w3.org/2000/svg" width="32" height="32" viewBox="0 0 32 32">
<title>dialler</title>
<path fill="#ff7900" d="M15.194 2.416c-0.003 0.003-0.147 0.019-0.314 0.029-0.166 0.013-0.333 0.029-0.368 0.035s-0.134 0.022-0.224 0.032c-0.211 0.022-0.342 0.045-0.832 0.125-0.035 0.003-0.099 0.019-0.144 0.029s-0.218 0.051-0.384 0.086c-0.592 0.131-1.597 0.445-2 0.624-0.051 0.026-0.189 0.083-0.304 0.128-0.57 0.234-1.491 0.733-2.115 1.149-0.515 0.342-0.605 0.406-1.043 0.765-1.968 1.59-3.434 3.658-4.288 6.038-0.24 0.675-0.493 1.648-0.586 2.266-0.080 0.509-0.093 0.611-0.112 0.822-0.013 0.122-0.029 0.266-0.038 0.32-0.029 0.182-0.035 1.795-0.010 2.112 0.032 0.368 0.096 0.963 0.115 1.056 0.010 0.035 0.045 0.23 0.080 0.432 0.301 1.725 1.005 3.475 2.010 5.008 0.115 0.176 0.221 0.333 0.237 0.352 0.013 0.016 0.125 0.17 0.25 0.336 0.762 1.018 1.658 1.914 2.669 2.678 0.806 0.605 1.299 0.912 2.195 1.36 1.203 0.598 2.765 1.088 4.013 1.254 0.070 0.010 0.23 0.032 0.352 0.048 0.611 0.083 2.118 0.115 2.736 0.058 2.682-0.25 5.021-1.136 7.088-2.691 2.65-1.99 4.49-4.902 5.146-8.147 0.102-0.493 0.176-0.963 0.202-1.28 0.010-0.131 0.026-0.275 0.035-0.32 0.029-0.144 0.035-1.798 0.006-2.112-0.035-0.435-0.093-0.918-0.125-1.104-0.016-0.090-0.045-0.253-0.064-0.368-0.262-1.485-0.89-3.165-1.667-4.454-0.189-0.31-0.525-0.835-0.582-0.906-0.013-0.019-0.131-0.176-0.266-0.352-1.642-2.195-3.955-3.859-6.589-4.736-0.874-0.291-1.99-0.531-2.832-0.611-0.115-0.010-0.25-0.026-0.304-0.035-0.106-0.016-1.923-0.042-1.942-0.026zM10.397 7.376c0.349 0.122 0.701 0.467 1.571 1.536 0.758 0.928 1.197 1.542 1.331 1.866 0.067 0.163 0.090 0.448 0.048 0.605-0.067 0.25-0.336 0.589-0.973 1.235-0.534 0.541-0.627 0.65-0.662 0.774-0.211 0.752 0.698 2.134 2.739 4.16 1.446 1.44 2.541 2.272 3.357 2.563 0.224 0.077 0.637 0.080 0.778 0.003 0.061-0.032 0.349-0.298 0.64-0.589 0.554-0.55 0.848-0.803 1.094-0.938 0.118-0.067 0.186-0.080 0.4-0.080 0.224 0.003 0.285 0.016 0.47 0.106 0.355 0.176 0.733 0.445 1.658 1.187 1.45 1.168 1.738 1.494 1.686 1.926-0.045 0.362-0.237 0.608-1.366 1.731-0.934 0.931-1.021 0.995-1.488 1.101-0.4 0.093-1.184 0.080-1.715-0.029-1.574-0.326-3.37-1.194-5.133-2.48-0.349-0.256-0.986-0.749-1.040-0.806-0.010-0.010-0.109-0.096-0.224-0.192-0.694-0.586-1.875-1.738-2.499-2.448-2.163-2.458-3.494-4.89-3.818-6.976-0.064-0.403-0.045-1.11 0.038-1.424 0.109-0.422 0.208-0.579 0.675-1.069 0.73-0.765 1.386-1.411 1.587-1.558 0.32-0.234 0.586-0.298 0.845-0.205z"></path>
</svg>
