<!-- Generated by IcoMoon.io -->
<svg version="1.1" xmlns="http://www.w3.org/2000/svg" width="32" height="32" viewBox="0 0 32 32">
<title>disable_apps</title>
<path fill="#ff7900" d="M15.136 15.136l-13.6 13.6 1.696 1.696 6.8-6.8c3.741-3.741 9.859-9.859 13.6-13.6l6.8-6.8-1.696-1.696-13.6 13.6z"></path>
<path fill="#ff7900" d="M5.984 3.222c-0.371 0.058-0.87 0.224-1.149 0.387-0.694 0.403-1.216 1.027-1.462 1.75-0.16 0.47-0.154 0.218-0.163 5.19l-0.013 4.65h9.651l2.352-2.352v-9.648l-4.566 0.003c-2.515 0.003-4.605 0.013-4.65 0.019z"></path>
<path fill="#ff7900" d="M16.8 7.222v4.026l4.016-4.016c2.208-2.208 4.016-4.019 4.016-4.022 0-0.006-1.808-0.010-4.016-0.010h-4.016v4.022z"></path>
<path fill="#ff7900" d="M24.768 11.184l-4.016 4.016h8.048v-4.016c0-2.208-0.003-4.016-0.010-4.016-0.003 0-1.814 1.808-4.022 4.016z"></path>
<path fill="#ff7900" d="M3.2 20.822v4.026l4.016-4.016c2.208-2.208 4.016-4.019 4.016-4.022 0-0.006-1.808-0.010-4.016-0.010h-4.016v4.022z"></path>
<path fill="#ff7900" d="M17.974 17.978l-1.174 1.174v9.651l9.328-0.019 0.301-0.090c1.2-0.352 2.074-1.29 2.307-2.483 0.058-0.291 0.061-0.528 0.064-4.861v-4.55h-9.648l-1.178 1.178z"></path>
<path fill="#ff7900" d="M11.168 24.784l-4.016 4.016h8.048v-4.016c0-2.208-0.003-4.016-0.010-4.016-0.003 0-1.814 1.808-4.022 4.016z"></path>
</svg>
