<!-- Generated by IcoMoon.io -->
<svg version="1.1" xmlns="http://www.w3.org/2000/svg" width="32" height="32" viewBox="0 0 32 32">
<title>Discovery_offer</title>
<path fill="#ff7900" d="M15.606 2.048c-0.55 0.093-0.966 0.33-1.459 0.832-0.883 0.899-2.659 2.714-2.835 2.896-0.118 0.122-0.758 0.778-1.424 1.456-0.662 0.678-1.312 1.341-1.443 1.475-0.31 0.32-2.496 2.554-2.694 2.749l-0.15 0.154 0.006 7.853 0.010 7.85 0.090 0.314c0.163 0.582 0.422 1.030 0.838 1.446 0.486 0.486 1.046 0.778 1.734 0.896 0.25 0.045 1.184 0.048 7.85 0.042l7.568-0.010 0.314-0.086c0.56-0.154 1.034-0.432 1.446-0.842 0.365-0.362 0.624-0.781 0.784-1.264 0.166-0.493 0.16-0.192 0.16-8.474v-7.725l-0.621-0.627c-0.342-0.349-0.71-0.723-0.819-0.838s-0.749-0.768-1.421-1.453c-2.134-2.179-2.595-2.65-2.982-3.050-0.813-0.835-2.474-2.531-2.749-2.803-0.445-0.448-0.826-0.666-1.341-0.771-0.262-0.054-0.605-0.061-0.861-0.019zM16.426 5.661c0.736 0.17 1.328 0.746 1.514 1.475 0.243 0.954-0.285 1.978-1.206 2.333-0.643 0.253-1.341 0.166-1.894-0.23-1.11-0.794-1.11-2.451-0.003-3.242 0.454-0.323 1.069-0.454 1.59-0.336zM16.851 16.483c1.603 0.234 3.184 1.030 4.858 2.445 0.326 0.275 1.491 1.434 1.491 1.482 0 0.042-0.656 0.752-1.011 1.094-1.309 1.264-2.749 2.157-4.189 2.602-1.098 0.339-2.298 0.394-3.36 0.154-1.504-0.339-3.030-1.19-4.531-2.518-0.515-0.454-1.312-1.29-1.283-1.344 0.109-0.192 1.050-1.158 1.539-1.581 1.347-1.162 2.896-1.974 4.301-2.259 0.71-0.144 1.52-0.173 2.186-0.074z"></path>
<path fill="#ff7900" d="M15.443 17.267c-1.101 0.198-2.006 0.944-2.419 1.984-0.298 0.742-0.282 1.696 0.035 2.419 0.163 0.374 0.381 0.694 0.669 0.986 0.464 0.464 0.947 0.736 1.584 0.883 0.358 0.083 1.059 0.083 1.392 0 0.774-0.195 1.411-0.611 1.882-1.238 0.157-0.208 0.394-0.675 0.47-0.925 0.154-0.512 0.176-1.219 0.051-1.722-0.246-0.989-0.966-1.818-1.901-2.202-0.522-0.211-1.219-0.285-1.763-0.186zM17.059 18.864c0.298 0.106 0.49 0.346 0.528 0.656 0.038 0.33-0.109 0.621-0.394 0.79-0.31 0.182-0.774 0.099-1.005-0.182-0.102-0.122-0.189-0.365-0.189-0.528 0-0.182 0.099-0.406 0.246-0.547 0.224-0.221 0.525-0.288 0.813-0.189z"></path>
</svg>
