<!-- Generated by IcoMoon.io -->
<svg version="1.1" xmlns="http://www.w3.org/2000/svg" width="32" height="32" viewBox="0 0 32 32">
<title>Discussion_author</title>
<path fill="#ff7900" d="M15.165 3.213c-0.006 0.006-0.182 0.022-0.387 0.032-0.208 0.013-0.41 0.029-0.448 0.035-0.042 0.006-0.16 0.019-0.266 0.032-1.309 0.141-2.733 0.486-3.978 0.963-1.578 0.608-2.989 1.446-4.182 2.49-0.81 0.71-1.6 1.642-2.147 2.534-0.717 1.168-1.162 2.458-1.309 3.805-0.042 0.387-0.048 1.613-0.006 1.792 0.010 0.035 0.026 0.15 0.038 0.256 0.054 0.499 0.189 1.050 0.403 1.696 0.79 2.349 2.637 4.461 5.165 5.91 0.819 0.47 1.875 0.938 2.778 1.229l0.374 0.122v5.494l4.79-4.794 0.63-0.022c0.346-0.013 0.646-0.029 0.669-0.035s0.154-0.019 0.294-0.029c0.704-0.051 1.616-0.205 2.432-0.406 2.045-0.502 3.795-1.322 5.376-2.512 0.195-0.147 0.39-0.298 0.435-0.339 0.048-0.042 0.157-0.134 0.24-0.205 0.72-0.614 1.498-1.507 2.045-2.349 0.234-0.355 0.723-1.296 0.845-1.616 0.451-1.184 0.63-2.118 0.634-3.28 0.010-2.47-1.027-4.835-2.963-6.749-1.514-1.494-3.363-2.586-5.584-3.296-1.062-0.339-2.384-0.608-3.395-0.691-0.141-0.013-0.298-0.029-0.352-0.035-0.115-0.019-2.115-0.048-2.131-0.032zM18.429 8.918c0.093 0.349 1.475 5.901 1.475 5.923 0 0.013-0.048 0.051-0.102 0.083-0.368 0.211-0.954 0.736-1.283 1.155-0.41 0.522-0.816 1.245-1.069 1.904-0.218 0.57-0.358 1.082-0.486 1.792-0.061 0.326-0.070 0.403-0.115 0.822l-0.022 0.202h-0.506v-6.458l0.109-0.067c0.211-0.131 0.371-0.422 0.371-0.678 0-0.205-0.115-0.461-0.266-0.589-0.33-0.282-0.803-0.266-1.098 0.038-0.339 0.349-0.298 0.899 0.086 1.187l0.157 0.115v6.451h-0.502l-0.038-0.33c-0.058-0.502-0.067-0.557-0.15-0.966-0.266-1.299-0.733-2.384-1.43-3.325-0.285-0.378-0.822-0.899-1.165-1.123-0.163-0.106-0.294-0.202-0.298-0.218 0-0.019 1.373-5.539 1.475-5.92l0.032-0.118h4.794l0.032 0.118z"></path>
</svg>
