<!-- Generated by IcoMoon.io -->
<svg version="1.1" xmlns="http://www.w3.org/2000/svg" width="32" height="32" viewBox="0 0 32 32">
<title>Doctor</title>
<path fill="#ff7900" d="M15.245 2.448c-0.906 0.134-1.68 0.426-2.413 0.906-0.362 0.237-0.563 0.406-0.928 0.771-0.87 0.877-1.398 1.926-1.606 3.203-0.051 0.323-0.051 1.392 0.003 1.696 0.109 0.634 0.285 1.178 0.547 1.702 0.752 1.501 2.093 2.586 3.709 3.005 2.029 0.525 4.192-0.096 5.622-1.613 0.787-0.835 1.299-1.862 1.504-3.014 0.070-0.394 0.080-1.44 0.016-1.808-0.058-0.346-0.211-0.922-0.31-1.174-0.579-1.485-1.69-2.64-3.136-3.258-0.477-0.205-0.797-0.294-1.485-0.416-0.237-0.045-1.232-0.042-1.523 0z"></path>
<path fill="#ff7900" d="M10.88 13.789c-1.072 0.659-1.914 1.459-2.579 2.454-0.41 0.614-0.822 1.581-0.954 2.237-0.144 0.72-0.144 0.698-0.138 4.656l0.006 3.76 0.083 0.304c0.198 0.71 0.608 1.325 1.165 1.744 0.269 0.202 0.634 0.394 0.934 0.493 0.512 0.17 0.176 0.163 8.077 0.163h7.325l-0.003-5.098c0-4.061-0.010-5.162-0.045-5.434-0.266-2.102-1.606-4.051-3.632-5.283l-0.304-0.182-0.006 0.134c-0.006 0.074-0.013 0.746-0.019 1.494s-0.022 1.402-0.035 1.456c-0.010 0.051-0.035 0.176-0.054 0.272-0.269 1.408-1.245 2.675-2.573 3.338-0.496 0.246-1.056 0.416-1.523 0.458l-0.221 0.022v1.242c0 1.123 0.006 1.245 0.051 1.245 0.106 0 0.464 0.198 0.634 0.352 0.682 0.627 0.707 1.658 0.054 2.304-0.643 0.64-1.61 0.64-2.243 0.003-0.637-0.64-0.637-1.6-0.003-2.24 0.202-0.205 0.554-0.419 0.691-0.419 0.042 0 0.048-0.154 0.042-1.242l-0.010-1.238-0.112-0.010c-0.061-0.006-0.253-0.038-0.426-0.074-1.722-0.339-3.114-1.594-3.654-3.293-0.17-0.534-0.182-0.701-0.198-2.176-0.006-0.765-0.013-1.446-0.019-1.514l-0.006-0.118-0.304 0.189z"></path>
<path fill="#ff7900" d="M12.010 15.472c0.006 0.598 0.022 1.13 0.035 1.184 0.061 0.266 0.186 0.707 0.224 0.797 0.026 0.054 0.083 0.186 0.131 0.291 0.333 0.726 1.133 1.523 1.875 1.866 0.304 0.138 0.621 0.246 0.861 0.291 0.115 0.022 0.272 0.054 0.352 0.070s0.352 0.022 0.608 0.016c0.675-0.019 1.133-0.131 1.709-0.422 0.909-0.458 1.645-1.296 1.965-2.237 0.192-0.566 0.205-0.675 0.221-1.856l0.016-1.088-0.093 0.083c-0.080 0.074-0.39 0.339-0.666 0.57-0.054 0.045-0.419 0.339-0.816 0.659-0.608 0.486-1.002 0.797-2.31 1.814l-0.118 0.093-0.49-0.374c-0.269-0.208-0.598-0.464-0.73-0.566-0.131-0.106-0.288-0.227-0.349-0.275-0.531-0.41-1.821-1.459-2.237-1.824l-0.205-0.176 0.016 1.085z"></path>
</svg>
