<!-- Generated by IcoMoon.io -->
<svg version="1.1" xmlns="http://www.w3.org/2000/svg" width="32" height="32" viewBox="0 0 32 32">
<title>Doctors_bag</title>
<path fill="#ff7900" d="M13.712 4.022c-1.104 0.16-2.013 0.915-2.362 1.962-0.131 0.39-0.147 0.586-0.141 1.856l0.006 1.2 0.090 0.15c0.272 0.464 0.886 0.544 1.258 0.163 0.224-0.227 0.237-0.307 0.237-1.338 0-1.062 0.016-1.158 0.243-1.376 0.256-0.25 0.125-0.24 2.938-0.24 1.386 0 2.554 0.016 2.624 0.032 0.179 0.042 0.371 0.186 0.483 0.365l0.096 0.157 0.032 2.086 0.090 0.154c0.31 0.528 1.078 0.528 1.389 0l0.090-0.154v-1.312c0-1.267-0.003-1.322-0.074-1.562-0.301-1.037-1.040-1.779-2.074-2.077-0.253-0.070-0.266-0.070-2.541-0.077-1.258-0.003-2.33 0.003-2.384 0.010z"></path>
<path fill="#ff7900" d="M7.488 10.422c-0.237 0.026-0.733 0.138-1.008 0.227-1.648 0.544-2.877 1.962-3.21 3.702-0.051 0.266-0.054 0.778-0.054 6.688v6.4l0.090 0.15c0.048 0.083 0.138 0.189 0.198 0.237 0.243 0.186-0.646 0.173 12.506 0.173 8.602 0 12.128-0.010 12.211-0.035 0.182-0.054 0.362-0.195 0.467-0.365l0.096-0.154v-6.403c0-6.048-0.003-6.419-0.058-6.691-0.080-0.397-0.166-0.688-0.304-1.008-0.586-1.389-1.814-2.445-3.235-2.79-0.634-0.154-0.285-0.147-9.187-0.147-4.621 0.003-8.451 0.010-8.512 0.016zM16.624 13.635c0.63 0.067 1.283 0.262 1.888 0.563 0.602 0.298 1.242 0.79 1.67 1.283 0.304 0.352 0.317 0.368 0.506 0.659 0.637 0.976 0.954 2.138 0.899 3.283-0.022 0.48-0.029 0.531-0.115 0.947-0.432 2.048-2 3.696-4.029 4.24-0.822 0.221-1.85 0.24-2.691 0.048-0.24-0.054-0.762-0.221-0.928-0.298-0.989-0.448-1.722-1.027-2.326-1.834-0.557-0.746-0.957-1.757-1.062-2.688-0.042-0.371-0.019-1.235 0.042-1.568 0.182-0.992 0.605-1.92 1.181-2.608 0.966-1.152 2.208-1.83 3.702-2.029 0.266-0.035 0.931-0.035 1.264 0z"></path>
<path fill="#ff7900" d="M14.4 16.4v1.2h-2.4v3.2h2.4v2.4h3.2v-2.4h2.4v-3.2h-2.4v-2.4h-3.2v1.2z"></path>
</svg>
