<!-- Generated by IcoMoon.io -->
<svg version="1.1" xmlns="http://www.w3.org/2000/svg" width="32" height="32" viewBox="0 0 32 32">
<title>Doctors_communicating</title>
<path fill="#ff7900" d="M3.21 14.214c0.010 8.576 0.010 8.618 0.074 8.829 0.272 0.877 0.938 1.504 1.798 1.693 0.256 0.058 0.422 0.064 2 0.064h1.718v2.384c0 1.312 0.006 2.384 0.016 2.384s1.088-1.072 2.403-2.384l2.387-2.384h15.194l-0.010-8.618c-0.006-8.093-0.010-8.624-0.064-8.797-0.275-0.896-0.906-1.507-1.779-1.722-0.234-0.058-0.646-0.061-11.997-0.061l-11.75-0.003 0.010 8.614zM16.816 8.093c0.592 0.147 1.072 0.416 1.504 0.851 0.618 0.618 0.941 1.392 0.938 2.256-0.006 1.389-0.874 2.595-2.186 3.034-0.669 0.224-1.542 0.208-2.147-0.045-0.49-0.202-0.781-0.394-1.123-0.739-0.765-0.768-1.082-1.827-0.867-2.883 0.128-0.637 0.406-1.155 0.874-1.622 0.47-0.474 1.030-0.768 1.696-0.896 0.336-0.061 0.963-0.042 1.312 0.045zM13.667 15.264c0.003 0.973 0.006 1.059 0.077 1.322 0.224 0.864 0.842 1.488 1.722 1.734l0.182 0.051v0.877l-0.144 0.077c-0.394 0.208-0.634 0.618-0.63 1.075 0.006 0.662 0.522 1.171 1.19 1.174 1.062 0.006 1.597-1.286 0.842-2.035-0.086-0.083-0.23-0.186-0.32-0.234l-0.17-0.080v-0.851l0.122-0.022c0.451-0.083 0.915-0.342 1.267-0.704 0.112-0.115 0.163-0.182 0.346-0.461 0.083-0.122 0.214-0.474 0.262-0.71 0.032-0.144 0.045-0.496 0.048-1.178 0.003-0.538 0.013-0.982 0.019-0.989 0.006-0.010 0.115 0.051 0.237 0.134 0.899 0.608 1.597 1.581 1.885 2.618 0.186 0.659 0.176 0.55 0.192 3.027l0.010 2.31-8.275-0.016-0.192-0.080c-0.576-0.234-0.998-0.726-1.104-1.28-0.051-0.266-0.035-2.918 0.019-3.28 0.083-0.576 0.208-0.986 0.445-1.459 0.128-0.259 0.406-0.723 0.461-0.765 0.010-0.010 0.077-0.090 0.147-0.176 0.157-0.195 0.39-0.429 0.624-0.627 0.182-0.157 0.707-0.515 0.723-0.499 0.006 0.006 0.013 0.477 0.016 1.046zM15.306 15.494l0.758 0.506 0.794-0.528 0.79-0.528 0.010 0.582c0.006 0.349-0.006 0.662-0.026 0.778-0.115 0.611-0.63 1.133-1.242 1.261-0.365 0.077-0.72 0.022-1.091-0.166-0.384-0.195-0.723-0.656-0.8-1.091-0.051-0.282-0.048-1.373 0.006-1.344 0.019 0.013 0.381 0.253 0.8 0.531z"></path>
</svg>
