<!-- Generated by IcoMoon.io -->
<svg version="1.1" xmlns="http://www.w3.org/2000/svg" width="32" height="32" viewBox="0 0 32 32">
<title>document_word</title>
<path fill="#ff7900" d="M5.6 15.302c0 14.067-0.013 13.034 0.179 13.43 0.115 0.234 0.454 0.573 0.688 0.688 0.397 0.192-0.342 0.179 10.23 0.179h9.702v-19.2l-2.518-0.003c-1.389 0-2.586-0.010-2.666-0.019-0.467-0.058-1.005-0.262-1.421-0.538-0.445-0.294-0.896-0.842-1.123-1.357-0.109-0.246-0.224-0.659-0.253-0.915-0.006-0.070-0.016-1.261-0.016-2.65l-0.003-2.518h-12.8v12.902zM24.259 14.448c0.192 0.067 0.333 0.186 0.435 0.362 0.077 0.128 0.090 0.186 0.090 0.39s-0.016 0.266-0.086 0.387c-0.099 0.17-0.259 0.301-0.445 0.365-0.186 0.067-5.13 0.070-5.315 0.003-0.547-0.195-0.707-0.893-0.301-1.309 0.243-0.253 0.102-0.24 2.95-0.243 2.189-0.003 2.55 0.003 2.672 0.045zM9.501 15.318c0.019 0.067 0.093 0.365 0.163 0.666 0.074 0.298 0.224 0.918 0.336 1.376s0.262 1.085 0.336 1.392c0.186 0.774 0.195 0.81 0.208 0.794 0.013-0.013 0.291-1.043 0.586-2.154 0.070-0.266 0.214-0.813 0.323-1.216 0.109-0.406 0.211-0.79 0.23-0.858l0.032-0.118 0.691 0.006 0.694 0.010 0.070 0.272c0.038 0.15 0.173 0.675 0.301 1.168s0.288 1.11 0.358 1.376c0.144 0.557 0.333 1.29 0.384 1.472 0.035 0.122 0.064 0.013 0.586-2.080l0.55-2.208 0.73-0.010c0.592-0.006 0.723 0 0.71 0.035-0.010 0.022-0.048 0.157-0.086 0.294-0.125 0.448-0.544 1.946-0.592 2.112-0.026 0.086-0.182 0.643-0.349 1.232s-0.403 1.443-0.531 1.894l-0.234 0.826h-0.733c-0.557 0-0.733-0.010-0.742-0.042-0.006-0.019-0.064-0.24-0.128-0.486-0.355-1.379-0.95-3.661-0.973-3.744-0.026-0.096-0.029-0.093-0.080 0.080-0.026 0.096-0.15 0.573-0.275 1.056-0.122 0.483-0.288 1.133-0.368 1.44-0.077 0.307-0.195 0.762-0.256 1.008-0.064 0.246-0.131 0.502-0.147 0.566l-0.035 0.122h-1.488l-0.122-0.442c-0.067-0.24-0.186-0.669-0.262-0.95s-0.163-0.586-0.189-0.672c-0.026-0.090-0.067-0.24-0.093-0.336-0.051-0.198-1.050-3.802-1.094-3.946-0.016-0.051 0.032-0.054 0.72-0.054h0.736l0.032 0.118zM24.403 17.712c0.189 0.118 0.355 0.355 0.384 0.554 0.051 0.336-0.125 0.685-0.419 0.835l-0.157 0.083-2.56 0.010c-2.31 0.006-2.573 0.003-2.717-0.045-0.307-0.102-0.534-0.429-0.534-0.768 0-0.317 0.253-0.653 0.57-0.749 0.048-0.016 1.254-0.026 2.682-0.022l2.595 0.006 0.157 0.096zM24.259 20.848c0.554 0.189 0.717 0.899 0.301 1.312-0.25 0.25-0.125 0.24-2.944 0.24-2.816 0-2.73 0.006-2.963-0.227s-0.301-0.496-0.205-0.816c0.074-0.253 0.269-0.442 0.56-0.534 0.026-0.010 1.187-0.019 2.579-0.019 2.189-0.003 2.547 0.003 2.672 0.045z"></path>
<path fill="#ff7900" d="M20 4.918c0.003 1.61 0.016 2.547 0.035 2.65 0.125 0.586 0.589 1.085 1.123 1.2 0.122 0.026 0.89 0.032 2.698 0.026l2.528-0.010-3.178-3.178c-1.744-1.744-3.181-3.174-3.19-3.174s-0.016 1.12-0.016 2.486z"></path>
</svg>
