<!-- Generated by IcoMoon.io -->
<svg version="1.1" xmlns="http://www.w3.org/2000/svg" width="32" height="32" viewBox="0 0 32 32">
<title>document_zip</title>
<path fill="#ff7900" d="M5.6 15.302c0 14.067-0.013 13.034 0.179 13.43 0.115 0.234 0.454 0.573 0.688 0.688 0.397 0.192-0.342 0.179 10.23 0.179h9.702v-19.2l-2.518-0.003c-1.389 0-2.586-0.010-2.666-0.019-0.467-0.058-1.005-0.262-1.421-0.538-0.445-0.294-0.896-0.842-1.123-1.357-0.109-0.246-0.224-0.659-0.253-0.915-0.006-0.070-0.016-1.261-0.016-2.65l-0.003-2.518h-3.68v1.28h1.28v1.28h-1.28v1.28h1.28v1.28h-1.28v1.28h1.28v1.28h-1.28v1.28h1.28v1.28h-1.28v1.28h1.28v2.026c0 1.901-0.003 2.045-0.061 2.269-0.096 0.374-0.234 0.618-0.512 0.893-1.018 1.014-2.666 0.624-3.178-0.749-0.070-0.198-0.070-0.202-0.083-2.32l-0.010-2.118h1.283v-1.28h-1.28v-1.28h1.28v-1.28h-1.28v-1.28h1.28v-1.28h-1.28v-1.28h1.28v-1.28h-1.28v-1.28h1.28v-1.28h-7.84v12.902z"></path>
<path fill="#ff7900" d="M20 4.918c0.003 1.61 0.016 2.547 0.035 2.65 0.125 0.586 0.589 1.085 1.123 1.2 0.122 0.026 0.89 0.032 2.698 0.026l2.528-0.010-3.178-3.178c-1.744-1.744-3.181-3.174-3.19-3.174s-0.016 1.12-0.016 2.486z"></path>
<path fill="#ff7900" d="M13.789 16.682c-0.333 0.093-0.579 0.31-0.73 0.63-0.067 0.144-0.080 0.224-0.083 0.448 0 0.243 0.010 0.294 0.106 0.486 0.192 0.39 0.541 0.614 0.966 0.614 0.323 0.003 0.506-0.054 0.726-0.234 0.138-0.112 0.214-0.205 0.298-0.368 0.102-0.202 0.112-0.246 0.112-0.496 0-0.32-0.083-0.541-0.288-0.768-0.25-0.275-0.746-0.416-1.107-0.314z"></path>
</svg>
