<!-- Generated by IcoMoon.io -->
<svg version="1.1" xmlns="http://www.w3.org/2000/svg" width="32" height="32" viewBox="0 0 32 32">
<title>document_stack</title>
<path fill="#ff7900" d="M5.6 12.896c0 10.586-0.013 9.84 0.179 10.23 0.102 0.211 0.349 0.483 0.55 0.614 0.189 0.122 0.474 0.221 0.701 0.25l0.17 0.019v-19.21h5.584c3.072 0 5.584-0.006 5.584-0.016s-0.352-0.368-0.784-0.8l-0.787-0.784h-11.197v9.696z"></path>
<path fill="#ff7900" d="M8 15.28c0 6.941 0.010 9.725 0.035 9.846 0.138 0.662 0.717 1.187 1.389 1.261l0.176 0.019v-19.206h11.2l-0.803-0.8-0.8-0.8h-11.197v9.68z"></path>
<path fill="#ff7900" d="M10.4 17.68c0 6.941 0.010 9.725 0.035 9.846 0.128 0.608 0.656 1.13 1.258 1.238 0.134 0.026 2.374 0.035 7.45 0.035h7.258v-14.72h-2.070c-1.142-0.003-2.131-0.010-2.202-0.019-0.214-0.026-0.534-0.134-0.73-0.243-0.39-0.221-0.656-0.499-0.858-0.906-0.218-0.445-0.221-0.451-0.221-2.81v-2.102h-9.92v9.68zM23.402 16.995c0.070 0.019 0.176 0.086 0.243 0.157 0.282 0.291 0.243 0.739-0.086 0.973l-0.141 0.099h-10.026l-0.122-0.077c-0.198-0.122-0.291-0.301-0.294-0.547 0-0.163 0.016-0.234 0.077-0.33 0.074-0.122 0.25-0.256 0.374-0.288 0.131-0.032 9.853-0.022 9.974 0.013zM23.53 20.253c0.237 0.147 0.355 0.454 0.282 0.73-0.048 0.173-0.25 0.381-0.416 0.426-0.086 0.022-1.686 0.029-5.066 0.026l-4.944-0.010-0.131-0.093c-0.246-0.17-0.339-0.429-0.259-0.714 0.048-0.173 0.237-0.378 0.394-0.422 0.058-0.019 2.147-0.029 5.059-0.026l4.96 0.006 0.122 0.077zM23.402 23.395c0.144 0.038 0.323 0.211 0.394 0.374 0.106 0.25 0 0.589-0.24 0.758l-0.138 0.096h-10.035l-0.138-0.096c-0.333-0.237-0.378-0.678-0.093-0.973 0.067-0.070 0.173-0.141 0.23-0.16 0.154-0.042 9.859-0.045 10.019 0z"></path>
<path fill="#ff7900" d="M21.6 10.058c0 2.285-0.003 2.259 0.224 2.486 0.256 0.256 0.083 0.24 2.442 0.25 1.155 0.003 2.102 0 2.102-0.006 0-0.022-4.733-4.755-4.752-4.755-0.010 0-0.016 0.912-0.016 2.026z"></path>
</svg>
