<!-- Generated by IcoMoon.io -->
<svg version="1.1" xmlns="http://www.w3.org/2000/svg" width="32" height="32" viewBox="0 0 32 32">
<title>Documentary</title>
<path fill="#ff7900" d="M2.256 6.822c-0.262 0.054-0.451 0.198-0.579 0.442-0.058 0.106-0.061 0.234-0.061 2.56 0 2.717-0.013 2.56 0.211 2.784 0.24 0.237 0.49 0.285 0.989 0.186 0.131-0.029 0.813-0.166 1.517-0.31 1.19-0.243 1.302-0.259 1.67-0.259h0.397v5.408c0 4.822 0.006 5.437 0.051 5.658 0.182 0.893 0.822 1.574 1.738 1.853 0.166 0.051 0.742 0.058 8.797 0.064l8.614 0.010v-1.84c0-1.011 0.006-1.84 0.016-1.84s0.854 0.419 1.878 0.931c1.987 0.995 2.022 1.008 2.32 0.928 0.198-0.054 0.394-0.218 0.496-0.416l0.090-0.173-0.006-4.195c-0.010-3.962-0.013-4.202-0.067-4.31-0.173-0.346-0.566-0.534-0.918-0.435-0.061 0.016-0.944 0.445-1.958 0.954l-1.85 0.925-0.003-1.446c0-0.797-0.010-1.514-0.019-1.594-0.029-0.23-0.166-0.64-0.288-0.848-0.342-0.586-0.794-0.938-1.498-1.162-0.141-0.048-0.589-0.054-3.974-0.061l-3.818-0.013v-0.877c0-0.96-0.016-1.104-0.17-1.424-0.125-0.259-0.448-0.592-0.694-0.714-0.39-0.192-0.147-0.182-5.046-0.182h-4.49l-1.53-0.301c-1.814-0.358-1.658-0.333-1.814-0.301zM13.149 18.698c0.17 0.096 0.342 0.291 0.4 0.458 0.042 0.125 0.051 0.307 0.051 1.053 0 1.056-0.019 1.158-0.24 1.376-0.243 0.243-0.266 0.243-1.83 0.234l-1.37-0.010-0.147-0.086c-0.179-0.106-0.31-0.272-0.368-0.467-0.064-0.208-0.064-1.853 0-2.061 0.077-0.262 0.298-0.48 0.544-0.541 0.054-0.013 0.72-0.022 1.475-0.019 1.27 0.006 1.386 0.010 1.485 0.064zM17.994 18.73c0.179 0.106 0.317 0.285 0.371 0.477 0.029 0.096 0.035 0.419 0.029 1.098l-0.010 0.96-0.093 0.157c-0.106 0.176-0.294 0.323-0.474 0.374-0.080 0.019-0.608 0.029-1.491 0.022-1.357-0.010-1.366-0.010-1.494-0.083-0.070-0.042-0.173-0.125-0.23-0.186-0.189-0.211-0.202-0.304-0.202-1.338 0-0.922 0-0.934 0.080-1.101 0.042-0.093 0.131-0.218 0.195-0.278 0.214-0.205 0.227-0.205 1.773-0.198l1.392 0.006 0.154 0.090z"></path>
</svg>
