<!-- Generated by IcoMoon.io -->
<svg version="1.1" xmlns="http://www.w3.org/2000/svg" width="32" height="32" viewBox="0 0 32 32">
<title>Document_compose</title>
<path fill="#ff7900" d="M5.6 15.302c0 14.054-0.013 13.034 0.179 13.424 0.122 0.253 0.413 0.547 0.659 0.675 0.419 0.214-0.41 0.198 10.259 0.198h9.702v-8.768l1.776-1.776c0.976-0.976 1.811-1.83 1.853-1.901 0.125-0.195 0.189-0.461 0.17-0.688-0.042-0.451-0.070-0.49-1.235-1.661l-1.043-1.050-0.762 0.755-0.758 0.755v-4.867l-2.534-0.003c-1.395 0-2.582-0.006-2.634-0.013-1.126-0.15-2.080-0.848-2.547-1.859-0.106-0.23-0.237-0.704-0.266-0.944-0.006-0.077-0.016-1.274-0.016-2.662l-0.003-2.518h-12.8v12.902zM21.968 12.077c0.090 0.042 0.202 0.118 0.25 0.176 0.096 0.115 0.182 0.374 0.182 0.55 0 0.253-0.211 0.576-0.461 0.71l-0.131 0.070-5.76 0.010c-3.91 0.006-5.798 0-5.875-0.022-0.422-0.125-0.672-0.618-0.528-1.050 0.080-0.24 0.288-0.438 0.515-0.493 0.051-0.013 2.694-0.022 5.872-0.026l5.776-0.003 0.16 0.077zM28.656 15.635c0.746 0.752 0.794 0.816 0.736 1.011-0.019 0.067-1.030 1.114-1.075 1.114-0.013 0-1.498-1.475-1.629-1.619-0.016-0.019 1.187-1.229 1.226-1.229 0.016 0 0.349 0.326 0.742 0.723zM21.866 15.251c0.086 0.029 0.211 0.109 0.288 0.186 0.394 0.381 0.294 1.046-0.195 1.286-0.115 0.058-0.33 0.061-5.958 0.061h-5.84l-0.154-0.077c-0.387-0.189-0.522-0.73-0.275-1.101 0.102-0.157 0.282-0.294 0.467-0.362 0.099-0.035 1.107-0.042 5.821-0.045 5.136 0 5.712 0.006 5.846 0.051zM26.307 16.899c0.112 0.109 0.445 0.435 0.739 0.726 0.57 0.563 0.621 0.64 0.541 0.832-0.019 0.048-1.914 1.962-4.205 4.253l-4.166 4.163-0.528 0.272c-0.291 0.147-0.723 0.371-0.96 0.493-0.237 0.125-0.72 0.374-1.072 0.554-0.352 0.182-0.701 0.362-0.774 0.403-0.128 0.070-0.176 0.067-0.109-0.003 0.016-0.019 0.109-0.192 0.211-0.384 0.099-0.195 0.208-0.397 0.24-0.448 0.029-0.054 0.131-0.24 0.224-0.416s0.214-0.406 0.272-0.512c0.058-0.106 0.272-0.509 0.48-0.896l0.374-0.704 4.262-4.262c2.342-2.346 4.259-4.266 4.262-4.266 0 0 0.096 0.090 0.208 0.195zM21.834 18.438c0.064 0.019 0.118 0.045 0.118 0.058 0 0.010-0.339 0.352-0.752 0.762l-0.749 0.742h-5.094c-3.773 0-5.126-0.010-5.216-0.038-0.294-0.086-0.541-0.432-0.541-0.762 0-0.336 0.227-0.653 0.544-0.752 0.122-0.035 1.053-0.045 5.856-0.045 4.23-0.003 5.744 0.006 5.834 0.035zM13.859 21.616c0.72 0.24 0.714 1.264-0.006 1.504-0.218 0.074-3.45 0.074-3.693 0.003-0.691-0.208-0.755-1.142-0.099-1.482 0.147-0.077 0.483-0.090 2.141-0.083 1.306 0.003 1.517 0.013 1.658 0.058z"></path>
<path fill="#ff7900" d="M20 4.918c0.003 2.771-0.003 2.717 0.218 3.123 0.198 0.371 0.547 0.643 0.934 0.723 0.128 0.029 0.858 0.035 2.704 0.029l2.528-0.010-3.178-3.178c-1.744-1.744-3.181-3.174-3.19-3.174s-0.016 1.12-0.016 2.486z"></path>
</svg>
