<!-- Generated by IcoMoon.io -->
<svg version="1.1" xmlns="http://www.w3.org/2000/svg" width="32" height="32" viewBox="0 0 32 32">
<title>download</title>
<path fill="#ff7900" d="M11.488 3.229c-0.278 0.061-0.653 0.224-0.864 0.381-0.573 0.422-0.925 1.008-1.005 1.67-0.010 0.061-0.016 2.672-0.016 5.798l-0.003 5.69-7.174 0.016 0.144 0.144c0.080 0.080 0.595 0.582 1.146 1.12s1.235 1.206 1.526 1.488c0.288 0.282 0.672 0.656 0.854 0.832s0.736 0.717 1.232 1.2c0.496 0.483 1.040 1.014 1.21 1.181 0.474 0.458 2.288 2.224 2.934 2.854 0.317 0.31 0.669 0.656 0.784 0.765s0.49 0.474 0.835 0.813c0.97 0.947 1.040 1.005 1.437 1.216 0.528 0.275 0.957 0.374 1.568 0.358 0.582-0.016 1.066-0.157 1.536-0.448 0.336-0.205 0.349-0.218 2.166-1.99 0.541-0.528 1.078-1.053 1.194-1.165 0.115-0.109 0.669-0.65 1.232-1.2s1.11-1.082 1.216-1.184c0.106-0.099 0.653-0.634 1.216-1.184s1.126-1.098 1.248-1.216c0.125-0.118 0.685-0.666 1.248-1.216s1.117-1.091 1.232-1.2c0.115-0.109 0.429-0.416 0.701-0.682l0.493-0.486-7.178-0.016v-5.69c0-3.722-0.013-5.757-0.032-5.888-0.15-0.925-0.816-1.664-1.744-1.939-0.221-0.067-0.269-0.067-4.544-0.074-4.054-0.006-4.336-0.003-4.592 0.051z"></path>
</svg>
