<!-- Generated by IcoMoon.io -->
<svg version="1.1" xmlns="http://www.w3.org/2000/svg" width="32" height="32" viewBox="0 0 32 32">
<title>draft</title>
<path fill="#ff7900" d="M5.6 15.302c0 14.067-0.013 13.034 0.179 13.43 0.115 0.234 0.454 0.573 0.688 0.688 0.397 0.192-0.342 0.179 10.23 0.179h9.702v-19.2l-2.518-0.003c-1.389 0-2.586-0.010-2.666-0.019-0.467-0.058-1.005-0.262-1.421-0.538-0.445-0.294-0.896-0.842-1.123-1.357-0.109-0.246-0.224-0.659-0.253-0.915-0.006-0.070-0.016-1.261-0.016-2.65l-0.003-2.518h-12.8v12.902zM16.595 12.221c0.086 0.070 0.237 0.214 0.333 0.326 0.096 0.109 0.192 0.214 0.208 0.234 0.051 0.054 0.573 0.698 0.643 0.79 0.282 0.387 1.226 1.581 1.347 1.712 0.464 0.486 1.062 0.813 1.498 0.813 0.758 0 2.061-1.046 3.706-2.976 0.112-0.131 0.099-0.102-0.125 0.336-1.018 1.984-1.974 3.162-2.97 3.648-0.397 0.195-0.63 0.25-1.059 0.25-0.301 0-0.39-0.013-0.608-0.086-0.81-0.275-1.619-1.104-2.48-2.528-0.205-0.336-0.416-0.627-0.499-0.682-0.115-0.074-0.173-0.029-0.266 0.218-0.371 0.986-1.29 3.27-1.466 3.638-0.24 0.506-0.778 0.845-1.306 0.826-0.285-0.013-0.49-0.106-0.71-0.326-0.202-0.202-0.304-0.4-0.618-1.213-0.301-0.774-0.355-0.893-0.416-0.906-0.032-0.003-0.106 0.090-0.208 0.256-0.086 0.147-0.317 0.518-0.509 0.826s-0.374 0.602-0.403 0.656c-0.147 0.256-1.517 2.438-1.552 2.474-0.010 0.010-0.042-0.010-0.074-0.045-0.080-0.086-0.813-0.944-0.864-1.011-0.038-0.048-0.026-0.080 0.093-0.24 0.122-0.163 0.755-1.114 2.032-3.043 0.48-0.726 0.586-0.854 0.883-1.062 0.336-0.237 0.618-0.31 0.896-0.237 0.512 0.131 0.896 0.704 1.258 1.869 0.15 0.474 0.144 0.461 0.157 0.445 0.022-0.029 0.422-0.781 1.133-2.141 1.062-2.035 1.597-2.944 1.731-2.944 0.032 0 0.128 0.058 0.214 0.125z"></path>
<path fill="#ff7900" d="M20 4.918c0.003 1.61 0.016 2.547 0.035 2.65 0.125 0.586 0.589 1.085 1.123 1.2 0.122 0.026 0.89 0.032 2.698 0.026l2.528-0.010-3.178-3.178c-1.744-1.744-3.181-3.174-3.19-3.174s-0.016 1.12-0.016 2.486z"></path>
</svg>
