<!-- Generated by IcoMoon.io -->
<svg version="1.1" xmlns="http://www.w3.org/2000/svg" width="32" height="32" viewBox="0 0 32 32">
<title>dual_sim_packaging</title>
<path fill="#ff7900" d="M0 16v16h32v-32h-32v16zM31.168 16v15.168h-30.336v-30.336h30.336v15.168z"></path>
<path fill="#ff7900" d="M8.333 6.381l-1.667 1.667 0.006 2.8c0.006 3.027-0.003 2.845 0.173 3.194 0.093 0.179 0.355 0.432 0.557 0.528 0.093 0.045 0.259 0.099 0.374 0.118 0.147 0.022 2.387 0.032 7.696 0.026l7.488-0.010 0.176-0.070c0.384-0.157 0.682-0.48 0.8-0.867 0.061-0.198 0.064-0.31 0.064-4.035 0-3.357-0.006-3.853-0.051-4.019-0.115-0.448-0.426-0.771-0.893-0.941-0.109-0.038-1.072-0.045-6.595-0.051l-6.464-0.006-1.664 1.667zM17.331 7.037c0.003 0.701-0.006 0.995-0.032 1.005-0.019 0.006-0.467 0.010-0.995 0.010l-0.96-0.003-0.010-0.656c-0.013-0.816 0.010-0.947 0.202-1.139 0.077-0.077 0.186-0.15 0.246-0.17 0.058-0.016 0.429-0.032 0.826-0.032l0.723-0.003v0.989zM20 7.050v0.998h-0.992c-0.64 0-0.992-0.010-0.995-0.032-0.003-0.016-0.006-0.467-0.010-1.002l-0.003-0.966h2v1.002zM22.294 6.128c0.192 0.096 0.32 0.262 0.352 0.464 0.016 0.080 0.026 0.438 0.022 0.8l-0.003 0.656h-1.978l-0.010-1.002-0.006-0.998h0.73c0.717 0 0.733 0 0.893 0.080zM12.090 10.182l-0.010 1.866h-0.736l-0.006-1.040c-0.006-0.573-0.010-1.117-0.010-1.21v-0.166h-0.928v-0.576h0.112c0.179 0 0.438-0.064 0.579-0.147 0.176-0.099 0.285-0.234 0.355-0.429l0.058-0.16h0.592l-0.006 1.862zM20 11.046v2.33l-0.998-0.006-1.002-0.010v-2.624l-1.338-0.010-1.334-0.006v-0.986c0-0.544 0.006-0.995 0.013-1.002 0.010-0.006 1.059-0.013 2.336-0.016h2.323v2.33zM22.659 8.752c0.003 0.045 0.003 1.843 0 1.91-0.003 0.054-0.074 0.058-0.995 0.058h-0.992v-2.003h0.992c0.659 0 0.992 0.013 0.995 0.035zM17.251 11.389l0.080 0.003v1.984h-0.736c-0.816 0-0.899-0.019-1.082-0.211-0.163-0.176-0.186-0.307-0.186-1.072 0-0.627 0.006-0.698 0.054-0.707 0.045-0.010 1.622-0.006 1.869 0.003zM22.65 11.414c0.013 0.019 0.019 0.355 0.019 0.742-0.003 0.685-0.006 0.714-0.083 0.861-0.045 0.086-0.134 0.189-0.214 0.246l-0.138 0.096-1.562 0.019v-0.992c0-0.63 0.013-0.995 0.032-1.002 0.090-0.029 1.926 0 1.946 0.029z"></path>
<path fill="#ff7900" d="M8.333 19.046l-1.67 1.674 0.010 2.8c0.006 3.062-0.006 2.883 0.192 3.216 0.179 0.307 0.56 0.566 0.912 0.621 0.096 0.013 3.546 0.026 7.664 0.022 7.478-0.006 7.488-0.006 7.664-0.070 0.394-0.147 0.71-0.48 0.832-0.87 0.061-0.198 0.064-0.307 0.064-4.035 0-4.234 0.010-4.035-0.205-4.387-0.131-0.214-0.419-0.454-0.659-0.554l-0.176-0.070-12.96-0.016-1.667 1.67zM17.334 19.712l-0.003 0.992-0.096 0.003c-0.125 0.003-1.85 0.003-1.882 0-0.016-0.003-0.026-0.317-0.026-0.704 0-0.765 0.022-0.896 0.186-1.072 0.182-0.192 0.266-0.211 1.082-0.211h0.739v0.992zM20 19.712v0.992l-0.070 0.003c-0.093 0.003-1.856 0.003-1.898 0-0.022-0.003-0.032-0.355-0.032-0.995v-0.992h2v0.992zM22.371 18.832c0.080 0.058 0.17 0.16 0.214 0.246 0.077 0.147 0.080 0.173 0.080 0.893l0.003 0.742-0.957 0.003c-0.528 0.003-0.979 0-0.998-0.006-0.032-0.010-0.042-0.24-0.042-1.005v-0.989l1.562 0.019 0.138 0.096zM12 20.979c0.531 0.147 0.861 0.627 0.822 1.197-0.032 0.464-0.234 0.739-0.851 1.158-0.458 0.307-0.675 0.477-0.781 0.605l-0.090 0.109 1.747 0.032 0.003 0.31c0.003 0.298 0 0.314-0.064 0.317-0.035 0-0.65 0.003-1.36 0.006-0.976 0.006-1.296-0.003-1.306-0.032-0.032-0.083 0.058-0.48 0.147-0.666 0.16-0.317 0.522-0.646 1.242-1.117 0.394-0.256 0.56-0.496 0.56-0.79-0.003-0.23-0.134-0.438-0.326-0.515-0.138-0.054-0.378-0.035-0.496 0.038-0.176 0.109-0.266 0.294-0.32 0.672l-0.016 0.112h-0.352l-0.352 0.003v-0.163c0-0.352 0.163-0.758 0.4-0.992 0.333-0.326 0.854-0.432 1.392-0.285zM20 23.715v2.333l-0.998-0.006-1.002-0.010v-2.64l-0.176-0.003c-0.096 0-0.698 0-1.334 0h-1.162v-2.006h4.672v2.333zM22.659 21.45c0.010 0.243 0.013 1.869 0.003 1.898-0.006 0.026-0.294 0.038-1.002 0.038h-0.989v-2l0.992-0.003h0.992l0.003 0.067zM17.331 25.050l0.003 0.998h-0.73c-0.643 0-0.742-0.006-0.87-0.061-0.163-0.070-0.317-0.243-0.371-0.416-0.032-0.115-0.054-1.478-0.022-1.51 0.010-0.006 0.458-0.013 1.002-0.013h0.986l0.003 1.002zM22.656 24.086c0.010 0.022 0.013 0.362 0.010 0.758-0.006 0.774-0.013 0.822-0.192 0.998-0.186 0.186-0.278 0.205-1.072 0.205h-0.73l-0.003-0.186c-0.006-0.653 0.003-1.773 0.016-1.792 0.006-0.013 0.451-0.022 0.986-0.022 0.733 0 0.973 0.010 0.986 0.038z"></path>
</svg>
