<!-- Generated by IcoMoon.io -->
<svg version="1.1" xmlns="http://www.w3.org/2000/svg" width="32" height="32" viewBox="0 0 32 32">
<title>easy_internet</title>
<path fill="#ff7900" d="M5.206 6.448c-0.582 0.16-1.053 0.65-1.171 1.226-0.026 0.122-0.035 2.365-0.035 7.846v7.68h24v-7.68c0-5.482-0.010-7.725-0.035-7.846-0.128-0.611-0.653-1.126-1.264-1.238-0.131-0.026-3.312-0.035-10.762-0.032-8.694 0.003-10.608 0.010-10.733 0.045zM26.4 14.8v6.8h-20.8v-13.6h20.8v6.8z"></path>
<path fill="#ff7900" d="M12.064 11.258c-0.336 0.112-0.563 0.307-0.717 0.608-0.272 0.534-0.090 1.216 0.41 1.533 0.605 0.387 1.408 0.173 1.728-0.464 0.099-0.198 0.128-0.33 0.122-0.595-0.010-0.432-0.285-0.832-0.704-1.030-0.237-0.112-0.589-0.134-0.838-0.051z"></path>
<path fill="#ff7900" d="M19.36 11.229c-0.614 0.131-1.034 0.762-0.922 1.386 0.093 0.512 0.541 0.925 1.056 0.976 0.461 0.042 0.883-0.163 1.13-0.55 0.49-0.762-0.029-1.779-0.928-1.824-0.122-0.006-0.275-0.003-0.336 0.013z"></path>
<path fill="#ff7900" d="M10.8 16.010c-0.157 0.051-0.262 0.144-0.333 0.288-0.144 0.301-0.064 0.502 0.358 0.893 0.243 0.227 0.563 0.502 0.822 0.707 0.147 0.118 0.509 0.362 0.816 0.55 1.747 1.082 3.712 1.341 5.552 0.733 0.419-0.141 0.557-0.202 1.053-0.451 0.758-0.39 1.35-0.813 2.154-1.555 0.352-0.323 0.435-0.467 0.397-0.701-0.048-0.298-0.25-0.474-0.538-0.477-0.218-0.003-0.285 0.035-0.669 0.4-1.062 1.002-2.294 1.686-3.392 1.888-0.454 0.083-0.483 0.086-0.877 0.096-1.565 0.042-3.098-0.637-4.547-2.006-0.39-0.368-0.557-0.445-0.797-0.365z"></path>
<path fill="#ff7900" d="M2.4 24.858c0 0.717 0.010 0.886 0.054 1.014 0.067 0.198 0.278 0.41 0.48 0.477 0.134 0.048 1.322 0.051 13.088 0.051h12.941l0.179-0.086c0.096-0.048 0.218-0.138 0.269-0.198 0.173-0.211 0.189-0.317 0.189-1.258v-0.858h-11.194l-0.019 0.118c-0.045 0.262-0.205 0.474-0.467 0.621-0.064 0.035-0.41 0.048-1.853 0.054-2.019 0.010-1.984 0.013-2.23-0.237-0.125-0.131-0.237-0.362-0.237-0.499 0-0.054-0.205-0.058-5.6-0.058h-5.6v0.858z"></path>
</svg>
