<!-- Generated by IcoMoon.io -->
<svg version="1.1" xmlns="http://www.w3.org/2000/svg" width="32" height="32" viewBox="0 0 32 32">
<title>Eco_mode</title>
<path fill="#ff7900" d="M20.602 2.416c-0.006 0.006-0.218 0.019-0.474 0.029-0.256 0.013-0.522 0.029-0.592 0.035s-0.243 0.019-0.384 0.032c-0.515 0.038-0.819 0.070-1.286 0.128-0.461 0.054-0.688 0.086-0.842 0.112-0.096 0.016-0.314 0.051-0.48 0.080-1.469 0.246-2.966 0.653-4.227 1.152-2.992 1.187-5.117 3.018-6.381 5.504-0.387 0.758-0.79 1.885-0.899 2.512-0.010 0.045-0.042 0.23-0.077 0.416-0.086 0.496-0.093 0.534-0.118 0.832-0.032 0.352-0.032 1.635 0 1.984 0.118 1.293 0.506 2.637 1.088 3.776 0.202 0.397 0.595 1.053 0.774 1.296 0.189 0.259 0.416 0.557 0.509 0.669l0.077 0.093 0.278-0.557c0.154-0.307 0.32-0.63 0.368-0.717 0.048-0.090 0.147-0.275 0.224-0.416 0.89-1.658 2.198-3.622 3.424-5.136 0.733-0.906 1.315-1.546 2.253-2.48 1.622-1.616 3.418-3.021 5.267-4.125 0.202-0.122 0.422-0.256 0.486-0.298 0.067-0.038 0.128-0.074 0.134-0.074s0.141-0.074 0.294-0.163c0.56-0.323 2.678-1.341 2.79-1.341 0.013 0-0.163 0.106-0.387 0.237-1.264 0.739-2.742 1.853-3.99 3.011-0.547 0.506-1.533 1.517-2.016 2.061-0.115 0.131-0.224 0.253-0.24 0.272-0.547 0.608-1.587 1.93-2.291 2.918-0.317 0.442-1.235 1.808-1.424 2.115-0.813 1.331-1.283 2.138-1.661 2.842-0.086 0.157-0.237 0.438-0.336 0.624-0.266 0.49-0.915 1.792-1.184 2.368-0.422 0.899-0.48 1.027-0.48 1.040 0 0.006-0.048 0.115-0.109 0.246-0.544 1.181-1.456 3.482-1.542 3.898-0.122 0.579 0.074 1.203 0.515 1.648 1.002 1.011 2.694 0.586 3.117-0.79 0.464-1.501 0.963-2.976 1.312-3.872l0.032-0.086 0.138 0.048c0.17 0.061 0.845 0.23 1.082 0.272 0.422 0.074 0.835 0.128 1.104 0.15 0.563 0.045 1.862 0.019 2.186-0.038 0.029-0.006 0.134-0.022 0.23-0.035s0.205-0.029 0.24-0.035c0.035-0.006 0.15-0.029 0.256-0.045 0.291-0.051 1.014-0.246 1.392-0.374 2.195-0.739 4.115-2.234 5.462-4.25 1.299-1.946 2.23-4.602 2.65-7.539 0.080-0.582 0.093-0.659 0.128-0.973 0.010-0.090 0.022-0.208 0.032-0.266 0.006-0.054 0.022-0.227 0.032-0.384 0.013-0.154 0.029-0.304 0.035-0.336 0.003-0.029 0.019-0.23 0.029-0.448 0.013-0.214 0.029-0.454 0.038-0.534s0.022-1.712 0.032-3.626l0.016-3.482-3.299 0.006c-1.811 0.003-3.299 0.010-3.306 0.013z"></path>
</svg>
