<!-- Generated by IcoMoon.io -->
<svg version="1.1" xmlns="http://www.w3.org/2000/svg" width="32" height="32" viewBox="0 0 32 32">
<title>edashboard</title>
<path fill="#ff7900" d="M15.638 2.419c-0.003 0.003-0.198 0.016-0.432 0.026-0.496 0.026-0.544 0.032-1.158 0.118-2.314 0.323-4.672 1.341-6.48 2.797-1.779 1.43-3.19 3.27-4.032 5.248-0.080 0.192-0.16 0.381-0.176 0.416-0.246 0.557-0.624 1.914-0.736 2.624-0.054 0.342-0.064 0.413-0.080 0.464-0.006 0.026-0.022 0.163-0.035 0.304-0.010 0.141-0.026 0.262-0.029 0.272-0.022 0.038-0.061 0.928-0.058 1.392 0.003 0.474 0.029 1.075 0.058 1.264 0.006 0.045 0.019 0.173 0.032 0.288 0.058 0.57 0.25 1.53 0.429 2.144 1.005 3.437 3.28 6.317 6.387 8.080 3.302 1.878 7.322 2.272 10.944 1.078 1.242-0.41 2.47-1.027 3.536-1.773 2.867-2.016 4.845-5.027 5.536-8.442 0.182-0.896 0.266-1.731 0.262-2.688 0-0.81-0.019-1.11-0.118-1.856-0.301-2.266-1.197-4.454-2.57-6.288-1.293-1.722-2.944-3.098-4.89-4.074-0.307-0.154-0.413-0.202-0.992-0.438-1.229-0.506-2.746-0.842-4.173-0.931-0.31-0.019-1.21-0.038-1.226-0.026zM24.259 8.080c0.192 0.067 0.333 0.186 0.435 0.362l0.090 0.15 0.006 3.712 0.010 3.712-1.43-1.434-1.427-1.437-6.374 6.374-3.2-3.2-2.88 2.88c-2.611 2.614-2.883 2.877-2.922 2.826-0.198-0.266-0.691-1.21-0.915-1.76-0.17-0.413-0.403-1.114-0.413-1.235-0.006-0.074 0.397-0.49 3.104-3.197 1.712-1.712 3.318-3.322 3.574-3.574l0.461-0.461 1.587 1.59c0.874 0.874 1.6 1.587 1.613 1.587s0.941-0.922 2.064-2.045l2.045-2.045-1.411-1.408c-0.778-0.774-1.411-1.418-1.411-1.427s1.632-0.019 3.629-0.019c3.162 0 3.645 0.006 3.766 0.048zM24.8 20.384v2.566l-0.214 0.262c-0.493 0.598-1.037 1.123-1.754 1.693-0.051 0.042-0.173 0.131-0.262 0.195l-0.17 0.122v-9.814l2.4 2.413v2.563zM20 21.709v4.778l-0.438 0.147c-0.467 0.157-0.819 0.256-1.082 0.31-0.278 0.054-0.829 0.16-0.848 0.16-0.010 0-0.022-1.754-0.026-3.898l-0.010-3.894 1.178-1.19c0.646-0.653 1.187-1.19 1.203-1.19 0.013-0.003 0.022 2.147 0.022 4.778zM14.016 19.776l1.184 1.187-0.006 3.11c-0.006 2.051-0.019 3.11-0.042 3.107-0.016-0.003-0.141-0.016-0.272-0.026-0.598-0.054-1.302-0.186-1.846-0.346l-0.234-0.067v-4.074c0-2.243 0.006-4.077 0.016-4.077s0.55 0.534 1.2 1.184zM10.387 25.686c-0.022 0.026-0.714-0.426-1.091-0.71-0.33-0.246-0.723-0.586-1.126-0.966l-0.17-0.16v-1.35l1.194-1.194 1.19-1.194 0.010 2.781c0.003 1.53 0 2.787-0.006 2.794z"></path>
</svg>
