<!-- Generated by IcoMoon.io -->
<svg version="1.1" xmlns="http://www.w3.org/2000/svg" width="32" height="32" viewBox="0 0 32 32">
<title>edit_image</title>
<path fill="#ff7900" d="M4.81 13.414c0.006 9.299 0.013 10.23 0.058 10.378 0.154 0.474 0.352 0.813 0.64 1.101 0.317 0.314 0.605 0.48 1.133 0.65 0.099 0.032 0.95 0.045 3.875 0.058l3.75 0.016-0.176 0.32c-0.096 0.176-0.24 0.442-0.32 0.592s-0.272 0.502-0.426 0.784c-0.154 0.282-0.486 0.893-0.736 1.36-0.253 0.467-0.496 0.918-0.544 1.008-0.266 0.49-0.448 0.842-0.448 0.864 0 0.013 0.019 0.010 0.042-0.006 0.019-0.019 0.371-0.202 0.774-0.41 0.406-0.208 0.838-0.429 0.96-0.496 0.125-0.067 0.512-0.266 0.864-0.448 0.352-0.179 0.8-0.41 0.992-0.512 0.195-0.102 0.634-0.33 0.976-0.506 1.424-0.733 1.152-0.534 2.237-1.613l0.963-0.954h7.776v-7.779l0.275-0.278c0.154-0.154 0.307-0.33 0.349-0.39 0.16-0.256 0.218-0.595 0.141-0.88-0.064-0.246-0.176-0.419-0.467-0.723l-0.298-0.307v-4.941c-0.003-5.421 0.006-5.165-0.192-5.635-0.282-0.662-0.861-1.168-1.587-1.392-0.179-0.054-0.656-0.058-10.406-0.064l-10.214-0.010 0.010 10.214zM24.902 4.918c0.262 0.125 0.454 0.317 0.582 0.586l0.099 0.208 0.010 4.077 0.006 4.074-1.059 1.059-1.062 1.056-0.115-0.125c-0.125-0.138-0.221-0.246-0.563-0.637-0.122-0.141-0.23-0.262-0.24-0.272s-0.118-0.131-0.24-0.272c-0.125-0.141-0.269-0.304-0.323-0.368-0.102-0.112-2.288-2.598-2.57-2.918-0.093-0.109-0.256-0.186-0.387-0.186-0.214 0-0.144-0.070-1.76 1.808-0.864 1.005-1.005 1.171-1.136 1.325-0.051 0.064-0.112 0.128-0.131 0.147-0.019 0.016-0.205 0.234-0.416 0.48-0.208 0.246-0.435 0.512-0.509 0.592-0.070 0.080-0.163 0.189-0.208 0.243-0.333 0.39-0.637 0.749-0.714 0.829-0.090 0.093-0.093 0.096-0.134 0.032-0.026-0.035-0.611-0.854-1.302-1.824-1.216-1.699-1.264-1.76-1.408-1.821-0.128-0.054-0.17-0.058-0.275-0.026-0.157 0.048-0.211 0.099-0.806 0.774-0.115 0.128-0.224 0.25-0.24 0.269-0.019 0.019-0.227 0.25-0.461 0.515-0.234 0.262-0.531 0.595-0.659 0.736-0.125 0.141-0.576 0.646-0.998 1.12-0.422 0.477-0.79 0.883-0.819 0.906-0.038 0.035-0.077 0.013-0.227-0.141-0.214-0.218-0.317-0.39-0.384-0.662-0.045-0.182-0.051-0.797-0.051-5.952v-5.75l18.288 0.016 0.214 0.102zM27.184 16.445c0.042 0.195 0 0.262-0.544 0.803l-0.528 0.528-0.646-0.64c-0.358-0.352-0.73-0.723-0.822-0.826l-0.176-0.186 1.238-1.238 0.726 0.73c0.538 0.538 0.736 0.755 0.752 0.829zM24.557 17.344c0.781 0.758 0.813 0.794 0.835 0.934 0.016 0.093 0.006 0.147-0.045 0.224-0.035 0.058-1.926 1.965-4.202 4.24-3.914 3.91-4.15 4.138-4.362 4.24-0.122 0.061-0.467 0.237-0.768 0.394-0.534 0.275-1.046 0.538-1.974 1.021-0.262 0.134-0.483 0.243-0.493 0.243-0.016 0 0.109-0.243 0.387-0.752 0.038-0.070 0.205-0.381 0.371-0.688 0.163-0.307 0.474-0.88 0.685-1.274l0.384-0.714 4.256-4.253c4.138-4.138 4.256-4.253 4.317-4.198 0.035 0.029 0.31 0.291 0.608 0.582z"></path>
<path fill="#ff7900" d="M10.358 7.248c-0.102 0.022-0.31 0.102-0.461 0.176-0.474 0.234-0.838 0.669-1.021 1.216-0.090 0.266-0.083 0.838 0.010 1.136 0.198 0.624 0.707 1.136 1.331 1.334 0.262 0.083 0.739 0.102 1.014 0.042 0.698-0.16 1.283-0.71 1.491-1.408 0.086-0.288 0.080-0.861-0.016-1.136-0.349-1.008-1.341-1.581-2.349-1.36z"></path>
</svg>
