<!-- Generated by IcoMoon.io -->
<svg version="1.1" xmlns="http://www.w3.org/2000/svg" width="32" height="32" viewBox="0 0 32 32">
<title>edit_email</title>
<path fill="#ff7900" d="M3.2 14.294c0 5.67 0.013 8.774 0.032 8.922 0.099 0.678 0.509 1.376 1.062 1.798 0.374 0.288 0.928 0.515 1.37 0.566 0.096 0.010 2.506 0.019 5.354 0.019h5.181l-0.144 0.262c-0.176 0.33-0.314 0.586-0.87 1.642-0.474 0.896-0.515 0.973-0.998 1.872-0.176 0.326-0.374 0.691-0.438 0.81l-0.118 0.221 0.426-0.224c0.234-0.122 0.701-0.362 1.034-0.534 0.336-0.173 0.781-0.403 0.992-0.512s0.672-0.349 1.024-0.531c0.352-0.179 0.886-0.454 1.184-0.611 0.301-0.154 0.694-0.355 0.88-0.448l0.336-0.17 0.89-0.89 0.89-0.886h3.046c1.677 0.003 3.366 0.003 3.76 0h0.71v-7.52l0.48-0.47c0.266-0.259 0.522-0.534 0.576-0.614 0.211-0.333 0.234-0.742 0.061-1.12-0.077-0.17-0.176-0.288-0.605-0.714l-0.512-0.509v-3.286c-0.003-3.568 0-3.514-0.182-3.987-0.285-0.755-0.947-1.379-1.722-1.629-0.483-0.157 0.16-0.15-12.182-0.15h-11.514v8.694zM26.4 10.224v1.389l-0.074 0.074c-0.077 0.074-0.211 0.202-1.558 1.498-0.413 0.397-0.909 0.874-1.104 1.059-0.192 0.189-0.445 0.432-0.56 0.541s-0.48 0.461-0.813 0.781c-0.33 0.317-0.675 0.65-0.768 0.736-0.090 0.086-0.48 0.461-0.867 0.835s-0.861 0.829-1.053 1.011c-0.189 0.182-0.47 0.451-0.624 0.598-0.688 0.666-1.293 0.995-2.15 1.178-0.384 0.080-1.315 0.083-1.693 0.003-0.544-0.115-1.046-0.323-1.443-0.589-0.368-0.253-0.525-0.397-2.173-1.994-0.467-0.454-0.928-0.899-1.024-0.992-0.141-0.134-1.226-1.184-2.048-1.984-0.080-0.080-0.544-0.525-1.024-0.992-0.483-0.467-1.091-1.056-1.35-1.312l-0.477-0.464 0.019-2.739 0.531 0.522c0.294 0.288 1.069 1.046 1.725 1.69 0.653 0.643 1.306 1.28 1.45 1.421 0.144 0.138 0.717 0.694 1.27 1.235 0.554 0.544 1.139 1.114 1.302 1.27 0.16 0.154 0.694 0.675 1.187 1.155 1.152 1.123 1.229 1.194 1.434 1.318 0.435 0.262 0.842 0.365 1.469 0.362 0.39 0 0.486-0.013 0.73-0.086 0.486-0.144 0.835-0.355 1.21-0.723 0.166-0.163 0.963-0.934 1.677-1.629 0.995-0.97 2.24-2.173 2.544-2.467 0.173-0.166 0.656-0.637 1.072-1.040 0.419-0.406 0.88-0.851 1.024-0.992 0.589-0.566 1.952-1.894 2.029-1.974 0.045-0.048 0.093-0.086 0.109-0.090 0.013 0 0.022 0.627 0.022 1.392zM29.206 16.234c0.099 0.195 0.051 0.275-0.522 0.848l-0.525 0.531-0.099-0.096c-0.054-0.051-0.429-0.422-0.832-0.826l-0.73-0.73 0.621-0.621 0.624-0.618 0.707 0.71c0.387 0.39 0.726 0.749 0.755 0.8zM26.352 16.944c1.005 0.96 1.12 1.101 1.082 1.312-0.013 0.061-1.197 1.264-4.198 4.266l-4.182 4.182-0.464 0.237c-0.253 0.131-0.646 0.333-0.877 0.451-0.63 0.326-1.37 0.707-1.757 0.909-0.192 0.099-0.352 0.176-0.358 0.17-0.010-0.006 0.163-0.342 0.381-0.746s0.486-0.906 0.598-1.117c0.109-0.211 0.211-0.4 0.224-0.416 0.013-0.019 0.099-0.176 0.192-0.352 0.451-0.861 0.003-0.374 4.685-5.050l4.256-4.25 0.144 0.138c0.077 0.077 0.202 0.195 0.275 0.266z"></path>
</svg>
