<!-- Generated by IcoMoon.io -->
<svg version="1.1" xmlns="http://www.w3.org/2000/svg" width="32" height="32" viewBox="0 0 32 32">
<title>Elderly_person</title>
<path fill="#ff7900" d="M15.312 2.445c-1.29 0.205-2.403 0.938-3.098 2.045-0.454 0.72-0.666 1.507-0.65 2.406 0.006 0.294 0.032 0.579 0.064 0.736 0.374 1.77 1.661 3.078 3.424 3.475 0.339 0.077 1.12 0.106 1.475 0.058 1.395-0.195 2.634-1.050 3.29-2.269 0.381-0.71 0.538-1.373 0.518-2.208-0.016-0.685-0.131-1.181-0.416-1.782-0.486-1.037-1.478-1.914-2.573-2.282-0.576-0.192-1.456-0.269-2.035-0.179z"></path>
<path fill="#ff7900" d="M19.869 10.938c-0.026 0.006-0.096 0.061-0.157 0.118-0.291 0.269-0.877 0.659-1.286 0.858-0.525 0.25-1.12 0.429-1.722 0.515-0.416 0.061-1.306 0.045-1.696-0.026-1.069-0.198-1.978-0.627-2.749-1.293l-0.202-0.179-0.147 0.080c-0.682 0.358-1.44 1.043-1.859 1.674-0.352 0.531-0.618 1.123-0.752 1.683s-0.144 0.742-0.138 2.64c0.010 1.754 0.013 1.834 0.077 2.035 0.141 0.445 0.301 0.72 0.598 1.027 0.406 0.416 0.906 0.656 1.501 0.717l0.214 0.022v3.674c0 2.528 0.010 3.728 0.035 3.843 0.118 0.582 0.589 1.069 1.184 1.226 0.259 0.070 6.106 0.070 6.362 0.003 0.528-0.144 0.938-0.515 1.133-1.034l0.070-0.186 0.016-5.962 0.016-5.958 0.918 1.837c0.973 1.939 1.030 2.038 1.36 2.266 0.458 0.314 1.088 0.362 1.597 0.122 0.106-0.051 0.288-0.179 0.403-0.288l0.211-0.192 0.083 0.099c0.211 0.25 0.195-0.166 0.205 4.819l0.006 4.522h0.8v-4.48c0-3.146-0.010-4.528-0.035-4.646-0.077-0.368-0.368-0.81-0.65-0.986-0.106-0.064-0.106-0.070-0.125-0.342-0.010-0.157-0.045-0.362-0.080-0.458s-0.816-1.68-1.734-3.517l-1.67-3.341-0.246-0.243c-0.259-0.259-0.493-0.413-0.774-0.518-0.186-0.067-0.691-0.154-0.768-0.131z"></path>
</svg>
