<!-- Generated by IcoMoon.io -->
<svg version="1.1" xmlns="http://www.w3.org/2000/svg" width="32" height="32" viewBox="0 0 32 32">
<title>electric_car_charging</title>
<path fill="#ff7900" d="M14.128 2.422c-0.429 0.061-0.963 0.262-1.338 0.509-0.573 0.381-1.062 1.014-1.27 1.651l-0.070 0.218-3.363 0.003c-1.853 0-3.408 0.006-3.462 0.016-0.829 0.112-1.469 0.416-2.010 0.95-0.544 0.538-0.883 1.219-0.982 1.974-0.026 0.192-0.032 1.722-0.022 5.232 0.010 5.382 0 5.043 0.179 5.565 0.218 0.621 0.688 1.248 1.219 1.626 0.214 0.154 0.589 0.352 0.794 0.422l0.118 0.042 0.019 1.037c0.019 1.098 0.026 1.146 0.189 1.469 0.17 0.336 0.458 0.592 0.864 0.768 0.176 0.077 0.179 0.077 1.574 0.090l1.395 0.010 0.038 0.166c0.243 1.066 0.992 1.85 2.038 2.138 0.269 0.074 0.912 0.102 1.194 0.051 0.586-0.106 1.181-0.438 1.59-0.886 0.304-0.333 0.57-0.854 0.65-1.274l0.042-0.198h3.626c3.424 0 3.626 0.003 3.642 0.054 0.006 0.032 0.022 0.109 0.035 0.17 0.15 0.803 0.819 1.603 1.626 1.949 1.251 0.538 2.71 0.083 3.459-1.075 0.173-0.266 0.317-0.614 0.374-0.896l0.042-0.198 1.424-0.010 1.427-0.013 0.198-0.083c0.531-0.224 0.899-0.662 1.002-1.194 0.026-0.134 0.032-0.842 0.026-2.416l-0.010-2.224-0.077-0.192c-0.17-0.426-0.426-0.704-0.819-0.896-0.202-0.096-0.554-0.179-1.36-0.323-0.045-0.010-0.23-0.045-0.416-0.080s-0.48-0.093-0.656-0.125c-0.176-0.035-0.666-0.125-1.085-0.205-0.422-0.080-0.774-0.157-0.784-0.17-0.016-0.019-0.451-0.422-0.79-0.73-0.019-0.019-0.198-0.182-0.4-0.368-0.198-0.186-0.464-0.429-0.589-0.544-0.122-0.112-0.24-0.221-0.259-0.24-0.019-0.016-0.192-0.176-0.384-0.352s-0.458-0.422-0.589-0.544c-0.461-0.426-0.934-0.861-1.002-0.922-0.038-0.032-0.157-0.141-0.262-0.24-0.278-0.262-1.117-1.040-1.421-1.312-0.064-0.058-0.202-0.154-0.307-0.214-0.39-0.221-0.154-0.211-4.922-0.202l-4.294 0.010-0.176 0.077c-0.403 0.179-0.467 0.243-1.67 1.648-0.634 0.742-1.19 1.389-1.238 1.443-0.067 0.080-0.598 0.701-0.886 1.040-0.038 0.045-0.176 0.205-0.304 0.355-0.131 0.15-0.304 0.352-0.384 0.448-0.314 0.365-0.806 0.944-0.874 1.021-0.192 0.221-0.339 0.451-0.406 0.64-0.064 0.189-0.074 0.285-0.090 0.992l-0.019 0.784-0.144-0.134c-0.205-0.186-0.374-0.445-0.474-0.72l-0.086-0.234-0.006-4.912c-0.010-5.424-0.022-5.056 0.192-5.504 0.134-0.282 0.477-0.624 0.762-0.762 0.413-0.202 0.32-0.198 3.971-0.198h3.315l0.058 0.166c0.349 1.059 1.171 1.837 2.25 2.131l0.307 0.083 1.702 0.013c1.843 0.010 1.837 0.013 1.936-0.163 0.026-0.042 0.048-0.237 0.058-0.483l0.016-0.416 1.392-0.003c1.555 0 1.507 0.006 1.686-0.23 0.074-0.096 0.090-0.144 0.086-0.304-0.003-0.157-0.016-0.205-0.099-0.307-0.176-0.218-0.131-0.211-1.674-0.214l-1.392-0.003-0.010-1.062c-0.006-0.995-0.003-1.062 0.048-1.066 0.032 0 0.662-0.006 1.402-0.006 1.181-0.006 1.357-0.013 1.44-0.061 0.301-0.163 0.387-0.525 0.189-0.787-0.166-0.218-0.134-0.211-1.677-0.214l-1.392-0.003-0.016-0.416c-0.010-0.246-0.032-0.442-0.058-0.483-0.096-0.17-0.099-0.17-1.853-0.166-0.893 0.003-1.667 0.013-1.722 0.019zM15.984 3.526c-0.010 0.022-0.115 0.4-0.24 0.842-0.125 0.438-0.234 0.819-0.24 0.842-0.010 0.029 0.115 0.038 0.576 0.035 0.326-0.003 0.592 0.006 0.589 0.022-0.003 0.035-2.058 2.442-2.070 2.429-0.010-0.010 0.368-1.357 0.442-1.571 0.058-0.176 0.074-0.17-0.563-0.179l-0.595-0.010 0.314-0.368c0.173-0.202 0.33-0.384 0.349-0.403 0.016-0.019 0.349-0.403 0.733-0.854 0.387-0.454 0.707-0.822 0.714-0.822 0.003 0 0 0.019-0.006 0.038zM13.92 14v2h-6.822l0.154-0.182c0.086-0.102 0.416-0.48 0.73-0.842 0.317-0.362 0.65-0.742 0.742-0.848 0.090-0.106 0.483-0.557 0.87-0.998 0.387-0.445 0.768-0.88 0.842-0.97l0.134-0.16h3.35v2zM18.448 12.090c0.086 0.077 1.082 0.986 1.904 1.731 0.166 0.15 0.483 0.442 0.704 0.643s0.544 0.496 0.72 0.656c0.358 0.323 0.605 0.547 0.816 0.746l0.144 0.134h-7.216v-4h2.832l0.096 0.090z"></path>
</svg>
