<!-- Generated by IcoMoon.io -->
<svg version="1.1" xmlns="http://www.w3.org/2000/svg" width="32" height="32" viewBox="0 0 32 32">
<title>electric_car</title>
<path fill="#ff7900" d="M7.626 8.045c-0.234 0.058-0.49 0.189-0.669 0.349-0.090 0.080-1.158 1.478-2.621 3.43-1.354 1.811-2.486 3.331-2.515 3.376s-0.086 0.166-0.128 0.272l-0.077 0.192-0.010 3.072c-0.006 2.698 0 3.098 0.042 3.248 0.173 0.605 0.646 1.059 1.226 1.181 0.109 0.022 0.637 0.035 1.446 0.035h1.28l0.003 0.134c0.006 0.387 0.131 0.877 0.336 1.293 0.304 0.624 0.902 1.197 1.565 1.501 0.662 0.301 1.59 0.346 2.298 0.109 1.213-0.406 2.083-1.507 2.186-2.768l0.022-0.269h7.99l0.003 0.118c0 0.067 0.006 0.144 0.010 0.17 0.006 0.026 0.019 0.128 0.032 0.224 0.093 0.742 0.576 1.546 1.219 2.032 1.098 0.826 2.582 0.87 3.712 0.112 0.797-0.534 1.302-1.379 1.402-2.346l0.032-0.31h1.274c0.806 0 1.334-0.013 1.443-0.035 0.611-0.128 1.123-0.65 1.242-1.261 0.026-0.138 0.032-0.944 0.026-2.816l-0.010-2.624-0.077-0.192c-0.25-0.624-0.73-0.979-1.459-1.082-0.102-0.016-0.864-0.16-1.104-0.211-0.080-0.019-0.541-0.106-1.024-0.195s-0.938-0.176-1.008-0.192c-0.070-0.016-0.208-0.045-0.307-0.061-0.186-0.032-0.24-0.077-0.701-0.579-0.058-0.061-0.205-0.221-0.333-0.352-0.342-0.365-1.117-1.187-1.216-1.296-0.051-0.054-0.288-0.304-0.528-0.56-0.243-0.256-0.48-0.509-0.528-0.56-0.048-0.054-0.192-0.205-0.317-0.336s-0.342-0.362-0.48-0.512c-0.141-0.15-0.358-0.381-0.486-0.512-0.125-0.131-0.458-0.486-0.736-0.784-0.63-0.669-0.659-0.698-0.896-0.832-0.387-0.221-0.032-0.208-6-0.205-4.198 0.003-5.427 0.010-5.558 0.042zM15.827 11.763c-0.678 2.266-0.666 2.224-0.646 2.246 0.010 0.010 0.55 0.016 1.203 0.016 0.733 0 1.184 0.010 1.178 0.029-0.016 0.045-4.71 5.91-4.723 5.901-0.003-0.006 0.067-0.298 0.157-0.646 0.093-0.349 0.176-0.688 0.189-0.749 0.016-0.061 0.099-0.4 0.189-0.752 0.202-0.771 0.48-1.869 0.496-1.939 0.010-0.048-0.090-0.051-1.091-0.051-0.605 0-1.107-0.006-1.114-0.016-0.013-0.013 0.723-0.957 1.181-1.514 0.154-0.189 2.938-3.664 3.011-3.763 0.208-0.272 0.509-0.637 0.518-0.627 0.003 0.006-0.24 0.845-0.547 1.866z"></path>
</svg>
