<!-- Generated by IcoMoon.io -->
<svg version="1.1" xmlns="http://www.w3.org/2000/svg" width="32" height="32" viewBox="0 0 32 32">
<title>electricity_provider</title>
<path fill="#ff7900" d="M15.386 2.416c-0.006 0.003-0.17 0.016-0.365 0.029-0.192 0.013-0.387 0.026-0.432 0.032-0.042 0.010-0.163 0.022-0.269 0.035-0.397 0.045-1.136 0.182-1.626 0.304-1.478 0.371-2.883 0.986-4.15 1.818-0.31 0.205-1.133 0.806-1.184 0.867-0.010 0.013-0.154 0.138-0.32 0.282-0.378 0.323-1.088 1.046-1.427 1.45-1.869 2.234-2.954 4.88-3.174 7.744-0.029 0.4-0.029 1.69 0.003 2.096 0.278 3.661 2.086 7.123 4.925 9.437 1.091 0.89 2.272 1.594 3.546 2.118 0.442 0.179 0.765 0.221 1.040 0.125 0.71-0.237 1.040-1.011 0.72-1.67-0.157-0.317-0.358-0.477-0.883-0.694-1.478-0.614-2.685-1.424-3.786-2.544-1.194-1.216-2.083-2.666-2.624-4.275-0.227-0.678-0.41-1.462-0.47-2.016-0.006-0.090-0.022-0.192-0.029-0.227-0.086-0.416-0.086-2.099 0.003-2.701 0.205-1.408 0.525-2.464 1.082-3.584 1.104-2.208 2.826-3.936 5.014-5.037 1.203-0.605 2.294-0.934 3.725-1.123 0.605-0.080 1.907-0.080 2.56 0 1.43 0.173 2.65 0.547 3.904 1.197 2.614 1.357 4.586 3.69 5.501 6.515 0.192 0.602 0.394 1.504 0.448 2.048 0.013 0.106 0.029 0.256 0.038 0.336 0.032 0.256 0.038 1.638 0.013 1.904-0.016 0.141-0.035 0.342-0.048 0.448-0.131 1.338-0.659 2.954-1.382 4.221-1.555 2.726-4.272 4.733-7.296 5.392-0.461 0.099-0.723 0.042-0.954-0.214-0.214-0.23-0.208-0.163-0.202-2.944l0.010-2.506 0.24-0.080c0.717-0.24 1.421-0.694 1.936-1.245 0.778-0.829 1.242-1.885 1.315-2.986l0.022-0.326h-9.619l0.022 0.31c0.077 1.072 0.451 1.99 1.142 2.81 0.608 0.723 1.418 1.245 2.342 1.504l0.182 0.051 0.003 2.55c0 1.402 0.010 2.621 0.019 2.71 0.029 0.288 0.166 0.749 0.31 1.034 0.573 1.142 1.709 1.824 2.963 1.782 0.349-0.010 0.534-0.042 1.203-0.211 2.95-0.749 5.632-2.534 7.466-4.973 1.037-1.376 1.718-2.746 2.253-4.522 0.173-0.563 0.358-1.59 0.454-2.47 0.032-0.301 0.042-1.888 0.013-2.208-0.042-0.483-0.096-0.931-0.128-1.104-0.128-0.707-0.208-1.078-0.301-1.424-1.085-4.035-4.006-7.386-7.85-9.005-1.19-0.499-2.554-0.854-3.75-0.976-0.186-0.019-0.416-0.045-0.512-0.054-0.17-0.019-1.619-0.045-1.638-0.029z"></path>
<path fill="#ff7900" d="M13.338 9.498c-0.083 0.029-0.218 0.115-0.294 0.192-0.246 0.24-0.243 0.208-0.243 2.093v1.658l-0.438 0.003c-0.243 0-0.467 0.006-0.496 0.013-0.253 0.048-0.47 0.218-0.586 0.448-0.058 0.115-0.064 0.208-0.074 1.030l-0.010 0.906h9.606l-0.010-0.906c-0.010-0.81-0.016-0.915-0.070-1.024-0.118-0.24-0.358-0.422-0.592-0.454-0.045-0.006-0.275-0.013-0.506-0.013l-0.426-0.003v-1.642c0-1.853 0-1.869-0.221-2.093-0.182-0.182-0.33-0.246-0.579-0.243-0.259 0.003-0.406 0.067-0.576 0.24-0.224 0.234-0.224 0.24-0.224 2.096v1.642h-3.197l-0.019-3.45-0.122-0.173c-0.214-0.314-0.592-0.445-0.925-0.32z"></path>
</svg>
