<!-- Generated by IcoMoon.io -->
<svg version="1.1" xmlns="http://www.w3.org/2000/svg" width="32" height="32" viewBox="0 0 32 32">
<title>elevator</title>
<path fill="#ff7900" d="M15.712 1.648c-0.166 0.054-0.192 0.074-1.728 1.36l-1.165 0.976 1.59 0.010c0.874 0.003 2.307 0.003 3.181 0l1.594-0.010-0.48-0.4c-0.266-0.218-0.515-0.429-0.56-0.467-0.086-0.077-1.28-1.072-1.488-1.245-0.070-0.058-0.186-0.138-0.253-0.176-0.163-0.090-0.493-0.112-0.691-0.048z"></path>
<path fill="#ff7900" d="M3.616 4.851c-0.298 0.080-0.518 0.205-0.739 0.426-0.224 0.227-0.349 0.442-0.429 0.755-0.042 0.17-0.048 1.286-0.048 9.984 0 8.374 0.006 9.818 0.048 9.965 0.157 0.589 0.65 1.066 1.226 1.184 0.122 0.026 3.654 0.035 12.352 0.035 13.277 0 12.31 0.013 12.707-0.179 0.234-0.115 0.573-0.454 0.685-0.685 0.195-0.41 0.182 0.368 0.182-10.323 0-6.221-0.013-9.824-0.032-9.93-0.080-0.422-0.454-0.918-0.832-1.101-0.41-0.198 0.608-0.182-12.752-0.179-10.582 0-12.214 0.006-12.368 0.048zM28 16v9.6h-24v-19.2h24v9.6z"></path>
<path fill="#ff7900" d="M8.307 8.051c-0.97 0.218-1.715 0.995-1.872 1.955-0.048 0.285-0.019 0.758 0.058 1.040 0.234 0.829 0.902 1.478 1.738 1.683 0.282 0.070 0.733 0.083 1.011 0.026 0.931-0.189 1.61-0.819 1.878-1.747 0.083-0.288 0.086-0.922 0.003-1.216-0.202-0.704-0.72-1.315-1.35-1.584-0.432-0.186-1.043-0.253-1.466-0.157z"></path>
<path fill="#ff7900" d="M15.664 8.022c-0.678 0.099-1.293 0.493-1.67 1.072-0.182 0.282-0.259 0.464-0.333 0.794-0.291 1.309 0.547 2.589 1.875 2.864 0.861 0.176 1.766-0.154 2.349-0.861 0.208-0.256 0.429-0.746 0.477-1.075 0.038-0.256 0.019-0.806-0.038-1.018-0.234-0.88-0.954-1.565-1.827-1.744-0.218-0.045-0.64-0.061-0.832-0.032z"></path>
<path fill="#ff7900" d="M22.803 8.032c-1.354 0.246-2.234 1.546-1.942 2.864 0.035 0.16 0.099 0.371 0.147 0.477 0.291 0.656 0.893 1.165 1.597 1.35 0.262 0.070 0.781 0.083 1.059 0.029 0.928-0.179 1.683-0.928 1.891-1.862 0.042-0.198 0.038-0.765-0.010-0.982-0.186-0.88-0.864-1.59-1.734-1.827-0.218-0.061-0.794-0.086-1.008-0.048z"></path>
<path fill="#ff7900" d="M7.008 13.35c-0.698 0.464-1.245 1.325-1.373 2.154-0.045 0.294-0.045 3.050 0 3.238 0.141 0.586 0.602 1.056 1.184 1.21 0.096 0.026 0.221 0.048 0.278 0.048h0.102v1.642c0 1.875 0 1.882 0.237 2.115 0.227 0.23 0.307 0.243 1.363 0.243 1.062 0 1.139-0.013 1.366-0.246 0.234-0.243 0.234-0.24 0.234-2.112v-1.642h0.106c0.483-0.003 1.101-0.416 1.328-0.896 0.163-0.342 0.173-0.48 0.157-2.131-0.013-1.411-0.016-1.514-0.080-1.741-0.125-0.438-0.326-0.864-0.557-1.165-0.16-0.211-0.528-0.554-0.755-0.707-0.214-0.144-0.288-0.17-0.342-0.115-0.054 0.051-0.438 0.195-0.704 0.262-0.381 0.099-0.97 0.109-1.363 0.029-0.317-0.067-0.694-0.192-0.81-0.272-0.099-0.074-0.154-0.061-0.371 0.086z"></path>
<path fill="#ff7900" d="M14.301 13.29c-0.733 0.454-1.254 1.21-1.434 2.077-0.054 0.266-0.061 0.448-0.064 1.722-0.003 0.918 0.010 1.491 0.032 1.616 0.074 0.406 0.349 0.816 0.701 1.040 0.182 0.118 0.589 0.256 0.752 0.256h0.112v1.658c0 1.818 0 1.827 0.189 2.058 0.051 0.061 0.163 0.147 0.246 0.189 0.154 0.080 0.154 0.080 1.162 0.080h1.011l0.16-0.083c0.179-0.093 0.349-0.291 0.4-0.47 0.019-0.074 0.032-0.73 0.032-1.77v-1.648l0.243-0.038c0.65-0.102 1.19-0.614 1.322-1.251 0.054-0.256 0.045-2.918-0.013-3.251-0.131-0.794-0.576-1.533-1.213-2.013-0.349-0.262-0.362-0.266-0.576-0.166-0.63 0.288-1.325 0.374-1.962 0.246-0.294-0.061-0.784-0.23-0.854-0.294-0.051-0.045-0.122-0.032-0.246 0.045z"></path>
<path fill="#ff7900" d="M21.504 13.29c-0.742 0.464-1.267 1.229-1.44 2.086-0.048 0.25-0.058 0.48-0.061 1.712-0.003 0.915 0.010 1.491 0.032 1.616 0.109 0.595 0.582 1.088 1.19 1.248 0.102 0.026 0.227 0.048 0.278 0.048h0.096v1.661c0 1.798 0 1.808 0.179 2.042 0.042 0.058 0.147 0.144 0.23 0.192l0.15 0.090h2.048l0.16-0.083c0.182-0.096 0.349-0.294 0.4-0.47 0.019-0.074 0.032-0.733 0.032-1.776v-1.654l0.090-0.003c0.528-0.016 1.098-0.387 1.334-0.874 0.176-0.358 0.176-0.384 0.166-2.083-0.013-1.683-0.006-1.629-0.192-2.144-0.218-0.611-0.669-1.184-1.229-1.555-0.102-0.067-0.198-0.125-0.211-0.125-0.016 0-0.106 0.038-0.205 0.083-0.16 0.070-0.352 0.138-0.72 0.243-0.138 0.042-0.934 0.054-1.139 0.019-0.294-0.051-0.592-0.144-0.842-0.266-0.202-0.096-0.208-0.096-0.349-0.006z"></path>
<path fill="#ff7900" d="M12.832 28.016c0 0.013 2.342 1.981 2.605 2.182 0.368 0.291 0.803 0.262 1.222-0.077 0.47-0.381 2.509-2.093 2.509-2.106 0-0.010-1.424-0.016-3.168-0.016-1.741 0-3.168 0.006-3.168 0.016z"></path>
</svg>
