<!-- Generated by IcoMoon.io -->
<svg version="1.1" xmlns="http://www.w3.org/2000/svg" width="32" height="32" viewBox="0 0 32 32">
<title>email</title>
<path fill="#ff7900" d="M3.2 14.301c0 9.546-0.013 8.979 0.189 9.494 0.301 0.771 0.954 1.392 1.757 1.667 0.416 0.141 0.003 0.134 12.144 0.138h11.51v-8.762c-0.003-9.36 0.003-8.931-0.154-9.382-0.23-0.656-0.707-1.203-1.334-1.523-0.301-0.157-0.483-0.218-0.832-0.285-0.227-0.042-1.61-0.048-11.766-0.048h-11.514v8.701zM26.074 11.917c-1.206 1.165-1.731 1.67-1.92 1.846-0.246 0.24-1.411 1.36-2.058 1.981-0.243 0.237-0.627 0.605-0.848 0.816-0.221 0.214-0.579 0.56-0.8 0.774-0.221 0.211-0.467 0.448-0.547 0.525s-0.4 0.384-0.71 0.682c-0.621 0.595-0.925 0.832-1.334 1.034-0.573 0.278-1.078 0.397-1.776 0.41-0.915 0.019-1.677-0.186-2.358-0.634-0.371-0.243-0.538-0.394-1.882-1.699-0.634-0.614-2.176-2.109-2.397-2.32-0.099-0.096-0.397-0.384-0.659-0.64-0.266-0.256-0.877-0.848-1.36-1.315s-1.091-1.056-1.35-1.312l-0.477-0.464 0.019-2.739 0.534 0.522c0.291 0.288 1.062 1.043 1.712 1.68 0.646 0.634 1.296 1.267 1.437 1.408 0.144 0.138 0.726 0.704 1.293 1.258 0.57 0.554 1.139 1.107 1.264 1.232 0.128 0.122 0.611 0.592 1.075 1.046 1.331 1.296 1.347 1.309 1.546 1.437 0.416 0.272 0.966 0.41 1.574 0.397 0.528-0.013 1.005-0.163 1.43-0.445 0.179-0.118 0.227-0.163 1.514-1.414 0.458-0.445 0.909-0.88 1.005-0.973 0.096-0.096 0.579-0.563 1.072-1.040 0.493-0.48 0.992-0.963 1.11-1.075 0.115-0.112 0.566-0.55 1.002-0.973s0.88-0.851 0.989-0.957c0.333-0.32 2.010-1.949 2.112-2.054l0.099-0.099 0.019 2.79-0.33 0.317z"></path>
</svg>
