<!-- Generated by IcoMoon.io -->
<svg version="1.1" xmlns="http://www.w3.org/2000/svg" width="32" height="32" viewBox="0 0 32 32">
<title>Email_replied</title>
<path fill="#ff7900" d="M3.2 14.294c0 5.382 0.013 8.778 0.032 8.909 0.128 0.89 0.717 1.699 1.526 2.106 0.109 0.054 0.326 0.138 0.48 0.186l0.282 0.090 23.28 0.016v-4.416h-4.061l-0.010 0.918c-0.010 0.829-0.016 0.934-0.070 1.043-0.141 0.285-0.406 0.448-0.723 0.448-0.365 0-0.154 0.182-2.602-2.227-1.597-1.571-2.381-2.339-2.454-2.406-0.045-0.042-0.061-0.035-0.128 0.026-0.25 0.227-0.643 0.486-0.976 0.643-0.528 0.25-0.976 0.346-1.68 0.358-0.307 0.006-0.624-0.003-0.704-0.016-0.080-0.016-0.195-0.038-0.256-0.048-0.41-0.064-1.043-0.317-1.411-0.563-0.33-0.221-0.461-0.342-1.779-1.622-0.448-0.435-0.877-0.851-0.95-0.918-0.070-0.070-0.499-0.48-0.947-0.915s-0.896-0.867-0.992-0.957c-0.096-0.093-0.534-0.518-0.976-0.944-0.438-0.422-0.998-0.966-1.248-1.206-0.246-0.24-0.624-0.605-0.842-0.816l-0.394-0.381 0.019-2.778 0.16 0.15c0.090 0.086 0.576 0.56 1.085 1.056 0.506 0.493 1.050 1.021 1.203 1.171s0.71 0.688 1.232 1.2c0.525 0.509 1.078 1.050 1.229 1.194 0.15 0.147 0.694 0.675 1.203 1.171 0.512 0.499 1.050 1.024 1.2 1.171 0.15 0.144 0.49 0.474 0.752 0.733 0.739 0.72 0.886 0.829 1.338 1.008 0.563 0.224 1.325 0.24 1.942 0.048 0.195-0.064 0.554-0.253 0.701-0.374 0.163-0.134 0.115-0.086 1.411-1.35 0.538-0.522 1.072-1.043 1.19-1.155 0.115-0.112 0.653-0.637 1.194-1.165s1.107-1.082 1.261-1.229c0.243-0.237 0.973-0.947 3.078-3.014l0.605-0.592v2.762l-0.582 0.56c-0.323 0.307-0.698 0.666-0.832 0.797l-0.25 0.234v0.787h4.064v-2.893c0-2.422-0.006-2.934-0.048-3.165-0.102-0.592-0.339-1.050-0.768-1.482-0.426-0.429-0.829-0.65-1.424-0.784-0.262-0.058-0.624-0.061-11.814-0.061h-11.546v8.694z"></path>
<path fill="#ff7900" d="M23.069 13.258c-3.069 3.014-3.568 3.504-3.635 3.574-0.042 0.045-0.122 0.173-0.179 0.288-0.090 0.186-0.102 0.237-0.102 0.48 0 0.237 0.013 0.298 0.099 0.48 0.064 0.131 0.17 0.278 0.291 0.4 0.4 0.4 3.408 3.357 3.882 3.818l0.496 0.483 0.010-1.181 0.006-1.184h2.666c2.874 0 2.845 0 3.136-0.17 0.189-0.112 0.397-0.346 0.496-0.56l0.086-0.182 0.010-1.792c0.010-1.29 0-1.84-0.026-1.968-0.086-0.406-0.403-0.765-0.781-0.89-0.211-0.070-0.221-0.070-2.899-0.070h-2.688l-0.006-1.181-0.010-1.181-0.851 0.835z"></path>
</svg>
