<!-- Generated by IcoMoon.io -->
<svg version="1.1" xmlns="http://www.w3.org/2000/svg" width="32" height="32" viewBox="0 0 32 32">
<title>email_forwarded</title>
<path fill="#ff7900" d="M3.2 9.792v4.192h4.064v-0.787l-0.39-0.371c-0.218-0.205-0.592-0.563-0.835-0.8l-0.442-0.426 0.019-2.739 0.515 0.506c0.285 0.278 1.059 1.037 1.725 1.69 0.662 0.65 1.302 1.277 1.424 1.392 0.118 0.115 0.675 0.656 1.235 1.206 0.563 0.547 1.114 1.085 1.229 1.197 0.115 0.109 0.624 0.605 1.13 1.098 1.507 1.472 1.469 1.434 1.814 1.626 0.595 0.33 1.571 0.378 2.275 0.112 0.442-0.166 0.64-0.317 1.389-1.050 0.282-0.275 0.614-0.602 0.739-0.72 0.125-0.122 0.685-0.669 1.242-1.213 0.56-0.547 1.091-1.062 1.184-1.149 0.134-0.128 1.021-0.992 2.451-2.387 0.851-0.829 2.237-2.176 2.317-2.256l0.099-0.093 0.010 1.389 0.010 1.392-0.426 0.413c-0.234 0.224-0.621 0.598-0.858 0.829-0.237 0.227-0.79 0.765-1.229 1.187-0.435 0.426-0.877 0.851-0.976 0.947-0.102 0.096-0.538 0.515-0.966 0.931s-0.861 0.832-0.957 0.925c-0.096 0.093-0.522 0.502-0.944 0.912-1.533 1.485-1.664 1.597-2.208 1.856-0.275 0.131-0.707 0.278-0.944 0.317-0.061 0.010-0.147 0.029-0.192 0.038-0.186 0.042-1.027 0.051-1.283 0.013-0.365-0.051-0.797-0.166-1.085-0.288-0.371-0.157-0.621-0.317-1.075-0.685l-0.096-0.080-0.611 0.598c-0.339 0.33-1.213 1.187-1.946 1.91-2.061 2.029-2.067 2.035-2.224 2.106-0.39 0.176-0.851 0.003-1.046-0.387-0.051-0.106-0.058-0.221-0.067-1.040l-0.010-0.918h-4.061v0.909c0 0.669 0.013 0.979 0.048 1.187 0.186 1.059 0.992 1.923 2.080 2.23l0.256 0.074 23.216 0.016v-8.758c-0.003-7.312-0.010-8.8-0.048-8.986-0.106-0.544-0.352-1.014-0.73-1.398-0.266-0.269-0.291-0.291-0.55-0.448-0.224-0.134-0.515-0.256-0.739-0.31-0.086-0.019-0.192-0.048-0.237-0.061s-5.302-0.026-11.686-0.029l-11.61-0.010v4.192z"></path>
<path fill="#ff7900" d="M8.064 13.59v1.19l-2.742 0.010c-2.659 0.010-2.752 0.013-2.902 0.074-0.202 0.080-0.512 0.368-0.611 0.557-0.144 0.288-0.15 0.39-0.138 2.291l0.010 1.792 0.102 0.211c0.125 0.256 0.355 0.48 0.611 0.598l0.182 0.086 5.488 0.016 0.006 1.184 0.010 1.184 0.694-0.678c0.384-0.374 1.315-1.293 2.077-2.042 0.758-0.749 1.446-1.424 1.53-1.504 0.362-0.355 0.467-0.579 0.467-0.976-0.003-0.221-0.016-0.285-0.106-0.467-0.093-0.192-0.234-0.339-1.539-1.626-0.79-0.778-1.622-1.594-1.846-1.814-0.227-0.221-0.611-0.598-0.851-0.838l-0.442-0.438v1.19z"></path>
</svg>
