<!-- Generated by IcoMoon.io -->
<svg version="1.1" xmlns="http://www.w3.org/2000/svg" width="32" height="32" viewBox="0 0 32 32">
<title>emergency_firemen</title>
<path fill="#ff7900" d="M15.728 4.032c-0.208 0.051-0.406 0.166-0.56 0.326-0.256 0.262-0.352 0.538-0.352 1.005v0.237h-10.816l0.010 9.734c0.006 9.226 0.010 9.747 0.064 9.93 0.288 0.966 0.806 1.67 1.594 2.166 0.65 0.41 1.517 0.624 2.166 0.541 1.795-0.237 3.075-1.36 3.338-2.931l0.042-0.24h4.781l0.058 0.23c0.397 1.642 1.494 2.678 3.085 2.922 1.485 0.227 2.954-0.518 3.69-1.872 0.112-0.205 0.266-0.582 0.291-0.717 0.006-0.035 0.029-0.131 0.048-0.211s0.035-0.192 0.035-0.25v-0.102h4.8v-4.474c0-4.928 0.010-4.682-0.202-5.075-0.122-0.23-0.397-0.518-0.602-0.634-0.365-0.202-0.339-0.198-1.834-0.218l-1.373-0.016-0.65-1.024c-0.358-0.563-0.678-1.069-0.714-1.12-0.522-0.813-0.832-1.302-1.539-2.416-0.339-0.538-0.707-1.114-0.816-1.28-0.214-0.336-1.482-2.326-1.712-2.694l-0.147-0.234-0.595-0.010-0.595-0.006-0.013-0.362c-0.013-0.31-0.026-0.384-0.102-0.541-0.192-0.39-0.592-0.659-1.014-0.682-0.131-0.006-0.294 0-0.365 0.016zM11.501 8.928c-0.013 0.387 0.179 0.784 0.678 1.408 0.822 1.024 1.126 1.494 1.293 1.987 0.058 0.163 0.074 0.294 0.080 0.653 0.013 0.493-0.016 0.771-0.118 1.136-0.061 0.227-0.211 0.57-0.288 0.662-0.058 0.070 0.022 0.045 0.176-0.058 0.349-0.23 0.611-0.627 0.714-1.069 0.090-0.384 0.086-1.395-0.006-1.654-0.058-0.16-0.061-0.179-0.013-0.154 0.173 0.093 0.643 0.717 0.822 1.088 0.378 0.787 0.445 1.536 0.214 2.4-0.237 0.88-0.72 1.501-1.597 2.048-0.33 0.205-1.011 0.608-1.027 0.608-0.010 0-0.144 0.086-0.294 0.192-0.73 0.499-1.030 0.938-1.030 1.498 0 0.406-0.096 0.435-0.275 0.077-0.211-0.416-0.307-1.213-0.218-1.802 0.074-0.493 0.211-0.778 0.701-1.462 0.080-0.109 0.202-0.31 0.269-0.448 0.314-0.618 0.355-1.085 0.144-1.539l-0.083-0.179-0.061 0.17c-0.067 0.202-0.291 0.522-0.47 0.685-0.157 0.141-0.435 0.33-0.726 0.49-0.31 0.17-0.502 0.336-0.656 0.57-0.243 0.371-0.33 0.845-0.237 1.29 0.096 0.448 0.096 0.41-0.003 0.384-0.221-0.054-0.72-0.486-0.992-0.854-0.285-0.387-0.458-0.947-0.486-1.581-0.022-0.502 0.022-0.73 0.224-1.12 0.157-0.304 0.202-0.368 0.736-1.117 0.506-0.707 0.666-1.024 0.688-1.354 0.010-0.128 0.026-0.234 0.042-0.234 0.048 0 0.186 0.208 0.285 0.426 0.195 0.429 0.256 0.954 0.144 1.232-0.032 0.077-0.048 0.144-0.042 0.15 0.032 0.032 0.355-0.16 0.486-0.288 0.163-0.166 0.24-0.314 0.266-0.522 0.013-0.122-0.010-0.224-0.118-0.55-0.192-0.576-0.259-0.938-0.259-1.36 0.006-0.63 0.189-1.104 0.595-1.549 0.102-0.115 0.416-0.387 0.445-0.387 0.003 0 0.003 0.058 0 0.128z"></path>
</svg>
