<!-- Generated by IcoMoon.io -->
<svg version="1.1" xmlns="http://www.w3.org/2000/svg" width="32" height="32" viewBox="0 0 32 32">
<title>emergency-service</title>
<path fill="#ff7900" d="M16.118 5.6c-0.346 0.086-0.646 0.339-0.803 0.672-0.086 0.186-0.099 0.246-0.109 0.566l-0.013 0.362h-11.994l0.010 8.070c0.010 8.88-0.006 8.154 0.198 8.73 0.31 0.87 0.96 1.603 1.776 2.016 0.298 0.147 0.576 0.24 0.966 0.32 0.355 0.074 1.024 0.067 1.386-0.010 0.912-0.202 1.744-0.762 2.24-1.51 0.346-0.522 0.515-0.976 0.605-1.632 0.006-0.054 0.016-0.25 0.016-0.442l0.003-0.342h7.2l0.003 0.342c0 0.192 0.006 0.368 0.010 0.394 0.006 0.026 0.019 0.112 0.029 0.192 0.090 0.714 0.467 1.466 1.018 2.013 1.411 1.408 3.674 1.408 5.082 0 0.259-0.262 0.528-0.63 0.685-0.941 0.234-0.474 0.374-1.094 0.374-1.677v-0.323h4v-2.906c0-3.142 0.003-3.050-0.176-3.421-0.112-0.224-0.378-0.509-0.608-0.646-0.336-0.205-0.374-0.208-1.869-0.227l-1.357-0.016-1.325-2.208c-0.726-1.216-1.363-2.272-1.411-2.352-0.051-0.080-0.413-0.685-0.806-1.344-0.928-1.558-0.877-1.475-1.050-1.638-0.202-0.189-0.419-0.314-0.675-0.384-0.179-0.048-0.336-0.058-1.062-0.058h-0.851l-0.016-0.362c-0.013-0.32-0.026-0.384-0.112-0.566-0.195-0.413-0.576-0.672-1.014-0.691-0.125-0.006-0.282 0.003-0.349 0.019zM12.8 10.8v1.2h2.4v2.4h-2.4v2.4h-2.4v-2.4h-2.4v-2.4h2.4v-2.4h2.4v1.2z"></path>
</svg>
