<!-- Generated by IcoMoon.io -->
<svg version="1.1" xmlns="http://www.w3.org/2000/svg" width="32" height="32" viewBox="0 0 32 32">
<title>emergency_sos</title>
<path fill="#ff7900" d="M15.578 5.088c-0.611 0.096-1.267 0.477-1.642 0.954-0.125 0.157-0.538 0.829-0.81 1.318-0.042 0.080-0.090 0.157-0.102 0.176-0.013 0.016-0.157 0.262-0.32 0.544-0.352 0.608-0.448 0.771-0.672 1.152-0.090 0.157-0.195 0.339-0.23 0.4-0.058 0.096-0.422 0.726-0.858 1.472-0.067 0.115-0.208 0.355-0.317 0.538-0.106 0.179-0.224 0.381-0.259 0.448-0.035 0.064-0.080 0.141-0.096 0.166-0.029 0.042-0.438 0.746-0.608 1.040-0.029 0.051-0.432 0.742-0.896 1.536-0.464 0.79-0.944 1.619-1.072 1.84-0.298 0.512-1.824 3.133-2.192 3.76-1.222 2.077-1.312 2.243-1.414 2.621-0.070 0.262-0.102 0.88-0.058 1.123 0.051 0.262 0.186 0.64 0.307 0.854 0.102 0.182 0.4 0.57 0.502 0.65 0.374 0.307 0.614 0.451 0.922 0.56 0.467 0.163-0.051 0.157 10.192 0.157 10.336 0.003 9.856 0.010 10.291-0.16 0.461-0.176 0.861-0.464 1.146-0.819 0.624-0.774 0.774-1.782 0.406-2.698-0.042-0.099-0.49-0.893-0.998-1.763-0.506-0.87-0.966-1.661-1.024-1.757-0.205-0.352-0.698-1.203-1.584-2.72-0.499-0.854-1.085-1.862-1.306-2.24-0.528-0.906-0.557-0.96-0.886-1.52-0.154-0.266-0.323-0.56-0.378-0.656-0.051-0.096-0.112-0.198-0.134-0.224-0.019-0.026-0.074-0.112-0.118-0.192-0.077-0.138-0.698-1.21-1.050-1.808-0.093-0.16-0.195-0.336-0.227-0.394-0.035-0.054-0.086-0.15-0.122-0.208-0.032-0.054-0.131-0.224-0.218-0.374-0.275-0.467-0.941-1.61-1.008-1.728-0.496-0.861-0.669-1.12-0.893-1.331-0.326-0.304-0.634-0.483-1.069-0.627-0.234-0.077-0.358-0.096-0.656-0.106-0.202-0.006-0.451 0-0.55 0.016zM11.632 16.88c0.426 0.115 0.669 0.278 0.736 0.502 0.115 0.384-0.141 0.762-0.512 0.762-0.067 0-0.259-0.045-0.426-0.096-0.538-0.173-0.957-0.112-1.107 0.163-0.134 0.25 0.026 0.493 0.397 0.605 0.115 0.035 0.352 0.106 0.528 0.157 0.582 0.176 1.069 0.454 1.283 0.733 0.365 0.477 0.314 1.434-0.102 1.99-0.218 0.288-0.448 0.451-0.816 0.57-0.842 0.278-2.202 0.064-2.547-0.403-0.157-0.211-0.173-0.496-0.038-0.691 0.189-0.278 0.445-0.314 0.922-0.131 0.736 0.285 1.107 0.278 1.392-0.026 0.118-0.131 0.122-0.138 0.109-0.333-0.019-0.326-0.154-0.422-0.906-0.653-0.854-0.259-1.146-0.416-1.357-0.736-0.141-0.211-0.202-0.426-0.211-0.746-0.019-0.832 0.541-1.498 1.437-1.702 0.25-0.058 0.95-0.038 1.219 0.035zM16.534 16.845c0.624 0.112 1.216 0.474 1.562 0.963 0.378 0.531 0.538 1.082 0.534 1.824-0.003 0.813-0.278 1.523-0.784 2.029-0.397 0.4-0.896 0.64-1.472 0.71-0.253 0.032-0.675 0.022-0.877-0.019-0.397-0.077-0.829-0.262-1.098-0.47-0.198-0.15-0.464-0.445-0.595-0.653-0.282-0.451-0.416-0.96-0.426-1.613-0.019-1.318 0.666-2.339 1.818-2.704 0.358-0.115 0.906-0.141 1.338-0.067zM21.68 16.832c0.438 0.064 0.79 0.23 0.938 0.448 0.102 0.15 0.090 0.448-0.026 0.618-0.157 0.227-0.458 0.31-0.726 0.198-0.672-0.282-1.29-0.141-1.29 0.294 0 0.218 0.128 0.33 0.499 0.442 0.886 0.266 1.168 0.381 1.475 0.614 0.349 0.262 0.49 0.544 0.509 1.034 0.038 0.95-0.461 1.632-1.347 1.843-0.262 0.061-0.835 0.083-1.149 0.042-0.464-0.058-0.931-0.23-1.117-0.406-0.237-0.224-0.285-0.586-0.106-0.819 0.189-0.25 0.419-0.275 0.899-0.099 0.621 0.23 0.906 0.262 1.187 0.131 0.205-0.096 0.31-0.24 0.32-0.432 0.019-0.371-0.125-0.474-1.072-0.758-0.89-0.269-1.219-0.531-1.363-1.072-0.054-0.202-0.061-0.496-0.016-0.736 0.038-0.214 0.221-0.582 0.358-0.736 0.282-0.307 0.73-0.541 1.178-0.614 0.157-0.026 0.627-0.019 0.848 0.010z"></path>
<path fill="#ff7900" d="M15.728 17.92c-0.33 0.077-0.704 0.387-0.858 0.704-0.138 0.288-0.186 0.525-0.186 0.928 0 0.954 0.422 1.616 1.098 1.728 0.733 0.118 1.296-0.301 1.485-1.104 0.070-0.298 0.070-0.925 0.003-1.178-0.15-0.544-0.403-0.861-0.822-1.030-0.154-0.061-0.557-0.090-0.72-0.048z"></path>
</svg>
