<!-- Generated by IcoMoon.io -->
<svg version="1.1" xmlns="http://www.w3.org/2000/svg" width="32" height="32" viewBox="0 0 32 32">
<title>emergency_police</title>
<path fill="#ff7900" d="M15.744 3.971c-0.349 0.096-0.621 0.33-0.778 0.666-0.090 0.189-0.099 0.25-0.112 0.586l-0.013 0.378h-10.842v9.542c0 10.394-0.010 9.862 0.176 10.419 0.182 0.538 0.486 1.018 0.899 1.414 0.666 0.64 1.44 0.97 2.381 1.014 1.843 0.090 3.424-1.171 3.712-2.96l0.038-0.23h2.397c1.894 0 2.397 0.010 2.4 0.038 0.003 0.067 0.026 0.186 0.080 0.442 0.262 1.219 1.283 2.243 2.582 2.589 0.854 0.23 1.824 0.141 2.589-0.237 1.030-0.512 1.731-1.459 1.914-2.602l0.038-0.23h4.794v-4.48c0-3.107-0.010-4.528-0.035-4.646-0.118-0.579-0.592-1.072-1.184-1.226-0.131-0.035-0.461-0.045-1.466-0.048-0.982 0-1.306-0.010-1.334-0.042-0.019-0.019-0.314-0.477-0.653-1.014s-0.691-1.091-0.784-1.232c-0.090-0.141-0.234-0.368-0.323-0.506-0.086-0.138-0.237-0.374-0.336-0.528s-0.458-0.717-0.797-1.254c-0.339-0.538-0.707-1.114-0.816-1.28-0.214-0.336-1.482-2.326-1.712-2.694l-0.147-0.234-0.579-0.010-0.579-0.006-0.013-0.394c-0.013-0.362-0.019-0.403-0.112-0.582-0.266-0.515-0.861-0.797-1.386-0.653zM8.080 10.746c0.454 0.134 0.602 0.163 0.925 0.192 0.522 0.048 1.005 0 1.411-0.138 0.186-0.064 0.566-0.253 0.698-0.342 0.086-0.061 0.086-0.061 0.176 0 0.163 0.118 0.598 0.32 0.867 0.403 0.858 0.272 1.75 0.189 2.605-0.24 0.109-0.058 0.237-0.128 0.288-0.163 0.061-0.045 0.086-0.051 0.086-0.019 0.003 0.022 0.013 0.221 0.022 0.442 0.048 0.854 0.029 2.349-0.042 3.040-0.054 0.579-0.214 1.376-0.368 1.837-0.301 0.902-1.168 2.157-2.218 3.203-0.474 0.47-0.867 0.797-1.142 0.944l-0.186 0.099-0.138-0.070c-0.65-0.333-1.83-1.549-2.589-2.669-0.33-0.483-0.579-0.941-0.733-1.328-0.16-0.406-0.371-1.379-0.448-2.064-0.019-0.176-0.042-0.371-0.051-0.432-0.022-0.141-0.042-2.685-0.022-2.883l0.016-0.15 0.259 0.122c0.144 0.067 0.406 0.166 0.582 0.218z"></path>
<path fill="#ff7900" d="M10.806 12.73l-0.378 0.698-0.758 0.138c-0.416 0.077-0.784 0.144-0.816 0.154-0.048 0.013 0.003 0.077 0.243 0.323 0.752 0.768 0.854 0.886 0.842 0.95-0.010 0.035-0.026 0.15-0.035 0.256-0.013 0.106-0.026 0.221-0.032 0.256-0.048 0.317-0.118 0.982-0.102 0.995 0.010 0.013 0.16-0.048 0.333-0.131 0.173-0.086 0.49-0.237 0.707-0.339l0.39-0.189 0.234 0.109c0.125 0.058 0.352 0.166 0.502 0.234 0.15 0.070 0.368 0.173 0.486 0.23 0.118 0.054 0.227 0.099 0.243 0.099 0.013 0-0.013-0.314-0.061-0.694-0.048-0.384-0.093-0.742-0.099-0.797-0.006-0.093 0.038-0.154 0.486-0.624 0.272-0.285 0.522-0.544 0.554-0.576 0.058-0.051 0.045-0.058-0.256-0.122-0.173-0.038-0.406-0.090-0.522-0.115s-0.333-0.070-0.486-0.102l-0.278-0.054-0.39-0.698c-0.218-0.384-0.4-0.698-0.413-0.698-0.010 0-0.189 0.314-0.394 0.698z"></path>
</svg>
