<!-- Generated by IcoMoon.io -->
<svg version="1.1" xmlns="http://www.w3.org/2000/svg" width="32" height="32" viewBox="0 0 32 32">
<title>employees_1</title>
<path fill="#ff7900" d="M15.376 2.448c-1.648 0.253-3.002 1.386-3.52 2.938-0.186 0.557-0.224 0.803-0.221 1.43 0 0.493 0.013 0.605 0.086 0.928 0.205 0.874 0.573 1.542 1.187 2.157 0.598 0.598 1.363 1.024 2.131 1.187 0.118 0.026 0.253 0.054 0.304 0.064 0.202 0.045 1.027 0.045 1.296 0.003 1.667-0.266 2.986-1.357 3.533-2.931 0.554-1.584 0.141-3.341-1.062-4.538-0.682-0.682-1.568-1.117-2.534-1.251-0.291-0.042-0.896-0.035-1.2 0.013z"></path>
<path fill="#ff7900" d="M8.768 4.019c-0.4 0.045-1.088 0.262-1.44 0.454-1.011 0.55-1.728 1.485-2.006 2.621-0.074 0.301-0.083 0.416-0.086 0.874-0.003 0.397 0.013 0.595 0.054 0.8 0.16 0.758 0.509 1.437 1.011 1.962 0.797 0.835 1.786 1.261 2.931 1.264 0.195 0.003 0.368-0.006 0.384-0.019 0.019-0.013 0.118-0.125 0.224-0.246 0.518-0.611 1.174-1.126 1.91-1.504l0.243-0.125-0.090-0.115c-0.467-0.592-0.848-1.437-0.992-2.192-0.067-0.362-0.080-0.512-0.077-1.056 0-0.438 0.016-0.618 0.074-0.912 0.074-0.352 0.298-1.059 0.362-1.142 0.058-0.070 0.006-0.122-0.266-0.256-0.56-0.278-1.133-0.413-1.757-0.416-0.202 0-0.419 0.003-0.48 0.010z"></path>
<path fill="#ff7900" d="M22.336 4.026c-0.198 0.019-0.762 0.163-0.982 0.253-0.218 0.083-0.547 0.25-0.595 0.298-0.016 0.013 0.022 0.144 0.083 0.291 0.131 0.323 0.224 0.65 0.301 1.037 0.077 0.41 0.077 1.357 0 1.786-0.147 0.797-0.47 1.558-0.934 2.186l-0.17 0.227 0.275 0.141c0.275 0.141 0.669 0.381 0.848 0.515 0.39 0.291 0.909 0.79 1.117 1.072 0.125 0.17 0.192 0.186 0.71 0.16 1.037-0.048 1.907-0.435 2.646-1.171 0.739-0.742 1.123-1.613 1.171-2.659 0.093-1.997-1.37-3.789-3.35-4.106-0.278-0.045-0.842-0.061-1.12-0.029z"></path>
<path fill="#ff7900" d="M11.818 11.101c-0.41 0.243-0.662 0.435-0.992 0.752-0.816 0.781-1.322 1.725-1.536 2.867-0.051 0.275-0.058 0.528-0.058 2.592 0 2.118 0.003 2.304 0.058 2.496 0.154 0.544 0.518 1.066 0.934 1.341 0.070 0.045 0.134 0.093 0.144 0.102s0.109 0.064 0.224 0.115c0.282 0.131 0.653 0.224 0.922 0.23l0.102 0.003v3.28c0 2.24 0.010 3.331 0.035 3.446 0.118 0.582 0.592 1.069 1.19 1.229 0.221 0.058 6.029 0.067 6.301 0.010 0.582-0.125 1.12-0.65 1.229-1.197 0.016-0.070 0.029-0.138 0.032-0.154 0.003-0.013 0.006-1.507 0.010-3.318l0.003-3.296h0.122c0.227-0.003 0.682-0.125 0.944-0.256 0.525-0.262 0.915-0.675 1.139-1.206 0.192-0.448 0.192-0.451 0.179-2.906-0.003-1.232-0.016-2.285-0.026-2.336-0.269-1.642-1.146-2.954-2.525-3.773-0.163-0.099-0.314-0.179-0.333-0.179s-0.061 0.029-0.096 0.067c-0.202 0.224-0.822 0.646-1.286 0.877-1.437 0.71-3.123 0.781-4.605 0.189-0.602-0.24-1.101-0.538-1.552-0.922-0.138-0.115-0.259-0.211-0.272-0.211s-0.144 0.070-0.288 0.157zM16.515 13.638c0 0.022 0.006 0.070 0.013 0.106s0.026 0.202 0.048 0.368c0.019 0.166 0.042 0.355 0.051 0.416s0.045 0.336 0.077 0.608c0.112 0.915 0.413 3.341 0.445 3.568 0.016 0.122 0.038 0.291 0.051 0.371l0.019 0.147-0.413 0.541c-0.566 0.746-0.781 1.021-0.79 1.021-0.013 0-0.96-1.232-1.072-1.392-0.042-0.061-0.090-0.122-0.106-0.131-0.022-0.016-0.003-0.224 0.058-0.637 0.006-0.045 0.019-0.144 0.029-0.224 0.016-0.141 0.33-2.515 0.355-2.704 0.006-0.054 0.042-0.333 0.080-0.624 0.064-0.518 0.086-0.688 0.115-0.88 0.045-0.33 0.077-0.547 0.077-0.57 0-0.013 0.218-0.022 0.48-0.022 0.362 0 0.48 0.010 0.483 0.038z"></path>
<path fill="#ff7900" d="M5.264 11.766c-1.107 0.643-1.923 1.696-2.266 2.922-0.173 0.608-0.179 0.746-0.173 3.248 0.010 2.541-0.003 2.368 0.214 2.845 0.33 0.707 1.037 1.206 1.834 1.286l0.214 0.022v3.034c0 2.134 0.010 3.085 0.035 3.203 0.128 0.602 0.576 1.072 1.171 1.226 0.154 0.042 0.563 0.048 2.656 0.048h2.474l-0.128-0.166c-0.15-0.202-0.323-0.547-0.403-0.813-0.054-0.173-0.061-0.438-0.077-3.254l-0.016-3.069-0.208-0.070c-1.098-0.384-1.862-1.254-2.112-2.403-0.061-0.272-0.061-0.403-0.054-2.592 0.006-1.267 0.019-2.333 0.029-2.368s0.029-0.138 0.038-0.224c0.048-0.349 0.214-0.938 0.378-1.322 0.054-0.128 0.093-0.237 0.083-0.246-0.006-0.006-0.112-0.022-0.237-0.032-1.088-0.093-2.192-0.573-3.053-1.325-0.061-0.054-0.118-0.099-0.128-0.099s-0.131 0.067-0.272 0.15z"></path>
<path fill="#ff7900" d="M26.413 11.674c-0.832 0.762-1.974 1.264-3.114 1.366-0.115 0.010-0.211 0.022-0.221 0.029-0.006 0.010 0.048 0.16 0.118 0.342 0.147 0.358 0.259 0.768 0.346 1.238 0.051 0.278 0.058 0.544 0.058 2.662v2.352l-0.077 0.288c-0.285 1.091-1.030 1.904-2.083 2.275l-0.208 0.074-0.016 3.050c-0.019 3.072-0.022 3.133-0.134 3.434-0.074 0.205-0.23 0.496-0.349 0.653l-0.125 0.163h2.458c2.698 0 2.682 0 3.050-0.195 0.39-0.211 0.714-0.656 0.794-1.098 0.022-0.128 0.035-1.194 0.035-3.21v-3.018l0.112-0.003c0.061-0.003 0.122-0.006 0.138-0.010 0.013-0.003 0.090-0.016 0.173-0.029 0.554-0.090 1.168-0.502 1.488-1.005 0.134-0.211 0.282-0.576 0.326-0.81 0.019-0.115 0.029-0.998 0.022-2.512-0.006-2.058-0.016-2.368-0.064-2.608-0.074-0.374-0.275-0.96-0.435-1.283-0.122-0.24-0.467-0.787-0.557-0.88-0.019-0.019-0.115-0.125-0.211-0.234-0.298-0.336-0.771-0.714-1.245-0.995-0.195-0.112-0.195-0.112-0.278-0.038z"></path>
</svg>
