<!-- Generated by IcoMoon.io -->
<svg version="1.1" xmlns="http://www.w3.org/2000/svg" width="32" height="32" viewBox="0 0 32 32">
<title>Empty_trash</title>
<path fill="#ff7900" d="M13.206 2.448c-0.56 0.154-1.011 0.608-1.158 1.171-0.032 0.115-0.048 0.342-0.048 0.675v0.506h-2.112c-2.31 0-2.378 0.003-2.819 0.189-0.662 0.278-1.184 0.87-1.392 1.587-0.045 0.16-0.058 0.368-0.067 1.206l-0.016 1.018h20.81l-0.003-0.938c-0.003-0.794-0.013-0.973-0.064-1.19-0.17-0.726-0.624-1.302-1.283-1.622-0.486-0.24-0.368-0.23-2.835-0.24l-2.218-0.013v-0.502c0-0.333-0.016-0.56-0.048-0.675-0.15-0.57-0.602-1.021-1.171-1.171-0.246-0.067-5.341-0.064-5.574 0zM18.4 4.4v0.4h-4.8v-0.8h4.8v0.4z"></path>
<path fill="#ff7900" d="M7.2 19.6v10h17.6v-20h-17.6v10zM16.976 12.877c0.582 0.093 1.142 0.256 1.597 0.464 0.115 0.054 0.218 0.099 0.227 0.099 0.006 0 0.166 0.086 0.355 0.195 1.638 0.931 2.774 2.528 3.136 4.406 0.077 0.384 0.086 0.522 0.090 1.126 0.003 0.742-0.022 0.96-0.176 1.574-0.24 0.979-0.726 1.914-1.379 2.653-0.31 0.352-0.298 0.336-0.602 0.608-0.922 0.81-2 1.318-3.232 1.523-0.253 0.042-0.506 0.054-1.024 0.051-0.605 0-0.742-0.013-1.136-0.086-0.445-0.086-1.194-0.317-1.418-0.435-0.064-0.035-0.128-0.064-0.138-0.064-0.013 0-0.157-0.074-0.32-0.163-1.715-0.941-2.883-2.55-3.248-4.47-0.067-0.352-0.086-0.557-0.093-1.030-0.006-0.326 0.003-0.701 0.019-0.832 0.17-1.402 0.797-2.739 1.734-3.709 1.021-1.053 2.362-1.741 3.75-1.923 0.16-0.019 0.31-0.042 0.336-0.045 0.17-0.029 1.248 0.013 1.52 0.058z"></path>
<path fill="#ff7900" d="M13.13 15.504c-0.515 0.141-0.87 0.618-0.874 1.178 0 0.189 0.106 0.515 0.218 0.662 0.048 0.061 0.477 0.506 0.957 0.982l0.87 0.874-0.893 0.893c-0.493 0.493-0.928 0.954-0.973 1.021-0.294 0.467-0.205 1.146 0.202 1.504 0.416 0.371 1.002 0.429 1.45 0.147 0.070-0.045 0.528-0.483 1.021-0.973l0.893-0.893 0.922 0.918c0.989 0.989 1.053 1.040 1.437 1.104 0.938 0.163 1.67-0.816 1.264-1.683-0.083-0.182-0.205-0.317-1.011-1.123l-0.912-0.915 0.893-0.893c0.49-0.493 0.928-0.954 0.973-1.024 0.285-0.448 0.218-1.043-0.16-1.462-0.326-0.358-0.902-0.461-1.363-0.246-0.182 0.086-0.317 0.208-1.126 1.011l-0.918 0.915-0.87-0.87c-0.48-0.48-0.922-0.909-0.982-0.957-0.15-0.112-0.486-0.218-0.685-0.214-0.090 0-0.24 0.022-0.33 0.045z"></path>
</svg>
