<!-- Generated by IcoMoon.io -->
<svg version="1.1" xmlns="http://www.w3.org/2000/svg" width="32" height="32" viewBox="0 0 32 32">
<title>End_call</title>
<path fill="#ff7900" d="M14.781 10.829c-0.006 0.006-0.214 0.019-0.461 0.032-0.47 0.022-0.746 0.038-1.040 0.064-0.339 0.032-0.88 0.086-0.976 0.099-0.051 0.010-0.275 0.035-0.496 0.064-1.456 0.182-3.158 0.582-4.448 1.043-0.15 0.054-0.317 0.118-0.374 0.144-0.054 0.026-0.109 0.045-0.122 0.045s-0.115 0.042-0.23 0.096c-0.112 0.051-0.211 0.096-0.221 0.096-0.006 0-0.182 0.083-0.39 0.186-1.027 0.509-1.642 0.934-2.278 1.571-0.605 0.608-0.957 1.158-1.165 1.811-0.163 0.518-0.179 0.707-0.179 2.269 0 1.318 0.006 1.469 0.061 1.677 0.154 0.592 0.65 1.050 1.261 1.162 0.176 0.032 0.301 0.032 0.637 0 0.23-0.022 0.448-0.045 0.486-0.051s0.154-0.019 0.259-0.032c0.106-0.010 0.314-0.032 0.464-0.051 0.15-0.016 0.346-0.038 0.432-0.048 0.090-0.006 0.195-0.022 0.24-0.029s0.173-0.022 0.288-0.032c0.115-0.010 0.317-0.032 0.448-0.048s0.32-0.038 0.416-0.048c1.19-0.122 1.411-0.198 1.792-0.614 0.346-0.378 0.413-0.627 0.416-1.562 0.003-0.896 0.070-1.219 0.336-1.635 0.454-0.71 1.488-1.19 2.96-1.373 0.096-0.013 0.198-0.029 0.227-0.032 0.026-0.006 0.17-0.019 0.32-0.032 0.147-0.013 0.32-0.026 0.381-0.032 0.736-0.074 3.526-0.074 4.384 0 0.858 0.077 1.235 0.131 1.792 0.259 1.347 0.314 2.128 0.934 2.33 1.853 0.058 0.266 0.067 0.403 0.070 1.072 0.006 0.829 0.064 1.056 0.371 1.437 0.282 0.352 0.678 0.544 1.213 0.595 0.125 0.010 0.275 0.026 0.336 0.032 0.061 0.010 0.378 0.042 0.704 0.080 0.326 0.035 0.707 0.077 0.848 0.093 0.141 0.019 0.406 0.048 0.592 0.067s0.378 0.042 0.432 0.048c0.707 0.093 1.165 0.122 1.373 0.083 0.598-0.102 1.098-0.55 1.267-1.142 0.061-0.208 0.064-0.304 0.054-1.789-0.006-0.864-0.022-1.613-0.035-1.664-0.118-0.48-0.17-0.64-0.294-0.922-0.781-1.782-3.072-3.242-6.39-4.074-0.966-0.243-2.288-0.483-3.142-0.57-0.086-0.010-0.298-0.032-0.464-0.048-0.515-0.054-0.643-0.064-1.008-0.086-0.192-0.010-0.394-0.026-0.448-0.032-0.115-0.019-3.011-0.048-3.027-0.032z"></path>
</svg>
