<!-- Generated by IcoMoon.io -->
<svg version="1.1" xmlns="http://www.w3.org/2000/svg" width="32" height="32" viewBox="0 0 32 32">
<title>Entertainment_channel</title>
<path fill="#ff7900" d="M12.8 6.016v0.8h-11.2l0.003 5.814c0 3.434 0.013 5.949 0.032 6.138 0.054 0.586 0.23 1.395 0.394 1.83 0.026 0.067 0.093 0.243 0.147 0.39 0.24 0.637 0.64 1.331 1.149 1.987 0.195 0.253 0.784 0.864 1.075 1.123 0.31 0.269 0.954 0.723 1.238 0.867 0.077 0.038 0.173 0.093 0.218 0.122 0.131 0.086 0.794 0.371 1.149 0.493 0.915 0.317 1.869 0.458 2.851 0.426 0.307-0.013 0.589-0.026 0.624-0.032 0.035-0.010 0.138-0.022 0.224-0.035 0.976-0.131 2.090-0.515 2.912-1.005 0.47-0.282 0.87-0.57 1.37-0.995 0.051-0.045 0.083-0.019 0.426 0.32 0.432 0.426 0.371 0.371 0.717 0.646 1.21 0.966 2.714 1.61 4.282 1.83 0.573 0.080 1.667 0.090 2.24 0.019 1.555-0.192 3.014-0.781 4.243-1.715 0.4-0.301 0.47-0.365 0.838-0.717 0.688-0.666 1.206-1.363 1.68-2.259 0.445-0.838 0.816-2.010 0.909-2.864 0.010-0.096 0.032-0.285 0.048-0.416 0.013-0.131 0.026-2.595 0.022-5.472l-0.006-5.232-0.086-0.32c-0.336-1.21-1.235-2.106-2.451-2.442l-0.31-0.086-14.736-0.016v0.8zM12.8 10.23v1.818l-0.24-0.006c-0.79-0.016-1.546 0.496-1.834 1.238-0.102 0.269-0.125 0.384-0.122 0.608 0.003 0.189 0.010 0.208 0.074 0.218 0.042 0.006 0.131-0.032 0.208-0.083 0.192-0.131 0.49-0.278 0.733-0.358 0.4-0.138 1.133-0.211 1.165-0.122 0.019 0.048 0.038 4.986 0.019 4.986-0.003 0-0.112-0.096-0.237-0.211-0.557-0.515-1.274-0.861-2.118-1.027-0.445-0.086-1.334-0.077-1.776 0.019-1.706 0.365-2.874 1.485-2.998 2.874-0.026 0.285 0 0.352 0.144 0.394 0.115 0.035 0.138 0.029 0.582-0.198 1.027-0.525 2.019-0.762 3.171-0.765 1.235 0 2.33 0.266 3.338 0.816 0.259 0.141 0.275 0.157 0.32 0.301 0.163 0.528 0.56 1.408 0.8 1.773 0.048 0.074 0.048 0.080-0.102 0.224-0.57 0.547-1.443 1.066-2.275 1.354-0.349 0.118-0.922 0.246-1.363 0.301-0.243 0.029-1.338 0.026-1.472-0.006-0.035-0.010-0.179-0.032-0.32-0.054-0.88-0.131-1.923-0.582-2.701-1.165-1.411-1.053-2.294-2.554-2.544-4.323-0.038-0.266-0.045-1.2-0.048-5.37l-0.003-5.046h9.6v1.814zM18.006 10c1.133 0.211 1.965 1.040 2.198 2.192 0.051 0.253 0.045 0.522-0.010 0.589-0.070 0.083-0.147 0.061-0.435-0.128-0.704-0.458-1.427-0.669-2.266-0.659-0.787 0.010-1.549 0.24-2.186 0.662-0.278 0.186-0.362 0.208-0.432 0.122-0.058-0.067-0.048-0.362 0.016-0.675 0.304-1.421 1.706-2.365 3.114-2.102zM26.336 10.045c0.467 0.125 0.816 0.32 1.171 0.653 0.134 0.125 0.301 0.31 0.371 0.413 0.285 0.422 0.467 0.957 0.48 1.405 0.006 0.192 0 0.234-0.054 0.272-0.090 0.067-0.128 0.058-0.33-0.080-1.382-0.938-3.146-0.96-4.534-0.054-0.15 0.099-0.301 0.179-0.336 0.179-0.17 0-0.192-0.272-0.061-0.826 0.227-0.989 1.050-1.776 2.077-1.994 0.355-0.074 0.88-0.061 1.216 0.032zM16.736 17.757c0.045 0.032 0.176 0.122 0.294 0.205 1.014 0.704 2.448 1.238 3.626 1.35 0.125 0.013 0.259 0.029 0.304 0.035 0.16 0.029 1.19 0.013 1.494-0.022 1.424-0.157 2.765-0.669 3.875-1.478 0.221-0.16 0.336-0.192 0.47-0.134 0.192 0.080 0.221 0.157 0.198 0.602-0.045 0.97-0.33 1.834-0.874 2.662-0.278 0.422-0.39 0.56-0.739 0.902-0.771 0.758-1.683 1.238-2.774 1.456-0.298 0.061-0.461 0.074-1.011 0.074-0.426 0-0.736-0.016-0.88-0.045-0.605-0.115-1.181-0.31-1.616-0.544-1.149-0.611-1.946-1.478-2.506-2.723-0.224-0.496-0.39-1.286-0.403-1.907-0.006-0.272 0-0.298 0.077-0.39 0.118-0.141 0.294-0.157 0.464-0.042z"></path>
<path fill="#ff7900" d="M6.192 12.083c-0.339 0.083-0.646 0.259-0.915 0.525-0.358 0.355-0.541 0.73-0.589 1.21-0.035 0.326 0.054 0.371 0.339 0.179 0.458-0.31 0.998-0.474 1.581-0.474 0.637 0 1.059 0.112 1.587 0.432 0.147 0.086 0.298 0.154 0.333 0.15 0.080-0.013 0.099-0.176 0.051-0.461-0.122-0.682-0.614-1.254-1.309-1.507-0.269-0.099-0.781-0.125-1.078-0.054z"></path>
</svg>
