<!-- Generated by IcoMoon.io -->
<svg version="1.1" xmlns="http://www.w3.org/2000/svg" width="32" height="32" viewBox="0 0 32 32">
<title>epg</title>
<path fill="#ff7900" d="M2.4 14.72v8.32h4.8v2.56h17.6v-2.56h4.8v-16.64h-27.2v8.32zM27.68 14.72v6.4h-23.36v-12.8h23.36v6.4zM16.342 22.31c0.522 0.195 0.758 0.806 0.509 1.318-0.349 0.714-1.402 0.688-1.725-0.042-0.342-0.771 0.422-1.574 1.216-1.277z"></path>
<path fill="#ff7900" d="M6.4 11.2v1.28h2.56v-2.56h-2.56v1.28z"></path>
<path fill="#ff7900" d="M11.2 9.968c-0.346 0.099-0.573 0.266-0.752 0.544-0.15 0.234-0.208 0.451-0.195 0.746 0.022 0.506 0.278 0.883 0.755 1.107l0.208 0.099h13.408l0.208-0.099c0.256-0.122 0.426-0.266 0.56-0.477 0.128-0.198 0.173-0.336 0.195-0.56 0.054-0.528-0.211-1.008-0.698-1.267l-0.234-0.125-6.656-0.006c-5.392-0.003-6.685 0.003-6.8 0.038zM23.683 10.646c0.432 0.269 0.406 0.896-0.048 1.123l-0.141 0.070-12.192-0.016-0.138-0.099c-0.189-0.138-0.269-0.301-0.269-0.541 0.003-0.285 0.17-0.515 0.429-0.592 0.045-0.016 2.819-0.026 6.163-0.022l6.080 0.006 0.115 0.070z"></path>
<path fill="#ff7900" d="M6.4 14.72v1.28h2.56v-2.56h-2.56v1.28z"></path>
<path fill="#ff7900" d="M11.222 13.475c-0.301 0.070-0.605 0.288-0.774 0.557-0.131 0.208-0.176 0.336-0.195 0.595-0.048 0.538 0.237 1.014 0.749 1.254l0.214 0.102h13.411l0.243-0.118c0.291-0.144 0.47-0.33 0.611-0.627 0.093-0.195 0.102-0.24 0.099-0.522 0-0.272-0.013-0.33-0.102-0.518-0.138-0.298-0.339-0.499-0.621-0.634l-0.234-0.109-6.64-0.006c-3.798 0-6.691 0.010-6.762 0.026zM16.026 14.189c0.205 0.141 0.278 0.282 0.278 0.531s-0.083 0.406-0.285 0.538l-0.131 0.086-4.512 0.016-0.144-0.074c-0.461-0.24-0.454-0.912 0.010-1.139 0.131-0.064 0.173-0.064 2.394-0.058l2.259 0.006 0.131 0.093zM24.64 14.166c0.403 0.253 0.422 0.797 0.035 1.078l-0.138 0.099-6.122 0.016-0.144-0.074c-0.083-0.045-0.186-0.134-0.24-0.211-0.083-0.118-0.096-0.163-0.093-0.349 0-0.179 0.016-0.237 0.090-0.349 0.096-0.141 0.198-0.224 0.336-0.269 0.045-0.013 1.453-0.022 3.123-0.019l3.040 0.006 0.112 0.070z"></path>
<path fill="#ff7900" d="M6.4 18.24v1.28h2.56v-2.56h-2.56v1.28z"></path>
<path fill="#ff7900" d="M11.117 17.027c-0.371 0.125-0.685 0.438-0.81 0.81-0.048 0.15-0.061 0.256-0.054 0.461 0.022 0.493 0.288 0.886 0.749 1.104l0.214 0.102 6.643 0.010c5.997 0.006 6.656 0 6.813-0.045 0.579-0.173 0.97-0.736 0.915-1.322-0.045-0.499-0.298-0.854-0.755-1.072l-0.208-0.099-6.656-0.006c-6.634-0.006-6.656-0.006-6.851 0.058zM17.93 17.693c0.067 0.042 0.16 0.134 0.208 0.205 0.070 0.109 0.086 0.166 0.086 0.339 0 0.253-0.074 0.394-0.278 0.534l-0.131 0.093-3.181 0.010c-2.195 0.006-3.222-0.003-3.309-0.026-0.24-0.067-0.445-0.355-0.445-0.637 0-0.23 0.211-0.509 0.438-0.579 0.048-0.016 1.53-0.026 3.29-0.022l3.2 0.006 0.122 0.077zM24.659 17.702c0.243 0.157 0.346 0.435 0.269 0.717-0.054 0.189-0.237 0.381-0.413 0.429-0.090 0.022-0.768 0.032-2.186 0.026l-2.058-0.010-0.115-0.070c-0.432-0.269-0.406-0.906 0.045-1.126 0.131-0.064 0.176-0.064 2.23-0.058l2.096 0.006 0.131 0.086z"></path>
</svg>
