<!-- Generated by IcoMoon.io -->
<svg version="1.1" xmlns="http://www.w3.org/2000/svg" width="32" height="32" viewBox="0 0 32 32">
<title>erase</title>
<path fill="#ff7900" d="M10.346 9.594c-0.582 0.435-1.661 1.235-2.394 1.782-0.733 0.544-1.392 1.040-1.466 1.094-0.074 0.058-0.602 0.451-1.174 0.877-1.974 1.472-2.275 1.696-2.342 1.766-0.15 0.157-0.371 0.541-0.458 0.794-0.080 0.243-0.090 0.314-0.093 0.701 0 0.483 0.035 0.656 0.221 1.034 0.154 0.314 0.33 0.512 0.746 0.838 0.202 0.157 0.586 0.461 0.854 0.672s0.781 0.614 1.139 0.899c0.358 0.282 0.989 0.778 1.398 1.104 0.413 0.323 0.797 0.624 0.854 0.669s0.534 0.419 1.056 0.832c0.522 0.413 0.998 0.787 1.056 0.832 0.106 0.080 1.114 0.874 1.472 1.162l0.189 0.15 7.603-0.010c4.179-0.003 7.645-0.019 7.696-0.032 0.054-0.016 0.182-0.048 0.288-0.074 0.282-0.070 0.515-0.16 0.774-0.301 0.87-0.467 1.45-1.21 1.741-2.224l0.074-0.256 0.010-5.040c0.003-2.797-0.006-5.104-0.019-5.184-0.016-0.080-0.038-0.195-0.048-0.256-0.051-0.326-0.262-0.826-0.499-1.165-0.397-0.573-1.021-1.030-1.722-1.267-0.602-0.202-0.195-0.192-8.413-0.192h-7.482l-1.062 0.794zM15.437 12.512c0.093 0.045 0.522 0.448 1.312 1.238l1.171 1.174 1.178-1.181c1.254-1.254 1.302-1.296 1.622-1.312 0.33-0.019 0.429 0.042 0.979 0.589 0.547 0.547 0.605 0.64 0.605 0.979 0 0.307-0.061 0.384-1.325 1.648l-1.168 1.168 1.158 1.158c0.637 0.64 1.19 1.219 1.235 1.29 0.109 0.189 0.125 0.477 0.038 0.704-0.058 0.15-0.138 0.246-0.554 0.659-0.448 0.438-0.506 0.486-0.675 0.538-0.214 0.067-0.397 0.054-0.608-0.042-0.096-0.042-0.48-0.403-1.309-1.238l-1.178-1.178-1.174 1.178c-0.704 0.704-1.229 1.203-1.306 1.242-0.189 0.099-0.528 0.096-0.726-0.003-0.224-0.112-1.024-0.934-1.114-1.139-0.086-0.195-0.077-0.509 0.019-0.698 0.035-0.067 0.592-0.65 1.238-1.296l1.174-1.174-1.184-1.181c-1.331-1.334-1.334-1.338-1.306-1.728 0.026-0.288 0.115-0.419 0.643-0.934 0.381-0.374 0.48-0.454 0.614-0.499 0.202-0.064 0.458-0.051 0.637 0.038z"></path>
</svg>
