<!-- Generated by IcoMoon.io -->
<svg version="1.1" xmlns="http://www.w3.org/2000/svg" width="32" height="32" viewBox="0 0 32 32">
<title>error_severe</title>
<path fill="#ff7900" d="M15.578 5.088c-0.611 0.096-1.267 0.477-1.642 0.954-0.125 0.157-0.538 0.829-0.81 1.318-0.042 0.080-0.090 0.157-0.102 0.176-0.013 0.016-0.157 0.262-0.32 0.544-0.352 0.608-0.448 0.771-0.672 1.152-0.090 0.157-0.195 0.339-0.23 0.4-0.058 0.096-0.422 0.726-0.858 1.472-0.067 0.115-0.208 0.355-0.317 0.538-0.106 0.179-0.224 0.381-0.259 0.448-0.035 0.064-0.080 0.141-0.096 0.166-0.029 0.042-0.438 0.746-0.608 1.040-0.029 0.051-0.432 0.742-0.896 1.536-0.464 0.79-0.944 1.619-1.072 1.84-0.298 0.512-1.824 3.133-2.192 3.76-0.554 0.944-1.178 2.019-1.245 2.15-0.141 0.282-0.234 0.678-0.246 1.066-0.006 0.202 0.003 0.438 0.019 0.528 0.051 0.262 0.186 0.64 0.307 0.854 0.102 0.182 0.4 0.57 0.502 0.65 0.374 0.307 0.614 0.451 0.922 0.56 0.467 0.163-0.051 0.157 10.192 0.157 10.336 0.003 9.856 0.010 10.291-0.16 0.461-0.176 0.861-0.464 1.146-0.819 0.624-0.774 0.774-1.782 0.406-2.698-0.042-0.099-0.49-0.893-0.998-1.763-0.506-0.87-0.966-1.661-1.024-1.757-0.205-0.352-0.698-1.203-1.584-2.72-0.499-0.854-1.085-1.862-1.306-2.24-0.518-0.893-0.554-0.954-0.886-1.52-0.154-0.266-0.317-0.544-0.358-0.624-0.045-0.080-0.112-0.195-0.154-0.256-0.077-0.122-0.23-0.381-0.685-1.168-0.163-0.282-0.307-0.534-0.326-0.56-0.032-0.054-0.291-0.502-0.384-0.666-0.109-0.189-0.179-0.307-0.349-0.598-0.093-0.16-0.243-0.419-0.336-0.576-0.093-0.16-0.266-0.454-0.384-0.656s-0.243-0.419-0.278-0.48c-0.272-0.47-0.538-0.906-0.637-1.040-0.31-0.419-0.765-0.733-1.325-0.918-0.234-0.077-0.358-0.096-0.656-0.106-0.202-0.006-0.451 0-0.55 0.016zM13.2 13.696c0.125 0.058 0.454 0.365 1.478 1.389l1.322 1.315 1.318-1.318c1.514-1.507 1.459-1.466 1.946-1.466 0.272 0 0.323 0.010 0.474 0.090 0.502 0.262 0.72 0.8 0.55 1.341l-0.074 0.234-2.659 2.672 1.347 1.354c1.478 1.478 1.491 1.494 1.533 1.904 0.042 0.381-0.17 0.806-0.499 1.014-0.304 0.192-0.714 0.218-1.040 0.067-0.17-0.077-0.352-0.246-1.542-1.437l-1.354-1.35-1.35 1.35c-1.158 1.158-1.379 1.363-1.536 1.434-0.557 0.253-1.174 0.032-1.453-0.528-0.077-0.15-0.090-0.218-0.090-0.448-0.003-0.483-0.029-0.451 1.526-2.006l1.35-1.354-1.302-1.302c-1.498-1.501-1.482-1.478-1.482-1.962 0-0.227 0.013-0.301 0.083-0.451 0.131-0.275 0.397-0.509 0.701-0.608 0.157-0.051 0.582-0.013 0.752 0.067z"></path>
</svg>
