<!-- Generated by IcoMoon.io -->
<svg version="1.1" xmlns="http://www.w3.org/2000/svg" width="32" height="32" viewBox="0 0 32 32">
<title>event_speaker</title>
<path fill="#ff7900" d="M15.184 1.664c-1.36 0.211-2.496 0.829-3.398 1.856-0.717 0.813-1.187 1.853-1.338 2.957-0.045 0.314-0.045 1.254-0.003 1.475 0.010 0.051 0.029 0.147 0.038 0.208 0.189 1.165 0.867 2.394 1.77 3.203 0.47 0.419 1.136 0.829 1.731 1.062 0.282 0.112 0.848 0.259 1.184 0.314 0.288 0.045 1.248 0.061 1.52 0.022 1.13-0.154 2.198-0.64 3.027-1.379 0.166-0.147 0.381-0.358 0.477-0.474 0.096-0.112 0.186-0.211 0.195-0.221 0.013-0.010 0.115-0.157 0.234-0.33 0.906-1.338 1.197-2.982 0.803-4.534-0.573-2.266-2.48-3.923-4.822-4.189-0.403-0.045-1.011-0.032-1.418 0.029z"></path>
<path fill="#ff7900" d="M10.864 12.461c-0.035 0.022-0.186 0.109-0.336 0.195-0.938 0.531-1.869 1.469-2.429 2.445-0.413 0.723-0.71 1.562-0.819 2.317-0.010 0.086-0.029 0.189-0.038 0.224-0.013 0.038-0.026 0.944-0.032 2.013l-0.013 1.946h8.003l-0.006-0.886-0.010-0.883-0.147-0.083c-0.65-0.368-1.021-0.998-1.030-1.747-0.006-0.742 0.419-1.434 1.098-1.782 0.557-0.288 1.318-0.275 1.856 0.029 0.378 0.214 0.672 0.534 0.845 0.909 0.141 0.307 0.189 0.528 0.189 0.845-0.003 0.739-0.384 1.379-1.040 1.757l-0.154 0.090v1.754h8l-0.003-1.802c-0.003-0.989-0.016-1.914-0.032-2.054-0.173-1.542-0.842-2.941-1.933-4.035-0.467-0.47-1.021-0.88-1.597-1.194l-0.189-0.102-0.099 0.090c-0.054 0.048-0.106 0.099-0.115 0.109-0.064 0.074-0.688 0.534-0.918 0.675-0.576 0.355-1.21 0.643-1.802 0.819-2.022 0.605-4.202 0.314-5.987-0.794-0.307-0.189-0.778-0.541-1.005-0.749-0.179-0.163-0.17-0.16-0.256-0.102z"></path>
<path fill="#ff7900" d="M3.648 22.49c-0.246 0.125-0.416 0.368-0.438 0.634-0.013 0.176 0.006 0.256 0.326 1.181 0.189 0.544 0.358 1.050 0.384 1.12 0.022 0.070 0.218 0.64 0.432 1.264s0.4 1.171 0.413 1.216l0.022 0.080 0.806 0.010 0.806 0.006v2.4h19.2v-2.4l0.806-0.006 0.806-0.010 0.022-0.080c0.013-0.045 0.192-0.57 0.397-1.168 0.902-2.624 1.168-3.43 1.168-3.523 0-0.202-0.096-0.429-0.24-0.573-0.262-0.266 0.992-0.24-12.605-0.24h-12.131l-0.176 0.090z"></path>
</svg>
