<!-- Generated by IcoMoon.io -->
<svg version="1.1" xmlns="http://www.w3.org/2000/svg" width="32" height="32" viewBox="0 0 32 32">
<title>event_agenda</title>
<path fill="#ff7900" d="M10.096 3.661c-0.352 0.112-0.608 0.333-0.765 0.659l-0.099 0.208-0.010 0.742-0.010 0.746h-5.597l0.010 10.214c0.006 9.706 0.010 10.227 0.064 10.403 0.182 0.595 0.531 1.066 1.034 1.398 0.205 0.134 0.355 0.202 0.733 0.326 0.106 0.032 2.192 0.042 11.546 0.051l11.414 0.006-0.006-10.214-0.010-10.218-0.067-0.208c-0.15-0.454-0.33-0.758-0.618-1.050-0.272-0.275-0.691-0.525-1.027-0.614-0.080-0.022-0.173-0.048-0.208-0.058s-0.874-0.026-1.862-0.029l-1.802-0.013v-0.662c0-0.365-0.016-0.723-0.032-0.8-0.083-0.358-0.326-0.653-0.672-0.819-0.186-0.086-0.24-0.099-0.496-0.099s-0.31 0.010-0.499 0.099c-0.262 0.125-0.454 0.32-0.586 0.589l-0.099 0.208-0.010 0.742-0.013 0.746h-8.787l-0.013-0.746-0.010-0.742-0.099-0.208c-0.256-0.534-0.877-0.826-1.405-0.659zM9.331 9.312c0.128 0.266 0.326 0.464 0.589 0.589 0.186 0.090 0.24 0.099 0.496 0.099s0.31-0.010 0.496-0.099c0.266-0.128 0.464-0.326 0.589-0.589l0.099-0.208 0.032-1.888 0.208 0.211c0.602 0.605 0.739 1.504 0.349 2.294-0.317 0.646-1.037 1.094-1.757 1.094-1.152 0-2.083-0.979-2.006-2.109 0.035-0.518 0.218-0.928 0.576-1.29l0.198-0.202 0.032 1.888 0.099 0.208zM20.531 9.312c0.17 0.346 0.435 0.57 0.79 0.659 0.557 0.144 1.123-0.128 1.379-0.659l0.099-0.208 0.032-1.888 0.211 0.218c0.349 0.352 0.531 0.765 0.563 1.27 0.083 1.328-1.181 2.378-2.467 2.048-0.365-0.093-0.669-0.266-0.934-0.531-0.771-0.768-0.778-2.032-0.013-2.797l0.208-0.208 0.032 1.888 0.099 0.208zM26.128 13.334c0.234 0.122 0.358 0.234 0.49 0.432 0.211 0.31 0.198-0.115 0.198 6.784v6.266l-20.688-0.016-0.176-0.083c-0.234-0.112-0.406-0.253-0.534-0.445-0.214-0.32-0.202 0.125-0.202-6.79v-6.266l20.72 0.016 0.192 0.102z"></path>
<path fill="#ff7900" d="M7.734 14.848c-0.346 0.090-0.64 0.33-0.794 0.656-0.288 0.605-0.032 1.309 0.576 1.597 0.186 0.086 0.243 0.099 0.499 0.099 0.259 0 0.31-0.010 0.496-0.102 0.33-0.16 0.528-0.378 0.64-0.714 0.246-0.73-0.298-1.523-1.066-1.555-0.128-0.006-0.285 0.003-0.352 0.019z"></path>
<path fill="#ff7900" d="M11.376 15.238c-0.218 0.077-0.355 0.205-0.48 0.448-0.189 0.358-0.029 0.822 0.352 1.027l0.128 0.070h12.48l0.131-0.070c0.49-0.262 0.57-0.899 0.163-1.293-0.25-0.24 0.275-0.221-6.547-0.218-4.243 0-6.16 0.013-6.227 0.035z"></path>
<path fill="#ff7900" d="M7.734 18.848c-0.342 0.086-0.643 0.339-0.803 0.672-0.090 0.186-0.099 0.24-0.099 0.496s0.013 0.31 0.099 0.496c0.198 0.416 0.592 0.682 1.037 0.694 0.515 0.013 0.922-0.24 1.146-0.717 0.074-0.16 0.086-0.224 0.086-0.474-0.003-0.256-0.013-0.314-0.102-0.496-0.195-0.413-0.579-0.672-1.014-0.691-0.125-0.006-0.282 0.003-0.349 0.019z"></path>
<path fill="#ff7900" d="M11.395 19.235c-0.349 0.102-0.563 0.4-0.563 0.781 0.003 0.323 0.138 0.547 0.416 0.698l0.128 0.070h6.24c5.907 0 6.246-0.003 6.342-0.058 0.189-0.102 0.32-0.243 0.394-0.422 0.157-0.39-0.016-0.835-0.403-1.027-0.122-0.061-0.262-0.061-6.285-0.067-3.933-0.003-6.198 0.006-6.269 0.026z"></path>
<path fill="#ff7900" d="M7.696 22.861c-0.349 0.109-0.611 0.336-0.765 0.656-0.086 0.189-0.099 0.243-0.099 0.499s0.010 0.31 0.099 0.496c0.128 0.266 0.326 0.464 0.589 0.589 0.182 0.086 0.24 0.099 0.496 0.099s0.31-0.010 0.496-0.099c0.262-0.125 0.461-0.323 0.589-0.589 0.090-0.186 0.099-0.237 0.099-0.496-0.003-0.253-0.013-0.314-0.099-0.496-0.195-0.416-0.592-0.682-1.037-0.691-0.131-0.003-0.298 0.010-0.368 0.032z"></path>
<path fill="#ff7900" d="M11.392 23.238c-0.342 0.099-0.56 0.4-0.56 0.778 0.003 0.323 0.134 0.547 0.416 0.698l0.128 0.070 6.17 0.010c4.198 0.003 6.211-0.003 6.298-0.026 0.17-0.048 0.381-0.218 0.477-0.384 0.064-0.115 0.080-0.189 0.080-0.368-0.003-0.339-0.154-0.592-0.451-0.739-0.122-0.061-0.262-0.061-6.285-0.067-4.016-0.003-6.198 0.006-6.272 0.029z"></path>
</svg>
