<!-- Generated by IcoMoon.io -->
<svg version="1.1" xmlns="http://www.w3.org/2000/svg" width="32" height="32" viewBox="0 0 32 32">
<title>Excel</title>
<path fill="#ff7900" d="M5.6 15.302c0 14.067-0.013 13.034 0.179 13.43 0.115 0.234 0.454 0.573 0.688 0.688 0.397 0.192-0.342 0.179 10.23 0.179h9.702v-19.2l-2.518-0.003c-1.389 0-2.586-0.010-2.666-0.019-0.467-0.058-1.005-0.262-1.421-0.538-0.445-0.294-0.896-0.842-1.123-1.357-0.109-0.246-0.224-0.659-0.253-0.915-0.006-0.070-0.016-1.261-0.016-2.65l-0.003-2.518h-12.8v12.902zM22.4 15.2v0.8h-3.2v-1.6h3.2v0.8zM11.475 15.251c0.141 0.048 0.288 0.186 1.341 1.232l1.184 1.178 1.184-1.178c1.162-1.158 1.187-1.181 1.373-1.235 0.211-0.061 0.442-0.048 0.608 0.038 0.122 0.064 0.288 0.234 0.362 0.368 0.080 0.147 0.077 0.544-0.003 0.698-0.032 0.061-0.582 0.637-1.222 1.28l-1.165 1.168 1.139 1.136c0.624 0.624 1.171 1.194 1.213 1.264 0.109 0.182 0.134 0.445 0.064 0.656-0.154 0.464-0.733 0.682-1.152 0.432-0.070-0.042-0.64-0.589-1.264-1.213l-1.136-1.139-1.168 1.165c-0.643 0.64-1.219 1.19-1.28 1.222-0.080 0.045-0.179 0.061-0.352 0.061-0.205 0-0.266-0.016-0.39-0.090-0.176-0.102-0.294-0.243-0.362-0.435-0.061-0.176-0.061-0.301 0.003-0.518 0.048-0.163 0.109-0.23 1.232-1.357l1.181-1.184-1.152-1.152c-0.8-0.797-1.174-1.197-1.226-1.296-0.051-0.109-0.070-0.202-0.070-0.371 0-0.195 0.013-0.246 0.096-0.381 0.214-0.339 0.582-0.474 0.963-0.349zM22.4 18.4v0.8h-3.2v-1.6h3.2v0.8zM22.4 21.6v0.8h-3.2v-1.6h3.2v0.8zM12.8 24.8v0.8h-3.2v-1.6h3.2v0.8zM17.6 24.8v0.8h-3.2v-1.6h3.2v0.8zM22.4 24.8v0.8h-3.2v-1.6h3.2v0.8z"></path>
<path fill="#ff7900" d="M20 4.918c0.003 1.61 0.016 2.547 0.035 2.65 0.125 0.586 0.589 1.085 1.123 1.2 0.122 0.026 0.89 0.032 2.698 0.026l2.528-0.010-3.178-3.178c-1.744-1.744-3.181-3.174-3.19-3.174s-0.016 1.12-0.016 2.486z"></path>
</svg>
