<!-- Generated by IcoMoon.io -->
<svg version="1.1" xmlns="http://www.w3.org/2000/svg" width="32" height="32" viewBox="0 0 32 32">
<title>Expand_screen</title>
<path fill="#ff7900" d="M7.312 4.064c-1.226 0.218-2.294 1.002-2.858 2.096-0.202 0.387-0.282 0.624-0.41 1.2-0.016 0.061-0.032 4.73-0.035 10.378l-0.010 10.262h10.131c8.989 0 10.17-0.006 10.467-0.051 1.421-0.208 2.605-1.165 3.146-2.541 0.038-0.096 0.106-0.317 0.154-0.493l0.086-0.323 0.010-10.298 0.006-10.294-10.182 0.003c-9.622 0.003-10.205 0.006-10.506 0.061zM25.6 15.28c0 6.47-0.010 8.922-0.035 9.046-0.131 0.605-0.634 1.11-1.238 1.238-0.122 0.026-2.624 0.035-9.046 0.035h-8.88v-8.858c0-6.224 0.010-8.915 0.035-9.050 0.106-0.573 0.582-1.085 1.171-1.245 0.125-0.035 1.782-0.042 9.075-0.045l8.918-0.003v8.88z"></path>
<path fill="#ff7900" d="M20.39 11.594l3.594 3.594 0.010-2.995c0.003-2.010-0.003-3.043-0.026-3.152-0.074-0.346-0.32-0.688-0.621-0.864-0.304-0.179-0.253-0.176-3.53-0.176h-3.021l3.594 3.594z"></path>
<path fill="#ff7900" d="M8 19.83c0 1.946 0.013 3.053 0.035 3.146 0.109 0.483 0.506 0.877 0.992 0.989 0.090 0.022 1.238 0.035 3.155 0.035h3.014l-3.584-3.584c-1.971-1.971-3.59-3.584-3.597-3.584-0.010 0-0.016 1.35-0.016 2.998z"></path>
</svg>
