<!-- Generated by IcoMoon.io -->
<svg version="1.1" xmlns="http://www.w3.org/2000/svg" width="32" height="32" viewBox="0 0 32 32">
<title>expert</title>
<path fill="#ff7900" d="M11.21 4.794c-2.627 0.874-4.774 1.597-4.778 1.606 0 0.010 2.154 0.733 4.784 1.61l4.784 1.59 7.184-2.394 0.010 2.797 0.006 2.797-0.144 0.73c-0.080 0.4-0.15 0.758-0.16 0.797l-0.016 0.074h1.446l-0.016-0.074c-0.010-0.038-0.083-0.397-0.166-0.8l-0.144-0.726 0.006-2.938 0.010-2.934 0.72-0.24c0.397-0.134 0.749-0.253 0.784-0.266 0.048-0.019-1.222-0.458-4.72-1.622-2.63-0.88-4.79-1.597-4.8-1.597s-2.166 0.717-4.79 1.59z"></path>
<path fill="#ff7900" d="M10.403 10.502c0.003 2.058 0.016 2.24 0.17 2.858 0.342 1.376 1.21 2.586 2.413 3.36 1.402 0.899 3.194 1.12 4.787 0.586 1.926-0.643 3.341-2.266 3.738-4.285 0.067-0.349 0.070-0.451 0.083-2.406 0.006-1.12 0.003-2.038-0.006-2.038s-1.27 0.419-2.8 0.928l-2.784 0.928-2.787-0.928c-1.53-0.509-2.79-0.928-2.8-0.928s-0.016 0.867-0.013 1.926z"></path>
<path fill="#ff7900" d="M10.544 16.906c-0.634 0.458-0.864 0.662-1.226 1.094-0.694 0.826-1.123 1.795-1.267 2.864-0.038 0.275-0.045 0.973-0.038 3.952 0.003 3.315 0.010 3.632 0.061 3.795 0.227 0.742 0.72 1.312 1.392 1.597 0.467 0.198 0.006 0.186 7.6 0.189l6.934 0.003-0.003-4.598c-0.003-3.85-0.010-4.659-0.048-4.95-0.208-1.539-1.085-2.973-2.355-3.85l-0.243-0.17-0.333 0.323c-0.557 0.547-1.165 0.97-1.898 1.328-0.63 0.304-1.338 0.528-1.968 0.621-0.131 0.019-0.275 0.045-0.32 0.051-0.16 0.032-1.302 0.038-1.584 0.006-1.606-0.17-3.146-0.902-4.314-2.048-0.157-0.157-0.288-0.282-0.291-0.278 0 0-0.045 0.032-0.099 0.070zM20.973 20.701c0.24 0.106 0.397 0.253 0.509 0.48 0.090 0.186 0.102 0.24 0.099 0.467 0 0.211-0.016 0.285-0.086 0.422-0.112 0.214-0.285 0.381-0.502 0.486-0.253 0.118-0.618 0.118-0.867-0.006-0.867-0.422-0.778-1.594 0.147-1.901 0.17-0.054 0.518-0.032 0.701 0.051zM21.6 25.654c0 2.339 0.003 2.397 0.067 2.538 0.122 0.269 0.32 0.406 0.624 0.438l0.173 0.019v0.374h-3.328v-0.384h0.138c0.298 0 0.621-0.246 0.691-0.531 0.051-0.195 0.048-3.786 0-3.952-0.083-0.269-0.342-0.467-0.656-0.499l-0.173-0.019v-0.374h2.464v2.39z"></path>
</svg>
