<!-- Generated by IcoMoon.io -->
<svg version="1.1" xmlns="http://www.w3.org/2000/svg" width="32" height="32" viewBox="0 0 32 32">
<title>external_drive</title>
<path fill="#ff7900" d="M8.976 2.464c-0.672 0.141-1.258 0.467-1.718 0.954-0.378 0.403-0.621 0.832-0.787 1.392l-0.086 0.294-0.010 12.25-0.006 12.246 8.278-0.010c8.95-0.010 8.301 0.003 8.806-0.166 1.002-0.333 1.744-1.142 2.061-2.256l0.070-0.24 0.006-12.266 0.010-12.262-8.166 0.003c-7.866 0-8.179 0.003-8.458 0.061zM16.416 6.31c0.182 0.374 0.531 1.085 0.771 1.578l0.442 0.896-0.544 0.010-0.541 0.006v3.491c0 3.322 0.003 3.491 0.058 3.45 0.029-0.026 0.157-0.141 0.278-0.259 0.125-0.115 0.256-0.24 0.291-0.272 0.038-0.032 0.262-0.243 0.502-0.47 0.24-0.224 0.47-0.442 0.512-0.48 0.115-0.102 0.333-0.406 0.39-0.541l0.048-0.118h-1.024v-2.752h2.816v2.749l-0.97 0.019-0.045 0.176c-0.083 0.323-0.278 0.618-0.678 1.014-0.208 0.205-1.037 0.995-1.155 1.098-0.342 0.298-0.848 0.803-0.896 0.893-0.099 0.198-0.128 0.438-0.128 1.059 0 0.522 0.006 0.608 0.048 0.608 0.074 0 0.442 0.173 0.598 0.282 1.078 0.742 1.136 2.378 0.115 3.203-0.394 0.32-0.803 0.454-1.322 0.435-0.845-0.029-1.552-0.56-1.83-1.376-0.080-0.227-0.090-0.301-0.086-0.64 0-0.333 0.013-0.416 0.086-0.618 0.045-0.128 0.134-0.317 0.198-0.419 0.214-0.358 0.701-0.736 1.085-0.851 0.118-0.035 0.131-0.051 0.122-0.131-0.016-0.138-0.138-0.362-0.246-0.451-0.051-0.045-0.234-0.208-0.4-0.362s-0.346-0.32-0.4-0.368c-0.186-0.17-0.963-0.906-1.158-1.101-0.432-0.419-0.672-0.806-0.749-1.194-0.035-0.179-0.042-0.186-0.17-0.221-0.070-0.019-0.138-0.035-0.147-0.035-0.074 0.006-0.442-0.24-0.608-0.41-0.342-0.336-0.486-0.71-0.467-1.184 0.029-0.611 0.349-1.094 0.902-1.363 0.589-0.285 1.277-0.182 1.763 0.259 0.438 0.397 0.605 0.96 0.474 1.6-0.099 0.474-0.368 0.845-0.749 1.024-0.23 0.109-0.23 0.115-0.058 0.464 0.112 0.224 0.326 0.458 1.046 1.12 0.237 0.221 0.534 0.499 0.662 0.621s0.259 0.24 0.298 0.266l0.064 0.045v-8.259h-1.219l0.093-0.17c0.051-0.090 0.243-0.454 0.422-0.806 0.182-0.352 0.397-0.771 0.48-0.928 0.083-0.16 0.262-0.509 0.403-0.778 0.138-0.266 0.259-0.486 0.269-0.486s0.166 0.307 0.352 0.678zM24 26v0.4h-16v-0.8h16v0.4zM22.278 27.322c0.246 0.246 0.061 0.678-0.294 0.678-0.109 0-0.253-0.093-0.32-0.202-0.24-0.39 0.291-0.8 0.614-0.477z"></path>
</svg>
