<!-- Generated by IcoMoon.io -->
<svg version="1.1" xmlns="http://www.w3.org/2000/svg" width="32" height="32" viewBox="0 0 32 32">
<title>Factory</title>
<path fill="#ff7900" d="M11.904 1.648c-0.65 0.128-1.136 0.4-1.581 0.886l-0.221 0.24-0.246-0.122c-1.264-0.634-2.826-0.010-3.299 1.318l-0.099 0.275-0.179-0.090c-0.765-0.378-1.744-0.032-2.115 0.749-0.435 0.918 0.064 1.984 1.056 2.246 0.266 0.070 11.747 0.064 12.077-0.006 0.874-0.186 1.584-0.861 1.827-1.738 0.080-0.285 0.080-0.925 0-1.216-0.227-0.829-0.883-1.488-1.715-1.715-0.294-0.083-0.931-0.080-1.216 0-0.448 0.131-0.854 0.378-1.139 0.688-0.102 0.109-0.102 0.109-0.125 0.035-0.045-0.138-0.294-0.499-0.496-0.714-0.358-0.384-0.819-0.659-1.328-0.794-0.314-0.083-0.896-0.106-1.2-0.045z"></path>
<path fill="#ff7900" d="M3.997 8.070c0 0.042-0.006 0.109-0.013 0.154-0.003 0.045-0.019 0.246-0.032 0.448s-0.026 0.41-0.032 0.464c-0.006 0.051-0.019 0.234-0.032 0.4-0.019 0.294-0.032 0.493-0.064 0.928-0.019 0.266-0.042 0.586-0.064 0.912-0.010 0.141-0.026 0.355-0.032 0.48-0.010 0.122-0.022 0.304-0.032 0.4s-0.022 0.298-0.032 0.448c-0.010 0.15-0.026 0.352-0.032 0.448-0.038 0.49-0.048 0.646-0.064 0.88-0.042 0.653-0.051 0.806-0.064 0.912-0.010 0.061-0.022 0.262-0.035 0.448-0.010 0.186-0.022 0.387-0.029 0.448s-0.019 0.256-0.032 0.432c-0.010 0.176-0.026 0.371-0.032 0.432s-0.022 0.278-0.032 0.48c-0.013 0.202-0.026 0.403-0.032 0.448s-0.019 0.23-0.032 0.416c-0.013 0.186-0.032 0.464-0.048 0.624-0.013 0.157-0.026 2.682-0.029 5.61l-0.003 5.318h25.6v-14.403l-0.134 0.080c-0.077 0.042-0.915 0.509-1.866 1.037s-1.792 0.995-1.872 1.037c-0.080 0.045-0.669 0.374-1.312 0.73s-1.232 0.685-1.312 0.73c-0.080 0.045-0.266 0.147-0.416 0.23l-0.272 0.15-0.032-3.981-2.384 1.325c-1.312 0.73-2.499 1.389-2.64 1.466s-0.682 0.374-1.2 0.666l-0.944 0.525-0.032-3.981-2.384 1.325c-1.312 0.73-2.483 1.382-2.608 1.45-0.122 0.067-0.397 0.218-0.608 0.336s-0.483 0.269-0.608 0.336c-0.122 0.067-0.39 0.218-0.592 0.333-0.202 0.112-0.368 0.205-0.371 0.202-0.006-0.006-0.035-0.333-0.061-0.662-0.010-0.115-0.022-0.294-0.032-0.4-0.006-0.106-0.022-0.314-0.032-0.464-0.029-0.467-0.048-0.746-0.064-0.944-0.029-0.336-0.045-0.534-0.064-0.896-0.010-0.195-0.026-0.403-0.032-0.464s-0.022-0.234-0.032-0.384c-0.010-0.15-0.022-0.365-0.032-0.48-0.029-0.397-0.048-0.656-0.064-0.896-0.010-0.131-0.022-0.333-0.032-0.448s-0.022-0.33-0.032-0.48c-0.010-0.15-0.022-0.352-0.032-0.448-0.006-0.096-0.022-0.291-0.032-0.432s-0.026-0.33-0.032-0.416c-0.013-0.16-0.029-0.4-0.067-0.928-0.010-0.16-0.022-0.333-0.029-0.384-0.006-0.054-0.019-0.275-0.032-0.496s-0.029-0.426-0.035-0.454c-0.003-0.029-0.019-0.23-0.032-0.448s-0.026-0.422-0.029-0.458c-0.003-0.035-0.010-0.096-0.013-0.138l-0.003-0.070h-2.4l-0.003 0.070zM9.6 23.2v0.8h-1.6v-1.6h1.6v0.8zM12.8 23.2v0.8h-1.6v-1.6h1.6v0.8zM16 23.2v0.8h-1.6v-1.6h1.6v0.8zM19.2 23.2v0.8h-1.6v-1.6h1.6v0.8zM22.4 23.2v0.8h-1.6v-1.6h1.6v0.8zM25.6 23.2v0.8h-1.6v-1.6h1.6v0.8zM9.6 26.4v0.8h-1.6v-1.6h1.6v0.8zM12.8 26.4v0.8h-1.6v-1.6h1.6v0.8zM16 26.4v0.8h-1.6v-1.6h1.6v0.8zM19.2 26.4v0.8h-1.6v-1.6h1.6v0.8zM22.4 26.4v0.8h-1.6v-1.6h1.6v0.8zM25.6 26.4v0.8h-1.6v-1.6h1.6v0.8z"></path>
</svg>
