<!-- Generated by IcoMoon.io -->
<svg version="1.1" xmlns="http://www.w3.org/2000/svg" width="32" height="32" viewBox="0 0 32 32">
<title>family_place</title>
<path fill="#ff7900" d="M17.488 8.022c-1.978 0.256-3.507 1.715-3.843 3.664-0.154 0.883-0.016 1.798 0.39 2.64 0.534 1.101 1.514 1.936 2.672 2.282 1.622 0.483 3.331 0.022 4.493-1.21 1.021-1.088 1.43-2.71 1.034-4.118-0.035-0.125-0.077-0.275-0.096-0.336-0.016-0.061-0.115-0.285-0.218-0.496-0.426-0.864-1.12-1.562-1.984-1.987-0.627-0.31-1.139-0.432-1.856-0.445-0.272-0.003-0.538-0.003-0.592 0.006z"></path>
<path fill="#ff7900" d="M10.182 10.448c-0.694 0.122-1.338 0.445-1.859 0.931-0.323 0.301-0.573 0.643-0.81 1.12-0.278 0.563-0.496 0.768-0.835 0.794-0.275 0.022-0.595-0.099-0.922-0.352l-0.179-0.138 0.013 0.23c0.058 1.146 0.618 1.917 1.533 2.122l0.262 0.058 0.115 0.259c0.179 0.397 0.419 0.739 0.736 1.059 0.694 0.691 1.482 1.030 2.451 1.056 1.046 0.026 1.914-0.323 2.656-1.072 0.234-0.237 0.541-0.637 0.592-0.774 0.010-0.026-0.077-0.176-0.192-0.333-0.387-0.544-0.71-1.28-0.848-1.942-0.138-0.672-0.144-1.427-0.016-2.038 0.026-0.128 0.048-0.253 0.048-0.275 0-0.080-0.445-0.349-0.845-0.509-0.381-0.15-0.704-0.211-1.187-0.227-0.307-0.010-0.531 0-0.714 0.032z"></path>
<path fill="#ff7900" d="M26.64 12.355c-0.326 0.038-0.55 0.144-0.768 0.362-0.109 0.109-0.218 0.23-0.243 0.272l-0.048 0.077-0.211-0.083c-0.608-0.243-1.472-0.227-2.077 0.038l-0.147 0.067-0.058 0.294c-0.176 0.931-0.589 1.747-1.274 2.528l-0.186 0.214 0.051 0.202c0.074 0.291 0.304 0.746 0.515 1.014 0.339 0.438 0.925 0.819 1.478 0.97 0.365 0.099 1.046 0.099 1.398 0.003 0.506-0.138 0.918-0.374 1.277-0.726 0.96-0.944 1.101-2.448 0.336-3.574-0.134-0.202-0.554-0.637-0.608-0.637-0.070 0-0.019-0.099 0.106-0.205 0.275-0.237 0.579-0.221 0.845 0.042 0.131 0.128 0.192 0.259 0.272 0.586s0.189 0.531 0.381 0.723c0.63 0.627 1.677 0.234 1.869-0.704 0.070-0.349 0.035-0.586-0.118-0.755-0.099-0.106-0.198-0.090-0.368 0.070-0.189 0.173-0.266 0.214-0.419 0.218-0.195 0.003-0.362-0.106-0.544-0.355-0.352-0.483-0.861-0.707-1.459-0.64z"></path>
<path fill="#ff7900" d="M5.984 15.6l-0.4 0.4-0.384-0.384c-0.211-0.211-0.394-0.384-0.403-0.384s-0.016 0.173-0.016 0.384l0.003 0.384h-0.8v0.358c0.003 0.198-0.003 0.381-0.010 0.4-0.010 0.032-0.118 0.042-0.403 0.042h-0.39l0.003 0.342c0.003 0.192-0.003 0.371-0.010 0.4-0.013 0.051-0.058 0.058-0.394 0.058-0.211 0-0.381 0.006-0.381 0.016s0.173 0.362 0.384 0.784c0.211 0.422 0.384 0.774 0.384 0.784s-0.176 0.016-0.39 0.016l-0.394 0.003 0.48 0.464c0.266 0.256 0.675 0.656 0.912 0.89 0.576 0.563 0.838 0.739 1.328 0.896 0.381 0.122 0.656 0.157 1.021 0.138 0.515-0.029 0.874-0.141 1.322-0.413 0.637-0.381 1.117-1.062 1.274-1.802 0.096-0.454 0.061-1.107-0.086-1.466-0.022-0.054-0.118-0.144-0.262-0.237-0.72-0.464-1.347-1.226-1.667-2.029-0.048-0.125-0.131-0.256-0.202-0.326l-0.122-0.118-0.397 0.4z"></path>
<path fill="#ff7900" d="M15.024 16.896c-0.512 1.008-0.976 2.531-1.184 3.872-0.013 0.080-0.029 0.17-0.035 0.205-0.016 0.086-0.134 1.094-0.154 1.299-0.022 0.253-0.058 1.053-0.064 1.408l-0.003 0.304h8.8l-0.003-0.16c-0.006-0.333-0.048-1.347-0.058-1.456-0.010-0.061-0.022-0.205-0.032-0.317-0.17-1.862-0.611-3.594-1.267-4.989l-0.157-0.333-0.138 0.086c-0.438 0.266-1.011 0.512-1.482 0.627-0.87 0.221-1.939 0.192-2.79-0.070-0.394-0.122-0.954-0.381-1.264-0.586l-0.086-0.058-0.083 0.166z"></path>
<path fill="#ff7900" d="M13.891 17.104c-0.566 0.566-1.261 0.966-2.006 1.152-0.73 0.179-1.219 0.189-2.128 0.029l-0.115-0.019-0.054 0.186c-0.288 0.963-0.512 1.968-0.614 2.749-0.010 0.086-0.026 0.182-0.029 0.211-0.006 0.029-0.026 0.221-0.048 0.432-0.019 0.208-0.042 0.422-0.048 0.477-0.013 0.096-0.042 0.755-0.061 1.37l-0.010 0.31 4.003-0.016 0.006-0.288c0.010-0.646 0.048-1.302 0.128-2.080 0.125-1.235 0.49-2.835 0.893-3.92 0.16-0.426 0.301-0.768 0.346-0.826 0.070-0.093-0.010-0.019-0.262 0.234z"></path>
<path fill="#ff7900" d="M26.198 18.707c-0.566 0.336-1.226 0.502-1.923 0.48-0.573-0.016-0.998-0.122-1.498-0.371-0.282-0.141-0.307-0.147-0.282-0.083 0.118 0.317 0.384 1.597 0.48 2.339 0.035 0.262 0.070 0.515 0.080 0.56 0.006 0.045 0.022 0.208 0.035 0.368 0.010 0.157 0.026 0.31 0.029 0.339 0.013 0.067 0.058 1.050 0.061 1.389l0.003 0.256h4l-0.003-0.176c-0.003-0.291-0.045-1.322-0.058-1.424-0.006-0.054-0.022-0.205-0.032-0.336-0.054-0.65-0.195-1.539-0.342-2.208-0.122-0.534-0.317-1.248-0.346-1.248-0.010 0.003-0.102 0.051-0.205 0.115z"></path>
<path fill="#ff7900" d="M7.962 21.808c-0.061 0.042-0.23 0.134-0.371 0.208-0.765 0.384-1.651 0.48-2.49 0.269-0.115-0.029-0.214-0.045-0.221-0.038-0.038 0.038-0.080 0.656-0.093 1.363l-0.006 0.39 3.2-0.016 0.006-0.352c0.006-0.448 0.038-1.050 0.077-1.517 0.019-0.202 0.029-0.368 0.022-0.374s-0.061 0.022-0.125 0.067z"></path>
</svg>
