<!-- Generated by IcoMoon.io -->
<svg version="1.1" xmlns="http://www.w3.org/2000/svg" width="32" height="32" viewBox="0 0 32 32">
<title>Fast_delivery</title>
<path fill="#ff7900" d="M1.6 6.512c0 0.189 0.096 0.592 0.195 0.826 0.31 0.73 0.973 1.267 1.747 1.418 0.202 0.038 0.97 0.045 4.806 0.045 5.146 0 4.758-0.019 5.014 0.246 0.314 0.32 0.31 0.794-0.006 1.11-0.262 0.262 0.208 0.243-5.702 0.243h-5.258l0.019 0.246c0.099 1.082 0.947 1.962 2.064 2.134 0.061 0.010 1.978 0.019 4.259 0.019 4.669 0 4.362-0.016 4.614 0.24 0.227 0.224 0.294 0.49 0.202 0.797-0.067 0.224-0.192 0.365-0.416 0.47l-0.195 0.093h-9.754l0.019 0.205c0.096 1.011 0.768 1.818 1.77 2.122 0.176 0.051 0.483 0.058 4.109 0.074 4.394 0.019 4.032-0.003 4.285 0.256 0.301 0.31 0.294 0.784-0.013 1.101-0.246 0.256-0.048 0.243-3.718 0.243h-3.245l0.013 2.47c0.006 1.869 0.019 2.509 0.051 2.618 0.022 0.080 0.045 0.17 0.051 0.202 0.035 0.173 0.198 0.614 0.269 0.726 0.029 0.045 0.077 0.131 0.109 0.192 0.093 0.182 0.374 0.547 0.595 0.765 0.944 0.928 2.346 1.258 3.619 0.851 1.216-0.387 2.189-1.472 2.419-2.694 0.054-0.298 0.067-0.394 0.074-0.547l0.003-0.102h6.387l0.038 0.333c0.262 2.256 2.538 3.712 4.694 3.005 1.36-0.445 2.342-1.68 2.467-3.107l0.022-0.23h3.19v-3.142c0-2.611-0.010-3.174-0.048-3.318-0.134-0.518-0.499-0.925-1.014-1.133-0.163-0.064-0.234-0.067-1.558-0.086l-1.386-0.016-2.429-4.048c-1.597-2.662-2.477-4.099-2.573-4.202-0.17-0.179-0.41-0.336-0.672-0.442l-0.192-0.077-18.928-0.016v0.112z"></path>
</svg>
