<!-- Generated by IcoMoon.io -->
<svg version="1.1" xmlns="http://www.w3.org/2000/svg" width="32" height="32" viewBox="0 0 32 32">
<title>favourite</title>
<path fill="#ff7900" d="M15.824 3.302c-0.067 0.147-0.25 0.525-0.403 0.842-0.403 0.842-0.624 1.296-0.829 1.728-0.102 0.211-0.294 0.614-0.432 0.896-0.134 0.282-0.307 0.64-0.384 0.8-0.074 0.157-0.256 0.531-0.4 0.832-0.144 0.298-0.339 0.701-0.432 0.896-0.093 0.192-0.266 0.554-0.384 0.8s-0.301 0.624-0.403 0.838c-0.144 0.307-0.202 0.394-0.259 0.406-0.054 0.013-2.438 0.406-2.922 0.486-0.074 0.010-0.445 0.074-0.56 0.096-0.045 0.006-0.15 0.022-0.24 0.032-0.086 0.013-0.17 0.026-0.179 0.032-0.013 0.006-0.077 0.019-0.144 0.029-0.070 0.013-0.298 0.048-0.509 0.083s-0.422 0.070-0.47 0.077c-0.051 0.010-0.128 0.022-0.176 0.032-0.051 0.006-0.262 0.042-0.474 0.077s-0.694 0.115-1.072 0.179c-0.659 0.109-0.755 0.125-0.95 0.157-0.051 0.010-0.227 0.038-0.394 0.067s-0.339 0.058-0.384 0.064c-0.166 0.026-0.915 0.147-0.986 0.163-0.067 0.013-0.061 0.026 0.083 0.15 0.086 0.074 0.291 0.256 0.458 0.403 0.166 0.15 0.4 0.358 0.522 0.464 0.118 0.109 0.25 0.224 0.288 0.259 0.042 0.035 0.128 0.115 0.198 0.176s0.246 0.221 0.397 0.352c0.15 0.131 0.416 0.368 0.592 0.528 0.176 0.157 0.429 0.381 0.557 0.496 0.131 0.115 0.304 0.266 0.384 0.339 0.080 0.070 0.371 0.33 0.643 0.573 0.272 0.24 0.547 0.486 0.608 0.541s0.365 0.323 0.672 0.595c0.307 0.272 0.566 0.502 0.576 0.512s0.205 0.182 0.432 0.384c0.23 0.202 0.432 0.381 0.451 0.4 0.019 0.016 0.086 0.077 0.15 0.134l0.118 0.102-0.96 3.85c-0.528 2.118-0.973 3.901-0.992 3.962-0.016 0.061-0.118 0.464-0.227 0.896-0.106 0.432-0.202 0.81-0.208 0.842-0.019 0.058 0.118-0.006 0.515-0.234 0.054-0.032 0.198-0.109 0.32-0.176 0.125-0.067 0.298-0.16 0.384-0.208 0.090-0.048 0.643-0.352 1.232-0.672 1.405-0.765 1.338-0.73 1.744-0.95 0.195-0.109 0.438-0.24 0.544-0.298s0.266-0.144 0.352-0.192c0.339-0.186 1.229-0.669 1.472-0.8 0.141-0.077 0.272-0.147 0.288-0.16 0.019-0.013 0.176-0.099 0.352-0.192s0.336-0.179 0.352-0.192c0.019-0.013 0.163-0.093 0.32-0.176 0.16-0.083 0.413-0.224 0.566-0.31 0.157-0.086 0.307-0.16 0.336-0.16 0.032-0.003 0.352 0.16 0.714 0.358 0.362 0.195 0.742 0.406 0.848 0.464s0.755 0.41 1.44 0.784c1.981 1.082 3.661 1.997 3.92 2.138 0.131 0.070 0.608 0.333 1.056 0.576 0.448 0.246 0.819 0.445 0.822 0.442s-0.534-2.157-1.19-4.787l-1.2-4.784 0.17-0.16c0.090-0.090 0.272-0.253 0.403-0.368 0.285-0.25 0.845-0.746 0.867-0.768 0.010-0.010 0.195-0.176 0.416-0.368 0.221-0.195 0.406-0.358 0.416-0.368s0.339-0.304 0.736-0.656c0.397-0.352 0.726-0.646 0.736-0.656s0.205-0.182 0.432-0.384c0.23-0.202 0.422-0.374 0.432-0.384s0.138-0.125 0.288-0.256c0.147-0.131 0.288-0.256 0.307-0.272 0.019-0.019 0.141-0.128 0.272-0.243 1.478-1.312 1.696-1.51 1.67-1.533-0.013-0.013-0.182-0.045-0.378-0.077-0.192-0.029-0.518-0.080-0.72-0.115s-0.541-0.090-0.752-0.125c-0.211-0.035-0.733-0.122-1.158-0.192-0.429-0.074-1.123-0.189-1.546-0.259s-1.114-0.186-1.536-0.256c-0.422-0.070-1.117-0.186-1.542-0.256-0.429-0.074-1.027-0.173-1.331-0.221-0.307-0.051-0.566-0.102-0.582-0.118-0.013-0.016-0.186-0.362-0.378-0.765-0.192-0.406-0.477-0.995-0.63-1.312s-0.349-0.72-0.432-0.896c-0.083-0.176-0.25-0.522-0.368-0.768-0.282-0.589-0.547-1.136-1.152-2.4-0.093-0.195-0.304-0.634-0.47-0.976s-0.358-0.742-0.426-0.89c-0.070-0.144-0.134-0.262-0.144-0.262s-0.074 0.118-0.144 0.262z"></path>
</svg>
