<!-- Generated by IcoMoon.io -->
<svg version="1.1" xmlns="http://www.w3.org/2000/svg" width="32" height="32" viewBox="0 0 32 32">
<title>Favorite-music</title>
<path fill="#ff7900" d="M15.722 2.966c-0.15 0.314-0.342 0.714-0.426 0.89s-0.243 0.506-0.352 0.736c-0.109 0.227-0.282 0.589-0.384 0.8s-0.285 0.592-0.406 0.848c-0.365 0.755-0.784 1.622-1.178 2.448-0.093 0.192-0.288 0.595-0.432 0.896-0.144 0.298-0.317 0.662-0.387 0.803-0.141 0.294-0.17 0.314-0.528 0.365-0.464 0.064-9.088 1.507-9.139 1.53-0.045 0.019 0.032 0.099 0.368 0.397 0.234 0.205 0.461 0.406 0.506 0.448 0.17 0.154 0.346 0.307 0.749 0.666 0.227 0.202 0.467 0.413 0.528 0.467 0.061 0.058 0.531 0.474 1.040 0.925 0.512 0.454 0.986 0.877 1.056 0.941 0.192 0.173 0.566 0.506 1.68 1.491 0.554 0.493 1.043 0.925 1.085 0.966 0.054 0.048 0.077 0.102 0.077 0.176 0 0.058-0.118 0.573-0.262 1.146s-0.269 1.062-0.275 1.088c-0.048 0.202-0.186 0.752-0.224 0.896-0.042 0.147-0.669 2.662-0.704 2.816-0.006 0.026-0.208 0.829-0.445 1.782-0.24 0.95-0.435 1.75-0.435 1.77 0 0.029 0.022 0.026 0.074-0.010 0.074-0.048 0.736-0.416 1.19-0.662 0.141-0.077 0.55-0.298 0.912-0.496s0.749-0.41 0.864-0.47c0.115-0.064 1.373-0.749 2.8-1.53 3.066-1.674 2.883-1.578 2.989-1.558 0.045 0.010 0.509 0.25 1.027 0.534 1.056 0.579 2.675 1.462 2.944 1.61 0.096 0.051 0.25 0.134 0.336 0.182 0.384 0.211 0.493 0.272 0.688 0.378 1.235 0.669 3.674 2.003 3.706 2.029 0.026 0.022 0.038 0.022 0.038-0.006 0-0.019-0.362-1.482-0.803-3.242-0.442-1.763-0.816-3.258-0.829-3.318-0.032-0.154-0.659-2.608-0.707-2.771-0.061-0.208-0.026-0.272 0.349-0.592 0.189-0.163 0.349-0.304 0.358-0.317 0.010-0.010 0.218-0.195 0.464-0.413 0.246-0.221 0.557-0.496 0.688-0.611 0.131-0.118 0.65-0.579 1.152-1.024s1.021-0.906 1.152-1.024c0.31-0.275 1.165-1.037 1.472-1.309 0.221-0.195 0.483-0.429 1.13-1.008 0.138-0.122 0.272-0.24 0.304-0.262 0.035-0.026 0.045-0.051 0.022-0.070-0.026-0.026-0.746-0.157-1.568-0.285-0.074-0.010-2.682-0.445-3.056-0.506-0.214-0.035-1.59-0.266-3.088-0.512-0.915-0.15-1.702-0.291-1.754-0.31-0.090-0.035-0.144-0.138-0.678-1.258-0.186-0.39-0.413-0.864-0.736-1.536-0.118-0.246-0.291-0.608-0.384-0.8-0.093-0.195-0.266-0.554-0.384-0.8s-0.298-0.621-0.4-0.832c-0.102-0.211-0.304-0.63-0.448-0.928-0.144-0.301-0.326-0.675-0.4-0.832-0.39-0.822-0.624-1.296-0.64-1.296-0.010 0-0.141 0.256-0.294 0.566zM19.123 12.57c0.16 0.080 0.288 0.227 0.374 0.422 0.064 0.141 0.064 0.211 0.064 2.944-0.003 2.797-0.003 2.8-0.074 3.008-0.16 0.477-0.483 0.794-0.934 0.915-1.242 0.336-2.214-1.085-1.494-2.176 0.243-0.365 0.646-0.582 1.13-0.611 0.106-0.006 0.205-0.013 0.214-0.013 0.019-0.003 0.026-2.531 0.006-2.531-0.006 0-0.192 0.051-0.419 0.115-0.224 0.064-0.429 0.122-0.454 0.125-0.026 0.006-0.118 0.032-0.208 0.058-0.086 0.026-0.333 0.093-0.544 0.147-1.126 0.304-2.118 0.582-2.16 0.605-0.038 0.026-0.048 0.355-0.051 2.458-0.003 2.387-0.003 2.432-0.070 2.64-0.173 0.531-0.64 0.906-1.174 0.947-0.518 0.042-0.998-0.192-1.267-0.608-0.163-0.253-0.224-0.461-0.224-0.774 0-0.672 0.368-1.184 0.995-1.389 0.061-0.019 0.218-0.042 0.346-0.048 0.131-0.010 0.246-0.022 0.256-0.035 0.013-0.013 0.022-1.107 0.022-2.435 0-2.096 0.006-2.416 0.048-2.454 0.026-0.026 0.41-0.144 0.848-0.262 0.442-0.118 1.197-0.32 1.68-0.451s0.931-0.25 0.992-0.269c1.152-0.333 1.494-0.413 1.728-0.403 0.166 0.006 0.282 0.029 0.371 0.077z"></path>
</svg>
