<!-- Generated by IcoMoon.io -->
<svg version="1.1" xmlns="http://www.w3.org/2000/svg" width="32" height="32" viewBox="0 0 32 32">
<title>Featured</title>
<path fill="#ff7900" d="M15.168 3.21c-0.010 0.010-0.195 0.022-0.416 0.035-0.429 0.019-1.238 0.118-1.632 0.198-0.307 0.064-0.784 0.221-0.922 0.307-0.058 0.035-0.125 0.096-0.15 0.134-0.022 0.035-0.582 1.485-1.242 3.219s-1.44 3.786-1.734 4.56c-0.298 0.774-0.63 1.651-0.742 1.952-0.544 1.434-2.64 6.938-3.427 8.992l-0.88 2.304v0.288c-0.003 0.317 0.045 0.461 0.24 0.746 0.474 0.698 1.77 1.386 3.53 1.878 0.672 0.189 1.722 0.419 2.394 0.525 0.118 0.019 0.304 0.051 0.416 0.067 0.179 0.029 0.746 0.102 1.11 0.147 0.080 0.006 0.195 0.022 0.256 0.029 0.061 0.010 0.214 0.022 0.336 0.032 0.125 0.010 0.288 0.026 0.368 0.035 0.326 0.035 0.944 0.074 1.632 0.109 0.515 0.022 3.35 0.016 3.712-0.013 0.115-0.010 0.346-0.026 0.512-0.035s0.378-0.026 0.464-0.032c0.512-0.042 0.646-0.054 0.72-0.064 0.045-0.006 0.182-0.019 0.304-0.032 0.346-0.029 1.133-0.138 1.68-0.224 4.010-0.653 6.435-1.92 6.291-3.286-0.010-0.099-0.067-0.31-0.128-0.464-0.141-0.358-0.576-1.501-0.835-2.186-0.243-0.65-0.886-2.336-1.392-3.664-0.208-0.547-0.829-2.173-1.376-3.616s-1.008-2.653-1.024-2.688c-0.016-0.035-0.208-0.547-0.432-1.136-0.221-0.589-0.419-1.107-0.435-1.152-0.019-0.045-0.118-0.304-0.221-0.576s-0.202-0.531-0.221-0.576c-0.086-0.202-1.923-5.056-1.923-5.085 0-0.048-0.186-0.189-0.336-0.259-0.39-0.176-1.075-0.314-2.080-0.416-0.339-0.035-2.387-0.080-2.416-0.054zM16.176 14.758c0.086 0.182 0.371 0.768 0.634 1.306s0.579 1.184 0.701 1.44c0.122 0.256 0.227 0.47 0.234 0.477 0.013 0.013 0.39 0.083 0.592 0.112 0.080 0.010 0.362 0.054 0.624 0.099 0.432 0.074 0.563 0.096 0.768 0.128 0.035 0.006 0.208 0.035 0.384 0.064 0.176 0.032 0.365 0.061 0.416 0.070 0.099 0.013 0.768 0.125 0.912 0.15 0.045 0.006 0.163 0.026 0.266 0.035 0.099 0.013 0.189 0.035 0.198 0.048 0.016 0.026-0.086 0.118-1.376 1.248-0.509 0.445-0.986 0.861-1.056 0.925-0.144 0.128-0.634 0.554-0.653 0.57-0.019 0.013 0.064 0.362 0.57 2.349 0.246 0.979 0.451 1.789 0.451 1.798s-0.224-0.106-0.499-0.253c-0.275-0.15-0.653-0.352-0.842-0.451-0.186-0.099-0.352-0.189-0.371-0.202-0.016-0.013-0.189-0.106-0.384-0.208-0.192-0.102-0.394-0.211-0.448-0.24-0.118-0.067-0.4-0.221-0.864-0.464-0.192-0.102-0.368-0.198-0.387-0.211-0.022-0.019-0.48 0.211-1.2 0.598-2.272 1.226-2.685 1.446-2.685 1.43 0-0.006 0.218-0.874 0.486-1.923 0.266-1.050 0.499-1.978 0.518-2.061l0.032-0.15-0.125-0.106c-0.070-0.058-0.198-0.173-0.288-0.253-0.086-0.080-0.333-0.294-0.544-0.477-0.211-0.186-0.39-0.342-0.4-0.352s-0.182-0.16-0.384-0.336c-0.202-0.176-0.374-0.326-0.384-0.336s-0.237-0.208-0.502-0.445c-0.269-0.234-0.48-0.438-0.47-0.454s0.045-0.029 0.080-0.029c0.061 0 2.048-0.32 2.381-0.381 0.090-0.019 0.224-0.042 0.304-0.054 0.080-0.010 0.173-0.026 0.208-0.032s0.157-0.029 0.272-0.045c0.115-0.019 0.243-0.042 0.285-0.048s0.138-0.022 0.208-0.032c0.074-0.013 0.16-0.026 0.195-0.032s0.096-0.013 0.138-0.013c0.061-0.003 0.115-0.090 0.355-0.589 0.157-0.32 0.435-0.893 0.618-1.27 0.186-0.378 0.451-0.922 0.589-1.21 0.138-0.285 0.259-0.518 0.272-0.518 0.010 0 0.090 0.147 0.173 0.326zM11.722 24.022c-0.198 0.79-0.362 1.498-0.362 1.574 0 0.202 0.058 0.371 0.186 0.515 0.166 0.195 0.33 0.269 0.598 0.272 0.192 0 0.253-0.016 0.426-0.102 0.237-0.122 0.653-0.346 0.79-0.426 0.054-0.029 0.218-0.122 0.368-0.202 0.15-0.077 0.717-0.384 1.261-0.675s0.998-0.531 1.014-0.531c0.022 0 0.253 0.118 0.525 0.272 0.070 0.038 0.272 0.147 0.448 0.24s0.403 0.218 0.506 0.275c0.102 0.061 0.192 0.109 0.195 0.109 0.006 0 0.422 0.221 0.922 0.49 0.502 0.272 0.957 0.509 1.018 0.528 0.278 0.099 0.634-0.006 0.838-0.246 0.141-0.166 0.198-0.362 0.176-0.602-0.010-0.102-0.176-0.803-0.368-1.558l-0.352-1.37 0.262 0.019c0.141 0.013 0.304 0.029 0.355 0.035 0.054 0.006 0.182 0.019 0.288 0.032 0.23 0.026 0.678 0.090 1.344 0.192 0.646 0.102 1.798 0.378 2.384 0.57 1.174 0.387 1.856 0.89 1.856 1.363-0.003 0.56-0.845 1.098-2.4 1.533-0.576 0.163-1.478 0.355-2.061 0.438-0.067 0.010-0.154 0.022-0.192 0.032-0.067 0.013-0.099 0.019-0.547 0.077-0.256 0.035-0.416 0.054-0.688 0.083-0.080 0.010-0.202 0.022-0.272 0.032s-0.227 0.022-0.352 0.032c-0.122 0.010-0.282 0.026-0.352 0.032s-0.266 0.022-0.432 0.032c-0.166 0.013-0.368 0.029-0.448 0.032-1.056 0.083-4.326 0.083-5.296 0.003-0.070-0.006-0.278-0.022-0.464-0.035-0.33-0.019-0.525-0.035-0.784-0.064-0.070-0.006-0.214-0.022-0.32-0.032-0.566-0.058-0.688-0.070-1.328-0.163-1.866-0.272-3.36-0.688-4.154-1.158-0.445-0.266-0.71-0.589-0.71-0.87 0-0.627 1.165-1.274 3.056-1.696 0.141-0.032 0.32-0.074 0.4-0.090 0.163-0.038 1.2-0.218 1.392-0.243 0.070-0.010 0.294-0.038 0.496-0.067 0.669-0.086 0.813-0.102 0.979-0.109l0.16-0.003-0.362 1.43z"></path>
</svg>
