<!-- Generated by IcoMoon.io -->
<svg version="1.1" xmlns="http://www.w3.org/2000/svg" width="32" height="32" viewBox="0 0 32 32">
<title>Filter_effects</title>
<path fill="#ff7900" d="M15.197 2.413c-0.006 0.006-0.141 0.022-0.301 0.032-0.272 0.022-0.634 0.064-0.88 0.102-0.739 0.112-1.085 0.186-1.725 0.368-1.222 0.346-2.522 0.922-3.507 1.558-0.496 0.32-0.586 0.381-0.81 0.544-2.198 1.613-3.875 3.862-4.797 6.438-0.301 0.848-0.582 2.022-0.666 2.8-0.013 0.106-0.029 0.227-0.035 0.272-0.093 0.576-0.080 2.365 0.019 3.13 0.051 0.368 0.051 0.374 0.128 0.79 0.448 2.477 1.578 4.768 3.28 6.656 1.59 1.763 3.562 3.053 5.824 3.808 0.656 0.221 1.67 0.461 2.272 0.541 0.070 0.010 0.23 0.032 0.352 0.048 0.611 0.083 2.118 0.115 2.736 0.058 1.494-0.138 2.755-0.438 4.048-0.963 0.621-0.253 1.52-0.707 1.968-0.995 0.48-0.307 0.637-0.413 0.96-0.65 0.202-0.15 0.419-0.317 0.483-0.371s0.186-0.157 0.272-0.227c0.406-0.333 1.040-0.963 1.472-1.466 1.386-1.61 2.323-3.395 2.87-5.462 0.090-0.336 0.266-1.184 0.291-1.408 0.010-0.080 0.022-0.189 0.032-0.24 0.093-0.525 0.134-2.093 0.074-2.832-0.032-0.432-0.138-1.219-0.211-1.568-0.605-2.957-2.074-5.536-4.294-7.523-2.099-1.882-4.893-3.12-7.613-3.376-0.115-0.010-0.25-0.026-0.304-0.035-0.115-0.016-1.923-0.045-1.939-0.029zM16 4.976v0.979l-0.899-0.899c-0.496-0.493-0.896-0.902-0.89-0.912 0.022-0.019 0.477-0.077 0.797-0.099 0.166-0.013 0.307-0.022 0.31-0.026 0.006-0.003 0.16-0.010 0.346-0.016l0.336-0.006v0.979zM14.182 6.394l1.818 1.821v2.266l-2.621-2.621c-1.443-1.443-2.618-2.634-2.608-2.646 0.042-0.067 1.43-0.634 1.562-0.637 0.016 0 0.848 0.819 1.85 1.818zM12.656 9.405l3.344 3.344v1.114c0 0.611-0.006 1.114-0.013 1.114s-1.802-1.789-3.987-3.974l-3.974-3.974 0.125-0.106c0.346-0.298 1.126-0.883 1.152-0.864 0.003 0.003 1.514 1.51 3.354 3.347zM11.462 12.726l4.538 4.538v2.272l-5.024-5.024c-2.762-2.765-5.024-5.037-5.024-5.053 0-0.074 0.899-1.267 0.954-1.267 0.013 0 2.064 2.042 4.557 4.534zM10.573 16.371l5.427 5.424v2.246l-0.083-0.077c-0.41-0.384-11.405-11.408-11.405-11.434 0.003-0.141 0.57-1.587 0.624-1.587 0.006 0 2.454 2.442 5.437 5.427zM16 27.162v0.842l-0.301-0.006-0.301-0.010-11.395-11.395 0.003-0.624c0.003-0.576 0.022-0.931 0.074-1.373l0.022-0.173 11.898 11.898v0.842zM10.637 25.482c1.51 1.51 2.019 2.035 1.952 2.019-0.451-0.106-1.392-0.48-2.029-0.806-2.010-1.027-3.661-2.566-4.848-4.518-0.47-0.774-1.043-2.074-1.213-2.765-0.016-0.064 0.534 0.467 2.035 1.968 1.133 1.133 2.976 2.979 4.102 4.102z"></path>
</svg>
