<!-- Generated by IcoMoon.io -->
<svg version="1.1" xmlns="http://www.w3.org/2000/svg" width="32" height="32" viewBox="0 0 32 32">
<title>finance</title>
<path fill="#ff7900" d="M19.824 5.53c-0.179 0.019-0.429 0.102-0.822 0.282-0.218 0.099-0.739 0.336-1.162 0.525s-1.062 0.477-1.424 0.64c-0.362 0.163-0.858 0.387-1.104 0.496-0.246 0.112-0.672 0.301-0.944 0.426-0.272 0.122-0.835 0.374-1.248 0.56-0.413 0.182-0.832 0.371-0.928 0.416-0.16 0.074-1.766 0.8-2.934 1.322-1.069 0.48-1.939 0.87-2.218 0.995-0.115 0.054-1.021 0.461-2.016 0.906-0.995 0.448-1.888 0.867-1.987 0.931-0.486 0.326-0.758 0.944-0.672 1.526 0.035 0.227 0.106 0.419 0.435 1.142 0.083 0.182 1.181 2.618 1.312 2.912 0.045 0.106 0.112 0.25 0.144 0.32 0.029 0.070 0.282 0.63 0.56 1.248 0.275 0.614 0.538 1.2 0.582 1.296s0.134 0.298 0.202 0.448c0.154 0.346 0.512 1.146 0.618 1.376 0.045 0.096 0.25 0.55 0.454 1.008 0.483 1.078 0.458 1.024 0.589 1.2 0.157 0.208 0.368 0.378 0.595 0.48 0.173 0.080 0.496 0.17 0.522 0.147 0.003-0.006-0.042-0.102-0.102-0.218-0.061-0.112-0.144-0.32-0.182-0.461l-0.077-0.253v-6c0-5.674 0.003-6.010 0.058-6.202 0.205-0.717 0.701-1.302 1.354-1.59 0.467-0.205-0.15-0.189 7.344-0.208l6.8-0.016-0.438-0.976c-0.243-0.538-0.47-1.040-0.506-1.12-0.128-0.285-0.541-1.203-0.605-1.344-0.035-0.080-0.189-0.426-0.342-0.768-0.304-0.672-0.384-0.81-0.595-1.018-0.304-0.291-0.829-0.47-1.261-0.429z"></path>
<path fill="#ff7900" d="M10.112 12.022c-0.045 0.006-0.179 0.051-0.298 0.096-0.467 0.173-0.832 0.589-0.966 1.101-0.070 0.259-0.070 11.702 0 11.962 0.112 0.429 0.461 0.87 0.822 1.040 0.406 0.192-0.278 0.179 9.539 0.179 7.696 0 9.024-0.006 9.171-0.048 0.528-0.138 0.934-0.509 1.13-1.027l0.074-0.189 0.010-5.824c0.006-4.24 0-5.875-0.026-6.016-0.115-0.595-0.586-1.088-1.2-1.251-0.131-0.035-1.75-0.045-9.168-0.038-4.954 0-9.043 0.010-9.088 0.016zM27.594 13.709c0.083 0.048 0.189 0.138 0.23 0.192 0.163 0.211 0.176 0.314 0.176 1.238v0.861h-17.6v-0.874c0.003-0.624 0.016-0.902 0.045-0.986 0.083-0.234 0.298-0.442 0.525-0.509 0.048-0.016 3.773-0.026 8.278-0.022l8.192 0.006 0.154 0.093zM27.994 21.318l-0.010 2.922-0.086 0.147c-0.096 0.163-0.266 0.307-0.438 0.368-0.093 0.035-1.712 0.042-8.246 0.045-9.123 0-8.31 0.022-8.573-0.24-0.253-0.25-0.24-0.083-0.24-3.302v-2.858h17.603l-0.010 2.918z"></path>
<path fill="#ff7900" d="M12.534 21.651c-0.294 0.090-0.534 0.429-0.534 0.749 0 0.317 0.234 0.646 0.528 0.746 0.131 0.045 0.301 0.054 1.085 0.054 1.005-0.003 1.066-0.010 1.28-0.176 0.486-0.371 0.352-1.174-0.227-1.373-0.211-0.074-1.898-0.070-2.131 0z"></path>
<path fill="#ff7900" d="M16.579 21.632c-0.154 0.035-0.358 0.195-0.461 0.358-0.259 0.413-0.048 1.002 0.41 1.155 0.221 0.077 1.92 0.080 2.131 0.006 0.192-0.067 0.333-0.186 0.435-0.362 0.077-0.128 0.090-0.186 0.086-0.39 0-0.275-0.045-0.384-0.237-0.576-0.205-0.205-0.32-0.224-1.357-0.221-0.496 0.003-0.947 0.016-1.008 0.029z"></path>
<path fill="#ff7900" d="M20.624 21.622c-0.138 0.029-0.346 0.157-0.435 0.262-0.266 0.323-0.243 0.787 0.058 1.078 0.237 0.23 0.307 0.243 1.424 0.23 0.966-0.010 0.97-0.010 1.11-0.090 0.234-0.134 0.374-0.346 0.406-0.618 0.042-0.346-0.157-0.682-0.486-0.826-0.134-0.054-0.221-0.061-1.078-0.058-0.515 0.003-0.963 0.010-0.998 0.019z"></path>
</svg>
