<!-- Generated by IcoMoon.io -->
<svg version="1.1" xmlns="http://www.w3.org/2000/svg" width="32" height="32" viewBox="0 0 32 32">
<title>Fire_extinguisher</title>
<path fill="#ff7900" d="M11.52 2.451c-0.618 0.131-1.168 0.506-1.517 1.034-0.522 0.79-0.534 1.802-0.026 2.595 0.083 0.134 0.118 0.211 0.093 0.221-0.022 0.006-0.211 0.096-0.422 0.198-2.547 1.238-4.362 3.67-4.819 6.467-0.096 0.576 0.154 1.069 0.659 1.322 0.173 0.083 0.224 0.093 0.496 0.096 0.349 0 0.499-0.048 0.755-0.24 0.227-0.17 0.355-0.384 0.432-0.723 0.154-0.666 0.266-1.072 0.384-1.373 0.71-1.789 2.195-3.168 4.058-3.76 0.163-0.054 0.32-0.096 0.342-0.096 0.035 0 0.045 0.086 0.045 0.422v0.426l-0.202 0.058c-0.253 0.077-0.864 0.365-1.174 0.56-0.314 0.195-0.698 0.502-0.979 0.787-0.739 0.746-1.219 1.59-1.472 2.586-0.176 0.694-0.17 0.307-0.17 8.81-0.003 8.842-0.026 8.058 0.237 8.32 0.259 0.259-0.163 0.243 5.408 0.234l4.96-0.010 0.157-0.080c0.086-0.045 0.198-0.131 0.25-0.192 0.202-0.243 0.189 0.339 0.176-8.419-0.010-7.376-0.013-8-0.064-8.253-0.406-2.016-1.683-3.555-3.542-4.272-0.288-0.112-0.794-0.253-1.037-0.288l-0.147-0.022v-0.858h3.2v0.794l0.090 0.019c0.048 0.010 0.259 0.048 0.47 0.083 0.211 0.032 0.736 0.122 1.168 0.192 0.851 0.141 1.328 0.221 1.914 0.317 0.205 0.035 0.986 0.166 1.734 0.291s1.44 0.24 1.536 0.256c0.096 0.016 0.528 0.086 0.96 0.16s0.95 0.16 1.152 0.192c0.202 0.032 0.416 0.070 0.474 0.083l0.102 0.019v-7.216l-0.102 0.022c-0.093 0.019-1.030 0.176-1.712 0.291-0.051 0.006-0.176 0.029-0.282 0.045-0.256 0.045-2.218 0.371-2.8 0.467-2.608 0.432-3.398 0.563-3.536 0.592-0.086 0.016-0.346 0.061-0.576 0.096-0.227 0.035-0.454 0.074-0.502 0.083l-0.090 0.019v0.794h-3.2v-0.512c0-0.346-0.016-0.595-0.051-0.762-0.186-0.896-0.861-1.613-1.741-1.85-0.272-0.070-0.819-0.083-1.088-0.026zM12.374 4.099c0.406 0.211 0.544 0.755 0.288 1.139-0.368 0.547-1.21 0.438-1.414-0.179-0.224-0.682 0.486-1.286 1.126-0.96z"></path>
</svg>
