<!-- Generated by IcoMoon.io -->
<svg version="1.1" xmlns="http://www.w3.org/2000/svg" width="32" height="32" viewBox="0 0 32 32">
<title>Firewall</title>
<path fill="#ff7900" d="M15.376 1.725c-0.394 0.214-0.662 0.419-1.024 0.784-0.656 0.662-1.082 1.453-1.338 2.499-0.195 0.787-0.243 1.315-0.227 2.496 0.006 0.566-0.003 1.040-0.022 1.152-0.099 0.586-0.41 1.226-0.886 1.824-0.192 0.24-0.611 0.688-0.646 0.688-0.010 0 0.013-0.134 0.054-0.298 0.269-1.059 0.189-2.061-0.237-2.915-0.186-0.381-0.384-0.653-0.694-0.966-0.218-0.214-0.717-0.608-0.739-0.582-0.006 0.006 0.013 0.125 0.038 0.266 0.109 0.634 0.035 1.293-0.218 1.885-0.154 0.362-0.33 0.666-0.781 1.347-0.608 0.922-0.726 1.117-0.922 1.523-0.464 0.96-0.608 1.763-0.522 2.909 0.010 0.15 0.026 0.307 0.035 0.352s0.026 0.131 0.035 0.192c0.16 1.005 0.627 2.048 1.274 2.848 0.435 0.534 1.088 1.104 1.718 1.498 0.317 0.195 0.931 0.496 1.277 0.624 0.493 0.179 0.461 0.189 0.32-0.096-0.067-0.138-0.163-0.381-0.211-0.538-0.080-0.256-0.090-0.339-0.090-0.752 0-0.624 0.102-0.986 0.429-1.52 0.202-0.33 0.333-0.483 1.011-1.152 0.781-0.771 1.12-1.206 1.43-1.824 0.294-0.592 0.445-1.299 0.374-1.766-0.013-0.077-0.013-0.128 0-0.115 0.032 0.032 0.368 0.883 0.416 1.050 0.019 0.070 0.058 0.198 0.083 0.288 0.163 0.56 0.214 1.274 0.128 1.709-0.131 0.65-0.326 0.986-1.187 2.067-0.57 0.714-0.781 1.066-0.96 1.594-0.528 1.581-0.090 3.613 1.222 5.629 0.109 0.17 0.214 0.317 0.234 0.33s0.032-0.022 0.035-0.086c0-0.058 0.006-0.128 0.010-0.154 0.006-0.026 0.019-0.128 0.032-0.224 0.086-0.685 0.454-1.411 0.95-1.872 0.448-0.419 0.851-0.669 2.077-1.283 1.318-0.662 1.542-0.8 2.192-1.322 1.539-1.242 2.589-2.49 3.248-3.859 0.342-0.71 0.57-1.491 0.666-2.272 0.042-0.362 0.022-1.354-0.038-1.728-0.256-1.6-0.966-3.085-2.157-4.525-0.326-0.394-0.902-1.005-0.925-0.982-0.010 0.010 0.029 0.147 0.080 0.314 0.253 0.787 0.358 1.453 0.342 2.202-0.022 1.235-0.355 2.166-1.126 3.178-0.339 0.442-1.094 1.101-1.568 1.37l-0.17 0.093 0.131-0.198c0.79-1.216 1.018-2.912 0.586-4.4-0.285-0.986-0.733-1.754-1.542-2.627-1.027-1.11-1.571-1.923-1.888-2.829-0.218-0.614-0.275-1.328-0.141-1.747 0.035-0.109 0.061-0.198 0.058-0.198 0 0-0.102 0.058-0.227 0.125z"></path>
<path fill="#ff7900" d="M3.2 13.2v2h1.242c1.434 0 1.488-0.006 1.718-0.237 0.243-0.243 0.243-0.266 0.234-1.834l-0.010-1.37-0.090-0.15c-0.048-0.083-0.138-0.189-0.198-0.237-0.218-0.166-0.256-0.17-1.622-0.173h-1.274v2z"></path>
<path fill="#ff7900" d="M25.331 11.248c-0.179 0.064-0.342 0.208-0.435 0.387l-0.080 0.154-0.010 1.357c-0.010 1.549-0.006 1.574 0.234 1.814 0.24 0.243 0.224 0.24 2.102 0.24h1.658v-4h-1.67c-1.341 0.003-1.699 0.013-1.798 0.048z"></path>
<path fill="#ff7900" d="M3.744 16.048c-0.202 0.064-0.365 0.211-0.464 0.416l-0.083 0.176 0.010 1.402 0.010 1.398 0.086 0.147c0.096 0.163 0.24 0.285 0.422 0.362 0.109 0.045 0.454 0.051 3.2 0.048 2.39 0 3.062-0.010 3.018-0.038-0.032-0.022-0.17-0.112-0.307-0.198-0.867-0.563-1.67-1.379-2.198-2.23-0.221-0.355-0.47-0.867-0.605-1.242l-0.096-0.272-1.424-0.006c-1.146-0.003-1.453 0.003-1.568 0.038z"></path>
<path fill="#ff7900" d="M23.987 16.358c-0.499 1.037-1.21 1.99-2.237 3.008l-0.541 0.534 0.118 0.048c0.106 0.045 0.509 0.051 3.453 0.051 3.744 0 3.517 0.016 3.776-0.237 0.246-0.24 0.246-0.259 0.237-1.834l-0.010-1.37-0.090-0.15c-0.048-0.083-0.138-0.189-0.198-0.237-0.227-0.173-0.246-0.173-2.371-0.173h-1.965l-0.173 0.358z"></path>
<path fill="#ff7900" d="M3.2 22.8v2l1.274-0.003c1.136 0 1.286-0.006 1.408-0.058 0.211-0.083 0.346-0.208 0.438-0.403l0.083-0.179-0.019-2.797-0.090-0.15c-0.048-0.083-0.138-0.189-0.198-0.237-0.214-0.163-0.307-0.173-1.654-0.173h-1.242v2z"></path>
<path fill="#ff7900" d="M7.731 20.851c-0.182 0.067-0.326 0.186-0.426 0.358l-0.090 0.15-0.010 1.36c-0.006 0.982 0 1.398 0.029 1.498 0.054 0.192 0.192 0.371 0.371 0.477l0.154 0.090 6.038 0.016-0.070-0.118c-0.31-0.518-0.768-1.392-0.768-1.466 0-0.010-0.029-0.077-0.064-0.154-0.208-0.454-0.426-1.194-0.534-1.834l-0.054-0.323-0.198-0.051c-0.176-0.048-0.435-0.054-2.227-0.051-1.674 0-2.048 0.010-2.15 0.048z"></path>
<path fill="#ff7900" d="M19.869 20.941c-0.352 0.237-0.739 0.448-1.661 0.912-0.906 0.458-0.954 0.483-1.162 0.611-0.422 0.256-0.73 0.509-0.922 0.755l-0.125 0.163v0.368c0 0.448 0.051 0.621 0.24 0.81 0.253 0.253 0.029 0.24 3.763 0.24 3.61 0 3.456 0.006 3.699-0.179 0.058-0.042 0.144-0.147 0.192-0.23l0.090-0.15 0.010-1.37c0.010-1.565 0.006-1.59-0.234-1.83s-0.227-0.24-2.061-0.24h-1.619l-0.211 0.141z"></path>
<path fill="#ff7900" d="M25.315 20.854c-0.189 0.067-0.397 0.278-0.461 0.474-0.048 0.134-0.054 0.333-0.054 1.491 0 1.146 0.006 1.35 0.051 1.456 0.077 0.182 0.195 0.32 0.358 0.419l0.15 0.090 3.44 0.019v-4.003l-1.67 0.003c-1.43 0-1.693 0.010-1.814 0.051z"></path>
<path fill="#ff7900" d="M3.715 25.654c-0.077 0.029-0.205 0.112-0.278 0.186-0.23 0.23-0.237 0.278-0.237 1.776 0 1.475 0.003 1.498 0.237 1.741 0.253 0.259 0.019 0.246 3.811 0.237l3.36-0.010 0.157-0.080c0.179-0.093 0.291-0.214 0.378-0.413 0.058-0.134 0.061-0.227 0.051-1.536l-0.010-1.395-0.090-0.15c-0.048-0.083-0.134-0.189-0.192-0.23-0.243-0.186-0.086-0.179-3.715-0.176-2.931 0-3.347 0.006-3.472 0.051z"></path>
<path fill="#ff7900" d="M12.522 25.654c-0.189 0.067-0.403 0.282-0.467 0.474-0.048 0.134-0.054 0.33-0.054 1.472 0 1.498 0.003 1.526 0.24 1.76 0.253 0.253 0.029 0.24 3.76 0.24 3.635 0 3.475 0.010 3.715-0.189 0.061-0.051 0.15-0.173 0.198-0.269l0.086-0.179v-1.341c0-1.456-0.003-1.488-0.179-1.722-0.048-0.061-0.154-0.15-0.234-0.198l-0.147-0.086-1.942-0.010c-1.565-0.006-1.946 0-1.946 0.032 0 0.022-0.010 0.186-0.019 0.362-0.016 0.33-0.038 0.794-0.042 0.954-0.003 0.080-0.035 0.051-0.266-0.256-0.147-0.192-0.394-0.518-0.554-0.723l-0.288-0.374-0.864 0.003c-0.682 0-0.893 0.013-0.998 0.051z"></path>
<path fill="#ff7900" d="M21.315 25.654c-0.189 0.067-0.39 0.275-0.461 0.477-0.051 0.147-0.058 0.282-0.048 1.536 0.010 1.536 0 1.466 0.25 1.709 0.24 0.237 0.042 0.224 3.728 0.224 3.715 0 3.514 0.013 3.77-0.234 0.25-0.243 0.25-0.259 0.24-1.837l-0.010-1.376-0.096-0.154c-0.112-0.182-0.304-0.326-0.483-0.368-0.070-0.019-1.552-0.029-3.437-0.029-2.915 0.003-3.328 0.006-3.453 0.051z"></path>
</svg>
