<!-- Generated by IcoMoon.io -->
<svg version="1.1" xmlns="http://www.w3.org/2000/svg" width="32" height="32" viewBox="0 0 32 32">
<title>fire</title>
<path fill="#ff7900" d="M15.456 2.634c-0.854 0.678-1.478 1.517-1.827 2.442-0.122 0.323-0.259 0.854-0.298 1.149-0.051 0.39-0.058 0.515-0.058 0.88 0 1.021 0.176 1.965 0.589 3.136 0.070 0.202 0.17 0.49 0.224 0.64 0.115 0.333 0.147 0.822 0.074 1.136-0.070 0.298-0.282 0.682-0.515 0.938-0.333 0.365-0.954 0.742-1.219 0.742-0.067 0-0.077-0.013-0.064-0.074 0.010-0.038 0.054-0.23 0.102-0.422 0.157-0.656 0.131-1.526-0.064-2.138-0.086-0.262-0.272-0.691-0.397-0.902-0.173-0.298-0.592-0.848-0.624-0.813-0.006 0.006 0.013 0.157 0.045 0.333 0.147 0.806-0.090 1.325-1.12 2.48-1.35 1.51-1.734 2.026-2.176 2.931-0.208 0.416-0.483 1.165-0.528 1.418-0.010 0.061-0.026 0.118-0.032 0.131-0.016 0.029-0.138 0.733-0.163 0.96-0.067 0.586-0.019 1.626 0.102 2.205 0.186 0.912 0.624 2 1.030 2.576 0.762 1.072 2.336 2.358 2.582 2.109 0.061-0.058 0.061-0.128 0-0.301-0.198-0.56-0.301-1.469-0.224-1.997 0.077-0.534 0.182-0.893 0.384-1.312 0.176-0.368 0.339-0.611 0.614-0.912 0.346-0.381 0.746-0.682 1.29-0.966 1.501-0.784 2.467-1.779 2.845-2.925l0.093-0.285 0.144 0.304c0.288 0.608 0.374 0.982 0.362 1.594-0.013 0.586-0.112 1.037-0.368 1.677-0.266 0.672-0.781 1.536-1.382 2.333-0.771 1.018-1.174 2.070-1.299 3.389-0.029 0.32-0.029 1.133 0 1.472 0.109 1.222 0.477 2.461 0.864 2.899 0.269 0.307 0.368 0.141 0.378-0.643 0.003-0.246 0.026-0.547 0.051-0.666 0.218-1.053 0.986-2.022 2.33-2.941 0.349-0.24 0.89-0.579 1.168-0.736 0.81-0.454 2.192-1.309 2.694-1.661 2.029-1.437 3.085-3.2 3.466-5.789 0.067-0.454 0.077-0.618 0.067-1.184-0.006-0.362-0.019-0.691-0.029-0.736s-0.026-0.15-0.038-0.234c-0.198-1.568-1.059-3.354-2.246-4.653-0.227-0.25-0.573-0.547-0.602-0.518-0.006 0.010 0.016 0.080 0.051 0.157 0.205 0.448 0.301 1.155 0.301 2.176 0 1.13-0.131 2.138-0.365 2.778-0.298 0.819-0.954 1.603-1.763 2.102-0.131 0.077-0.24 0.138-0.246 0.131s0.051-0.118 0.128-0.246c0.72-1.222 1.021-2.787 0.906-4.733-0.042-0.746-0.173-1.213-0.563-2-0.493-1.005-1.216-2.054-2.694-3.907-0.912-1.149-1.085-1.405-1.338-1.99-0.214-0.496-0.298-0.88-0.301-1.373-0.003-0.234-0.003-0.426-0.003-0.426-0.003 0-0.154 0.118-0.336 0.266z"></path>
</svg>
