<!-- Generated by IcoMoon.io -->
<svg version="1.1" xmlns="http://www.w3.org/2000/svg" width="32" height="32" viewBox="0 0 32 32">
<title>flexible_storage</title>
<path fill="#ff7900" d="M18.256 6.451c-0.384 0.045-1.002 0.15-1.184 0.205-1.094 0.323-1.674 0.566-2.384 0.992-0.432 0.259-0.998 0.669-1.283 0.928-0.253 0.23-0.736 0.723-0.88 0.896l-0.176 0.214-0.246-0.045c-0.336-0.058-0.998-0.032-1.341 0.051-1.434 0.355-2.509 1.491-2.739 2.899l-0.042 0.256-0.288 0.051c-0.4 0.070-0.678 0.144-1.085 0.294-2.131 0.778-3.674 2.605-4.099 4.848-0.122 0.637-0.125 1.584-0.013 2.275 0.163 0.973 0.666 2.083 1.309 2.883 0.278 0.346 0.858 0.915 1.107 1.088 0.899 0.624 1.568 0.938 2.416 1.139 0.726 0.173 0.381 0.166 9.552 0.16 4.682-0.003 8.557-0.016 8.608-0.029 0.054-0.013 0.176-0.038 0.272-0.058 0.285-0.054 0.701-0.186 0.976-0.31 1.373-0.621 2.355-1.789 2.717-3.226 0.099-0.4 0.112-0.483 0.134-0.957 0.054-1.005-0.227-2.016-0.803-2.88-0.23-0.346-0.483-0.634-0.845-0.954l-0.138-0.125 0.051-0.259c0.026-0.144 0.058-0.326 0.067-0.406s0.026-0.195 0.035-0.256c0.045-0.307 0.045-1.354 0-1.792-0.304-2.944-1.978-5.459-4.579-6.877-0.854-0.467-1.862-0.81-2.784-0.947-0.192-0.029-0.394-0.058-0.448-0.067-0.237-0.038-1.523-0.035-1.888 0.006zM17.632 13.027c0 1.139 0.013 1.248 0.208 1.549 0.134 0.211 0.304 0.355 0.56 0.477l0.208 0.099 2.192 0.019v6.429l-6.64-0.016-0.16-0.099c-0.173-0.106-0.317-0.285-0.368-0.461-0.019-0.074-0.032-1.645-0.032-4.57v-4.454h4.032v1.027zM20.768 14.544c0 0.010-0.474 0.016-1.050 0.010l-1.053-0.010-0.131-0.093c-0.074-0.051-0.166-0.144-0.208-0.208-0.067-0.112-0.070-0.141-0.080-1.181l-0.010-1.069 1.264 1.267c0.698 0.694 1.267 1.274 1.267 1.283z"></path>
</svg>
