<!-- Generated by IcoMoon.io -->
<svg version="1.1" xmlns="http://www.w3.org/2000/svg" width="32" height="32" viewBox="0 0 32 32">
<title>folder_camera</title>
<path fill="#ff7900" d="M3.2 15.094c0 10.566-0.019 9.706 0.227 10.211 0.243 0.502 0.723 0.883 1.296 1.030 0.243 0.064 0.41 0.064 12.163 0.064h11.914v-7.898c0-6.806-0.006-7.926-0.048-8.118-0.154-0.73-0.736-1.331-1.475-1.52-0.243-0.064-0.368-0.064-6.56-0.064h-6.31l-0.070-0.090c-0.038-0.048-0.579-0.765-1.197-1.59l-1.13-1.504-8.81-0.016v9.494zM12.515 11.728c0.227 0.16 0.266 0.262 0.282 0.694l0.010 0.378 9.802 0.016 0.128 0.070c0.15 0.080 0.304 0.237 0.387 0.394 0.058 0.109 0.061 0.294 0.070 4.618l0.006 4.502-6.902-0.006c-6.666-0.010-6.909-0.013-7.018-0.070-0.157-0.083-0.314-0.237-0.394-0.387l-0.070-0.128-0.010-4.506-0.006-4.502h1.6v-0.336c0-0.474 0.086-0.656 0.368-0.787 0.115-0.054 0.202-0.061 0.87-0.054l0.739 0.010 0.138 0.096z"></path>
<path fill="#ff7900" d="M10.624 14.042c-0.163 0.080-0.224 0.224-0.224 0.544 0 0.317 0.051 0.461 0.198 0.55 0.099 0.061 0.16 0.064 1.002 0.064s0.902-0.003 1.002-0.064c0.144-0.090 0.198-0.234 0.198-0.544s-0.054-0.454-0.198-0.544c-0.099-0.061-0.16-0.064-0.986-0.064-0.774 0-0.893 0.006-0.992 0.058z"></path>
<path fill="#ff7900" d="M16.336 14.432c-0.669 0.099-1.306 0.422-1.792 0.912-0.416 0.416-0.691 0.896-0.838 1.45-0.115 0.432-0.122 1.133-0.016 1.552 0.294 1.178 1.155 2.042 2.358 2.365 0.211 0.058 0.339 0.070 0.752 0.067 0.429 0 0.538-0.013 0.806-0.083 0.538-0.144 1.034-0.426 1.421-0.806 0.298-0.294 0.461-0.518 0.63-0.864 0.17-0.342 0.198-0.432 0.278-0.819 0.208-1.037-0.128-2.118-0.893-2.877-0.48-0.474-1.040-0.762-1.715-0.88-0.291-0.051-0.717-0.058-0.992-0.016z"></path>
</svg>
