<!-- Generated by IcoMoon.io -->
<svg version="1.1" xmlns="http://www.w3.org/2000/svg" width="32" height="32" viewBox="0 0 32 32">
<title>folder_favourite</title>
<path fill="#ff7900" d="M3.2 15.094c0 10.566-0.019 9.706 0.227 10.211 0.243 0.502 0.723 0.883 1.296 1.030 0.243 0.064 0.41 0.064 12.163 0.064h11.914v-7.898c0-8.787 0.016-8.115-0.227-8.608-0.246-0.502-0.73-0.886-1.296-1.030-0.243-0.064-0.381-0.064-6.56-0.064h-6.31l-0.070-0.090c-0.038-0.048-0.579-0.765-1.197-1.59l-1.13-1.504-8.81-0.016v9.494zM16.512 13.069c0 0.010 0.339 0.717 0.886 1.843 0.15 0.307 0.285 0.592 0.301 0.63 0.032 0.083-0.003 0.074 0.797 0.202 0.342 0.054 0.688 0.112 0.768 0.128s0.685 0.118 1.344 0.227c0.659 0.106 1.21 0.205 1.222 0.218 0.013 0.010-0.067 0.099-0.176 0.192-0.109 0.096-0.314 0.275-0.454 0.403s-0.314 0.278-0.384 0.339c-0.070 0.061-0.134 0.118-0.144 0.128-0.013 0.016-1.219 1.088-1.712 1.523l-0.189 0.166 0.515 2.058c0.282 1.133 0.512 2.061 0.506 2.067s-1.034-0.544-1.584-0.851c-0.080-0.042-0.224-0.122-0.32-0.173-0.403-0.221-0.688-0.374-1.264-0.688l-0.608-0.333-0.16 0.080c-0.086 0.045-0.246 0.128-0.352 0.189-0.173 0.096-0.854 0.467-1.184 0.646-0.189 0.102-0.538 0.294-0.848 0.464-0.15 0.083-0.387 0.211-0.528 0.288s-0.355 0.192-0.477 0.262c-0.122 0.067-0.227 0.118-0.234 0.109-0.010-0.006 0.218-0.931 0.499-2.058l0.512-2.042-0.134-0.128c-0.074-0.070-0.208-0.192-0.294-0.269-0.090-0.077-0.726-0.646-1.421-1.264l-1.261-1.123 1.485-0.246c0.816-0.134 1.539-0.253 1.603-0.266 0.586-0.096 1.062-0.176 1.066-0.182 0.006-0.006 0.045-0.090 0.090-0.186s0.192-0.406 0.326-0.688c0.138-0.282 0.317-0.656 0.4-0.832s0.278-0.579 0.432-0.896c0.154-0.317 0.32-0.666 0.374-0.778l0.096-0.202 0.253 0.515c0.138 0.285 0.253 0.522 0.253 0.525z"></path>
</svg>
