<!-- Generated by IcoMoon.io -->
<svg version="1.1" xmlns="http://www.w3.org/2000/svg" width="32" height="32" viewBox="0 0 32 32">
<title>folder_sd</title>
<path fill="#ff7900" d="M3.2 15.094c0 10.566-0.019 9.706 0.227 10.211 0.243 0.502 0.723 0.883 1.296 1.030 0.243 0.064 0.41 0.064 12.163 0.064h11.914v-7.898c0-6.806-0.006-7.926-0.048-8.118-0.154-0.73-0.736-1.331-1.475-1.52-0.243-0.064-0.368-0.064-6.56-0.064h-6.31l-0.070-0.090c-0.038-0.048-0.579-0.765-1.197-1.59l-1.13-1.504-8.81-0.016v9.494zM20.56 11.312c0.173 0.106 0.317 0.288 0.368 0.464 0.019 0.074 0.032 1.93 0.029 5.472 0 4.96-0.003 5.376-0.054 5.571-0.147 0.554-0.646 1.027-1.216 1.146-0.237 0.048-7.616 0.048-7.853 0-0.256-0.054-0.547-0.205-0.749-0.387-0.202-0.186-0.304-0.336-0.426-0.618l-0.083-0.192-0.010-2.182-0.010-2.179 0.643-0.643 0.64-0.643v-2.621c0-2.842-0.006-2.762 0.176-2.998 0.093-0.118 0.269-0.237 0.413-0.272 0.054-0.013 1.872-0.019 4.038-0.019l3.939 0.006 0.154 0.096z"></path>
<path fill="#ff7900" d="M12.864 13.84v1.36h1.28v-2.72h-1.28v1.36z"></path>
<path fill="#ff7900" d="M14.784 13.84v1.36h1.28v-2.72h-1.28v1.36z"></path>
<path fill="#ff7900" d="M16.704 13.84v1.36h1.28v-2.72h-1.28v1.36z"></path>
<path fill="#ff7900" d="M18.624 13.84v1.36h1.28v-2.72h-1.28v1.36z"></path>
</svg>
