<!-- Generated by IcoMoon.io -->
<svg version="1.1" xmlns="http://www.w3.org/2000/svg" width="32" height="32" viewBox="0 0 32 32">
<title>football</title>
<path fill="#ff7900" d="M15.261 2.445c-0.006 0.006-0.16 0.019-0.342 0.032-0.179 0.013-0.346 0.029-0.368 0.035-0.019 0.006-0.131 0.019-0.246 0.029s-0.24 0.026-0.282 0.035c-0.042 0.006-0.243 0.042-0.448 0.077-2.851 0.496-5.613 2.029-7.597 4.214-1.469 1.619-2.493 3.485-3.082 5.61-0.189 0.682-0.352 1.619-0.422 2.451-0.038 0.445-0.029 1.971 0.019 2.4 0.31 2.941 1.443 5.526 3.379 7.725 0.33 0.378 1.046 1.072 1.408 1.363 0.086 0.070 0.198 0.166 0.253 0.211 0.73 0.608 1.965 1.36 2.966 1.802 1.296 0.573 2.858 0.992 4.061 1.091 0.131 0.013 0.275 0.029 0.32 0.038s0.483 0.019 0.976 0.026c0.966 0.006 1.606-0.035 2.368-0.163 2.15-0.358 4.205-1.232 5.92-2.518 0.685-0.515 1.606-1.366 2.083-1.926 0.506-0.595 0.666-0.8 1.021-1.325 0.742-1.101 1.242-2.109 1.651-3.331 0.211-0.637 0.307-0.992 0.442-1.68 0.102-0.515 0.109-0.56 0.186-1.168 0.054-0.464 0.080-1.997 0.038-2.464-0.144-1.606-0.477-2.976-1.056-4.33-0.352-0.822-0.646-1.36-1.174-2.16-1.901-2.877-4.806-4.909-8.17-5.718-0.493-0.118-1.293-0.256-1.693-0.288-0.131-0.013-0.275-0.029-0.32-0.038-0.093-0.016-1.872-0.045-1.891-0.029zM12.57 5.27c-0.55 1.075-0.566 1.11-0.544 1.133 0.013 0.013 0.432 0.182 0.934 0.381s1.398 0.554 1.994 0.787l1.078 0.429 1.93-0.771c1.059-0.426 1.958-0.784 2-0.8 0.070-0.026 0.058-0.051-0.41-0.989-0.262-0.528-0.48-0.966-0.48-0.973 0-0.022 0.493 0.122 0.896 0.259 2.109 0.73 4.045 2.099 5.437 3.846 0.256 0.323 0.714 0.966 0.701 0.982-0.006 0.003-0.176-0.019-0.378-0.051-0.202-0.035-0.461-0.077-0.576-0.093-0.115-0.019-0.435-0.070-0.717-0.115-0.278-0.045-0.512-0.077-0.518-0.074-0.013 0.016-0.051 0.522-0.093 1.226-0.006 0.106-0.019 0.342-0.032 0.528-0.032 0.486-0.038 0.582-0.061 1.008-0.013 0.211-0.029 0.426-0.035 0.48-0.010 0.080-0.042 0.602-0.061 0.989-0.003 0.080 0.208 0.349 1.357 1.734 0.749 0.902 1.376 1.638 1.398 1.635s0.39-0.355 0.819-0.781c0.781-0.771 0.784-0.774 0.8-0.672 0.019 0.125 0 1.613-0.026 1.814-0.093 0.79-0.179 1.258-0.336 1.891-0.243 0.957-0.682 2.048-1.178 2.909-0.336 0.589-1.082 1.654-1.174 1.686-0.022 0.006-0.051-0.099-0.074-0.253-0.045-0.291-0.093-0.611-0.198-1.274-0.038-0.237-0.077-0.49-0.086-0.56s-0.026-0.138-0.035-0.15c-0.013-0.013-0.131 0.006-0.262 0.042-0.282 0.074-2.355 0.605-3.29 0.842l-0.653 0.166-0.211 0.342c-0.118 0.189-0.624 0.992-1.126 1.786-0.502 0.797-0.922 1.462-0.934 1.482-0.019 0.035 0.266 0.192 1.613 0.883 0.227 0.115 0.41 0.218 0.41 0.23 0 0.058-1.085 0.406-1.728 0.554-0.928 0.211-1.638 0.288-2.704 0.288-1.136 0-1.878-0.090-2.938-0.355-0.528-0.131-1.555-0.474-1.523-0.506 0.013-0.013 0.87-0.451 1.702-0.874 0.189-0.096 0.342-0.186 0.342-0.198s-0.045-0.096-0.102-0.182c-0.208-0.323-0.32-0.499-0.922-1.453-0.339-0.538-0.662-1.050-0.72-1.136-0.058-0.090-0.198-0.314-0.317-0.506-0.118-0.189-0.24-0.355-0.269-0.371-0.032-0.016-0.55-0.154-1.158-0.307s-1.52-0.384-2.032-0.512c-0.509-0.131-0.938-0.227-0.95-0.214-0.010 0.013-0.086 0.432-0.17 0.934-0.080 0.502-0.166 0.998-0.186 1.104l-0.038 0.189-0.275-0.365c-1.322-1.77-2.131-3.795-2.349-5.888-0.013-0.115-0.029-0.237-0.038-0.272-0.026-0.115-0.045-1.629-0.022-1.738l0.022-0.109 0.778 0.778c0.774 0.771 0.781 0.778 0.842 0.717 0.061-0.064 0.806-0.957 1.027-1.232 0.061-0.077 0.163-0.198 0.224-0.272 0.198-0.23 1.293-1.555 1.386-1.674 0.077-0.102 0.086-0.138 0.074-0.262-0.010-0.080-0.026-0.304-0.035-0.496-0.010-0.195-0.026-0.41-0.032-0.48s-0.022-0.288-0.032-0.48c-0.010-0.195-0.026-0.41-0.032-0.48s-0.022-0.294-0.035-0.496c-0.013-0.202-0.026-0.419-0.029-0.48-0.006-0.061-0.019-0.272-0.032-0.464-0.013-0.195-0.029-0.403-0.032-0.464-0.006-0.061-0.013-0.154-0.013-0.205-0.003-0.090-0.006-0.090-0.138-0.070-0.077 0.013-0.323 0.051-0.554 0.086-0.227 0.032-0.451 0.067-0.496 0.074-0.045 0.010-0.138 0.022-0.208 0.032s-0.266 0.038-0.432 0.064c-0.166 0.029-0.307 0.042-0.314 0.035-0.019-0.019 0.381-0.582 0.662-0.938 1.478-1.85 3.443-3.206 5.699-3.936 0.221-0.074 0.451-0.144 0.512-0.163 0.061-0.016 0.115-0.032 0.122-0.032 0.003-0.003-0.182 0.368-0.416 0.819z"></path>
<path fill="#ff7900" d="M15.37 12.054c-1.139 0.8-2.47 1.734-2.912 2.048l-0.419 0.298 0.029 0.102c0.016 0.058 0.374 1.136 0.794 2.394l0.765 2.288h4.813l0.797-2.384c0.614-1.843 0.784-2.394 0.755-2.419-0.022-0.022-0.483-0.352-1.030-0.733-1.962-1.376-2.275-1.6-2.598-1.827l-0.326-0.23-0.666 0.464z"></path>
</svg>
