<!-- Generated by IcoMoon.io -->
<svg version="1.1" xmlns="http://www.w3.org/2000/svg" width="32" height="32" viewBox="0 0 32 32">
<title>Football_match</title>
<path fill="#ff7900" d="M19.664 2.419c-0.96 0.157-1.741 0.851-1.99 1.773-0.086 0.32-0.077 0.931 0.016 1.264 0.506 1.754 2.707 2.323 4.006 1.037 0.438-0.438 0.666-0.973 0.688-1.616s-0.182-1.216-0.605-1.677c-0.454-0.502-1.011-0.762-1.667-0.784-0.192-0.006-0.394-0.003-0.448 0.003z"></path>
<path fill="#ff7900" d="M7.286 8.035c-0.317 0.074-0.659 0.346-0.794 0.634-0.291 0.618-0.038 1.322 0.579 1.616l0.208 0.099 9.664 0.016-4.051 4.058c-4.605 4.608-4.237 4.195-4.237 4.758 0 0.304 0.006 0.33 0.109 0.522 0.323 0.595 1.002 0.826 1.6 0.547 0.112-0.054 0.691-0.611 2.346-2.266l2.202-2.192 0.099 0.093c0.234 0.224 0.445 0.442 0.445 0.467 0 0.013-2.525 2.55-5.613 5.635-3.085 3.088-5.648 5.67-5.693 5.741-0.173 0.278-0.221 0.614-0.134 0.95 0.163 0.621 0.819 1.005 1.446 0.842 0.112-0.026 0.259-0.086 0.33-0.131s3.968-3.92 8.662-8.614l8.528-8.528 1.059 1.056 1.059 1.059-1.45 1.45c-1.859 1.859-1.837 1.834-1.92 2.061-0.176 0.47-0.064 0.979 0.291 1.312 0.211 0.195 0.438 0.298 0.733 0.32 0.285 0.022 0.566-0.058 0.797-0.227 0.25-0.189 4.211-4.179 4.298-4.336 0.106-0.186 0.163-0.496 0.141-0.726-0.042-0.41 0.035-0.32-2.931-3.29-2.429-2.432-2.742-2.733-2.934-2.832l-0.214-0.112-7.251-0.006c-4.147 0-7.302 0.010-7.373 0.026z"></path>
<path fill="#ff7900" d="M13.936 24.848c-1.037 0.234-1.747 0.982-1.907 2.010-0.186 1.187 0.595 2.355 1.779 2.666 0.301 0.080 0.909 0.080 1.2 0 0.835-0.227 1.488-0.883 1.715-1.722 0.080-0.288 0.080-0.896 0-1.2-0.221-0.864-0.928-1.542-1.818-1.744-0.266-0.061-0.723-0.067-0.97-0.010z"></path>
</svg>
