<!-- Generated by IcoMoon.io -->
<svg version="1.1" xmlns="http://www.w3.org/2000/svg" width="32" height="32" viewBox="0 0 32 32">
<title>Football_quiz</title>
<path fill="#ff7900" d="M15.197 2.413c-0.006 0.006-0.141 0.022-0.301 0.032-0.272 0.022-0.634 0.064-0.88 0.102-0.739 0.112-1.085 0.186-1.725 0.368-1.222 0.346-2.522 0.922-3.507 1.558-0.496 0.32-0.586 0.381-0.81 0.544-2.198 1.613-3.875 3.862-4.797 6.438-0.301 0.848-0.582 2.022-0.666 2.8-0.013 0.106-0.029 0.227-0.035 0.272-0.093 0.576-0.080 2.365 0.019 3.13 0.051 0.368 0.051 0.374 0.128 0.79 0.23 1.274 0.63 2.467 1.219 3.648 1.043 2.077 2.57 3.818 4.541 5.171 1.587 1.094 3.757 1.936 5.616 2.186 0.070 0.010 0.23 0.032 0.352 0.048 0.611 0.083 2.118 0.115 2.736 0.058 2.678-0.246 5.024-1.139 7.088-2.688 0.141-0.106 0.307-0.237 0.371-0.291s0.186-0.157 0.272-0.227c0.186-0.154 0.512-0.458 0.826-0.771 1.68-1.68 2.893-3.792 3.507-6.118 0.080-0.301 0.24-1.053 0.272-1.264 0.010-0.086 0.026-0.186 0.032-0.221 0.010-0.035 0.022-0.147 0.032-0.246 0.013-0.099 0.026-0.214 0.035-0.259 0.061-0.362 0.083-1.939 0.035-2.528-0.032-0.432-0.138-1.219-0.211-1.568-0.557-2.73-1.824-5.085-3.776-7.030-1.587-1.578-3.562-2.752-5.712-3.389-0.602-0.176-1.392-0.352-1.894-0.413-0.086-0.013-0.179-0.026-0.205-0.032s-0.163-0.022-0.304-0.035c-0.141-0.010-0.291-0.026-0.336-0.035-0.099-0.016-1.907-0.045-1.923-0.029zM12.461 5.424c-0.49 0.957-0.496 0.976-0.422 1.005 0.042 0.016 0.534 0.211 1.098 0.435s1.44 0.57 1.946 0.771l0.922 0.365 1.926-0.771c1.059-0.426 1.958-0.784 2-0.8 0.070-0.026 0.058-0.051-0.41-0.992-0.266-0.531-0.48-0.97-0.474-0.976 0.006-0.003 0.125 0.026 0.266 0.064 2.656 0.774 4.95 2.416 6.525 4.672 0.134 0.192 0.24 0.352 0.237 0.355-0.010 0.010-0.25-0.026-0.49-0.064-0.051-0.010-0.176-0.032-0.272-0.045-0.096-0.016-0.454-0.074-0.797-0.131-0.339-0.054-0.624-0.096-0.627-0.090-0.013 0.010-0.038 0.333-0.064 0.746-0.010 0.157-0.026 0.387-0.032 0.512-0.010 0.122-0.022 0.346-0.032 0.496s-0.022 0.365-0.032 0.48c-0.010 0.115-0.022 0.358-0.035 0.544-0.010 0.186-0.022 0.387-0.029 0.448-0.010 0.125-0.058 0.938-0.061 1.040 0 0.080 2.698 3.344 2.755 3.334 0.022-0.003 0.387-0.352 0.81-0.771s0.781-0.755 0.794-0.742c0.029 0.032 0.029 1.357 0 1.731-0.16 1.984-0.813 3.888-1.904 5.568-0.32 0.486-0.79 1.104-0.813 1.062-0.013-0.022-0.054-0.246-0.093-0.502-0.038-0.253-0.077-0.493-0.083-0.528-0.019-0.112-0.144-0.925-0.163-1.056-0.010-0.070-0.026-0.138-0.038-0.15-0.010-0.013-0.243 0.035-0.515 0.106-0.858 0.221-1.712 0.442-2.624 0.672-0.483 0.122-0.922 0.237-0.976 0.256-0.080 0.026-0.166 0.141-0.493 0.662-0.214 0.346-0.534 0.854-0.707 1.126-0.317 0.502-0.666 1.053-0.995 1.587l-0.179 0.288 0.291 0.15c0.285 0.147 0.982 0.509 1.52 0.79 0.304 0.157 0.32 0.125-0.157 0.294-0.838 0.298-1.738 0.509-2.528 0.602-0.166 0.019-0.346 0.042-0.4 0.051-0.176 0.032-1.757 0.038-2.032 0.010-0.374-0.038-0.854-0.096-0.957-0.112-0.426-0.074-0.698-0.131-1.114-0.237-0.602-0.154-1.514-0.461-1.478-0.496 0.006-0.006 0.461-0.237 1.005-0.515 0.547-0.275 1.005-0.512 1.021-0.528 0.032-0.029-0.032-0.134-0.605-1.030-0.035-0.058-0.23-0.362-0.429-0.678-0.202-0.317-0.413-0.65-0.467-0.736-0.058-0.090-0.243-0.384-0.416-0.656-0.17-0.272-0.333-0.518-0.355-0.544-0.026-0.026-0.202-0.086-0.39-0.131-0.189-0.048-1.12-0.282-2.067-0.522-0.95-0.24-1.728-0.432-1.731-0.429-0.003 0.006-0.042 0.24-0.090 0.522-0.182 1.11-0.282 1.696-0.291 1.702-0.016 0.016-0.374-0.461-0.64-0.848-0.883-1.296-1.546-2.877-1.827-4.352-0.026-0.138-0.054-0.275-0.061-0.31-0.013-0.070-0.102-0.71-0.131-0.944-0.026-0.221-0.048-1.667-0.026-1.789l0.019-0.106 0.771 0.771c0.426 0.422 0.781 0.771 0.794 0.771 0.010 0 0.221-0.24 0.464-0.538 0.246-0.294 0.864-1.040 1.376-1.658l0.934-1.126-0.013-0.138c-0.006-0.077-0.019-0.314-0.032-0.525-0.010-0.211-0.026-0.419-0.032-0.464s-0.022-0.246-0.032-0.448c-0.010-0.202-0.026-0.454-0.032-0.56-0.010-0.106-0.022-0.307-0.032-0.448s-0.022-0.342-0.032-0.448c-0.006-0.106-0.022-0.323-0.032-0.48-0.026-0.422-0.054-0.768-0.061-0.774s-0.723 0.090-0.995 0.134c-0.096 0.016-0.214 0.035-0.816 0.125-0.166 0.026-0.307 0.042-0.314 0.035s0.051-0.102 0.128-0.218c1.469-2.144 3.648-3.795 6.077-4.611 0.179-0.061 0.733-0.23 0.787-0.24 0.006-0.003-0.214 0.435-0.49 0.973z"></path>
<path fill="#ff7900" d="M15.248 10.422c-0.467 0.054-1.117 0.253-1.568 0.48-0.403 0.202-0.659 0.39-0.995 0.733-0.48 0.49-0.691 1.002-0.672 1.629 0.006 0.237 0.026 0.32 0.099 0.48 0.224 0.467 0.666 0.73 1.184 0.707 0.339-0.016 0.685-0.259 1.040-0.726 0.374-0.486 0.746-0.73 1.165-0.758 0.538-0.035 1.030 0.205 1.254 0.608 0.086 0.157 0.093 0.192 0.090 0.49 0 0.365-0.054 0.534-0.237 0.765-0.227 0.285-0.525 0.432-1.142 0.563-0.659 0.144-0.874 0.262-1.024 0.57l-0.090 0.182-0.010 0.8c-0.013 0.861 0.013 1.085 0.157 1.37 0.352 0.688 1.162 0.88 1.834 0.435 0.317-0.211 0.483-0.557 0.522-1.091l0.019-0.282 0.131-0.035c1.28-0.336 2.163-1.114 2.528-2.221 0.192-0.582 0.227-1.414 0.083-1.984-0.352-1.402-1.635-2.454-3.28-2.688-0.266-0.038-0.858-0.051-1.088-0.026z"></path>
<path fill="#ff7900" d="M15.341 19.632c-0.496 0.090-0.95 0.493-1.085 0.96-0.246 0.858 0.346 1.731 1.219 1.795 0.438 0.035 0.79-0.096 1.098-0.403 0.547-0.55 0.547-1.411 0.006-1.955-0.333-0.333-0.79-0.477-1.238-0.397z"></path>
</svg>
