<!-- Generated by IcoMoon.io -->
<svg version="1.1" xmlns="http://www.w3.org/2000/svg" width="32" height="32" viewBox="0 0 32 32">
<title>Forward</title>
<path fill="#ff7900" d="M16.8 6.013v3.587h-5.677c-6.262 0-6.006-0.006-6.467 0.198-0.605 0.272-1.085 0.774-1.306 1.37-0.15 0.41-0.15 0.307-0.141 4.928 0.006 4.333 0.006 4.336 0.077 4.544 0.102 0.314 0.163 0.445 0.314 0.672 0.323 0.483 0.81 0.842 1.357 0.998 0.058 0.016 0.138 0.042 0.176 0.051 0.035 0.013 2.678 0.026 5.866 0.029l5.802 0.010 0.006 3.59 0.010 3.59 0.096-0.096c0.125-0.125 1.981-2.032 2.269-2.33 0.122-0.125 0.48-0.496 0.8-0.822 1.738-1.779 2.57-2.634 2.81-2.88 0.144-0.154 0.698-0.72 1.226-1.261s1.053-1.082 1.168-1.2c0.115-0.115 0.64-0.656 1.168-1.197 1.786-1.83 1.722-1.763 1.894-2.019 0.387-0.573 0.563-1.171 0.541-1.856-0.013-0.461-0.099-0.845-0.272-1.216-0.218-0.461-0.339-0.624-0.96-1.261-0.333-0.342-1.286-1.322-1.968-2.022-0.858-0.88-2.573-2.637-2.803-2.877-0.109-0.115-0.605-0.624-1.101-1.13-0.493-0.509-1.043-1.069-1.216-1.248s-0.742-0.765-1.264-1.299c-0.522-0.534-1.069-1.098-1.216-1.248-0.666-0.685-1.126-1.152-1.155-1.171-0.022-0.013-0.032 1.194-0.032 3.565z"></path>
</svg>
