<!-- Generated by IcoMoon.io -->
<svg version="1.1" xmlns="http://www.w3.org/2000/svg" width="32" height="32" viewBox="0 0 32 32">
<title>forward_the_number</title>
<path fill="#ff7900" d="M20 3.984v1.6l-0.166 0.134c-0.093 0.070-0.285 0.224-0.426 0.336-0.141 0.109-0.291 0.23-0.339 0.266s-0.218 0.166-0.378 0.294l-0.294 0.23 0.214 0.154c0.115 0.083 0.474 0.342 0.794 0.573l0.579 0.416 0.016 1.36c0.016 1.309 0.019 1.36 0.083 1.485 0.080 0.147 0.144 0.208 0.301 0.291 0.109 0.058 0.278 0.061 4.266 0.070l4.15 0.006-0.006-4.070c-0.010-3.859-0.013-4.080-0.067-4.189-0.096-0.195-0.269-0.371-0.448-0.458l-0.166-0.080-8.112-0.019v1.6zM24.87 4.278c0.144 0.147 0.147 0.269 0.010 0.688-0.067 0.198-0.141 0.422-0.163 0.499l-0.042 0.138 0.931-0.019 0.173-0.544c0.221-0.685 0.246-0.739 0.371-0.816 0.262-0.16 0.602 0.022 0.602 0.326 0 0.058-0.029 0.186-0.067 0.282s-0.115 0.31-0.176 0.474l-0.106 0.294 0.522-0.003c0.602-0.003 0.694 0.026 0.774 0.218 0.077 0.182 0.006 0.397-0.17 0.512-0.074 0.048-0.189 0.061-0.739 0.074l-0.653 0.016-0.307 0.768 0.55 0.016c0.614 0.019 0.691 0.042 0.774 0.24 0.058 0.141 0.058 0.189-0.006 0.32-0.099 0.211-0.144 0.221-0.918 0.24l-0.701 0.016-0.214 0.586c-0.227 0.621-0.304 0.742-0.47 0.749-0.198 0.010-0.272-0.010-0.365-0.096-0.163-0.144-0.16-0.253 0.029-0.787l0.163-0.47-0.902 0.019-0.205 0.557c-0.112 0.307-0.224 0.589-0.253 0.63-0.144 0.224-0.49 0.214-0.653-0.016-0.096-0.134-0.086-0.234 0.093-0.736l0.157-0.451h-0.48c-0.544 0-0.662-0.029-0.765-0.198-0.118-0.198-0.061-0.432 0.138-0.547 0.048-0.026 0.291-0.045 0.739-0.054l0.666-0.016 0.154-0.384c0.086-0.211 0.15-0.387 0.147-0.394-0.006-0.003-0.208-0.010-0.451-0.013-0.528-0.003-0.666-0.032-0.755-0.157-0.144-0.202-0.096-0.448 0.109-0.573 0.093-0.058 0.163-0.064 0.749-0.064h0.646l0.061-0.17c0.035-0.090 0.125-0.346 0.198-0.566s0.157-0.442 0.182-0.49c0.115-0.227 0.442-0.278 0.624-0.096z"></path>
<path fill="#ff7900" d="M24.294 6.566c-0.035 0.093-0.093 0.25-0.128 0.346s-0.074 0.202-0.086 0.234c-0.022 0.051 0.006 0.054 0.432 0.048l0.454-0.010 0.096-0.24c0.054-0.131 0.122-0.307 0.157-0.394l0.061-0.15h-0.922l-0.064 0.166z"></path>
<path fill="#ff7900" d="M9.226 2.445c-0.579 0.141-1.069 0.646-1.19 1.229-0.051 0.24-0.051 24.413 0 24.653 0.125 0.598 0.64 1.114 1.238 1.238 0.122 0.026 2.067 0.035 6.736 0.035 5.757 0 6.592-0.006 6.758-0.048 0.598-0.154 1.075-0.64 1.197-1.226 0.026-0.122 0.035-2.474 0.035-8.246v-8.080h-1.6v14.4h-12.8v-21.6h9.6v-2.4l-4.902 0.003c-3.808 0.003-4.944 0.010-5.072 0.042zM17.411 3.274c0.125 0.083 0.189 0.192 0.189 0.326s-0.064 0.243-0.189 0.326c-0.109 0.074-0.109 0.074-1.402 0.074-1.427 0-1.424 0-1.546-0.202-0.115-0.189-0.058-0.416 0.138-0.534 0.096-0.061 0.17-0.064 1.402-0.064h1.299l0.109 0.074zM16.39 27.306c0.182 0.106 0.262 0.198 0.346 0.39 0.211 0.49-0.122 1.034-0.669 1.094-0.554 0.058-1.005-0.515-0.819-1.043 0.086-0.246 0.282-0.442 0.522-0.518 0.157-0.051 0.47-0.013 0.621 0.077z"></path>
<path fill="#ff7900" d="M15.728 13.424c-0.154 0.067-0.192 0.134-0.352 0.592-0.083 0.237-0.179 0.506-0.214 0.598l-0.061 0.166-0.662 0.010c-0.63 0.010-0.666 0.013-0.765 0.083-0.202 0.144-0.202 0.477 0 0.627 0.080 0.061 0.147 0.070 0.614 0.083l0.522 0.016-0.147 0.406-0.147 0.41h-0.637c-0.688 0-0.781 0.019-0.896 0.179-0.074 0.099-0.077 0.291-0.013 0.419 0.090 0.17 0.211 0.202 0.755 0.202 0.266 0 0.483 0.013 0.483 0.026s-0.074 0.227-0.163 0.47c-0.189 0.522-0.195 0.646-0.029 0.79 0.051 0.051 0.125 0.093 0.16 0.093 0.368 0.022 0.397-0.010 0.669-0.755l0.224-0.608 0.448-0.010c0.275-0.003 0.451 0.003 0.451 0.022 0 0.016-0.016 0.070-0.035 0.122-0.134 0.342-0.285 0.8-0.285 0.864 0 0.090 0.070 0.237 0.141 0.294 0.154 0.128 0.47 0.083 0.579-0.080 0.026-0.042 0.134-0.31 0.237-0.595 0.106-0.288 0.198-0.547 0.211-0.579 0.019-0.048 0.083-0.054 0.669-0.054 0.579 0 0.653-0.006 0.746-0.064 0.054-0.032 0.118-0.093 0.141-0.131 0.058-0.112 0.051-0.326-0.013-0.426-0.099-0.15-0.224-0.179-0.758-0.179-0.262 0-0.48-0.006-0.48-0.016s0.013-0.042 0.032-0.074c0.016-0.029 0.083-0.208 0.15-0.397l0.122-0.346h0.634c0.803 0 0.864-0.022 0.954-0.33 0.022-0.077 0.013-0.131-0.042-0.24-0.099-0.205-0.182-0.23-0.765-0.23-0.445 0-0.483-0.003-0.467-0.058 0.010-0.029 0.083-0.25 0.163-0.483 0.157-0.448 0.163-0.541 0.061-0.698-0.026-0.038-0.109-0.093-0.186-0.125-0.115-0.042-0.16-0.045-0.253-0.013-0.106 0.035-0.275 0.205-0.275 0.275 0 0.016-0.086 0.266-0.189 0.557l-0.189 0.528-0.909 0.019 0.022-0.074c0.010-0.042 0.070-0.211 0.128-0.378 0.182-0.509 0.192-0.579 0.115-0.726-0.048-0.096-0.099-0.144-0.195-0.182-0.15-0.061-0.176-0.061-0.304-0.003zM16.429 15.987c-0.077 0.221-0.141 0.41-0.141 0.416s-0.208 0.013-0.464 0.013h-0.464l0.115-0.314c0.064-0.17 0.128-0.358 0.144-0.416l0.032-0.102h0.922l-0.144 0.403z"></path>
</svg>
