<!-- Generated by IcoMoon.io -->
<svg version="1.1" xmlns="http://www.w3.org/2000/svg" width="32" height="32" viewBox="0 0 32 32">
<title>Forward_curved_arrow</title>
<path fill="#ff7900" d="M19.2 6.704v3.184l-3.878 0.003c-2.134 0.003-3.91 0.010-3.946 0.013s-0.192 0.016-0.352 0.029c-0.778 0.061-1.814 0.294-2.624 0.595-1.456 0.541-2.637 1.306-3.763 2.429-1.299 1.302-2.16 2.778-2.669 4.579-0.083 0.304-0.23 1.005-0.259 1.258-0.013 0.093-0.026 0.176-0.032 0.186-0.054 0.093-0.083 1.718-0.038 2.221 0.054 0.621 0.202 1.402 0.378 2 0.432 1.462 1.12 2.714 2.157 3.936 0.189 0.221 0.938 0.947 1.181 1.146l0.246 0.202 0.003-1.45c0-1.587 0.003-1.629 0.093-2.080 0.355-1.789 1.741-3.261 3.491-3.706 0.618-0.157 0.634-0.16 5.478-0.16h4.534v6.4l5.216-5.226c2.867-2.87 5.267-5.296 5.331-5.382 0.23-0.323 0.333-0.57 0.41-1.005 0.118-0.643-0.077-1.392-0.49-1.882-0.154-0.186-10.422-10.474-10.451-10.474-0.010 0-0.016 1.434-0.016 3.184z"></path>
</svg>
