<!-- Generated by IcoMoon.io -->
<svg version="1.1" xmlns="http://www.w3.org/2000/svg" width="32" height="32" viewBox="0 0 32 32">
<title>frame-my-customers</title>
<path fill="#f60" d="M28.938 20.204c-0.425 1.307-2.177 1.95-2.969 3.038-0.8 1.099-0.874 2.962-1.974 3.762-1.088 0.792-2.879 0.293-4.186 0.717-1.261 0.41-2.41 1.88-3.808 1.88s-2.547-1.47-3.808-1.88c-1.307-0.425-3.098 0.075-4.186-0.717-1.099-0.8-1.174-2.663-1.974-3.762-0.792-1.088-2.545-1.73-2.969-3.038-0.41-1.262 0.618-2.806 0.618-4.204s-1.027-2.942-0.618-4.204c0.425-1.307 2.177-1.95 2.969-3.038 0.8-1.099 0.874-2.962 1.974-3.762 1.088-0.792 2.879-0.293 4.186-0.717 1.261-0.41 2.41-1.88 3.808-1.88s2.547 1.47 3.808 1.88c1.307 0.425 3.098-0.075 4.186 0.717 1.099 0.8 1.174 2.663 1.974 3.762 0.792 1.088 2.545 1.73 2.969 3.038 0.41 1.262-0.618 2.806-0.618 4.204s1.027 2.942 0.618 4.204zM0 32h32v-32h-32v32z"></path>
</svg>
