<!-- Generated by IcoMoon.io -->
<svg version="1.1" xmlns="http://www.w3.org/2000/svg" width="32" height="32" viewBox="0 0 32 32">
<title>frame-fun</title>
<path fill="#f60" d="M26.661 16c1.338-1.361 2.164-3.227 2.164-5.285 0-4.164-3.376-7.54-7.54-7.54-2.059 0-3.924 0.826-5.284 2.164-1.361-1.338-3.226-2.164-5.285-2.164-4.164 0-7.54 3.375-7.54 7.54 0 2.058 0.827 3.924 2.164 5.285-1.338 1.36-2.164 3.225-2.164 5.284 0 4.164 3.376 7.54 7.54 7.54 2.059 0 3.924-0.826 5.285-2.164 1.361 1.338 3.226 2.164 5.284 2.164 4.164 0 7.54-3.376 7.54-7.54 0-2.059-0.826-3.924-2.164-5.284zM32 32h-32v-32h32v32z"></path>
</svg>
