<!-- Generated by IcoMoon.io -->
<svg version="1.1" xmlns="http://www.w3.org/2000/svg" width="32" height="32" viewBox="0 0 32 32">
<title>frame-family</title>
<path fill="#f60" d="M27.903 12.893c-0.483-0.482-1.048-0.831-1.651-1.048 0.292-0.595 0.456-1.264 0.456-1.971-0-2.478-2.009-4.487-4.488-4.487-0.682 0-1.329 0.153-1.908 0.425-0.215-0.627-0.572-1.215-1.071-1.715-1.753-1.752-4.594-1.752-6.347 0-0.483 0.483-0.832 1.048-1.048 1.65-0.595-0.291-1.263-0.455-1.97-0.455-2.479 0-4.488 2.009-4.488 4.488 0 0.682 0.153 1.329 0.426 1.908-0.627 0.215-1.216 0.572-1.715 1.071-1.752 1.753-1.752 4.594 0 6.346 0.483 0.483 1.048 0.832 1.651 1.049-0.291 0.595-0.455 1.263-0.455 1.97 0 2.478 2.009 4.488 4.488 4.488 0.683 0 1.329-0.153 1.908-0.426 0.215 0.627 0.571 1.215 1.072 1.715 1.752 1.753 4.594 1.753 6.346 0 0.483-0.483 0.832-1.048 1.049-1.651 0.595 0.291 1.263 0.455 1.97 0.455 2.478 0 4.488-2.009 4.488-4.488 0-0.683-0.153-1.329-0.426-1.908 0.626-0.215 1.215-0.572 1.715-1.071 1.752-1.753 1.752-4.594 0-6.347zM32 32h-32v-32h32v32z"></path>
</svg>
