<!-- Generated by IcoMoon.io -->
<svg version="1.1" xmlns="http://www.w3.org/2000/svg" width="32" height="32" viewBox="0 0 32 32">
<title>Free_up_space</title>
<path fill="#ff7900" d="M15.194 2.416c-0.003 0.003-0.147 0.019-0.314 0.029-0.166 0.013-0.333 0.029-0.368 0.035s-0.134 0.022-0.224 0.032c-0.211 0.022-0.342 0.045-0.832 0.125-0.035 0.003-0.099 0.019-0.144 0.029s-0.218 0.051-0.384 0.086c-0.592 0.131-1.597 0.445-2 0.624-0.051 0.026-0.189 0.083-0.304 0.128-0.307 0.128-1.117 0.534-1.469 0.742-1.024 0.602-1.907 1.283-2.752 2.122-1.437 1.43-2.534 3.162-3.226 5.088-0.24 0.675-0.493 1.648-0.586 2.266-0.080 0.509-0.093 0.611-0.112 0.822-0.013 0.122-0.029 0.266-0.038 0.32-0.029 0.182-0.035 1.795-0.010 2.112 0.032 0.368 0.096 0.963 0.115 1.056 0.010 0.035 0.045 0.23 0.080 0.432 0.301 1.725 1.005 3.475 2.010 5.008 0.115 0.176 0.221 0.333 0.237 0.352 0.013 0.016 0.125 0.17 0.25 0.336 0.762 1.018 1.658 1.914 2.669 2.678 0.806 0.605 1.299 0.912 2.195 1.36 1.203 0.598 2.765 1.088 4.013 1.254 0.070 0.010 0.23 0.032 0.352 0.048 0.611 0.083 2.118 0.115 2.736 0.058 1.494-0.138 2.755-0.438 4.048-0.963 0.662-0.272 1.507-0.701 2.032-1.037 0.522-0.333 1.107-0.749 1.379-0.979 0.064-0.054 0.186-0.157 0.272-0.227s0.256-0.221 0.381-0.336c2.144-1.997 3.552-4.49 4.122-7.296 0.102-0.493 0.176-0.963 0.202-1.28 0.010-0.131 0.026-0.275 0.035-0.32 0.029-0.144 0.035-1.798 0.006-2.112-0.035-0.435-0.093-0.918-0.125-1.104-0.016-0.090-0.045-0.253-0.064-0.368-0.262-1.485-0.89-3.165-1.667-4.454-0.189-0.31-0.525-0.835-0.582-0.906-0.013-0.019-0.131-0.176-0.266-0.352-1.642-2.195-3.955-3.859-6.589-4.736-0.874-0.291-1.99-0.531-2.832-0.611-0.115-0.010-0.25-0.026-0.304-0.035-0.106-0.016-1.923-0.042-1.942-0.026zM16 21.603v5.603l-0.49-0.019c-0.272-0.013-0.518-0.026-0.554-0.032-0.032-0.006-0.147-0.019-0.253-0.032-0.544-0.061-1.411-0.237-1.872-0.378-2.208-0.675-4.029-1.885-5.478-3.632-0.23-0.278-0.755-0.992-0.803-1.098-0.013-0.026-0.074-0.128-0.134-0.224l-0.109-0.176 0.070-0.054c0.038-0.029 0.122-0.080 0.182-0.115 0.234-0.128 0.432-0.24 0.464-0.262 0.019-0.013 0.378-0.224 0.8-0.464 0.803-0.461 2.138-1.232 2.688-1.552 0.176-0.102 0.925-0.534 1.664-0.96s1.418-0.816 1.504-0.867c0.285-0.166 2.304-1.338 2.314-1.338 0.003-0.003 0.006 2.518 0.006 5.6z"></path>
</svg>
