<!-- Generated by IcoMoon.io -->
<svg version="1.1" xmlns="http://www.w3.org/2000/svg" width="32" height="32" viewBox="0 0 32 32">
<title>free_tag</title>
<path fill="#ff7900" d="M15.443 2.067c-0.454 0.080-0.835 0.237-1.267 0.522-0.176 0.115-0.544 0.467-0.989 0.947-0.131 0.141-0.342 0.365-0.464 0.496-0.125 0.131-0.342 0.365-0.483 0.515s-0.371 0.394-0.512 0.544c-0.141 0.15-0.362 0.387-0.493 0.525-0.131 0.141-0.355 0.378-0.496 0.528-0.221 0.234-0.912 0.97-1.213 1.296-0.086 0.093-0.214 0.224-0.755 0.8-0.134 0.144-0.358 0.381-0.499 0.531s-0.371 0.394-0.512 0.544c-0.275 0.294-0.992 1.056-1.328 1.418-0.115 0.122-0.349 0.368-0.518 0.544l-0.314 0.323 0.010 7.856 0.006 7.856 0.090 0.314c0.163 0.582 0.422 1.030 0.838 1.446 0.486 0.486 1.046 0.778 1.734 0.896 0.25 0.045 1.184 0.048 7.85 0.042l7.568-0.010 0.314-0.086c0.56-0.154 1.034-0.432 1.446-0.842 0.365-0.362 0.624-0.781 0.784-1.264 0.166-0.493 0.16-0.189 0.16-8.48v-7.728l-0.266-0.272c-0.23-0.243-0.576-0.608-1.478-1.568-0.39-0.413-1.155-1.229-1.424-1.517-0.237-0.253-0.563-0.598-1.024-1.088-0.131-0.141-0.269-0.285-0.304-0.323s-0.266-0.285-0.512-0.547c-0.707-0.752-0.893-0.95-0.928-0.989-0.016-0.022-0.221-0.237-0.451-0.483-0.234-0.243-0.467-0.496-0.525-0.557-1.328-1.44-1.622-1.702-2.166-1.952-0.563-0.256-1.261-0.342-1.878-0.237zM16.387 5.658c0.742 0.141 1.363 0.733 1.552 1.478 0.243 0.954-0.285 1.978-1.206 2.333-0.643 0.253-1.341 0.166-1.894-0.23-1.11-0.794-1.11-2.451-0.003-3.242 0.458-0.326 0.998-0.445 1.552-0.339zM19.904 12.448c0.131 0.035 0.298 0.186 0.371 0.326 0.077 0.147 0.045 0.438-0.067 0.611-0.048 0.074-0.288 0.333-0.531 0.576-0.246 0.243-0.445 0.454-0.445 0.467 0 0.022 0.438 0.454 0.499 0.493 0.022 0.013 0.221-0.157 0.477-0.41 0.25-0.243 0.499-0.458 0.576-0.496 0.406-0.195 0.861 0.045 0.883 0.464 0.013 0.278-0.048 0.384-0.538 0.883-0.253 0.256-0.458 0.48-0.458 0.493s0.118 0.141 0.262 0.278l0.262 0.253 0.483-0.48c0.531-0.528 0.672-0.621 0.938-0.621 0.134 0 0.192 0.016 0.304 0.096 0.253 0.179 0.339 0.474 0.218 0.752-0.074 0.17-1.424 1.533-1.619 1.632-0.173 0.090-0.467 0.096-0.64 0.013-0.189-0.090-2.938-2.835-3.043-3.034-0.096-0.192-0.102-0.432-0.010-0.634 0.045-0.099 0.256-0.336 0.694-0.778 0.346-0.349 0.685-0.678 0.752-0.733 0.208-0.166 0.41-0.218 0.63-0.154zM17.146 15.354c0.157 0.080 0.298 0.291 0.31 0.464 0.022 0.278-0.067 0.419-0.608 0.957l-0.496 0.493 0.269 0.272 0.266 0.275 0.445-0.438c0.518-0.509 0.653-0.592 0.938-0.57 0.339 0.022 0.576 0.304 0.531 0.627-0.032 0.25-0.15 0.419-0.589 0.848-0.483 0.474-0.474 0.394-0.096 0.752l0.214 0.205 0.486-0.483c0.31-0.304 0.541-0.506 0.63-0.547 0.179-0.083 0.419-0.090 0.541-0.013 0.246 0.154 0.336 0.291 0.339 0.525 0 0.272-0.080 0.381-0.861 1.155-0.595 0.589-0.758 0.733-0.883 0.781-0.205 0.077-0.458 0.051-0.643-0.067-0.077-0.048-0.771-0.723-1.549-1.498-1.309-1.309-1.411-1.424-1.456-1.571-0.061-0.208-0.051-0.387 0.035-0.563 0.077-0.157 1.405-1.507 1.565-1.594 0.211-0.112 0.41-0.115 0.611-0.010zM14.25 18.72c0.442 0.102 0.906 0.493 1.13 0.944 0.122 0.243 0.125 0.266 0.125 0.576 0 0.259-0.016 0.349-0.070 0.47-0.080 0.179-0.093 0.173 0.294 0.202 1.046 0.077 1.254 0.122 1.434 0.291 0.15 0.138 0.218 0.272 0.23 0.451 0.013 0.214-0.042 0.352-0.189 0.47-0.237 0.189-0.355 0.205-1.027 0.163-0.106-0.006-0.387-0.019-0.624-0.032-0.237-0.010-0.566-0.026-0.726-0.035-0.163-0.010-0.298-0.010-0.298 0s0.195 0.211 0.432 0.448c0.483 0.486 0.573 0.621 0.573 0.883 0.003 0.448-0.467 0.717-0.883 0.512-0.202-0.102-3.011-2.909-3.101-3.101-0.035-0.077-0.067-0.208-0.070-0.288-0.006-0.259 0.099-0.416 0.65-0.963 0.272-0.272 0.56-0.547 0.64-0.611 0.451-0.365 0.973-0.499 1.482-0.381zM11.158 21.43c0.17 0.134 0.246 0.278 0.246 0.454-0.003 0.272-0.102 0.419-0.637 0.957l-0.496 0.496 0.106 0.115c0.054 0.064 0.176 0.186 0.269 0.269l0.163 0.157 0.429-0.422c0.454-0.454 0.643-0.576 0.874-0.576 0.362 0.003 0.63 0.307 0.579 0.659-0.029 0.227-0.099 0.323-0.557 0.787l-0.435 0.442 0.515 0.518c0.592 0.605 0.678 0.742 0.634 1.040-0.038 0.269-0.317 0.49-0.608 0.49-0.256 0-0.365-0.093-1.878-1.603-1.366-1.36-1.462-1.462-1.514-1.626-0.064-0.195-0.054-0.378 0.032-0.563 0.086-0.189 1.427-1.53 1.632-1.635 0.224-0.115 0.477-0.099 0.646 0.042z"></path>
<path fill="#ff7900" d="M13.616 20.064c-0.070 0.035-0.25 0.186-0.4 0.333l-0.269 0.272 0.33 0.326 0.326 0.33 0.288-0.288c0.317-0.31 0.413-0.461 0.413-0.64 0-0.326-0.352-0.499-0.688-0.333z"></path>
</svg>
