<!-- Generated by IcoMoon.io -->
<svg version="1.1" xmlns="http://www.w3.org/2000/svg" width="32" height="32" viewBox="0 0 32 32">
<title>front_end_dashboard</title>
<path fill="#ff7900" d="M4.426 4.461c-0.557 0.138-1.027 0.605-1.178 1.174-0.042 0.147-0.048 1.309-0.048 7.981 0 8.698-0.019 7.99 0.224 8.403 0.147 0.25 0.413 0.502 0.65 0.618 0.39 0.192-0.512 0.179 11.91 0.179 8.179 0 11.421-0.010 11.542-0.035 0.608-0.128 1.13-0.656 1.238-1.258 0.026-0.134 0.035-2.506 0.035-7.92 0-8.432 0.010-7.974-0.182-8.333-0.202-0.381-0.672-0.733-1.091-0.819-0.262-0.054-22.874-0.045-23.101 0.010zM27.2 12.832v6.784h-22.4v-13.568h22.4v6.784zM16.227 20.432c0.192 0.067 0.333 0.186 0.435 0.362 0.074 0.125 0.090 0.186 0.090 0.39s-0.013 0.262-0.086 0.387c-0.15 0.253-0.365 0.384-0.653 0.4-0.256 0.013-0.435-0.054-0.608-0.23-0.352-0.349-0.294-0.954 0.115-1.213 0.23-0.144 0.474-0.179 0.707-0.096z"></path>
<path fill="#ff7900" d="M10.675 8.451c-1.322 0.179-2.461 1.002-3.062 2.205-0.282 0.563-0.397 1.072-0.397 1.76 0 0.531 0.045 0.829 0.195 1.28 0.422 1.261 1.504 2.266 2.787 2.589 0.384 0.096 0.47 0.106 0.97 0.115 0.362 0.006 0.531-0.006 0.768-0.054 1.638-0.336 2.816-1.498 3.19-3.146 0.074-0.333 0.074-1.2 0-1.549-0.182-0.842-0.515-1.462-1.107-2.051-0.595-0.595-1.222-0.934-2.035-1.104-0.304-0.064-0.998-0.090-1.309-0.045zM12.003 9.325c0.55 0.141 1.056 0.432 1.466 0.848 0.224 0.224 0.483 0.57 0.483 0.634-0.003 0.022-0.336 0.221-2.048 1.203-0.272 0.157-0.544 0.314-0.598 0.349l-0.106 0.064v-3.216l0.253 0.022c0.138 0.010 0.387 0.054 0.55 0.096z"></path>
<path fill="#ff7900" d="M16.8 10.016v0.8h6.4v-1.6h-6.4v0.8z"></path>
<path fill="#ff7900" d="M16.8 12.416v0.8h8v-1.6h-8v0.8z"></path>
<path fill="#ff7900" d="M16.8 14.816v0.8h6.4v-1.6h-6.4v0.8z"></path>
<path fill="#ff7900" d="M13.6 24.816v1.197l-4.246 0.019-0.154 0.096c-0.179 0.112-0.33 0.307-0.368 0.483-0.016 0.067-0.032 0.323-0.032 0.563v0.442h14.4v-0.458c0-0.557-0.042-0.707-0.246-0.906-0.25-0.243-0.176-0.237-2.496-0.237h-2.058v-2.4h-4.8v1.2z"></path>
</svg>
