<!-- Generated by IcoMoon.io -->
<svg version="1.1" xmlns="http://www.w3.org/2000/svg" width="32" height="32" viewBox="0 0 32 32">
<title>Full_screen_view</title>
<path fill="#ff7900" d="M7.312 4.064c-1.226 0.218-2.294 1.002-2.858 2.096-0.202 0.387-0.282 0.624-0.41 1.2-0.016 0.061-0.032 4.73-0.035 10.378l-0.010 10.262h10.131c8.989 0 10.17-0.006 10.467-0.051 1.421-0.208 2.605-1.165 3.146-2.541 0.038-0.096 0.106-0.317 0.154-0.493l0.086-0.323 0.010-10.298 0.006-10.294-10.182 0.003c-9.622 0.003-10.205 0.006-10.506 0.061zM25.6 15.28c0 6.47-0.010 8.922-0.035 9.046-0.131 0.605-0.634 1.11-1.238 1.238-0.122 0.026-2.624 0.035-9.046 0.035h-8.88v-8.858c0-6.224 0.010-8.915 0.035-9.050 0.106-0.573 0.582-1.085 1.171-1.245 0.125-0.035 1.782-0.042 9.075-0.045l8.918-0.003v8.88z"></path>
<path fill="#ff7900" d="M17.091 9.091l1.091 1.091-1.629 1.638c-1.386 1.392-1.642 1.664-1.715 1.818-0.214 0.451-0.198 0.96 0.045 1.386 0.102 0.182 1.824 1.926 2.029 2.058 0.419 0.269 0.986 0.301 1.446 0.080 0.16-0.074 0.426-0.326 1.821-1.715l1.638-1.629 2.182 2.182-0.010-3.414c-0.003-1.882-0.019-3.453-0.029-3.494-0.138-0.461-0.49-0.842-0.938-1.014-0.154-0.058-0.301-0.061-3.594-0.070l-3.434-0.010 1.094 1.094z"></path>
</svg>
