<!-- Generated by IcoMoon.io -->
<svg version="1.1" xmlns="http://www.w3.org/2000/svg" width="32" height="32" viewBox="0 0 32 32">
<title>Gallery</title>
<path fill="#ff7900" d="M4.8 13.712c0 9.814-0.013 9.136 0.192 9.622 0.234 0.55 0.72 1.040 1.261 1.274l0.147 0.061v-18.269l18.272-0.016-0.128-0.253c-0.307-0.605-0.749-0.979-1.472-1.242l-0.208-0.074-18.064-0.016v8.912z"></path>
<path fill="#ff7900" d="M7.21 16.214c0.006 8.621 0.010 9.027 0.067 9.21 0.272 0.899 0.963 1.542 1.85 1.725 0.221 0.045 1.142 0.051 9.162 0.051h8.912l-0.010-9.018c-0.006-8.624-0.010-9.024-0.067-9.206-0.282-0.928-1.024-1.597-1.939-1.741-0.141-0.022-3.12-0.035-9.098-0.035h-8.886l0.010 9.014zM24.966 8.886c0.211 0.096 0.413 0.294 0.525 0.512l0.093 0.186 0.010 5.613 0.006 5.61-0.118-0.141c-0.141-0.166-0.682-0.794-0.73-0.845-0.016-0.019-0.102-0.118-0.192-0.221-0.224-0.262-1.043-1.206-1.261-1.456-0.099-0.115-0.362-0.416-0.579-0.672-0.221-0.256-0.406-0.47-0.416-0.48-0.019-0.019-0.4-0.454-0.518-0.592-0.045-0.054-0.144-0.17-0.218-0.256-0.077-0.090-0.218-0.253-0.32-0.368-0.099-0.115-0.381-0.438-0.624-0.72-0.493-0.573-0.589-0.656-0.746-0.656-0.118 0-0.301 0.096-0.368 0.189-0.019 0.032-0.112 0.144-0.202 0.246s-0.714 0.829-1.389 1.613c-0.672 0.784-1.261 1.469-1.309 1.52-0.045 0.054-0.256 0.298-0.467 0.544-0.208 0.246-0.39 0.454-0.4 0.464s-0.061 0.070-0.118 0.134c-0.093 0.109-0.102 0.112-0.147 0.064-0.026-0.029-0.336-0.464-0.691-0.966s-0.672-0.944-0.701-0.982c-0.029-0.038-0.227-0.317-0.438-0.614-0.413-0.589-0.531-0.694-0.733-0.656-0.154 0.026-0.189 0.058-0.602 0.515-0.214 0.243-0.4 0.448-0.41 0.458s-0.304 0.339-0.656 0.736c-0.352 0.397-0.698 0.784-0.771 0.864s-0.182 0.202-0.24 0.272c-0.061 0.070-0.131 0.15-0.16 0.176-0.026 0.026-0.157 0.17-0.288 0.32s-0.282 0.32-0.336 0.381l-0.099 0.109-0.147-0.134c-0.080-0.077-0.186-0.198-0.227-0.275-0.189-0.317-0.179-0.061-0.179-5.542v-5.034l16.016 0.016 0.15 0.070z"></path>
<path fill="#ff7900" d="M12.31 10.96c-0.314 0.090-0.563 0.243-0.79 0.486-0.63 0.672-0.634 1.712-0.006 2.381 0.554 0.592 1.347 0.733 2.086 0.374 0.243-0.118 0.624-0.477 0.736-0.698 0.192-0.378 0.266-0.858 0.189-1.232-0.102-0.483-0.506-0.992-0.957-1.21-0.413-0.198-0.819-0.23-1.258-0.102z"></path>
</svg>
