<!-- Generated by IcoMoon.io -->
<svg version="1.1" xmlns="http://www.w3.org/2000/svg" width="32" height="32" viewBox="0 0 32 32">
<title>games</title>
<path fill="#ff7900" d="M9.744 7.235c-1.325 0.192-2.477 0.998-3.11 2.173-0.099 0.189-0.16 0.333-1.498 3.552-0.486 1.171-0.97 2.33-1.072 2.576s-0.314 0.749-0.464 1.12c-0.291 0.701-0.448 1.075-0.496 1.184-0.016 0.035-0.102 0.243-0.192 0.464s-0.189 0.464-0.224 0.544c-0.666 1.536-0.256 3.478 0.992 4.733 1.658 1.661 4.192 1.616 5.834-0.106 0.374-0.394 0.624-0.794 0.918-1.475 0.208-0.48 0.32-0.672 0.541-0.944 0.438-0.541 0.982-0.89 1.555-1.008 0.227-0.045 0.624-0.048 3.568-0.042l3.312 0.010 0.224 0.074c0.605 0.202 1.126 0.621 1.52 1.216 0.086 0.131 0.253 0.461 0.368 0.736 0.301 0.698 0.598 1.146 1.053 1.587 1.091 1.053 2.662 1.437 4.029 0.979 0.304-0.102 0.774-0.326 0.957-0.454 0.819-0.579 1.354-1.242 1.699-2.106 0.198-0.499 0.278-0.906 0.294-1.488 0.019-0.778-0.064-1.133-0.528-2.256-0.176-0.432-0.342-0.829-0.365-0.88-0.026-0.054-0.342-0.816-0.707-1.696s-0.717-1.731-0.787-1.888c-0.067-0.16-0.483-1.158-0.925-2.224s-0.861-2.048-0.931-2.186c-0.205-0.397-0.397-0.653-0.762-1.018-0.592-0.586-1.21-0.925-2.099-1.139-0.208-0.051-0.701-0.054-6.368-0.061-3.379-0.003-6.23 0.006-6.336 0.022zM11.286 10.096c0.24 0.109 0.47 0.339 0.595 0.589l0.102 0.211 0.010 0.95 0.010 0.954h0.854c0.954 0 1.12 0.022 1.392 0.198 0.298 0.192 0.534 0.624 0.534 0.979 0 0.374-0.192 0.774-0.467 0.97-0.336 0.24-0.413 0.253-1.443 0.253h-0.874l-0.003 0.87c0 0.48-0.006 0.906-0.016 0.944-0.067 0.365-0.333 0.71-0.678 0.88-0.192 0.096-0.24 0.106-0.502 0.106s-0.31-0.010-0.499-0.102c-0.256-0.125-0.48-0.355-0.598-0.611l-0.086-0.182-0.010-0.954-0.013-0.95h-0.867c-0.979 0-1.094-0.019-1.379-0.208-0.672-0.445-0.704-1.475-0.061-1.946 0.31-0.227 0.307-0.227 1.363-0.24l0.95-0.013v-0.867c0-0.938 0.019-1.088 0.17-1.344 0.093-0.16 0.32-0.374 0.474-0.458 0.301-0.157 0.739-0.17 1.043-0.029zM21.699 10.134c0.259 0.122 0.461 0.323 0.586 0.586 0.086 0.186 0.099 0.24 0.099 0.496s-0.013 0.31-0.099 0.496c-0.125 0.262-0.323 0.461-0.589 0.589-0.186 0.090-0.24 0.099-0.496 0.099-0.262 0-0.31-0.010-0.502-0.106-0.272-0.134-0.454-0.317-0.582-0.582-0.086-0.186-0.099-0.24-0.099-0.496s0.010-0.31 0.099-0.496c0.294-0.611 0.986-0.867 1.584-0.586zM18.883 12.918c0.762 0.362 0.931 1.347 0.333 1.939-0.355 0.349-0.883 0.435-1.344 0.221-0.547-0.259-0.813-0.88-0.621-1.456 0.227-0.678 0.989-1.008 1.632-0.704zM24.464 12.909c0.944 0.432 0.954 1.731 0.016 2.176-0.186 0.086-0.24 0.099-0.496 0.099s-0.31-0.013-0.496-0.099c-0.787-0.378-0.941-1.366-0.307-1.974 0.32-0.304 0.87-0.39 1.283-0.202zM21.699 15.702c0.746 0.349 0.931 1.331 0.358 1.91-0.259 0.266-0.538 0.374-0.918 0.358-0.448-0.016-0.826-0.272-1.024-0.691-0.090-0.186-0.099-0.24-0.099-0.496 0-0.262 0.010-0.31 0.102-0.499 0.166-0.336 0.461-0.582 0.8-0.669 0.227-0.054 0.557-0.019 0.781 0.086z"></path>
</svg>
