<!-- Generated by IcoMoon.io -->
<svg version="1.1" xmlns="http://www.w3.org/2000/svg" width="32" height="32" viewBox="0 0 32 32">
<title>Gas_tank</title>
<path fill="#ff7900" d="M13.382 5.632c-0.058 0.013-0.163 0.064-0.237 0.115-0.531 0.368-0.416 1.187 0.198 1.405 0.077 0.026 0.163 0.048 0.195 0.048 0.058 0 0.061 0.029 0.061 0.4v0.4h-4.096c-2.81 0-4.147 0.010-4.262 0.035-0.608 0.125-1.165 0.499-1.667 1.126-0.925 1.155-1.597 3.027-1.846 5.142-0.019 0.166-0.042 0.346-0.048 0.4-0.086 0.646-0.083 2.829 0 3.424 0.010 0.051 0.035 0.262 0.064 0.464 0.106 0.803 0.186 1.226 0.368 1.914 0.547 2.070 1.552 3.622 2.659 4.112 0.314 0.138 0.589 0.182 1.13 0.182h0.499v0.8h-0.8v1.6h4.8v-1.6h-0.8v-0.8h11.2v-6.835c0-6.253 0.003-6.845 0.051-6.944 0.093-0.195 0.307-0.266 0.515-0.173 0.224 0.099 0.234 0.147 0.234 1.12v0.832h3.2v-0.829c0-0.49 0.013-0.864 0.032-0.922 0.106-0.301 0.579-0.32 0.717-0.029 0.048 0.099 0.051 0.685 0.051 6.947v6.838l0.602-0.013c0.544-0.016 0.621-0.022 0.838-0.102 0.768-0.272 1.456-0.963 2.026-2.035 0.544-1.030 0.928-2.282 1.158-3.776 0.010-0.077 0.064-0.525 0.096-0.784 0.086-0.768 0.086-2.803 0.003-3.344-0.006-0.045-0.022-0.173-0.035-0.288-0.118-1.2-0.454-2.57-0.893-3.632-0.525-1.267-1.354-2.285-2.144-2.64-0.419-0.189-0.077-0.173-4.65-0.182l-4.202-0.010v-0.79l0.173-0.038c0.224-0.048 0.406-0.182 0.522-0.378 0.077-0.131 0.090-0.189 0.090-0.397 0-0.214-0.013-0.262-0.096-0.4-0.106-0.166-0.285-0.307-0.467-0.362-0.134-0.042-5.066-0.045-5.238-0.003z"></path>
<path fill="#ff7900" d="M21.6 14.8v1.2h3.2v-2.4h-3.2v1.2z"></path>
<path fill="#ff7900" d="M21.6 18v1.2h3.2v-2.4h-3.2v1.2z"></path>
<path fill="#ff7900" d="M21.6 21.2v1.2h3.2v-2.4h-3.2v1.2z"></path>
<path fill="#ff7900" d="M21.6 24.4v1.2h-0.8v1.6h4.8v-1.6h-0.8v-2.4h-3.2v1.2z"></path>
</svg>
