<!-- Generated by IcoMoon.io -->
<svg version="1.1" xmlns="http://www.w3.org/2000/svg" width="32" height="32" viewBox="0 0 32 32">
<title>gauge-mon-reseau</title>
<path fill="#ff7900" d="M15.901 2.381c-0.006 0.006-0.25 0.019-0.541 0.029-0.506 0.019-1.126 0.077-1.44 0.134-0.026 0.003-0.112 0.019-0.192 0.032-0.080 0.010-0.352 0.064-0.605 0.115-3.734 0.784-7.002 3.162-8.918 6.496-0.89 1.549-1.478 3.306-1.693 5.037-0.029 0.227-0.058 0.467-0.067 0.528s-0.022 0.595-0.032 1.184c-0.013 0.877-0.006 1.104 0.032 1.245 0.163 0.595 0.646 1.062 1.229 1.184 0.122 0.026 3.571 0.035 12.32 0.035 10.618 0 12.176-0.006 12.352-0.048 0.547-0.128 0.986-0.531 1.171-1.072l0.083-0.24-0.013-1.056c-0.010-0.582-0.022-1.107-0.032-1.168s-0.032-0.262-0.051-0.448c-0.413-3.798-2.611-7.405-5.856-9.606-2.166-1.469-4.794-2.32-7.277-2.358-0.227-0.003-0.426-0.013-0.435-0.019-0.013-0.010-0.029-0.010-0.035-0.003zM16.976 4.803c2.346 0.224 4.419 1.088 6.234 2.605l0.41 0.342-0.074 0.083c-0.23 0.253-1.53 1.542-1.552 1.542-0.013 0-0.138-0.093-0.272-0.205-0.47-0.39-1.322-0.947-1.373-0.893-0.035 0.035-0.563 1.699-1.126 3.546-0.333 1.088-0.954 3.168-1.053 3.52-0.035 0.122-0.074 0.237-0.086 0.256-0.013 0.016-0.042 0.096-0.064 0.176-0.064 0.221-0.275 0.602-0.461 0.832-0.23 0.282-0.528 0.515-0.87 0.685-0.384 0.192-0.598 0.243-1.056 0.266-0.326 0.013-0.426 0.006-0.656-0.054-1.258-0.323-2.070-1.514-1.901-2.787 0.042-0.314 0.109-0.541 0.24-0.8 0.147-0.294 0.256-0.438 0.784-1.024 0.278-0.307 0.605-0.669 0.73-0.81 0.125-0.138 0.243-0.269 0.259-0.288 0.019-0.019 0.291-0.323 0.608-0.675 0.314-0.352 0.589-0.656 0.608-0.675 0.051-0.054 0.496-0.55 0.688-0.765 0.093-0.106 0.192-0.214 0.221-0.243s0.16-0.173 0.291-0.32c0.131-0.147 0.464-0.512 0.736-0.813 0.272-0.298 0.522-0.573 0.55-0.605 0.032-0.035 0.058-0.074 0.058-0.086 0-0.042-0.582-0.202-1.056-0.298-1.267-0.253-2.65-0.214-3.92 0.109-1.315 0.333-2.48 0.931-3.555 1.827l-0.259 0.214-0.845-0.845-0.845-0.848 0.176-0.163c0.096-0.093 0.317-0.275 0.486-0.413 1.651-1.315 3.571-2.112 5.706-2.365 0.528-0.061 1.738-0.077 2.24-0.029zM8.643 9.184c0.458 0.454 0.829 0.842 0.829 0.854s-0.086 0.125-0.192 0.25c-0.253 0.294-0.589 0.762-0.81 1.12-0.195 0.323-0.448 0.816-0.429 0.835 0.013 0.013 0.627 0.272 1.152 0.483 0.154 0.061 0.278 0.128 0.278 0.15-0.003 0.067-0.285 0.707-0.31 0.701-0.013-0.003-0.429-0.173-0.922-0.378-0.493-0.208-1.062-0.442-1.264-0.525-1.152-0.477-1.427-0.592-1.45-0.611-0.064-0.058 0.493-1.242 0.896-1.904 0.282-0.464 0.586-0.896 0.902-1.28 0.234-0.285 0.454-0.528 0.477-0.528 0.006 0 0.387 0.374 0.842 0.832zM24.371 8.534c0.896 1.037 1.571 2.138 2.048 3.344l0.070 0.182-0.63 0.259c-2.474 1.027-3.021 1.251-3.050 1.242s-0.323-0.701-0.304-0.717c0.003-0.003 0.288-0.122 0.63-0.262s0.669-0.275 0.726-0.301l0.102-0.045-0.192-0.365c-0.294-0.563-0.806-1.306-1.184-1.722l-0.102-0.109 0.845-0.845c0.464-0.464 0.851-0.845 0.864-0.845 0.010 0 0.086 0.083 0.176 0.182z"></path>
<path fill="#ff7900" d="M19.293 8.326c-0.147 0.163-0.275 0.304-0.285 0.314s-0.285 0.31-0.608 0.672c-0.323 0.362-0.598 0.662-0.608 0.672s-0.339 0.374-0.736 0.816c-0.397 0.438-0.778 0.864-0.854 0.944-0.074 0.080-0.16 0.173-0.192 0.211-0.061 0.070-0.486 0.544-0.614 0.682-0.144 0.16-0.531 0.589-0.582 0.65-0.029 0.032-0.163 0.182-0.301 0.33-0.138 0.15-0.288 0.326-0.333 0.394-0.224 0.31-0.339 0.72-0.314 1.11 0.042 0.704 0.47 1.286 1.13 1.539 0.272 0.106 0.73 0.131 1.005 0.058 0.608-0.163 1.098-0.646 1.264-1.258 0.022-0.080 0.224-0.73 0.448-1.443s0.426-1.36 0.448-1.44c0.022-0.080 0.186-0.611 0.365-1.184 0.387-1.229 0.518-1.661 0.739-2.368 0.090-0.291 0.198-0.634 0.24-0.762 0.042-0.125 0.070-0.23 0.064-0.23-0.003 0-0.128 0.134-0.275 0.294z"></path>
</svg>
