<!-- Generated by IcoMoon.io -->
<svg version="1.1" xmlns="http://www.w3.org/2000/svg" width="32" height="32" viewBox="0 0 32 32">
<title>gauge_rate</title>
<path fill="#ff7900" d="M15.194 2.416c-0.003 0.003-0.147 0.019-0.314 0.029-0.166 0.013-0.333 0.029-0.368 0.035s-0.134 0.022-0.224 0.032c-0.211 0.022-0.342 0.045-0.832 0.125-0.035 0.003-0.099 0.019-0.144 0.029s-0.218 0.051-0.384 0.086c-0.592 0.131-1.597 0.445-2 0.624-0.051 0.026-0.189 0.083-0.304 0.128-0.71 0.291-1.939 0.989-2.56 1.45-0.080 0.061-0.186 0.138-0.24 0.176-0.397 0.294-0.944 0.768-1.421 1.242-1.427 1.408-2.534 3.158-3.226 5.085-0.24 0.675-0.493 1.648-0.586 2.266-0.080 0.509-0.093 0.611-0.112 0.822-0.013 0.122-0.029 0.266-0.038 0.32-0.029 0.182-0.035 1.795-0.010 2.112 0.032 0.368 0.096 0.963 0.115 1.056 0.010 0.035 0.045 0.23 0.080 0.432 0.301 1.725 1.005 3.475 2.010 5.008 0.115 0.176 0.221 0.333 0.237 0.352 0.013 0.016 0.125 0.17 0.25 0.336 0.762 1.018 1.658 1.914 2.669 2.678 0.806 0.605 1.299 0.912 2.195 1.36 1.203 0.598 2.765 1.088 4.013 1.254 0.070 0.010 0.23 0.032 0.352 0.048 0.611 0.083 2.118 0.115 2.736 0.058 1.494-0.138 2.755-0.438 4.048-0.963 0.662-0.272 1.507-0.701 2.032-1.037 0.522-0.333 1.107-0.749 1.379-0.979 0.064-0.054 0.186-0.157 0.272-0.227s0.256-0.221 0.381-0.336c2.144-1.997 3.552-4.49 4.122-7.296 0.102-0.493 0.176-0.963 0.202-1.28 0.010-0.131 0.026-0.275 0.035-0.32 0.029-0.144 0.035-1.798 0.006-2.112-0.035-0.435-0.093-0.918-0.125-1.104-0.016-0.090-0.045-0.253-0.064-0.368-0.262-1.485-0.89-3.165-1.667-4.454-0.189-0.31-0.525-0.835-0.582-0.906-0.013-0.019-0.131-0.176-0.266-0.352-1.642-2.195-3.955-3.859-6.589-4.736-0.874-0.291-1.99-0.531-2.832-0.611-0.115-0.010-0.25-0.026-0.304-0.035-0.106-0.016-1.923-0.042-1.942-0.026zM17.072 4.842c0.035 0.010 0.138 0.026 0.224 0.035 1.325 0.166 2.416 0.483 3.568 1.034 0.483 0.234 0.794 0.41 1.28 0.736 0.534 0.355 0.525 0.349 0.8 0.566 1.722 1.379 2.982 3.168 3.677 5.222 0.237 0.701 0.442 1.632 0.499 2.253 0.013 0.115 0.026 0.224 0.032 0.243s0.022 0.269 0.035 0.554l0.022 0.515h-2.406c-1.322 0-2.403-0.010-2.406-0.026-0.003-0.013-0.010-0.096-0.016-0.182-0.128-1.75-0.704-3.35-1.709-4.752-0.122-0.166-0.259-0.352-0.31-0.413l-0.093-0.106-0.154 0.842c-0.086 0.464-0.163 0.874-0.17 0.909s-0.032 0.179-0.058 0.32c-0.058 0.323-0.381 2.083-0.608 3.299-0.096 0.512-0.205 1.024-0.243 1.136-0.282 0.822-0.925 1.533-1.712 1.888-0.704 0.32-1.552 0.365-2.314 0.125-0.758-0.24-1.472-0.848-1.84-1.568-0.253-0.493-0.342-0.845-0.355-1.408-0.013-0.464 0.051-0.835 0.211-1.242 0.131-0.33 0.224-0.486 0.595-1.005 0.173-0.24 0.541-0.758 0.819-1.152s1.088-1.533 1.798-2.538c0.714-1.002 1.283-1.834 1.27-1.846-0.051-0.048-0.621-0.314-0.966-0.451-0.771-0.301-1.51-0.48-2.397-0.582-0.496-0.054-1.664-0.042-2.147 0.029-2.042 0.288-3.77 1.136-5.261 2.576l-0.282 0.275 0.17-0.256c1.389-2.093 3.315-3.603 5.661-4.438 0.65-0.234 1.558-0.454 2.141-0.522 0.080-0.010 0.176-0.026 0.211-0.032s0.202-0.022 0.368-0.035c0.166-0.010 0.31-0.026 0.317-0.032 0.019-0.016 1.667 0.013 1.747 0.029z"></path>
<path fill="#ff7900" d="M20.234 5.882c-0.035 0.048-0.435 0.611-0.89 1.254s-0.966 1.363-1.133 1.6c-0.17 0.237-0.33 0.464-0.355 0.502-0.026 0.035-0.163 0.23-0.307 0.432-0.141 0.198-0.573 0.806-0.96 1.354-0.387 0.544-1.136 1.597-1.661 2.336-0.989 1.389-1.152 1.654-1.248 2.022-0.067 0.256-0.090 0.784-0.045 1.034 0.115 0.605 0.435 1.123 0.931 1.498 0.803 0.608 1.894 0.646 2.749 0.096 0.442-0.285 0.829-0.787 0.976-1.27 0.035-0.115 0.262-1.28 0.416-2.131 0.010-0.054 0.035-0.211 0.061-0.352 0.077-0.419 0.429-2.339 0.499-2.71 0.035-0.189 0.070-0.384 0.080-0.432 0.029-0.157 0.083-0.451 0.384-2.090 0.045-0.237 0.138-0.746 0.205-1.126 0.131-0.723 0.134-0.733 0.189-1.018 0.099-0.496 0.198-1.066 0.186-1.075-0.006-0.006-0.042 0.029-0.077 0.077z"></path>
</svg>
