<!-- Generated by IcoMoon.io -->
<svg version="1.1" xmlns="http://www.w3.org/2000/svg" width="32" height="32" viewBox="0 0 32 32">
<title>generic_document</title>
<path fill="#ff7900" d="M5.6 15.302c0 14.067-0.013 13.034 0.179 13.43 0.115 0.234 0.454 0.573 0.688 0.688 0.397 0.192-0.342 0.179 10.23 0.179h9.702v-19.2l-2.518-0.003c-1.389 0-2.586-0.010-2.666-0.019-0.467-0.058-1.005-0.262-1.421-0.538-0.445-0.294-0.896-0.842-1.123-1.357-0.109-0.246-0.224-0.659-0.253-0.915-0.006-0.070-0.016-1.261-0.016-2.65l-0.003-2.518h-12.8v12.902zM21.859 12.048c0.192 0.067 0.333 0.186 0.435 0.362 0.074 0.125 0.090 0.186 0.090 0.39s-0.013 0.262-0.086 0.387c-0.106 0.179-0.272 0.31-0.467 0.368-0.118 0.038-1.11 0.045-5.862 0.045-6.272 0-5.811 0.013-6.070-0.182-0.362-0.275-0.387-0.848-0.054-1.181 0.25-0.25-0.234-0.234 6.16-0.234 5.037-0.003 5.734 0.003 5.856 0.045zM21.866 15.251c0.211 0.070 0.416 0.278 0.486 0.493 0.106 0.317 0 0.688-0.25 0.877-0.25 0.192 0.138 0.179-6.099 0.179-6.435 0-5.907 0.022-6.166-0.246-0.352-0.362-0.301-0.922 0.112-1.206 0.070-0.051 0.176-0.102 0.234-0.115s2.678-0.026 5.821-0.029c5.155-0.003 5.728 0.003 5.862 0.048zM21.853 18.451c0.179 0.051 0.374 0.218 0.467 0.4 0.147 0.278 0.077 0.675-0.16 0.912-0.256 0.256 0.224 0.237-6.16 0.237-6.4 0-5.907 0.019-6.16-0.243-0.314-0.323-0.314-0.803 0-1.117 0.253-0.253-0.259-0.234 6.131-0.237 5.078-0.003 5.731 0.003 5.882 0.048zM13.872 21.651c0.163 0.058 0.362 0.23 0.454 0.403 0.038 0.074 0.058 0.176 0.058 0.346 0 0.205-0.013 0.262-0.086 0.387-0.048 0.080-0.138 0.186-0.198 0.234-0.237 0.179-0.23 0.179-2.096 0.179-1.93 0-1.923 0-2.15-0.227-0.16-0.16-0.221-0.288-0.243-0.493-0.026-0.243 0.058-0.47 0.237-0.646 0.24-0.23 0.218-0.23 2.157-0.23 1.51-0.003 1.731 0.003 1.869 0.048z"></path>
<path fill="#ff7900" d="M20 4.918c0.003 1.61 0.016 2.547 0.035 2.65 0.125 0.586 0.589 1.085 1.123 1.2 0.122 0.026 0.89 0.032 2.698 0.026l2.528-0.010-3.178-3.178c-1.744-1.744-3.181-3.174-3.19-3.174s-0.016 1.12-0.016 2.486z"></path>
</svg>
