<!-- Generated by IcoMoon.io -->
<svg version="1.1" xmlns="http://www.w3.org/2000/svg" width="32" height="32" viewBox="0 0 32 32">
<title>hands_free</title>
<path fill="#ff7900" d="M3.421 1.648c-0.23 0.061-0.429 0.173-0.589 0.33-0.186 0.179-0.285 0.333-0.365 0.573-0.064 0.186-0.064 0.266-0.067 10.618 0 11.238-0.010 10.566 0.163 10.909 0.166 0.339 0.579 0.64 0.957 0.704 0.045 0.010 1.827 0.016 3.962 0.016 3.862 0.003 3.878 0.003 3.878 0.067 0 0.035 0.035 0.214 0.080 0.397 0.451 1.917 1.696 3.482 3.443 4.333 1.066 0.515 2.285 0.733 3.453 0.611 1.898-0.195 3.616-1.238 4.675-2.829 0.259-0.39 0.579-1.043 0.726-1.494 0.16-0.483 0.246-0.867 0.314-1.418 0.013-0.090 0.026-2.24 0.029-4.784 0.006-2.544 0.010-4.63 0.013-4.64s0.138-0.035 0.304-0.058c0.397-0.054 0.435-0.061 0.771-0.15 1.683-0.451 3.13-1.67 3.872-3.264 0.259-0.56 0.448-1.216 0.525-1.84 0.016-0.131 0.032-1.862 0.032-3.843 0.003-3.926 0.013-3.741-0.176-3.987-0.042-0.058-0.147-0.144-0.23-0.192-0.144-0.086-0.17-0.090-0.669-0.099l-0.522-0.013v2.406h0.643l-0.013 2.854c-0.010 2.81-0.013 2.864-0.080 3.171-0.237 1.046-0.669 1.837-1.398 2.57-0.928 0.931-2.070 1.43-3.366 1.472-0.714 0.022-1.376-0.083-2.003-0.326-1.568-0.602-2.794-2.045-3.11-3.658-0.026-0.134-0.058-0.288-0.070-0.339-0.013-0.054-0.026-1.366-0.032-2.922l-0.013-2.822h0.643v-2.406l-0.518 0.013c-0.506 0.010-0.528 0.013-0.675 0.099-0.179 0.106-0.317 0.285-0.371 0.477-0.029 0.106-0.035 1.040-0.026 3.85 0.010 4.016 0.003 3.802 0.182 4.506 0.426 1.645 1.542 3.050 3.043 3.824 0.659 0.339 1.261 0.528 2.013 0.627l0.272 0.038v4.458c0 4.925 0 4.973-0.144 5.587-0.368 1.578-1.437 2.922-2.902 3.648-0.55 0.269-0.986 0.403-1.61 0.496-0.717 0.106-1.437 0.067-2.147-0.112-1.91-0.483-3.424-2.006-3.92-3.952-0.042-0.166-0.077-0.314-0.077-0.33 0-0.013 0.544-0.022 1.213-0.022 0.666 0 1.283-0.013 1.376-0.032 0.486-0.093 0.896-0.474 1.040-0.973 0.045-0.157 0.051-1.213 0.051-10.557 0-6.89-0.010-10.438-0.032-10.554-0.096-0.509-0.544-0.957-1.059-1.053-0.269-0.051-11.302-0.038-11.488 0.016zM10.538 2.429c0.112 0.045 0.211 0.157 0.246 0.288 0.022 0.086 0.016 0.138-0.029 0.243-0.106 0.24-0.106 0.24-1.552 0.24-1.437 0-1.437 0-1.546-0.221-0.106-0.214-0.032-0.445 0.176-0.538 0.106-0.048 2.582-0.058 2.704-0.013zM14.4 12.8v8.8h-10.4v-17.6h10.4v8.8zM9.555 22.49c0.515 0.266 0.592 0.928 0.154 1.315-0.493 0.435-1.296 0.070-1.302-0.589-0.003-0.368 0.218-0.669 0.586-0.787 0.128-0.042 0.426-0.010 0.563 0.061z"></path>
<path fill="#ff7900" d="M20 2.797v1.203h0.266c0.602 0 0.989-0.224 1.219-0.704 0.086-0.186 0.099-0.24 0.099-0.496s-0.013-0.31-0.099-0.496c-0.115-0.24-0.314-0.451-0.538-0.566-0.208-0.106-0.24-0.112-0.618-0.128l-0.33-0.016v1.203z"></path>
<path fill="#ff7900" d="M26.451 1.651c-0.323 0.099-0.582 0.333-0.736 0.653-0.090 0.186-0.099 0.24-0.099 0.496s0.013 0.314 0.099 0.496c0.125 0.262 0.323 0.461 0.589 0.589 0.182 0.086 0.246 0.099 0.554 0.109l0.342 0.013v-2.406l-0.294 0.003c-0.166 0-0.368 0.022-0.454 0.048z"></path>
</svg>
