<!-- Generated by IcoMoon.io -->
<svg version="1.1" xmlns="http://www.w3.org/2000/svg" width="32" height="32" viewBox="0 0 32 32">
<title>HDMI_Card</title>
<path fill="#ff7900" d="M2.73 10.448c-0.317 0.070-0.579 0.176-0.822 0.339-0.56 0.371-0.909 0.87-1.043 1.501-0.061 0.278-0.064 0.422-0.064 4.118 0.003 2.461 0.016 3.891 0.035 3.994 0.019 0.086 0.038 0.192 0.048 0.234 0.022 0.106 0.125 0.362 0.205 0.506 0.33 0.586 0.835 0.986 1.488 1.184 0.182 0.058 0.614 0.061 10.064 0.067 9.059 0.010 9.882 0.006 10.026-0.042 0.17-0.058 0.365-0.227 0.461-0.403 0.054-0.099 0.058-0.371 0.067-5.482 0.010-6.026 0.026-5.555-0.23-5.818-0.262-0.272 0.771-0.246-10.24-0.243-8.083 0-9.83 0.010-9.994 0.045zM6.573 13.664c0.528 0.118 0.918 0.317 1.299 0.662 0.64 0.586 0.941 1.306 0.912 2.186-0.038 1.213-0.826 2.214-2.022 2.582-0.253 0.077-0.33 0.083-0.762 0.083-0.426 0-0.512-0.010-0.762-0.086-0.992-0.298-1.686-1.018-1.962-2.035-0.086-0.317-0.080-1.021 0.013-1.36 0.294-1.066 1.146-1.85 2.224-2.048 0.314-0.058 0.749-0.051 1.059 0.016z"></path>
<path fill="#ff7900" d="M24 16.4v4.4h5.603l0.797-0.8 0.8-0.8v-5.6l-1.6-1.6h-5.6v4.4zM27.2 14.4v0.8h-1.6v-1.6h1.6v0.8zM27.2 18.4v0.8h-1.6v-1.6h1.6v0.8z"></path>
</svg>
