<!-- Generated by IcoMoon.io -->
<svg version="1.1" xmlns="http://www.w3.org/2000/svg" width="32" height="32" viewBox="0 0 32 32">
<title>health_monitor</title>
<path fill="#ff7900" d="M12.512 1.622c-0.294 0.051-0.653 0.25-0.87 0.483-0.189 0.205-0.275 0.355-0.365 0.624-0.074 0.227-0.074 0.246-0.077 1.949v1.722h9.6v-1.69c0-1.859-0.003-1.885-0.198-2.275-0.198-0.387-0.653-0.72-1.094-0.8-0.186-0.035-6.803-0.045-6.995-0.013z"></path>
<path fill="#ff7900" d="M8.464 7.238c-0.589 0.112-1.117 0.653-1.229 1.254-0.051 0.272-0.051 14.794 0 15.034 0.128 0.611 0.653 1.13 1.261 1.238 0.131 0.026 2.381 0.035 7.552 0.035 6.266 0 7.386-0.006 7.533-0.048 0.602-0.16 1.078-0.659 1.184-1.245 0.026-0.131 0.035-1.472 0.035-4.25v-4.058h0.653c0.624 0 0.653-0.003 0.758-0.074 0.186-0.125 0.189-0.147 0.189-1.12 0-0.986-0.006-1.024-0.202-1.142-0.093-0.058-0.163-0.064-0.749-0.064h-0.65l-0.003-2.096c-0.003-1.152-0.006-2.106-0.010-2.122-0.003-0.013-0.016-0.080-0.032-0.147-0.077-0.394-0.454-0.877-0.822-1.056-0.394-0.189 0.131-0.179-7.917-0.176-4.541 0.003-7.453 0.016-7.552 0.035zM23.2 16v7.2h-14.4v-14.4h14.4v7.2z"></path>
<path fill="#ff7900" d="M12.902 12.061c-0.128 0.032-0.339 0.112-0.47 0.176-0.598 0.294-0.998 0.806-1.171 1.491-0.112 0.438-0.054 0.989 0.147 1.424 0.128 0.272 0.256 0.435 1.024 1.28 0.176 0.195 0.435 0.48 0.576 0.637s0.33 0.368 0.419 0.464c0.141 0.157 0.566 0.627 0.982 1.091 0.074 0.080 0.195 0.218 0.275 0.304 0.080 0.090 0.269 0.298 0.419 0.461 0.15 0.166 0.288 0.317 0.304 0.336 0.096 0.106 0.576 0.646 0.579 0.653 0.006 0.006 0.064-0.048 0.131-0.125 0.067-0.074 0.138-0.15 0.154-0.17 0.019-0.019 0.365-0.403 0.768-0.851s0.742-0.822 0.752-0.832c0.010-0.010 0.211-0.234 0.448-0.496 0.237-0.266 0.438-0.486 0.448-0.496s0.205-0.224 0.432-0.48c0.227-0.256 0.48-0.538 0.563-0.624 0.080-0.090 0.211-0.23 0.288-0.32 0.077-0.086 0.182-0.202 0.234-0.256 0.128-0.131 0.346-0.477 0.429-0.678 0.394-0.938 0.045-2.093-0.803-2.662-0.73-0.49-1.677-0.509-2.406-0.048-0.221 0.138-0.32 0.224-0.899 0.774-0.157 0.154-0.342 0.326-0.406 0.387l-0.115 0.109-0.154-0.138c-0.083-0.077-0.349-0.326-0.586-0.554-0.518-0.499-0.79-0.685-1.171-0.806-0.365-0.118-0.835-0.138-1.19-0.051z"></path>
<path fill="#ff7900" d="M11.206 27.382l0.010 1.786 0.086 0.198c0.224 0.528 0.672 0.906 1.19 0.998 0.266 0.048 6.749 0.048 7.014 0 0.272-0.048 0.56-0.198 0.778-0.4 0.208-0.192 0.323-0.365 0.429-0.646 0.067-0.176 0.070-0.23 0.080-1.952l0.010-1.766h-9.606l0.010 1.782z"></path>
</svg>
