<!-- Generated by IcoMoon.io -->
<svg version="1.1" xmlns="http://www.w3.org/2000/svg" width="32" height="32" viewBox="0 0 32 32">
<title>Heartbeats</title>
<path fill="#ff7900" d="M10.736 4.029c-0.371 0.061-0.771 0.202-1.12 0.397-1.45 0.813-2.022 2.653-1.296 4.157 0.054 0.109 0.096 0.202 0.096 0.208s-0.854 0.010-1.898 0.010c-2.064 0-2.080 0-2.454 0.186-0.234 0.112-0.573 0.454-0.685 0.682-0.179 0.371-0.176 0.349-0.179 2.627v2.106h0.8l0.003 6.086c0 3.35 0.010 6.131 0.016 6.182 0.102 0.618 0.634 1.165 1.254 1.296 0.24 0.051 21.213 0.051 21.453 0 0.611-0.128 1.13-0.653 1.238-1.258 0.026-0.134 0.035-2.035 0.035-6.25v-6.058h0.8v-2.106c-0.003-2.307 0-2.262-0.198-2.656-0.125-0.246-0.422-0.538-0.672-0.659-0.365-0.179-0.381-0.179-2.445-0.179-1.050 0-1.901-0.010-1.894-0.026 0.006-0.013 0.051-0.109 0.099-0.211 0.669-1.408 0.208-3.117-1.078-3.997-0.566-0.387-1.117-0.55-1.843-0.547-0.397 0.003-0.509 0.016-0.784 0.090-0.57 0.154-1.034 0.426-1.456 0.848-0.307 0.31-0.349 0.374-1.488 2.323-0.144 0.246-0.403 0.688-0.576 0.982l-0.317 0.538h-0.294l-0.259-0.442c-1.069-1.83-1.763-2.992-1.872-3.133-0.397-0.515-1.059-0.947-1.718-1.12-0.336-0.086-0.966-0.125-1.267-0.077zM11.658 5.677c0.394 0.122 0.765 0.413 0.934 0.73 0.035 0.064 1.011 1.722 1.29 2.195 0.058 0.093 0.102 0.176 0.102 0.182 0 0.010-0.653 0.016-1.446 0.016-1.574 0-1.709-0.013-2.064-0.179-0.262-0.125-0.576-0.448-0.71-0.73-0.141-0.298-0.189-0.646-0.138-0.954 0.163-0.944 1.133-1.549 2.032-1.261zM21.168 5.648c0.557 0.144 0.982 0.547 1.168 1.104 0.058 0.173 0.067 0.63 0.013 0.826-0.118 0.445-0.445 0.861-0.819 1.040-0.346 0.17-0.49 0.182-2.064 0.182-0.797 0-1.45-0.006-1.45-0.016 0-0.006 0.058-0.109 0.128-0.224s0.128-0.214 0.128-0.221c0-0.003 0.141-0.246 0.314-0.534s0.368-0.618 0.435-0.733c0.525-0.915 0.618-1.030 0.96-1.242 0.358-0.218 0.794-0.282 1.187-0.182zM14.259 13.651c0.586 0.106 1.117 0.355 1.571 0.739l0.17 0.144 0.166-0.144c0.39-0.326 0.826-0.55 1.331-0.685 0.269-0.070 0.378-0.083 0.806-0.086 0.538 0 0.79 0.045 1.238 0.224 0.534 0.214 1.168 0.72 1.475 1.181 0.384 0.576 0.576 1.2 0.576 1.875 0 0.64-0.198 1.302-0.547 1.821-0.077 0.112-0.416 0.525-0.502 0.608-0.013 0.013-0.563 0.618-0.656 0.723-0.016 0.019-0.090 0.099-0.16 0.176s-0.474 0.522-0.896 0.989c-0.912 1.008-0.803 0.886-0.96 1.059-0.070 0.077-0.342 0.378-0.608 0.669-0.262 0.291-0.496 0.544-0.515 0.566-0.019 0.019-0.189 0.211-0.381 0.422-0.192 0.214-0.355 0.387-0.368 0.387-0.010 0-0.118-0.109-0.24-0.243s-0.237-0.262-0.253-0.282c-0.019-0.019-0.23-0.253-0.467-0.515-0.237-0.266-0.445-0.496-0.464-0.515-0.016-0.019-0.154-0.17-0.304-0.336s-0.352-0.387-0.448-0.493c-0.096-0.102-0.189-0.205-0.208-0.227-0.016-0.019-0.154-0.17-0.304-0.333s-0.294-0.323-0.32-0.352c-0.064-0.074-0.506-0.563-0.608-0.672-0.8-0.87-1.29-1.424-1.408-1.6-1.229-1.811-0.387-4.291 1.696-4.989 0.454-0.154 1.107-0.198 1.587-0.112z"></path>
</svg>
