<!-- Generated by IcoMoon.io -->
<svg version="1.1" xmlns="http://www.w3.org/2000/svg" width="32" height="32" viewBox="0 0 32 32">
<title>Heart_rate</title>
<path fill="#ff7900" d="M9.68 3.232c-1.101 0.122-1.904 0.349-2.816 0.8-0.835 0.413-1.44 0.845-2.115 1.52-0.8 0.797-1.331 1.594-1.757 2.634-0.762 1.866-0.784 3.933-0.058 5.898l0.118 0.317 9.283 0.016 0.096 0.074c0.051 0.042 0.246 0.304 0.435 0.586s0.355 0.512 0.368 0.512c0.016 0 0.038-0.042 0.048-0.090 0.026-0.109 0.736-2.832 0.867-3.322 0.051-0.195 0.099-0.374 0.106-0.4 0.010-0.051 0.243-0.941 0.499-1.914 0.083-0.323 0.179-0.63 0.211-0.685 0.115-0.198 0.4-0.272 0.608-0.16 0.218 0.118 0.23 0.163 0.422 1.286 0.054 0.307 0.147 0.861 0.211 1.232 0.064 0.368 0.122 0.714 0.131 0.768 0.010 0.051 0.131 0.758 0.269 1.568 0.141 0.81 0.269 1.552 0.288 1.648s0.038 0.218 0.048 0.272c0.141 0.861 0.118 0.819 0.234 0.416 0.035-0.125 0.093-0.326 0.131-0.448 0.035-0.125 0.16-0.563 0.278-0.976s0.237-0.784 0.262-0.826c0.064-0.096 0.266-0.198 0.394-0.198 0.144 0 0.314 0.093 0.384 0.205 0.032 0.054 0.083 0.179 0.109 0.275s0.061 0.218 0.077 0.272c0.016 0.051 0.112 0.403 0.214 0.778 0.099 0.374 0.195 0.669 0.208 0.656 0.013-0.016 0.118-0.358 0.237-0.762 0.118-0.406 0.243-0.787 0.275-0.848 0.125-0.24 0.384-0.317 0.637-0.186 0.138 0.070 0.157 0.096 0.438 0.662 0.163 0.323 0.307 0.602 0.323 0.618s0.144-0.166 0.307-0.438c0.234-0.39 0.298-0.474 0.403-0.528 0.122-0.064 0.192-0.064 3.597-0.064h3.472l0.048-0.090c0.093-0.182 0.336-0.938 0.416-1.29 0.154-0.685 0.192-1.024 0.192-1.757 0.003-0.691-0.006-0.826-0.093-1.36-0.147-0.938-0.47-1.837-0.95-2.682-1.027-1.792-2.739-3.139-4.714-3.706-0.275-0.080-0.87-0.208-1.088-0.234-0.086-0.013-0.211-0.029-0.272-0.038-0.218-0.032-1.331-0.042-1.584-0.013-0.931 0.106-1.491 0.243-2.272 0.55-0.838 0.333-1.738 0.899-2.435 1.539l-0.176 0.16-0.083-0.077c-0.048-0.042-0.154-0.138-0.234-0.211-1.043-0.963-2.752-1.744-4.176-1.914-0.102-0.013-0.218-0.029-0.256-0.038-0.118-0.026-1.341-0.035-1.568-0.010z"></path>
<path fill="#ff7900" d="M15.027 12.602c-0.256 0.998-0.486 1.878-0.755 2.902-0.106 0.403-0.237 0.915-0.294 1.133-0.083 0.333-0.115 0.413-0.205 0.499-0.182 0.182-0.486 0.182-0.656 0.003-0.051-0.054-0.253-0.336-0.445-0.627s-0.362-0.544-0.374-0.56c-0.013-0.019-0.109-0.157-0.211-0.314l-0.182-0.278h-4.16c-2.288 0-4.16 0.010-4.16 0.019 0 0.035 0.342 0.531 0.522 0.755 0.125 0.157 1.366 1.571 1.83 2.086 0.093 0.102 0.496 0.56 0.579 0.656 0.051 0.061 0.115 0.131 0.144 0.16 0.026 0.029 0.256 0.288 0.512 0.579 0.253 0.288 0.483 0.547 0.509 0.576s0.141 0.16 0.256 0.291c0.202 0.227 0.672 0.758 0.877 0.989 0.054 0.061 0.202 0.227 0.323 0.368 0.125 0.141 0.23 0.262 0.24 0.272s0.227 0.253 0.48 0.544c0.256 0.288 0.544 0.611 0.64 0.72s0.486 0.547 0.864 0.976c0.928 1.050 1.619 1.834 1.712 1.933 0.019 0.019 0.189 0.214 0.384 0.435 0.464 0.531 0.662 0.755 1.565 1.776 0.422 0.474 0.813 0.915 0.87 0.979 0.112 0.128 0.112 0.128 0.266-0.051 0.061-0.070 0.202-0.23 0.314-0.355 0.112-0.128 0.23-0.259 0.259-0.291 0.029-0.035 0.144-0.163 0.25-0.285 0.109-0.122 0.432-0.486 0.72-0.813 0.285-0.326 0.637-0.723 0.778-0.88 0.144-0.16 0.352-0.397 0.467-0.528s0.394-0.445 0.621-0.701c0.227-0.259 0.502-0.566 0.608-0.688 0.109-0.125 0.381-0.432 0.608-0.688 0.714-0.803 0.787-0.886 1.827-2.067 0.56-0.634 1.114-1.261 1.232-1.392s0.387-0.435 0.595-0.672c0.211-0.24 0.819-0.928 1.357-1.536 0.538-0.605 1.075-1.216 1.2-1.357 0.122-0.144 0.243-0.282 0.272-0.307 0.109-0.106 0.512-0.573 0.662-0.768 0.173-0.224 0.49-0.688 0.49-0.717 0-0.010-1.363-0.019-3.034-0.019h-3.030l-0.438 0.733c-0.243 0.4-0.474 0.752-0.512 0.778-0.186 0.122-0.448 0.106-0.595-0.038-0.054-0.048-0.192-0.288-0.314-0.531l-0.218-0.442-0.067 0.221c-0.038 0.125-0.186 0.605-0.323 1.069-0.221 0.733-0.266 0.854-0.355 0.947-0.214 0.221-0.605 0.166-0.739-0.102-0.035-0.067-0.166-0.518-0.294-1.002-0.131-0.483-0.246-0.893-0.256-0.906-0.013-0.013-0.198 0.598-0.416 1.36s-0.422 1.44-0.454 1.507c-0.042 0.086-0.102 0.141-0.195 0.186-0.173 0.077-0.282 0.077-0.438-0.003-0.166-0.086-0.234-0.224-0.298-0.624-0.029-0.176-0.061-0.355-0.070-0.4-0.006-0.045-0.115-0.672-0.237-1.392-0.125-0.723-0.24-1.386-0.259-1.472-0.016-0.090-0.051-0.291-0.077-0.448-0.026-0.16-0.077-0.454-0.112-0.656s-0.070-0.413-0.080-0.464c-0.048-0.275-0.25-1.44-0.288-1.658-0.022-0.138-0.048-0.253-0.054-0.259-0.006-0.010-0.112 0.371-0.234 0.838z"></path>
</svg>
