<!-- Generated by IcoMoon.io -->
<svg version="1.1" xmlns="http://www.w3.org/2000/svg" width="32" height="32" viewBox="0 0 32 32">
<title>help_guide</title>
<path fill="#ff7900" d="M2.4 15.28c0 6.941 0.010 9.725 0.035 9.846 0.122 0.582 0.592 1.069 1.184 1.226 0.259 0.070 24.502 0.070 24.762 0 0.528-0.141 0.934-0.509 1.13-1.027l0.074-0.189 0.010-9.77 0.006-9.766-5.814 0.010c-5.517 0.006-5.827 0.010-6.010 0.067-0.941 0.285-1.638 1.078-1.75 1.987-0.016 0.115-0.032 0.077-0.099-0.227-0.128-0.566-0.512-1.114-1.014-1.44-0.288-0.186-0.467-0.262-0.8-0.336-0.262-0.058-0.499-0.061-5.99-0.061h-5.722v9.68zM10.016 11.238c0.624 0.074 1.222 0.288 1.696 0.605 0.822 0.55 1.283 1.376 1.286 2.301 0 0.605-0.154 1.053-0.547 1.568-0.112 0.15-0.218 0.278-0.23 0.288s-0.15 0.138-0.307 0.288c-0.154 0.15-0.413 0.387-0.57 0.525-0.16 0.141-0.448 0.416-0.643 0.608-0.422 0.426-0.512 0.586-0.653 1.184-0.061 0.256-0.131 0.467-0.179 0.547-0.342 0.538-1.235 0.483-1.533-0.096-0.093-0.182-0.096-0.202-0.093-0.621 0-0.499 0.067-0.794 0.256-1.168 0.221-0.429 0.48-0.717 1.357-1.504 0.237-0.211 0.48-0.429 0.541-0.483 0.154-0.138 0.368-0.435 0.47-0.646 0.147-0.31 0.125-0.752-0.051-1.101-0.090-0.176-0.326-0.419-0.525-0.538-0.506-0.304-1.405-0.301-1.882 0.006-0.33 0.211-0.614 0.659-0.854 1.344-0.176 0.506-0.374 0.739-0.707 0.835-0.454 0.131-0.954-0.102-1.171-0.55-0.195-0.397 0.045-1.331 0.493-1.933 0.573-0.768 1.52-1.309 2.534-1.446 0.374-0.051 0.95-0.058 1.312-0.013zM26.666 11.245c0.176 0.064 0.323 0.189 0.426 0.362 0.080 0.134 0.093 0.186 0.093 0.394 0 0.205-0.016 0.266-0.086 0.387-0.048 0.080-0.138 0.186-0.205 0.237-0.24 0.182-0.093 0.176-4.093 0.176-4.163 0-3.91 0.016-4.16-0.243-0.144-0.147-0.24-0.365-0.24-0.541 0-0.355 0.266-0.707 0.589-0.784 0.054-0.016 1.776-0.026 3.827-0.029 3.037 0 3.75 0.006 3.85 0.042zM26.666 14.445c0.176 0.064 0.33 0.195 0.429 0.365 0.077 0.128 0.090 0.186 0.090 0.39s-0.016 0.266-0.090 0.39c-0.048 0.083-0.134 0.189-0.192 0.23-0.246 0.189-0.051 0.179-4.115 0.179-2.995-0.003-3.754-0.010-3.85-0.045-0.547-0.195-0.707-0.893-0.301-1.309 0.25-0.259-0.038-0.24 4.163-0.243 3.050 0 3.766 0.006 3.866 0.042zM26.637 17.645c0.198 0.061 0.342 0.176 0.454 0.362 0.080 0.134 0.093 0.186 0.093 0.394 0 0.205-0.016 0.266-0.090 0.39-0.048 0.083-0.134 0.189-0.192 0.23-0.246 0.189-0.051 0.179-4.099 0.179-4.182 0-3.91 0.016-4.163-0.24-0.144-0.144-0.24-0.368-0.24-0.563 0-0.33 0.253-0.669 0.57-0.765 0.048-0.016 1.757-0.029 3.802-0.029 3.117-0.003 3.738 0.003 3.866 0.042zM9.648 20.285c0.23 0.102 0.362 0.214 0.496 0.426 0.272 0.416 0.218 1.011-0.122 1.354-0.538 0.55-1.501 0.41-1.834-0.266-0.067-0.128-0.077-0.198-0.077-0.486 0-0.307 0.006-0.349 0.090-0.496 0.106-0.192 0.24-0.342 0.4-0.448 0.269-0.176 0.749-0.214 1.046-0.083zM23.472 20.854c0.211 0.070 0.406 0.272 0.48 0.49 0.102 0.31-0.006 0.691-0.253 0.88-0.234 0.179-0.205 0.176-2.48 0.176-2.374 0-2.336 0.003-2.566-0.227-0.234-0.234-0.301-0.496-0.205-0.816 0.074-0.253 0.269-0.442 0.56-0.534 0.026-0.010 1.008-0.019 2.179-0.019 1.901-0.003 2.147 0.003 2.285 0.051z"></path>
</svg>
