<!-- Generated by IcoMoon.io -->
<svg version="1.1" xmlns="http://www.w3.org/2000/svg" width="32" height="32" viewBox="0 0 32 32">
<title>history</title>
<path fill="#ff7900" d="M15.197 2.413c-0.006 0.006-0.141 0.022-0.301 0.032-1.68 0.128-3.418 0.611-4.954 1.382-1.805 0.902-3.251 2.070-4.586 3.702l-0.102 0.125-2.854-2.861v3.309c0 2.762 0.010 3.334 0.048 3.478 0.16 0.602 0.659 1.078 1.245 1.184 0.128 0.022 1.248 0.035 3.45 0.035h3.261l-1.424-1.427c-1.165-1.162-1.421-1.434-1.398-1.478 0.070-0.131 0.608-0.768 0.925-1.098 1.738-1.818 4.077-2.934 6.614-3.162 0.454-0.042 1.437-0.032 1.888 0.016 2.064 0.214 3.904 0.966 5.504 2.24 0.451 0.362 1.235 1.146 1.597 1.597 1.043 1.309 1.754 2.826 2.080 4.432 0.147 0.733 0.202 1.277 0.202 2.048 0.006 2.47-0.781 4.678-2.374 6.656-0.186 0.234-0.973 1.040-1.2 1.235-1.693 1.443-3.734 2.307-5.904 2.506-0.32 0.029-1.725 0.022-1.936-0.010-0.061-0.010-0.234-0.032-0.384-0.054-1.123-0.144-2.224-0.486-3.28-1.021-0.726-0.368-1.44-0.838-2.054-1.357-0.307-0.262-0.976-0.941-1.264-1.29-1.27-1.53-2.093-3.437-2.31-5.373-0.074-0.65-0.080-0.752-0.083-1.517-0.003-0.698-0.006-0.726-0.083-0.886-0.045-0.093-0.134-0.211-0.198-0.266-0.224-0.186-0.314-0.195-1.389-0.186l-0.97 0.010-0.157 0.093c-0.179 0.109-0.323 0.294-0.374 0.48-0.035 0.128-0.019 1.907 0.019 2.211 0.006 0.070 0.032 0.272 0.051 0.448s0.042 0.349 0.048 0.384c0.006 0.035 0.042 0.23 0.080 0.432 0.672 3.754 2.973 7.104 6.266 9.133 1.779 1.098 3.846 1.773 6.003 1.962 0.365 0.032 1.834 0.032 2.192 0 2.051-0.182 3.971-0.778 5.667-1.75 0.243-0.141 0.269-0.157 0.736-0.458 0.269-0.173 0.986-0.698 1.085-0.794 0.026-0.026 0.115-0.099 0.195-0.163 0.595-0.477 1.478-1.408 2.054-2.163 0.982-1.293 1.744-2.787 2.202-4.317 0.15-0.506 0.147-0.486 0.294-1.21 0.096-0.47 0.131-0.672 0.202-1.216 0.061-0.477 0.083-1.955 0.038-2.544-0.035-0.432-0.141-1.219-0.214-1.568-0.365-1.792-1.030-3.408-2.016-4.896-0.099-0.15-0.189-0.288-0.205-0.304-0.013-0.019-0.138-0.182-0.275-0.368-1.731-2.304-4.198-4.016-6.979-4.848-0.755-0.224-1.709-0.416-2.432-0.483-0.115-0.010-0.25-0.026-0.304-0.035-0.112-0.016-1.923-0.045-1.939-0.029z"></path>
<path fill="#ff7900" d="M15.632 8.042c-0.611 0.157-1.085 0.656-1.2 1.254-0.026 0.138-0.032 1.158-0.026 3.632l0.010 3.44 0.083 0.192c0.112 0.259 0.218 0.422 0.384 0.579 0.077 0.074 1.024 0.87 2.106 1.77 1.443 1.203 2.016 1.661 2.16 1.728 0.65 0.307 1.373 0.166 1.859-0.355 0.598-0.646 0.573-1.587-0.064-2.218-0.125-0.125-0.928-0.806-1.786-1.52l-1.558-1.296v-2.88c0-1.933-0.013-2.947-0.035-3.075-0.096-0.525-0.477-0.979-0.998-1.187-0.243-0.096-0.691-0.125-0.934-0.064z"></path>
</svg>
