<!-- Generated by IcoMoon.io -->
<svg version="1.1" xmlns="http://www.w3.org/2000/svg" width="32" height="32" viewBox="0 0 32 32">
<title>homescreen</title>
<path fill="#ff7900" d="M9.226 2.445c-0.579 0.141-1.069 0.646-1.19 1.229-0.051 0.24-0.051 24.413 0 24.653 0.125 0.598 0.64 1.114 1.238 1.238 0.24 0.051 13.213 0.051 13.453 0 0.598-0.125 1.114-0.64 1.238-1.238 0.051-0.24 0.051-24.413 0-24.653-0.125-0.598-0.64-1.114-1.238-1.238-0.259-0.054-13.274-0.045-13.501 0.010zM17.398 3.264c0.115 0.070 0.202 0.211 0.202 0.336s-0.086 0.266-0.202 0.336c-0.096 0.061-0.17 0.064-1.392 0.064-1.424 0-1.421 0-1.542-0.202-0.115-0.189-0.058-0.416 0.138-0.534 0.096-0.061 0.17-0.064 1.398-0.064s1.302 0.003 1.398 0.064zM22.4 7.798l-0.003 3.002-0.064-0.080c-0.518-0.637-1.146-1.245-1.616-1.568-1.008-0.694-1.843-1.078-2.909-1.328-0.637-0.15-1.008-0.189-1.792-0.189-0.685-0.003-0.947 0.019-1.536 0.122-0.794 0.141-1.869 0.557-2.624 1.018-0.701 0.429-1.514 1.126-2 1.722-0.096 0.115-0.192 0.23-0.214 0.256-0.035 0.038-0.042-0.474-0.042-2.954v-2.998h12.8v2.998zM16.928 8.957c0.461 0.080 0.736 0.141 1.034 0.23 1.949 0.595 3.542 2.067 4.291 3.971l0.147 0.374v4.166l-0.115 0.294c-0.598 1.558-1.75 2.845-3.219 3.603-0.582 0.298-1.37 0.557-1.958 0.646-0.125 0.019-0.262 0.042-0.307 0.051-0.045 0.006-0.346 0.019-0.672 0.026-0.714 0.010-1.158-0.038-1.77-0.192-1.171-0.294-2.186-0.864-3.059-1.722-0.701-0.691-1.19-1.424-1.552-2.33l-0.147-0.371v-4.176l0.083-0.211c0.502-1.302 1.264-2.317 2.333-3.114 0.918-0.682 2.198-1.181 3.238-1.264 0.138-0.013 0.256-0.026 0.262-0.032 0.026-0.026 1.216 0.016 1.411 0.048zM9.942 20.832c0.87 1.027 2.090 1.866 3.37 2.32 0.906 0.32 1.619 0.442 2.592 0.445 0.902 0.003 1.296-0.038 2.032-0.221 1.741-0.432 3.168-1.36 4.397-2.864l0.064-0.080 0.003 2.982v2.986h-12.8v-2.982c0-2.477 0.006-2.976 0.042-2.938 0.022 0.026 0.16 0.186 0.301 0.352zM16.397 27.309c0.275 0.16 0.422 0.448 0.39 0.765-0.038 0.397-0.317 0.672-0.72 0.717-0.557 0.058-1.008-0.512-0.819-1.043 0.086-0.246 0.282-0.442 0.522-0.518 0.16-0.051 0.47-0.013 0.627 0.080z"></path>
<path fill="#ff7900" d="M15.235 10.067c-1.955 0.278-3.622 1.558-4.394 3.373-0.787 1.856-0.496 4.038 0.755 5.632 0.858 1.094 2.038 1.795 3.475 2.067 0.374 0.070 1.299 0.083 1.696 0.026 2.355-0.355 4.192-2.058 4.701-4.352 0.138-0.611 0.163-1.466 0.067-2.061-0.154-0.947-0.544-1.837-1.133-2.592-0.906-1.162-2.307-1.946-3.763-2.106-0.387-0.045-1.053-0.038-1.405 0.013zM16.893 11.389c0.413 0.090 0.63 0.17 1.043 0.374 1.194 0.589 2.042 1.709 2.31 3.046 0.077 0.384 0.077 1.264 0 1.622-0.163 0.755-0.486 1.43-0.95 1.974-0.179 0.214-0.64 0.634-0.848 0.774-0.531 0.355-1.238 0.63-1.834 0.714-0.33 0.045-1.149 0.026-1.446-0.035-1.411-0.298-2.576-1.238-3.139-2.544-0.25-0.579-0.349-1.126-0.336-1.811 0.016-0.701 0.138-1.19 0.454-1.824 0.611-1.232 1.77-2.083 3.165-2.333 0.378-0.067 1.194-0.045 1.581 0.042z"></path>
<path fill="#ff7900" d="M15.446 12.467c-0.643 0.115-1.219 0.413-1.674 0.861-0.435 0.429-0.717 0.909-0.867 1.482-0.109 0.406-0.122 1.094-0.029 1.494 0.144 0.627 0.419 1.12 0.867 1.568 1.146 1.142 2.89 1.258 4.198 0.282 1.184-0.886 1.587-2.544 0.95-3.901-0.336-0.717-0.97-1.309-1.712-1.61-0.509-0.202-1.2-0.272-1.734-0.176zM16.432 13.75c0.63 0.141 1.197 0.666 1.395 1.29 0.086 0.272 0.106 0.717 0.045 0.992-0.125 0.541-0.534 1.062-1.008 1.29-0.342 0.163-0.627 0.224-0.96 0.205-0.525-0.035-0.95-0.234-1.302-0.614-0.33-0.355-0.49-0.73-0.509-1.184-0.022-0.598 0.154-1.056 0.56-1.456 0.275-0.272 0.525-0.419 0.874-0.512 0.269-0.070 0.618-0.077 0.906-0.010z"></path>
</svg>
