<!-- Generated by IcoMoon.io -->
<svg version="1.1" xmlns="http://www.w3.org/2000/svg" width="32" height="32" viewBox="0 0 32 32">
<title>Homelive</title>
<path fill="#ff7900" d="M11.194 8.8l-4.794 4.797v14.403h19.2v-14.4l-4.8-4.8c-2.64-2.64-4.803-4.8-4.806-4.797-0.006 0-2.166 2.16-4.8 4.797zM10.659 17.645c0.326 0.115 0.496 0.387 0.525 0.835 0.045 0.733 0.134 1.168 0.358 1.712 0.742 1.802 2.49 2.976 4.429 2.979 1.616 0.003 3.094-0.784 4-2.131 0.506-0.749 0.768-1.574 0.813-2.554 0.019-0.442 0.186-0.717 0.515-0.842 0.17-0.064 0.49-0.048 0.643 0.029 0.186 0.099 0.371 0.323 0.416 0.512 0.051 0.214-0.003 0.941-0.106 1.462-0.438 2.224-2.099 4.096-4.256 4.8-1.859 0.605-3.856 0.355-5.478-0.691-1.642-1.062-2.73-2.848-2.906-4.781-0.067-0.726-0.010-0.966 0.298-1.226 0.163-0.141 0.515-0.189 0.749-0.106z"></path>
</svg>
