<!-- Generated by IcoMoon.io -->
<svg version="1.1" xmlns="http://www.w3.org/2000/svg" width="32" height="32" viewBox="0 0 32 32">
<title>home_alarm</title>
<path fill="#ff7900" d="M13.376 3.235c-0.95 0.077-1.584 0.176-2.493 0.4-1.907 0.467-3.827 1.408-5.354 2.618-0.432 0.346-0.522 0.483-0.518 0.803 0.003 0.47 0.326 0.794 0.797 0.797 0.227 0 0.355-0.058 0.656-0.301 1.238-0.992 2.8-1.795 4.384-2.25 1.206-0.349 2.214-0.486 3.552-0.486 0.938 0 1.283 0.026 2.112 0.163 2 0.333 3.949 1.168 5.533 2.371 0.586 0.445 0.698 0.506 0.947 0.499 0.106 0 0.246-0.026 0.31-0.054 0.506-0.218 0.64-0.902 0.256-1.286-0.054-0.054-0.269-0.23-0.477-0.387-1.718-1.312-3.782-2.24-5.882-2.646-0.493-0.093-0.963-0.166-1.296-0.195-0.131-0.013-0.282-0.029-0.336-0.035-0.182-0.029-1.888-0.035-2.192-0.010z"></path>
<path fill="#ff7900" d="M13.725 6.413c-0.006 0.006-0.147 0.022-0.31 0.032-0.163 0.013-0.323 0.029-0.352 0.032-0.029 0.006-0.141 0.022-0.246 0.035-0.214 0.022-1.027 0.189-1.28 0.256-1.437 0.39-2.666 0.986-3.84 1.859-0.714 0.528-0.826 0.672-0.829 1.053-0.003 0.266 0.067 0.422 0.262 0.598 0.208 0.189 0.496 0.246 0.765 0.157 0.090-0.032 0.278-0.15 0.461-0.294 1.405-1.12 2.934-1.782 4.742-2.051 0.611-0.090 1.885-0.099 2.486-0.016 1.85 0.259 3.507 0.966 4.861 2.077 0.323 0.269 0.442 0.32 0.698 0.32 0.685-0.006 1.037-0.806 0.579-1.325-0.189-0.214-0.95-0.771-1.542-1.13-1.37-0.822-2.848-1.334-4.451-1.539-0.365-0.045-1.968-0.096-2.003-0.064z"></path>
<path fill="#ff7900" d="M13.792 9.622c-1.040 0.093-2.006 0.358-2.896 0.794-1.955 0.954-3.45 2.678-4.112 4.742-0.243 0.752-0.355 1.462-0.368 2.314-0.010 0.675 0.010 0.918 0.115 1.536 0.518 3.030 2.851 5.552 5.853 6.333 0.771 0.202 1.27 0.256 2.16 0.243 0.56-0.010 0.803-0.029 1.216-0.099 1.632-0.278 3.229-1.123 4.381-2.32 1.27-1.315 2.029-2.95 2.227-4.797 0.026-0.259 0.019-1.514-0.010-1.648-0.010-0.035-0.026-0.144-0.038-0.24-0.157-1.27-0.736-2.643-1.581-3.76-0.291-0.387-1.005-1.107-1.379-1.398-1.155-0.893-2.387-1.421-3.824-1.642-0.323-0.051-1.434-0.086-1.744-0.058zM14.947 14.448c0.656 0.115 1.229 0.416 1.709 0.896 1.258 1.258 1.258 3.254 0 4.512-0.646 0.646-1.424 0.954-2.352 0.928-0.646-0.019-1.117-0.166-1.664-0.525-0.656-0.429-1.149-1.126-1.347-1.907-0.096-0.378-0.106-1.062-0.019-1.424 0.256-1.072 0.934-1.878 1.946-2.298 0.496-0.205 1.181-0.278 1.728-0.182z"></path>
<path fill="#ff7900" d="M25.51 16.067c-1.040 0.266-1.683 1.302-1.462 2.349 0.099 0.47 0.381 0.902 0.784 1.2 0.208 0.157 0.221 0.173 0.205 0.269-0.186 1.091-0.394 1.738-0.822 2.576-0.96 1.885-2.714 3.357-4.749 3.99-0.138 0.042-0.253 0.077-0.256 0.077-0.006 0-0.010-0.352-0.010-0.781v-0.784l-0.32 0.189c-1.133 0.672-2.403 1.091-3.664 1.21-0.339 0.029-1.373 0.029-1.696-0.003-0.771-0.080-1.638-0.301-2.464-0.627-0.294-0.118-1.002-0.483-1.274-0.656l-0.182-0.118v1.626c0.003 1.293 0.013 1.664 0.048 1.798 0.154 0.582 0.653 1.066 1.226 1.184 0.118 0.026 1.213 0.035 3.549 0.035 2.976 0 3.398-0.006 3.574-0.051 0.586-0.15 1.046-0.618 1.174-1.184 0.032-0.147 0.051-0.176 0.122-0.192 0.192-0.045 0.867-0.246 1.075-0.323 0.688-0.253 1.363-0.592 1.904-0.947 2.013-1.331 3.437-3.242 4.061-5.453 0.109-0.384 0.243-1.018 0.275-1.29 0.010-0.096 0.026-0.198 0.035-0.224s0.134-0.106 0.278-0.173c0.778-0.374 1.216-1.299 1.030-2.179-0.227-1.094-1.36-1.795-2.442-1.517z"></path>
</svg>
