<!-- Generated by IcoMoon.io -->
<svg version="1.1" xmlns="http://www.w3.org/2000/svg" width="32" height="32" viewBox="0 0 32 32">
<title>Home_1</title>
<path fill="#ff7900" d="M11.402 4.864c-0.186 0.112-0.202 0.182-0.202 0.896v0.64h-2.397l-4.803 4.8v0.8h1.6v15.2h-0.8v0.8h20.8v-0.8h-0.8v-15.2h1.6v-0.797l-2.4-2.403-2.403-2.4h-2.397v-0.65c0-0.931-0.016-0.95-0.8-0.95-0.541 0-0.63 0.026-0.736 0.202-0.058 0.093-0.064 0.163-0.064 0.749v0.65h-4.8v-0.65c0-0.71-0.010-0.758-0.189-0.877-0.102-0.070-0.141-0.074-0.608-0.074-0.438 0-0.512 0.006-0.602 0.064zM9.907 12.835c0.442 0.080 0.922 0.438 1.11 0.829 0.173 0.362 0.182 0.448 0.182 1.846v1.29h-3.2v-1.306c0.003-1.402 0.013-1.482 0.179-1.824 0.090-0.186 0.384-0.522 0.522-0.595 0.483-0.262 0.768-0.32 1.206-0.24zM15.722 12.89c0.512 0.186 0.89 0.602 1.030 1.13 0.038 0.138 0.048 0.448 0.048 1.475v1.306h-3.2v-1.28c0-0.81 0.013-1.338 0.035-1.446 0.118-0.573 0.592-1.069 1.171-1.226 0.227-0.061 0.688-0.042 0.915 0.042zM21.181 12.848c0.4 0.096 0.774 0.374 0.998 0.752 0.205 0.349 0.221 0.47 0.221 1.926v1.274h-3.2v-1.28c0-0.819 0.013-1.338 0.035-1.446 0.125-0.586 0.589-1.069 1.178-1.226 0.195-0.051 0.541-0.051 0.768 0zM10.166 20.906c0.253 0.102 0.445 0.237 0.624 0.435 0.141 0.157 0.32 0.477 0.365 0.659 0.016 0.051 0.032 0.704 0.035 1.446l0.013 1.354h-3.203v-1.258c0-0.765 0.013-1.334 0.035-1.45 0.106-0.586 0.595-1.098 1.19-1.248 0.25-0.064 0.698-0.035 0.941 0.061zM15.766 20.906c0.496 0.198 0.851 0.598 0.986 1.114 0.038 0.141 0.048 0.621 0.048 2.675v2.506h-3.2v-2.48c0-1.683 0.013-2.531 0.035-2.646 0.125-0.595 0.646-1.12 1.229-1.238 0.256-0.051 0.672-0.019 0.902 0.070zM21.126 20.835c0.611 0.128 1.13 0.653 1.238 1.258 0.022 0.115 0.035 0.685 0.035 1.45v1.258h-3.2v-1.28c0-0.81 0.013-1.338 0.035-1.446 0.061-0.294 0.211-0.566 0.442-0.797 0.394-0.39 0.922-0.55 1.45-0.442z"></path>
</svg>
