<!-- Generated by IcoMoon.io -->
<svg version="1.1" xmlns="http://www.w3.org/2000/svg" width="32" height="32" viewBox="0 0 32 32">
<title>hospital</title>
<path fill="#ff7900" d="M11.2 3.984v1.616h-4v2.4h-1.6v20.8h-0.8v0.8h22.4v-0.8h-0.8v-20.8h-1.6v-2.4h-4v-3.232h-9.6v1.616zM16.8 4v0.8h1.6v1.6h-1.6v1.6h-1.6v-1.6h-1.6v-1.6h1.6v-1.6h1.6v0.8zM10.4 11.6v2h-3.2v-4h3.2v2zM15.2 11.6v2h-3.2v-4h3.2v2zM20 11.6v2h-3.2v-4h3.2v2zM24.8 11.6v2h-3.2v-4h3.2v2zM10.4 18v2h-3.2v-4h3.2v2zM15.2 18v2h-3.2v-4h3.2v2zM20 18v2h-3.2v-4h3.2v2zM24.8 18v2h-3.2v-4h3.2v2zM10.4 24.4v2h-3.2v-4h3.2v2zM15.648 25.2v2.8h-3.648v-5.6h3.648v2.8zM20.032 25.2v2.8h-3.712v-5.6h3.712v2.8zM24.8 24.4v2h-3.2v-4h3.2v2z"></path>
</svg>
