<!-- Generated by IcoMoon.io -->
<svg version="1.1" xmlns="http://www.w3.org/2000/svg" width="32" height="32" viewBox="0 0 32 32">
<title>hotel</title>
<path fill="#ff7900" d="M10.013 2.416c-0.525 0.144-0.938 0.522-1.12 1.027-0.061 0.16-0.074 0.278-0.086 0.771l-0.013 0.586h-1.594v1.6l-0.096 0.003c-0.051 0.003-0.106 0.006-0.118 0.010-0.016 0.003-0.083 0.016-0.154 0.032-0.55 0.109-1.075 0.65-1.197 1.229-0.026 0.122-0.035 3.123-0.035 10.646v10.48h-0.8v0.8h22.4v-0.8h-0.8v-10.49c0-10.112-0.003-10.499-0.061-10.717-0.074-0.288-0.246-0.57-0.47-0.778-0.259-0.234-0.528-0.355-0.89-0.4l-0.179-0.022v-1.594h-1.6v-0.512c0-0.758-0.102-1.066-0.477-1.443-0.23-0.23-0.502-0.381-0.797-0.442-0.262-0.054-11.712-0.045-11.914 0.013zM12.24 3.795c0.122 0.256 0.23 0.47 0.24 0.477 0.013 0.010 0.243 0.051 0.515 0.096s0.515 0.090 0.541 0.099c0.035 0.013 0.013 0.048-0.083 0.134-0.426 0.384-0.634 0.57-0.662 0.589-0.026 0.016 0.003 0.179 0.086 0.528 0.067 0.278 0.128 0.541 0.138 0.582 0.019 0.070 0.016 0.074-0.058 0.026-0.042-0.026-0.275-0.157-0.518-0.288l-0.442-0.24-0.509 0.282c-0.282 0.157-0.512 0.272-0.512 0.259s0.058-0.253 0.128-0.534c0.070-0.278 0.128-0.528 0.128-0.547 0-0.022-0.179-0.202-0.4-0.397-0.218-0.198-0.39-0.368-0.384-0.381 0.010-0.013 0.077-0.035 0.154-0.045 0.077-0.013 0.176-0.029 0.218-0.035s0.192-0.029 0.333-0.051c0.141-0.022 0.285-0.048 0.32-0.061 0.045-0.016 0.141-0.176 0.288-0.493 0.125-0.256 0.23-0.467 0.24-0.467s0.118 0.208 0.24 0.467zM16.768 4.333c0.163 0.029 0.41 0.070 0.547 0.090 0.141 0.019 0.253 0.045 0.253 0.061 0 0.013-0.106 0.112-0.23 0.224-0.128 0.112-0.31 0.278-0.406 0.368l-0.173 0.163 0.134 0.547c0.070 0.298 0.131 0.55 0.131 0.56s-0.23-0.112-0.512-0.266l-0.515-0.285-0.182 0.106c-0.368 0.211-0.81 0.442-0.826 0.426-0.006-0.006 0.045-0.243 0.115-0.522 0.134-0.534 0.147-0.608 0.099-0.627-0.016-0.006-0.093-0.067-0.17-0.138s-0.243-0.221-0.371-0.333c-0.128-0.112-0.221-0.214-0.208-0.227 0.019-0.019 0.966-0.192 1.050-0.192 0.010 0 0.118-0.205 0.24-0.458 0.118-0.25 0.23-0.467 0.243-0.48 0.016-0.013 0.128 0.189 0.256 0.451l0.227 0.477 0.298 0.054zM20.224 3.766c0.112 0.243 0.218 0.458 0.237 0.48s0.266 0.077 0.547 0.125c0.282 0.048 0.525 0.096 0.538 0.109s-0.154 0.179-0.374 0.371c-0.218 0.192-0.4 0.368-0.4 0.39-0.003 0.019 0.054 0.275 0.125 0.566s0.128 0.534 0.128 0.541c0 0.006-0.23-0.112-0.512-0.269l-0.512-0.282-0.502 0.278c-0.278 0.154-0.509 0.269-0.515 0.259-0.003-0.013 0.048-0.253 0.122-0.531 0.070-0.278 0.128-0.531 0.125-0.557 0-0.026-0.077-0.112-0.166-0.189-0.362-0.307-0.627-0.56-0.614-0.579 0.013-0.022 0.128-0.045 0.435-0.086 0.064-0.006 0.237-0.038 0.384-0.067 0.218-0.045 0.275-0.067 0.304-0.128 0.019-0.042 0.122-0.253 0.224-0.474 0.102-0.218 0.195-0.397 0.205-0.397 0.013 0 0.112 0.198 0.224 0.438zM10.4 11.6v2h-3.2v-4h3.2v2zM15.2 11.6v2h-3.2v-4h3.2v2zM20 11.6v2h-3.2v-4h3.2v2zM24.8 11.6v2h-3.2v-4h3.2v2zM10.4 18v2h-3.2v-4h3.2v2zM15.2 18v2h-3.2v-4h3.2v2zM20 18v2h-3.2v-4h3.2v2zM24.8 18v2h-3.2v-4h3.2v2zM10.4 24.4v2h-3.2v-4h3.2v2zM15.616 25.2v2.8h-3.616v-5.6h3.616v2.8zM20 25.2v2.8h-3.648v-5.6h3.648v2.8zM24.8 24.4v2h-3.2v-4h3.2v2z"></path>
</svg>
