<!-- Generated by IcoMoon.io -->
<svg version="1.1" xmlns="http://www.w3.org/2000/svg" width="32" height="32" viewBox="0 0 32 32">
<title>Hourglass</title>
<path fill="#ff7900" d="M6.915 2.454c-0.189 0.067-0.397 0.278-0.461 0.474-0.045 0.128-0.054 0.298-0.054 1.014v0.858h0.8l0.003 2.118c0 1.168 0.006 2.144 0.010 2.17 0.006 0.026 0.019 0.131 0.032 0.234 0.042 0.368 0.243 0.976 0.438 1.318 0.432 0.768 0.768 1.094 2.397 2.336 3.098 2.362 3.296 2.515 3.373 2.621 0.115 0.157 0.144 0.256 0.134 0.448-0.006 0.141-0.029 0.211-0.102 0.314-0.058 0.086-0.448 0.403-1.069 0.88-0.538 0.41-1.040 0.797-1.12 0.858s-0.262 0.202-0.403 0.31c-0.144 0.112-0.547 0.416-0.893 0.682-1.075 0.816-1.398 1.082-1.654 1.357-0.634 0.682-0.995 1.453-1.126 2.387-0.006 0.051-0.016 1.056-0.016 2.23l-0.003 2.138h-0.803l0.010 0.918c0.010 1.030 0.010 1.018 0.25 1.258 0.243 0.243-0.576 0.224 9.424 0.218l8.96-0.010 0.154-0.093c0.083-0.048 0.189-0.138 0.23-0.192 0.163-0.211 0.176-0.314 0.176-1.238v-0.861h-0.8l-0.003-2.106c0-1.155-0.006-2.147-0.013-2.198-0.042-0.339-0.058-0.438-0.118-0.656-0.192-0.707-0.554-1.322-1.114-1.891-0.186-0.186-0.451-0.426-0.592-0.531s-0.563-0.426-0.941-0.717c-0.378-0.288-0.816-0.624-0.976-0.746s-0.47-0.358-0.691-0.528c-0.221-0.17-0.525-0.4-0.675-0.515-1.053-0.797-1.126-0.861-1.21-1.034-0.122-0.253-0.070-0.531 0.134-0.739 0.122-0.122 0.31-0.269 1.302-1.024 0.186-0.141 0.458-0.349 0.608-0.464 0.778-0.598 2.224-1.702 2.448-1.872 0.141-0.106 0.406-0.342 0.592-0.531 0.502-0.502 0.842-1.050 1.053-1.69 0.186-0.554 0.195-0.717 0.195-3.046v-2.112h0.803l-0.010-0.922-0.010-0.918-0.086-0.147c-0.048-0.080-0.138-0.186-0.198-0.234-0.256-0.192 0.438-0.179-9.312-0.176-8.003 0-8.947 0.006-9.072 0.051zM23.2 6.851c0 1.325-0.013 2.131-0.035 2.278-0.061 0.406-0.288 0.88-0.582 1.222-0.259 0.294-0.333 0.355-1.878 1.536-0.8 0.614-1.629 1.245-1.84 1.408-0.211 0.16-0.57 0.435-0.8 0.611-0.794 0.605-1.075 0.986-1.216 1.642-0.058 0.266-0.042 0.784 0.029 1.043 0.077 0.272 0.253 0.605 0.445 0.848 0.17 0.208 0.288 0.304 2.358 1.888 0.426 0.326 1.027 0.787 1.341 1.024 0.31 0.24 0.694 0.531 0.851 0.653 0.73 0.55 1.123 1.098 1.274 1.763 0.045 0.192 0.051 0.528 0.054 2.33v2.102l-0.547-0.006-0.544-0.010-0.122-0.32c-0.221-0.589-0.682-1.427-1.136-2.070-1.341-1.901-3.35-3.645-4.547-3.946-0.371-0.093-0.63-0.042-1.19 0.227-1.286 0.627-3.133 2.403-4.163 4.010-0.096 0.15-0.208 0.326-0.25 0.387-0.106 0.166-0.368 0.656-0.483 0.912-0.214 0.48-0.259 0.579-0.294 0.694l-0.042 0.122h-1.082v-2.080c0-2.294 0.003-2.355 0.198-2.8 0.118-0.266 0.214-0.422 0.41-0.656 0.221-0.266 0.352-0.381 1.002-0.874 0.157-0.118 0.371-0.285 0.48-0.368 0.109-0.086 0.387-0.298 0.614-0.47 0.23-0.173 0.554-0.422 0.72-0.55s0.579-0.442 0.912-0.698c1.469-1.117 1.594-1.232 1.821-1.696 0.182-0.371 0.224-0.56 0.224-0.992 0.003-0.525-0.083-0.829-0.355-1.254-0.195-0.307-0.454-0.534-1.485-1.306-0.090-0.067-1.446-1.107-1.773-1.36-0.182-0.141-0.499-0.384-1.152-0.88-0.883-0.672-1.13-0.928-1.376-1.446-0.23-0.48-0.221-0.365-0.23-2.787l-0.013-2.182h14.403v2.051z"></path>
<path fill="#ff7900" d="M9.936 9.718c0.051 0.067 0.141 0.176 0.205 0.246 0.064 0.067 1.408 1.094 2.989 2.278l2.87 2.157 2.874-2.157c1.578-1.187 2.922-2.211 2.986-2.278 0.064-0.070 0.154-0.179 0.205-0.246l0.086-0.118h-12.301l0.086 0.118z"></path>
</svg>
