<!-- Generated by IcoMoon.io -->
<svg version="1.1" xmlns="http://www.w3.org/2000/svg" width="32" height="32" viewBox="0 0 32 32">
<title>Im_driving</title>
<path fill="#ff7900" d="M7.626 6.861c-0.224 0.054-0.499 0.198-0.675 0.355-0.182 0.16-4.966 6.534-5.149 6.861-0.090 0.16-0.147 0.31-0.17 0.448-0.022 0.147-0.032 1.152-0.026 3.235l0.010 3.024 0.083 0.198c0.224 0.518 0.656 0.89 1.165 0.995 0.096 0.022 0.678 0.035 1.437 0.038 0.704 0 1.283 0.003 1.286 0.010 0.003 0.003 0.013 0.109 0.022 0.23 0.067 0.787 0.39 1.478 0.947 2.032 0.406 0.403 0.883 0.675 1.44 0.826 0.266 0.070 0.374 0.080 0.803 0.080 0.432 0 0.538-0.010 0.806-0.083 0.557-0.147 1.034-0.422 1.45-0.838 0.541-0.538 0.867-1.235 0.928-1.981l0.022-0.275h7.994l0.003 0.118c0.006 0.528 0.224 1.187 0.563 1.696 0.163 0.25 0.589 0.672 0.826 0.826 0.627 0.403 1.187 0.563 1.904 0.544 0.861-0.026 1.552-0.323 2.16-0.928 0.47-0.467 0.81-1.117 0.899-1.712 0.013-0.096 0.026-0.192 0.029-0.208 0.003-0.019 0.010-0.099 0.010-0.186l0.006-0.15h1.258c0.768 0 1.331-0.013 1.446-0.035 0.595-0.109 1.088-0.582 1.248-1.19 0.070-0.278 0.070-5.261 0-5.539-0.077-0.294-0.211-0.531-0.416-0.742-0.288-0.294-0.528-0.397-1.28-0.538-0.333-0.064-0.867-0.166-1.184-0.23-0.317-0.061-0.634-0.118-0.704-0.128s-0.179-0.032-0.24-0.045c-0.061-0.016-0.384-0.080-0.72-0.144-0.333-0.064-0.614-0.128-0.624-0.141-0.010-0.016-0.134-0.154-0.278-0.304-0.144-0.154-0.374-0.397-0.512-0.541-0.477-0.506-0.765-0.813-1.226-1.302-0.256-0.272-0.576-0.614-0.714-0.758-0.246-0.262-0.499-0.528-1.018-1.082-0.147-0.157-0.394-0.416-0.544-0.576-0.15-0.157-0.317-0.333-0.368-0.387-1.008-1.085-1.123-1.197-1.354-1.322-0.387-0.205-0.058-0.195-5.987-0.192-4.205 0.003-5.427 0.010-5.558 0.042zM12.496 9.536c0.035 0.022 0.131 0.122 0.211 0.221s0.394 0.47 0.694 0.829c0.592 0.701 0.64 0.784 0.598 1.050-0.019 0.144-0.051 0.182-0.464 0.605-0.24 0.246-0.454 0.477-0.47 0.512-0.138 0.272 0.48 1.222 1.421 2.189 0.214 0.224 0.502 0.496 0.637 0.611s0.262 0.221 0.282 0.24c0.406 0.368 1.088 0.771 1.363 0.806l0.131 0.019 0.454-0.451c0.486-0.483 0.595-0.55 0.838-0.528 0.070 0.010 0.163 0.038 0.208 0.067 0.067 0.042 0.784 0.627 0.832 0.678 0.010 0.010 0.102 0.090 0.208 0.176 0.106 0.090 0.227 0.192 0.272 0.234s0.141 0.118 0.214 0.176c0.147 0.112 0.266 0.31 0.266 0.448 0 0.048-0.019 0.134-0.045 0.192-0.061 0.141-1.152 1.213-1.322 1.299-0.547 0.275-1.453 0.15-2.49-0.346-3.056-1.459-6.080-5.366-5.709-7.376 0.064-0.362 0.122-0.442 0.755-1.082 0.518-0.522 0.614-0.605 0.726-0.627 0.144-0.029 0.288-0.006 0.387 0.058z"></path>
</svg>
