<!-- Generated by IcoMoon.io -->
<svg version="1.1" xmlns="http://www.w3.org/2000/svg" width="32" height="32" viewBox="0 0 32 32">
<title>image</title>
<path fill="#ff7900" d="M4.81 15.014c0.006 9.581 0.010 10.23 0.064 10.397 0.262 0.854 0.829 1.43 1.674 1.702l0.221 0.070 20.432 0.016v-10.112c0-9.114-0.006-10.138-0.051-10.362-0.182-0.89-0.822-1.574-1.728-1.853-0.179-0.054-0.691-0.058-10.406-0.064l-10.214-0.010 0.010 10.214zM24.896 6.515c0.266 0.128 0.464 0.326 0.589 0.589l0.099 0.208 0.010 5.232c0.003 2.877 0.003 5.728 0 6.336l-0.010 1.104-0.461-0.528c-0.256-0.291-0.47-0.534-0.48-0.544-0.013-0.010-0.067-0.074-0.128-0.144-0.122-0.141-0.461-0.528-0.662-0.752-0.070-0.080-0.342-0.39-0.605-0.688-0.477-0.544-0.637-0.726-1.142-1.296-0.147-0.166-0.432-0.493-0.634-0.72-0.198-0.23-0.451-0.518-0.563-0.64-0.109-0.125-0.48-0.547-0.829-0.944-0.346-0.397-0.675-0.758-0.726-0.806-0.128-0.112-0.326-0.144-0.48-0.080-0.070 0.029-0.211 0.166-0.397 0.378-0.154 0.182-0.291 0.339-0.301 0.349s-0.234 0.269-0.496 0.576c-0.262 0.307-0.486 0.566-0.496 0.576s-0.096 0.109-0.192 0.224c-0.096 0.115-0.182 0.214-0.192 0.224s-0.096 0.109-0.192 0.224c-0.096 0.115-0.275 0.323-0.4 0.464-0.48 0.55-0.586 0.675-0.675 0.784-0.051 0.061-0.099 0.118-0.109 0.128s-0.234 0.269-0.496 0.576c-0.262 0.307-0.486 0.566-0.496 0.576s-0.086 0.099-0.173 0.202c-0.086 0.102-0.166 0.179-0.182 0.176-0.026-0.010-0.147-0.179-1.626-2.253-0.89-1.248-0.982-1.37-1.11-1.424-0.144-0.064-0.278-0.061-0.413 0.013-0.042 0.022-0.221 0.205-0.4 0.406-0.182 0.202-0.432 0.483-0.56 0.624-0.125 0.141-0.285 0.32-0.355 0.4-0.128 0.147-0.342 0.384-0.429 0.48-0.026 0.026-0.147 0.163-0.272 0.304-0.122 0.141-0.275 0.314-0.339 0.384-0.294 0.326-0.675 0.749-0.749 0.835-0.362 0.419-0.771 0.874-0.787 0.874-0.010 0.003-0.106-0.080-0.208-0.182-0.208-0.202-0.339-0.435-0.394-0.704-0.026-0.118-0.035-1.872-0.035-5.914v-5.741l18.288 0.016 0.208 0.099z"></path>
<path fill="#ff7900" d="M10.512 8.819c-0.698 0.147-1.142 0.461-1.478 1.043-0.198 0.339-0.278 0.95-0.186 1.37 0.157 0.682 0.698 1.267 1.37 1.478 0.307 0.096 0.755 0.109 1.056 0.029 0.701-0.182 1.242-0.704 1.45-1.395 0.083-0.275 0.077-0.854-0.010-1.126-0.218-0.666-0.765-1.184-1.437-1.354-0.227-0.058-0.592-0.080-0.765-0.045z"></path>
</svg>
