<!-- Generated by IcoMoon.io -->
<svg version="1.1" xmlns="http://www.w3.org/2000/svg" width="32" height="32" viewBox="0 0 32 32">
<title>image_file</title>
<path fill="#ff7900" d="M5.6 15.302c0 14.067-0.013 13.034 0.179 13.43 0.115 0.234 0.454 0.573 0.688 0.688 0.397 0.192-0.342 0.179 10.23 0.179h9.702v-19.2l-2.518-0.003c-1.389 0-2.586-0.010-2.666-0.019-0.467-0.058-1.005-0.262-1.421-0.538-0.445-0.294-0.896-0.842-1.123-1.357-0.109-0.246-0.224-0.659-0.253-0.915-0.006-0.070-0.016-1.261-0.016-2.65l-0.003-2.518h-12.8v12.902zM21.6 14.534c0.387 0.189 0.65 0.502 0.755 0.902 0.035 0.134 0.045 1.030 0.045 5.165v4.998l-11.76-0.016-0.24-0.118c-0.4-0.195-0.682-0.544-0.765-0.947-0.026-0.118-0.035-1.626-0.035-5.146v-4.973l11.76 0.016 0.24 0.118z"></path>
<path fill="#ff7900" d="M10.406 18.758c0.010 3.984-0.010 3.651 0.24 3.91l0.118 0.122 0.128-0.138c0.195-0.218 0.771-0.861 0.979-1.098 0.061-0.070 0.186-0.208 0.272-0.307 0.090-0.096 0.326-0.358 0.522-0.582 0.202-0.224 0.394-0.413 0.435-0.422 0.182-0.045 0.23 0.006 1.011 1.101 0.413 0.582 0.758 1.056 0.768 1.056 0.013 0 0.144-0.141 0.291-0.314 0.64-0.746 1.466-1.706 1.658-1.93 0.115-0.131 0.282-0.326 0.371-0.432 0.086-0.102 0.234-0.266 0.326-0.362 0.157-0.16 0.176-0.17 0.288-0.154 0.067 0.013 0.141 0.048 0.17 0.083 0.026 0.032 0.307 0.352 0.624 0.71s0.611 0.694 0.656 0.746c0.045 0.051 0.096 0.109 0.112 0.128 0.154 0.17 1.83 2.074 2.17 2.461 0.054 0.064 0.054-0.102 0.048-3.789-0.010-3.677-0.013-3.859-0.067-3.962-0.080-0.144-0.202-0.256-0.358-0.326-0.122-0.058-0.349-0.061-5.45-0.061h-5.318l0.006 3.558zM13.706 16.922c0.544 0.256 0.819 0.89 0.63 1.446-0.112 0.339-0.326 0.573-0.662 0.726-0.157 0.074-0.23 0.086-0.474 0.090-0.256 0-0.31-0.013-0.496-0.099-0.262-0.125-0.461-0.323-0.589-0.589-0.086-0.179-0.099-0.243-0.099-0.464 0-0.502 0.224-0.886 0.646-1.101 0.32-0.16 0.714-0.166 1.043-0.010z"></path>
<path fill="#ff7900" d="M20 4.918c0.003 1.61 0.016 2.547 0.035 2.65 0.125 0.586 0.589 1.085 1.123 1.2 0.122 0.026 0.89 0.032 2.698 0.026l2.528-0.010-3.178-3.178c-1.744-1.744-3.181-3.174-3.19-3.174s-0.016 1.12-0.016 2.486z"></path>
</svg>
