<!-- Generated by IcoMoon.io -->
<svg version="1.1" xmlns="http://www.w3.org/2000/svg" width="32" height="32" viewBox="0 0 32 32">
<title>improvement</title>
<path fill="#ff7900" d="M21.84 5.056c0.79 0.79 1.443 1.45 1.446 1.462 0.006 0.013-1.414 1.45-3.155 3.19l-3.168 3.165-3.366-3.366-10.845 10.848v2.198c0.003 2.342 0.013 2.496 0.166 2.998 0.038 0.122 0.074 0.23 0.080 0.24 0.006 0.006 2.394-2.368 5.306-5.28l5.296-5.296 3.36 3.36 9.2-9.2 1.498 1.494 1.494 1.498-0.006-4.096-0.010-4.096-0.090-0.15c-0.048-0.083-0.134-0.189-0.192-0.23-0.246-0.189-0.022-0.179-4.416-0.179h-4.035l1.437 1.44z"></path>
<path fill="#ff7900" d="M21.562 16.246l-4.598 4.598-3.363-3.363-9.722 9.718 0.211 0.195c0.502 0.461 1.11 0.765 1.878 0.944 0.246 0.058 0.586 0.061 9.968 0.061 9.27 0 9.725-0.003 9.984-0.058 0.829-0.179 1.456-0.518 2.051-1.11 0.557-0.554 0.864-1.101 1.078-1.901l0.086-0.323 0.019-10.381-1.491-1.491c-0.816-0.819-1.491-1.488-1.494-1.488-0.006 0-2.080 2.070-4.608 4.598z"></path>
</svg>
