<!-- Generated by IcoMoon.io -->
<svg version="1.1" xmlns="http://www.w3.org/2000/svg" width="32" height="32" viewBox="0 0 32 32">
<title>Incoming_call_curved_arrow</title>
<path fill="#ff7900" d="M26.394 3.958c0 0.806-0.006 1.504-0.010 1.549-0.067 0.918-0.499 1.958-1.11 2.669-0.73 0.848-1.626 1.379-2.742 1.626-0.304 0.067-0.365 0.067-5.018 0.077l-4.714 0.013v-3.187c0-1.75-0.006-3.184-0.016-3.184-0.006 0-2.362 2.349-5.229 5.216-3.066 3.066-5.27 5.293-5.341 5.402-0.56 0.826-0.56 1.875 0.003 2.71 0.083 0.122 2.026 2.086 5.357 5.418l5.226 5.226v-6.403l3.866-0.003c2.125 0 3.926-0.006 4.006-0.016 0.32-0.029 0.79-0.080 0.88-0.096 0.275-0.042 0.653-0.112 0.752-0.141 0.061-0.016 0.205-0.051 0.32-0.080 1.075-0.256 2.4-0.877 3.395-1.584 0.643-0.461 1.418-1.171 1.92-1.76 0.826-0.97 1.517-2.198 1.917-3.402 0.192-0.57 0.365-1.29 0.429-1.782 0.010-0.061 0.032-0.221 0.054-0.352 0.045-0.304 0.064-1.645 0.026-2.048-0.202-2.243-1.094-4.336-2.554-6-0.221-0.25-0.922-0.931-1.165-1.13l-0.246-0.202-0.006 1.466z"></path>
</svg>
