<!-- Generated by IcoMoon.io -->
<svg version="1.1" xmlns="http://www.w3.org/2000/svg" width="32" height="32" viewBox="0 0 32 32">
<title>Information_data</title>
<path fill="#ff7900" d="M14.938 2.448c-0.006 0.006-0.125 0.019-0.266 0.029-0.547 0.048-1.267 0.166-1.792 0.298-0.176 0.042-0.4 0.099-0.496 0.122-0.282 0.070-1.008 0.314-1.424 0.48-0.4 0.157-1.27 0.573-1.6 0.765-0.106 0.061-0.243 0.138-0.304 0.173-0.378 0.208-1.491 0.995-1.744 1.232-0.035 0.032-0.154 0.134-0.262 0.224-0.275 0.227-1.162 1.13-1.44 1.462-0.739 0.89-1.286 1.725-1.802 2.752-0.701 1.398-1.19 3.091-1.331 4.576-0.010 0.115-0.026 0.243-0.035 0.288-0.029 0.15-0.035 1.808-0.010 2.128 0.032 0.368 0.096 0.963 0.115 1.056 0.010 0.035 0.042 0.23 0.077 0.432 0.64 3.677 2.976 7.101 6.208 9.094 1.853 1.146 3.866 1.808 6.064 2 0.371 0.032 1.84 0.032 2.192 0 1.165-0.109 2.179-0.314 3.178-0.646 0.704-0.234 1.578-0.598 1.549-0.65-0.042-0.067-1.35-2.333-2.368-4.102-0.23-0.397-0.442-0.765-0.47-0.816-0.032-0.054-0.106-0.182-0.166-0.288-0.25-0.432-0.89-1.542-1.219-2.112-0.653-1.133-0.813-1.408-1.19-2.064-0.208-0.362-0.477-0.829-0.602-1.040-0.122-0.211-0.253-0.435-0.288-0.496-0.032-0.061-0.118-0.208-0.186-0.326l-0.125-0.211v-14.374l-0.128 0.006c-0.070 0.003-0.131 0.006-0.134 0.010z"></path>
<path fill="#ff7900" d="M16.8 8.813v6.387h12.771l-0.019-0.234c-0.026-0.298-0.045-0.486-0.064-0.646-0.010-0.070-0.026-0.186-0.035-0.256-0.256-1.904-0.989-3.837-2.109-5.552-0.138-0.214-0.672-0.95-0.72-0.992-0.010-0.010-0.122-0.147-0.253-0.304-0.301-0.365-1.21-1.274-1.587-1.587-0.922-0.768-1.83-1.363-2.826-1.846-1.434-0.698-3.075-1.165-4.566-1.299-0.106-0.010-0.282-0.026-0.39-0.038l-0.202-0.019v6.387zM18.656 4.301c1.584 0.397 2.72 0.883 3.952 1.702 2.067 1.37 3.629 3.29 4.544 5.597 0.234 0.589 0.592 1.792 0.592 1.987 0 0.006-2.102 0.013-4.672 0.013h-4.672v-4.672c0-3.718 0.010-4.672 0.042-4.672 0.019 0.003 0.118 0.022 0.214 0.045z"></path>
<path fill="#ff7900" d="M17.114 16.902c0.035 0.058 0.093 0.157 0.125 0.218 0.035 0.061 0.221 0.384 0.416 0.72 0.346 0.598 1.792 3.11 1.898 3.296 0.029 0.051 0.192 0.333 0.358 0.624 0.755 1.306 2.624 4.547 2.912 5.056 0.176 0.307 0.342 0.592 0.365 0.63 0.045 0.070 0.045 0.070 0.342-0.125 1.197-0.797 2.304-1.824 3.194-2.97 1.43-1.834 2.371-4.026 2.714-6.31 0.061-0.406 0.074-0.525 0.118-1.027l0.019-0.214h-12.525l0.064 0.102z"></path>
</svg>
