<!-- Generated by IcoMoon.io -->
<svg version="1.1" xmlns="http://www.w3.org/2000/svg" width="32" height="32" viewBox="0 0 32 32">
<title>info</title>
<path fill="#ff7900" d="M15.674 2.416c-0.006 0.006-0.205 0.016-0.442 0.029-2.563 0.118-5.19 1.062-7.296 2.624-1.715 1.27-3.123 2.934-4.070 4.803-0.573 1.126-1.059 2.589-1.258 3.776-0.029 0.176-0.058 0.326-0.064 0.336-0.003 0.010-0.019 0.138-0.032 0.288s-0.029 0.282-0.035 0.291c-0.077 0.128-0.077 2.803 0 2.941 0.006 0.010 0.022 0.109 0.032 0.224 0.099 0.954 0.438 2.269 0.858 3.328 0.202 0.509 0.666 1.45 0.931 1.894 0.63 1.040 1.238 1.818 2.070 2.65 0.573 0.573 0.634 0.63 1.088 0.995 2.422 1.952 5.427 3.018 8.512 3.018 2.966-0.003 5.731-0.906 8.096-2.65 1.014-0.746 2.042-1.76 2.79-2.755 0.899-1.197 1.574-2.48 2.045-3.888 0.243-0.733 0.47-1.674 0.557-2.304 0.067-0.518 0.083-0.659 0.106-0.96 0.029-0.448 0.029-1.693-0.003-2.109-0.173-2.259-0.963-4.557-2.208-6.419-0.336-0.502-0.406-0.598-0.787-1.072-0.634-0.79-1.597-1.715-2.451-2.358-1.667-1.248-3.766-2.144-5.84-2.49-0.438-0.074-0.435-0.074-0.768-0.109-0.525-0.058-1.795-0.112-1.83-0.083zM16.448 5.664c1.283 0.234 2.154 1.507 1.907 2.79-0.221 1.152-1.187 1.949-2.362 1.949-1.155 0.003-2.128-0.806-2.349-1.942-0.147-0.781 0.090-1.552 0.659-2.125 0.579-0.586 1.331-0.819 2.144-0.672zM18.4 17.36c0.019 5.024 0.022 5.357 0.077 5.568 0.061 0.24 0.218 0.602 0.304 0.701 0.176 0.205 0.566 0.33 1.165 0.368 0.048 0.003 0.054 0.045 0.054 0.413v0.406h-7.184l-0.019-0.832 0.138 0.003c0.227 0.003 0.598-0.074 0.784-0.166 0.342-0.166 0.442-0.326 0.525-0.829 0.045-0.266 0.064-8.358 0.022-8.851-0.035-0.394-0.131-0.781-0.234-0.912-0.147-0.192-0.598-0.352-1.046-0.368l-0.186-0.006v-0.406c0-0.224 0.006-0.413 0.013-0.419 0.010-0.006 1.264-0.013 2.794-0.013h2.778l0.016 5.344z"></path>
</svg>
