<!-- Generated by IcoMoon.io -->
<svg version="1.1" xmlns="http://www.w3.org/2000/svg" width="32" height="32" viewBox="0 0 32 32">
<title>Internet_security_server</title>
<path fill="#ff7900" d="M2.915 3.254c-0.080 0.029-0.202 0.112-0.278 0.189-0.243 0.253-0.237 0.173-0.237 2.557 0 1.888 0.006 2.134 0.054 2.272 0.067 0.198 0.278 0.41 0.48 0.477 0.134 0.048 1.322 0.051 13.066 0.051 11.894 0 12.928-0.003 13.072-0.051 0.163-0.058 0.362-0.23 0.454-0.403 0.054-0.099 0.058-0.256 0.067-2.278 0.010-2.371 0.013-2.32-0.173-2.563-0.048-0.064-0.154-0.154-0.234-0.202l-0.147-0.086-12.992-0.006c-11.715-0.003-13.005 0-13.133 0.045zM5.696 4.918c0.266 0.125 0.464 0.323 0.589 0.586 0.086 0.182 0.096 0.243 0.099 0.496 0 0.259-0.010 0.31-0.099 0.496-0.128 0.266-0.326 0.464-0.589 0.589-0.186 0.086-0.24 0.099-0.496 0.099s-0.31-0.010-0.496-0.099c-0.534-0.253-0.816-0.858-0.659-1.402 0.16-0.55 0.624-0.886 1.203-0.87 0.195 0.003 0.278 0.022 0.448 0.106z"></path>
<path fill="#ff7900" d="M2.915 9.654c-0.080 0.029-0.202 0.112-0.278 0.189-0.243 0.253-0.237 0.173-0.237 2.557 0 1.888 0.006 2.134 0.054 2.272 0.067 0.198 0.278 0.41 0.48 0.477 0.134 0.048 1.322 0.051 13.066 0.051s12.931-0.003 13.066-0.051c0.086-0.029 0.211-0.109 0.291-0.189 0.25-0.24 0.243-0.182 0.243-2.557 0-1.146-0.016-2.141-0.032-2.208-0.038-0.176-0.189-0.371-0.368-0.483l-0.154-0.096-12.995-0.006c-11.718-0.003-13.008 0-13.136 0.045zM5.699 11.318c0.262 0.125 0.461 0.323 0.586 0.586 0.086 0.186 0.099 0.24 0.099 0.496s-0.010 0.31-0.099 0.496c-0.448 0.931-1.728 0.931-2.17 0-0.086-0.186-0.099-0.24-0.099-0.496s0.013-0.31 0.099-0.496c0.291-0.611 0.989-0.867 1.584-0.586z"></path>
<path fill="#ff7900" d="M2.915 16.054c-0.154 0.054-0.352 0.234-0.442 0.4-0.054 0.099-0.058 0.246-0.058 2.33v2.224l0.074 0.15c0.083 0.17 0.269 0.333 0.448 0.397 0.096 0.035 1.053 0.042 4.992 0.045h4.87l0.003-0.522c0-0.582 0.006-0.643 0.080-0.982 0.269-1.238 1.293-2.214 2.563-2.445 0.346-0.064 1.008-0.042 1.318 0.042 1.344 0.362 2.262 1.421 2.416 2.787 0.010 0.080 0.016 0.365 0.016 0.63l0.003 0.49h4.858c5.462 0 5.046 0.019 5.306-0.243 0.24-0.24 0.237-0.189 0.237-2.576 0-2.282 0.003-2.24-0.179-2.48-0.048-0.061-0.154-0.15-0.234-0.198l-0.147-0.086-12.992-0.006c-11.658-0.003-13.005 0-13.133 0.045zM5.699 17.718c0.259 0.122 0.454 0.317 0.586 0.586 0.090 0.186 0.099 0.237 0.099 0.496-0.003 0.253-0.013 0.314-0.099 0.496-0.125 0.262-0.323 0.461-0.589 0.589-0.186 0.086-0.24 0.099-0.496 0.099s-0.31-0.010-0.496-0.099c-0.266-0.125-0.464-0.323-0.589-0.589-0.086-0.186-0.099-0.24-0.099-0.496s0.013-0.31 0.099-0.496c0.291-0.611 0.986-0.867 1.584-0.586z"></path>
<path fill="#ff7900" d="M15.616 18.432c-1.030 0.176-1.827 0.992-1.997 2.048-0.010 0.045-0.016 0.493-0.016 0.998l-0.003 0.922h-1.6l0.006 3.142 0.010 3.146 0.099 0.208c0.125 0.266 0.323 0.464 0.589 0.589l0.208 0.099 7.088 0.016-0.006-3.142-0.010-3.146-0.099-0.208c-0.128-0.266-0.326-0.464-0.586-0.586-0.182-0.086-0.253-0.099-0.554-0.112l-0.346-0.016-0.003-0.899c-0.003-0.976-0.003-0.992-0.083-1.299-0.301-1.174-1.507-1.962-2.698-1.76zM16.294 19.395c0.269 0.058 0.506 0.189 0.714 0.397 0.106 0.106 0.227 0.262 0.269 0.346 0.147 0.307 0.163 0.432 0.163 1.373v0.89h-2.886l0.016-0.97c0.013-1.021 0.013-1.011 0.179-1.334 0.099-0.189 0.397-0.477 0.595-0.573 0.307-0.154 0.63-0.195 0.95-0.128zM16.336 24.227c0.349 0.131 0.624 0.515 0.624 0.874 0 0.307-0.173 0.65-0.4 0.794l-0.115 0.074 0.019 0.262c0.010 0.147 0.026 0.298 0.032 0.336 0.006 0.042 0.019 0.189 0.032 0.326s0.026 0.278 0.032 0.307c0.006 0.029 0.019 0.16 0.029 0.291 0.013 0.131 0.029 0.298 0.038 0.371l0.019 0.138h-1.29l0.019-0.186c0.010-0.099 0.026-0.234 0.032-0.294s0.022-0.214 0.032-0.336c0.013-0.125 0.026-0.259 0.032-0.304s0.029-0.266 0.051-0.496c0.035-0.387 0.035-0.416-0.019-0.448-0.339-0.195-0.528-0.643-0.432-1.034 0.134-0.563 0.723-0.877 1.264-0.675z"></path>
<path fill="#ff7900" d="M2.4 27.6v1.2h8.8v-2.4h-8.8v1.2z"></path>
<path fill="#ff7900" d="M20.8 27.6v1.2h8.8v-2.4h-8.8v1.2z"></path>
</svg>
