<!-- Generated by IcoMoon.io -->
<svg version="1.1" xmlns="http://www.w3.org/2000/svg" width="32" height="32" viewBox="0 0 32 32">
<title>international_globe</title>
<path fill="#ff7900" d="M15.229 2.413c-0.006 0.006-0.147 0.022-0.314 0.032-0.429 0.029-1.005 0.109-1.667 0.227-0.326 0.061-1.197 0.301-1.645 0.454-2.486 0.854-4.566 2.32-6.262 4.41-1.126 1.386-2.086 3.318-2.525 5.066-0.090 0.362-0.234 1.053-0.269 1.286-0.256 1.77-0.202 3.437 0.17 5.098 0.259 1.149 0.618 2.134 1.178 3.238 0.278 0.55 0.602 1.075 1.078 1.76 0.038 0.051 0.182 0.24 0.32 0.416 2.067 2.608 4.915 4.342 8.131 4.954 0.23 0.045 0.496 0.090 0.592 0.102s0.198 0.029 0.224 0.032c0.026 0.006 0.141 0.019 0.256 0.032 0.115 0.010 0.272 0.029 0.352 0.038 0.259 0.029 1.802 0.035 2.112 0.006 0.781-0.067 0.874-0.080 1.642-0.221 2.803-0.518 5.542-2.074 7.485-4.246 3.261-3.648 4.323-8.621 2.838-13.277-0.384-1.206-1.037-2.525-1.773-3.584-1.107-1.594-2.672-3.034-4.352-4.006-1.459-0.845-3.014-1.392-4.72-1.667-0.368-0.058-0.429-0.067-0.656-0.083-0.122-0.013-0.266-0.029-0.32-0.038-0.109-0.016-1.859-0.045-1.875-0.029zM14.592 4.522c0 0.598 0.010 0.579-0.867 1.45-0.541 0.534-0.752 0.72-0.854 0.762-0.118 0.045-0.31 0.051-1.466 0.051-1.456 0-1.491 0.003-1.539 0.186-0.038 0.15-0.022 1.267 0.019 1.344 0.077 0.144 0.109 0.147 1.491 0.15 0.723 0 1.341 0.013 1.376 0.026 0.141 0.048 0.157 0.131 0.163 0.79 0.003 0.56 0 0.634-0.054 0.723-0.080 0.131-0.134 0.141-0.874 0.141-0.522 0-0.63 0.010-0.739 0.061-0.189 0.083-1.254 1.155-1.334 1.341-0.058 0.128-0.064 0.221-0.070 0.835-0.003 0.646-0.010 0.701-0.077 0.838-0.045 0.096-0.266 0.339-0.653 0.72-0.525 0.518-0.602 0.582-0.746 0.621-0.218 0.061-1.354 0.061-1.536 0-0.096-0.032-0.272-0.182-0.72-0.627-0.733-0.723-0.72-0.717-1.341-0.72-0.25-0.003-0.451-0.013-0.451-0.022 0-0.022 0.064-0.259 0.173-0.646 0.147-0.528 0.493-1.373 0.816-2 1.594-3.098 4.429-5.35 7.786-6.192 0.432-0.109 1.434-0.288 1.475-0.266 0.013 0.006 0.022 0.205 0.022 0.435zM24.006 7.082c0.938 0.851 1.766 1.872 2.384 2.95 0.794 1.376 1.334 2.995 1.501 4.48 0.010 0.106 0.026 0.198 0.029 0.208 0.006 0.010 0.022 0.227 0.035 0.48 0.010 0.256 0.029 0.477 0.038 0.496 0.010 0.016-0.221-0.202-0.509-0.483-0.634-0.624-0.608-0.611-1.325-0.608-0.301 0.003-0.506 0.019-0.547 0.042-0.125 0.070-0.141 0.182-0.131 0.874 0.010 0.598 0.016 0.666 0.077 0.784 0.038 0.070 0.317 0.371 0.618 0.672 0.301 0.298 0.579 0.602 0.618 0.672 0.067 0.122 0.070 0.17 0.070 0.864 0 0.656-0.006 0.749-0.061 0.848-0.032 0.061-0.32 0.378-0.643 0.704-0.506 0.515-0.589 0.614-0.634 0.752-0.042 0.131-0.051 0.346-0.051 1.232 0 0.589 0 1.123-0.003 1.184 0 0.093-0.048 0.17-0.282 0.448-0.682 0.819-1.606 1.658-2.502 2.262-0.419 0.285-1.040 0.65-1.101 0.65-0.054 0-0.71-0.675-0.774-0.8-0.058-0.106-0.061-0.253-0.077-2.384-0.016-2.134-0.019-2.278-0.077-2.39-0.090-0.186-1.443-1.526-1.616-1.603-0.138-0.061-0.221-0.064-1.661-0.067l-1.517-0.003-0.077-0.093-0.080-0.090 0.010-1.398c0.010-1.363 0.013-1.398 0.080-1.523 0.102-0.189 1.437-1.504 1.594-1.571 0.115-0.051 0.278-0.058 1.616-0.061 1.162-0.003 1.523-0.013 1.648-0.048 0.144-0.038 0.23-0.112 0.928-0.8 0.627-0.618 0.794-0.762 0.899-0.794 0.077-0.022 0.339-0.038 0.634-0.038h0.506l0.179-0.179 0.003-0.486c0-0.266-0.013-0.522-0.029-0.563-0.054-0.147-0.16-0.17-0.72-0.166-0.467 0.006-0.528 0.013-0.656 0.080-0.090 0.045-0.413 0.339-0.848 0.771-0.387 0.384-0.755 0.723-0.816 0.758-0.106 0.054-0.221 0.058-1.629 0.061l-1.52 0.006-0.090-0.090c-0.054-0.054-0.090-0.128-0.093-0.182-0.003-0.048-0.003-0.352-0.003-0.669 0-0.506 0.010-0.598 0.064-0.72 0.077-0.173 1.328-1.466 1.542-1.59l0.144-0.086 1.414-0.016c1.408-0.016 1.418-0.016 1.488-0.086 0.064-0.067 0.070-0.099 0.074-0.573 0.003-0.534-0.026-0.662-0.157-0.707-0.035-0.013-0.339-0.022-0.675-0.026-0.333-0.003-0.637-0.016-0.675-0.029-0.038-0.010-0.093-0.067-0.122-0.125-0.048-0.090-0.054-0.186-0.045-0.736l0.010-0.637 0.192-0.154h3.021l0.33 0.298zM8.176 16.349c0.054 0.022 0.746 0.685 1.536 1.472 1.325 1.322 1.453 1.44 1.6 1.485 0.122 0.035 0.317 0.048 0.797 0.048h0.637l0.166 0.166 0.003 1.402c0.003 1.283-0.003 1.411-0.054 1.558-0.051 0.138-0.163 0.266-0.71 0.816-0.358 0.362-0.682 0.707-0.714 0.768-0.051 0.096-0.064 0.208-0.077 0.8-0.016 0.579-0.029 0.704-0.077 0.8-0.032 0.061-0.246 0.301-0.474 0.531l-0.419 0.422-0.179-0.096c-0.57-0.31-1.261-0.781-1.859-1.267-0.422-0.346-1.216-1.136-1.574-1.568l-0.275-0.33-0.013-0.422c-0.010-0.333-0.022-0.445-0.070-0.534-0.032-0.061-0.323-0.378-0.643-0.704-0.432-0.438-0.595-0.624-0.627-0.72-0.035-0.102-0.045-0.416-0.045-1.488 0-1.219 0.006-1.376 0.054-1.504 0.045-0.115 0.211-0.298 0.784-0.87 0.403-0.4 0.774-0.742 0.826-0.768 0.202-0.083 1.194-0.083 1.408 0.003z"></path>
</svg>
