<!-- Generated by IcoMoon.io -->
<svg version="1.1" xmlns="http://www.w3.org/2000/svg" width="32" height="32" viewBox="0 0 32 32">
<title>internet</title>
<path fill="#ff7900" d="M15.197 2.413c-0.006 0.006-0.141 0.022-0.301 0.032-0.272 0.022-0.634 0.064-0.88 0.102-0.739 0.112-1.085 0.186-1.725 0.368-1.222 0.346-2.522 0.922-3.507 1.558-0.496 0.32-0.586 0.381-0.81 0.544-2.198 1.613-3.875 3.862-4.797 6.438-0.301 0.848-0.582 2.022-0.666 2.8-0.013 0.106-0.029 0.227-0.035 0.272-0.093 0.576-0.080 2.365 0.019 3.13 0.051 0.368 0.051 0.374 0.128 0.79 0.448 2.477 1.578 4.768 3.28 6.656 1.59 1.763 3.562 3.053 5.824 3.808 0.656 0.221 1.67 0.461 2.272 0.541 0.070 0.010 0.23 0.032 0.352 0.048 0.611 0.083 2.118 0.115 2.736 0.058 1.494-0.138 2.755-0.438 4.048-0.963 0.621-0.253 1.52-0.707 1.968-0.995 0.48-0.307 0.637-0.413 0.96-0.65 0.202-0.15 0.419-0.317 0.483-0.371s0.186-0.157 0.272-0.227c0.406-0.333 1.040-0.963 1.472-1.466 1.386-1.61 2.323-3.395 2.87-5.462 0.090-0.336 0.266-1.184 0.291-1.408 0.010-0.080 0.022-0.189 0.032-0.24 0.093-0.525 0.134-2.093 0.074-2.832-0.032-0.432-0.138-1.219-0.211-1.568-0.605-2.957-2.074-5.536-4.294-7.523-2.099-1.882-4.893-3.12-7.613-3.376-0.115-0.010-0.25-0.026-0.304-0.035-0.115-0.016-1.923-0.045-1.939-0.029zM15.2 6.464v2.336h-3.61l0.074-0.205c0.109-0.301 0.352-0.848 0.547-1.245 0.627-1.248 1.459-2.294 2.256-2.832 0.131-0.086 0.682-0.384 0.726-0.39 0.003 0 0.006 1.050 0.006 2.336zM17.066 4.253c0.211 0.099 0.646 0.381 0.826 0.534 0.944 0.81 1.853 2.224 2.442 3.795l0.080 0.218h-3.613v-2.32c0-1.587 0.010-2.32 0.032-2.32 0.019 0 0.125 0.042 0.234 0.093zM20.509 4.883c1.958 0.79 3.571 2.010 4.976 3.766l0.125 0.15-3.504-0.016-0.138-0.384c-0.461-1.299-1.082-2.512-1.744-3.408-0.243-0.33-0.24-0.326-0.154-0.288 0.042 0.016 0.237 0.096 0.438 0.179zM11.968 4.723c0 0.010-0.048 0.077-0.109 0.15-0.32 0.4-0.784 1.168-1.12 1.862-0.374 0.765-0.461 0.97-0.707 1.664l-0.138 0.384-3.501 0.016 0.106-0.134c1.283-1.661 3.072-3.014 5.030-3.802 0.394-0.16 0.438-0.176 0.438-0.141zM9.43 10.448c-0.019 0.045-0.176 0.758-0.202 0.912-0.006 0.045-0.035 0.195-0.058 0.336-0.054 0.291-0.138 0.826-0.163 1.040-0.010 0.080-0.022 0.195-0.032 0.256-0.026 0.202-0.045 0.397-0.064 0.656-0.013 0.141-0.026 0.291-0.032 0.336-0.010 0.070-0.022 0.269-0.064 0.992-0.003 0.080-0.010 0.163-0.013 0.182-0.003 0.032-0.506 0.042-2.39 0.042h-2.39l0.022-0.266c0.026-0.304 0.032-0.349 0.118-0.886 0.173-1.101 0.515-2.189 1.034-3.274l0.179-0.374h2.035c1.776 0 2.032 0.006 2.019 0.048zM15.2 12.8v2.4h-4.79l0.010-0.186c0.035-0.669 0.086-1.347 0.125-1.638 0.006-0.061 0.038-0.291 0.064-0.512 0.029-0.221 0.080-0.566 0.118-0.768 0.035-0.202 0.077-0.432 0.090-0.512 0.022-0.131 0.128-0.602 0.227-1.018l0.038-0.166h4.118v2.4zM21.034 10.902c0.064 0.278 0.125 0.547 0.134 0.602 0.106 0.566 0.243 1.459 0.285 1.84 0.048 0.442 0.083 0.861 0.099 1.222 0.013 0.218 0.026 0.448 0.032 0.512l0.010 0.122h-4.794v-4.8h4.115l0.118 0.502zM26.803 10.774c0.557 1.171 0.986 2.592 1.085 3.594 0.010 0.115 0.026 0.23 0.032 0.256s0.022 0.166 0.032 0.314l0.022 0.262-4.79-0.016-0.003-0.16c-0.006-0.237-0.048-0.979-0.061-1.072-0.006-0.045-0.022-0.195-0.032-0.336s-0.022-0.291-0.032-0.336c-0.006-0.045-0.022-0.166-0.032-0.272-0.070-0.694-0.32-2.093-0.451-2.554-0.016-0.051 0.096-0.054 2.016-0.054h2.035l0.179 0.374zM8.819 17.008c0.010 0.269 0.045 0.909 0.061 1.024 0.006 0.051 0.019 0.211 0.032 0.352 0.010 0.141 0.032 0.355 0.048 0.48 0.016 0.122 0.038 0.294 0.048 0.384 0.064 0.534 0.352 2.128 0.416 2.294 0.022 0.054-0.086 0.058-2.013 0.058h-2.035l-0.179-0.378c-0.506-1.056-0.842-2.109-1.018-3.187-0.099-0.605-0.106-0.65-0.134-0.973l-0.019-0.262 4.787 0.016 0.006 0.192zM15.2 19.2v2.4h-4.115l-0.058-0.234c-0.23-0.95-0.416-2.029-0.499-2.918-0.019-0.211-0.042-0.438-0.048-0.509-0.010-0.067-0.022-0.298-0.032-0.512-0.013-0.211-0.026-0.442-0.032-0.509l-0.013-0.118h4.797v2.4zM21.584 16.95c-0.006 0.086-0.019 0.32-0.032 0.522-0.019 0.349-0.026 0.448-0.067 0.864-0.080 0.864-0.253 1.91-0.445 2.736-0.061 0.262-0.112 0.49-0.112 0.502s-0.928 0.026-2.064 0.026h-2.064v-4.8h4.794l-0.010 0.15zM27.955 17.046c-0.013 0.138-0.029 0.285-0.035 0.33s-0.022 0.16-0.032 0.256c-0.115 1.056-0.538 2.458-1.088 3.597l-0.179 0.371h-2.032c-1.92 0-2.032-0.003-2.016-0.058 0.038-0.131 0.179-0.787 0.24-1.126 0.090-0.506 0.090-0.512 0.147-0.944 0.029-0.211 0.058-0.419 0.064-0.464 0.029-0.173 0.112-1.126 0.131-1.52 0.029-0.512 0.035-0.669 0.042-0.682 0.003-0.003 1.078-0.006 2.39-0.006h2.387l-0.019 0.246zM10.032 23.6c0.458 1.302 1.136 2.611 1.786 3.469 0.077 0.099 0.15 0.195 0.16 0.218 0.013 0.019-0.096-0.010-0.24-0.067-0.979-0.387-1.67-0.749-2.483-1.296-0.96-0.643-1.971-1.59-2.704-2.528l-0.154-0.195 3.498 0.016 0.138 0.384zM15.2 25.52c0 1.696-0.010 2.32-0.035 2.32-0.054 0-0.518-0.237-0.691-0.355-1.056-0.71-2.125-2.266-2.813-4.086l-0.074-0.198h3.613v2.32zM20.336 23.398c-0.362 0.954-0.89 1.962-1.392 2.656-0.166 0.23-0.65 0.797-0.806 0.941-0.17 0.16-0.458 0.384-0.669 0.525-0.198 0.131-0.573 0.32-0.637 0.32-0.022 0-0.032-0.733-0.032-2.32v-2.32h3.613l-0.077 0.198zM25.485 23.35c-0.906 1.133-1.782 1.942-2.909 2.682-0.73 0.48-1.437 0.845-2.266 1.171l-0.317 0.122 0.080-0.102c0.8-1.059 1.488-2.41 2.022-3.984 0.010-0.029 0.394-0.038 1.763-0.038h1.747l-0.122 0.15z"></path>
</svg>
