<!-- Generated by IcoMoon.io -->
<svg version="1.1" xmlns="http://www.w3.org/2000/svg" width="32" height="32" viewBox="0 0 32 32">
<title>internationaltv</title>
<path fill="#ff7900" d="M2.368 14.688v8.32h4.8v2.56h17.6v-2.56h4.8v-16.64h-27.2v8.32zM27.648 14.688v6.4h-23.36v-12.8h23.36v6.4zM16.394 22.317c0.698 0.339 0.701 1.36 0.003 1.702-0.896 0.438-1.786-0.611-1.197-1.421 0.266-0.368 0.774-0.49 1.194-0.282z"></path>
<path fill="#ff7900" d="M12.118 10.291c-0.003 0.003-0.122 0.016-0.262 0.029-0.141 0.010-0.259 0.032-0.266 0.048s-0.048 0.022-0.096 0.013c-0.048-0.010-0.128 0-0.179 0.019-0.093 0.035-0.093 0.035-0.026 0.083 0.042 0.029 0.099 0.038 0.147 0.026 0.042-0.010 0.083-0.006 0.093 0.010 0.010 0.013-0.032 0.029-0.086 0.032-0.122 0.006-0.358 0.096-0.33 0.128 0.032 0.029 0.413 0.035 0.486 0.006 0.077-0.029 0.032-0.035-0.189-0.029-0.093 0.003-0.147-0.006-0.134-0.026 0.010-0.016 0.122-0.026 0.25-0.019 0.157 0.006 0.246-0.003 0.282-0.032 0.109-0.090 0.64-0.218 0.64-0.15 0 0.019-0.035 0.035-0.077 0.035s-0.125 0.010-0.182 0.022c-0.106 0.022-0.106 0.022-0.029 0.045 0.080 0.022 0.080 0.022 0.006 0.026-0.16 0.006-0.026 0.067 0.15 0.067 0.214 0 0.262 0.035 0.227 0.163-0.022 0.070-0.016 0.093 0.019 0.093 0.026 0 0.045 0.016 0.045 0.035 0 0.016-0.010 0.026-0.022 0.019-0.016-0.010-0.045 0.006-0.070 0.035-0.042 0.042-0.038 0.045 0.042 0.026 0.058-0.013 0.080-0.010 0.067 0.013-0.010 0.016-0.042 0.032-0.064 0.032-0.074 0-0.141 0.134-0.125 0.256 0.019 0.166 0.067 0.237 0.189 0.275 0.106 0.032 0.115 0.029 0.224-0.093 0.061-0.067 0.128-0.154 0.147-0.186 0.019-0.035 0.067-0.061 0.118-0.061 0.048 0 0.15-0.035 0.227-0.080 0.074-0.045 0.176-0.080 0.224-0.080 0.086 0 0.365-0.090 0.307-0.099-0.016-0.003-0.042-0.003-0.054 0-0.016 0-0.026-0.013-0.026-0.032 0-0.022 0.038-0.032 0.093-0.022 0.077 0.013 0.096 0 0.109-0.058 0.010-0.048-0.003-0.080-0.038-0.086-0.029-0.010-0.006-0.016 0.051-0.019 0.067-0.003 0.115-0.026 0.138-0.067 0.019-0.035 0.022-0.064 0.010-0.064s-0.003-0.016 0.022-0.032c0.038-0.026 0.042-0.038 0.006-0.061-0.035-0.019-0.032-0.032 0.010-0.048 0.029-0.010 0.070-0.010 0.086 0.003 0.022 0.010 0.026 0.003 0.013-0.016-0.013-0.022 0.032-0.051 0.115-0.077l0.138-0.042-0.192-0.029c-0.365-0.051-1.446-0.032-1.696 0.032-0.051 0.013-0.054 0.010-0.016-0.016 0.026-0.019 0.035-0.035 0.016-0.038-0.090-0.010-0.528-0.016-0.538-0.010z"></path>
<path fill="#ff7900" d="M17.136 10.358c-0.125 0.032-0.106 0.058 0.048 0.067 0.086 0.003 0.163-0.006 0.176-0.026 0.010-0.016 0-0.032-0.029-0.032-0.026 0-0.064-0.006-0.090-0.013-0.022-0.006-0.070-0.003-0.106 0.003z"></path>
<path fill="#ff7900" d="M16.819 10.4c0.029 0.026 0.17 0.022 0.154-0.006-0.010-0.013-0.051-0.022-0.093-0.019s-0.070 0.016-0.061 0.026z"></path>
<path fill="#ff7900" d="M17.434 10.39c0.022 0.010 0.051 0.006 0.061-0.003 0.013-0.010-0.006-0.019-0.042-0.016-0.035 0-0.045 0.010-0.019 0.019z"></path>
<path fill="#ff7900" d="M18.544 10.397c-0.019 0.035 0.035 0.054 0.25 0.083 0.179 0.022 0.195 0 0.038-0.067-0.125-0.051-0.259-0.058-0.288-0.016z"></path>
<path fill="#ff7900" d="M15.546 10.422c-0.128 0.013-0.16 0.064-0.064 0.093 0.029 0.010 0.080 0.032 0.112 0.048 0.038 0.019 0.077 0.016 0.128-0.016 0.061-0.042 0.080-0.042 0.128-0.003 0.035 0.022 0.083 0.035 0.112 0.022 0.038-0.013 0.016-0.032-0.077-0.074l-0.125-0.054 0.115 0.010c0.064 0.003 0.138-0.003 0.16-0.019 0.045-0.029-0.246-0.032-0.49-0.006z"></path>
<path fill="#ff7900" d="M10.512 10.515l-0.096 0.045 0.096-0.019c0.099-0.019 0.131-0.035 0.109-0.058-0.006-0.006-0.054 0.006-0.109 0.032z"></path>
<path fill="#ff7900" d="M10.88 10.496c0.064 0.042 0.16 0.042 0.16 0 0-0.019-0.048-0.032-0.102-0.032-0.080 0-0.093 0.010-0.058 0.032z"></path>
<path fill="#ff7900" d="M11.101 10.499c-0.026 0.016-0.035 0.029-0.022 0.029 0.035 0-0.077 0.128-0.112 0.128-0.013 0-0.016-0.016-0.006-0.032 0.013-0.019-0.035-0.032-0.125-0.026-0.134 0.003-0.211 0.051-0.099 0.061 0.026 0.003 0.064 0.010 0.080 0.013 0.019 0.003 0.054 0.010 0.080 0.013 0.061 0.003 0.064 0.067 0 0.067-0.022 0-0.061 0.026-0.080 0.054-0.032 0.051-0.032 0.051-0.016-0.006 0.013-0.054 0-0.064-0.067-0.064-0.045 0.003-0.093 0.022-0.109 0.048-0.013 0.022-0.042 0.029-0.061 0.019-0.045-0.029-0.045 0.022 0 0.067 0.019 0.019 0.058 0.029 0.086 0.019 0.035-0.016 0.042-0.010 0.019 0.026-0.013 0.026-0.022 0.070-0.019 0.099 0.010 0.045-0.010 0.058-0.080 0.054l-0.090-0.003 0.080-0.026c0.070-0.019 0.074-0.026 0.022-0.048-0.042-0.016-0.077-0.003-0.122 0.045-0.074 0.080-0.173 0.086-0.32 0.019-0.122-0.051-0.099-0.058 0.070-0.019 0.096 0.022 0.122 0.016 0.15-0.032 0.026-0.042 0.026-0.064 0.003-0.080-0.022-0.013-0.006-0.048 0.038-0.096l0.070-0.077h-0.074c-0.042 0-0.102 0.022-0.134 0.054-0.032 0.029-0.058 0.035-0.058 0.016s-0.029-0.029-0.064-0.022c-0.035 0.006-0.083-0.010-0.112-0.035-0.061-0.064-0.298-0.064-0.416 0-0.051 0.029-0.115 0.051-0.138 0.051-0.032 0-0.032 0.010 0 0.045 0.029 0.032 0.064 0.035 0.138 0.013 0.096-0.032 0.227-0.061 0.15-0.035-0.032 0.013-0.029 0.026 0.013 0.054 0.042 0.032 0.045 0.048 0.013 0.067-0.029 0.019-0.035 0.013-0.016-0.016 0.019-0.032 0.013-0.038-0.029-0.022-0.032 0.013-0.064 0.022-0.070 0.022s-0.013 0.019-0.013 0.045c0 0.038-0.022 0.038-0.112 0.016-0.061-0.019-0.128-0.022-0.144-0.013-0.019 0.010-0.032 0.003-0.032-0.016 0-0.026-0.019-0.026-0.064 0-0.035 0.019-0.064 0.022-0.064 0.006 0-0.032-0.278-0.016-0.438 0.026-0.054 0.013-0.109 0.016-0.122 0.006-0.022-0.026-0.090-0.038-0.288-0.058-0.086-0.010-0.205-0.029-0.259-0.042-0.099-0.029-0.429 0.019-0.589 0.086-0.086 0.035-0.109 0.038-0.173 0.038-0.029 0-0.038 0.026-0.026 0.083 0.013 0.070 0.006 0.080-0.045 0.067-0.093-0.029-0.285 0.022-0.285 0.074 0 0.035 0.029 0.045 0.112 0.038 0.17-0.016 0.080 0.042-0.138 0.086-0.099 0.022-0.205 0.061-0.23 0.086-0.054 0.054-0.067 0.157-0.016 0.125 0.019-0.010 0.032-0.006 0.032 0.013 0 0.016-0.019 0.038-0.038 0.045-0.022 0.010 0.010 0.019 0.070 0.019 0.163 0.003 0.086 0.054-0.243 0.163-0.272 0.086-0.278 0.090-0.134 0.086 0.086-0.003 0.154-0.013 0.154-0.026 0-0.010 0.077-0.042 0.17-0.077 0.090-0.032 0.182-0.070 0.205-0.086 0.022-0.019 0.058-0.026 0.080-0.016 0.026 0.010 0.019 0.019-0.016 0.019-0.032 0.003-0.048 0.019-0.038 0.035 0.013 0.022 0.042 0.022 0.083 0 0.035-0.019 0.054-0.048 0.045-0.064-0.013-0.019 0.003-0.022 0.035-0.010 0.035 0.013 0.048 0.010 0.032-0.016-0.010-0.019 0.006-0.051 0.042-0.067 0.077-0.042 0.109-0.045 0.083-0.006-0.010 0.019 0.022 0.019 0.083 0.003 0.058-0.016 0.112-0.022 0.128-0.013 0.013 0.006 0.038-0.013 0.058-0.042 0.026-0.045 0.038-0.051 0.070-0.019 0.022 0.022 0.083 0.042 0.131 0.042 0.138 0 0.179 0.058 0.16 0.221-0.013 0.118-0.006 0.138 0.032 0.122 0.038-0.013 0.048 0.010 0.042 0.112-0.003 0.070-0.026 0.141-0.051 0.157-0.035 0.019-0.035 0.035-0.003 0.067 0.070 0.070 0.042 0.198-0.083 0.362-0.186 0.25-0.205 0.301-0.182 0.512 0.016 0.166 0.038 0.214 0.115 0.246 0.013 0.006 0.029 0.070 0.042 0.147 0.010 0.074 0.032 0.163 0.051 0.195 0.022 0.045 0.019 0.067-0.010 0.077-0.026 0.010-0.013 0.035 0.035 0.070 0.045 0.032 0.067 0.074 0.058 0.106s0.013 0.077 0.061 0.112c0.045 0.032 0.080 0.051 0.080 0.042s-0.042-0.122-0.090-0.25c-0.048-0.128-0.086-0.253-0.086-0.278 0-0.074 0.080-0.080 0.083-0.006 0.006 0.115 0.010 0.125 0.083 0.205 0.038 0.045 0.061 0.090 0.051 0.099-0.013 0.010 0.003 0.045 0.029 0.074 0.090 0.102 0.157 0.269 0.138 0.333-0.022 0.064 0.086 0.186 0.17 0.189 0.019 0 0.038 0.013 0.038 0.029 0 0.045 0.269 0.131 0.346 0.109 0.058-0.013 0.096 0.003 0.154 0.064 0.045 0.048 0.118 0.096 0.166 0.106 0.048 0.013 0.118 0.051 0.157 0.083 0.038 0.035 0.083 0.054 0.102 0.042 0.019-0.010 0.035-0.003 0.035 0.013 0 0.019-0.013 0.035-0.032 0.035-0.016 0-0.032 0.022-0.032 0.048s0.022 0.048 0.048 0.048c0.022 0 0.058 0.019 0.070 0.038 0.013 0.022 0.070 0.067 0.125 0.096 0.099 0.054 0.102 0.054 0.118-0.010 0.010-0.038 0.032-0.058 0.051-0.045 0.019 0.010 0.029 0.032 0.019 0.048-0.010 0.013 0.006 0.035 0.035 0.045 0.080 0.032 0.045 0.275-0.061 0.387-0.096 0.106-0.141 0.262-0.093 0.31 0.026 0.026 0.019 0.048-0.013 0.080-0.048 0.051-0.032 0.166 0.029 0.208 0.016 0.010 0.099 0.147 0.182 0.304 0.102 0.195 0.182 0.304 0.259 0.352 0.246 0.157 0.266 0.182 0.275 0.365 0.006 0.096 0.016 0.288 0.029 0.429 0.010 0.141 0.022 0.371 0.029 0.512 0.016 0.298 0.074 0.624 0.115 0.624 0.013 0 0.019-0.026 0.010-0.058-0.016-0.045-0.013-0.045 0.019 0.006 0.026 0.035 0.029 0.067 0.010 0.080-0.045 0.026-0.045 0.227-0.003 0.227 0.016 0 0.026 0.019 0.016 0.045-0.029 0.074 0.176 0.349 0.314 0.422 0.234 0.122 0.336 0.144 0.406 0.096 0.061-0.042 0.058-0.045-0.048-0.080-0.058-0.019-0.138-0.080-0.179-0.131-0.064-0.090-0.067-0.102-0.019-0.189 0.061-0.118 0.061-0.163 0.003-0.163-0.022 0-0.061-0.022-0.083-0.048-0.032-0.038-0.029-0.051 0.013-0.067 0.029-0.010 0.051-0.054 0.051-0.096s0.016-0.077 0.038-0.077c0.019 0 0.026-0.010 0.013-0.026-0.013-0.013-0.042-0.022-0.061-0.022-0.016 0-0.038-0.019-0.045-0.042-0.010-0.022 0.016-0.038 0.070-0.038 0.061 0 0.083-0.013 0.070-0.045-0.022-0.054 0.029-0.099 0.141-0.128 0.090-0.019 0.15-0.112 0.099-0.144-0.016-0.010-0.042-0.054-0.054-0.093-0.019-0.070-0.016-0.074 0.048-0.038 0.077 0.042 0.144 0.003 0.195-0.112 0.016-0.035 0.067-0.128 0.112-0.208 0.051-0.093 0.074-0.173 0.064-0.227-0.022-0.115 0.029-0.166 0.24-0.253 0.208-0.083 0.256-0.17 0.272-0.509 0.006-0.115 0.026-0.214 0.042-0.221 0.019-0.006 0.035-0.035 0.035-0.061s0.035-0.090 0.080-0.144c0.080-0.093 0.099-0.195 0.061-0.294-0.010-0.029-0.032-0.051-0.051-0.051-0.016 0-0.077-0.035-0.131-0.077-0.058-0.042-0.17-0.086-0.253-0.096-0.086-0.013-0.154-0.035-0.154-0.048 0-0.016-0.048-0.045-0.102-0.067-0.218-0.080-0.243-0.102-0.282-0.243-0.042-0.147-0.144-0.24-0.285-0.253-0.122-0.013-0.195-0.048-0.195-0.096 0-0.026-0.029-0.051-0.064-0.064-0.035-0.010-0.077-0.064-0.093-0.122s-0.032-0.083-0.032-0.064c-0.003 0.029-0.026 0.032-0.083 0.010-0.054-0.019-0.080-0.019-0.080 0.003 0 0.045-0.227 0-0.285-0.058-0.032-0.032-0.054-0.035-0.077-0.013-0.051 0.051-0.086 0.042-0.067-0.013 0.013-0.026 0.006-0.048-0.013-0.048s-0.038 0.016-0.045 0.032c-0.006 0.019-0.042 0.038-0.083 0.048-0.096 0.016-0.134 0.045-0.134 0.096 0 0.061-0.122 0.093-0.173 0.051-0.032-0.029-0.067-0.026-0.128 0-0.070 0.035-0.090 0.029-0.141-0.035s-0.054-0.096-0.032-0.214c0.042-0.192 0.022-0.227-0.125-0.218-0.141 0.010-0.186-0.006-0.144-0.058 0.016-0.022 0.045-0.083 0.064-0.134 0.016-0.054 0.042-0.122 0.054-0.154 0.019-0.045 0.006-0.054-0.070-0.054-0.070 0-0.106 0.022-0.131 0.077-0.045 0.099-0.122 0.138-0.259 0.134-0.112-0.003-0.112 0-0.154-0.214-0.006-0.045 0.010-0.16 0.035-0.256 0.048-0.157 0.067-0.186 0.189-0.246 0.106-0.051 0.163-0.061 0.269-0.042 0.093 0.019 0.131 0.016 0.128-0.010-0.010-0.048 0.163-0.064 0.218-0.019 0.032 0.026 0.048 0.026 0.064-0.003 0.019-0.026 0.032-0.022 0.054 0.016 0.016 0.029 0.019 0.067 0.010 0.086-0.026 0.038 0.045 0.221 0.083 0.221 0.029 0 0.096-0.112 0.080-0.131-0.006-0.006-0.022-0.067-0.032-0.138-0.019-0.109-0.010-0.134 0.086-0.224 0.058-0.054 0.15-0.122 0.202-0.147 0.115-0.061 0.141-0.093 0.141-0.186 0-0.042 0.013-0.067 0.029-0.058 0.016 0.013 0.067-0.029 0.115-0.083 0.086-0.106 0.179-0.16 0.272-0.166 0.026-0.003 0.048-0.029 0.048-0.064 0-0.061 0.016-0.074 0.205-0.16 0.141-0.064 0.182-0.064 0.115 0-0.083 0.083-0.038 0.083 0.17-0.010 0.115-0.048 0.198-0.102 0.198-0.131 0-0.042-0.010-0.042-0.058 0.003-0.064 0.061-0.118 0.074-0.086 0.022 0.010-0.019-0.003-0.032-0.032-0.032-0.032 0-0.042 0.016-0.029 0.038 0.013 0.019 0.010 0.026-0.010 0.016-0.019-0.013-0.042-0.051-0.051-0.086s-0.006-0.058 0.010-0.048c0.013 0.010 0.042-0.006 0.064-0.029 0.029-0.038 0.019-0.048-0.070-0.058-0.102-0.010-0.102-0.010-0.035-0.051 0.061-0.035 0.086-0.032 0.154 0.013 0.045 0.029 0.090 0.045 0.102 0.035 0.010-0.013-0.016-0.035-0.058-0.051-0.067-0.029-0.061-0.032 0.058-0.032 0.147-0.003 0.413-0.106 0.432-0.166 0.016-0.051-0.067-0.157-0.125-0.157-0.022 0-0.042-0.019-0.045-0.042-0.003-0.019-0.006-0.067-0.010-0.102s-0.010-0.096-0.013-0.138l-0.006-0.074-0.096 0.067c-0.054 0.038-0.118 0.061-0.144 0.051-0.058-0.022-0.064-0.115-0.006-0.118 0.019 0 0.006-0.013-0.032-0.029-0.042-0.016-0.074-0.042-0.074-0.058 0-0.019-0.058-0.032-0.128-0.032-0.112-0.003-0.138 0.010-0.17 0.083-0.019 0.048-0.054 0.099-0.077 0.112-0.026 0.016-0.035 0.058-0.022 0.102 0.016 0.064 0 0.090-0.086 0.141-0.058 0.035-0.115 0.058-0.128 0.048-0.013-0.006-0.032 0.029-0.045 0.083-0.022 0.102-0.125 0.186-0.16 0.128-0.013-0.019-0.013-0.074-0.003-0.122 0.016-0.077 0.003-0.093-0.134-0.16-0.083-0.038-0.166-0.070-0.186-0.070-0.070 0-0.070-0.154 0-0.218 0.080-0.074 0.275-0.176 0.275-0.147 0 0.013 0.026 0 0.058-0.026 0.042-0.038 0.106-0.048 0.272-0.038 0.118 0.006 0.214 0.003 0.214-0.010s-0.038-0.058-0.086-0.096c-0.045-0.042-0.067-0.074-0.048-0.074s0.042 0.013 0.051 0.029c0.029 0.045 0.195-0.051 0.243-0.141 0.029-0.054 0.070-0.080 0.125-0.080 0.067 0 0.074 0.006 0.035 0.032-0.029 0.019-0.032 0.032-0.010 0.032 0.019 0 0.048-0.016 0.058-0.032 0.010-0.019 0.035-0.032 0.051-0.032 0.019 0 0.026 0.013 0.016 0.029s0.010 0.035 0.045 0.045c0.080 0.019 0.083 0.080 0.010 0.109-0.032 0.010-0.080 0.038-0.109 0.064s-0.064 0.042-0.080 0.038c-0.070-0.013-0.141 0.006-0.141 0.035 0 0.022 0.042 0.026 0.109 0.016 0.090-0.019 0.112-0.013 0.128 0.042 0.013 0.042 0.067 0.074 0.15 0.096 0.128 0.032 0.128 0.032 0.074-0.029-0.058-0.064-0.019-0.086 0.042-0.026 0.064 0.064 0.112-0.003 0.090-0.118-0.019-0.118 0.003-0.141 0.061-0.058 0.032 0.042 0.051 0.045 0.125 0.010 0.112-0.051 0.109-0.077-0.010-0.125-0.106-0.045-0.115-0.064-0.058-0.122 0.029-0.029 0-0.051-0.115-0.102-0.083-0.035-0.141-0.077-0.131-0.096 0.013-0.019-0.016-0.032-0.064-0.032-0.064 0-0.083 0.013-0.067 0.048 0.010 0.026 0.003 0.048-0.013 0.048-0.019 0-0.032-0.022-0.032-0.048 0-0.058-0.102-0.064-0.198-0.013-0.048 0.026-0.061 0.026-0.045 0 0.029-0.045-0.019-0.045-0.131 0.003-0.147 0.067-0.176 0.138-0.070 0.17 0.067 0.022 0.067 0.026-0.022 0.096-0.051 0.042-0.106 0.067-0.122 0.058-0.013-0.010-0.006-0.029 0.016-0.045 0.022-0.013 0.032-0.035 0.019-0.048-0.010-0.013-0.042-0.006-0.064 0.013-0.035 0.032-0.042 0.016-0.026-0.080 0.016-0.099 0.035-0.122 0.122-0.144 0.058-0.016 0.112-0.042 0.125-0.064 0.016-0.022 0-0.029-0.045-0.019-0.038 0.013-0.070 0.006-0.070-0.010s0.022-0.029 0.051-0.029c0.026 0 0.038-0.013 0.029-0.032-0.010-0.016 0.022-0.048 0.077-0.070 0.074-0.032 0.086-0.048 0.054-0.080-0.026-0.022-0.058-0.026-0.086-0.006zM9.802 11.050c0.010 0.022-0.010 0.042-0.038 0.045-0.032 0.003-0.058-0.016-0.058-0.042 0-0.058 0.074-0.061 0.096-0.003zM9.958 11.078c-0.029 0.029-0.048 0.029-0.077 0s-0.022-0.038 0.038-0.038c0.061 0 0.067 0.010 0.038 0.038zM10.854 11.245c0.032-0.019 0.029-0.010-0.003 0.029-0.022 0.029-0.067 0.054-0.096 0.054-0.045 0-0.045-0.006-0.003-0.032 0.032-0.019 0.035-0.032 0.010-0.032-0.022 0-0.042-0.016-0.042-0.035 0-0.026 0.013-0.026 0.048 0.003 0.026 0.019 0.064 0.026 0.086 0.013zM11.136 12.333c0 0.006-0.022 0.022-0.051 0.032-0.026 0.010-0.038 0.006-0.029-0.013 0.019-0.032 0.080-0.045 0.080-0.019zM10.326 15.078c-0.010 0.026-0.019 0.016-0.019-0.019-0.003-0.035 0.006-0.054 0.016-0.042 0.010 0.010 0.013 0.038 0.003 0.061z"></path>
<path fill="#ff7900" d="M18.976 10.496c0 0.016 0.045 0.032 0.096 0.032 0.054 0 0.096-0.016 0.096-0.032 0-0.019-0.042-0.032-0.096-0.032-0.051 0-0.096 0.013-0.096 0.032z"></path>
<path fill="#ff7900" d="M19.238 10.534c-0.022 0.022-0.038 0.029-0.038 0.016s-0.038-0.003-0.086 0.019c-0.051 0.026-0.109 0.038-0.131 0.032-0.077-0.029-0.358 0.058-0.358 0.109 0 0.035-0.022 0.045-0.077 0.029-0.090-0.022-0.147 0.035-0.070 0.064 0.029 0.010 0.051 0.035 0.051 0.054 0 0.022-0.013 0.022-0.038-0.003-0.048-0.048-0.186-0.051-0.186-0.003 0 0.019-0.022 0.010-0.051-0.016-0.070-0.074-0.080-0.064-0.042 0.035 0.045 0.118 0.093 0.173 0.131 0.15 0.045-0.029-0.006 0.125-0.051 0.154-0.064 0.042-0.090 0.026-0.038-0.022 0.042-0.045 0.042-0.061-0.029-0.166-0.045-0.064-0.080-0.125-0.080-0.138s-0.035-0.038-0.080-0.058c-0.070-0.032-0.083-0.029-0.125 0.051-0.042 0.077-0.038 0.090 0.022 0.141 0.035 0.032 0.080 0.058 0.096 0.058 0.019 0 0.026 0.006 0.016 0.016s-0.064-0.003-0.125-0.029c-0.061-0.022-0.173-0.051-0.253-0.061-0.109-0.016-0.125-0.013-0.070 0.010 0.048 0.019 0.064 0.045 0.051 0.070-0.019 0.029-0.029 0.029-0.035 0.003-0.010-0.022-0.032-0.032-0.051-0.022-0.022 0.006-0.109 0.019-0.198 0.022-0.086 0.006-0.192 0.029-0.23 0.048-0.090 0.048-0.141 0.048-0.131 0 0.006-0.019-0.016-0.045-0.048-0.051-0.051-0.010-0.054-0.003-0.026 0.051 0.048 0.090 0.045 0.112-0.013 0.090-0.029-0.010-0.077 0.010-0.112 0.045-0.051 0.051-0.077 0.058-0.147 0.032-0.077-0.029-0.080-0.029-0.045 0.016 0.026 0.029 0.026 0.048 0.006 0.048s-0.045-0.019-0.061-0.042c-0.048-0.077-0.035-0.109 0.042-0.093 0.042 0.006 0.115 0.003 0.16-0.006 0.074-0.019 0.080-0.029 0.042-0.064-0.054-0.051-0.23-0.115-0.381-0.138-0.061-0.010-0.122-0.032-0.131-0.048-0.026-0.038-0.374-0.038-0.422 0-0.022 0.019-0.048 0.032-0.064 0.032-0.086 0.003-0.218 0.051-0.253 0.096-0.035 0.042-0.035 0.045 0.003 0.022 0.026-0.013 0.003 0.026-0.048 0.093-0.051 0.064-0.154 0.147-0.227 0.182-0.15 0.074-0.186 0.141-0.141 0.266 0.035 0.083 0.141 0.115 0.179 0.051 0.035-0.058 0.102-0.035 0.141 0.051 0.019 0.045 0.029 0.093 0.019 0.109-0.010 0.013 0.010 0.035 0.038 0.048 0.032 0.010 0.061 0.003 0.067-0.013 0.006-0.019 0.038-0.035 0.074-0.035 0.045 0 0.061-0.022 0.061-0.080 0-0.045 0.022-0.090 0.048-0.099 0.026-0.013 0.048-0.038 0.048-0.064s-0.022-0.045-0.048-0.045c-0.026 0-0.048-0.019-0.048-0.042 0-0.054 0.243-0.278 0.304-0.278 0.074 0 0.058 0.051-0.035 0.109-0.058 0.042-0.077 0.077-0.070 0.141 0.010 0.083 0.016 0.086 0.195 0.080 0.099-0.003 0.182 0.006 0.182 0.026 0 0.016-0.051 0.032-0.112 0.032-0.176 0.006-0.186 0.010-0.202 0.054-0.006 0.026 0.006 0.038 0.042 0.032 0.032-0.006 0.064 0.010 0.070 0.032 0.010 0.026-0.013 0.035-0.061 0.032-0.054-0.006-0.077 0.010-0.083 0.061-0.013 0.083-0.051 0.096-0.326 0.122-0.138 0.010-0.192 0.006-0.16-0.013 0.038-0.029 0.038-0.035-0.010-0.054-0.029-0.010-0.048-0.029-0.042-0.042 0.010-0.013 0.003-0.042-0.013-0.067-0.048-0.077-0.138 0.026-0.115 0.134 0.016 0.077 0.006 0.090-0.058 0.090-0.038 0-0.106 0.035-0.147 0.080-0.083 0.086-0.202 0.112-0.173 0.032 0.010-0.026-0.026-0.090-0.080-0.15-0.106-0.112-0.125-0.17-0.058-0.195 0.022-0.010 0.013-0.019-0.019-0.019-0.045-0.003-0.054-0.019-0.038-0.077 0.013-0.042 0.010-0.054-0.006-0.032-0.026 0.035-0.102 0.061-0.208 0.070-0.016 0.003-0.026 0.019-0.026 0.038 0 0.026 0.019 0.022 0.054-0.006 0.048-0.042 0.048-0.038 0.019 0.019-0.019 0.035-0.026 0.083-0.019 0.102 0.010 0.026-0.010 0.042-0.045 0.042-0.090 0-0.163 0.067-0.189 0.166-0.016 0.074-0.010 0.090 0.042 0.090 0.086 0 0.208-0.096 0.189-0.147-0.022-0.058 0.109-0.096 0.144-0.042 0.019 0.029 0.010 0.048-0.019 0.054-0.045 0.010-0.061 0.048-0.051 0.115 0.003 0.013-0.013 0.048-0.035 0.077s-0.026 0.042-0.006 0.029c0.019-0.010 0.112-0.029 0.205-0.038 0.157-0.019 0.166-0.016 0.128 0.032-0.026 0.029-0.070 0.045-0.099 0.038-0.032-0.010-0.064 0-0.070 0.022-0.006 0.019-0.038 0.035-0.070 0.035-0.086 0-0.093 0.061-0.010 0.096 0.054 0.022 0.077 0.064 0.083 0.157l0.010 0.125-0.186-0.019c-0.102-0.010-0.202-0.010-0.224 0.003-0.019 0.013-0.035 0.074-0.038 0.134 0 0.061-0.003 0.134-0.006 0.16-0.013 0.112 0.006 0.16 0.067 0.16 0.035 0 0.064 0.016 0.064 0.035 0 0.022 0.038 0.026 0.106 0.013 0.173-0.032 0.25-0.086 0.269-0.186 0.013-0.058 0.054-0.115 0.109-0.147 0.051-0.029 0.093-0.077 0.093-0.112 0-0.048 0.016-0.054 0.093-0.042 0.054 0.013 0.115 0 0.157-0.029 0.070-0.048 0.166-0.029 0.166 0.035 0 0.038 0.102 0.122 0.24 0.192 0.035 0.019 0.064 0.061 0.064 0.096 0 0.048-0.022 0.064-0.086 0.064-0.102-0.003-0.115 0.032-0.029 0.077 0.051 0.029 0.070 0.019 0.118-0.054 0.032-0.048 0.054-0.106 0.048-0.131-0.006-0.029 0.010-0.038 0.045-0.022 0.090 0.035 0.035-0.054-0.067-0.106-0.106-0.054-0.246-0.211-0.23-0.259 0.010-0.032 0.374 0.198 0.416 0.266 0.013 0.022 0.026 0.070 0.026 0.109 0 0.048 0.029 0.077 0.099 0.102 0.147 0.051 0.166 0.045 0.112-0.035-0.070-0.099-0.067-0.109 0.070-0.115 0.125-0.010 0.131-0.003 0.144 0.221 0.003 0.058 0.029 0.064 0.317 0.067 0.144 0 0.208 0.013 0.202 0.038-0.006 0.019-0.019 0.090-0.026 0.157-0.010 0.067-0.022 0.131-0.032 0.141-0.051 0.048-0.39 0.032-0.57-0.026-0.214-0.070-0.285-0.064-0.285 0.032 0 0.035-0.013 0.070-0.029 0.080-0.032 0.019-0.221-0.067-0.285-0.131-0.022-0.022-0.074-0.042-0.112-0.042-0.090-0.003-0.198-0.083-0.154-0.112 0.048-0.029 0.045-0.176-0.003-0.179-0.051-0.006-0.029-0.006-0.301 0.016-0.128 0.010-0.269 0.038-0.317 0.064s-0.144 0.042-0.211 0.038c-0.090-0.006-0.138 0.006-0.186 0.058-0.035 0.038-0.086 0.086-0.112 0.109-0.029 0.022-0.061 0.080-0.070 0.128-0.013 0.048-0.099 0.16-0.192 0.25-0.096 0.090-0.173 0.182-0.173 0.205 0 0.019-0.029 0.080-0.064 0.131-0.048 0.064-0.058 0.109-0.038 0.147 0.016 0.032 0.022 0.122 0.013 0.202-0.035 0.336-0.022 0.406 0.093 0.544 0.32 0.378 0.371 0.422 0.477 0.4 0.054-0.013 0.173-0.026 0.259-0.029 0.086-0.006 0.176-0.026 0.195-0.045 0.064-0.064 0.275-0.048 0.314 0.026 0.022 0.042 0.067 0.064 0.122 0.064 0.138 0 0.16 0.045 0.128 0.23-0.029 0.15-0.022 0.173 0.064 0.294 0.166 0.24 0.24 0.566 0.154 0.698-0.096 0.147-0.096 0.298-0.006 0.483 0.048 0.093 0.093 0.214 0.102 0.266 0.035 0.214 0.054 0.278 0.131 0.413 0.042 0.077 0.074 0.17 0.067 0.205-0.013 0.086 0.096 0.202 0.163 0.166 0.029-0.016 0.118-0.035 0.198-0.045s0.179-0.035 0.218-0.058c0.112-0.070 0.323-0.368 0.323-0.461 0-0.058 0.022-0.090 0.080-0.112 0.106-0.038 0.128-0.106 0.090-0.24-0.032-0.099-0.026-0.115 0.067-0.198 0.054-0.051 0.141-0.118 0.192-0.15 0.090-0.058 0.090-0.058 0.070-0.301-0.013-0.138-0.022-0.282-0.026-0.326s-0.022-0.090-0.038-0.102c-0.064-0.045 0.112-0.304 0.432-0.637 0.166-0.173 0.317-0.461 0.317-0.602 0-0.058-0.010-0.058-0.16-0.013-0.198 0.058-0.336 0.045-0.333-0.029 0.003-0.029-0.058-0.112-0.134-0.186s-0.141-0.15-0.141-0.173c0-0.022-0.029-0.080-0.064-0.125s-0.064-0.109-0.064-0.144c0-0.035-0.019-0.086-0.038-0.109-0.035-0.035-0.237-0.413-0.278-0.522-0.006-0.019 0.019 0.003 0.054 0.048 0.048 0.054 0.067 0.064 0.070 0.032 0-0.054 0.288 0.371 0.288 0.426 0 0.022 0.058 0.122 0.131 0.224 0.070 0.106 0.115 0.179 0.096 0.17-0.016-0.013-0.010 0.022 0.019 0.077 0.026 0.054 0.051 0.118 0.054 0.144s0.016 0.054 0.026 0.064c0.032 0.032 0.477-0.166 0.515-0.227 0.013-0.026 0.054-0.045 0.090-0.045s0.070-0.022 0.080-0.048c0.013-0.026 0.032-0.048 0.051-0.048 0.042 0 0.093-0.061 0.163-0.186 0.067-0.118 0.042-0.182-0.096-0.234-0.045-0.016-0.074-0.054-0.074-0.099 0-0.064-0.003-0.064-0.038-0.016-0.022 0.029-0.083 0.067-0.131 0.083-0.077 0.032-0.093 0.026-0.115-0.038-0.016-0.038-0.035-0.064-0.045-0.054s-0.061-0.048-0.115-0.128c-0.128-0.189-0.054-0.214 0.131-0.048 0.109 0.099 0.147 0.115 0.23 0.102 0.080-0.013 0.112-0.003 0.141 0.045 0.032 0.051 0.077 0.061 0.291 0.061 0.208 0 0.259 0.010 0.307 0.064 0.032 0.035 0.083 0.070 0.115 0.080s0.051 0.038 0.042 0.061c-0.026 0.067 0.077 0.134 0.147 0.093 0.051-0.032 0.058-0.022 0.077 0.093 0.019 0.112 0.282 0.778 0.323 0.822 0.032 0.029 0.144-0.141 0.15-0.227 0.003-0.048 0.006-0.131 0.010-0.182 0.006-0.070 0.061-0.15 0.202-0.294 0.109-0.109 0.192-0.208 0.182-0.221s0.045-0.032 0.122-0.042c0.074-0.010 0.141-0.006 0.15 0.006 0.010 0.016 0.051 0.074 0.096 0.131s0.086 0.141 0.096 0.186c0.019 0.099 0.074 0.122 0.138 0.058 0.042-0.042 0.054-0.026 0.112 0.15 0.038 0.109 0.061 0.25 0.058 0.31-0.006 0.061 0.006 0.128 0.026 0.15 0.099 0.112 0.115 0.141 0.115 0.205 0 0.077 0.23 0.31 0.25 0.253 0.010-0.022-0.003-0.054-0.022-0.074s-0.035-0.074-0.035-0.122c0-0.058-0.032-0.115-0.096-0.166-0.051-0.045-0.096-0.106-0.096-0.134 0-0.026-0.022-0.058-0.048-0.067-0.035-0.016-0.042-0.051-0.029-0.154 0.013-0.070 0.026-0.138 0.032-0.144s0.064 0.042 0.131 0.106c0.067 0.064 0.131 0.115 0.147 0.115 0.013 0 0.022 0.029 0.022 0.067 0 0.058 0.013 0.054 0.128-0.042 0.163-0.138 0.176-0.291 0.038-0.432-0.051-0.048-0.115-0.128-0.144-0.173-0.051-0.080-0.051-0.083 0.019-0.154 0.077-0.070 0.182-0.064 0.182 0.010 0 0.019 0.016 0.013 0.032-0.016s0.099-0.074 0.182-0.096c0.080-0.026 0.182-0.080 0.227-0.125 0.118-0.122 0.214-0.448 0.131-0.448-0.016 0-0.026-0.013-0.016-0.029 0.019-0.029-0.122-0.221-0.195-0.269-0.061-0.038-0.051-0.112 0.022-0.134 0.080-0.026 0.083-0.080 0.010-0.083-0.25-0.013-0.314-0.061-0.202-0.157 0.086-0.077 0.141-0.083 0.118-0.016-0.022 0.054 0.029 0.096 0.058 0.048 0.038-0.061 0.144-0.032 0.176 0.048 0.016 0.045 0.051 0.080 0.077 0.080 0.029 0 0.061 0.045 0.077 0.102 0.029 0.109 0.086 0.141 0.163 0.093 0.061-0.038 0.019-0.144-0.102-0.259-0.080-0.077-0.093-0.102-0.058-0.125 0.026-0.016 0.035-0.051 0.026-0.077-0.022-0.061 0.048-0.125 0.125-0.112 0.125 0.022 0.195-0.365 0.093-0.499-0.026-0.035-0.048-0.077-0.048-0.093 0-0.051 0.122 0.074 0.218 0.224 0.048 0.074 0.109 0.138 0.134 0.138 0.035-0.003 0.029-0.019-0.022-0.061-0.090-0.077-0.106-0.195-0.016-0.128 0.029 0.022-0.032-0.045-0.138-0.15-0.106-0.102-0.195-0.17-0.202-0.15-0.010 0.029-0.029 0.029-0.086-0.010-0.042-0.026-0.093-0.045-0.118-0.042-0.083 0.010-0.125-0.003-0.106-0.035 0.013-0.022-0.006-0.029-0.061-0.013l-0.083 0.019 0.051-0.122c0.029-0.070 0.061-0.138 0.077-0.15 0.035-0.038 0.39-0.048 0.438-0.013 0.026 0.016 0.074 0.016 0.128-0.003 0.051-0.019 0.067-0.035 0.035-0.035-0.077-0.003-0.061-0.131 0.016-0.131 0.032 0 0.086 0.016 0.122 0.032 0.042 0.022 0.061 0.022 0.061 0 0-0.016 0.029-0.032 0.061-0.032 0.061 0 0.061 0.006 0.010 0.163l-0.054 0.166 0.205 0.182c0.134 0.122 0.195 0.198 0.179 0.227-0.016 0.026-0.013 0.032 0.013 0.016s0.035-0.077 0.026-0.166c-0.006-0.080 0.003-0.144 0.022-0.154 0.022-0.010 0.019-0.016-0.003-0.016-0.022-0.003-0.042-0.029-0.042-0.064s-0.038-0.074-0.096-0.099c-0.051-0.022-0.096-0.058-0.096-0.080 0-0.054 0.15-0.115 0.237-0.093 0.054 0.013 0.080-0.003 0.109-0.064 0.026-0.058 0.064-0.083 0.125-0.086 0.086-0.003 0.086-0.003-0.029-0.054-0.070-0.032-0.115-0.074-0.112-0.109 0.003-0.038 0.016-0.045 0.058-0.026 0.029 0.016 0.061 0.022 0.070 0.013s0.045-0.003 0.077 0.013c0.032 0.016 0.096 0.038 0.144 0.051 0.080 0.019 0.090 0.013 0.077-0.051-0.006-0.061-0.042-0.080-0.198-0.109-0.102-0.022-0.304-0.067-0.445-0.102-0.349-0.090-0.57-0.109-0.547-0.048 0.013 0.029 0.006 0.035-0.022 0.019-0.019-0.013-0.147-0.035-0.278-0.048-0.474-0.045-0.752-0.083-0.838-0.118-0.048-0.019-0.144-0.035-0.208-0.042-0.067-0.003-0.157-0.026-0.202-0.048-0.096-0.048-0.173-0.054-0.144-0.010 0.010 0.016 0.058 0.035 0.106 0.035 0.054 0.003 0.067 0.010 0.029 0.019-0.029 0.006-0.045 0.029-0.035 0.048 0.013 0.022-0.029 0.029-0.125 0.019-0.090-0.010-0.154-0.003-0.16 0.019-0.006 0.019-0.064 0-0.138-0.042-0.109-0.067-0.173-0.077-0.493-0.086-0.218-0.006-0.371-0.026-0.378-0.045-0.026-0.077-0.115-0.128-0.224-0.128-0.154 0-0.266-0.032-0.243-0.067 0.026-0.042 0-0.035-0.045 0.010zM19.661 10.736c-0.032 0.026-0.074 0.048-0.090 0.048-0.019 0-0.003-0.022 0.032-0.048 0.032-0.026 0.074-0.048 0.090-0.048 0.019 0 0.003 0.022-0.032 0.048zM18.496 11.078c0 0.019-0.019 0.016-0.048-0.006-0.026-0.022-0.048-0.045-0.048-0.051s0.022-0.003 0.048 0.006c0.026 0.013 0.048 0.035 0.048 0.051zM16.96 12.48c-0.026 0.016-0.035 0.032-0.016 0.032 0.016 0 0.013 0.016-0.006 0.035-0.029 0.029-0.003 0.061 0.106 0.131 0.077 0.054 0.141 0.115 0.141 0.141 0 0.054-0.15 0.061-0.323 0.010-0.106-0.032-0.144-0.029-0.282 0.029l-0.16 0.067 0.010-0.141c0.006-0.077 0.035-0.163 0.064-0.192s0.051-0.064 0.051-0.080c0-0.051 0.125 0.006 0.144 0.067 0.022 0.067 0.032 0.067 0.128 0.032 0.061-0.026 0.061-0.029-0.016-0.051l-0.080-0.026 0.096-0.042c0.122-0.051 0.218-0.061 0.144-0.013zM17.763 12.48c0.058 0 0.029 0.090-0.035 0.106-0.086 0.022-0.080 0.074 0.016 0.138 0.045 0.029 0.070 0.064 0.061 0.080s0.013 0.029 0.048 0.029c0.035 0 0.074 0.013 0.083 0.032 0.010 0.016-0.003 0.032-0.029 0.032-0.064 0-0.064 0.003-0.003 0.115 0.026 0.051 0.048 0.112 0.048 0.131 0 0.054-0.099 0.051-0.211-0.006-0.074-0.035-0.090-0.067-0.083-0.134 0.006-0.058-0.016-0.118-0.067-0.17-0.042-0.045-0.077-0.086-0.077-0.096-0.003-0.010-0.016-0.045-0.029-0.077-0.029-0.074 0.128-0.224 0.202-0.198 0.026 0.010 0.061 0.019 0.077 0.019z"></path>
<path fill="#ff7900" d="M10.048 10.579c-0.080 0.022-0.134 0.042-0.118 0.045 0.067 0.022 0.106 0.016 0.147-0.013 0.038-0.029 0.042-0.026 0.022 0.010-0.016 0.026-0.010 0.051 0.016 0.070 0.051 0.032 0.416 0 0.458-0.038 0.048-0.042-0.074-0.074-0.122-0.029-0.048 0.038-0.179-0.006-0.179-0.061 0-0.035-0.054-0.029-0.224 0.016zM10.23 10.611c-0.010 0.010-0.038 0.013-0.061 0.003-0.026-0.010-0.016-0.019 0.019-0.019 0.035-0.003 0.054 0.006 0.042 0.016z"></path>
<path fill="#ff7900" d="M17.69 10.576c-0.010 0.010-0.058 0.026-0.109 0.035-0.237 0.038-0.262 0.051-0.301 0.144-0.022 0.051-0.058 0.093-0.077 0.093-0.070 0.003 0.064 0.058 0.186 0.077l0.125 0.019-0.077-0.061c-0.074-0.061-0.074-0.064-0.016-0.125 0.032-0.038 0.102-0.077 0.16-0.086 0.176-0.035 0.211-0.051 0.195-0.083-0.022-0.032-0.061-0.038-0.086-0.013z"></path>
<path fill="#ff7900" d="M20.688 10.653c0.010 0.019 0.099 0.035 0.195 0.035 0.23 0 0.202-0.045-0.035-0.058-0.122-0.006-0.176 0-0.16 0.022z"></path>
<path fill="#ff7900" d="M21.088 10.669c0 0.029 0.16 0.038 0.198 0.016 0.026-0.019-0.003-0.029-0.077-0.029-0.067 0-0.122 0.006-0.122 0.013z"></path>
<path fill="#ff7900" d="M22.874 10.902c0.019 0.006 0.058 0.006 0.080 0 0.019-0.010 0.003-0.016-0.042-0.016s-0.061 0.006-0.038 0.016z"></path>
<path fill="#ff7900" d="M11.376 11.104c-0.026 0.042 0.080 0.042 0.144 0 0.038-0.026 0.029-0.032-0.038-0.032-0.048 0-0.096 0.013-0.106 0.032z"></path>
<path fill="#ff7900" d="M14.070 11.2c-0.067 0.013-0.16 0.016-0.208 0.010-0.051-0.010-0.070-0.003-0.051 0.013 0.019 0.013 0.032 0.051 0.029 0.080-0.010 0.048 0.016 0.054 0.179 0.048 0.102-0.006 0.205-0.026 0.224-0.045 0.038-0.038 0.019-0.141-0.026-0.134-0.013 0.003-0.080 0.016-0.147 0.029z"></path>
<path fill="#ff7900" d="M10.832 11.424c-0.026 0.042 0.016 0.042 0.080 0 0.042-0.026 0.042-0.032-0.006-0.032-0.029 0-0.064 0.013-0.074 0.032z"></path>
<path fill="#ff7900" d="M10.992 11.456c-0.010 0.016-0.003 0.032 0.013 0.032 0.019 0 0.035-0.016 0.035-0.032 0-0.019-0.006-0.032-0.013-0.032-0.010 0-0.026 0.013-0.035 0.032z"></path>
<path fill="#ff7900" d="M6.592 11.587c0 0.016 0.016 0.022 0.032 0.013 0.019-0.010 0.032-0.026 0.032-0.035 0-0.006-0.013-0.013-0.032-0.013-0.016 0-0.032 0.016-0.032 0.035z"></path>
<path fill="#ff7900" d="M14.074 11.638c0.022 0.010 0.051 0.006 0.061-0.003 0.013-0.010-0.006-0.019-0.042-0.016-0.035 0-0.045 0.010-0.019 0.019z"></path>
<path fill="#ff7900" d="M10.755 11.805c-0.022 0.016-0.029 0.035-0.013 0.045s0.048 0.006 0.070-0.006c0.022-0.016 0.029-0.035 0.013-0.045s-0.048-0.006-0.070 0.006z"></path>
<path fill="#ff7900" d="M23.68 11.949c0 0.006 0.022 0.022 0.051 0.032 0.026 0.010 0.038 0.006 0.029-0.013-0.019-0.032-0.080-0.045-0.080-0.019z"></path>
<path fill="#ff7900" d="M6.048 12c-0.042 0.026-0.038 0.032 0.010 0.032 0.029 0 0.054-0.016 0.054-0.032 0-0.038-0.003-0.038-0.064 0z"></path>
<path fill="#ff7900" d="M7.862 12.032c-0.010 0.035-0.003 0.064 0.013 0.064s0.029-0.006 0.029-0.013c0-0.006 0.010-0.035 0.019-0.064s0.006-0.051-0.013-0.051c-0.016 0-0.038 0.029-0.048 0.064z"></path>
<path fill="#ff7900" d="M24.39 12.019c0.032 0.032 0.064 0.051 0.070 0.042 0.010-0.010-0.016-0.035-0.054-0.058-0.067-0.042-0.067-0.038-0.016 0.016z"></path>
<path fill="#ff7900" d="M11.699 12.285l-0.122 0.122 0.115 0.022c0.064 0.013 0.128 0.013 0.144 0.003s0.038 0.003 0.045 0.022c0.029 0.070 0.080-0.032 0.061-0.122-0.010-0.061-0.029-0.074-0.074-0.061-0.067 0.022-0.080-0.016-0.022-0.074 0.022-0.022 0.026-0.038 0.006-0.038-0.016 0-0.086 0.054-0.154 0.125z"></path>
<path fill="#ff7900" d="M22.781 12.634c0.022 0.042 0.019 0.074-0.006 0.099-0.029 0.032-0.026 0.048 0.016 0.080 0.032 0.022 0.048 0.051 0.035 0.061-0.010 0.013 0 0.042 0.019 0.067 0.048 0.058 0.032 0.198-0.022 0.186-0.019-0.003-0.038 0.022-0.038 0.058 0 0.048-0.022 0.064-0.093 0.064-0.067 0-0.115 0.026-0.16 0.093l-0.064 0.090 0.141 0.154 0.010-0.077c0.006-0.042-0.006-0.086-0.026-0.099-0.026-0.016-0.022-0.029 0.016-0.042 0.029-0.013 0.042-0.010 0.032 0.006-0.026 0.045 0.029 0.067 0.080 0.032 0.042-0.026 0.042-0.032 0-0.061-0.035-0.022-0.035-0.032-0.006-0.032 0.022 0 0.048 0.022 0.058 0.048 0.026 0.064 0.077 0.061 0.077-0.003 0-0.026 0.013-0.042 0.029-0.032s0.064 0 0.106-0.022c0.070-0.035 0.074-0.048 0.042-0.189-0.016-0.080-0.064-0.182-0.102-0.224-0.086-0.090-0.096-0.138-0.022-0.109 0.051 0.019 0.099-0.016 0.166-0.134 0.038-0.070 0.038-0.074-0.032-0.026-0.067 0.045-0.086 0.045-0.166 0.003-0.115-0.061-0.125-0.061-0.086 0.010z"></path>
<path fill="#ff7900" d="M15.312 12.864c-0.022 0.138-0.010 0.179 0.042 0.147 0.026-0.016 0.019-0.24-0.010-0.269-0.006-0.006-0.019 0.048-0.032 0.122z"></path>
<path fill="#ff7900" d="M16.080 13.12c0.010 0.016 0.035 0.032 0.051 0.032 0.019 0 0.022-0.016 0.013-0.032-0.010-0.019-0.035-0.032-0.051-0.032-0.019 0-0.022 0.013-0.013 0.032z"></path>
<path fill="#ff7900" d="M16.73 13.302c0.022 0.010 0.051 0.006 0.061-0.003 0.013-0.010-0.006-0.019-0.042-0.016-0.035 0-0.045 0.010-0.019 0.019z"></path>
<path fill="#ff7900" d="M10.048 13.869c0 0.006 0.022 0.019 0.048 0.032 0.026 0.010 0.048 0.003 0.048-0.013 0-0.019-0.022-0.032-0.048-0.032s-0.048 0.006-0.048 0.013z"></path>
<path fill="#ff7900" d="M10.038 14c-0.013 0.026-0.006 0.054 0.006 0.064 0.016 0.006 0.035-0.013 0.045-0.048 0.019-0.074-0.026-0.086-0.051-0.016z"></path>
<path fill="#ff7900" d="M22.112 14.077c0 0.054 0.016 0.106 0.032 0.115 0.019 0.013 0.032-0.026 0.032-0.093 0-0.064-0.013-0.115-0.032-0.115-0.016 0-0.032 0.042-0.032 0.093z"></path>
<path fill="#ff7900" d="M9.76 14.141c0 0.016 0.064 0.061 0.144 0.099s0.138 0.080 0.128 0.096c-0.010 0.013 0.035 0.032 0.096 0.038 0.077 0.010 0.112 0 0.112-0.029 0-0.022-0.019-0.042-0.045-0.042s-0.067-0.019-0.093-0.045c-0.045-0.048-0.262-0.147-0.314-0.147-0.016 0-0.029 0.013-0.029 0.029z"></path>
<path fill="#ff7900" d="M9.632 14.163c0 0.010 0.019 0.038 0.045 0.064 0.042 0.038 0.048 0.038 0.042-0.019-0.003-0.054-0.086-0.099-0.086-0.045z"></path>
<path fill="#ff7900" d="M10.333 14.371c-0.026 0.016-0.029 0.029-0.013 0.029 0.019 0-0.003 0.022-0.048 0.048l-0.080 0.045 0.080-0.003c0.16 0 0.32-0.032 0.304-0.058-0.029-0.048-0.198-0.090-0.243-0.061z"></path>
<path fill="#ff7900" d="M22.227 14.384c0.013 0.026 0.026 0.048 0.032 0.048s0.013-0.022 0.013-0.048c0-0.026-0.013-0.048-0.032-0.048-0.016 0-0.022 0.022-0.013 0.048z"></path>
<path fill="#ff7900" d="M21.44 14.413c0 0.064 0.086 0.090 0.109 0.032 0.029-0.074 0.026-0.077-0.045-0.077-0.035 0-0.064 0.019-0.064 0.045z"></path>
<path fill="#ff7900" d="M9.984 14.496c0 0.016 0.022 0.032 0.048 0.032s0.048-0.016 0.048-0.032c0-0.019-0.022-0.032-0.048-0.032s-0.048 0.013-0.048 0.032z"></path>
<path fill="#ff7900" d="M10.682 14.486c0.022 0.010 0.051 0.006 0.061-0.003 0.013-0.010-0.006-0.019-0.042-0.016-0.035 0-0.045 0.010-0.019 0.019z"></path>
<path fill="#ff7900" d="M22.186 14.502c0.010 0.026 0.003 0.067-0.010 0.090-0.016 0.026-0.013 0.074 0.010 0.109 0.019 0.038 0.038 0.086 0.042 0.112 0.006 0.022 0.026 0.061 0.048 0.080 0.029 0.026 0.032 0.019 0.019-0.038-0.022-0.099 0.054-0.090 0.102 0.013 0.019 0.048 0.048 0.077 0.058 0.064 0.026-0.026 0.102 0.147 0.083 0.182-0.010 0.016-0.054 0.042-0.099 0.061-0.083 0.035-0.083 0.038-0.013 0.048 0.038 0.010 0.070 0.032 0.070 0.058 0 0.070 0.077 0.074 0.115 0.003 0.026-0.051 0.022-0.093-0.019-0.179-0.032-0.061-0.048-0.131-0.042-0.15 0.010-0.022-0.006-0.051-0.035-0.061s-0.051-0.048-0.051-0.083c0-0.032-0.010-0.054-0.022-0.048-0.016 0.010-0.054 0.003-0.090-0.010-0.048-0.016-0.064-0.051-0.064-0.147s-0.013-0.125-0.061-0.134c-0.042-0.010-0.054 0-0.042 0.032z"></path>
<path fill="#ff7900" d="M20.515 14.867c0 0.035 0.010 0.045 0.019 0.019 0.010-0.022 0.006-0.051-0.003-0.061-0.010-0.013-0.019 0.006-0.016 0.042z"></path>
<path fill="#ff7900" d="M10.65 14.934c0.022 0.010 0.051 0.006 0.061-0.003 0.013-0.010-0.006-0.019-0.042-0.016-0.035 0-0.045 0.010-0.019 0.019z"></path>
<path fill="#ff7900" d="M22.352 15.014c0.032 0.106 0.058 0.122 0.102 0.074 0.032-0.035 0.032-0.054-0.010-0.093-0.070-0.074-0.115-0.064-0.093 0.019z"></path>
<path fill="#ff7900" d="M22.118 15.075c-0.042 0.051-0.054 0.086-0.032 0.077 0.042-0.016 0.134-0.144 0.115-0.16-0.006-0.003-0.042 0.035-0.083 0.083z"></path>
<path fill="#ff7900" d="M19.731 15.142c0.003 0.042 0.010 0.106 0.010 0.144 0.003 0.093 0.086 0.096 0.109 0.006 0.019-0.067-0.054-0.221-0.102-0.221-0.013 0-0.022 0.032-0.016 0.070z"></path>
<path fill="#ff7900" d="M21.923 15.408c-0.080 0.080-0.163 0.144-0.186 0.144s-0.042 0.022-0.042 0.051c0 0.032-0.016 0.045-0.048 0.032-0.074-0.026-0.096 0.061-0.051 0.208 0.035 0.112 0.051 0.128 0.166 0.144 0.070 0.013 0.134 0.032 0.141 0.045 0.010 0.016 0.045 0.019 0.080 0.010s0.058-0.029 0.048-0.042c-0.010-0.016 0-0.067 0.022-0.118 0.019-0.048 0.038-0.102 0.038-0.115 0.003-0.013 0.022-0.035 0.045-0.051 0.035-0.019 0.035-0.042 0.003-0.112s-0.032-0.102 0-0.154c0.035-0.058 0.032-0.074-0.019-0.125-0.054-0.058-0.061-0.054-0.198 0.083z"></path>
<path fill="#ff7900" d="M20.704 15.382c0 0.006 0.074 0.106 0.16 0.221 0.090 0.115 0.182 0.256 0.205 0.31 0.096 0.224 0.307 0.317 0.307 0.134 0-0.045 0.016-0.080 0.035-0.080 0.026 0 0.022-0.016-0.003-0.048-0.029-0.035-0.048-0.042-0.064-0.016s-0.029 0.019-0.045-0.016c-0.010-0.029-0.010-0.070 0.003-0.086 0.010-0.019 0.006-0.026-0.013-0.016-0.019 0.013-0.048-0.013-0.067-0.054-0.019-0.045-0.067-0.086-0.106-0.099s-0.109-0.070-0.16-0.128c-0.077-0.086-0.253-0.173-0.253-0.122z"></path>
<path fill="#ff7900" d="M22.595 15.475c0 0.035 0.010 0.045 0.019 0.019 0.010-0.022 0.006-0.051-0.003-0.061-0.010-0.013-0.019 0.006-0.016 0.042z"></path>
<path fill="#ff7900" d="M22.742 15.635c-0.013 0.013-0.022 0.067-0.019 0.122 0 0.054 0.010 0.077 0.019 0.051s0.029-0.054 0.042-0.064c0.013-0.010 0.013-0.042 0.003-0.074-0.013-0.032-0.032-0.048-0.045-0.035z"></path>
<path fill="#ff7900" d="M25.571 15.667c0 0.035 0.010 0.045 0.019 0.019 0.010-0.022 0.006-0.051-0.003-0.061-0.010-0.013-0.019 0.006-0.016 0.042z"></path>
<path fill="#ff7900" d="M20.832 15.68c0 0.016 0.016 0.032 0.035 0.032 0.016 0 0.022-0.016 0.013-0.032-0.010-0.019-0.026-0.032-0.035-0.032-0.006 0-0.013 0.013-0.013 0.032z"></path>
<path fill="#ff7900" d="M22.515 15.67c-0.013 0.016-0.077 0.026-0.138 0.026-0.106 0-0.115 0.010-0.154 0.131-0.042 0.138-0.029 0.333 0.019 0.333 0.016 0 0.029-0.045 0.029-0.096 0-0.054 0.016-0.096 0.035-0.096 0.016 0 0.026 0.013 0.016 0.029s0.010 0.064 0.045 0.102c0.051 0.061 0.061 0.067 0.064 0.022 0-0.029-0.013-0.090-0.032-0.138-0.026-0.064-0.022-0.086 0.016-0.099 0.090-0.035 0.051-0.086-0.048-0.067-0.070 0.016-0.096 0.010-0.096-0.026 0-0.048 0.048-0.061 0.179-0.051 0.035 0.003 0.086-0.016 0.109-0.042 0.038-0.051 0-0.074-0.045-0.029z"></path>
<path fill="#ff7900" d="M22.979 15.821c-0.029 0.035-0.026 0.048 0.016 0.064 0.083 0.032 0.141 0.022 0.141-0.026 0-0.026-0.022-0.054-0.051-0.064-0.067-0.026-0.064-0.026-0.106 0.026z"></path>
<path fill="#ff7900" d="M23.712 15.853c0 0.006 0.022 0.019 0.048 0.032 0.026 0.010 0.048 0.003 0.048-0.013 0-0.019-0.022-0.032-0.048-0.032s-0.048 0.006-0.048 0.013z"></path>
<path fill="#ff7900" d="M25.686 15.875c0.022 0.022 0.048 0.032 0.058 0.022s-0.006-0.029-0.038-0.038c-0.045-0.019-0.048-0.016-0.019 0.016z"></path>
<path fill="#ff7900" d="M23.258 15.901c0.032 0.019 0.032 0.032-0.006 0.064-0.032 0.026-0.051 0.029-0.067 0.003-0.010-0.016-0.054-0.032-0.096-0.032-0.125 0-0.064 0.077 0.112 0.141 0.166 0.061 0.227 0.147 0.16 0.227-0.032 0.042-0.026 0.048 0.042 0.048 0.045 0 0.093 0.013 0.102 0.032 0.032 0.048 0.176 0.038 0.195-0.016 0.029-0.074 0.115-0.058 0.189 0.032 0.064 0.080 0.234 0.125 0.237 0.064 0.003-0.019-0.013-0.032-0.032-0.032-0.054 0-0.17-0.163-0.144-0.205 0.013-0.019 0.070-0.035 0.128-0.035 0.106 0 0.179-0.048 0.179-0.118 0-0.026-0.022-0.019-0.064 0.022-0.080 0.080-0.336 0.090-0.365 0.016-0.022-0.064-0.336-0.205-0.493-0.224-0.067-0.010-0.099-0.003-0.077 0.013z"></path>
<path fill="#ff7900" d="M23.898 15.926c0.019 0.006 0.058 0.006 0.080 0 0.019-0.010 0.003-0.016-0.042-0.016s-0.061 0.006-0.038 0.016z"></path>
<path fill="#ff7900" d="M24.15 15.971c0.022 0.022 0.048 0.032 0.058 0.022s-0.006-0.029-0.038-0.038c-0.045-0.019-0.048-0.016-0.019 0.016z"></path>
<path fill="#ff7900" d="M22.624 16c0 0.016 0.016 0.032 0.032 0.032 0.019 0 0.032-0.016 0.032-0.032 0-0.019-0.013-0.032-0.032-0.032-0.016 0-0.032 0.013-0.032 0.032z"></path>
<path fill="#ff7900" d="M22.8 16c0.086 0.038 0.112 0.038 0.112 0 0-0.019-0.038-0.032-0.086-0.029-0.080 0-0.083 0.003-0.026 0.029z"></path>
<path fill="#ff7900" d="M24.384 16.144c0 0.048 0.058 0.128 0.077 0.109 0.010-0.010-0.003-0.045-0.029-0.080-0.026-0.032-0.045-0.048-0.048-0.029z"></path>
<path fill="#ff7900" d="M23.104 16.192c0 0.016 0.016 0.032 0.032 0.032 0.019 0 0.032-0.016 0.032-0.032 0-0.019-0.013-0.032-0.032-0.032-0.016 0-0.032 0.013-0.032 0.032z"></path>
<path fill="#ff7900" d="M21.312 16.221c0 0.042 0.154 0.093 0.336 0.115 0.090 0.013 0.195 0.026 0.24 0.032l0.080 0.013-0.070-0.058c-0.038-0.032-0.064-0.067-0.054-0.077s-0.048-0.016-0.128-0.013c-0.080 0-0.157-0.006-0.166-0.019-0.035-0.032-0.237-0.029-0.237 0.006z"></path>
<path fill="#ff7900" d="M24.512 16.317c0 0.016 0.016 0.042 0.032 0.051 0.019 0.010 0.032 0.006 0.032-0.013 0-0.016-0.013-0.042-0.032-0.051-0.016-0.010-0.032-0.006-0.032 0.013z"></path>
<path fill="#ff7900" d="M24.64 16.32c0 0.016 0.016 0.032 0.035 0.032 0.016 0 0.022-0.016 0.013-0.032-0.010-0.019-0.026-0.032-0.035-0.032-0.006 0-0.013 0.013-0.013 0.032z"></path>
<path fill="#ff7900" d="M22.074 16.374c0.019 0.006 0.058 0.006 0.080 0 0.019-0.010 0.003-0.016-0.042-0.016s-0.061 0.006-0.038 0.016z"></path>
<path fill="#ff7900" d="M22.253 16.381c0.016 0.026 0.179 0.010 0.179-0.016 0-0.006-0.045-0.013-0.099-0.013-0.051 0-0.090 0.013-0.080 0.029z"></path>
<path fill="#ff7900" d="M22.506 16.397c-0.042 0.019-0.074 0.051-0.074 0.074 0 0.032 0.16-0.035 0.253-0.109 0.035-0.026-0.118 0.003-0.179 0.035z"></path>
<path fill="#ff7900" d="M24.726 16.394c-0.010 0.026 0.003 0.045 0.029 0.045 0.051 0 0.061-0.042 0.016-0.067-0.016-0.010-0.035 0-0.045 0.022z"></path>
<path fill="#ff7900" d="M22.144 16.429c0 0.006 0.022 0.019 0.048 0.032 0.026 0.010 0.048 0.003 0.048-0.013 0-0.019-0.022-0.032-0.048-0.032s-0.048 0.006-0.048 0.013z"></path>
<path fill="#ff7900" d="M23.555 16.646c-0.054 0.227-0.099 0.346-0.134 0.346-0.016 0-0.086-0.038-0.157-0.083-0.106-0.070-0.122-0.093-0.096-0.144 0.019-0.032 0.048-0.067 0.064-0.077 0.061-0.038 0.032-0.074-0.070-0.086-0.058-0.010-0.131-0.026-0.163-0.042-0.045-0.019-0.051-0.013-0.032 0.035 0.013 0.035 0.010 0.048-0.016 0.032-0.038-0.022-0.147 0.067-0.173 0.144-0.013 0.038-0.029 0.038-0.099 0-0.074-0.038-0.093-0.038-0.163 0.006-0.042 0.029-0.086 0.083-0.099 0.118s-0.032 0.058-0.048 0.048c-0.016-0.010-0.058 0.035-0.096 0.096s-0.090 0.112-0.112 0.112c-0.022 0-0.128 0.038-0.23 0.083-0.182 0.080-0.291 0.205-0.243 0.278 0.010 0.016 0.003 0.038-0.016 0.051-0.022 0.013-0.026 0.061-0.010 0.138 0.035 0.144 0.013 0.384-0.035 0.413s-0.010 0.125 0.051 0.125c0.026 0 0.086-0.016 0.138-0.035 0.048-0.022 0.138-0.042 0.195-0.045 0.058-0.006 0.122-0.022 0.144-0.042 0.019-0.016 0.125-0.054 0.23-0.086 0.23-0.064 0.355-0.032 0.387 0.096 0.010 0.045 0.035 0.080 0.051 0.080 0.019 0 0.026 0.022 0.013 0.048-0.010 0.026-0.003 0.048 0.010 0.048 0.016 0 0.035-0.022 0.048-0.048 0.010-0.026 0.003-0.048-0.013-0.048-0.054 0-0.035-0.048 0.042-0.093 0.064-0.042 0.067-0.042 0.029 0.006-0.032 0.035-0.035 0.067-0.010 0.112 0.016 0.032 0.022 0.090 0.013 0.128-0.022 0.096 0.125 0.166 0.221 0.106 0.035-0.022 0.054-0.026 0.045-0.010-0.032 0.051 0.061 0.067 0.125 0.019 0.032-0.026 0.083-0.045 0.112-0.045s0.122-0.086 0.211-0.192c0.086-0.106 0.166-0.192 0.179-0.192 0.035 0 0.166-0.237 0.202-0.368 0.029-0.115 0.026-0.141-0.054-0.259-0.051-0.074-0.090-0.15-0.090-0.173 0-0.019-0.029-0.061-0.064-0.090-0.038-0.035-0.070-0.109-0.083-0.198-0.010-0.080-0.038-0.16-0.064-0.179s-0.045-0.070-0.048-0.112c0-0.042-0.013-0.102-0.026-0.134-0.016-0.045-0.032-0.016-0.064 0.112z"></path>
<path fill="#ff7900" d="M24.186 16.534c0.019 0.006 0.058 0.006 0.080 0 0.019-0.010 0.003-0.016-0.042-0.016s-0.061 0.006-0.038 0.016z"></path>
<path fill="#ff7900" d="M22.864 16.576c-0.010 0.016-0.003 0.032 0.013 0.032 0.019 0 0.035-0.016 0.035-0.032 0-0.019-0.006-0.032-0.013-0.032-0.010 0-0.026 0.013-0.035 0.032z"></path>
<path fill="#ff7900" d="M17.773 16.682c-0.016 0.022-0.042 0.064-0.054 0.096s-0.064 0.074-0.115 0.090c-0.106 0.038-0.147 0.118-0.115 0.221 0.013 0.038 0 0.099-0.029 0.144-0.070 0.109-0.029 0.317 0.067 0.33 0.045 0.006 0.086-0.016 0.115-0.064 0.077-0.118 0.246-0.659 0.234-0.739-0.010-0.038-0.016-0.080-0.016-0.096-0.003-0.035-0.048-0.026-0.086 0.019z"></path>
<path fill="#ff7900" d="M25.075 16.874c0.010 0.032 0.029 0.048 0.038 0.038s0-0.035-0.022-0.058c-0.032-0.029-0.035-0.026-0.016 0.019z"></path>
<path fill="#ff7900" d="M25.776 16.925c-0.010 0.019 0.013 0.029 0.048 0.026s0.064-0.016 0.064-0.029c0-0.035-0.090-0.032-0.112 0.003z"></path>
<path fill="#ff7900" d="M25.68 17.024c0.010 0.016 0.032 0.032 0.051 0.032 0.016 0 0.029-0.016 0.029-0.032 0-0.019-0.022-0.032-0.051-0.032-0.026 0-0.038 0.013-0.029 0.032z"></path>
<path fill="#ff7900" d="M24.768 17.066c0 0.045 0.102 0.23 0.141 0.253 0.080 0.054 0.080 0.019 0-0.096-0.118-0.16-0.141-0.182-0.141-0.157z"></path>
<path fill="#ff7900" d="M24.989 18.246c-0.003 0.022-0.006 0.077-0.010 0.122s-0.032 0.093-0.070 0.112c-0.035 0.016-0.061 0.051-0.051 0.074 0.006 0.022-0.006 0.061-0.026 0.086-0.061 0.074 0.016 0.058 0.118-0.026 0.048-0.038 0.118-0.086 0.15-0.106 0.077-0.042 0.109-0.115 0.042-0.090-0.054 0.019-0.118-0.074-0.096-0.138 0.006-0.019-0.003-0.045-0.019-0.058-0.019-0.010-0.038 0-0.038 0.022z"></path>
<path fill="#ff7900" d="M23.277 18.627c-0.010 0.019-0.051 0.029-0.090 0.022-0.051-0.010-0.080 0.006-0.106 0.058-0.083 0.182 0.106 0.163 0.198-0.019 0.048-0.090 0.045-0.138-0.003-0.061z"></path>
<path fill="#ff7900" d="M24.669 18.64c-0.026 0.026-0.16 0.109-0.298 0.182-0.272 0.147-0.336 0.218-0.198 0.218 0.070 0 0.534-0.278 0.576-0.346 0.010-0.013 0.003-0.042-0.010-0.064-0.016-0.029-0.035-0.026-0.070 0.010z"></path>
</svg>
