<!-- Generated by IcoMoon.io -->
<svg version="1.1" xmlns="http://www.w3.org/2000/svg" width="32" height="32" viewBox="0 0 32 32">
<title>internet_usage</title>
<path fill="#ff7900" d="M15.197 2.413c-0.006 0.006-0.141 0.022-0.301 0.032-1.69 0.131-3.408 0.608-4.95 1.379-0.637 0.32-0.806 0.416-1.562 0.909-0.963 0.624-2.166 1.728-2.966 2.723-1.466 1.824-2.426 3.942-2.822 6.25-0.035 0.195-0.074 0.445-0.083 0.55-0.013 0.106-0.029 0.227-0.035 0.272-0.093 0.576-0.080 2.365 0.019 3.13 0.051 0.368 0.051 0.374 0.128 0.79 0.448 2.477 1.578 4.768 3.28 6.656 1.59 1.763 3.562 3.053 5.824 3.808 0.656 0.221 1.67 0.461 2.272 0.541 0.070 0.010 0.23 0.032 0.352 0.048 0.611 0.083 2.118 0.115 2.736 0.058 1.494-0.138 2.755-0.438 4.048-0.963 0.621-0.253 1.52-0.707 1.968-0.995 0.48-0.307 0.637-0.413 0.96-0.65 0.202-0.15 0.419-0.317 0.483-0.371s0.186-0.157 0.272-0.227c0.086-0.070 0.25-0.214 0.362-0.32 1.952-1.808 3.302-4.038 3.971-6.57 0.080-0.301 0.24-1.053 0.272-1.264 0.010-0.086 0.026-0.186 0.032-0.221 0.010-0.035 0.022-0.147 0.032-0.246 0.013-0.099 0.026-0.214 0.035-0.259 0.061-0.362 0.083-1.939 0.035-2.528-0.032-0.432-0.138-1.219-0.211-1.568-0.365-1.792-1.030-3.408-2.016-4.896-0.099-0.15-0.189-0.288-0.205-0.304-0.013-0.019-0.138-0.182-0.275-0.368-1.734-2.307-4.195-4.016-6.979-4.848-0.582-0.173-1.405-0.355-1.907-0.416-0.086-0.013-0.179-0.026-0.205-0.032s-0.163-0.022-0.304-0.035c-0.141-0.010-0.291-0.026-0.336-0.035-0.099-0.016-1.907-0.045-1.923-0.029zM19.792 4.278c1.011 0.323 2.128 0.861 3.024 1.459 0.205 0.138 0.666 0.467 0.746 0.534 0.016 0.013-0.045 0.074-0.134 0.138-0.186 0.134-0.256 0.227-0.278 0.381-0.022 0.131 0.086 0.282 0.278 0.378 0.163 0.083 0.272 0.080 0.442-0.016 0.147-0.086 0.31-0.102 0.387-0.038 0.154 0.118 0.202 0.307 0.106 0.413-0.051 0.058-0.198 0.080-0.205 0.032-0.003-0.013-0.010-0.064-0.016-0.118-0.019-0.182-0.198-0.214-0.358-0.067-0.077 0.070-0.080 0.118-0.013 0.33 0.029 0.086 0.022 0.118-0.022 0.176-0.048 0.058-0.093 0.070-0.285 0.074-0.246 0.006-0.285 0.026-0.71 0.33-0.355 0.253-0.451 0.294-0.778 0.33-0.605 0.064-0.643 0.17-0.16 0.445 0.176 0.099 0.282 0.25 0.25 0.349-0.010 0.032-0.051 0.090-0.096 0.131-0.099 0.093-0.285 0.099-0.662 0.019-0.234-0.051-0.294-0.054-0.374-0.019-0.118 0.048-0.122 0.061-0.022 0.208 0.157 0.23 0.24 0.675 0.166 0.902-0.022 0.070-0.019 0.074 0.163 0.054 0.102-0.010 0.266-0.003 0.362 0.013 0.224 0.042 0.31-0.003 0.339-0.179 0.026-0.163 0.234-0.384 0.41-0.435 0.125-0.035 0.138-0.048 0.243-0.275 0.022-0.048 0.064-0.051 0.387-0.032 0.061 0.003 0.24-0.032 0.394-0.077 0.154-0.048 0.307-0.077 0.339-0.067s0.086 0.067 0.122 0.125c0.061 0.099 0.365 0.307 0.454 0.307 0.064 0 0.544 0.294 0.573 0.349 0.045 0.086-0.016 0.195-0.115 0.202-0.048 0-0.163 0.006-0.253 0.010-0.090 0.006-0.189 0.022-0.221 0.038-0.048 0.029-0.045 0.035 0.022 0.080 0.15 0.096 0.269 0.118 0.365 0.070 0.051-0.029 0.099-0.058 0.109-0.070s0.070-0.064 0.138-0.112c0.099-0.077 0.118-0.109 0.118-0.211 0-0.064 0.016-0.134 0.035-0.154 0.022-0.022 0.029-0.061 0.019-0.086-0.029-0.070-0.259-0.179-0.378-0.179-0.074 0-0.122-0.026-0.182-0.102-0.048-0.058-0.141-0.154-0.205-0.218-0.224-0.211-0.115-0.317 0.179-0.179 0.096 0.045 0.214 0.115 0.266 0.157 0.048 0.042 0.214 0.138 0.371 0.214 0.221 0.112 0.285 0.157 0.298 0.221 0.048 0.218 0.083 0.278 0.218 0.368 0.099 0.067 0.15 0.131 0.176 0.214 0.064 0.214 0.157 0.224 0.381 0.032 0.090-0.080 0.090-0.109-0.010-0.163-0.099-0.051-0.134-0.173-0.077-0.243 0.051-0.061 0.138-0.096 0.298-0.122 0.154-0.026 0.266 0.077 0.294 0.269 0.026 0.16 0.154 0.301 0.384 0.422 0.157 0.080 0.166 0.096 0.291 0.4 0.198 0.477 0.198 0.438-0.019 0.486-0.106 0.022-0.246 0.035-0.314 0.026-0.304-0.038-0.557-0.096-0.81-0.186-0.205-0.074-0.31-0.096-0.426-0.083-0.17 0.016-0.227 0.064-0.278 0.253-0.042 0.144-0.093 0.157-0.317 0.083-0.096-0.032-0.208-0.058-0.25-0.058-0.038 0-0.131-0.051-0.198-0.112-0.141-0.128-0.221-0.157-0.506-0.192-0.106-0.013-0.24-0.051-0.298-0.083-0.090-0.054-0.099-0.077-0.080-0.15 0.038-0.144 0.026-0.33-0.029-0.416-0.016-0.029-1.28-0.022-1.325 0.006-0.016 0.010-0.077 0.026-0.138 0.035-0.317 0.051-0.368-0.032 0.55 0.89 0.458 0.458 0.899 0.925 0.976 1.034 0.605 0.845 0.682 2.003 0.202 2.941-0.054 0.106-0.122 0.218-0.15 0.25-0.042 0.048-0.042 0.074-0.006 0.179 0.029 0.090 0.032 0.173 0.010 0.298-0.016 0.096-0.026 0.243-0.022 0.326 0.016 0.278 0.064 0.371 0.454 0.928 0.198 0.285 0.275 0.49 0.275 0.739 0 0.205-0.013 0.25-0.166 0.557-0.234 0.467-0.221 0.602 0.102 1.136 0.086 0.141 0.198 0.394 0.259 0.582 0.061 0.182 0.16 0.41 0.224 0.509 0.064 0.096 0.176 0.307 0.246 0.47 0.31 0.704 0.518 0.851 0.832 0.586 0.106-0.090 0.122-0.093 0.288-0.048l0.118 0.035-0.24 0.374c-0.931 1.437-2.182 2.691-3.616 3.632-1.472 0.963-3.133 1.6-4.861 1.859-0.752 0.115-1.078 0.138-1.872 0.138-0.886 0.003-1.469-0.051-2.272-0.202-3.261-0.614-6.138-2.522-7.99-5.293-1.021-1.533-1.686-3.293-1.942-5.136-0.083-0.605-0.086-0.653-0.099-1.536-0.013-0.877 0.016-1.328 0.128-2.048 0.064-0.406 0.074-0.445 0.122-0.406 0.022 0.019 0.115 0.054 0.208 0.080 0.093 0.029 0.208 0.074 0.256 0.099 0.106 0.058 0.534 0.224 0.653 0.256 0.048 0.010 0.17-0.003 0.269-0.029 0.102-0.026 0.195-0.048 0.205-0.048 0.013 0 0.086 0.061 0.163 0.131 0.166 0.157 0.317 0.227 0.64 0.301 0.467 0.102 0.467 0.102 0.576 0.266 0.128 0.189 0.352 0.403 0.496 0.47 0.086 0.042 0.557 0.144 0.659 0.144 0.013 0 0.093-0.070 0.179-0.157l0.16-0.16-0.166-0.051c-0.23-0.074-0.397-0.176-0.726-0.451-0.339-0.285-0.598-0.47-0.73-0.525l-0.096-0.038 0.006-0.326c0.003-0.352-0.010-0.394-0.125-0.438-0.109-0.038-0.24 0.019-0.477 0.218-0.106 0.086-0.24 0.176-0.301 0.195-0.483 0.166-0.87-0.253-0.829-0.899 0.013-0.182 0.035-0.275 0.099-0.381 0.234-0.4 0.755-0.643 1.382-0.64 0.554 0 0.944 0.163 1.229 0.506 0.128 0.157 0.189 0.205 0.24 0.198 0.064-0.010 0.067-0.026 0.070-0.394 0-0.211 0.013-0.429 0.026-0.483 0.022-0.102 0.134-0.221 0.355-0.381 0.163-0.118 0.179-0.141 0.326-0.432l0.122-0.24-0.058-0.176c-0.189-0.563 0.083-1.171 0.65-1.437 0.163-0.077 0.214-0.083 0.768-0.099l0.592-0.016-0.166-0.074c-0.090-0.038-0.192-0.074-0.224-0.074-0.032-0.003-0.006-0.016 0.054-0.026 0.061-0.013 0.214-0.003 0.336 0.019 0.323 0.061 0.458 0.054 0.451-0.013-0.006-0.099 0.646-0.278 0.797-0.221 0.048 0.016 0.045 0.029-0.013 0.112-0.038 0.051-0.077 0.138-0.086 0.192l-0.019 0.099h0.451c0.246 0 0.451-0.006 0.451-0.013s-0.070-0.058-0.157-0.112c-0.195-0.125-0.246-0.202-0.272-0.403-0.042-0.317-0.093-0.374-0.435-0.509-0.16-0.064-0.256-0.128-0.371-0.25-0.477-0.502-0.608-0.57-0.941-0.474-0.179 0.051-0.426 0.045-0.547-0.016-0.061-0.032-0.173-0.109-0.253-0.176-0.307-0.253-0.643-0.387-0.982-0.39-0.253-0.003-0.49 0.054-0.49 0.115 0 0.026 0.045 0.214 0.099 0.422 0.15 0.586 0.15 0.592-0.058 0.637-0.131 0.026-0.246 0.163-0.218 0.256 0.054 0.17 0.054 0.211 0 0.272-0.106 0.118-0.182 0.080-0.458-0.221-0.224-0.243-0.282-0.288-0.413-0.323-0.083-0.019-0.176-0.045-0.202-0.054-0.054-0.016 0.378-0.448 0.88-0.877 0.499-0.426 0.56-0.464 0.736-0.49 0.336-0.051 0.432-0.035 0.912 0.157 0.253 0.102 0.432 0.154 0.576 0.163 0.115 0.010 0.227 0.022 0.25 0.029 0.093 0.032 0.029-0.038-0.074-0.077-0.16-0.058-0.144-0.112 0.026-0.083 0.211 0.038 0.342 0.045 0.362 0.013 0.035-0.058 0.214-0.131 0.362-0.147 0.166-0.019 0.426-0.186 0.496-0.326 0.026-0.045 0.042-0.166 0.042-0.269-0.003-0.166-0.013-0.195-0.083-0.24-0.115-0.074-0.144-0.131-0.134-0.266 0.006-0.112 0-0.118-0.16-0.186-0.090-0.042-0.214-0.080-0.272-0.090-0.198-0.032-0.173-0.048 0.461-0.301l0.394-0.16 0.144 0.064c0.25 0.112 0.39 0.243 0.419 0.397 0.032 0.157 0.099 0.182 0.31 0.118 0.109-0.032 0.128-0.029 0.154 0.013 0.019 0.032 0.074 0.051 0.147 0.051 0.131 0.003 0.262 0.077 0.211 0.125-0.016 0.019-0.093 0.035-0.173 0.042l-0.144 0.010 0.134 0.042c0.074 0.022 0.144 0.054 0.154 0.070s-0.045 0.061-0.122 0.096c-0.4 0.189-0.374 0.458 0.080 0.883 0.39 0.365 0.742 0.554 1.085 0.579 0.32 0.026 0.4-0.026 0.653-0.41 0.128-0.195 0.256-0.346 0.33-0.394 0.147-0.099 0.666-0.269 1.174-0.387 0.211-0.048 0.528-0.131 0.704-0.182 0.176-0.054 0.461-0.128 0.637-0.166 0.198-0.045 0.298-0.080 0.262-0.093-0.032-0.013-0.083-0.022-0.115-0.022s-0.099-0.016-0.15-0.038c-0.080-0.035-0.061-0.042 0.205-0.058 0.314-0.019 0.362-0.035 0.298-0.109-0.029-0.038-0.029-0.080 0.003-0.208 0.038-0.154 0.042-0.157 0.221-0.205 0.099-0.029 0.205-0.080 0.234-0.112 0.054-0.061 0.054-0.067 0-0.182-0.035-0.074-0.045-0.128-0.026-0.134s0.090-0.038 0.16-0.070c0.144-0.064 0.189-0.054 0.928 0.179z"></path>
<path fill="#ff7900" d="M21.162 7.203c-0.214 0.064-0.278 0.282-0.118 0.41 0.042 0.032 0.077 0.077 0.077 0.096 0 0.029 0.131 0.118 0.154 0.106 0.045-0.032 0.166 0.067 0.166 0.138 0 0.026-0.038 0.048-0.086 0.054-0.064 0.006-0.093 0.029-0.099 0.080-0.006 0.038-0.032 0.086-0.058 0.106-0.064 0.054-0.054 0.096 0.019 0.096 0.090 0 0.080 0.035-0.032 0.144-0.070 0.067-0.096 0.118-0.090 0.176 0.013 0.102 0.083 0.093 0.282-0.032 0.163-0.102 0.355-0.144 0.592-0.131 0.192 0.010 0.304-0.070 0.304-0.221 0-0.077-0.016-0.099-0.086-0.115-0.074-0.019-0.618-0.525-0.618-0.573 0-0.010 0.022-0.061 0.048-0.109 0.054-0.112 0.038-0.131-0.115-0.131-0.090 0-0.122-0.016-0.134-0.064-0.019-0.070-0.048-0.074-0.205-0.029z"></path>
<path fill="#ff7900" d="M11.936 9.786l-1.040 0.006 2.483 2.483-2.157 2.157c-1.184 1.187-2.214 2.24-2.285 2.336-0.384 0.515-0.544 1.126-0.426 1.648 0.077 0.346 0.198 0.502 1.024 1.334l0.787 0.79 5.098-5.098c5.040-5.040 5.094-5.098 5.021-5.146-0.32-0.208-0.848-0.39-1.245-0.426-0.131-0.013-0.272-0.029-0.317-0.035-0.045-0.010-0.986-0.022-2.096-0.032-3.002-0.026-3.706-0.029-4.848-0.019z"></path>
<path fill="#ff7900" d="M16.538 16.586c-5.053 5.059-5.078 5.088-5.008 5.142 0.288 0.224 0.922 0.419 1.51 0.464 0.422 0.029 8.035 0.058 8.006 0.029-0.013-0.016-0.573-0.579-1.245-1.251l-1.219-1.222 2.182-2.186c2.291-2.291 2.422-2.435 2.589-2.874 0.221-0.579 0.189-1.098-0.099-1.536-0.090-0.138-1.587-1.67-1.622-1.661-0.010 0.003-2.301 2.294-5.094 5.094z"></path>
<path fill="#ff7900" d="M9.629 21.638c-0.010 0.531-0.035 0.653-0.272 1.216-0.186 0.435-0.208 0.573-0.109 0.698 0.035 0.045 0.064 0.109 0.064 0.144s-0.080 0.186-0.179 0.336c-0.163 0.253-0.176 0.282-0.157 0.406 0.013 0.099 0.006 0.157-0.029 0.208-0.128 0.179 0 0.499 0.33 0.822 0.406 0.4 0.906 0.576 1.104 0.39 0.109-0.102 0.154-0.227 0.141-0.39-0.010-0.131-0.016-0.141-0.106-0.15-0.214-0.019-0.24-0.035-0.24-0.144 0-0.054 0.058-0.224 0.128-0.374 0.128-0.275 0.154-0.397 0.096-0.432-0.051-0.032-0.038-0.218 0.019-0.304 0.115-0.173 0.326-0.362 0.541-0.486 0.125-0.074 0.285-0.182 0.362-0.243l0.134-0.112-0.15-0.080c-0.394-0.208-0.829-0.64-0.938-0.925-0.083-0.221-0.109-0.47-0.070-0.64l0.032-0.138-0.086 0.022c-0.109 0.029-0.413 0.026-0.522 0l-0.090-0.022-0.003 0.198z"></path>
</svg>
