<!-- Generated by IcoMoon.io -->
<svg version="1.1" xmlns="http://www.w3.org/2000/svg" width="32" height="32" viewBox="0 0 32 32">
<title>Internet_security_password</title>
<path fill="#ff7900" d="M3.517 10.451c-0.902 0.192-1.6 0.858-1.84 1.757-0.058 0.214-0.061 0.406-0.061 4.192 0 3.789 0.003 3.978 0.061 4.192 0.25 0.928 0.97 1.594 1.923 1.776 0.099 0.019 4.774 0.026 12.496 0.022l12.336-0.006 0.208-0.067c0.627-0.208 1.046-0.518 1.363-1.008 0.186-0.288 0.262-0.467 0.336-0.803 0.058-0.269 0.061-0.451 0.061-4.112-0.003-3.984-0.003-4.035-0.131-4.378-0.288-0.768-0.854-1.299-1.651-1.542-0.176-0.054-0.768-0.058-12.538-0.064-10.589-0.003-12.381 0.003-12.563 0.042zM7.213 14.547c0.045 0.042 0.051 0.154 0.051 0.723 0 0.525 0.010 0.669 0.042 0.656 0.019-0.006 0.285-0.112 0.582-0.23 0.429-0.17 0.56-0.208 0.621-0.189 0.064 0.026 0.099 0.090 0.192 0.374 0.122 0.371 0.118 0.416-0.032 0.493-0.042 0.022-0.272 0.106-0.509 0.186-0.237 0.083-0.474 0.166-0.522 0.186l-0.090 0.038 0.083 0.112c0.381 0.506 0.656 0.915 0.656 0.979 0 0.045-0.042 0.112-0.096 0.163-0.198 0.176-0.467 0.362-0.522 0.362-0.080 0-0.163-0.099-0.531-0.646l-0.317-0.47-0.342 0.525c-0.186 0.288-0.362 0.541-0.387 0.563-0.074 0.061-0.182 0.010-0.448-0.205-0.218-0.176-0.253-0.214-0.25-0.298 0.003-0.067 0.112-0.243 0.362-0.589 0.195-0.269 0.346-0.502 0.333-0.512-0.016-0.013-0.198-0.080-0.41-0.154-0.691-0.234-0.749-0.259-0.771-0.346-0.019-0.074 0.099-0.506 0.186-0.678 0.064-0.125 0.154-0.115 0.541 0.042 0.202 0.080 0.394 0.16 0.429 0.176 0.035 0.019 0.122 0.051 0.195 0.077l0.128 0.045-0.003-0.614c-0.003-0.598 0.013-0.746 0.090-0.794 0.022-0.013 0.186-0.026 0.365-0.026 0.253 0 0.336 0.010 0.374 0.051zM13.491 14.522c0.080 0.051 0.096 0.179 0.093 0.778-0.003 0.557 0.003 0.627 0.045 0.614 0.029-0.010 0.288-0.112 0.579-0.224 0.666-0.266 0.646-0.269 0.794 0.173 0.115 0.339 0.118 0.464 0.016 0.506-0.032 0.013-0.301 0.109-0.598 0.211-0.298 0.106-0.547 0.192-0.55 0.198-0.003 0.003 0.157 0.237 0.358 0.515 0.214 0.298 0.365 0.541 0.365 0.582 0 0.080-0.102 0.189-0.384 0.397-0.173 0.128-0.237 0.15-0.314 0.099-0.026-0.016-0.198-0.256-0.39-0.534-0.189-0.278-0.355-0.509-0.371-0.515s-0.157 0.195-0.317 0.445c-0.346 0.541-0.416 0.634-0.502 0.634-0.080 0-0.592-0.394-0.618-0.48-0.026-0.083 0-0.128 0.39-0.666 0.182-0.253 0.323-0.47 0.314-0.486-0.006-0.013-0.048-0.032-0.086-0.042-0.189-0.042-1.005-0.349-1.056-0.397-0.077-0.070-0.074-0.106 0.042-0.451 0.099-0.298 0.157-0.39 0.237-0.39 0.032 0 0.678 0.25 1.13 0.438 0.032 0.013 0.038-0.125 0.038-0.646-0.003-0.826-0.026-0.784 0.429-0.784 0.179 0 0.339 0.013 0.358 0.026zM19.917 14.547c0.061 0.061 0.058 0.013 0.064 0.765 0.003 0.653 0 0.637 0.163 0.56 0.035-0.016 0.272-0.112 0.528-0.208 0.595-0.234 0.582-0.237 0.73 0.198 0.115 0.339 0.118 0.464 0.016 0.506-0.032 0.013-0.301 0.106-0.598 0.211-0.298 0.102-0.544 0.192-0.55 0.195-0.003 0.006 0.157 0.237 0.358 0.518 0.218 0.301 0.365 0.538 0.365 0.582 0 0.080-0.102 0.189-0.384 0.397-0.182 0.134-0.246 0.154-0.326 0.086-0.029-0.019-0.205-0.266-0.39-0.544-0.189-0.275-0.352-0.502-0.365-0.502s-0.138 0.182-0.278 0.403c-0.342 0.541-0.438 0.666-0.518 0.678-0.042 0.006-0.16-0.061-0.32-0.182-0.31-0.234-0.342-0.269-0.32-0.362 0.013-0.042 0.179-0.294 0.374-0.563 0.192-0.272 0.346-0.502 0.336-0.518-0.006-0.013-0.048-0.032-0.086-0.042-0.189-0.042-1.005-0.349-1.056-0.397-0.077-0.070-0.074-0.106 0.042-0.451 0.099-0.298 0.157-0.39 0.237-0.39 0.045 0 0.464 0.16 0.909 0.349 0.131 0.054 0.24 0.099 0.246 0.099s0.013-0.298 0.013-0.662c0-0.822-0.026-0.778 0.435-0.778 0.256 0 0.339 0.010 0.378 0.051zM27.2 18v0.4h-3.2v-0.8h3.2v0.4z"></path>
</svg>
