<!-- Generated by IcoMoon.io -->
<svg version="1.1" xmlns="http://www.w3.org/2000/svg" width="32" height="32" viewBox="0 0 32 32">
<title>Internet_security_desktop</title>
<path fill="#ff7900" d="M4.416 4.051c-0.458 0.122-0.832 0.419-1.030 0.819-0.064 0.128-0.131 0.31-0.15 0.403-0.026 0.122-0.035 2.528-0.035 8.352 0 9.114-0.019 8.365 0.224 8.778 0.15 0.253 0.413 0.502 0.653 0.621 0.384 0.189-0.486 0.176 11.898 0.176 8.205 0 11.43-0.010 11.552-0.035 0.611-0.128 1.13-0.653 1.238-1.261 0.026-0.131 0.035-2.608 0.035-8.352 0-6.96-0.006-8.186-0.048-8.333-0.154-0.589-0.646-1.062-1.226-1.184-0.122-0.026-3.357-0.035-11.552-0.032-9.872 0-11.405 0.006-11.558 0.048zM27.2 12.8v7.2h-22.4v-14.4h22.4v7.2zM16.4 20.909c0.454 0.269 0.531 0.89 0.154 1.254-0.24 0.234-0.627 0.301-0.902 0.157-0.259-0.131-0.451-0.442-0.451-0.72 0-0.304 0.234-0.643 0.515-0.746 0.198-0.074 0.506-0.048 0.685 0.054z"></path>
<path fill="#ff7900" d="M15.517 7.248c-0.806 0.179-1.482 0.762-1.766 1.523-0.128 0.339-0.15 0.56-0.15 1.507v0.922h-1.6l0.006 3.142 0.010 3.146 0.099 0.208c0.131 0.269 0.323 0.464 0.586 0.589l0.211 0.099 7.088 0.016v-3.078c0-3.283 0.003-3.194-0.154-3.501-0.096-0.189-0.32-0.394-0.547-0.502-0.182-0.086-0.25-0.099-0.554-0.112l-0.346-0.016-0.003-0.899c-0.003-0.493-0.010-0.928-0.013-0.966-0.109-0.998-0.88-1.846-1.888-2.070-0.262-0.058-0.723-0.061-0.979-0.006zM16.342 8.205c0.090 0.026 0.234 0.077 0.32 0.118 0.195 0.096 0.522 0.422 0.614 0.614 0.147 0.304 0.163 0.435 0.163 1.373v0.89h-2.88v-0.89c0-0.941 0.016-1.069 0.163-1.373 0.093-0.195 0.419-0.515 0.618-0.614 0.33-0.16 0.685-0.202 1.002-0.118zM16.429 13.072c0.202 0.102 0.333 0.234 0.442 0.442 0.109 0.211 0.102 0.586-0.016 0.829-0.083 0.166-0.224 0.326-0.362 0.403-0.048 0.029-0.051 0.064-0.016 0.442 0.022 0.227 0.045 0.454 0.051 0.509 0.013 0.109 0.038 0.358 0.064 0.64 0.010 0.106 0.026 0.253 0.035 0.326l0.016 0.138h-0.64c-0.362 0-0.643-0.013-0.643-0.029s0.022-0.221 0.048-0.458c0.026-0.234 0.054-0.534 0.064-0.666s0.026-0.269 0.032-0.304c0.006-0.035 0.019-0.179 0.032-0.32l0.016-0.256-0.157-0.118c-0.109-0.080-0.182-0.173-0.246-0.301-0.406-0.829 0.458-1.693 1.28-1.277z"></path>
<path fill="#ff7900" d="M13.6 25.2v1.2h-2.070c-1.648 0.003-2.099 0.013-2.195 0.045-0.176 0.064-0.33 0.195-0.429 0.365-0.086 0.144-0.090 0.17-0.102 0.669l-0.010 0.522h14.41l-0.003-0.49c-0.006-0.448-0.013-0.502-0.086-0.656-0.042-0.090-0.131-0.208-0.195-0.262-0.237-0.195-0.202-0.192-2.461-0.192h-2.058v-2.4h-4.8v1.2z"></path>
</svg>
