<!-- Generated by IcoMoon.io -->
<svg version="1.1" xmlns="http://www.w3.org/2000/svg" width="32" height="32" viewBox="0 0 32 32">
<title>Internet_security_mobile</title>
<path fill="#ff7900" d="M9.226 2.445c-0.579 0.141-1.069 0.646-1.19 1.229-0.051 0.24-0.051 24.413 0 24.653 0.125 0.598 0.64 1.114 1.238 1.238 0.24 0.051 13.213 0.051 13.453 0 0.598-0.125 1.114-0.64 1.238-1.238 0.051-0.24 0.051-24.413 0-24.653-0.118-0.563-0.611-1.082-1.165-1.232-0.054-0.013-3.091-0.029-6.752-0.032-5.245-0.003-6.691 0.003-6.822 0.035zM17.398 3.264c0.115 0.070 0.202 0.211 0.202 0.336s-0.086 0.266-0.202 0.336c-0.096 0.061-0.17 0.064-1.392 0.064-1.424 0-1.421 0-1.542-0.202-0.115-0.189-0.058-0.416 0.138-0.534 0.096-0.061 0.17-0.064 1.398-0.064s1.302 0.003 1.398 0.064zM22.4 15.6v10.8h-12.8v-21.6h12.8v10.8zM16.4 27.309c0.39 0.23 0.512 0.749 0.266 1.12-0.112 0.17-0.221 0.256-0.413 0.323-0.608 0.214-1.222-0.394-1.005-1.005 0.086-0.246 0.282-0.442 0.522-0.518 0.16-0.051 0.47-0.013 0.63 0.080z"></path>
<path fill="#ff7900" d="M15.52 9.648c-0.858 0.182-1.53 0.803-1.827 1.68-0.064 0.192-0.070 0.288-0.083 1.238l-0.016 1.034h-1.594v3.078c0 3.283-0.003 3.194 0.154 3.501 0.096 0.189 0.32 0.394 0.55 0.506l0.208 0.099 7.088 0.016-0.006-3.142-0.010-3.146-0.099-0.208c-0.125-0.266-0.326-0.464-0.589-0.589-0.182-0.086-0.25-0.099-0.55-0.109l-0.339-0.013-0.016-1.014c-0.013-1.117-0.026-1.194-0.237-1.616-0.486-0.992-1.584-1.536-2.634-1.315zM16.285 10.592c0.496 0.093 0.922 0.48 1.088 0.989 0.061 0.189 0.067 0.278 0.067 1.114v0.906h-2.883l0.006-0.922c0.003-0.822 0.010-0.938 0.067-1.11 0.234-0.701 0.931-1.114 1.654-0.976zM16.33 15.427c0.496 0.182 0.752 0.733 0.566 1.222-0.067 0.182-0.262 0.419-0.397 0.493-0.058 0.032-0.058 0.051-0.022 0.445 0.022 0.227 0.045 0.454 0.051 0.509 0.006 0.051 0.029 0.262 0.048 0.464 0.016 0.202 0.042 0.429 0.051 0.502l0.016 0.138h-1.29l0.019-0.122c0.010-0.064 0.026-0.221 0.035-0.342 0.013-0.125 0.042-0.419 0.064-0.656 0.099-0.941 0.099-0.909-0.003-0.96-0.131-0.070-0.326-0.336-0.381-0.518-0.061-0.208-0.061-0.355 0-0.56 0.157-0.525 0.723-0.806 1.242-0.614z"></path>
</svg>
