<!-- Generated by IcoMoon.io -->
<svg version="1.1" xmlns="http://www.w3.org/2000/svg" width="32" height="32" viewBox="0 0 32 32">
<title>internet_browser</title>
<path fill="#ff7900" d="M15.226 2.416c-0.006 0.006-0.131 0.019-0.282 0.032-0.15 0.010-0.307 0.026-0.352 0.032s-0.16 0.022-0.256 0.032c-1.046 0.122-2.413 0.49-3.472 0.928-2.448 1.018-4.595 2.784-6.051 4.976-0.65 0.982-1.286 2.253-1.654 3.312-0.342 0.986-0.605 2.144-0.678 2.992-0.013 0.131-0.035 0.339-0.048 0.464-0.026 0.237-0.016 1.914 0.016 2.16 0.010 0.080 0.032 0.272 0.051 0.432 0.125 1.085 0.422 2.253 0.848 3.338 0.147 0.374 0.598 1.318 0.774 1.622 1.206 2.083 2.81 3.725 4.822 4.941 0.448 0.269 1.466 0.778 1.904 0.947 1.296 0.506 2.506 0.797 3.872 0.925 0.445 0.042 2.141 0.048 2.336 0.010 0.045-0.010 0.195-0.026 0.336-0.038s0.285-0.029 0.32-0.035c0.035-0.006 0.253-0.042 0.48-0.077 1.715-0.278 3.462-0.95 4.979-1.907 1.11-0.704 2.083-1.539 3.021-2.608 0.502-0.566 1.126-1.462 1.552-2.221 1.059-1.891 1.664-3.818 1.818-5.776 0.029-0.397 0.029-1.686-0.003-2.102-0.141-1.882-0.71-3.779-1.632-5.434-0.851-1.533-2.019-2.915-3.382-4.003-1.44-1.149-3.2-2.038-4.944-2.493-0.755-0.198-1.354-0.31-2.080-0.387-0.106-0.010-0.234-0.026-0.288-0.035-0.109-0.016-1.99-0.042-2.006-0.026zM18.986 4.384c1.45 0.371 2.97 1.082 4.109 1.926l0.179 0.131-0.106 0.045c-0.061 0.022-0.17 0.096-0.246 0.157-0.333 0.272-0.307 0.55 0.067 0.73 0.144 0.067 0.218 0.064 0.381-0.019 0.282-0.144 0.403-0.125 0.534 0.086 0.080 0.128 0.064 0.218-0.051 0.291-0.106 0.070-0.16 0.038-0.186-0.109-0.026-0.163-0.102-0.195-0.269-0.112-0.138 0.067-0.16 0.141-0.099 0.355 0.038 0.134 0.035 0.147-0.032 0.205-0.051 0.038-0.128 0.058-0.246 0.058-0.224 0-0.339 0.051-0.669 0.288-0.378 0.272-0.538 0.346-0.8 0.368-0.122 0.013-0.259 0.026-0.301 0.032-0.083 0.016-0.227 0.102-0.227 0.138 0 0.042 0.131 0.15 0.291 0.24 0.288 0.17 0.365 0.333 0.221 0.486-0.099 0.106-0.269 0.128-0.509 0.064-0.285-0.074-0.483-0.083-0.589-0.026-0.144 0.074-0.227 0.294-0.227 0.608-0.003 0.336 0.042 0.403 0.384 0.55 0.298 0.128 0.531 0.163 0.614 0.093 0.029-0.029 0.099-0.074 0.154-0.099 0.080-0.042 0.106-0.080 0.122-0.176 0.026-0.176 0.246-0.41 0.413-0.442 0.109-0.019 0.131-0.038 0.186-0.16 0.070-0.17 0.109-0.189 0.31-0.15 0.125 0.026 0.198 0.016 0.422-0.048 0.445-0.125 0.419-0.128 0.557 0.038 0.118 0.147 0.266 0.24 0.496 0.323 0.205 0.070 0.547 0.314 0.547 0.384 0 0.096-0.099 0.144-0.298 0.144-0.362 0-0.435 0.058-0.205 0.16 0.176 0.080 0.246 0.080 0.342-0.010 0.045-0.038 0.128-0.106 0.186-0.144 0.086-0.064 0.102-0.096 0.102-0.198 0-0.067 0.016-0.134 0.032-0.144 0.019-0.010 0.032-0.048 0.032-0.080 0-0.067-0.208-0.179-0.378-0.202-0.077-0.013-0.16-0.074-0.31-0.23-0.176-0.179-0.202-0.221-0.176-0.275 0.019-0.032 0.048-0.061 0.067-0.061 0.064 0 0.39 0.163 0.502 0.256 0.067 0.051 0.157 0.102 0.208 0.112 0.048 0.013 0.096 0.035 0.106 0.051 0.006 0.016 0.080 0.054 0.157 0.090 0.128 0.058 0.144 0.077 0.192 0.24 0.045 0.147 0.077 0.195 0.192 0.278 0.099 0.070 0.154 0.141 0.186 0.234 0.058 0.176 0.154 0.186 0.323 0.038l0.128-0.109-0.102-0.096c-0.058-0.054-0.102-0.118-0.102-0.141 0-0.074 0.112-0.157 0.256-0.189 0.205-0.048 0.278-0.013 0.336 0.157 0.106 0.304 0.15 0.362 0.365 0.477 0.202 0.109 0.269 0.118 0.422 0.058 0.038-0.016 0.086 0.061 0.214 0.368 0.093 0.214 0.166 0.406 0.166 0.429 0 0.029-0.048 0.035-0.166 0.029-0.093-0.010-0.256 0.006-0.362 0.029-0.125 0.029-0.237 0.035-0.32 0.019-0.070-0.013-0.208-0.038-0.304-0.054s-0.301-0.074-0.454-0.128c-0.157-0.054-0.317-0.099-0.362-0.099-0.173 0-0.294 0.109-0.352 0.307-0.026 0.099-0.122 0.112-0.32 0.042-0.096-0.032-0.205-0.061-0.243-0.061-0.035 0-0.109-0.042-0.16-0.096-0.102-0.099-0.326-0.192-0.47-0.192-0.128 0-0.31-0.058-0.39-0.122-0.070-0.058-0.070-0.061-0.019-0.16 0.038-0.077 0.045-0.118 0.019-0.163-0.016-0.035-0.032-0.093-0.032-0.128 0-0.086-0.102-0.138-0.23-0.112-0.058 0.013-0.32 0.026-0.586 0.026-0.579 0.006-0.973 0.077-1.248 0.218-0.166 0.086-0.227 0.099-0.448 0.102-0.192 0.003-0.298 0.022-0.416 0.077-0.211 0.096-0.256 0.141-0.384 0.39-0.144 0.269-0.202 0.333-0.525 0.579-0.147 0.112-0.275 0.221-0.282 0.237-0.010 0.029 0.541 0.314 3.35 1.738 0.816 0.413 1.040 0.541 1.171 0.669 0.374 0.355 0.458 0.902 0.211 1.363-0.096 0.176-0.285 0.374-0.445 0.458-0.106 0.058-0.109 0.064-0.090 0.205 0.022 0.154 0.099 0.294 0.422 0.768 0.352 0.512 0.381 0.794 0.128 1.277-0.243 0.467-0.237 0.554 0.090 1.12 0.099 0.179 0.221 0.451 0.272 0.611 0.051 0.163 0.147 0.378 0.221 0.49 0.070 0.109 0.189 0.336 0.262 0.502 0.288 0.653 0.48 0.787 0.79 0.55 0.134-0.102 0.15-0.106 0.346-0.054 0.138 0.035 0.17 0.032 0.269-0.016 0.061-0.032 0.138-0.048 0.166-0.035 0.061 0.022 0.080-0.016-0.32 0.608-0.704 1.088-1.786 2.23-2.902 3.062-1.040 0.771-2.122 1.344-3.35 1.766-0.742 0.259-1.824 0.506-2.464 0.566-0.109 0.013-0.221 0.026-0.243 0.032-0.070 0.026-0.877 0.061-1.286 0.061-0.403 0-1.085-0.032-1.264-0.061-0.051-0.006-0.234-0.029-0.4-0.048-1.514-0.182-3.29-0.813-4.704-1.674-3.11-1.888-5.229-5.085-5.741-8.662-0.093-0.65-0.118-1.005-0.118-1.744 0-0.749 0.048-1.334 0.166-2.026 0.038-0.221 0.083-0.25 0.23-0.134 0.045 0.035 0.102 0.064 0.128 0.064s0.125 0.035 0.221 0.077c0.253 0.112 0.374 0.128 0.557 0.074 0.179-0.051 0.25-0.035 0.365 0.090 0.144 0.157 0.467 0.278 0.922 0.352 0.112 0.019 0.157 0.048 0.256 0.17 0.362 0.445 0.48 0.525 0.896 0.598 0.429 0.074 0.525 0.109 0.656 0.243 0.118 0.118 0.125 0.134 0.112 0.278-0.010 0.109-0.064 0.234-0.195 0.458-0.413 0.701-0.458 1.248-0.15 1.856 0.179 0.352 0.413 0.621 0.864 0.989 0.397 0.323 0.531 0.461 0.63 0.653 0.122 0.24 0.131 0.522 0.029 1.011-0.083 0.41-0.099 0.531-0.131 1.043-0.019 0.317-0.083 0.534-0.301 1.034-0.147 0.339-0.157 0.432-0.067 0.547 0.083 0.109 0.080 0.224-0.016 0.355-0.202 0.278-0.262 0.413-0.25 0.538 0.010 0.080-0.006 0.163-0.038 0.227-0.122 0.237 0.099 0.634 0.547 0.976 0.346 0.266 0.755 0.355 0.899 0.198 0.099-0.106 0.138-0.198 0.144-0.336 0.006-0.163-0.019-0.198-0.15-0.198-0.058 0-0.128-0.010-0.157-0.019-0.086-0.032-0.058-0.205 0.080-0.49 0.131-0.266 0.131-0.272 0.093-0.435-0.035-0.141-0.032-0.179 0.013-0.266 0.077-0.147 0.346-0.397 0.538-0.502 0.285-0.157 0.8-0.554 0.998-0.771 0.122-0.134 0.317-0.291 0.56-0.451 0.419-0.272 0.57-0.403 0.726-0.634 0.058-0.090 0.15-0.208 0.202-0.266 0.090-0.099 0.093-0.112 0.051-0.208-0.035-0.083-0.413-1.117-0.915-2.502-1.030-2.832-1.325-3.622-1.363-3.654-0.026-0.019-0.144-0.045-0.259-0.058-0.118-0.010-0.33-0.032-0.474-0.051-0.141-0.016-0.394-0.038-0.557-0.051-0.163-0.010-0.333-0.038-0.378-0.061-0.042-0.022-0.106-0.035-0.138-0.029-0.074 0.016-0.294 0.122-0.445 0.211-0.16 0.099-0.483 0.118-0.707 0.045-0.23-0.077-0.355-0.157-0.826-0.534-0.218-0.176-0.467-0.355-0.56-0.397l-0.163-0.083 0.016-0.253c0.019-0.31-0.010-0.435-0.112-0.483-0.112-0.051-0.214-0.010-0.426 0.163-0.246 0.205-0.378 0.269-0.55 0.269-0.208 0-0.365-0.086-0.477-0.262-0.189-0.294-0.214-0.768-0.058-1.037 0.25-0.426 0.8-0.653 1.494-0.621 0.522 0.026 0.832 0.16 1.072 0.464 0.070 0.090 0.16 0.179 0.202 0.202 0.128 0.070 0.15 0.003 0.15-0.445 0-0.47 0.029-0.55 0.262-0.698 0.189-0.118 0.307-0.259 0.438-0.518 0.067-0.131 0.144-0.237 0.202-0.269 0.106-0.061 0.502-0.374 0.515-0.406 0.003-0.013-0.051-0.179-0.122-0.371-0.154-0.416-0.182-0.618-0.128-0.883 0.048-0.23 0.224-0.518 0.394-0.646 0.234-0.179 0.458-0.256 0.73-0.256 0.288 0 0.314 0.010 0.896 0.301 0.394 0.198 0.451 0.218 0.614 0.211 0.202-0.006 0.234 0.010 0.186 0.099-0.042 0.077-0.042 0.074 0.454 0.326 0.282 0.144 0.352 0.166 0.374 0.128 0.042-0.067-0.013-0.144-0.176-0.256-0.208-0.144-0.266-0.214-0.288-0.365-0.038-0.259-0.054-0.304-0.125-0.381-0.038-0.042-0.17-0.115-0.294-0.16-0.192-0.074-0.259-0.125-0.502-0.371-0.365-0.371-0.464-0.416-0.832-0.355-0.141 0.022-0.298 0.042-0.346 0.038-0.109-0.003-0.269-0.083-0.406-0.205-0.269-0.234-0.589-0.374-0.915-0.406l-0.224-0.019 0.358-0.269 0.176 0.045c0.096 0.026 0.253 0.080 0.346 0.122 0.285 0.125 0.48 0.179 0.717 0.192l0.224 0.013-0.134-0.061c-0.166-0.074-0.186-0.141-0.032-0.106 0.285 0.061 0.346 0.058 0.442-0.013 0.077-0.058 0.256-0.109 0.422-0.122 0.064-0.003 0.314-0.208 0.371-0.298 0.054-0.093 0.058-0.144 0.038-0.474-0.003-0.019-0.022-0.038-0.042-0.038-0.106-0.003-0.166-0.096-0.16-0.24 0.003-0.134 0-0.141-0.122-0.195-0.154-0.070-0.17-0.058 0.365-0.275 0.221-0.090 0.413-0.15 0.451-0.141 0.102 0.026 0.275 0.227 0.301 0.346 0.019 0.093 0.035 0.106 0.131 0.109 0.061 0 0.147-0.010 0.192-0.026 0.058-0.022 0.086-0.016 0.115 0.022 0.022 0.032 0.067 0.045 0.115 0.035 0.080-0.013 0.282 0.064 0.282 0.109 0 0.013-0.074 0.035-0.166 0.045-0.118 0.016-0.154 0.032-0.122 0.051 0.026 0.019 0.077 0.032 0.115 0.032 0.035 0 0.080 0.016 0.099 0.035 0.029 0.029-0.003 0.058-0.122 0.115-0.17 0.086-0.285 0.208-0.285 0.304 0 0.032 0.029 0.118 0.067 0.192 0.195 0.381 0.861 0.867 1.302 0.947 0.326 0.058 0.512-0.038 0.714-0.378 0.208-0.349 0.342-0.454 0.768-0.592 0.202-0.064 0.602-0.176 0.893-0.243 0.291-0.070 0.637-0.16 0.768-0.202s0.346-0.093 0.474-0.115c0.125-0.022 0.23-0.051 0.23-0.064s-0.070-0.032-0.16-0.045c-0.24-0.032-0.23-0.083 0.022-0.086 0.221 0 0.362-0.019 0.387-0.045 0.010-0.010-0.006-0.042-0.035-0.074-0.045-0.048-0.048-0.077-0.016-0.17 0.019-0.061 0.038-0.125 0.045-0.147s0.070-0.054 0.147-0.074c0.176-0.045 0.285-0.099 0.307-0.154 0.006-0.026-0.010-0.093-0.038-0.154l-0.051-0.112 0.134-0.061c0.176-0.080 0.173-0.080 0.611 0.032zM8.115 7.28c0.048 0.195 0.080 0.378 0.067 0.406-0.010 0.029-0.080 0.070-0.15 0.093-0.182 0.054-0.246 0.157-0.202 0.32 0.029 0.109 0.026 0.138-0.029 0.205-0.035 0.045-0.086 0.080-0.112 0.080-0.029 0-0.182-0.138-0.346-0.304l-0.294-0.301 0.291-0.288c0.16-0.157 0.355-0.342 0.432-0.41 0.080-0.067 0.157-0.138 0.176-0.16 0.051-0.054 0.067-0.022 0.166 0.358z"></path>
<path fill="#ff7900" d="M20.685 7.405c-0.15 0.067-0.208 0.163-0.166 0.282 0.019 0.051 0.054 0.102 0.080 0.112s0.061 0.051 0.077 0.093c0.019 0.054 0.051 0.077 0.109 0.077 0.125 0 0.282 0.195 0.16 0.198-0.070 0-0.144 0.064-0.144 0.122 0 0.032-0.022 0.074-0.051 0.090s-0.045 0.048-0.032 0.067c0.013 0.019 0.035 0.029 0.051 0.019s0.038-0.003 0.048 0.016c0.013 0.019-0.022 0.074-0.077 0.125-0.106 0.099-0.131 0.218-0.051 0.246 0.026 0.013 0.115-0.022 0.198-0.077 0.195-0.125 0.358-0.166 0.611-0.157 0.182 0.006 0.211-0.003 0.266-0.070 0.096-0.115 0.067-0.234-0.058-0.266-0.064-0.016-0.134-0.070-0.179-0.138-0.042-0.061-0.141-0.16-0.221-0.221-0.163-0.125-0.198-0.189-0.154-0.275 0.064-0.118 0.038-0.16-0.093-0.16-0.096 0-0.128-0.013-0.141-0.064-0.019-0.074-0.093-0.080-0.234-0.019z"></path>
<path fill="#ff7900" d="M20.208 7.894c-0.035 0.010-0.131 0.061-0.214 0.115-0.112 0.070-0.154 0.118-0.154 0.173 0 0.042-0.022 0.118-0.048 0.17-0.045 0.086-0.045 0.096 0.019 0.128 0.048 0.026 0.109 0.026 0.23 0 0.24-0.051 0.403-0.17 0.406-0.294 0-0.032 0.029-0.083 0.067-0.118l0.067-0.061-0.077-0.048c-0.090-0.058-0.211-0.083-0.298-0.064z"></path>
<path fill="#ff7900" d="M9.952 9.203c0 0.010 0.093 0.275 0.205 0.586 0.115 0.31 0.307 0.835 0.429 1.171 0.125 0.333 0.419 1.149 0.662 1.808 0.406 1.117 0.502 1.376 0.794 2.176 0.064 0.166 0.33 0.902 0.595 1.632 0.269 0.73 0.512 1.398 0.547 1.488 0.032 0.086 0.147 0.397 0.253 0.688 0.102 0.291 0.32 0.88 0.477 1.312s0.448 1.229 0.646 1.776c0.198 0.544 0.371 1.002 0.381 1.014s0.221-0.419 0.467-0.96c0.243-0.541 0.506-1.114 0.579-1.27 0.125-0.269 0.362-0.784 0.547-1.2 0.074-0.16 0.083-0.17 0.122-0.115 0.026 0.032 0.093 0.112 0.15 0.176s0.214 0.237 0.346 0.387c0.131 0.15 0.246 0.278 0.256 0.288s0.147 0.16 0.301 0.336c0.157 0.176 0.33 0.371 0.387 0.432 0.054 0.061 0.278 0.314 0.496 0.56 0.221 0.246 0.406 0.454 0.416 0.464s0.304 0.339 0.656 0.736c0.771 0.867 0.813 0.906 1.062 1.030 0.582 0.288 1.242 0.064 1.99-0.675 0.63-0.624 0.71-1.203 0.246-1.811-0.093-0.122-0.976-1.117-1.558-1.757-0.080-0.090-0.355-0.394-0.608-0.678-0.253-0.282-0.589-0.656-0.749-0.832-0.157-0.173-0.381-0.426-0.496-0.554-0.115-0.131-0.24-0.266-0.278-0.301-0.042-0.038-0.074-0.077-0.074-0.090s0.118-0.061 0.266-0.106c0.144-0.045 0.71-0.221 1.254-0.387 0.547-0.17 1.286-0.4 1.648-0.509l0.656-0.202-0.176-0.090c-0.096-0.048-0.602-0.304-1.12-0.566-0.518-0.266-1.427-0.726-2.016-1.024-2.538-1.29-3.338-1.696-6.048-3.072-2.992-1.52-3.712-1.885-3.712-1.862z"></path>
</svg>
