<!-- Generated by IcoMoon.io -->
<svg version="1.1" xmlns="http://www.w3.org/2000/svg" width="32" height="32" viewBox="0 0 32 32">
<title>Interventions</title>
<path fill="#ff7900" d="M15.568 2.406c-0.819 0.182-1.427 0.662-1.754 1.376l-0.083 0.186h-0.925c-1.056 0-1.133 0.013-1.36 0.237-0.25 0.24-0.246 0.221-0.246 2.106v1.658h9.603l-0.010-1.722-0.010-1.718-0.093-0.154c-0.048-0.083-0.138-0.189-0.192-0.23-0.214-0.163-0.307-0.176-1.306-0.176h-0.925l-0.061-0.147c-0.282-0.656-0.899-1.187-1.606-1.376-0.227-0.061-0.832-0.083-1.034-0.038zM16.41 4.086c0.595 0.368 0.477 1.238-0.198 1.45-0.154 0.048-0.422 0.026-0.566-0.051-0.128-0.064-0.298-0.234-0.362-0.355-0.173-0.339-0.038-0.835 0.285-1.034 0.253-0.157 0.598-0.16 0.842-0.010z"></path>
<path fill="#ff7900" d="M7.664 5.606c-0.573 0.109-1.101 0.637-1.229 1.226-0.022 0.112-0.032 3.363-0.035 10.771 0 11.629-0.016 10.723 0.186 11.133 0.109 0.227 0.448 0.566 0.682 0.682 0.39 0.195-0.211 0.182 8.685 0.182 5.728 0 8.221-0.010 8.352-0.035 0.621-0.112 1.158-0.656 1.264-1.277 0.026-0.15 0.032-3.194 0.026-10.848l-0.010-10.64-0.083-0.198c-0.221-0.509-0.627-0.867-1.123-0.986-0.16-0.038-0.464-0.048-1.488-0.048h-1.29v3.2h-11.2v-3.2l-1.286 0.003c-0.71 0.003-1.36 0.019-1.45 0.035zM16.736 12.755c1.398 0.163 2.701 0.797 3.715 1.805 0.186 0.186 0.378 0.39 0.426 0.454 0.051 0.067 0.106 0.122 0.122 0.122 0.019 0 0.32-0.288 0.672-0.64 0.349-0.352 0.643-0.64 0.653-0.64 0.006 0 0.010 0.717 0.006 1.59-0.010 1.562-0.010 1.597-0.080 1.722-0.083 0.157-0.176 0.243-0.352 0.333-0.131 0.067-0.17 0.067-1.718 0.067h-1.584l0.669-0.669 0.669-0.666-0.198-0.237c-0.256-0.307-0.435-0.49-0.694-0.701-0.637-0.522-1.43-0.88-2.304-1.040-0.237-0.045-1.2-0.045-1.472-0.003-1.12 0.176-2.022 0.646-2.819 1.466-0.656 0.675-1.12 1.603-1.293 2.586-0.045 0.259-0.054 1.066-0.019 1.354 0.291 2.195 1.917 3.872 4.099 4.23 0.262 0.042 0.909 0.054 1.248 0.019 1.856-0.179 3.501-1.494 4.096-3.267 0.176-0.525 0.227-0.826 0.246-1.456 0.026-0.851 0.045-0.87 0.832-0.861 0.646 0.010 0.688 0.054 0.678 0.758-0.010 0.88-0.166 1.661-0.48 2.419-0.877 2.106-2.794 3.578-5.069 3.891-0.557 0.077-1.43 0.048-2.016-0.067-1.978-0.387-3.626-1.648-4.512-3.453-0.438-0.896-0.624-1.664-0.64-2.672-0.010-0.627 0.010-0.87 0.115-1.408 0.378-1.898 1.674-3.571 3.437-4.432 0.704-0.346 1.411-0.55 2.112-0.611 0.125-0.010 0.23-0.026 0.237-0.029 0.029-0.029 0.896-0.003 1.219 0.035zM16.266 15.635c0.202 0.067 0.413 0.278 0.48 0.477 0.048 0.138 0.054 0.342 0.054 1.661v1.504l0.749 0.742c0.64 0.637 0.755 0.762 0.8 0.896 0.128 0.381-0.016 0.768-0.365 0.966-0.202 0.112-0.528 0.118-0.742 0.013-0.208-0.102-1.85-1.747-1.952-1.955-0.074-0.147-0.074-0.154-0.083-1.875-0.010-1.83-0.003-1.917 0.141-2.134 0.080-0.125 0.278-0.272 0.429-0.317 0.134-0.038 0.333-0.032 0.49 0.022z"></path>
</svg>
