<!-- Generated by IcoMoon.io -->
<svg version="1.1" xmlns="http://www.w3.org/2000/svg" width="32" height="32" viewBox="0 0 32 32">
<title>IT_infrastructure</title>
<path fill="#ff7900" d="M4.512 3.222c-0.448 0.077-0.934 0.442-1.136 0.854-0.186 0.381-0.176-0.198-0.176 8.698 0 5.869 0.010 8.23 0.035 8.352 0.125 0.598 0.64 1.114 1.238 1.238 0.118 0.026 1.61 0.035 5.046 0.035h4.88v3.2h-1.261c-1.363 0-1.414 0.006-1.642 0.179-0.058 0.042-0.144 0.147-0.192 0.23l-0.090 0.15v2.88l0.086 0.147c0.099 0.17 0.256 0.301 0.445 0.365 0.192 0.070 8.259 0.070 8.483 0.003 0.195-0.058 0.362-0.189 0.467-0.368l0.086-0.147 0.010-1.366c0.006-0.883-0.003-1.411-0.022-1.491-0.051-0.179-0.202-0.374-0.378-0.477l-0.154-0.090-2.64-0.019v-3.197h4.89c5.325 0 5.034 0.010 5.44-0.176 0.381-0.176 0.755-0.672 0.835-1.117 0.051-0.272 0.048-16.397 0-16.634-0.125-0.598-0.64-1.114-1.238-1.238-0.122-0.026-3.35-0.035-11.552-0.032-6.259 0.003-11.418 0.013-11.462 0.019zM27.2 12v7.2h-22.4v-14.4h22.4v7.2zM16.403 20.112c0.474 0.278 0.525 0.979 0.093 1.309-0.454 0.346-1.12 0.131-1.267-0.41-0.045-0.16-0.019-0.426 0.051-0.56 0.080-0.16 0.282-0.342 0.435-0.4 0.202-0.070 0.506-0.045 0.688 0.061z"></path>
<path fill="#ff7900" d="M2.4 27.6v1.2h8v-2.4h-8v1.2z"></path>
<path fill="#ff7900" d="M21.6 27.6v1.2h8v-2.4h-8v1.2z"></path>
</svg>
