<!-- Generated by IcoMoon.io -->
<svg version="1.1" xmlns="http://www.w3.org/2000/svg" width="32" height="32" viewBox="0 0 32 32">
<title>keeper</title>
<path fill="#ff7900" d="M15.485 2.413c-0.006 0.006-0.106 0.022-0.221 0.032-1.069 0.112-2.189 0.563-3.101 1.248-1.258 0.944-2.128 2.323-2.432 3.843-0.128 0.646-0.128 0.634-0.128 2.71l-0.003 1.754h-3.2v7.67c0 4.928 0.013 7.754 0.032 7.894 0.115 0.8 0.678 1.52 1.43 1.84 0.474 0.202-0.154 0.189 9.203 0.192l8.534 0.003v-7.67c0-4.829-0.013-7.754-0.032-7.891-0.112-0.778-0.643-1.478-1.376-1.821-0.339-0.16-0.518-0.192-1.174-0.208l-0.618-0.016-0.003-1.75c0-0.96-0.006-1.821-0.013-1.907-0.074-0.88-0.33-1.77-0.726-2.512-0.992-1.853-2.73-3.066-4.842-3.376-0.15-0.022-1.312-0.054-1.331-0.035zM16.784 4.88c0.797 0.166 1.453 0.525 2.035 1.107 0.464 0.464 0.867 1.136 1.021 1.696 0.138 0.499 0.134 0.461 0.15 2.419l0.013 1.898h-8.006l0.013-1.882c0.010-1.77 0.016-1.894 0.080-2.166 0.179-0.771 0.534-1.411 1.107-1.981 0.646-0.646 1.459-1.037 2.387-1.152 0.23-0.029 0.954 0.010 1.2 0.061zM16.992 15.251c0.973 0.144 1.75 0.454 2.48 0.989 0.374 0.275 0.64 0.538 1.011 1.002 0.17 0.211 0.496 0.829 0.611 1.158 0.31 0.899 0.326 1.987 0.042 2.854-0.282 0.864-0.79 1.523-1.571 2.045-0.717 0.48-1.235 0.637-2.045 0.624-0.32-0.003-0.326-0.006-0.544-0.138-0.326-0.198-0.477-0.346-0.541-0.531l-0.038-0.112-0.202 0.157c-0.275 0.214-0.486 0.33-0.787 0.432-0.422 0.141-0.973 0.125-1.395-0.038-0.47-0.186-0.912-0.65-1.085-1.139-0.317-0.909-0.010-2.291 0.726-3.254 0.275-0.365 0.797-0.835 1.194-1.082 0.483-0.301 1.008-0.461 1.501-0.461 0.544-0.003 0.803 0.096 1.13 0.426 0.211 0.214 0.211 0.214 0.259 0.144 0.323-0.483 0.982-0.672 1.357-0.387 0.24 0.182 0.272 0.454 0.115 1.021-0.054 0.192-0.179 0.662-0.278 1.040-0.102 0.378-0.205 0.758-0.23 0.848-0.074 0.256-0.461 1.725-0.461 1.75 0 0.038 0.282-0.061 0.47-0.166 0.554-0.31 1.062-0.918 1.254-1.491 0.214-0.65 0.179-1.565-0.096-2.31-0.298-0.813-0.96-1.526-1.811-1.955-0.934-0.467-2.154-0.541-3.216-0.192-1.136 0.374-2.163 1.277-2.669 2.346-0.125 0.266-0.253 0.611-0.288 0.771-0.189 0.854-0.15 1.846 0.102 2.656 0.448 1.411 1.571 2.512 2.989 2.922 0.467 0.138 0.752 0.176 1.216 0.176 1.334-0.003 2.592-0.573 3.792-1.718 0.496-0.474 0.762-0.618 1.024-0.55 0.102 0.026 0.179 0.186 0.16 0.333-0.077 0.611-1.309 1.811-2.419 2.365-0.541 0.269-1.018 0.426-1.638 0.541-0.307 0.058-1.382 0.090-1.59 0.048-0.080-0.016-0.269-0.054-0.422-0.083-0.573-0.106-1.248-0.381-1.824-0.742-1.696-1.066-2.608-2.784-2.611-4.922 0-0.72 0.093-1.229 0.339-1.84 0.678-1.706 2.099-2.954 3.872-3.408 0.662-0.166 1.494-0.218 2.118-0.125z"></path>
<path fill="#ff7900" d="M15.824 19.373c-0.246 0.080-0.406 0.182-0.624 0.41-0.464 0.474-0.746 1.338-0.605 1.866 0.077 0.298 0.173 0.419 0.416 0.525 0.403 0.179 0.925 0.048 1.338-0.336 0.432-0.397 0.685-0.979 0.685-1.578 0-0.611-0.262-0.906-0.826-0.922-0.147-0.006-0.31 0.010-0.384 0.035z"></path>
</svg>
