<!-- Generated by IcoMoon.io -->
<svg version="1.1" xmlns="http://www.w3.org/2000/svg" width="32" height="32" viewBox="0 0 32 32">
<title>keyboard</title>
<path fill="#ff7900" d="M3.664 7.238c-0.413 0.077-0.902 0.454-1.085 0.829-0.189 0.394-0.179-0.128-0.179 7.907 0 5.283 0.010 7.43 0.035 7.552 0.122 0.582 0.592 1.069 1.184 1.226 0.147 0.042 1.91 0.048 12.355 0.048 8.787 0 12.23-0.010 12.352-0.035 0.598-0.125 1.114-0.64 1.238-1.238 0.051-0.24 0.051-14.813 0-15.053-0.128-0.611-0.653-1.13-1.258-1.238-0.25-0.045-24.406-0.042-24.643 0.003zM6.998 8.864c0.198 0.122 0.205 0.157 0.195 1.181-0.010 0.874-0.013 0.928-0.074 0.995-0.131 0.147-0.214 0.16-1.136 0.16-0.96 0-1.005-0.006-1.12-0.202-0.061-0.096-0.064-0.166-0.064-0.998 0-0.982 0.003-1.002 0.189-1.126 0.106-0.074 0.125-0.074 1.008-0.074 0.835 0 0.906 0.003 1.002 0.064zM10.979 8.848c0.051 0.029 0.125 0.096 0.157 0.154 0.061 0.096 0.064 0.166 0.064 0.998 0 1.277 0.077 1.2-1.2 1.2-0.976 0-1.018-0.006-1.136-0.202-0.061-0.096-0.064-0.166-0.064-0.992 0-0.982 0.006-1.024 0.202-1.142 0.096-0.061 0.166-0.064 0.992-0.064 0.739 0 0.906 0.010 0.986 0.048zM14.979 8.848c0.051 0.029 0.125 0.096 0.157 0.154 0.061 0.096 0.064 0.166 0.064 0.998 0 1.277 0.077 1.2-1.2 1.2-0.976 0-1.018-0.006-1.136-0.202-0.061-0.096-0.064-0.166-0.064-0.992 0-0.982 0.006-1.024 0.202-1.142 0.096-0.061 0.166-0.064 0.992-0.064 0.739 0 0.906 0.010 0.986 0.048zM18.979 8.848c0.051 0.029 0.125 0.096 0.157 0.154 0.061 0.096 0.064 0.166 0.064 0.998 0 0.982-0.003 1.002-0.189 1.126-0.106 0.074-0.125 0.074-1.011 0.074s-0.906 0-1.011-0.074c-0.186-0.125-0.189-0.147-0.189-1.12 0-0.934 0.006-0.989 0.147-1.114 0.035-0.032 0.090-0.061 0.125-0.070 0.035-0.006 0.458-0.016 0.938-0.019 0.733-0.003 0.89 0.006 0.97 0.045zM22.979 8.848c0.051 0.029 0.125 0.096 0.157 0.154 0.061 0.096 0.064 0.166 0.064 0.998 0 1.277 0.077 1.2-1.2 1.2-0.976 0-1.018-0.006-1.136-0.202-0.061-0.096-0.064-0.166-0.064-0.992 0-0.982 0.006-1.024 0.202-1.142 0.096-0.061 0.166-0.064 0.992-0.064 0.739 0 0.906 0.010 0.986 0.048zM27.011 8.874c0.186 0.125 0.189 0.144 0.189 1.126 0 1.28 0.080 1.2-1.216 1.2-1.264 0-1.184 0.080-1.184-1.206 0-0.973 0.003-0.995 0.189-1.12 0.106-0.074 0.125-0.074 1.011-0.074s0.906 0 1.011 0.074zM6.979 12.848c0.051 0.029 0.125 0.096 0.157 0.154 0.061 0.096 0.064 0.166 0.064 0.998 0 1.277 0.077 1.2-1.2 1.2-0.976 0-1.018-0.006-1.136-0.202-0.061-0.096-0.064-0.166-0.064-0.992 0-0.982 0.006-1.024 0.202-1.142 0.096-0.061 0.166-0.064 0.992-0.064 0.739 0 0.906 0.010 0.986 0.048zM10.96 12.845c0.061 0.026 0.141 0.096 0.176 0.154 0.061 0.099 0.064 0.16 0.064 1.002 0 1.277 0.077 1.2-1.2 1.2-0.976 0-1.018-0.006-1.136-0.202-0.061-0.096-0.064-0.166-0.064-1.002 0-0.883 0-0.902 0.074-1.008 0.125-0.182 0.147-0.189 1.104-0.189 0.688 0 0.896 0.010 0.982 0.045zM14.979 12.848c0.051 0.029 0.125 0.096 0.157 0.154 0.061 0.096 0.064 0.166 0.064 0.998 0 0.982-0.003 1.002-0.189 1.126-0.106 0.074-0.125 0.074-1.011 0.074s-0.906 0-1.011-0.074c-0.186-0.125-0.189-0.144-0.189-1.126s0.003-1.002 0.189-1.126c0.106-0.074 0.125-0.074 1.002-0.074 0.742 0 0.909 0.010 0.989 0.048zM18.979 12.848c0.051 0.029 0.125 0.096 0.157 0.154 0.061 0.096 0.064 0.166 0.064 0.998 0 1.28 0.080 1.2-1.21 1.2-0.877 0-0.896 0-1.002-0.074-0.186-0.125-0.189-0.147-0.189-1.12 0-0.986 0.006-1.024 0.202-1.142 0.096-0.061 0.166-0.064 0.992-0.064 0.739 0 0.906 0.010 0.986 0.048zM22.979 12.848c0.051 0.029 0.125 0.096 0.157 0.154 0.061 0.096 0.064 0.166 0.064 0.998 0 1.277 0.077 1.2-1.2 1.2-0.976 0-1.018-0.006-1.136-0.202-0.061-0.096-0.064-0.166-0.064-0.992 0-0.982 0.006-1.024 0.202-1.142 0.096-0.061 0.166-0.064 0.992-0.064 0.739 0 0.906 0.010 0.986 0.048zM27.078 12.922l0.106 0.102 0.010 0.928c0.010 1.027 0.003 1.062-0.195 1.184-0.096 0.061-0.166 0.064-0.992 0.064-0.982 0-1.024-0.006-1.142-0.202-0.061-0.096-0.064-0.166-0.064-0.992 0-0.982 0.006-1.024 0.202-1.146 0.096-0.058 0.154-0.061 1.037-0.054l0.938 0.010 0.102 0.106zM8.598 16.864c0.195 0.118 0.202 0.16 0.202 1.136s-0.006 1.018-0.202 1.136c-0.099 0.061-0.173 0.064-1.792 0.064-1.866 0-1.818 0.006-1.942-0.202-0.061-0.096-0.064-0.166-0.064-0.992 0-0.982 0.006-1.024 0.202-1.142 0.099-0.061 0.173-0.064 1.798-0.064s1.699 0.003 1.798 0.064zM12.995 16.848c0.051 0.029 0.125 0.096 0.157 0.154 0.061 0.096 0.064 0.166 0.064 0.998 0 1.28 0.080 1.2-1.21 1.2-0.877 0-0.896 0-1.002-0.074-0.186-0.125-0.189-0.144-0.189-1.126s0.003-1.002 0.189-1.126c0.106-0.074 0.125-0.074 1.002-0.074 0.742 0 0.909 0.010 0.989 0.048zM16.992 16.842c0.042 0.022 0.112 0.090 0.15 0.147 0.074 0.106 0.074 0.125 0.074 1.008 0 1.283 0.077 1.203-1.2 1.203-0.976 0-1.018-0.006-1.136-0.202-0.061-0.096-0.064-0.166-0.064-0.992 0-0.982 0.006-1.024 0.202-1.142 0.096-0.061 0.166-0.064 0.998-0.064 0.653 0 0.918 0.013 0.976 0.042zM21.027 16.874c0.186 0.125 0.189 0.144 0.189 1.126 0 1.277 0.077 1.2-1.2 1.2-0.976 0-1.018-0.006-1.136-0.202-0.061-0.096-0.064-0.166-0.064-0.992 0-0.982 0.006-1.024 0.202-1.142 0.096-0.061 0.166-0.064 1.002-0.064 0.883 0 0.902 0 1.008 0.074zM27.011 16.874c0.186 0.125 0.189 0.147 0.189 1.12 0 0.986-0.006 1.024-0.202 1.142-0.099 0.061-0.173 0.064-1.792 0.064-1.866 0-1.818 0.006-1.942-0.202-0.061-0.096-0.064-0.166-0.064-0.992 0-0.982 0.006-1.024 0.202-1.142 0.099-0.061 0.173-0.064 1.802-0.064h1.699l0.109 0.074zM6.976 20.842c0.042 0.022 0.112 0.090 0.15 0.147 0.074 0.106 0.074 0.125 0.074 1.008 0 0.986-0.003 1.005-0.189 1.13-0.106 0.074-0.125 0.074-1.011 0.074s-0.906 0-1.011-0.074c-0.186-0.125-0.189-0.147-0.189-1.12 0-0.986 0.006-1.024 0.202-1.142 0.096-0.061 0.166-0.064 0.998-0.064 0.653 0 0.918 0.013 0.976 0.042zM22.998 20.864c0.195 0.118 0.202 0.157 0.202 1.142 0 0.973-0.003 0.995-0.189 1.12l-0.109 0.074h-6.893c-7.616 0-7.014 0.016-7.146-0.202-0.061-0.096-0.064-0.166-0.064-0.992 0-0.982 0.006-1.024 0.202-1.142 0.099-0.064 0.214-0.064 6.998-0.064s6.899 0 6.998 0.064zM27.011 20.874c0.186 0.125 0.189 0.144 0.189 1.126s-0.003 1.002-0.189 1.126c-0.106 0.074-0.125 0.074-1.002 0.074-0.989 0-1.027-0.006-1.146-0.202-0.061-0.096-0.064-0.166-0.064-0.992 0-0.982 0.006-1.024 0.202-1.142 0.096-0.061 0.166-0.064 1.002-0.064 0.883 0 0.902 0 1.008 0.074z"></path>
</svg>
