<!-- Generated by IcoMoon.io -->
<svg version="1.1" xmlns="http://www.w3.org/2000/svg" width="32" height="32" viewBox="0 0 32 32">
<title>Keypad</title>
<path fill="#ff7900" d="M4.557 4.045c-0.186 0.058-0.352 0.195-0.454 0.368l-0.086 0.147-0.010 2.573c-0.010 2.918-0.019 2.778 0.24 3.030 0.256 0.25 0.118 0.24 3.021 0.23l2.573-0.010 0.128-0.074c0.141-0.083 0.282-0.227 0.365-0.374 0.045-0.086 0.051-0.349 0.061-2.669 0.010-2.906 0.019-2.774-0.234-3.027-0.25-0.25-0.122-0.24-2.957-0.237-1.962 0-2.544 0.010-2.646 0.042z"></path>
<path fill="#ff7900" d="M13.315 4.054c-0.189 0.067-0.39 0.275-0.461 0.474-0.051 0.147-0.054 0.358-0.054 2.675 0 2.832-0.010 2.707 0.24 2.957s0.128 0.24 2.941 0.24c1.386 0 2.554-0.016 2.624-0.032 0.179-0.042 0.371-0.186 0.483-0.368l0.096-0.154 0.010-2.499c0.006-1.376 0-2.576-0.010-2.666-0.026-0.218-0.176-0.442-0.384-0.57l-0.154-0.096-2.595-0.006c-2.288-0.003-2.611 0-2.736 0.045z"></path>
<path fill="#ff7900" d="M22.115 4.054c-0.080 0.029-0.202 0.112-0.278 0.189-0.246 0.256-0.237 0.128-0.237 2.957s-0.010 2.701 0.237 2.957c0.253 0.256 0.115 0.246 3.030 0.237l2.573-0.010 0.147-0.086c0.163-0.096 0.307-0.266 0.368-0.438 0.061-0.166 0.061-5.152 0-5.318-0.061-0.173-0.205-0.342-0.368-0.438l-0.147-0.086-2.592-0.006c-2.288-0.003-2.608 0-2.733 0.045z"></path>
<path fill="#ff7900" d="M4.534 12.851c-0.202 0.064-0.41 0.269-0.48 0.477-0.048 0.141-0.054 0.413-0.054 2.672 0 2.832-0.010 2.701 0.24 2.957 0.243 0.253 0.134 0.243 2.976 0.243 2.819 0 2.694 0.010 2.944-0.24s0.24-0.122 0.24-2.982v-2.541l-0.083-0.173c-0.077-0.163-0.211-0.298-0.397-0.403-0.125-0.070-5.165-0.077-5.386-0.010z"></path>
<path fill="#ff7900" d="M13.315 12.854c-0.154 0.054-0.352 0.234-0.442 0.4-0.054 0.099-0.058 0.269-0.067 2.602-0.006 1.373 0 2.573 0.010 2.662 0.026 0.221 0.176 0.442 0.381 0.57l0.157 0.096h5.286l0.157-0.093c0.182-0.109 0.314-0.282 0.368-0.474 0.029-0.102 0.035-0.794 0.029-2.698l-0.010-2.56-0.090-0.15c-0.102-0.176-0.243-0.294-0.435-0.362-0.211-0.074-5.133-0.067-5.344 0.006z"></path>
<path fill="#ff7900" d="M22.134 12.845c-0.176 0.064-0.33 0.195-0.429 0.365l-0.090 0.15-0.010 2.573c-0.010 2.899-0.019 2.765 0.23 3.021s0.115 0.246 2.966 0.246c2.73 0 2.659 0.003 2.896-0.176 0.054-0.042 0.144-0.147 0.192-0.23l0.093-0.154 0.010-2.573c0.010-2.906 0.019-2.765-0.234-3.024-0.243-0.253-0.131-0.243-2.989-0.243-2.016 0.003-2.538 0.013-2.637 0.045z"></path>
<path fill="#ff7900" d="M4.582 21.632c-0.131 0.032-0.342 0.176-0.426 0.291-0.16 0.224-0.157 0.182-0.157 2.874 0 2.842-0.010 2.714 0.243 2.966 0.243 0.243 0.144 0.237 2.97 0.237 1.622 0 2.541-0.013 2.618-0.032 0.179-0.051 0.381-0.221 0.47-0.4l0.083-0.157v-5.251l-0.086-0.147c-0.096-0.163-0.24-0.285-0.422-0.362-0.109-0.045-0.406-0.051-2.656-0.048-1.392 0.003-2.579 0.016-2.637 0.029z"></path>
<path fill="#ff7900" d="M13.315 21.654c-0.077 0.029-0.202 0.112-0.275 0.186-0.25 0.25-0.24 0.122-0.24 2.976 0.003 2.051 0.013 2.55 0.048 2.653 0.064 0.186 0.211 0.346 0.403 0.442l0.173 0.086 2.538 0.003c1.754 0 2.576-0.010 2.659-0.035 0.182-0.054 0.362-0.192 0.467-0.365l0.096-0.154v-2.643c0-2.966 0.019-2.72-0.24-2.979-0.23-0.23-0.147-0.224-2.973-0.221-2.192 0-2.534 0.010-2.656 0.051z"></path>
<path fill="#ff7900" d="M22.058 21.683c-0.157 0.077-0.294 0.214-0.397 0.397-0.038 0.067-0.045 0.525-0.054 2.653-0.010 2.899-0.019 2.765 0.23 3.021s0.118 0.246 2.963 0.246c2.816 0 2.71 0.010 2.947-0.227 0.256-0.256 0.237-0.013 0.237-2.973v-2.64l-0.086-0.147c-0.048-0.080-0.138-0.186-0.198-0.234-0.243-0.186-0.157-0.179-2.928-0.179l-2.547 0.003-0.166 0.080z"></path>
</svg>
