<!-- Generated by IcoMoon.io -->
<svg version="1.1" xmlns="http://www.w3.org/2000/svg" width="32" height="32" viewBox="0 0 32 32">
<title>Language</title>
<path fill="#ff7900" d="M15.165 3.213c-0.006 0.006-0.182 0.022-0.387 0.032-0.208 0.013-0.41 0.029-0.448 0.035-0.042 0.006-0.16 0.019-0.266 0.032-1.309 0.141-2.733 0.486-3.978 0.963-1.578 0.608-2.989 1.446-4.182 2.49-0.81 0.71-1.6 1.642-2.147 2.534-0.717 1.168-1.162 2.458-1.309 3.805-0.042 0.387-0.048 1.613-0.006 1.792 0.010 0.035 0.026 0.15 0.038 0.256 0.054 0.499 0.189 1.050 0.403 1.696 0.79 2.349 2.637 4.461 5.165 5.91 0.819 0.47 1.875 0.938 2.778 1.229l0.374 0.122v5.494l4.794-4.794 0.618-0.022c0.342-0.013 0.65-0.029 0.685-0.035s0.173-0.022 0.304-0.032c1.197-0.090 2.669-0.41 3.92-0.848 1.402-0.493 2.685-1.174 3.827-2.032 1.133-0.851 2.032-1.805 2.765-2.928 0.234-0.355 0.723-1.296 0.845-1.616 0.451-1.184 0.63-2.118 0.634-3.28 0.010-2.47-1.027-4.835-2.963-6.749-1.514-1.494-3.363-2.586-5.584-3.296-1.062-0.339-2.384-0.608-3.395-0.691-0.141-0.013-0.298-0.029-0.352-0.035-0.115-0.019-2.115-0.048-2.131-0.032zM17.235 8.989c1.107 0.23 1.853 1.133 1.818 2.198-0.019 0.541-0.154 0.883-0.477 1.213-0.115 0.115-0.208 0.214-0.208 0.221s0.106 0.061 0.237 0.128c0.522 0.256 0.931 0.858 1.027 1.507 0.035 0.224 0.019 0.672-0.032 0.899-0.067 0.32-0.096 0.403-0.221 0.666-0.307 0.637-0.97 1.226-1.581 1.405-0.317 0.090-0.829 0.090-1.062-0.003-0.416-0.163-0.598-0.592-0.429-1.014 0.080-0.202 0.214-0.294 0.573-0.403 0.605-0.189 0.858-0.41 0.995-0.88 0.093-0.32 0.067-0.662-0.070-0.899-0.16-0.275-0.323-0.365-1.014-0.538-0.41-0.106-0.605-0.342-0.605-0.746-0.003-0.403 0.15-0.598 0.582-0.742 0.291-0.099 0.435-0.186 0.531-0.323 0.291-0.422 0.093-0.995-0.4-1.165-0.368-0.125-0.8 0.035-0.947 0.352-0.128 0.269-0.134 0.432-0.138 3.101 0 2.87 0.006 2.762-0.218 3.024-0.163 0.189-0.33 0.266-0.586 0.269-0.115 0.003-0.262-0.013-0.323-0.035-0.16-0.054-0.349-0.246-0.445-0.454l-0.080-0.176v-2.688c0-2.88 0.003-2.979 0.163-3.418 0.246-0.688 0.803-1.216 1.504-1.43 0.458-0.138 0.95-0.163 1.405-0.067zM9.296 9.392c0.192 0.093 0.23 0.125 0.346 0.275 0.109 0.144 0.15 0.282 0.154 0.493 0.006 0.291-0.15 0.538-0.451 0.714-0.189 0.112-0.525 0.118-0.72 0.016-0.301-0.16-0.47-0.426-0.467-0.749 0.003-0.595 0.621-1.002 1.139-0.749zM11.68 9.36c0.566 0.202 0.742 0.95 0.317 1.36-0.406 0.387-1.014 0.301-1.302-0.186-0.074-0.128-0.086-0.186-0.083-0.39 0-0.163 0.019-0.275 0.054-0.342 0.211-0.397 0.627-0.579 1.014-0.442zM10.259 11.424c0.285 0.074 0.512 0.202 0.771 0.429 0.138 0.125 0.182 0.147 0.205 0.112 0.016-0.026 0.029-0.061 0.029-0.080 0-0.077 0.291-0.358 0.422-0.413 0.173-0.067 0.486-0.070 0.643-0.003 0.173 0.074 0.355 0.253 0.442 0.429l0.074 0.15v2.24c-0.003 2.218-0.003 2.243-0.070 2.416-0.173 0.442-0.592 0.656-1.034 0.525-0.189-0.058-0.381-0.24-0.48-0.454l-0.070-0.154-0.115 0.125c-0.182 0.205-0.464 0.394-0.698 0.474-0.282 0.093-0.81 0.102-1.146 0.016-0.688-0.176-1.354-0.717-1.683-1.37-0.218-0.429-0.307-0.778-0.336-1.328-0.048-0.829 0.176-1.61 0.621-2.154 0.675-0.826 1.568-1.178 2.426-0.96zM23.68 11.405c0.81 0.141 1.238 0.365 1.357 0.714 0.176 0.512-0.131 1.062-0.598 1.072-0.080 0-0.304-0.054-0.55-0.134-0.704-0.234-1.053-0.186-1.453 0.195-0.438 0.416-0.541 1.267-0.23 1.878 0.208 0.41 0.659 0.659 1.136 0.634 0.182-0.013 0.272-0.038 0.73-0.208 0.358-0.131 0.576-0.106 0.81 0.099 0.301 0.266 0.294 0.762-0.013 1.072-0.112 0.109-0.541 0.342-0.861 0.461-0.195 0.074-0.218 0.093-0.49 0.445-0.73 0.941-0.877 1.117-0.995 1.171-0.253 0.115-0.56-0.029-0.678-0.314-0.096-0.23-0.061-0.32 0.317-0.826 0.186-0.246 0.336-0.454 0.336-0.464s-0.029-0.016-0.067-0.016c-0.186 0-0.704-0.208-0.909-0.365-0.589-0.454-0.982-1.126-1.107-1.891-0.051-0.323-0.042-0.976 0.019-1.27 0.134-0.659 0.33-1.046 0.717-1.437 0.55-0.55 1.325-0.861 2.096-0.842 0.179 0.003 0.374 0.016 0.435 0.026z"></path>
<path fill="#ff7900" d="M9.696 12.938c-0.278 0.077-0.451 0.227-0.634 0.541-0.262 0.461-0.266 1.184-0.003 1.702 0.166 0.33 0.339 0.474 0.653 0.547 0.768 0.176 1.424-0.448 1.427-1.36 0.003-0.688-0.298-1.248-0.746-1.389-0.234-0.074-0.525-0.090-0.698-0.042z"></path>
</svg>
