<!-- Generated by IcoMoon.io -->
<svg version="1.1" xmlns="http://www.w3.org/2000/svg" width="32" height="32" viewBox="0 0 32 32">
<title>Latest</title>
<path fill="#ff7900" d="M4 16v11.2h24v-22.4h-24v11.2zM26.4 17.6v8h-20.8v-16h20.8v8z"></path>
<path fill="#ff7900" d="M14.954 12.864c-0.224 0.138-0.218 0.074-0.221 1.712 0 0.87-0.013 1.469-0.032 1.466-0.016-0.003-0.605-0.23-1.309-0.502-0.704-0.275-1.312-0.499-1.354-0.499-0.115 0-0.275 0.080-0.33 0.163-0.029 0.042-0.080 0.163-0.118 0.269-0.035 0.106-0.141 0.4-0.23 0.656-0.176 0.499-0.189 0.624-0.077 0.781 0.035 0.045 0.118 0.106 0.189 0.134 0.122 0.051 1.987 0.682 2.41 0.816 0.147 0.048 0.198 0.077 0.186 0.112-0.010 0.022-0.368 0.509-0.8 1.078-0.877 1.162-0.915 1.219-0.915 1.344 0 0.205 0.083 0.291 0.682 0.73 0.32 0.234 0.621 0.438 0.666 0.454 0.138 0.054 0.307 0 0.448-0.144 0.067-0.070 0.125-0.141 0.125-0.154 0-0.016 0.192-0.304 0.426-0.646 0.234-0.339 0.56-0.822 0.726-1.072s0.314-0.454 0.323-0.458c0.013 0 0.093 0.106 0.182 0.23 0.090 0.128 0.362 0.509 0.605 0.845s0.557 0.771 0.698 0.966c0.352 0.493 0.499 0.554 0.819 0.342 0.515-0.349 1.085-0.8 1.13-0.896 0.112-0.234 0.086-0.285-0.56-1.136-0.966-1.274-1.117-1.475-1.117-1.501 0-0.016 0.618-0.23 1.376-0.48 1.299-0.429 1.379-0.461 1.459-0.563 0.054-0.070 0.080-0.15 0.083-0.234 0-0.144-0.429-1.398-0.512-1.491-0.029-0.032-0.093-0.077-0.141-0.102-0.166-0.086-0.138-0.093-1.53 0.435-0.355 0.134-0.71 0.272-1.078 0.413-0.282 0.109-0.33 0.118-0.333 0.074 0-0.029-0.003-0.698-0.006-1.485-0.006-1.392-0.010-1.43-0.074-1.52-0.134-0.186-0.214-0.202-0.989-0.202-0.64 0-0.714 0.006-0.806 0.064z"></path>
</svg>
