<!-- Generated by IcoMoon.io -->
<svg version="1.1" xmlns="http://www.w3.org/2000/svg" width="32" height="32" viewBox="0 0 32 32">
<title>Le_Bloc</title>
<path fill="#ff7900" d="M10.525 2.832c-1.968 0.307-3.501 1.686-3.978 3.584-0.054 0.214-0.067 0.285-0.112 0.608-0.022 0.147-0.032 3.379-0.032 9.36 0 10.038-0.013 9.402 0.192 10.026s0.502 1.107 0.989 1.59c0.611 0.614 1.28 0.966 2.128 1.123 0.304 0.054 0.605 0.058 6.4 0.051l6.080-0.006 0.33-0.090c1.571-0.416 2.669-1.558 3.005-3.126 0.054-0.259 0.058-0.701 0.058-9.6 0-9.747 0.003-9.382-0.131-9.939-0.198-0.829-0.688-1.674-1.322-2.278-0.723-0.691-1.558-1.11-2.55-1.283-0.333-0.058-0.598-0.061-5.565-0.061-4.192 0-5.27 0.010-5.491 0.042zM21.507 4.458c0.202 0.048 0.269 0.074 0.499 0.17 0.054 0.026 0.112 0.045 0.128 0.045 0.058 0 0.586 0.346 0.768 0.502 0.33 0.285 0.656 0.733 0.835 1.152 0.154 0.362 0.214 0.608 0.25 1.021l0.022 0.243-0.192-0.131c-0.266-0.182-0.659-0.371-1.008-0.483-0.618-0.198-0.288-0.189-6.938-0.182l-6.064 0.006-0.336 0.090c-0.499 0.131-1.184 0.448-1.421 0.656-0.058 0.054-0.061 0.048-0.042-0.189 0.102-1.302 0.957-2.394 2.198-2.813 0.474-0.16 0.326-0.157 5.888-0.147 4.71 0.006 5.219 0.013 5.411 0.061zM11.072 8.48c0.442 0.147 0.742 0.33 1.027 0.614 1.293 1.315 0.691 3.536-1.091 4.013-0.246 0.064-0.778 0.086-1.024 0.042-0.925-0.173-1.658-0.854-1.91-1.77-0.067-0.25-0.077-0.893-0.013-1.136 0.237-0.922 0.941-1.613 1.843-1.805 0.32-0.070 0.896-0.048 1.168 0.042zM22.080 8.435c0.464 0.096 0.893 0.33 1.229 0.669 0.288 0.291 0.454 0.576 0.608 1.040l0.067 0.208 0.010 7.472c0.006 5.379 0 7.542-0.026 7.728-0.141 0.998-0.998 1.859-2 2-0.182 0.026-1.92 0.032-6.128 0.026l-5.872-0.010-0.221-0.070c-0.832-0.269-1.392-0.829-1.661-1.658l-0.070-0.224-0.010-5.818-0.006-5.814 0.186 0.125c0.403 0.275 0.941 0.496 1.494 0.614 0.301 0.064 1.158 0.058 1.488-0.013 0.771-0.163 1.418-0.499 1.974-1.027 0.33-0.31 0.624-0.701 0.794-1.040l0.128-0.259h1.024c0.563 0 1.107-0.013 1.206-0.032 0.582-0.093 1.098-0.586 1.258-1.194 0.198-0.765-0.256-1.613-1.014-1.878-0.256-0.090-0.275-0.090-1.418-0.093l-1.059-0.003-0.090-0.192c-0.051-0.106-0.154-0.285-0.227-0.4l-0.138-0.208h4.115c3.606 0.003 4.147 0.006 4.358 0.051z"></path>
<path fill="#ff7900" d="M17.898 9.318c0.352 0.438 0.531 1.043 0.49 1.642-0.074 1.066-0.854 1.955-1.904 2.173-0.176 0.035-0.454 0.048-1.072 0.048-0.758 0.003-0.838 0.010-0.877 0.061-0.022 0.029-0.134 0.182-0.246 0.342-0.454 0.64-1.056 1.152-1.773 1.504-0.656 0.323-1.242 0.464-2.003 0.48-0.634 0.013-0.934-0.029-1.638-0.227l-0.074-0.019v5.008c0 3.526 0.010 5.062 0.035 5.181 0.122 0.579 0.592 1.069 1.181 1.226 0.262 0.070 11.702 0.070 11.965 0 0.592-0.157 1.062-0.643 1.184-1.226 0.026-0.122 0.035-2.269 0.035-7.568l-0.003-7.398-0.074-0.23c-0.176-0.547-0.592-0.934-1.155-1.085-0.125-0.035-0.595-0.045-2.17-0.045h-2.010l0.109 0.134z"></path>
</svg>
