<!-- Generated by IcoMoon.io -->
<svg version="1.1" xmlns="http://www.w3.org/2000/svg" width="32" height="32" viewBox="0 0 32 32">
<title>Leave_session</title>
<path fill="#ff7900" d="M3.206 14.006l0.010 10.81 0.656 0.362c0.624 0.346 0.848 0.467 1.248 0.688 0.096 0.051 0.285 0.157 0.416 0.23 0.259 0.147 1.792 0.989 2.080 1.146 0.096 0.051 0.221 0.122 0.272 0.15 0.109 0.064 0.282 0.16 0.736 0.406 0.176 0.099 0.509 0.282 0.736 0.41 0.23 0.125 0.518 0.285 0.64 0.352 0.125 0.067 0.397 0.218 0.608 0.336s0.493 0.272 0.624 0.346c0.131 0.070 0.355 0.195 0.496 0.272l0.256 0.147 0.010-2.432 0.006-2.429h8.8v-6.4h-1.6v4.8h-7.2l-0.006-7.603-0.010-7.603-0.48-0.262c-0.262-0.144-0.573-0.314-0.688-0.378-0.115-0.061-0.307-0.166-0.432-0.234-0.122-0.067-0.266-0.144-0.32-0.176-0.051-0.029-0.189-0.106-0.304-0.166-0.656-0.355-1.75-0.95-1.984-1.082-0.15-0.083-0.365-0.202-0.48-0.262-0.554-0.294-1.12-0.611-1.12-0.621 0-0.006 2.931-0.013 6.512-0.013h6.512v4.8h1.6v-6.4h-17.6l0.006 10.806z"></path>
<path fill="#ff7900" d="M23.2 8.416v1.984l-4.086 0.003c-2.25 0-4.125 0.006-4.17 0.016-0.653 0.109-1.206 0.659-1.312 1.293-0.022 0.138-0.032 0.941-0.026 2.416 0.010 2.189 0.010 2.211 0.080 2.394 0.221 0.582 0.71 0.986 1.293 1.059 0.061 0.010 1.933 0.016 4.163 0.016l4.058 0.003 0.006 1.997 0.010 1.997 0.355-0.339c0.838-0.81 1.613-1.549 1.696-1.629 0.051-0.045 0.397-0.374 0.765-0.73 0.371-0.355 0.717-0.688 0.771-0.739 0.093-0.086 0.986-0.938 1.421-1.357 0.099-0.096 0.413-0.394 0.691-0.662 1.2-1.142 1.248-1.2 1.392-1.594 0.096-0.259 0.102-0.781 0.016-1.040-0.083-0.246-0.24-0.499-0.442-0.704-0.154-0.157-1.293-1.251-1.501-1.443-0.048-0.042-0.371-0.352-0.72-0.688-0.352-0.339-0.688-0.659-0.749-0.717s-0.394-0.374-0.736-0.704c-0.342-0.33-0.682-0.653-0.752-0.72-0.070-0.064-0.278-0.262-0.464-0.442s-0.608-0.586-0.941-0.902c-0.333-0.317-0.64-0.614-0.685-0.666-0.045-0.048-0.093-0.086-0.109-0.086-0.013 0-0.026 0.893-0.026 1.984z"></path>
</svg>
