<!-- Generated by IcoMoon.io -->
<svg version="1.1" xmlns="http://www.w3.org/2000/svg" width="32" height="32" viewBox="0 0 32 32">
<title>lightbulb_sh</title>
<path fill="#ff7900" d="M15.44 4.019c-0.051 0.006-0.224 0.029-0.384 0.048-1.693 0.202-3.366 1.11-4.518 2.445-0.765 0.886-1.344 2.058-1.574 3.174-0.134 0.662-0.16 0.954-0.147 1.642 0.006 0.342 0.019 0.659 0.029 0.704 0.006 0.045 0.032 0.189 0.051 0.32 0.048 0.336 0.179 0.848 0.307 1.229 0.147 0.422 0.534 1.203 0.787 1.587 1.050 1.584 1.891 3.379 2.41 5.136 0.182 0.621 0.256 0.941 0.368 1.571 0.102 0.579 0.173 0.758 0.39 0.973 0.077 0.077 0.23 0.182 0.346 0.237l0.208 0.099h4.576l0.208-0.099c0.435-0.208 0.634-0.522 0.72-1.117 0.074-0.502 0.339-1.565 0.566-2.237 0.512-1.539 1.181-2.922 2.138-4.422 0.678-1.066 1.037-1.974 1.203-3.053 0.061-0.397 0.083-1.523 0.035-1.856-0.134-0.963-0.317-1.581-0.691-2.352-0.362-0.739-0.8-1.357-1.373-1.93-1.136-1.133-2.534-1.821-4.214-2.070-0.15-0.022-1.302-0.045-1.44-0.029z"></path>
<path fill="#ff7900" d="M12.8 25.242c0 1.44 0.006 1.491 0.243 1.718 0.214 0.211 0.342 0.24 1.008 0.24h0.566l0.070 0.109c0.237 0.387 0.816 0.691 1.312 0.691s1.075-0.304 1.312-0.688l0.067-0.109 0.614-0.010c0.589-0.010 0.624-0.013 0.774-0.093 0.179-0.090 0.349-0.291 0.4-0.47 0.019-0.070 0.032-0.608 0.032-1.376v-1.254h-6.4v1.242z"></path>
</svg>
