<!-- Generated by IcoMoon.io -->
<svg version="1.1" xmlns="http://www.w3.org/2000/svg" width="32" height="32" viewBox="0 0 32 32">
<title>ligue_1</title>
<path fill="#ff7900" d="M15.552 2.4l-0.368 0.016 0.182 0.054c0.099 0.032 0.189 0.058 0.202 0.058 0.054 0 0.4 0.17 0.4 0.195 0 0.016-0.013 0.029-0.029 0.029s-0.627 0.269-1.354 0.595c-2.198 0.992-2.096 0.95-2.794 1.133-1.050 0.275-2.154 0.566-2.496 0.656-0.765 0.202-1.053 0.272-1.126 0.272-0.086 0-0.234-0.070-0.381-0.179-0.054-0.042-0.109-0.077-0.125-0.077-0.022 0-0.339 0.243-0.541 0.416-0.688 0.586-1.235 1.178-1.235 1.331s0.643 0.118 1.584-0.086c0.358-0.077 1.539-0.371 1.648-0.41 0.045-0.016 0.16-0.051 0.256-0.080 0.762-0.214 1.562-0.467 2.48-0.778 0.336-0.115 0.643-0.218 0.688-0.234 0.211-0.067 1.325-0.477 1.824-0.672 1.782-0.694 3.181-1.37 3.52-1.699 0.173-0.17 0.166-0.227-0.035-0.317-0.272-0.115-0.707-0.182-1.389-0.208-0.246-0.013-0.47-0.022-0.496-0.026s-0.214 0-0.416 0.010z"></path>
<path fill="#ff7900" d="M13.126 2.672c-0.842 0.176-1.808 0.48-2.582 0.81-0.675 0.288-1.898 0.934-1.68 0.89 1.107-0.234 2.016-0.493 2.8-0.803 0.698-0.275 2.064-0.979 1.888-0.973-0.035 0-0.227 0.035-0.426 0.077z"></path>
<path fill="#ff7900" d="M21.12 3.469c0 0.045 0.358 0.374 2.176 1.987 0.73 0.65 1.392 1.242 1.472 1.315 0.234 0.214 1.722 1.539 2.067 1.84 0.49 0.426 0.89 0.739 0.902 0.704 0.016-0.048-0.157-0.371-0.378-0.707-0.531-0.806-1.075-1.462-1.837-2.224-1.133-1.13-2.202-1.898-3.619-2.595-0.566-0.278-0.784-0.368-0.784-0.32z"></path>
<path fill="#ff7900" d="M17.92 5.942c-0.845 0.125-1.35 0.253-1.901 0.477-1.514 0.618-2.746 1.728-3.581 3.229-0.442 0.79-0.79 1.843-0.902 2.736-0.064 0.499-0.086 1.549-0.035 1.84 0.006 0.051 0.026 0.182 0.035 0.288 0.032 0.288 0.166 0.899 0.275 1.267 0.618 2.086 2.096 3.837 3.987 4.733 0.554 0.266 1.242 0.486 1.77 0.576 0.115 0.019 0.24 0.042 0.282 0.048 0.070 0.016 0.070 0.013 0.054-0.198-0.010-0.122-0.022-0.275-0.032-0.346-0.006-0.070-0.029-0.288-0.048-0.48-0.019-0.195-0.054-0.512-0.080-0.704-0.026-0.195-0.051-0.41-0.061-0.48s-0.032-0.237-0.048-0.368c-0.019-0.131-0.035-0.253-0.035-0.266 0-0.022-0.064-0.019-0.416 0.026-0.467 0.058-0.422 0.067-0.595-0.102-0.234-0.23-0.8-0.854-1.040-1.146-0.634-0.774-1.078-1.472-1.555-2.445l-0.243-0.49 0.054-0.198c0.109-0.39 0.582-1.808 0.691-2.051 0.013-0.035 0.125-0.294 0.24-0.576 0.118-0.282 0.381-0.848 0.582-1.254 0.422-0.854 0.294-0.746 1.018-0.886 0.726-0.141 0.96-0.179 1.462-0.243 0.726-0.090 1.446-0.144 2.362-0.176l0.464-0.019 0.211 0.218c1.018 1.046 1.875 2.262 2.634 3.738 0.17 0.326 0.17 0.323 0.035 0.944-0.211 0.957-0.515 1.802-0.95 2.65-0.378 0.733-0.851 1.517-0.925 1.53-0.662 0.106-0.726 0.118-0.717 0.17 0.006 0.048 0.032 0.243 0.067 0.531 0.006 0.070 0.022 0.163 0.029 0.208s0.022 0.208 0.032 0.368c0.010 0.157 0.026 0.339 0.032 0.4s0.022 0.285 0.032 0.496c0.019 0.397 0.048 0.762 0.061 0.778 0.019 0.016 0.55-0.224 0.842-0.378 2.077-1.107 3.539-3.286 3.834-5.712 0.198-1.616-0.080-3.229-0.803-4.656-0.941-1.866-2.608-3.274-4.509-3.821-0.71-0.202-1.040-0.25-1.824-0.259-0.387-0.003-0.739 0-0.784 0.006z"></path>
<path fill="#ff7900" d="M4.755 10.278c-0.803 0.109-1.539 1.027-2.070 2.576-0.048 0.147-0.083 0.266-0.077 0.266s0.141-0.064 0.294-0.138c0.154-0.077 0.384-0.179 0.506-0.23 0.125-0.048 0.253-0.099 0.288-0.112 0.205-0.083 1.11-0.352 1.184-0.352 0.048 0 0.397 0.467 0.698 0.928 0.589 0.909 1.133 1.971 1.642 3.219l0.179 0.442-0.006 0.512c-0.003 0.285-0.010 0.573-0.016 0.643s-0.019 0.33-0.029 0.576c-0.013 0.246-0.026 0.506-0.035 0.576-0.006 0.070-0.022 0.237-0.032 0.368-0.016 0.211-0.038 0.413-0.099 0.928-0.045 0.378-0.179 1.107-0.262 1.424-0.102 0.406-0.064 0.374-0.63 0.49-0.579 0.118-0.877 0.15-1.408 0.15-0.384-0.003-0.701-0.035-0.922-0.099-0.029-0.010-0.054-0.006-0.054 0.010s0.096 0.198 0.211 0.41c0.528 0.95 1.107 1.462 1.901 1.677 0.198 0.054 0.314 0.064 0.672 0.054 0.624-0.016 0.87-0.118 1.283-0.528 0.275-0.278 0.381-0.422 0.586-0.813 0.438-0.838 0.742-2.115 0.845-3.523 0.045-0.656 0.022-2.048-0.045-2.659-0.419-3.802-2.627-7.066-4.602-6.794z"></path>
<path fill="#ff7900" d="M18.608 11.014c-0.989 0.115-1.75 0.752-2.083 1.744-0.112 0.333-0.141 0.874-0.064 1.235 0.294 1.421 1.667 2.304 3.046 1.958 0.464-0.118 1.014-0.483 1.322-0.88 0.189-0.243 0.403-0.701 0.467-1.002 0.365-1.677-1.018-3.248-2.688-3.056z"></path>
<path fill="#ff7900" d="M28.81 12.166c-0.323 0.352-0.912 2.918-1.274 5.562-0.045 0.326-0.086 0.634-0.093 0.688-0.064 0.464-0.083 0.598-0.099 0.736-0.010 0.086-0.026 0.202-0.032 0.256-0.016 0.099-0.035 0.266-0.064 0.56-0.013 0.096-0.032 0.285-0.048 0.416s-0.038 0.339-0.051 0.464c-0.010 0.122-0.022 0.266-0.029 0.32-0.080 0.838-0.083 1.734-0.006 1.91 0.058 0.134 0.080 0.144 0.211 0.074 0.362-0.186 0.982-1.254 1.437-2.464 0.589-1.578 0.829-2.909 0.829-4.608 0-0.832-0.045-1.443-0.166-2.24-0.125-0.803-0.406-1.744-0.525-1.744-0.013 0-0.054 0.032-0.090 0.070z"></path>
<path fill="#ff7900" d="M3.325 15.181c-0.406 0.144-0.726 0.672-0.861 1.424-0.080 0.445-0.067 1.242 0.029 1.722 0.246 1.261 0.886 2.154 1.539 2.154 0.298-0.003 0.544-0.15 0.746-0.458 0.566-0.864 0.566-2.582 0-3.798-0.381-0.806-0.957-1.222-1.453-1.043z"></path>
<path fill="#ff7900" d="M18.352 23.507c-0.701 0.064-1.034 0.115-1.776 0.272-3.136 0.666-5.302 2.070-5.386 3.498-0.061 1.024 0.794 1.84 2.298 2.195 0.141 0.032 0.259 0.054 0.262 0.051 0.006-0.006-0.054-0.147-0.134-0.314-0.186-0.39-0.342-0.874-0.432-1.331-0.038-0.198-0.067-0.365-0.061-0.371 0.006-0.003 0.064-0.042 0.125-0.086 0.758-0.554 2.502-1.44 4.064-2.064 0.467-0.186 0.576-0.205 0.861-0.16 0.045 0.010 0.163 0.022 0.259 0.035 0.915 0.099 2.15 0.278 2.912 0.419 0.554 0.102 1.312 0.269 1.379 0.304 0.070 0.035 0.099 0.33 0.096 0.89-0.003 0.419-0.006 0.483-0.067 0.957-0.042 0.314-0.045 0.304 0.058 0.24 0.467-0.294 1.005-0.81 1.213-1.158 0.205-0.342 0.272-0.573 0.275-0.931 0.003-0.579-0.176-0.941-0.666-1.334-0.285-0.227-0.918-0.557-1.344-0.698-0.506-0.166-1.238-0.326-1.744-0.381-0.080-0.010-0.23-0.026-0.336-0.038-0.333-0.038-1.424-0.032-1.856 0.006z"></path>
<path fill="#ff7900" d="M18.432 27.078c-1.731 0.176-3.11 1.072-2.784 1.808 0.144 0.33 0.502 0.528 1.184 0.662 0.352 0.070 1.312 0.048 1.776-0.042 1.11-0.208 2.010-0.71 2.256-1.261 0.234-0.512-0.237-0.97-1.162-1.13-0.333-0.058-0.915-0.077-1.27-0.038z"></path>
</svg>
