<!-- Generated by IcoMoon.io -->
<svg version="1.1" xmlns="http://www.w3.org/2000/svg" width="32" height="32" viewBox="0 0 32 32">
<title>Link</title>
<path fill="#ff7900" d="M22.464 2.451c-1.171 0.16-2.246 0.621-3.168 1.36-0.15 0.118-1.581 1.53-3.184 3.133-2.326 2.326-2.893 2.909-2.816 2.896 0.464-0.086 1.533-0.083 2.112 0.003 0.544 0.083 0.896 0.166 1.418 0.336l0.397 0.131 2.003-2.003c1.104-1.101 2.083-2.061 2.179-2.128 0.32-0.237 0.685-0.406 1.155-0.534 0.298-0.083 1.11-0.083 1.424 0 1.174 0.307 1.994 1.094 2.339 2.243 0.080 0.262 0.086 0.336 0.090 0.816 0 0.451-0.010 0.566-0.070 0.794-0.128 0.477-0.349 0.906-0.63 1.238-0.074 0.090-1.456 1.482-3.069 3.094-3.142 3.139-3.165 3.158-3.715 3.395-0.285 0.118-0.333 0.134-0.736 0.218-0.218 0.045-0.784 0.042-1.040-0.003-0.627-0.112-1.2-0.403-1.696-0.864-0.368-0.346-0.787-0.502-1.251-0.47-0.39 0.029-0.726 0.182-0.998 0.458-0.282 0.288-0.438 0.64-0.454 1.037-0.029 0.63 0.227 1.066 0.976 1.664 0.96 0.762 1.994 1.187 3.328 1.36 0.179 0.022 1.050 0.022 1.264-0.003 0.842-0.093 1.706-0.365 2.435-0.771 0.733-0.406 0.79-0.458 4.134-3.798 2.115-2.109 3.197-3.21 3.363-3.427 0.934-1.197 1.392-2.611 1.338-4.112-0.038-0.982-0.253-1.814-0.682-2.656-0.902-1.766-2.64-3.050-4.557-3.36-0.131-0.022-0.269-0.045-0.304-0.054-0.173-0.038-1.27-0.032-1.584 0.010z"></path>
<path fill="#ff7900" d="M14 11.363c-1.398 0.080-2.598 0.541-3.68 1.418-0.141 0.112-1.648 1.6-3.347 3.306-3.242 3.251-3.334 3.35-3.715 4.013-0.394 0.682-0.611 1.28-0.765 2.106-0.054 0.291-0.070 0.502-0.074 0.979-0.003 0.333 0.010 0.701 0.022 0.816 0.333 2.768 2.406 4.986 5.126 5.491 0.432 0.080 0.618 0.093 1.248 0.090 0.646-0.003 0.941-0.042 1.536-0.195 0.762-0.198 1.523-0.566 2.189-1.056 0.147-0.112 1.395-1.331 3.229-3.158 2.573-2.57 3.091-3.098 2.96-3.018-0.051 0.032-0.582 0.067-1.002 0.067-0.413 0.003-1.11-0.035-1.152-0.061-0.013-0.006-0.122-0.029-0.243-0.048-0.333-0.051-0.854-0.182-1.222-0.31l-0.326-0.112-2.016 2.016c-2.176 2.173-2.253 2.24-2.816 2.477-0.432 0.182-0.71 0.234-1.264 0.23-0.445 0-0.506-0.006-0.832-0.106-1.101-0.323-1.904-1.158-2.202-2.285-0.099-0.381-0.099-1.104 0.003-1.51 0.086-0.352 0.33-0.854 0.544-1.136 0.086-0.115 1.498-1.546 3.13-3.178 3.206-3.203 3.226-3.219 3.779-3.443 0.522-0.208 1.11-0.282 1.642-0.208 0.688 0.099 1.238 0.368 1.792 0.877 0.384 0.352 0.778 0.502 1.232 0.47 0.32-0.022 0.522-0.093 0.771-0.259 0.486-0.323 0.755-0.88 0.704-1.443-0.038-0.445-0.189-0.726-0.589-1.11-1.037-0.998-2.49-1.635-3.894-1.709-0.176-0.010-0.342-0.019-0.368-0.022s-0.205 0.003-0.4 0.013z"></path>
</svg>
