<!-- Generated by IcoMoon.io -->
<svg version="1.1" xmlns="http://www.w3.org/2000/svg" width="32" height="32" viewBox="0 0 32 32">
<title>livebox</title>
<path fill="#ff7900" d="M15.44 3.792c-0.406 0.077-0.854 0.262-1.216 0.506-0.106 0.070-0.637 0.573-1.181 1.117l-0.989 0.986h-4.054v4.029l-0.374 0.371c-0.208 0.205-1.283 1.277-2.39 2.378l-2.013 2.006 4.778 0.016 0.006 5.018 0.010 5.014 0.070 0.208c0.282 0.861 0.835 1.418 1.67 1.677 0.208 0.064 0.259 0.064 6.163 0.070 6.48 0.010 6.147 0.016 6.589-0.17 0.762-0.32 1.309-1.002 1.456-1.814 0.026-0.131 0.035-1.747 0.035-5.098v-4.906l4.784-0.016-0.71-0.704c-0.858-0.851-7.952-7.904-9.21-9.158-0.496-0.496-0.986-0.954-1.101-1.030-0.278-0.189-0.669-0.368-0.995-0.451-0.336-0.086-0.992-0.112-1.328-0.048zM20.266 11.245c0.176 0.064 0.33 0.195 0.429 0.365l0.090 0.15v1.44c0 1.613 0.013 1.523-0.237 1.773-0.221 0.221-0.275 0.227-1.632 0.227h-1.203l-1.712 1.712v2.979l0.854 0.854 0.858 0.854h0.8c0.934 0 1.030 0.019 1.251 0.246 0.224 0.227 0.237 0.304 0.237 1.354 0 1.056-0.013 1.136-0.243 1.363-0.218 0.221-0.32 0.237-1.373 0.237-1.034 0-1.12-0.016-1.344-0.24-0.221-0.218-0.24-0.32-0.24-1.248v-0.803l-1.709-1.709h-1.606c-1.738 0-1.754 0-1.987-0.179-0.058-0.042-0.144-0.147-0.192-0.23l-0.090-0.15v-3.68l0.086-0.147c0.048-0.080 0.138-0.186 0.198-0.234 0.237-0.179 0.243-0.179 1.984-0.179h1.603l1.712-1.712v-1.203c0-1.322 0.003-1.36 0.192-1.597 0.054-0.067 0.173-0.16 0.266-0.205l0.166-0.080h1.36c1.056 0 1.386 0.010 1.482 0.042z"></path>
</svg>
