<!-- Generated by IcoMoon.io -->
<svg version="1.1" xmlns="http://www.w3.org/2000/svg" width="32" height="32" viewBox="0 0 32 32">
<title>livebox_phone</title>
<path fill="#ff7900" d="M15.376 4.547c-0.381 0.080-0.464 0.109-0.784 0.266-0.512 0.253-0.573 0.307-2.381 2.122-0.742 0.742-3.072 3.078-5.184 5.194l-3.834 3.84h4.806v4.928c0 4.381 0.006 4.957 0.051 5.178 0.182 0.89 0.822 1.574 1.731 1.853 0.176 0.051 0.538 0.058 6.106 0.064 5.36 0.010 5.942 0.006 6.176-0.042 0.992-0.202 1.741-0.976 1.904-1.968 0.019-0.134 0.032-1.891 0.032-5.107v-4.906l4.781-0.016-5.379-5.382c-5.808-5.811-5.584-5.6-6.16-5.837-0.406-0.166-0.704-0.23-1.162-0.24-0.32-0.006-0.483 0.006-0.704 0.054zM12.496 14.445c0.202 0.086 0.435 0.339 1.181 1.277 0.512 0.643 0.691 0.95 0.691 1.184 0 0.202-0.147 0.419-0.602 0.89-0.24 0.25-0.448 0.477-0.461 0.506-0.045 0.106-0.022 0.358 0.042 0.538 0.198 0.528 0.704 1.171 1.69 2.157 1.197 1.194 1.962 1.725 2.48 1.725h0.179l0.483-0.464c0.65-0.621 0.826-0.704 1.194-0.563 0.237 0.093 1.523 1.088 1.93 1.494 0.358 0.358 0.381 0.557 0.102 0.909-0.070 0.090-0.387 0.419-0.704 0.73-0.608 0.598-0.723 0.682-1.059 0.742-0.243 0.045-0.79 0.016-1.13-0.061-0.886-0.198-2.138-0.797-3.024-1.446-0.317-0.23-0.726-0.544-0.784-0.595-0.035-0.032-0.186-0.16-0.336-0.288-0.339-0.285-0.982-0.915-1.363-1.338-1.366-1.507-2.317-3.21-2.554-4.582-0.086-0.48-0.045-0.989 0.099-1.27 0.032-0.064 0.349-0.41 0.701-0.765 0.79-0.797 0.954-0.899 1.245-0.778z"></path>
</svg>
