<!-- Generated by IcoMoon.io -->
<svg version="1.1" xmlns="http://www.w3.org/2000/svg" width="32" height="32" viewBox="0 0 32 32">
<title>livebox_info</title>
<path fill="#ff7900" d="M2.4 14.4v8.003l3.2 3.197h24v-19.2h-27.2v8zM16.451 8.090c0.326 0.144 0.547 0.374 0.672 0.707 0.077 0.202 0.090 0.518 0.035 0.723-0.058 0.205-0.234 0.467-0.41 0.611-0.768 0.624-1.939 0.074-1.939-0.909 0-0.278 0.048-0.458 0.182-0.662 0.234-0.371 0.64-0.576 1.075-0.547 0.134 0.010 0.304 0.045 0.384 0.077zM17.293 14.522c-0.003 3.485 0.003 3.654 0.138 3.885 0.096 0.166 0.445 0.278 0.867 0.282h0.102v0.512h-4.8v-0.512l0.090-0.003c0.438-0.006 0.73-0.086 0.864-0.23 0.077-0.086 0.125-0.237 0.154-0.47 0.026-0.23 0.026-5.338-0.003-5.568-0.064-0.579-0.234-0.701-1.014-0.733-0.090-0.003-0.090-0.003-0.090-0.243v-0.24h3.696l-0.003 3.322zM28 21.2v0.4h-21.6v-0.8h21.6v0.4zM27.811 23.274c0.125 0.083 0.189 0.192 0.189 0.326 0 0.198-0.202 0.4-0.4 0.4-0.195 0-0.4-0.202-0.4-0.394 0-0.205 0.198-0.406 0.403-0.406 0.054 0 0.147 0.032 0.208 0.074z"></path>
</svg>
