<!-- Generated by IcoMoon.io -->
<svg version="1.1" xmlns="http://www.w3.org/2000/svg" width="32" height="32" viewBox="0 0 32 32">
<title>live</title>
<path fill="#ff7900" d="M3.606 6.448c-0.592 0.163-1.066 0.666-1.171 1.245-0.026 0.134-0.035 2.627-0.035 8.352 0 8.893-0.013 8.294 0.179 8.688 0.122 0.25 0.454 0.576 0.72 0.701 0.115 0.054 0.307 0.115 0.432 0.134 0.262 0.038 18.915 0.029 19.069-0.010 0.342-0.093 0.749-0.39 0.941-0.691 0.106-0.16 0.211-0.429 0.24-0.598 0.006-0.051 0.016-1.264 0.016-2.694l0.003-2.602 0.218 0.205c0.451 0.426 1.101 1.021 1.67 1.526 0.326 0.291 0.614 0.55 0.643 0.576 0.026 0.026 0.106 0.096 0.176 0.157 0.138 0.122 0.691 0.618 0.717 0.643 0.010 0.010 0.090 0.080 0.176 0.157 0.090 0.077 0.234 0.208 0.32 0.288 0.275 0.253 0.605 0.534 0.688 0.589 0.115 0.074 0.422 0.106 0.55 0.054 0.176-0.070 0.317-0.192 0.381-0.333 0.058-0.128 0.061-0.355 0.061-6.835s-0.003-6.707-0.061-6.835c-0.141-0.31-0.602-0.458-0.912-0.294-0.042 0.022-0.31 0.256-0.598 0.522-0.285 0.262-0.544 0.502-0.573 0.528-0.032 0.029-0.221 0.202-0.422 0.39s-0.394 0.368-0.432 0.4c-0.035 0.032-0.234 0.214-0.445 0.41-0.582 0.541-1.059 0.982-1.245 1.152-0.33 0.304-0.742 0.685-0.819 0.762l-0.093 0.093v-2.653c0-2.275-0.006-2.678-0.048-2.842-0.138-0.528-0.467-0.909-0.986-1.133l-0.198-0.083-9.504-0.006c-7.802-0.003-9.533 0.003-9.658 0.038zM5.248 12.726c0.010 0.022 0.016 1.213 0.013 2.65 0 2.339 0.003 2.608 0.048 2.611 0.029 0.003 0.733 0.006 1.565 0.010 1.104 0.003 1.52 0.013 1.536 0.042 0.016 0.026 0.026 1.018 0.010 1.136-0.003 0.016-1.030 0.026-2.288 0.026-1.798 0-2.288-0.010-2.298-0.042-0.006-0.019-0.010-1.478-0.010-3.238l0.003-3.2 0.317-0.016c0.589-0.029 1.088-0.019 1.104 0.022zM10.656 15.942v3.258h-1.424v-6.493l0.112-0.010c0.061-0.006 0.381-0.010 0.714-0.010h0.598v3.254zM12.688 12.71c0.010 0.010 0.179 0.534 0.56 1.738 0.048 0.157 0.182 0.582 0.298 0.944 0.621 1.949 0.608 1.907 0.634 1.824 0.17-0.538 0.522-1.645 0.557-1.744 0.022-0.070 0.154-0.474 0.288-0.896 0.605-1.894 0.595-1.872 0.669-1.872 0.803-0.019 1.395-0.010 1.395 0.016 0 0.019-0.086 0.285-0.189 0.592s-0.57 1.712-1.037 3.12c-0.47 1.408-0.867 2.608-0.89 2.662l-0.035 0.106h-1.613l-0.054-0.186c-0.032-0.099-0.202-0.63-0.378-1.174-0.39-1.197-0.586-1.802-1.053-3.248-0.41-1.274-0.579-1.792-0.598-1.846-0.010-0.026 0.032-0.042 0.125-0.048 0.186-0.013 1.306-0.003 1.322 0.013zM22.403 12.704h0.115l0.003 0.592v0.592l-0.083 0.003c-0.048 0-0.806 0.006-1.686 0.010-0.88 0.006-1.613 0.010-1.632 0.013-0.026 0.006-0.042 1.034-0.019 1.325 0.003 0.054 0.099 0.058 1.571 0.058h1.568l-0.006 0.55-0.010 0.554-1.52 0.003c-0.835 0.003-1.542 0.006-1.568 0.010-0.042 0.003-0.048 0.112-0.048 0.778 0 0.579 0.010 0.781 0.038 0.794 0.022 0.010 0.81 0.016 1.754 0.013h1.712v1.203h-4.928l-0.003-0.090c0-0.122 0-6.211 0-6.317 0.003-0.077 0.016-0.086 0.125-0.096 0.086-0.006 3.619-0.003 4.618 0.006z"></path>
</svg>
