<!-- Generated by IcoMoon.io -->
<svg version="1.1" xmlns="http://www.w3.org/2000/svg" width="32" height="32" viewBox="0 0 32 32">
<title>location_pin_compass</title>
<path fill="#ff7900" d="M15.2 2.432c-1.642 0.16-3.21 0.765-4.496 1.741-1.718 1.302-2.909 3.187-3.325 5.267-0.045 0.221-0.090 0.486-0.102 0.592-0.010 0.106-0.029 0.221-0.035 0.256-0.038 0.17-0.035 1.498 0.006 1.856 0.147 1.251 0.477 2.272 1.123 3.45 0.294 0.541 0.358 0.653 0.605 1.11 0.118 0.221 0.256 0.47 0.304 0.56 0.048 0.086 0.445 0.816 0.88 1.616s0.874 1.606 0.976 1.792c0.17 0.31 1.008 1.85 1.27 2.336 0.102 0.189 0.349 0.64 0.586 1.072 0.048 0.086 0.134 0.246 0.192 0.352 0.106 0.198 0.125 0.23 0.592 1.088 0.154 0.282 0.33 0.605 0.39 0.72 0.064 0.115 0.24 0.442 0.397 0.726 0.608 1.11 0.874 1.6 0.938 1.722 0.336 0.618 0.486 0.88 0.502 0.88 0.013 0 0.058-0.070 0.102-0.154 0.045-0.086 0.288-0.534 0.544-1.002 0.253-0.464 0.512-0.938 0.573-1.053 0.064-0.115 0.595-1.094 1.184-2.176 0.592-1.082 1.213-2.227 1.386-2.544 0.346-0.637 0.333-0.614 0.854-1.568 0.202-0.371 0.429-0.787 0.506-0.928 0.157-0.288 0.813-1.491 0.934-1.712 0.045-0.080 0.15-0.275 0.234-0.432 0.083-0.16 0.275-0.512 0.426-0.784s0.304-0.554 0.342-0.624c0.8-1.459 1.043-1.962 1.258-2.592 0.534-1.571 0.595-3.453 0.163-5.040-0.166-0.624-0.301-0.989-0.554-1.52-1.194-2.509-3.459-4.288-6.195-4.864-0.678-0.144-1.869-0.208-2.56-0.144zM16.8 4.848c1.597 0.246 2.832 0.883 3.885 2.003 0.874 0.928 1.485 2.211 1.654 3.469 0.045 0.323 0.058 1.187 0.022 1.552-0.102 1.114-0.608 2.362-1.315 3.258-1.069 1.354-2.573 2.205-4.294 2.422-0.314 0.042-1.318 0.042-1.552 0-0.979-0.166-1.485-0.33-2.202-0.707-1.194-0.627-2.176-1.651-2.762-2.877-0.461-0.966-0.64-1.811-0.621-2.896 0.006-0.307 0.019-0.611 0.032-0.672 0.141-0.842 0.304-1.386 0.605-2 0.435-0.886 1.037-1.632 1.818-2.246 0.899-0.71 2.115-1.203 3.226-1.309 0.115-0.013 0.214-0.026 0.221-0.032 0.019-0.016 1.152 0.013 1.283 0.035z"></path>
<path fill="#ff7900" d="M19.52 7.702c-0.256 0.112-0.522 0.23-0.592 0.266-0.070 0.032-0.832 0.368-1.696 0.752-1.626 0.72-1.99 0.88-2.208 0.976-0.070 0.032-0.538 0.24-1.040 0.464-0.502 0.221-0.954 0.422-1.008 0.448-0.051 0.022-0.506 0.224-1.008 0.448-0.502 0.221-0.979 0.435-1.066 0.47-0.083 0.038-0.141 0.080-0.128 0.093 0.022 0.019 1.405 0.413 2.806 0.797 0.246 0.070 0.454 0.141 0.467 0.16s0.048 0.243 0.077 0.496c0.032 0.256 0.061 0.502 0.070 0.55 0.006 0.051 0.032 0.275 0.061 0.506 0.026 0.227 0.064 0.515 0.080 0.64 0.019 0.122 0.067 0.509 0.112 0.861 0.042 0.349 0.083 0.64 0.090 0.646 0.013 0.013 0.253-0.371 1.92-3.059 0.333-0.538 0.688-1.107 0.787-1.264 0.102-0.16 0.218-0.346 0.259-0.416 0.067-0.115 0.163-0.269 0.368-0.592 0.042-0.061 0.237-0.378 0.438-0.704s0.666-1.072 1.030-1.661c0.365-0.586 0.659-1.069 0.653-1.075s-0.218 0.083-0.474 0.198z"></path>
</svg>
