<!-- Generated by IcoMoon.io -->
<svg version="1.1" xmlns="http://www.w3.org/2000/svg" width="32" height="32" viewBox="0 0 32 32">
<title>lock</title>
<path fill="#ff7900" d="M15.52 2.41c-0.010 0.010-0.112 0.022-0.23 0.035-0.861 0.080-1.907 0.445-2.682 0.938-0.781 0.493-1.526 1.238-2.029 2.026-0.234 0.365-0.512 0.963-0.659 1.408-0.128 0.39-0.269 1.072-0.301 1.456-0.010 0.106-0.016 1.168-0.019 2.358v2.17h-3.2v7.334c0 6.349 0.006 7.366 0.048 7.546 0.179 0.787 0.698 1.421 1.414 1.725 0.474 0.202-0.154 0.189 9.203 0.192l8.534 0.003-0.010-7.414c-0.006-6.912-0.013-7.43-0.064-7.597-0.262-0.861-0.88-1.478-1.715-1.712-0.122-0.032-0.378-0.054-0.787-0.067-0.333-0.010-0.611-0.019-0.614-0.022-0.006-0.003-0.010-1.008-0.013-2.23-0.006-2.282-0.019-2.582-0.144-3.101-0.154-0.643-0.352-1.184-0.608-1.658-0.998-1.84-2.739-3.046-4.829-3.35-0.16-0.022-1.277-0.054-1.296-0.038zM16.784 4.88c0.794 0.166 1.472 0.538 2.048 1.117 0.579 0.582 0.941 1.274 1.101 2.099 0.058 0.317 0.064 0.47 0.064 2.518l0.003 2.186h-8.003l0.010-2.298 0.013-2.294 0.086-0.32c0.144-0.547 0.339-0.973 0.634-1.392 0.218-0.307 0.65-0.739 0.957-0.957 0.474-0.333 1.107-0.598 1.603-0.672 0.131-0.019 0.272-0.042 0.317-0.048 0.17-0.032 0.925 0.010 1.168 0.061zM16.643 16.89c0.291 0.086 0.47 0.17 0.691 0.32 0.637 0.438 1.008 1.098 1.056 1.862 0.051 0.832-0.346 1.635-1.037 2.102-0.192 0.131-0.189 0.122-0.141 0.586 0.016 0.15 0.038 0.371 0.051 0.496 0.010 0.122 0.026 0.266 0.032 0.32 0.006 0.051 0.029 0.262 0.048 0.464s0.042 0.426 0.048 0.496c0.013 0.109 0.058 0.57 0.128 1.296 0.010 0.096 0.022 0.227 0.032 0.288 0.006 0.061 0.022 0.195 0.032 0.298l0.019 0.182h-3.21l0.019-0.138c0.010-0.074 0.048-0.438 0.083-0.806 0.035-0.371 0.070-0.736 0.080-0.816 0.016-0.154 0.038-0.378 0.16-1.6 0.045-0.432 0.080-0.822 0.080-0.867 0-0.067-0.035-0.109-0.17-0.195-0.493-0.326-0.87-0.893-0.992-1.482-0.192-0.938 0.166-1.866 0.938-2.435 0.291-0.214 0.634-0.362 1.014-0.429 0.24-0.045 0.797-0.013 1.037 0.058z"></path>
</svg>
