<!-- Generated by IcoMoon.io -->
<svg version="1.1" xmlns="http://www.w3.org/2000/svg" width="32" height="32" viewBox="0 0 32 32">
<title>logistics</title>
<path fill="#ff7900" d="M2.864 8.038c-0.566 0.109-1.104 0.643-1.229 1.226-0.022 0.109-0.032 1.952-0.035 5.846v5.69h20v-5.68c0-4.019-0.010-5.725-0.035-5.846-0.128-0.611-0.653-1.13-1.258-1.238-0.246-0.045-17.206-0.042-17.443 0.003z"></path>
<path fill="#ff7900" d="M22.4 17.6v4l-9.853 0.016 0.179 0.192c0.477 0.506 0.771 1.149 0.848 1.846l0.038 0.346h8.787l0.003-0.144c0.003-0.080 0.006-0.154 0.010-0.17 0.003-0.013 0.019-0.109 0.032-0.211 0.051-0.371 0.246-0.874 0.496-1.258 0.16-0.25 0.598-0.688 0.845-0.854 0.611-0.403 1.19-0.57 1.91-0.55 0.65 0.019 1.152 0.179 1.712 0.55 0.691 0.458 1.248 1.334 1.347 2.125 0.013 0.096 0.026 0.198 0.032 0.224 0.003 0.026 0.010 0.102 0.010 0.173l0.003 0.122 0.522-0.010c0.502-0.013 0.525-0.016 0.672-0.102 0.176-0.102 0.326-0.294 0.374-0.474 0.022-0.083 0.032-1.293 0.022-3.635-0.010-3.494-0.010-3.514-0.080-3.754-0.182-0.63-0.422-1.053-0.842-1.478-0.445-0.448-1.014-0.758-1.629-0.883-0.288-0.061-0.451-0.064-2.87-0.067l-2.57-0.003v4zM27.574 15.248c0.579 0.15 1.027 0.595 1.178 1.168 0.032 0.122 0.045 0.413 0.048 1.075l0.003 0.909h-4.803v-3.2h1.696c1.405 0 1.725 0.010 1.878 0.048z"></path>
<path fill="#ff7900" d="M4.464 21.622c-1.35 0.195-2.294 1.526-2.016 2.838 0.102 0.48 0.298 0.854 0.627 1.203 0.736 0.774 1.942 0.954 2.896 0.429 0.541-0.298 0.982-0.861 1.149-1.475 0.029-0.102 0.058-0.336 0.070-0.522 0.016-0.282 0.006-0.381-0.054-0.624-0.23-0.947-0.925-1.622-1.869-1.821-0.202-0.042-0.614-0.058-0.803-0.029z"></path>
<path fill="#ff7900" d="M10.064 21.622c-0.368 0.051-0.829 0.243-1.11 0.464-0.429 0.336-0.714 0.755-0.864 1.27-0.093 0.317-0.099 0.938-0.016 1.245 0.243 0.874 0.922 1.53 1.798 1.734 1.030 0.24 2.115-0.246 2.63-1.184 0.56-1.011 0.288-2.326-0.63-3.043-0.499-0.39-1.178-0.573-1.808-0.486z"></path>
<path fill="#ff7900" d="M25.072 21.664c-1.011 0.221-1.789 1.12-1.859 2.154-0.083 1.203 0.694 2.253 1.872 2.522 0.966 0.221 1.968-0.189 2.518-1.030 0.787-1.203 0.352-2.806-0.934-3.45-0.496-0.25-1.040-0.314-1.597-0.195z"></path>
</svg>
