<!-- Generated by IcoMoon.io -->
<svg version="1.1" xmlns="http://www.w3.org/2000/svg" width="32" height="32" viewBox="0 0 32 32">
<title>logout</title>
<path fill="#ff7900" d="M15.245 2.448c-0.906 0.134-1.68 0.426-2.413 0.906-0.362 0.237-0.563 0.406-0.928 0.771-0.87 0.877-1.398 1.926-1.606 3.203-0.051 0.323-0.051 1.392 0.003 1.696 0.109 0.634 0.285 1.178 0.547 1.702 0.752 1.501 2.093 2.586 3.709 3.005 2.029 0.525 4.192-0.096 5.622-1.613 0.787-0.835 1.299-1.862 1.504-3.014 0.070-0.394 0.080-1.44 0.016-1.808-0.058-0.346-0.211-0.922-0.31-1.174-0.579-1.485-1.69-2.64-3.136-3.258-0.477-0.205-0.797-0.294-1.485-0.416-0.237-0.045-1.232-0.042-1.523 0z"></path>
<path fill="#ff7900" d="M10.832 13.581c-0.035 0.022-0.208 0.134-0.384 0.25-1.757 1.136-2.954 3.075-3.206 5.194-0.013 0.122-0.026 1.946-0.026 4.048v3.824l0.083 0.304c0.198 0.71 0.608 1.325 1.165 1.744 0.269 0.202 0.634 0.394 0.934 0.493 0.512 0.17 0.176 0.163 8.080 0.163h7.325l-0.013-5.258c-0.006-2.89-0.022-5.312-0.035-5.382-0.096-0.544-0.195-0.995-0.266-1.216-0.531-1.686-1.6-3.078-3.088-4.013-0.17-0.109-0.326-0.195-0.346-0.195s-0.090 0.048-0.154 0.109c-0.781 0.723-1.984 1.37-3.059 1.638-0.666 0.17-1.085 0.221-1.811 0.221-0.656 0-0.934-0.026-1.478-0.131-0.912-0.176-1.83-0.557-2.618-1.078-0.278-0.186-0.749-0.554-0.861-0.675-0.086-0.093-0.147-0.102-0.243-0.038zM16.88 17.693c1.981 0.397 3.418 1.827 3.84 3.827 0.074 0.346 0.090 1.181 0.029 1.584-0.243 1.603-1.29 3.005-2.736 3.658-0.662 0.301-1.13 0.406-1.869 0.426-0.768 0.016-1.213-0.054-1.862-0.301-1.52-0.579-2.653-1.92-2.989-3.536-0.077-0.381-0.106-1.142-0.058-1.542 0.102-0.813 0.448-1.651 0.944-2.298 0.682-0.886 1.645-1.52 2.691-1.766 0.614-0.147 1.437-0.166 2.010-0.051z"></path>
<path fill="#ff7900" d="M14 19.677c-0.051 0.032-0.25 0.214-0.435 0.406-0.544 0.56-0.554 0.528 0.467 1.549l0.778 0.778-0.749 0.752c-0.413 0.413-0.774 0.784-0.803 0.829-0.064 0.096-0.061 0.314 0.006 0.413 0.109 0.166 0.726 0.746 0.832 0.781 0.221 0.074 0.288 0.026 1.126-0.81l0.778-0.774 0.794 0.794c0.435 0.435 0.813 0.79 0.838 0.794 0.026 0 0.077 0.006 0.112 0.013 0.141 0.029 0.275-0.061 0.637-0.419 0.397-0.397 0.454-0.496 0.4-0.698-0.022-0.083-0.224-0.304-0.797-0.88-0.422-0.422-0.768-0.781-0.768-0.794s0.339-0.365 0.752-0.778c0.707-0.707 0.851-0.886 0.829-1.018-0.003-0.019-0.006-0.067-0.010-0.106-0.003-0.074-0.675-0.778-0.81-0.848-0.128-0.067-0.323-0.058-0.422 0.022-0.048 0.038-0.419 0.4-0.822 0.803l-0.733 0.733-0.733-0.73c-0.4-0.403-0.771-0.765-0.819-0.803-0.112-0.090-0.317-0.093-0.448-0.010z"></path>
</svg>
