<!-- Generated by IcoMoon.io -->
<svg version="1.1" xmlns="http://www.w3.org/2000/svg" width="32" height="32" viewBox="0 0 32 32">
<title>Maintenance_man</title>
<path fill="#ff7900" d="M15.245 2.448c-0.906 0.134-1.68 0.426-2.413 0.906-0.362 0.237-0.563 0.406-0.928 0.771-0.87 0.877-1.398 1.926-1.606 3.203-0.051 0.323-0.051 1.392 0.003 1.696 0.109 0.634 0.285 1.178 0.547 1.702 0.752 1.501 2.093 2.586 3.709 3.005 2.029 0.525 4.192-0.096 5.622-1.613 0.787-0.835 1.299-1.862 1.504-3.014 0.070-0.394 0.080-1.44 0.016-1.808-0.058-0.346-0.211-0.922-0.31-1.174-0.579-1.485-1.69-2.64-3.136-3.258-0.477-0.205-0.797-0.294-1.485-0.416-0.237-0.045-1.232-0.042-1.523 0z"></path>
<path fill="#ff7900" d="M10.832 13.581c-0.035 0.022-0.208 0.134-0.384 0.25-1.757 1.136-2.954 3.075-3.206 5.194-0.013 0.122-0.026 1.946-0.026 4.048v3.824l0.083 0.304c0.198 0.71 0.608 1.325 1.165 1.744 0.269 0.202 0.634 0.394 0.934 0.493 0.512 0.17 0.176 0.163 8.080 0.163h7.325l-0.013-5.258c-0.006-2.89-0.022-5.312-0.035-5.382-0.096-0.544-0.195-0.995-0.266-1.216-0.531-1.686-1.6-3.078-3.088-4.013-0.17-0.109-0.326-0.195-0.346-0.195s-0.090 0.048-0.154 0.109c-0.781 0.723-1.984 1.37-3.059 1.638-0.666 0.17-1.085 0.221-1.811 0.221-0.656 0-0.934-0.026-1.478-0.131-0.912-0.176-1.83-0.557-2.618-1.078-0.278-0.186-0.749-0.554-0.861-0.675-0.086-0.093-0.147-0.102-0.243-0.038zM16.355 18.451c0.301 0.064 0.765 0.288 0.976 0.467 0.365 0.31 0.634 0.726 0.749 1.155 0.077 0.278 0.106 0.749 0.061 0.941l-0.026 0.122 2.442 2.448c1.882 1.885 2.458 2.48 2.509 2.592 0.112 0.253 0.144 0.416 0.122 0.666-0.080 0.954-1.174 1.478-1.952 0.934-0.074-0.051-1.203-1.162-2.509-2.474l-2.381-2.381-0.131 0.026c-0.074 0.013-0.259 0.019-0.413 0.013-0.992-0.042-1.802-0.669-2.106-1.632-0.096-0.301-0.112-0.838-0.038-1.146l0.054-0.214 0.704 0.707c0.387 0.387 0.746 0.726 0.797 0.749 0.058 0.026 0.128 0.032 0.179 0.016 0.090-0.026 1.168-1.082 1.235-1.21 0.080-0.154 0.010-0.246-0.742-1.002l-0.723-0.723 0.189-0.035c0.102-0.022 0.214-0.042 0.25-0.051 0.157-0.032 0.541-0.016 0.755 0.032z"></path>
</svg>
