<!-- Generated by IcoMoon.io -->
<svg version="1.1" xmlns="http://www.w3.org/2000/svg" width="32" height="32" viewBox="0 0 32 32">
<title>manage_android</title>
<path fill="#ff7900" d="M15.194 2.416c-0.003 0.003-0.147 0.019-0.314 0.029-0.166 0.013-0.333 0.029-0.368 0.035s-0.134 0.022-0.224 0.032c-0.211 0.022-0.342 0.045-0.832 0.125-0.035 0.003-0.099 0.019-0.144 0.029s-0.218 0.051-0.384 0.086c-0.592 0.131-1.597 0.445-2 0.624-0.051 0.026-0.189 0.083-0.304 0.128-0.57 0.234-1.491 0.733-2.115 1.149-0.515 0.342-0.605 0.406-1.043 0.765-1.968 1.59-3.434 3.658-4.288 6.038-0.24 0.675-0.493 1.648-0.586 2.266-0.080 0.509-0.093 0.611-0.112 0.822-0.013 0.122-0.029 0.266-0.038 0.32-0.029 0.182-0.035 1.795-0.010 2.112 0.032 0.368 0.096 0.963 0.115 1.056 0.010 0.035 0.045 0.23 0.080 0.432 0.301 1.725 1.005 3.475 2.010 5.008 0.115 0.176 0.221 0.333 0.237 0.352 0.013 0.016 0.125 0.17 0.25 0.336 0.762 1.018 1.658 1.914 2.669 2.678 0.806 0.605 1.299 0.912 2.195 1.36 1.203 0.598 2.765 1.088 4.013 1.254 0.070 0.010 0.23 0.032 0.352 0.048 0.611 0.083 2.118 0.115 2.736 0.058 1.494-0.138 2.755-0.438 4.048-0.963 0.662-0.272 1.507-0.701 2.032-1.037 0.522-0.333 1.107-0.749 1.379-0.979 0.064-0.054 0.186-0.157 0.272-0.227s0.256-0.221 0.381-0.336c2.144-1.997 3.552-4.49 4.122-7.296 0.102-0.493 0.176-0.963 0.202-1.28 0.010-0.131 0.026-0.275 0.035-0.32 0.029-0.144 0.035-1.798 0.006-2.112-0.035-0.435-0.093-0.918-0.125-1.104-0.016-0.090-0.045-0.253-0.064-0.368-0.262-1.485-0.89-3.165-1.667-4.454-0.189-0.31-0.525-0.835-0.582-0.906-0.013-0.019-0.131-0.176-0.266-0.352-1.76-2.355-4.288-4.090-7.149-4.909-0.72-0.205-1.6-0.374-2.272-0.438-0.115-0.010-0.25-0.026-0.304-0.035-0.106-0.016-1.923-0.042-1.942-0.026zM18.858 7.491c0.016 0.064-0.134 0.304-0.72 1.149-0.077 0.115-0.154 0.224-0.163 0.246-0.016 0.022 0.067 0.083 0.224 0.17 0.387 0.208 0.73 0.467 1.082 0.816 0.659 0.656 1.082 1.478 1.181 2.31l0.022 0.17h-4.835c-3.082 0-4.832-0.010-4.832-0.032 0-0.016 0.029-0.17 0.061-0.342 0.24-1.226 1.037-2.269 2.237-2.928 0.128-0.070 0.23-0.138 0.224-0.15-0.013-0.029-0.416-0.621-0.675-0.989-0.17-0.243-0.214-0.333-0.208-0.406 0.010-0.086 0.019-0.096 0.118-0.096 0.109 0 0.125 0.016 0.582 0.685 0.262 0.374 0.48 0.688 0.486 0.694s0.118-0.026 0.246-0.070c0.72-0.25 1.562-0.339 2.394-0.25 0.368 0.042 1.011 0.189 1.245 0.285 0.096 0.042 0.125 0.042 0.157 0.010 0.035-0.038 0.17-0.234 0.691-1.002 0.118-0.176 0.25-0.336 0.288-0.358 0.086-0.045 0.17-0.006 0.195 0.090zM9.363 13.021c0.266 0.070 0.544 0.314 0.662 0.579 0.115 0.256 0.118 0.339 0.109 2.704l-0.006 2.336-0.086 0.182c-0.362 0.774-1.373 0.896-1.802 0.218-0.182-0.288-0.182-0.278-0.182-2.813 0-2.416 0.003-2.467 0.138-2.726 0.218-0.429 0.672-0.614 1.168-0.48zM22.608 13.069c0.291 0.134 0.493 0.41 0.56 0.755 0.045 0.23 0.042 4.573 0 4.803-0.067 0.355-0.253 0.614-0.554 0.771-0.208 0.109-0.614 0.102-0.861-0.013-0.224-0.102-0.426-0.307-0.534-0.538l-0.083-0.176-0.010-2.365c-0.010-2.518-0.006-2.554 0.144-2.8 0.288-0.467 0.867-0.656 1.338-0.438zM20.49 13.053c0.013 0.003 0.022 1.786 0.019 3.962-0.003 3.274-0.010 3.987-0.048 4.106-0.058 0.192-0.221 0.381-0.432 0.496-0.173 0.096-0.176 0.096-0.771 0.106-0.534 0.010-0.602 0.019-0.605 0.064 0 0.032-0.006 0.614-0.010 1.302-0.006 1.338-0.013 1.395-0.173 1.651-0.186 0.291-0.506 0.477-0.832 0.48-0.362 0.006-0.672-0.15-0.864-0.432-0.198-0.294-0.205-0.371-0.208-1.786v-1.274h-1.779l-0.010 1.35-0.010 1.354-0.083 0.176c-0.435 0.906-1.68 0.787-1.933-0.182-0.038-0.147-0.048-0.432-0.048-1.44v-1.258h-0.554c-0.41 0-0.598-0.013-0.723-0.051-0.269-0.077-0.493-0.32-0.56-0.602-0.026-0.102-0.032-7.971-0.010-8.010 0.013-0.019 9.504-0.032 9.632-0.013z"></path>
<path fill="#ff7900" d="M13.466 9.92c-0.23 0.070-0.378 0.269-0.378 0.512 0 0.304 0.224 0.525 0.528 0.525 0.381 0 0.63-0.378 0.483-0.73-0.102-0.243-0.39-0.384-0.634-0.307z"></path>
<path fill="#ff7900" d="M17.616 9.914c-0.118 0.026-0.278 0.176-0.342 0.32-0.221 0.493 0.39 0.95 0.819 0.611 0.227-0.179 0.256-0.547 0.054-0.778-0.106-0.122-0.352-0.195-0.531-0.154z"></path>
</svg>
