<!-- Generated by IcoMoon.io -->
<svg version="1.1" xmlns="http://www.w3.org/2000/svg" width="32" height="32" viewBox="0 0 32 32">
<title>managing_equipment</title>
<path fill="#ff7900" d="M12.4 2.966c-0.538 0.058-1.475 0.374-2.237 0.762-0.666 0.336-1.056 0.653-1.213 0.979-0.16 0.336-0.134 0.566 0.141 1.245 0.106 0.262 0.214 0.582 0.24 0.71 0.141 0.65-0.109 1.277-0.758 1.92-0.666 0.659-1.29 0.899-1.942 0.746-0.112-0.026-0.416-0.134-0.678-0.24-0.486-0.195-0.749-0.259-0.957-0.234-0.304 0.038-0.662 0.317-0.941 0.736-0.403 0.611-0.886 1.776-1.030 2.467-0.182 0.899 0.010 1.325 0.746 1.638 0.17 0.070 0.461 0.205 0.646 0.294 0.554 0.269 0.838 0.614 0.995 1.21 0.061 0.23 0.074 0.352 0.074 0.8 0 0.608-0.067 0.957-0.243 1.286-0.221 0.416-0.502 0.634-1.178 0.918-0.643 0.272-0.861 0.426-1.005 0.698-0.208 0.403-0.102 1.114 0.336 2.218 0.416 1.059 0.88 1.75 1.309 1.962 0.317 0.154 0.582 0.131 1.136-0.096 0.579-0.237 0.806-0.301 1.107-0.317 0.406-0.016 0.749 0.093 1.133 0.365 0.282 0.198 0.56 0.461 0.771 0.723 0.39 0.486 0.55 0.915 0.512 1.363-0.022 0.294-0.070 0.454-0.262 0.934-0.198 0.49-0.24 0.637-0.243 0.874-0.010 0.611 0.63 1.139 2.086 1.718 1.571 0.627 2.291 0.57 2.682-0.221 0.051-0.102 0.112-0.237 0.134-0.298s0.083-0.202 0.134-0.314c0.048-0.112 0.090-0.211 0.090-0.221 0-0.042 0.294-0.451 0.39-0.544 0.224-0.214 0.624-0.4 1.018-0.474 0.061-0.013 0.314-0.026 0.56-0.032 0.992-0.022 1.638 0.266 2.003 0.896 0.061 0.106 0.182 0.358 0.266 0.56 0.086 0.202 0.189 0.432 0.234 0.512 0.122 0.224 0.32 0.41 0.522 0.483 0.186 0.074 0.566 0.099 0.768 0.058 0.061-0.013 0.198-0.042 0.304-0.061 0.362-0.074 1.107-0.346 1.648-0.605 1.181-0.563 1.597-1.046 1.462-1.699-0.016-0.080-0.115-0.355-0.218-0.614-0.285-0.707-0.333-1.011-0.234-1.437 0.147-0.634 0.88-1.466 1.59-1.808 0.525-0.253 0.982-0.221 1.786 0.115 0.63 0.266 0.918 0.298 1.242 0.138 0.55-0.269 1.171-1.357 1.635-2.874 0.099-0.323 0.138-0.848 0.080-1.088-0.051-0.224-0.115-0.336-0.282-0.486-0.163-0.15-0.246-0.195-0.758-0.413-0.496-0.208-0.72-0.342-0.928-0.557-0.371-0.378-0.538-0.89-0.538-1.648 0-0.944 0.266-1.536 0.858-1.91 0.096-0.061 0.39-0.202 0.653-0.314 0.659-0.282 0.848-0.435 0.966-0.79 0.157-0.467 0.006-1.219-0.474-2.33-0.611-1.418-1.13-1.926-1.827-1.802-0.090 0.016-0.374 0.115-0.634 0.221-0.71 0.285-1.008 0.333-1.414 0.24-0.784-0.182-1.75-1.136-1.955-1.933-0.102-0.394-0.048-0.739 0.23-1.434 0.208-0.515 0.266-0.755 0.24-0.957-0.070-0.557-0.662-1.034-1.958-1.571-0.586-0.246-1.126-0.41-1.507-0.454-0.531-0.064-0.822 0.013-1.078 0.291-0.15 0.163-0.192 0.237-0.426 0.79-0.093 0.221-0.227 0.49-0.294 0.598-0.374 0.595-1.030 0.861-2.042 0.829-0.678-0.022-1.162-0.192-1.498-0.525-0.23-0.224-0.355-0.438-0.595-1.008-0.253-0.598-0.461-0.851-0.771-0.947-0.131-0.038-0.438-0.061-0.608-0.045zM17.926 10.218c0.717 0.352 0.704 1.373-0.019 1.715-0.115 0.054-0.234 0.077-0.448 0.086-0.266 0.013-0.358 0.022-0.643 0.064-1.165 0.179-2.285 1.002-2.854 2.093-0.787 1.51-0.512 3.408 0.675 4.618 0.65 0.659 1.43 1.050 2.387 1.194 0.045 0.006 0.218 0.019 0.39 0.026 0.432 0.019 0.662 0.125 0.864 0.4 0.342 0.464 0.17 1.146-0.352 1.402-0.157 0.077-0.224 0.090-0.486 0.096-0.602 0.010-1.344-0.128-1.984-0.365-1.424-0.531-2.586-1.581-3.248-2.938-0.186-0.384-0.4-0.995-0.467-1.338l-0.042-0.214h-0.608c-0.771 0-0.944-0.042-1.184-0.278-0.454-0.448-0.358-1.174 0.205-1.507 0.163-0.096 0.298-0.112 0.96-0.115l0.592-0.003 0.026-0.144c0.189-0.982 0.531-1.766 1.114-2.544 1.091-1.453 2.861-2.346 4.637-2.336 0.266 0 0.326 0.010 0.486 0.090zM18.077 13.219c0.96 0.154 1.77 0.8 2.16 1.725l0.086 0.208 0.65 0.003c0.749 0.003 0.883 0.032 1.12 0.24 0.368 0.326 0.429 0.88 0.134 1.27-0.134 0.186-0.371 0.326-0.621 0.374-0.029 0.006-0.352 0.013-0.714 0.013l-0.662 0.003-0.051 0.134c-0.090 0.218-0.326 0.56-0.541 0.774-0.246 0.25-0.397 0.365-0.666 0.512-0.643 0.352-1.379 0.438-2.099 0.243-1.187-0.323-2.026-1.382-2.070-2.618-0.045-1.274 0.749-2.394 1.978-2.79 0.381-0.125 0.89-0.16 1.296-0.093z"></path>
</svg>
