<!-- Generated by IcoMoon.io -->
<svg version="1.1" xmlns="http://www.w3.org/2000/svg" width="32" height="32" viewBox="0 0 32 32">
<title>Map</title>
<path fill="#ff7900" d="M3.21 15.014c0.006 9.702 0.010 10.227 0.064 10.403 0.243 0.797 0.774 1.363 1.542 1.651 0.362 0.134-0.051 0.131 12.291 0.131h11.693l-0.003-10.138c-0.003-9.61-0.006-10.147-0.058-10.39-0.195-0.864-0.829-1.523-1.715-1.789l-0.224-0.067-23.6-0.016 0.010 10.214zM14.544 6.208l0.608 0.608-1.136 1.136-1.174-1.178-1.178-1.174h2.272l0.608 0.608zM12.458 14.042l-8.442 8.438-0.010-1.686-0.006-1.69 13.488-13.498 3.408-0.006-8.438 8.442zM7.786 14.182l-0.57 0.57-3.216-3.216v-2.272l4.352 4.352-0.566 0.566zM28 10.4v0.8h-3.664l-2.4 2.4 6.064 6.064v2.272l-7.2-7.2-4.928 4.928 0.061 0.24c0.077 0.288 0.070 0.784-0.013 1.053l-0.054 0.173 5.27 5.27h-2.272l-4.134-4.134-0.189 0.058c-0.262 0.080-0.826 0.080-1.082 0.003l-0.189-0.061-4.134 4.134h-2.272l5.27-5.27-0.061-0.189c-0.077-0.256-0.077-0.819 0.003-1.082l0.058-0.189-2.086-2.086 0.566-0.57 0.57-0.566 2.086 2.086 0.173-0.051c0.307-0.093 0.71-0.102 1.021-0.022l0.272 0.067 4.928-4.928-2.816-2.816 0.57-0.566 0.566-0.57 2.816 2.816 2.864-2.864h4.336v0.8z"></path>
</svg>
