<!-- Generated by IcoMoon.io -->
<svg version="1.1" xmlns="http://www.w3.org/2000/svg" width="32" height="32" viewBox="0 0 32 32">
<title>Medal</title>
<path fill="#ff7900" d="M6.694 7.501l4.298 4.301 0.176-0.099c0.442-0.243 0.586-0.317 0.912-0.464 0.813-0.368 1.722-0.627 2.592-0.742 0.16-0.019 0.323-0.045 0.368-0.054 0.15-0.029 1.52-0.035 1.792-0.006 0.851 0.086 1.587 0.243 2.288 0.486 0.374 0.128 0.819 0.307 0.864 0.346 0.016 0.016 0.048 0.029 0.070 0.029s-1.779-1.821-4.006-4.048l-4.048-4.048h-9.603l4.298 4.301z"></path>
<path fill="#ff7900" d="M18.275 4.918l-1.709 1.712 4.803 4.803 8.234-8.234-9.619 0.003-1.709 1.715z"></path>
<path fill="#ff7900" d="M15.389 11.213c-0.006 0.006-0.122 0.019-0.253 0.029-1.453 0.115-3.142 0.768-4.368 1.683-1.83 1.37-3.040 3.325-3.44 5.571-0.141 0.784-0.157 2-0.035 2.784 0.326 2.099 1.286 3.878 2.851 5.28 1.328 1.19 2.931 1.923 4.768 2.176 0.336 0.048 1.53 0.067 1.866 0.032 1.437-0.154 2.573-0.525 3.76-1.229 0.323-0.195 0.979-0.666 1.222-0.883 1.117-0.998 1.891-2.090 2.416-3.402 0.253-0.64 0.483-1.514 0.544-2.086 0.013-0.106 0.029-0.227 0.038-0.272 0.038-0.186 0.032-1.472-0.010-1.824-0.186-1.616-0.742-3.043-1.68-4.31-1.082-1.459-2.621-2.57-4.339-3.123-0.595-0.195-0.918-0.266-1.786-0.394-0.138-0.019-1.536-0.048-1.555-0.032zM16.8 13.645c0.061 0.013 0.243 0.045 0.4 0.070 1.645 0.288 3.2 1.334 4.163 2.797 0.522 0.797 0.893 1.821 0.995 2.752 0.032 0.304 0.032 1.197 0 1.472-0.224 1.891-1.267 3.574-2.87 4.627-1.014 0.666-2.109 0.998-3.36 1.021-1.155 0.022-2.246-0.234-3.146-0.742-0.106-0.058-0.192-0.106-0.198-0.106s-0.125-0.074-0.262-0.163c-1.222-0.806-2.125-1.968-2.582-3.328-0.246-0.736-0.323-1.238-0.323-2.093 0-0.65 0.045-0.995 0.192-1.568 0.294-1.136 0.883-2.138 1.747-2.979 0.646-0.624 1.363-1.082 2.205-1.398 0.755-0.288 1.45-0.403 2.336-0.39 0.326 0.006 0.643 0.019 0.704 0.029z"></path>
<path fill="#ff7900" d="M15.862 15.222c-0.061 0.138-0.266 0.566-0.454 0.954-0.186 0.387-0.442 0.918-0.57 1.184-0.125 0.262-0.237 0.49-0.246 0.502s-0.333 0.074-0.72 0.134c-0.387 0.064-0.774 0.128-0.864 0.144-0.086 0.019-0.531 0.093-0.982 0.166l-0.826 0.134 0.202 0.182c0.23 0.208 0.736 0.659 1.078 0.96 0.227 0.198 0.429 0.378 0.608 0.541 0.045 0.042 0.205 0.182 0.362 0.317 0.154 0.134 0.278 0.256 0.278 0.275 0 0.029-0.781 3.194-0.822 3.328-0.016 0.058-0.013 0.058 0.090-0.003 0.061-0.035 0.211-0.118 0.333-0.186 0.125-0.067 0.282-0.154 0.352-0.192 0.131-0.074 0.448-0.246 0.736-0.4 0.090-0.048 0.48-0.262 0.874-0.477l0.71-0.39 0.57 0.31c0.31 0.173 0.611 0.336 0.666 0.368 0.058 0.032 0.24 0.128 0.406 0.221 0.166 0.090 0.563 0.304 0.877 0.477s0.573 0.314 0.576 0.31c0.003-0.003-0.182-0.765-0.416-1.693l-0.419-1.686 0.102-0.090c0.054-0.051 0.15-0.134 0.208-0.186 0.054-0.051 0.218-0.195 0.355-0.317 0.141-0.125 0.298-0.266 0.352-0.314s0.419-0.374 0.813-0.72c0.39-0.346 0.701-0.634 0.688-0.637-0.045-0.013-3.309-0.554-3.341-0.554-0.016 0-0.064-0.077-0.106-0.17-0.077-0.166-0.23-0.486-0.778-1.622-0.157-0.326-0.342-0.71-0.41-0.858-0.070-0.144-0.134-0.262-0.144-0.262-0.013 0-0.074 0.112-0.138 0.246z"></path>
</svg>
