<!-- Generated by IcoMoon.io -->
<svg version="1.1" xmlns="http://www.w3.org/2000/svg" width="32" height="32" viewBox="0 0 32 32">
<title>Medical_app_phone</title>
<path fill="#ff7900" d="M9.226 2.445c-0.579 0.141-1.069 0.646-1.19 1.229-0.051 0.24-0.051 24.413 0 24.653 0.125 0.598 0.64 1.114 1.238 1.238 0.24 0.051 13.213 0.051 13.453 0 0.598-0.125 1.114-0.64 1.238-1.238 0.051-0.24 0.051-24.413 0-24.653-0.118-0.563-0.611-1.082-1.165-1.232-0.054-0.013-3.091-0.029-6.752-0.032-5.245-0.003-6.691 0.003-6.822 0.035zM17.398 3.264c0.115 0.070 0.202 0.211 0.202 0.336s-0.086 0.266-0.202 0.336c-0.096 0.061-0.17 0.064-1.392 0.064-1.424 0-1.421 0-1.542-0.202-0.115-0.189-0.058-0.416 0.138-0.534 0.096-0.061 0.17-0.064 1.398-0.064s1.302 0.003 1.398 0.064zM22.4 15.6v10.8h-12.8v-21.6h12.8v10.8zM16.397 27.309c0.275 0.16 0.422 0.448 0.39 0.765-0.038 0.397-0.317 0.672-0.72 0.717-0.557 0.058-1.008-0.512-0.819-1.043 0.086-0.246 0.282-0.442 0.522-0.518 0.16-0.051 0.47-0.013 0.627 0.080z"></path>
<path fill="#ff7900" d="M12.902 12.061c-0.128 0.032-0.339 0.112-0.47 0.176-0.598 0.294-0.998 0.806-1.171 1.491-0.112 0.438-0.054 0.989 0.147 1.424 0.128 0.272 0.256 0.435 1.024 1.28 0.176 0.195 0.435 0.48 0.576 0.637s0.33 0.368 0.419 0.464c0.141 0.157 0.566 0.627 0.982 1.091 0.074 0.080 0.195 0.218 0.275 0.304 0.080 0.090 0.269 0.298 0.419 0.461 0.15 0.166 0.288 0.317 0.304 0.336 0.096 0.106 0.576 0.646 0.579 0.653 0.006 0.006 0.064-0.048 0.131-0.125 0.067-0.074 0.138-0.15 0.154-0.17 0.019-0.019 0.365-0.403 0.768-0.851s0.742-0.822 0.752-0.832c0.010-0.010 0.211-0.234 0.448-0.496 0.237-0.266 0.438-0.486 0.448-0.496s0.205-0.224 0.432-0.48c0.227-0.256 0.422-0.47 0.432-0.48s0.154-0.166 0.32-0.352c0.166-0.186 0.33-0.365 0.362-0.4 0.102-0.106 0.326-0.467 0.4-0.646 0.394-0.938 0.045-2.093-0.803-2.662-0.73-0.49-1.677-0.509-2.406-0.048-0.221 0.138-0.32 0.224-0.899 0.774-0.157 0.154-0.342 0.326-0.406 0.387l-0.115 0.109-0.154-0.138c-0.083-0.077-0.349-0.326-0.586-0.554-0.518-0.499-0.79-0.685-1.171-0.806-0.365-0.118-0.835-0.138-1.19-0.051z"></path>
</svg>
