<!-- Generated by IcoMoon.io -->
<svg version="1.1" xmlns="http://www.w3.org/2000/svg" width="32" height="32" viewBox="0 0 32 32">
<title>Medical_files</title>
<path fill="#ff7900" d="M3.2 15.094c0 10.566-0.019 9.706 0.227 10.211 0.243 0.502 0.723 0.883 1.296 1.030 0.243 0.064 0.41 0.064 12.163 0.064h11.914v-7.898c0-6.806-0.006-7.926-0.048-8.118-0.154-0.73-0.736-1.331-1.475-1.52-0.243-0.064-0.368-0.064-6.56-0.064h-6.31l-0.070-0.090c-0.038-0.048-0.579-0.765-1.197-1.59l-1.13-1.504-8.81-0.016v9.494zM16.736 12.048c2.432 0.349 4.342 2.166 4.768 4.534 0.221 1.232 0.038 2.461-0.531 3.578-0.278 0.541-0.563 0.931-1.021 1.392-1.024 1.027-2.301 1.584-3.76 1.638-2.522 0.096-4.813-1.542-5.549-3.962-0.182-0.598-0.227-0.966-0.224-1.741 0.003-0.531 0.029-0.742 0.163-1.28 0.467-1.894 1.965-3.437 3.862-3.984 0.698-0.202 1.616-0.272 2.291-0.176z"></path>
<path fill="#ff7900" d="M14.4 14.8v1.2h-2.4v3.2h2.4v2.4h3.2v-2.4h2.4v-3.2h-2.4v-2.4h-3.2v1.2z"></path>
</svg>
