<!-- Generated by IcoMoon.io -->
<svg version="1.1" xmlns="http://www.w3.org/2000/svg" width="32" height="32" viewBox="0 0 32 32">
<title>medical_chart</title>
<path fill="#ff7900" d="M15.696 1.619c-0.035 0.006-0.144 0.029-0.24 0.048-0.384 0.077-0.858 0.342-1.155 0.643-0.186 0.189-0.413 0.522-0.509 0.742l-0.061 0.144-1.981 0.019-0.186 0.128c-0.131 0.093-0.208 0.173-0.269 0.288l-0.080 0.157-0.019 3.411h9.606l-0.010-1.722-0.010-1.718-0.093-0.154c-0.048-0.083-0.138-0.189-0.198-0.234-0.202-0.157-0.333-0.173-1.315-0.173h-0.909l-0.061-0.147c-0.31-0.723-1.005-1.27-1.795-1.414-0.16-0.032-0.611-0.042-0.717-0.019zM16.323 3.27c0.307 0.131 0.496 0.454 0.467 0.794-0.064 0.752-1.021 0.998-1.45 0.374-0.291-0.422-0.093-1.011 0.4-1.197 0.138-0.051 0.422-0.035 0.582 0.029z"></path>
<path fill="#ff7900" d="M6.826 4.845c-0.419 0.102-0.874 0.458-1.043 0.819-0.198 0.416-0.182-0.493-0.182 11.552 0 11.978-0.013 11.12 0.179 11.517 0.115 0.234 0.454 0.573 0.688 0.688 0.394 0.192-0.275 0.179 9.485 0.179 6.32 0 9.021-0.010 9.152-0.035 0.589-0.106 1.088-0.582 1.248-1.184 0.070-0.259 0.070-22.102 0-22.362-0.112-0.429-0.454-0.861-0.816-1.037-0.374-0.179-0.413-0.182-2.246-0.182h-1.69v1.6h3.2v21.6h-17.6v-21.6h3.2v-1.6l-1.702 0.003c-1.248 0-1.75 0.013-1.872 0.042z"></path>
<path fill="#ff7900" d="M13.958 9.962c-0.109 0.064-0.189 0.189-0.234 0.358-0.013 0.051-0.054 0.211-0.093 0.352-0.243 0.934-0.435 1.664-0.608 2.336-0.074 0.282-0.16 0.611-0.192 0.736-0.032 0.122-0.112 0.426-0.176 0.672-0.15 0.576-0.275 1.056-0.403 1.536-0.054 0.211-0.109 0.422-0.115 0.474-0.010 0.048-0.029 0.093-0.042 0.102-0.013 0.006-0.186-0.23-0.384-0.531-0.291-0.438-0.387-0.557-0.483-0.608-0.115-0.058-0.198-0.061-1.277-0.061h-1.152v0.96h1.952l0.592 0.89c0.63 0.947 0.707 1.030 0.941 1.030 0.147 0 0.346-0.112 0.406-0.234 0.032-0.054 0.096-0.253 0.144-0.438s0.138-0.531 0.198-0.768c0.064-0.237 0.195-0.742 0.291-1.12 0.099-0.378 0.198-0.762 0.221-0.848 0.026-0.090 0.141-0.528 0.256-0.976 0.304-1.165 0.304-1.171 0.314-1.146 0.019 0.080 0-0.026 0.237 1.354 0.096 0.544 0.23 1.338 0.304 1.76s0.144 0.838 0.16 0.928c0.080 0.448 0.205 1.184 0.352 2.048 0.090 0.528 0.186 1.014 0.214 1.082 0.074 0.173 0.285 0.291 0.47 0.272 0.173-0.019 0.317-0.125 0.384-0.278 0.029-0.064 0.093-0.266 0.144-0.451s0.208-0.739 0.352-1.232c0.141-0.493 0.272-0.96 0.294-1.040 0.032-0.122 0.042-0.134 0.064-0.080 0.029 0.067 0.438 1.542 0.464 1.677 0.026 0.131 0.134 0.31 0.218 0.368 0.23 0.15 0.57 0.067 0.685-0.166 0.035-0.064 0.195-0.566 0.355-1.11 0.163-0.547 0.301-0.995 0.304-1.002 0.006-0.003 0.115 0.202 0.243 0.461 0.157 0.307 0.269 0.486 0.326 0.531 0.186 0.128 0.467 0.106 0.618-0.054 0.035-0.035 0.25-0.378 0.48-0.762l0.416-0.694h2v-0.96h-1.184c-1.12 0-1.194 0.003-1.312 0.064-0.102 0.051-0.17 0.138-0.403 0.528-0.154 0.256-0.291 0.454-0.304 0.442s-0.16-0.291-0.326-0.618c-0.269-0.531-0.31-0.598-0.426-0.662-0.301-0.173-0.624-0.010-0.726 0.358-0.032 0.118-0.186 0.637-0.294 0.992-0.058 0.192-0.118 0.387-0.131 0.432-0.016 0.058-0.067-0.086-0.208-0.608-0.102-0.378-0.218-0.79-0.253-0.912-0.035-0.125-0.064-0.243-0.064-0.266 0-0.086-0.17-0.288-0.288-0.342-0.291-0.131-0.589 0.038-0.678 0.39-0.054 0.195-0.621 2.189-0.656 2.298-0.016 0.048-0.029 0.029-0.045-0.080-0.016-0.080-0.083-0.477-0.154-0.88-0.070-0.406-0.186-1.069-0.256-1.472-0.067-0.406-0.176-1.030-0.24-1.392-0.112-0.656-0.294-1.725-0.326-1.904-0.080-0.493-0.243-1.395-0.266-1.478-0.038-0.131-0.122-0.218-0.269-0.282-0.15-0.061-0.294-0.054-0.432 0.026z"></path>
<path fill="#ff7900" d="M8.8 23.040v0.64h14.4v-1.28h-14.4v0.64z"></path>
<path fill="#ff7900" d="M8.8 25.28v0.64h14.4v-1.28h-14.4v0.64z"></path>
</svg>
