<!-- Generated by IcoMoon.io -->
<svg version="1.1" xmlns="http://www.w3.org/2000/svg" width="32" height="32" viewBox="0 0 32 32">
<title>Medical_app</title>
<path fill="#ff7900" d="M9.226 2.445c-0.579 0.141-1.069 0.646-1.19 1.229-0.051 0.24-0.051 24.413 0 24.653 0.125 0.598 0.64 1.114 1.238 1.238 0.24 0.051 13.213 0.051 13.453 0 0.598-0.125 1.114-0.64 1.238-1.238 0.051-0.24 0.051-24.413 0-24.653-0.118-0.563-0.611-1.082-1.165-1.232-0.054-0.013-3.091-0.029-6.752-0.032-5.245-0.003-6.691 0.003-6.822 0.035zM17.398 3.264c0.115 0.070 0.202 0.211 0.202 0.336s-0.086 0.266-0.202 0.336c-0.096 0.061-0.17 0.064-1.392 0.064-1.424 0-1.421 0-1.542-0.202-0.115-0.189-0.058-0.416 0.138-0.534 0.096-0.061 0.17-0.064 1.398-0.064s1.302 0.003 1.398 0.064zM22.4 15.6v10.8h-12.8v-21.6h12.8v10.8zM16.4 27.309c0.39 0.23 0.512 0.749 0.266 1.12-0.112 0.17-0.221 0.256-0.413 0.323-0.608 0.214-1.222-0.394-1.005-1.005 0.086-0.246 0.282-0.442 0.522-0.518 0.16-0.051 0.47-0.013 0.63 0.080z"></path>
<path fill="#ff7900" d="M15.488 11.222c-0.262 0.029-0.768 0.144-1.037 0.237-1.715 0.592-2.941 2.070-3.203 3.869-0.054 0.381-0.038 1.165 0.029 1.536 0.317 1.702 1.546 3.126 3.171 3.677 0.806 0.272 1.77 0.326 2.592 0.144 1.018-0.224 2.038-0.851 2.656-1.629 0.070-0.090 0.138-0.166 0.147-0.176 0.013-0.010 0.090-0.122 0.173-0.253 0.358-0.554 0.602-1.178 0.714-1.83 0.080-0.461 0.077-1.242-0.006-1.677-0.272-1.398-1.146-2.611-2.384-3.309-0.701-0.397-1.402-0.582-2.227-0.595-0.282-0.003-0.563 0-0.624 0.006zM16.8 14v1.2h2.4v1.6h-2.4v2.4h-1.6v-2.4h-2.4v-1.6h2.4v-2.4h1.6v1.2z"></path>
</svg>
