<!-- Generated by IcoMoon.io -->
<svg version="1.1" xmlns="http://www.w3.org/2000/svg" width="32" height="32" viewBox="0 0 32 32">
<title>menu</title>
<path fill="#ff7900" d="M3.341 6.432c-0.342 0.067-0.666 0.333-0.826 0.669-0.086 0.189-0.099 0.243-0.099 0.499 0 0.262 0.010 0.307 0.106 0.502 0.134 0.272 0.317 0.454 0.582 0.582l0.208 0.099h25.376l0.208-0.099c0.262-0.128 0.464-0.326 0.582-0.576 0.285-0.608 0.032-1.299-0.582-1.594l-0.208-0.099-12.608-0.003c-6.934-0.003-12.669 0.006-12.739 0.019z"></path>
<path fill="#ff7900" d="M3.293 14.445c-0.333 0.090-0.602 0.314-0.771 0.643-0.093 0.173-0.102 0.221-0.102 0.496-0.003 0.275 0.006 0.323 0.096 0.512 0.125 0.262 0.323 0.461 0.589 0.589l0.208 0.099h25.376l0.208-0.102c0.234-0.115 0.288-0.157 0.451-0.362 0.173-0.214 0.237-0.416 0.237-0.736 0-0.237-0.013-0.298-0.099-0.48-0.125-0.266-0.323-0.464-0.589-0.589l-0.208-0.099-12.624-0.006c-9.933-0.003-12.656 0.003-12.771 0.035z"></path>
<path fill="#ff7900" d="M3.28 22.445c-0.355 0.112-0.605 0.33-0.765 0.659-0.086 0.186-0.099 0.24-0.099 0.496s0.013 0.31 0.099 0.496c0.125 0.262 0.323 0.461 0.589 0.589l0.208 0.099h25.376l0.208-0.099c0.266-0.125 0.464-0.323 0.589-0.589 0.090-0.186 0.099-0.24 0.099-0.496s-0.010-0.31-0.099-0.496c-0.125-0.262-0.323-0.461-0.589-0.589l-0.208-0.099-12.64-0.006c-10.154-0.003-12.666 0.003-12.768 0.035z"></path>
</svg>
