<!-- Generated by IcoMoon.io -->
<svg version="1.1" xmlns="http://www.w3.org/2000/svg" width="32" height="32" viewBox="0 0 32 32">
<title>messaging_untitled_compose</title>
<path fill="#ff7900" d="M3.2 12.512c0 7.635 0.006 8.541 0.051 8.758 0.189 0.912 0.851 1.619 1.734 1.846 0.298 0.077 0.307 0.080 2.112 0.080l1.702 0.003v4.816l2.403-2.406 2.4-2.41h3.037l-0.106 0.198c-0.061 0.112-0.33 0.611-0.598 1.114-0.605 1.13-0.72 1.341-0.848 1.584-0.058 0.106-0.275 0.509-0.48 0.896-0.208 0.387-0.416 0.774-0.464 0.864-0.048 0.086-0.157 0.288-0.24 0.448-0.083 0.157-0.182 0.336-0.218 0.397-0.064 0.109-0.058 0.106 0.541-0.205 0.333-0.173 0.813-0.419 1.069-0.554 1.043-0.538 1.475-0.762 1.872-0.966 0.23-0.118 0.662-0.342 0.96-0.496 0.301-0.154 0.739-0.381 0.976-0.502l0.432-0.224 1.27-1.277 1.274-1.277h6.72v-6.701l0.525-0.531c0.589-0.592 0.678-0.726 0.714-1.101 0.019-0.224-0.019-0.422-0.128-0.643-0.035-0.070-0.298-0.365-0.586-0.656l-0.525-0.531-0.003-3.453c-0.003-3.766 0-3.67-0.186-4.112-0.259-0.605-0.778-1.107-1.366-1.318-0.448-0.16 0.227-0.15-12.307-0.154h-11.738v8.512zM26.029 5.664c0.557 0.16 0.976 0.592 1.123 1.168 0.042 0.163 0.048 0.576 0.048 2.944v2.752l-7.344 7.344-0.73-0.736-0.726-0.736-4.090-0.003c-2.246 0-4.122-0.006-4.166-0.016-0.65-0.109-1.213-0.662-1.312-1.286-0.029-0.179-0.067-10.698-0.042-11.232l0.016-0.262h8.502c8.358 0 8.506 0 8.72 0.064zM28.451 13.814c0.381 0.384 0.717 0.733 0.746 0.778 0.064 0.096 0.067 0.23 0.006 0.346-0.026 0.048-0.272 0.31-0.547 0.582l-0.499 0.493-0.813-0.813c-0.448-0.448-0.816-0.826-0.816-0.838 0-0.026 1.187-1.232 1.216-1.238 0.010-0.003 0.326 0.31 0.707 0.691zM26.365 15.341c0.221 0.221 0.544 0.534 0.714 0.698s0.326 0.339 0.346 0.39c0.086 0.237 0.301 0.006-4.173 4.483l-4.163 4.166-0.368 0.192c-0.202 0.106-0.611 0.32-0.912 0.474-1.181 0.608-1.549 0.8-1.862 0.963-0.179 0.096-0.333 0.173-0.346 0.173-0.022 0 0.077-0.192 1.094-2.083l0.733-1.363 4.253-4.243c2.339-2.336 4.259-4.246 4.269-4.246 0.006 0 0.195 0.179 0.416 0.397z"></path>
</svg>
