<!-- Generated by IcoMoon.io -->
<svg version="1.1" xmlns="http://www.w3.org/2000/svg" width="32" height="32" viewBox="0 0 32 32">
<title>messaging</title>
<path fill="#ff7900" d="M4 14.118c0 6.685 0.006 7.75 0.048 7.946 0.218 1.027 1.005 1.766 2.048 1.917 0.054 0.006 0.682 0.016 1.402 0.016l1.302 0.003v4.803l2.4-2.403 2.403-2.4h14.397v-7.683c0-5.424-0.010-7.747-0.035-7.907-0.141-0.906-0.813-1.651-1.741-1.933-0.186-0.058-0.65-0.061-11.206-0.067l-11.018-0.010v7.718zM22.672 10.454c0.205 0.067 0.41 0.278 0.48 0.493 0.106 0.31-0.006 0.688-0.25 0.874-0.25 0.192 0.211 0.179-6.899 0.179-7.325 0-6.704 0.022-6.966-0.24-0.41-0.413-0.253-1.11 0.298-1.312 0.102-0.035 1.155-0.045 6.653-0.045 6.003-0.003 6.541 0 6.685 0.051zM22.605 14.432c0.179 0.042 0.371 0.186 0.483 0.365 0.083 0.138 0.096 0.186 0.093 0.4 0 0.278-0.045 0.387-0.234 0.576-0.246 0.246 0.336 0.227-6.96 0.227-5.306-0.003-6.554-0.010-6.65-0.045-0.291-0.106-0.538-0.438-0.538-0.733 0-0.355 0.243-0.691 0.57-0.79 0.122-0.035 13.078-0.038 13.235 0zM16.266 18.451c0.086 0.029 0.211 0.109 0.288 0.186 0.381 0.371 0.304 0.979-0.16 1.254l-0.154 0.093-3.373 0.010c-3.814 0.010-3.574 0.022-3.83-0.237-0.314-0.323-0.31-0.803 0.006-1.12 0.243-0.243 0.038-0.234 3.76-0.234 2.954-0.003 3.331 0.003 3.462 0.048z"></path>
</svg>
