<!-- Generated by IcoMoon.io -->
<svg version="1.1" xmlns="http://www.w3.org/2000/svg" width="32" height="32" viewBox="0 0 32 32">
<title>Message_download</title>
<path fill="#ff7900" d="M7.664 5.638c-0.595 0.112-1.126 0.662-1.232 1.274-0.026 0.144-0.032 1.027-0.026 2.912l0.010 2.704 0.086 0.221c0.051 0.118 0.138 0.285 0.198 0.368 0.173 0.23 8.227 8.227 8.426 8.362 0.387 0.266 0.966 0.336 1.395 0.173 0.122-0.045 0.288-0.128 0.374-0.186s1.29-1.232 2.678-2.605c1.386-1.376 3.245-3.216 4.131-4.093 1.501-1.488 1.616-1.61 1.718-1.821 0.061-0.125 0.125-0.32 0.144-0.435 0.019-0.131 0.032-1.213 0.029-2.88v-2.672l-0.074-0.23c-0.179-0.554-0.589-0.934-1.155-1.082-0.166-0.042-1.123-0.048-8.368-0.045-5.024 0.003-8.237 0.016-8.336 0.035zM17.718 8.835c0.237 0.099 0.288 0.128 0.365 0.211 0.214 0.227 0.205 0.099 0.214 2.384l0.010 2.074h2.349l-2 1.997c-1.856 1.85-2.016 2.003-2.224 2.102-0.195 0.096-0.253 0.109-0.48 0.109s-0.282-0.013-0.48-0.109c-0.208-0.102-0.365-0.25-2.214-2.096-1.094-1.091-1.984-1.99-1.978-1.997 0.006-0.010 0.531-0.016 1.168-0.016h1.152v-1.984c0-1.443 0.010-2.019 0.038-2.115 0.083-0.285 0.253-0.467 0.515-0.55 0.182-0.054 3.43-0.064 3.565-0.010z"></path>
<path fill="#ff7900" d="M4 18.886c0 6.653-0.013 6.234 0.182 6.643 0.102 0.221 0.435 0.56 0.672 0.688 0.362 0.192-0.432 0.182 11.875 0.182h11.27v-13.606l-0.109 0.106c-0.173 0.176-2.282 2.237-2.618 2.56-0.17 0.166-0.566 0.554-0.88 0.861-0.72 0.701-2.72 2.656-3.050 2.976-0.355 0.346-2.374 2.314-3.075 3.002-0.656 0.643-0.835 0.79-1.149 0.947-0.4 0.205-0.723 0.278-1.19 0.278-0.4-0.003-0.752-0.086-1.13-0.272-0.432-0.214-0.038 0.157-4.125-3.875-0.928-0.915-1.93-1.901-2.227-2.192-0.682-0.669-4.090-4.029-4.294-4.237l-0.154-0.154v6.093z"></path>
</svg>
