<!-- Generated by IcoMoon.io -->
<svg version="1.1" xmlns="http://www.w3.org/2000/svg" width="32" height="32" viewBox="0 0 32 32">
<title>messaging_compose_sms</title>
<path fill="#ff7900" d="M3.2 12.512c0 9.434-0.016 8.736 0.208 9.258 0.326 0.755 1.059 1.306 1.875 1.411 0.061 0.010 0.877 0.016 1.814 0.016l1.702 0.003v4.816l4.803-4.816h1.52c0.835 0 1.514 0.010 1.507 0.022-0.022 0.038-0.63 1.168-0.806 1.498-0.083 0.157-0.246 0.461-0.362 0.672-0.112 0.211-0.266 0.493-0.336 0.624s-0.166 0.31-0.214 0.4c-0.048 0.086-0.157 0.288-0.24 0.448-0.083 0.157-0.243 0.454-0.352 0.656s-0.259 0.483-0.336 0.624c-0.074 0.141-0.186 0.349-0.246 0.461l-0.112 0.202 0.458-0.237c0.253-0.134 0.707-0.368 1.005-0.522 0.752-0.387 1.392-0.717 1.92-0.992 0.246-0.128 0.678-0.352 0.96-0.496s0.749-0.387 1.040-0.538l0.528-0.272 1.274-1.274 1.274-1.277h6.717v-6.714l0.522-0.522c0.336-0.342 0.544-0.576 0.592-0.672 0.17-0.349 0.157-0.749-0.032-1.088-0.070-0.125-0.272-0.358-0.592-0.682l-0.49-0.493-0.003-3.453c-0.003-3.766 0.003-3.661-0.189-4.112-0.285-0.666-0.822-1.139-1.568-1.382l-0.208-0.067-23.632-0.016v8.512zM23.453 8.848c0.563 0.198 0.726 0.896 0.307 1.312-0.262 0.262 0.458 0.243-7.824 0.234-7.037-0.010-7.382-0.013-7.482-0.067-0.493-0.269-0.602-0.902-0.218-1.283 0.262-0.262-0.47-0.237 7.75-0.24 6.355-0.003 7.35 0.003 7.466 0.045zM23.459 12.848c0.192 0.067 0.333 0.186 0.435 0.362 0.074 0.125 0.090 0.186 0.090 0.39 0 0.208-0.013 0.262-0.090 0.394-0.106 0.179-0.285 0.317-0.477 0.371-0.106 0.029-1.926 0.035-7.498 0.029-7.146-0.010-7.363-0.013-7.472-0.070-0.061-0.032-0.157-0.109-0.214-0.166-0.17-0.176-0.214-0.291-0.214-0.557-0.003-0.208 0.010-0.259 0.086-0.39 0.102-0.166 0.253-0.298 0.432-0.362 0.099-0.035 1.302-0.045 7.45-0.045 6.464-0.003 7.35 0.003 7.472 0.045zM28.48 13.85c0.733 0.733 0.79 0.806 0.755 0.982-0.010 0.035-0.016 0.074-0.016 0.086-0.003 0.013-0.243 0.262-0.534 0.557l-0.534 0.531-1.651-1.651 0.614-0.618c0.339-0.339 0.621-0.618 0.627-0.618s0.339 0.326 0.739 0.73zM26.518 15.494c0.832 0.813 0.848 0.829 0.89 0.934 0.096 0.23 0.307 0.003-4.163 4.477l-4.17 4.179-0.474 0.246c-0.56 0.288-1.165 0.602-1.914 0.989-0.298 0.154-0.666 0.346-0.813 0.422s-0.272 0.138-0.275 0.131c-0.016-0.013 0.054-0.15 0.496-0.97 0.218-0.406 0.47-0.874 0.557-1.040 0.090-0.17 0.294-0.55 0.451-0.848l0.288-0.544 4.256-4.262c2.342-2.342 4.266-4.262 4.278-4.262 0.013-0.003 0.278 0.246 0.592 0.547zM16.256 16.848c0.339 0.118 0.528 0.397 0.525 0.768 0 0.186-0.016 0.25-0.090 0.378-0.102 0.173-0.25 0.298-0.426 0.362-0.099 0.035-0.816 0.042-3.837 0.045-4.182 0-3.936 0.013-4.186-0.237-0.32-0.32-0.32-0.816 0.003-1.126 0.253-0.246-0.029-0.23 4.141-0.234 3.226-0.003 3.75 0.003 3.869 0.045z"></path>
</svg>
