<!-- Generated by IcoMoon.io -->
<svg version="1.1" xmlns="http://www.w3.org/2000/svg" width="32" height="32" viewBox="0 0 32 32">
<title>messaging_unified</title>
<path fill="#ff7900" d="M3.21 12.614c0.006 8.17 0.010 8.627 0.064 8.803 0.298 0.97 1.062 1.632 2.038 1.766 0.045 0.006 0.848 0.013 1.786 0.013l1.702 0.003v4.8l4.803-4.8h15.197l-0.003-8.538c-0.003-9.354 0.010-8.726-0.192-9.2-0.253-0.595-0.774-1.098-1.36-1.309-0.448-0.16 0.227-0.15-12.31-0.154h-11.734l0.010 8.614zM26.029 5.664c0.557 0.16 0.976 0.592 1.123 1.165 0.042 0.166 0.048 0.883 0.048 5.744 0 3.056 0 5.616 0 5.69v0.138h-4v1.584c0 0.87-0.006 1.584-0.016 1.584s-0.73-0.714-1.597-1.584l-1.578-1.584h-4.883c-3.402 0-4.934-0.010-5.053-0.035-0.093-0.019-0.275-0.086-0.4-0.147-0.419-0.202-0.768-0.672-0.842-1.123-0.019-0.109-0.032-2.458-0.032-5.84v-5.654h8.506c8.362 0 8.509 0 8.723 0.064z"></path>
</svg>
