<!-- Generated by IcoMoon.io -->
<svg version="1.1" xmlns="http://www.w3.org/2000/svg" width="32" height="32" viewBox="0 0 32 32">
<title>microphone</title>
<path fill="#ff7900" d="M15.168 2.467c-0.65 0.102-1.014 0.218-1.6 0.496-1.747 0.838-2.931 2.522-3.136 4.467-0.051 0.477-0.035 8.925 0.016 9.306 0.381 2.787 2.758 4.87 5.552 4.858 1.334-0.006 2.493-0.419 3.542-1.261 1.037-0.835 1.773-2.102 1.981-3.421 0.010-0.054 0.026-0.131 0.038-0.176 0.035-0.134 0.038-9.107 0.003-9.392-0.256-2.048-1.59-3.782-3.498-4.541-0.915-0.368-1.952-0.486-2.899-0.336zM16.502 4.032c1.507 0.195 2.81 1.261 3.286 2.688 0.198 0.602 0.192 0.474 0.202 3.398l0.013 2.682h-8.003l0.003-2.602 0.003-2.598 0.077-0.384c0.163-0.794 0.49-1.408 1.053-1.997 0.861-0.896 2.128-1.344 3.366-1.187z"></path>
<path fill="#ff7900" d="M7.318 13.632c-0.342 0.086-0.646 0.342-0.803 0.672l-0.099 0.208v1.152c0.003 1.267 0.029 1.565 0.211 2.397 0.634 2.89 2.55 5.309 5.216 6.589 0.858 0.413 1.843 0.72 2.685 0.835l0.272 0.038 0.010 1.238 0.006 1.238h-1.466c-0.915 0-1.539 0.013-1.658 0.035-0.605 0.109-1.13 0.627-1.258 1.238-0.019 0.093-0.035 0.384-0.035 0.646v0.48h11.2v-0.48c0-0.262-0.016-0.554-0.035-0.646-0.125-0.595-0.643-1.114-1.238-1.238-0.109-0.022-0.698-0.035-1.654-0.035h-1.488v-2.464l0.074-0.013c0.038-0.010 0.246-0.048 0.461-0.083 1.030-0.176 2.112-0.57 3.069-1.12 2-1.149 3.526-2.998 4.291-5.2 0.141-0.403 0.317-1.088 0.378-1.466 0.026-0.163 0.054-0.326 0.061-0.365 0.045-0.23 0.067-0.758 0.067-1.706v-1.072l-0.106-0.214c-0.131-0.272-0.317-0.454-0.576-0.579-0.602-0.282-1.296-0.029-1.587 0.586l-0.099 0.208-0.022 1.12c-0.022 1.174-0.022 1.171-0.125 1.718-0.205 1.117-0.749 2.282-1.494 3.206-0.394 0.493-1.050 1.082-1.59 1.44-0.374 0.246-1.005 0.586-1.2 0.643-0.045 0.013-0.093 0.035-0.112 0.048-0.093 0.067-0.966 0.323-1.328 0.387-0.957 0.17-2.106 0.147-2.944-0.051-1.078-0.259-2.070-0.742-2.922-1.421-0.544-0.432-1.226-1.206-1.616-1.834-0.211-0.336-0.55-1.072-0.691-1.498-0.125-0.371-0.253-0.922-0.323-1.392-0.013-0.070-0.026-0.467-0.035-0.88-0.029-1.568-0.019-1.466-0.131-1.696-0.192-0.413-0.563-0.666-1.008-0.688-0.128-0.010-0.288 0-0.355 0.016z"></path>
</svg>
