<!-- Generated by IcoMoon.io -->
<svg version="1.1" xmlns="http://www.w3.org/2000/svg" width="32" height="32" viewBox="0 0 32 32">
<title>Microscope</title>
<path fill="#ff7900" d="M19.658 1.638c-0.019 0.022-0.125 0.205-0.237 0.403s-0.24 0.422-0.285 0.499c-0.045 0.074-0.208 0.358-0.365 0.63l-0.285 0.499-0.131-0.048c-0.176-0.061-0.422-0.058-0.57 0.006-0.224 0.096-0.336 0.237-0.717 0.893-0.205 0.355-0.426 0.739-0.493 0.854-0.227 0.387-0.787 1.36-0.87 1.504-0.045 0.080-0.163 0.288-0.266 0.464s-0.339 0.586-0.528 0.912c-0.189 0.326-0.611 1.059-0.944 1.632-0.33 0.573-0.64 1.107-0.685 1.187-0.074 0.131-0.416 0.72-1.114 1.933-0.131 0.227-0.362 0.627-0.512 0.886l-0.272 0.467-0.211-0.122c-0.118-0.067-0.429-0.246-0.691-0.397-0.262-0.154-0.48-0.272-0.486-0.269-0.003 0.006-0.189 0.326-0.413 0.714-0.374 0.653-0.576 0.998-0.726 1.254-0.032 0.054-0.048 0.106-0.035 0.115 0.013 0.006 0.314 0.179 0.666 0.381 0.352 0.205 1.194 0.691 1.872 1.082 0.678 0.394 1.277 0.736 1.328 0.768 0.083 0.048 1.13 0.653 1.45 0.835 0.054 0.035 0.15 0.086 0.208 0.118 0.15 0.086 1.139 0.659 1.27 0.736l0.112 0.067 0.253-0.438c0.138-0.24 0.387-0.675 0.554-0.963s0.323-0.557 0.349-0.595c0.045-0.070 0.042-0.077-0.106-0.166-0.083-0.054-0.368-0.221-0.634-0.371-0.262-0.15-0.506-0.294-0.538-0.32-0.064-0.045-0.102 0.029 0.662-1.286 0.093-0.16 0.339-0.586 0.55-0.95 0.33-0.57 0.387-0.653 0.429-0.618 0.093 0.077 0.592 0.301 0.832 0.368 0.163 0.048 0.362 0.074 0.624 0.080 0.416 0.013 0.605-0.013 0.976-0.131l0.24-0.077 0.282 0.291c1.28 1.338 1.725 3.363 1.136 5.162-0.432 1.312-1.405 2.426-2.666 3.043-1.488 0.726-3.264 0.694-4.72-0.086-0.131-0.070-0.253-0.141-0.272-0.157-0.016-0.016 0.451-0.029 1.146-0.029h1.174v-1.6h-10.4v1.6h3.2v3.2l-0.086 0.003c-0.602 0.016-1.178 0.445-1.427 1.059-0.064 0.163-0.067 0.227-0.080 1.555l-0.010 1.382h17.603v-1.28c0-0.81-0.013-1.338-0.035-1.446-0.112-0.531-0.509-0.986-1.043-1.187-0.182-0.067-0.227-0.070-1.946-0.086l-1.76-0.016 0.272-0.141c1.235-0.64 2.333-1.629 3.114-2.806 0.691-1.046 1.107-2.134 1.309-3.421 0.074-0.47 0.102-1.571 0.054-2.032-0.179-1.664-0.787-3.149-1.821-4.448-0.33-0.413-0.915-0.998-1.293-1.293-0.026-0.019-0.070-0.16-0.096-0.31-0.122-0.659-0.384-1.139-0.877-1.6-0.182-0.17-0.531-0.413-0.659-0.454-0.019-0.006 0.301-0.586 0.707-1.29 0.403-0.701 0.778-1.354 0.826-1.45 0.166-0.317 0.096-0.714-0.173-0.96l-0.125-0.115 0.221-0.374c0.557-0.96 0.957-1.661 0.957-1.68 0-0.016-0.256-0.173-0.57-0.352-0.886-0.506-1.965-1.13-2.074-1.197-0.080-0.048-0.109-0.051-0.131-0.022z"></path>
</svg>
