<!-- Generated by IcoMoon.io -->
<svg version="1.1" xmlns="http://www.w3.org/2000/svg" width="32" height="32" viewBox="0 0 32 32">
<title>mini_games</title>
<path fill="#ff7900" d="M2.4 14.518c0 11.84 0.003 12.128 0.064 12.4 0.211 0.963 0.982 1.69 1.955 1.85 0.138 0.019 4.262 0.032 12.694 0.032h12.486v-12.122c-0.003-8.262-0.013-12.173-0.035-12.294-0.189-0.982-0.925-1.734-1.904-1.936-0.205-0.042-1.738-0.048-12.749-0.048h-12.512v12.118zM26.768 4.89c0.070 0.042 0.173 0.125 0.23 0.186 0.214 0.243 0.202-0.186 0.202 6.067v5.658h-10.858c-12.157 0-11.030 0.022-11.296-0.237-0.269-0.259-0.246 0.262-0.246-6.106v-5.658l21.84 0.016 0.128 0.074zM8.899 19.318c0.256 0.122 0.458 0.32 0.576 0.57s0.118 0.269 0.122 1.046l0.003 0.659 0.746 0.013 0.742 0.010 0.208 0.099c0.269 0.131 0.464 0.323 0.589 0.586 0.086 0.189 0.099 0.243 0.099 0.499s-0.013 0.31-0.099 0.496c-0.125 0.266-0.323 0.464-0.589 0.589l-0.208 0.099-0.742 0.010-0.742 0.013-0.010 0.739-0.010 0.742-0.099 0.208c-0.125 0.266-0.32 0.464-0.586 0.589-0.189 0.090-0.243 0.099-0.499 0.099s-0.31-0.010-0.496-0.099c-0.266-0.128-0.464-0.326-0.589-0.589l-0.099-0.208-0.019-1.485-1.485-0.019-0.208-0.099c-0.259-0.125-0.451-0.314-0.582-0.57-0.093-0.176-0.102-0.224-0.102-0.499-0.003-0.278 0.006-0.323 0.096-0.512 0.128-0.266 0.326-0.464 0.589-0.589l0.208-0.099 1.485-0.019 0.019-1.485 0.099-0.208c0.291-0.608 0.989-0.867 1.584-0.586zM26.122 19.29c0.659 0.221 1.12 0.915 1.069 1.606-0.054 0.685-0.474 1.216-1.126 1.427-0.403 0.131-0.915 0.067-1.309-0.163-0.323-0.189-0.637-0.64-0.72-1.034-0.173-0.835 0.355-1.67 1.19-1.882 0.221-0.058 0.659-0.035 0.896 0.045zM21.926 23.235c0.73 0.15 1.277 0.835 1.274 1.594-0.006 0.723-0.582 1.405-1.293 1.536-0.554 0.102-1.024-0.045-1.427-0.442-0.64-0.63-0.64-1.61-0.003-2.246 0.394-0.394 0.915-0.55 1.45-0.442z"></path>
</svg>
