<!-- Generated by IcoMoon.io -->
<svg version="1.1" xmlns="http://www.w3.org/2000/svg" width="32" height="32" viewBox="0 0 32 32">
<title>mirroring</title>
<path fill="#ff7900" d="M4.416 2.451c-0.605 0.16-1.075 0.656-1.181 1.242-0.026 0.138-0.035 3.738-0.035 12.352 0 10.032 0.010 12.192 0.045 12.323 0.154 0.586 0.598 1.030 1.174 1.184 0.269 0.074 18.070 0.070 18.349 0 0.598-0.154 1.075-0.64 1.197-1.226 0.022-0.115 0.035-0.854 0.035-2.246v-2.080h-1.6v2.4h-17.6v-22.4h11.987l0.035-0.266c0.061-0.432 0.218-0.819 0.477-1.152l0.141-0.182-6.426 0.003c-5.523 0-6.448 0.006-6.598 0.048zM14.006 27.312c0.618 0.362 0.467 1.302-0.234 1.459-0.349 0.077-0.714-0.086-0.87-0.394-0.294-0.57 0.122-1.206 0.758-1.162 0.141 0.010 0.246 0.038 0.346 0.096z"></path>
<path fill="#ff7900" d="M18.816 2.451c-0.518 0.138-0.915 0.499-1.123 1.021l-0.077 0.192-0.019 5.139-1.597 1.6-1.6 1.597 3.2 3.203v3.277c0 2.269 0.010 3.328 0.035 3.446 0.125 0.598 0.64 1.114 1.238 1.238 0.24 0.051 8.413 0.051 8.653 0 0.618-0.128 1.136-0.662 1.242-1.277 0.026-0.15 0.032-2.749 0.026-9.216l-0.010-9.008-0.077-0.192c-0.202-0.502-0.55-0.835-1.043-0.995l-0.224-0.074h-4.224c-3.622 0-4.25 0.006-4.4 0.048zM27.2 12v8h-8v-16h8v8zM23.472 20.854c0.458 0.154 0.659 0.726 0.41 1.152-0.374 0.643-1.376 0.438-1.469-0.301-0.074-0.598 0.483-1.050 1.059-0.851z"></path>
</svg>
