<!-- Generated by IcoMoon.io -->
<svg version="1.1" xmlns="http://www.w3.org/2000/svg" width="32" height="32" viewBox="0 0 32 32">
<title>Missed_call_boxed_arrow</title>
<path fill="#ff7900" d="M10.8 4.013c-0.467 0.125-0.739 0.333-1.443 1.094-0.051 0.058-0.381 0.4-0.733 0.768-0.352 0.365-0.691 0.717-0.752 0.784-0.061 0.064-0.381 0.397-0.707 0.736-0.33 0.342-0.659 0.685-0.733 0.765s-0.406 0.426-0.736 0.768c-0.33 0.342-0.656 0.682-0.72 0.752-0.067 0.070-0.272 0.288-0.461 0.48-0.512 0.531-1.072 1.117-1.747 1.824-0.333 0.352-0.643 0.669-0.685 0.71l-0.077 0.074h5.61l0.003 6.518c0 3.587 0.006 6.55 0.013 6.586s0.019 0.118 0.032 0.186c0.010 0.067 0.048 0.211 0.086 0.32 0.256 0.755 0.867 1.322 1.664 1.549 0.192 0.054 0.643 0.058 9.402 0.058 8.794 0 9.21-0.003 9.405-0.058 0.851-0.243 1.459-0.851 1.722-1.734 0.054-0.182 0.058-0.586 0.058-8.112v-7.92l-0.086-0.147c-0.048-0.080-0.138-0.186-0.205-0.237-0.237-0.179-0.16-0.176-3.309-0.176-3.178 0-3.062-0.006-3.299 0.189-0.061 0.051-0.144 0.16-0.189 0.246l-0.080 0.157-0.010 5.302-0.006 5.306h-8v-8.032h2.787c1.632 0 2.781-0.013 2.774-0.029-0.003-0.016-0.301-0.33-0.653-0.694-0.355-0.368-0.707-0.733-0.781-0.813-0.077-0.080-0.406-0.426-0.736-0.768s-0.659-0.688-0.733-0.765c-0.186-0.198-1.558-1.629-2.486-2.595-0.179-0.186-0.387-0.4-0.461-0.48-0.077-0.080-0.413-0.432-0.749-0.784-1.526-1.594-1.549-1.616-1.965-1.766-0.266-0.099-0.768-0.128-1.014-0.061z"></path>
</svg>
