<!-- Generated by IcoMoon.io -->
<svg version="1.1" xmlns="http://www.w3.org/2000/svg" width="32" height="32" viewBox="0 0 32 32">
<title>Missed_call_curved_arrow</title>
<path fill="#ff7900" d="M15.062 1.846c-0.298 0.051-0.662 0.195-0.912 0.365-0.112 0.074-2.24 2.176-5.421 5.354l-5.242 5.235h6.4l0.003 3.878c0 2.134 0.006 3.907 0.013 3.942 0.006 0.032 0.022 0.205 0.032 0.384 0.013 0.176 0.026 0.33 0.032 0.339s0.019 0.083 0.032 0.16c0.211 1.526 0.794 3.024 1.683 4.336 0.515 0.762 1.36 1.68 2.061 2.243 1.498 1.206 3.251 1.965 5.136 2.221 0.57 0.080 1.728 0.109 2.272 0.061 1.936-0.17 3.77-0.864 5.334-2.019 0.563-0.413 1.357-1.168 1.795-1.699l0.202-0.246-1.482-0.003c-0.816 0-1.517-0.006-1.562-0.016-0.045-0.006-0.224-0.035-0.4-0.064-0.909-0.147-1.869-0.646-2.544-1.325-0.714-0.717-1.152-1.578-1.363-2.672-0.013-0.070-0.029-2.24-0.035-4.826l-0.010-4.694h6.4l-5.226-5.216c-2.874-2.87-5.296-5.27-5.382-5.334-0.502-0.362-1.181-0.515-1.818-0.403z"></path>
</svg>
