<!-- Generated by IcoMoon.io -->
<svg version="1.1" xmlns="http://www.w3.org/2000/svg" width="32" height="32" viewBox="0 0 32 32">
<title>mobile_insurance</title>
<path fill="#ff7900" d="M15.562 2.685c-2.266 1.498-5.162 2.522-7.93 2.803-0.106 0.010-0.234 0.026-0.288 0.032-0.051 0.006-0.246 0.022-0.432 0.032-0.186 0.013-0.406 0.026-0.496 0.032-0.086 0.006-0.48 0.013-0.874 0.013l-0.714 0.003 0.013 4.95c0.006 2.726 0.019 4.995 0.029 5.050 0.010 0.051 0.029 0.211 0.042 0.352 0.035 0.448 0.144 1.123 0.304 1.917 0.147 0.733 0.576 2.083 0.896 2.819 0.035 0.086 0.093 0.218 0.122 0.288s0.16 0.342 0.291 0.608c1.293 2.63 3.2 4.746 5.667 6.294 0.982 0.614 2.122 1.149 3.36 1.574l0.432 0.15 0.272-0.086c0.15-0.045 0.48-0.163 0.736-0.259 2.995-1.133 5.411-2.979 7.229-5.53 1.293-1.811 2.275-4.118 2.675-6.272 0.029-0.16 0.064-0.352 0.083-0.432 0.026-0.125 0.109-0.768 0.176-1.376 0.013-0.096 0.026-2.397 0.035-5.114l0.013-4.934-0.714-0.003c-0.394 0-0.778-0.006-0.858-0.013-0.080-0.003-0.314-0.019-0.525-0.032-0.208-0.010-0.4-0.026-0.432-0.032-0.029-0.003-0.16-0.019-0.291-0.032s-0.262-0.026-0.288-0.032c-0.026-0.003-0.128-0.019-0.224-0.032-0.096-0.010-0.342-0.048-0.544-0.083-2.55-0.432-4.822-1.315-6.97-2.707-0.198-0.128-0.365-0.234-0.368-0.23-0.003 0-0.195 0.128-0.429 0.282zM20.368 7.286c0.15 0.080 0.272 0.205 0.355 0.362 0.058 0.109 0.061 0.365 0.061 7.952v7.84l-0.086 0.15c-0.112 0.189-0.31 0.333-0.518 0.378-0.115 0.026-1.379 0.032-4.291 0.026l-4.128-0.010-0.15-0.090c-0.176-0.102-0.294-0.243-0.362-0.435-0.042-0.125-0.048-1.034-0.048-7.859 0-5.811 0.010-7.744 0.038-7.827 0.090-0.259 0.259-0.432 0.534-0.528 0.093-0.035 0.931-0.042 4.291-0.035l4.176 0.006 0.128 0.070z"></path>
<path fill="#ff7900" d="M15.366 7.862c-0.102 0.090-0.106 0.23-0.006 0.33 0.061 0.061 0.106 0.064 0.714 0.064 0.717 0 0.771-0.013 0.797-0.192 0.010-0.070-0.006-0.118-0.058-0.176-0.074-0.080-0.074-0.080-0.726-0.080-0.579 0-0.662 0.006-0.72 0.054z"></path>
<path fill="#ff7900" d="M12 15.2v6.4h8v-12.8h-8v6.4z"></path>
<path fill="#ff7900" d="M15.754 22.237c-0.429 0.202-0.426 0.835 0.003 1.030 0.358 0.163 0.752-0.061 0.806-0.458 0.058-0.422-0.416-0.758-0.81-0.573z"></path>
</svg>
