<!-- Generated by IcoMoon.io -->
<svg version="1.1" xmlns="http://www.w3.org/2000/svg" width="32" height="32" viewBox="0 0 32 32">
<title>mobile_network_coverage</title>
<path fill="#ff7900" d="M24.538 8.851c-0.198 0.061-0.416 0.272-0.483 0.477-0.051 0.144-0.054 0.902-0.054 9.872 0 10.925-0.026 9.901 0.246 10.163 0.253 0.246 0.166 0.24 2.621 0.23 2.432-0.010 2.25 0.006 2.506-0.25 0.25-0.253 0.227 0.707 0.227-10.144 0-10.922 0.026-9.901-0.246-10.163-0.25-0.243-0.17-0.237-2.55-0.234-1.744 0-2.141 0.010-2.266 0.048z"></path>
<path fill="#ff7900" d="M17.315 13.654c-0.198 0.070-0.406 0.291-0.467 0.499-0.042 0.144-0.048 1.030-0.048 7.462 0 8.211-0.022 7.488 0.246 7.747 0.253 0.246 0.166 0.24 2.621 0.23 2.442-0.010 2.266 0.006 2.515-0.256 0.237-0.253 0.221 0.406 0.211-7.805l-0.010-7.379-0.096-0.154c-0.112-0.182-0.291-0.317-0.486-0.365-0.090-0.022-0.845-0.035-2.24-0.032-1.824 0-2.125 0.010-2.246 0.051z"></path>
<path fill="#ff7900" d="M10.122 18.454c-0.077 0.026-0.198 0.109-0.275 0.182-0.266 0.256-0.246-0.173-0.246 5.363s-0.019 5.107 0.246 5.363c0.25 0.243 0.17 0.237 2.554 0.237 2.387 0 2.307 0.006 2.557-0.24 0.262-0.256 0.243 0.17 0.243-5.36 0-5.523 0.019-5.104-0.24-5.36-0.246-0.246-0.17-0.24-2.573-0.237-1.808 0-2.15 0.010-2.266 0.051z"></path>
<path fill="#ff7900" d="M2.97 23.232c-0.202 0.061-0.352 0.189-0.483 0.41l-0.070 0.118-0.010 2.573c-0.010 2.899-0.019 2.765 0.23 3.021 0.246 0.253 0.166 0.246 2.547 0.246 2.378 0 2.323 0.006 2.57-0.234 0.259-0.253 0.246-0.118 0.246-2.963 0-1.635-0.013-2.557-0.032-2.634-0.051-0.176-0.218-0.374-0.4-0.47l-0.16-0.083-2.176-0.006c-1.197-0.003-2.214 0.006-2.262 0.022z"></path>
</svg>
