<!-- Generated by IcoMoon.io -->
<svg version="1.1" xmlns="http://www.w3.org/2000/svg" width="32" height="32" viewBox="0 0 32 32">
<title>Mobile_backup_restore</title>
<path fill="#ff7900" d="M2.41 11.414c0.006 8.438 0.010 9.030 0.064 9.197 0.291 0.954 1.014 1.603 1.946 1.757 0.134 0.019 2.138 0.032 5.894 0.032h5.686v-1.6h-5.258c-3.638 0-5.318-0.010-5.45-0.035-0.605-0.109-1.13-0.627-1.258-1.238-0.051-0.24-0.051-14.013 0-14.253 0.122-0.582 0.592-1.069 1.184-1.226 0.147-0.042 1.216-0.048 7.155-0.048 4.992 0 7.030 0.010 7.152 0.035 0.608 0.128 1.13 0.656 1.238 1.258 0.019 0.106 0.035 0.397 0.035 0.65v0.458h1.6v-0.89c0-0.486-0.016-0.979-0.035-1.091-0.093-0.586-0.41-1.117-0.896-1.514-0.176-0.144-0.582-0.352-0.845-0.432-0.182-0.054-0.605-0.058-9.21-0.064l-9.014-0.010 0.010 9.014z"></path>
<path fill="#ff7900" d="M5.322 4.854c-0.077 0.026-0.198 0.109-0.278 0.182-0.266 0.262-0.246-0.422-0.237 7.427 0.010 6.653 0.013 6.982 0.067 7.082 0.032 0.058 0.115 0.16 0.186 0.23 0.25 0.24-0.182 0.224 5.683 0.224h5.258l0.010-5.818c0.006-5.395 0.013-5.827 0.064-5.994 0.304-0.992 1.075-1.654 2.061-1.77 0.048-0.006 0.49-0.013 0.979-0.016l0.886-0.003v-0.442c0-0.515-0.045-0.704-0.198-0.88-0.058-0.064-0.163-0.147-0.234-0.189l-0.128-0.074-6.992-0.006c-6.157-0.003-7.008 0-7.126 0.045zM12.877 8.864c0.723 0.186 1.274 0.736 1.459 1.459 0.173 0.669-0.029 1.389-0.525 1.878-0.125 0.128-0.285 0.259-0.352 0.294l-0.122 0.064 0.022 0.272c0.010 0.15 0.026 0.323 0.032 0.384s0.019 0.24 0.032 0.4c0.010 0.157 0.026 0.358 0.032 0.448 0.006 0.086 0.022 0.275 0.032 0.416s0.026 0.355 0.032 0.48c0.010 0.122 0.022 0.304 0.032 0.4 0.006 0.096 0.022 0.282 0.032 0.406l0.022 0.234h-2.413l0.019-0.186c0.016-0.173 0.026-0.275 0.067-0.886 0.010-0.141 0.026-0.349 0.032-0.464 0.010-0.115 0.022-0.288 0.032-0.384 0.006-0.096 0.022-0.285 0.032-0.416s0.026-0.32 0.032-0.416c0.006-0.096 0.022-0.291 0.032-0.432l0.016-0.256-0.179-0.112c-0.64-0.397-0.995-1.28-0.829-2.061 0.234-1.098 1.354-1.798 2.429-1.523z"></path>
<path fill="#ff7900" d="M18.064 7.238c-0.557 0.106-1.062 0.595-1.216 1.181-0.042 0.147-0.048 1.59-0.048 9.955 0 7.037 0.010 9.83 0.035 9.952 0.122 0.582 0.592 1.069 1.184 1.229 0.147 0.038 0.928 0.042 5.261 0.035l5.088-0.006 0.17-0.070c0.531-0.218 0.918-0.666 1.027-1.187 0.026-0.122 0.035-2.928 0.035-9.936 0-10.874 0.019-9.984-0.224-10.394-0.234-0.394-0.643-0.685-1.069-0.762-0.246-0.045-10.006-0.042-10.243 0.003zM28 18v8.4h-9.6v-16.8h9.6v8.4zM23.568 27.296c0.176 0.096 0.234 0.154 0.33 0.32 0.070 0.118 0.086 0.182 0.086 0.384 0 0.205-0.013 0.262-0.086 0.387-0.288 0.49-0.989 0.547-1.325 0.109-0.090-0.118-0.173-0.358-0.173-0.496 0-0.333 0.272-0.691 0.586-0.771 0.166-0.042 0.442-0.010 0.582 0.067z"></path>
</svg>
