<!-- Generated by IcoMoon.io -->
<svg version="1.1" xmlns="http://www.w3.org/2000/svg" width="32" height="32" viewBox="0 0 32 32">
<title>mobile_box</title>
<path fill="#ff7900" d="M15.008 2.467c-1.75 0.23-3.261 0.95-4.512 2.154-1.418 1.363-2.253 3.069-2.461 5.043-0.019 0.157-0.029 2.947-0.022 6.512 0.006 6.861-0.010 6.32 0.198 7.242 0.467 2.090 1.888 4.010 3.773 5.104 0.749 0.432 1.875 0.851 2.528 0.938 0.070 0.010 0.147 0.022 0.17 0.032 0.026 0.006 0.112 0.022 0.192 0.029 0.083 0.010 0.253 0.032 0.374 0.048 0.234 0.029 1.386 0.019 1.664-0.016 1.507-0.186 2.928-0.781 4.096-1.712 0.368-0.294 0.998-0.928 1.267-1.28 0.819-1.056 1.328-2.166 1.581-3.453 0.141-0.704 0.141-0.694 0.131-7.267l-0.006-6.256-0.086-0.451c-0.138-0.739-0.262-1.184-0.493-1.741-0.982-2.384-3.050-4.17-5.514-4.762-0.365-0.090-0.528-0.115-1.152-0.195-0.358-0.048-1.264-0.032-1.728 0.032zM16.864 3.248c1.619 0.221 3.072 0.928 4.189 2.035 1.194 1.187 1.901 2.646 2.106 4.349 0.013 0.115 0.026 3.008 0.026 6.432 0 5.811-0.003 6.246-0.058 6.582-0.077 0.483-0.224 1.062-0.374 1.466-0.317 0.848-0.787 1.616-1.424 2.33-0.771 0.864-1.846 1.581-2.928 1.952-0.899 0.307-1.539 0.406-2.528 0.39-0.957-0.016-1.635-0.144-2.493-0.477-2.246-0.87-3.952-2.893-4.432-5.258-0.144-0.694-0.141-0.675-0.141-7.050 0-3.334 0.013-6.179 0.029-6.32 0.042-0.371 0.086-0.621 0.205-1.088 0.547-2.186 2.202-4.054 4.336-4.893 0.326-0.131 0.973-0.317 1.29-0.371 0.109-0.019 0.234-0.042 0.278-0.051 0.045-0.006 0.189-0.022 0.32-0.032 0.131-0.013 0.246-0.026 0.253-0.032 0.019-0.019 1.184 0.013 1.347 0.035z"></path>
<path fill="#ff7900" d="M15.424 4.022c-1.549 0.166-2.867 0.794-3.952 1.882-1.030 1.030-1.654 2.333-1.837 3.824-0.038 0.317-0.038 12.189 0 12.528 0.291 2.563 2 4.659 4.429 5.437 1.014 0.323 2.205 0.384 3.264 0.166 1.888-0.394 3.565-1.706 4.416-3.459 0.349-0.714 0.525-1.309 0.618-2.080 0.013-0.106 0.022-2.963 0.022-6.352 0-6.678 0.010-6.32-0.182-7.104-0.426-1.763-1.638-3.293-3.29-4.154-0.624-0.326-1.222-0.515-2.080-0.662-0.134-0.022-1.248-0.045-1.408-0.026zM16.768 11.277c1.571 0.131 3.114 0.717 4.394 1.67 0.31 0.23 0.384 0.31 0.32 0.339-0.016 0.003-0.163 0.166-0.33 0.362-0.166 0.192-0.317 0.368-0.336 0.387-0.022 0.026-0.106-0.019-0.288-0.16-1.248-0.96-2.787-1.488-4.39-1.501-0.662-0.006-1.325 0.058-1.754 0.173-0.070 0.019-0.163 0.042-0.208 0.051-0.042 0.006-0.272 0.077-0.512 0.157-0.752 0.25-1.638 0.733-2.24 1.222-0.115 0.090-0.218 0.166-0.227 0.166-0.013 0-0.182-0.179-0.381-0.4-0.304-0.339-0.352-0.41-0.32-0.451 0.074-0.086 0.554-0.448 0.88-0.662 1.171-0.765 2.586-1.245 3.984-1.354 0.15-0.013 0.275-0.022 0.278-0.026 0.019-0.013 0.899 0.006 1.13 0.026zM16.592 13.453c1.078 0.096 2.166 0.512 3.050 1.168 0.144 0.109 0.262 0.202 0.262 0.211 0 0.013-0.544 0.653-0.688 0.81-0.029 0.032-0.061 0.019-0.163-0.061-0.49-0.397-1.28-0.768-1.949-0.918-1.392-0.317-2.886 0.010-4.032 0.874l-0.269 0.202-0.269-0.291c-0.147-0.163-0.317-0.349-0.378-0.419l-0.106-0.125 0.125-0.109c0.246-0.208 0.803-0.563 1.184-0.746 0.557-0.272 1.043-0.432 1.616-0.528 0.061-0.010 0.134-0.026 0.16-0.032s0.179-0.022 0.336-0.035c0.16-0.010 0.291-0.022 0.294-0.026 0.016-0.013 0.595 0.006 0.826 0.026zM16.608 15.699c0.534 0.080 1.152 0.336 1.622 0.672l0.205 0.147-0.154 0.179c-0.083 0.102-0.16 0.189-0.17 0.198s-0.109 0.122-0.221 0.25l-0.202 0.23-0.118-0.093c-0.851-0.669-2.17-0.678-3.091-0.019l-0.202 0.144-0.106-0.122c-0.058-0.064-0.221-0.246-0.362-0.4-0.144-0.157-0.262-0.294-0.266-0.304-0.003-0.013 0.083-0.090 0.192-0.173 0.813-0.611 1.843-0.867 2.87-0.71zM16.48 17.696c0.48 0.141 0.858 0.499 1.027 0.979 0.099 0.278 0.099 0.723 0 1.014-0.342 1.002-1.523 1.405-2.403 0.816-0.474-0.314-0.733-0.848-0.698-1.421 0.019-0.294 0.086-0.509 0.234-0.733 0.397-0.611 1.12-0.867 1.84-0.656z"></path>
</svg>
