<!-- Generated by IcoMoon.io -->
<svg version="1.1" xmlns="http://www.w3.org/2000/svg" width="32" height="32" viewBox="0 0 32 32">
<title>mobile_setup</title>
<path fill="#ff7900" d="M9.226 2.445c-0.579 0.141-1.069 0.646-1.19 1.229-0.051 0.24-0.051 24.413 0 24.653 0.125 0.598 0.64 1.114 1.238 1.238 0.24 0.051 13.213 0.051 13.453 0 0.598-0.125 1.114-0.64 1.238-1.238 0.051-0.24 0.051-24.413 0-24.653-0.118-0.563-0.611-1.082-1.165-1.232-0.054-0.013-3.091-0.029-6.752-0.032-5.245-0.003-6.691 0.003-6.822 0.035zM17.398 3.264c0.115 0.070 0.202 0.211 0.202 0.336s-0.086 0.266-0.202 0.336c-0.096 0.061-0.17 0.064-1.392 0.064-1.424 0-1.421 0-1.542-0.202-0.115-0.189-0.058-0.416 0.138-0.534 0.096-0.061 0.17-0.064 1.398-0.064s1.302 0.003 1.398 0.064zM22.4 15.6v10.8h-12.8v-21.6h12.8v10.8zM16.4 27.309c0.39 0.23 0.512 0.749 0.266 1.12-0.112 0.17-0.221 0.256-0.413 0.323-0.608 0.214-1.222-0.394-1.005-1.005 0.086-0.246 0.282-0.442 0.522-0.518 0.16-0.051 0.47-0.013 0.63 0.080z"></path>
<path fill="#ff7900" d="M14.544 11.222c-0.259 0.061-0.691 0.243-0.896 0.378-0.285 0.189-0.326 0.346-0.195 0.698 0.131 0.349 0.131 0.464 0.010 0.698-0.125 0.243-0.4 0.483-0.618 0.538-0.154 0.038-0.266 0.022-0.63-0.106-0.118-0.042-0.25-0.067-0.294-0.058-0.118 0.022-0.314 0.234-0.426 0.464-0.202 0.406-0.272 0.634-0.275 0.883-0.003 0.227 0 0.237 0.099 0.32 0.058 0.048 0.154 0.102 0.214 0.125 0.243 0.090 0.403 0.205 0.493 0.352 0.080 0.138 0.086 0.179 0.086 0.486 0 0.294-0.010 0.352-0.077 0.47-0.090 0.157-0.186 0.234-0.422 0.333-0.243 0.102-0.314 0.154-0.371 0.262-0.067 0.134-0.032 0.413 0.093 0.742 0.179 0.461 0.352 0.72 0.541 0.797 0.109 0.045 0.128 0.042 0.384-0.048 0.349-0.122 0.397-0.128 0.566-0.090 0.301 0.067 0.646 0.419 0.71 0.723 0.032 0.141 0.026 0.186-0.048 0.397-0.15 0.419-0.147 0.531 0.026 0.704 0.189 0.189 0.803 0.458 1.133 0.496 0.291 0.035 0.429-0.070 0.566-0.442 0.064-0.163 0.202-0.32 0.352-0.403 0.077-0.042 0.182-0.054 0.435-0.054 0.48 0 0.618 0.083 0.8 0.496 0.163 0.368 0.262 0.438 0.566 0.403 0.234-0.029 0.704-0.211 0.963-0.381 0.317-0.202 0.355-0.336 0.211-0.714-0.051-0.134-0.086-0.291-0.086-0.397-0.003-0.154 0.013-0.202 0.122-0.365 0.131-0.198 0.298-0.339 0.515-0.438 0.16-0.070 0.317-0.058 0.618 0.054 0.234 0.090 0.352 0.096 0.48 0.029 0.214-0.109 0.563-0.838 0.598-1.245 0.013-0.157 0.006-0.214-0.045-0.294-0.058-0.093-0.118-0.128-0.458-0.278-0.269-0.122-0.387-0.323-0.406-0.694-0.010-0.221 0-0.304 0.054-0.451 0.090-0.234 0.115-0.256 0.56-0.464 0.256-0.118 0.317-0.221 0.294-0.483-0.032-0.394-0.39-1.136-0.598-1.242-0.131-0.070-0.24-0.061-0.538 0.045-0.41 0.144-0.611 0.099-0.915-0.208-0.32-0.323-0.368-0.57-0.182-0.973 0.026-0.061 0.054-0.186 0.064-0.272 0.013-0.154 0.006-0.17-0.115-0.291-0.214-0.214-0.838-0.486-1.174-0.512-0.256-0.022-0.362 0.045-0.48 0.298-0.16 0.352-0.192 0.403-0.304 0.474-0.061 0.042-0.166 0.090-0.237 0.112-0.166 0.054-0.611 0.029-0.749-0.045-0.109-0.054-0.294-0.234-0.294-0.278 0-0.013-0.045-0.122-0.102-0.24-0.141-0.298-0.31-0.381-0.618-0.31zM16.592 13.776c1.024 0.275 1.718 1.178 1.718 2.24 0 0.97-0.576 1.811-1.475 2.157-0.333 0.128-0.538 0.16-0.931 0.15-1.434-0.045-2.48-1.402-2.163-2.813 0.198-0.886 0.883-1.562 1.792-1.77 0.243-0.054 0.79-0.038 1.059 0.035z"></path>
</svg>
