<!-- Generated by IcoMoon.io -->
<svg version="1.1" xmlns="http://www.w3.org/2000/svg" width="32" height="32" viewBox="0 0 32 32">
<title>mobile_security</title>
<path fill="#ff7900" d="M9.187 2.451c-0.544 0.147-0.982 0.573-1.142 1.117-0.054 0.182-0.058 0.778-0.058 12.432s0.003 12.25 0.058 12.432c0.17 0.57 0.669 1.030 1.232 1.136 0.112 0.019 2.502 0.032 6.736 0.032 5.754 0 6.589-0.006 6.755-0.048 0.598-0.154 1.075-0.64 1.197-1.226 0.051-0.24 0.051-24.413 0-24.653-0.125-0.598-0.64-1.114-1.238-1.238-0.122-0.026-2.067-0.035-6.768-0.032-5.658 0-6.624 0.006-6.771 0.048zM17.398 3.264c0.115 0.070 0.202 0.211 0.202 0.336s-0.086 0.266-0.202 0.336c-0.096 0.061-0.17 0.064-1.392 0.064-1.424 0-1.421 0-1.542-0.202-0.115-0.189-0.058-0.416 0.138-0.534 0.096-0.061 0.17-0.064 1.398-0.064s1.302 0.003 1.398 0.064zM22.4 15.6v10.8h-12.8v-21.6h12.8v10.8zM16.4 27.309c0.39 0.23 0.512 0.749 0.266 1.12-0.112 0.17-0.221 0.256-0.413 0.323-0.608 0.214-1.222-0.394-1.005-1.005 0.086-0.246 0.282-0.442 0.522-0.518 0.16-0.051 0.47-0.013 0.63 0.080z"></path>
<path fill="#ff7900" d="M15.632 10.070c-0.928 0.189-1.558 0.63-1.974 1.389-0.099 0.176-0.24 0.576-0.266 0.749-0.010 0.070-0.022 0.163-0.032 0.208-0.006 0.045-0.013 0.509-0.013 1.030l-0.003 0.954h-1.344v6.352l0.070 0.202c0.083 0.237 0.269 0.442 0.499 0.557l0.15 0.074 7.28 0.016-0.006-3.238-0.010-3.242-0.074-0.15c-0.099-0.198-0.262-0.358-0.464-0.464-0.134-0.067-0.224-0.086-0.477-0.099l-0.314-0.016-0.003-0.979c-0.003-1.066-0.003-1.062-0.093-1.405-0.262-0.97-1.078-1.718-2.086-1.91-0.211-0.038-0.698-0.054-0.842-0.026zM16.464 11.117c0.374 0.112 0.832 0.483 0.998 0.819 0.182 0.358 0.182 0.362 0.195 1.446l0.010 1.018h-3.334l0.010-1.018c0.013-0.954 0.016-1.027 0.083-1.203 0.317-0.851 1.19-1.306 2.038-1.062zM16.224 16.179c0.163 0.029 0.333 0.125 0.483 0.275 0.202 0.205 0.266 0.371 0.269 0.698 0 0.234-0.013 0.294-0.086 0.435-0.048 0.090-0.16 0.23-0.25 0.31l-0.16 0.144 0.032 0.301c0.016 0.163 0.038 0.39 0.048 0.506s0.026 0.23 0.032 0.256c0.006 0.026 0.019 0.17 0.032 0.32 0.010 0.15 0.022 0.301 0.026 0.336 0.006 0.061-0.016 0.064-0.659 0.074l-0.666 0.006 0.016-0.118c0.016-0.112 0.026-0.211 0.067-0.698 0.010-0.090 0.022-0.224 0.032-0.304 0.032-0.298 0.058-0.563 0.061-0.63 0.003-0.045-0.035-0.099-0.099-0.147-0.323-0.24-0.474-0.685-0.365-1.072 0.083-0.288 0.333-0.557 0.611-0.656 0.224-0.080 0.288-0.083 0.576-0.035z"></path>
</svg>
