<!-- Generated by IcoMoon.io -->
<svg version="1.1" xmlns="http://www.w3.org/2000/svg" width="32" height="32" viewBox="0 0 32 32">
<title>mobile_data_toggle</title>
<path fill="#ff7900" d="M21.28 1.619c-0.282 0.054-0.659 0.218-0.864 0.371-0.138 0.106-7.584 7.558-7.584 7.59 0 0.010 0.893 0.019 1.984 0.019h1.981l0.013 4.214c0.010 3.926 0.013 4.23 0.064 4.406 0.275 0.906 0.947 1.533 1.862 1.734 0.154 0.032 0.752 0.038 2.944 0.035 2.49-0.010 2.768-0.013 2.931-0.064 0.922-0.278 1.549-0.95 1.741-1.862 0.038-0.192 0.048-0.835 0.048-4.346v-4.118h4.003l-3.232-3.242c-1.779-1.782-3.485-3.491-3.789-3.795-0.589-0.589-0.778-0.73-1.152-0.858-0.227-0.077-0.746-0.125-0.95-0.086z"></path>
<path fill="#ff7900" d="M7.59 12.035c-0.634 0.106-1.2 0.477-1.581 1.030-0.173 0.253-0.275 0.496-0.349 0.822-0.058 0.259-0.061 0.48-0.061 4.39v4.122h-1.984c-1.091 0-1.984 0.010-1.984 0.019s1.405 1.424 3.12 3.142c3.93 3.939 4.365 4.374 4.464 4.448 0.682 0.509 1.696 0.509 2.368 0 0.144-0.106 7.584-7.555 7.584-7.59 0-0.010-0.893-0.019-1.984-0.019h-1.984v-4.112c0-4.499 0.006-4.333-0.186-4.806-0.221-0.544-0.704-1.040-1.245-1.277-0.096-0.045-0.294-0.106-0.438-0.141-0.243-0.058-0.406-0.061-2.915-0.058-1.459 0-2.733 0.013-2.826 0.029z"></path>
</svg>
