<!-- Generated by IcoMoon.io -->
<svg version="1.1" xmlns="http://www.w3.org/2000/svg" width="32" height="32" viewBox="0 0 32 32">
<title>Modem</title>
<path fill="#ff7900" d="M21.619 3.235c-0.586 0.058-1.315 0.221-1.917 0.435-0.746 0.259-1.693 0.794-2.342 1.315-0.678 0.55-1.533 1.542-1.84 2.147-0.25 0.493 0.131 1.12 0.682 1.13 0.355 0.006 0.55-0.118 0.813-0.518 0.64-0.976 1.469-1.728 2.49-2.246 0.592-0.301 1.155-0.486 1.904-0.621 0.387-0.070 1.485-0.080 1.888-0.016 1.862 0.291 3.44 1.296 4.454 2.835 0.106 0.157 0.227 0.323 0.275 0.365 0.509 0.451 1.331 0.083 1.322-0.592 0-0.214-0.067-0.368-0.317-0.739-1.146-1.702-2.966-2.934-4.95-3.35-0.72-0.15-1.766-0.211-2.461-0.144z"></path>
<path fill="#ff7900" d="M21.888 6.422c-0.061 0.006-0.256 0.042-0.432 0.077-1.51 0.301-2.803 1.331-3.434 2.739-0.16 0.355-0.205 0.541-0.179 0.723 0.077 0.486 0.541 0.787 1.011 0.65 0.272-0.077 0.419-0.23 0.573-0.595 0.458-1.062 1.299-1.747 2.429-1.968 0.474-0.093 1.213-0.022 1.67 0.16 0.586 0.23 1.069 0.592 1.411 1.050 0.218 0.291 0.307 0.454 0.438 0.774 0.125 0.304 0.301 0.493 0.531 0.573 0.202 0.067 0.326 0.064 0.538-0.013 0.442-0.166 0.63-0.643 0.438-1.12-0.618-1.542-1.93-2.64-3.555-2.979-0.323-0.067-1.117-0.106-1.44-0.070z"></path>
<path fill="#ff7900" d="M22.026 9.645c-1.171 0.285-1.616 1.738-0.806 2.627 0.090 0.096 0.211 0.205 0.272 0.24l0.109 0.070v5.818h1.6v-5.818l0.109-0.070c0.173-0.106 0.413-0.387 0.522-0.611 0.24-0.496 0.221-1.034-0.054-1.504-0.358-0.605-1.078-0.915-1.75-0.752z"></path>
<path fill="#ff7900" d="M4.323 19.248c-0.896 0.195-1.578 0.832-1.846 1.728-0.054 0.176-0.058 0.387-0.067 2.512-0.010 2.522-0.013 2.467 0.17 2.845 0.122 0.25 0.454 0.573 0.717 0.698 0.291 0.138 0.477 0.17 1.021 0.17h0.477l0.013 0.522c0.010 0.502 0.013 0.522 0.102 0.672 0.106 0.179 0.24 0.291 0.432 0.358 0.198 0.070 1.914 0.070 2.112 0 0.189-0.064 0.346-0.195 0.445-0.365 0.083-0.141 0.086-0.17 0.096-0.669l0.013-0.518h15.987l0.013 0.518c0.010 0.499 0.013 0.528 0.096 0.669 0.106 0.179 0.272 0.31 0.467 0.368 0.214 0.067 1.898 0.064 2.083-0.003 0.189-0.064 0.346-0.195 0.445-0.365 0.083-0.141 0.086-0.17 0.099-0.669l0.010-0.518 0.486-0.003c0.547-0.003 0.605-0.010 0.845-0.093 0.499-0.176 0.877-0.598 1.014-1.136 0.070-0.275 0.074-4.451 0-4.819-0.17-0.893-0.819-1.597-1.728-1.872-0.186-0.058-0.656-0.061-11.744-0.067-9.731-0.003-11.584 0.003-11.757 0.038zM25.926 21.635c0.294 0.061 0.566 0.211 0.797 0.442 0.624 0.627 0.637 1.574 0.026 2.224-0.598 0.64-1.594 0.662-2.246 0.051-0.659-0.614-0.669-1.632-0.019-2.275 0.394-0.394 0.915-0.55 1.443-0.442zM9.216 22.522c0.589 0.362 0.464 1.235-0.205 1.446-0.474 0.15-1.011-0.256-1.011-0.768 0-0.307 0.23-0.643 0.515-0.746 0.208-0.077 0.512-0.048 0.701 0.067zM12.243 22.448c0.342 0.102 0.538 0.381 0.541 0.768 0 0.186-0.013 0.25-0.086 0.371-0.352 0.598-1.219 0.522-1.45-0.128-0.102-0.291-0.029-0.605 0.198-0.822 0.224-0.221 0.486-0.282 0.797-0.189zM15.616 22.522c0.384 0.237 0.493 0.758 0.237 1.133-0.278 0.397-0.851 0.454-1.216 0.118-0.106-0.099-0.205-0.31-0.224-0.493-0.042-0.342 0.179-0.71 0.502-0.826 0.208-0.077 0.512-0.048 0.701 0.067zM18.816 22.522c0.291 0.179 0.438 0.547 0.352 0.867-0.186 0.694-1.078 0.826-1.453 0.214-0.086-0.138-0.099-0.186-0.099-0.4 0-0.208 0.013-0.266 0.086-0.39 0.096-0.163 0.253-0.298 0.435-0.365 0.182-0.074 0.496-0.038 0.678 0.074z"></path>
</svg>
