<!-- Generated by IcoMoon.io -->
<svg version="1.1" xmlns="http://www.w3.org/2000/svg" width="32" height="32" viewBox="0 0 32 32">
<title>Modifier_favorite</title>
<path fill="#ff7900" d="M15.197 2.413c-0.006 0.006-0.141 0.022-0.301 0.032-0.272 0.022-0.634 0.064-0.88 0.102-0.739 0.112-1.085 0.186-1.725 0.368-1.222 0.346-2.522 0.922-3.507 1.558-0.496 0.32-0.586 0.381-0.81 0.544-2.198 1.613-3.875 3.862-4.797 6.438-0.301 0.848-0.582 2.022-0.666 2.8-0.013 0.106-0.029 0.227-0.035 0.272-0.093 0.576-0.080 2.365 0.019 3.13 0.051 0.368 0.051 0.374 0.128 0.79 0.448 2.477 1.578 4.768 3.28 6.656 1.59 1.763 3.562 3.053 5.824 3.808 0.656 0.221 1.67 0.461 2.272 0.541 0.070 0.010 0.23 0.032 0.352 0.048 0.611 0.083 2.118 0.115 2.736 0.058 1.494-0.138 2.755-0.438 4.048-0.963 0.621-0.253 1.52-0.707 1.968-0.995 0.48-0.307 0.637-0.413 0.96-0.65 0.202-0.15 0.419-0.317 0.483-0.371s0.186-0.157 0.272-0.227c0.406-0.333 1.040-0.963 1.472-1.466 1.386-1.61 2.323-3.395 2.87-5.462 0.090-0.336 0.266-1.184 0.291-1.408 0.010-0.080 0.022-0.189 0.032-0.24 0.093-0.525 0.134-2.093 0.074-2.832-0.032-0.432-0.138-1.219-0.211-1.568-0.605-2.957-2.074-5.536-4.294-7.523-2.099-1.882-4.893-3.12-7.613-3.376-0.115-0.010-0.25-0.026-0.304-0.035-0.115-0.016-1.923-0.045-1.939-0.029zM17.008 5.651c2.518 0.262 4.771 1.357 6.486 3.146 1.626 1.693 2.579 3.76 2.858 6.163 0.042 0.374 0.042 1.581 0 2.016-0.179 1.83-0.832 3.59-1.85 5.008-0.483 0.672-1.226 1.488-1.763 1.939-1.674 1.402-3.696 2.25-5.827 2.442-0.32 0.029-1.725 0.022-1.936-0.010-0.061-0.010-0.234-0.032-0.384-0.054-1.773-0.23-3.549-0.979-4.973-2.090-0.419-0.33-0.49-0.39-0.95-0.851-1.754-1.747-2.787-3.936-3.027-6.416-0.032-0.33-0.032-1.45 0-1.84 0.202-2.483 1.325-4.835 3.146-6.592 1.062-1.024 2.336-1.814 3.747-2.317 0.531-0.192 1.338-0.397 1.834-0.467 0.131-0.019 0.291-0.042 0.358-0.051 0.528-0.077 1.674-0.090 2.282-0.026z"></path>
<path fill="#ff7900" d="M15.715 9.798c-0.176 0.362-0.381 0.79-0.461 0.957s-0.266 0.554-0.413 0.861c-0.15 0.307-0.362 0.746-0.47 0.976-0.109 0.227-0.259 0.538-0.333 0.685l-0.134 0.272-1.104 0.182c-0.608 0.102-1.162 0.192-1.232 0.205-0.070 0.010-0.422 0.067-0.784 0.128s-0.938 0.157-1.28 0.211c-0.342 0.058-0.63 0.109-0.64 0.115-0.016 0.013 0.077 0.102 0.464 0.442 0.141 0.122 0.272 0.237 0.291 0.256 0.019 0.016 0.147 0.131 0.285 0.256 0.515 0.458 0.867 0.771 0.989 0.88 0.166 0.15 0.16 0.144 0.451 0.4 0.141 0.122 0.285 0.253 0.323 0.288s0.272 0.243 0.522 0.464c0.362 0.317 0.451 0.413 0.438 0.464-0.746 2.97-1.235 4.96-1.229 4.979 0.006 0.013 0.304-0.138 0.666-0.333 1.005-0.55 2.272-1.242 2.426-1.325 0.077-0.042 0.214-0.115 0.304-0.166 0.093-0.048 0.406-0.224 0.698-0.384l0.534-0.291 0.186 0.099c0.106 0.058 0.483 0.262 0.845 0.461 0.362 0.195 0.749 0.41 0.864 0.47s0.525 0.285 0.912 0.496c0.387 0.211 0.813 0.445 0.944 0.515s0.384 0.211 0.56 0.307c0.176 0.099 0.323 0.166 0.33 0.15s-0.272-1.155-0.618-2.534l-0.627-2.506 0.074-0.067c0.042-0.035 0.477-0.422 0.97-0.861s1.005-0.89 1.136-1.008c0.394-0.355 1.155-1.030 1.386-1.232 0.118-0.106 0.205-0.202 0.192-0.211-0.013-0.013-0.566-0.112-1.226-0.221s-1.27-0.211-1.36-0.23c-0.086-0.016-0.637-0.109-1.219-0.205-0.582-0.093-1.098-0.182-1.146-0.195-0.074-0.016-0.112-0.067-0.211-0.282-0.067-0.141-0.246-0.518-0.4-0.835s-0.333-0.691-0.4-0.832c-0.067-0.141-0.253-0.531-0.416-0.864-0.163-0.336-0.349-0.723-0.416-0.864s-0.173-0.362-0.237-0.493l-0.115-0.237-0.317 0.656z"></path>
</svg>
