<!-- Generated by IcoMoon.io -->
<svg version="1.1" xmlns="http://www.w3.org/2000/svg" width="32" height="32" viewBox="0 0 32 32">
<title>modifier_upload</title>
<path fill="#ff7900" d="M15.194 2.416c-0.003 0.003-0.147 0.019-0.314 0.029-0.166 0.013-0.333 0.029-0.368 0.035s-0.134 0.022-0.224 0.032c-0.211 0.022-0.342 0.045-0.832 0.125-0.035 0.003-0.099 0.019-0.144 0.029s-0.218 0.051-0.384 0.086c-0.592 0.131-1.597 0.445-2 0.624-0.051 0.026-0.189 0.083-0.304 0.128-0.307 0.128-1.117 0.534-1.469 0.742-1.024 0.602-1.907 1.283-2.752 2.122-1.437 1.43-2.534 3.162-3.226 5.088-0.24 0.675-0.493 1.648-0.586 2.266-0.080 0.509-0.093 0.611-0.112 0.822-0.013 0.122-0.029 0.266-0.038 0.32-0.029 0.182-0.035 1.795-0.010 2.112 0.032 0.368 0.096 0.963 0.115 1.056 0.010 0.035 0.045 0.23 0.080 0.432 0.301 1.725 1.005 3.475 2.010 5.008 0.115 0.176 0.221 0.333 0.237 0.352 0.013 0.016 0.125 0.17 0.25 0.336 0.762 1.018 1.658 1.914 2.669 2.678 0.806 0.605 1.299 0.912 2.195 1.36 1.203 0.598 2.765 1.088 4.013 1.254 0.070 0.010 0.23 0.032 0.352 0.048 0.611 0.083 2.118 0.115 2.736 0.058 2.682-0.25 5.018-1.136 7.088-2.691 2.646-1.99 4.49-4.902 5.146-8.147 0.102-0.493 0.176-0.963 0.202-1.28 0.010-0.131 0.026-0.275 0.035-0.32 0.029-0.144 0.035-1.798 0.006-2.112-0.035-0.435-0.093-0.918-0.125-1.104-0.016-0.090-0.045-0.253-0.064-0.368-0.262-1.485-0.89-3.165-1.667-4.454-0.189-0.31-0.525-0.835-0.582-0.906-0.013-0.019-0.131-0.176-0.266-0.352-1.741-2.33-4.259-4.070-7.053-4.88-0.806-0.234-1.654-0.4-2.368-0.467-0.115-0.010-0.25-0.026-0.304-0.035-0.106-0.016-1.923-0.042-1.942-0.026zM17.034 5.651c2.013 0.211 3.802 0.934 5.421 2.195 0.438 0.339 1.29 1.187 1.654 1.642 1.283 1.606 2.026 3.434 2.24 5.504 0.048 0.451 0.058 1.414 0.019 1.824-0.064 0.662-0.058 0.627-0.163 1.184-0.458 2.454-1.894 4.746-3.949 6.307-0.278 0.211-0.832 0.589-0.867 0.589-0.010 0-0.058 0.026-0.102 0.061-0.25 0.173-1.187 0.624-1.645 0.79-0.858 0.31-1.891 0.544-2.746 0.618-0.339 0.029-1.741 0.022-1.888-0.006-0.045-0.010-0.16-0.026-0.256-0.035-0.413-0.042-0.979-0.15-1.44-0.275-2.877-0.787-5.229-2.691-6.589-5.344-0.378-0.733-0.742-1.766-0.896-2.528-0.019-0.096-0.045-0.211-0.051-0.256-0.029-0.128-0.109-0.707-0.134-0.947-0.029-0.282-0.032-1.475-0.003-1.853 0.125-1.67 0.739-3.44 1.699-4.88 1.123-1.683 2.822-3.085 4.63-3.824 0.202-0.083 0.397-0.163 0.432-0.179 0.291-0.122 1.104-0.346 1.651-0.458 0.23-0.048 0.909-0.134 1.213-0.157 0.368-0.026 1.402-0.010 1.77 0.029z"></path>
<path fill="#ff7900" d="M15.536 8.013c-0.086 0.022-0.243 0.077-0.342 0.122-0.342 0.157-0.384 0.195-1.52 1.306-0.694 0.678-2.39 2.33-2.682 2.608-0.387 0.371-2.211 2.147-2.842 2.768-0.33 0.326-0.614 0.595-0.634 0.602-0.16 0.058 0.23 0.070 2.227 0.070h2.256v3.61c0 3.926-0.006 3.773 0.179 4.141 0.125 0.246 0.387 0.49 0.675 0.627l0.25 0.118 2.816 0.010c3.126 0.010 2.963 0.019 3.366-0.205 0.317-0.176 0.544-0.474 0.662-0.874 0.045-0.157 0.051-0.56 0.051-3.802v-3.626h4.541l-0.55-0.538c-1.018-0.992-1.542-1.501-1.798-1.75-0.141-0.138-0.486-0.474-0.768-0.749-0.95-0.925-2.618-2.547-2.768-2.691-0.083-0.080-0.429-0.416-0.768-0.746-0.339-0.333-0.701-0.659-0.803-0.73-0.102-0.067-0.307-0.166-0.461-0.218-0.227-0.077-0.33-0.093-0.602-0.093-0.179 0-0.397 0.016-0.486 0.038z"></path>
</svg>
