<!-- Generated by IcoMoon.io -->
<svg version="1.1" xmlns="http://www.w3.org/2000/svg" width="32" height="32" viewBox="0 0 32 32">
<title>Modifier_delete</title>
<path fill="#ff7900" d="M15.197 2.413c-0.006 0.006-0.141 0.022-0.301 0.032-0.272 0.022-0.634 0.064-0.88 0.102-0.739 0.112-1.085 0.186-1.725 0.368-1.222 0.346-2.522 0.922-3.507 1.558-0.496 0.32-0.586 0.381-0.81 0.544-2.198 1.613-3.875 3.862-4.797 6.438-0.301 0.848-0.582 2.022-0.666 2.8-0.013 0.106-0.029 0.227-0.035 0.272-0.093 0.576-0.080 2.365 0.019 3.13 0.051 0.368 0.051 0.374 0.128 0.79 0.448 2.477 1.578 4.768 3.28 6.656 1.59 1.763 3.562 3.053 5.824 3.808 0.656 0.221 1.67 0.461 2.272 0.541 0.070 0.010 0.23 0.032 0.352 0.048 0.611 0.083 2.118 0.115 2.736 0.058 1.494-0.138 2.755-0.438 4.048-0.963 0.621-0.253 1.52-0.707 1.968-0.995 0.48-0.307 0.637-0.413 0.96-0.65 0.202-0.15 0.419-0.317 0.483-0.371s0.186-0.157 0.272-0.227c0.406-0.333 1.040-0.963 1.472-1.466 1.386-1.61 2.323-3.395 2.87-5.462 0.090-0.336 0.266-1.184 0.291-1.408 0.010-0.080 0.022-0.189 0.032-0.24 0.093-0.525 0.134-2.093 0.074-2.832-0.032-0.432-0.138-1.219-0.211-1.568-0.605-2.957-2.074-5.536-4.294-7.523-2.099-1.882-4.893-3.12-7.613-3.376-0.115-0.010-0.25-0.026-0.304-0.035-0.115-0.016-1.923-0.045-1.939-0.029zM17.008 5.651c2.042 0.214 3.821 0.928 5.45 2.195 0.438 0.339 1.29 1.187 1.651 1.642 1.293 1.629 2.026 3.424 2.24 5.504 0.048 0.448 0.058 1.411 0.019 1.824-0.051 0.531-0.061 0.621-0.128 0.998-0.576 3.267-2.685 6.064-5.68 7.53-1.142 0.56-2.413 0.912-3.664 1.021-0.336 0.029-1.709 0.022-1.92-0.010-0.061-0.010-0.234-0.032-0.384-0.054-1.133-0.147-2.218-0.486-3.28-1.021-0.726-0.368-1.434-0.835-2.054-1.357-0.192-0.163-0.938-0.902-1.123-1.114-1.283-1.475-2.173-3.434-2.438-5.386-0.083-0.618-0.109-1.629-0.058-2.304 0.141-1.891 0.893-3.85 2.067-5.392 1.514-1.987 3.658-3.36 6.054-3.885 0.202-0.045 0.419-0.086 0.48-0.096s0.154-0.026 0.205-0.035c0.109-0.016 0.65-0.077 0.835-0.090 0.314-0.026 1.379-0.010 1.728 0.029z"></path>
<path fill="#ff7900" d="M12.288 9.978c-0.202 0.022-0.371 0.080-0.525 0.179-0.090 0.058-0.483 0.429-0.877 0.819-0.778 0.781-0.88 0.925-0.922 1.283-0.022 0.208 0.042 0.474 0.17 0.682 0.045 0.070 0.742 0.794 1.549 1.603l1.469 1.472-1.498 1.504c-1.706 1.715-1.68 1.68-1.683 2.147-0.003 0.429 0.067 0.538 0.95 1.421 0.65 0.65 0.765 0.752 0.966 0.851 0.192 0.093 0.262 0.112 0.435 0.112 0.25 0 0.477-0.077 0.691-0.237 0.083-0.064 0.79-0.752 1.571-1.533l1.418-1.421 1.446 1.45c0.794 0.8 1.51 1.494 1.59 1.542 0.346 0.224 0.742 0.246 1.11 0.064 0.166-0.080 0.317-0.214 0.902-0.806 0.781-0.787 0.813-0.826 0.899-1.021 0.131-0.301 0.112-0.64-0.058-0.947-0.051-0.099-0.576-0.646-1.523-1.594-0.794-0.797-1.469-1.459-1.501-1.475-0.045-0.022 0.182-0.266 1.405-1.482 0.848-0.848 1.51-1.533 1.581-1.638 0.138-0.208 0.211-0.499 0.179-0.717-0.045-0.342-0.16-0.499-0.922-1.261-0.39-0.39-0.774-0.755-0.854-0.806-0.368-0.256-0.819-0.253-1.219 0.006-0.080 0.051-0.79 0.742-1.584 1.536-0.79 0.79-1.446 1.44-1.456 1.44s-0.685-0.669-1.504-1.485c-1.229-1.222-1.52-1.498-1.664-1.565-0.186-0.090-0.413-0.141-0.544-0.125z"></path>
</svg>
