<!-- Generated by IcoMoon.io -->
<svg version="1.1" xmlns="http://www.w3.org/2000/svg" width="32" height="32" viewBox="0 0 32 32">
<title>modifier_new</title>
<path fill="#ff7900" d="M15.261 2.381c-0.006 0.006-0.157 0.022-0.333 0.032-0.874 0.061-1.824 0.234-2.733 0.496-2.794 0.81-5.29 2.538-7.062 4.883-1.536 2.035-2.496 4.56-2.694 7.088-0.045 0.579-0.016 2.496 0.042 2.592 0.003 0.010 0.019 0.115 0.032 0.234 0.010 0.118 0.026 0.25 0.035 0.288 0.006 0.038 0.048 0.266 0.093 0.506 0.803 4.378 3.805 8.134 7.939 9.942 1.123 0.493 2.57 0.89 3.706 1.018 0.090 0.013 0.198 0.026 0.243 0.029 0.483 0.067 1.875 0.086 2.544 0.038 1.062-0.074 2.419-0.362 3.434-0.723 0.947-0.339 1.978-0.832 2.646-1.267 0.090-0.054 0.262-0.166 0.384-0.246 0.582-0.378 1.421-1.059 1.968-1.597 2.394-2.365 3.792-5.36 4.061-8.701 0.029-0.358 0.022-1.952-0.010-2.176-0.010-0.061-0.032-0.262-0.051-0.448-0.458-4.195-3.043-8.102-6.768-10.214-1.482-0.838-3.238-1.446-4.752-1.642-0.080-0.010-0.179-0.026-0.224-0.032s-0.166-0.022-0.272-0.032c-0.106-0.010-0.256-0.026-0.336-0.035-0.16-0.022-1.872-0.048-1.891-0.032zM17.072 5.616c2.096 0.23 4.067 1.075 5.664 2.429 0.362 0.307 1.066 1.034 1.366 1.405 1.28 1.606 2.083 3.578 2.256 5.558 0.048 0.541 0.022 2.035-0.038 2.272-0.006 0.026-0.019 0.118-0.032 0.208-0.010 0.086-0.026 0.189-0.032 0.224-0.010 0.035-0.022 0.106-0.032 0.157-0.198 1.226-0.832 2.787-1.565 3.859-0.314 0.454-0.387 0.557-0.643 0.861-1.213 1.459-2.81 2.576-4.56 3.187-0.707 0.25-1.536 0.442-2.192 0.515-0.106 0.010-0.221 0.026-0.256 0.035-0.163 0.038-1.626 0.032-2.026-0.010-3.245-0.333-6.083-2.096-7.814-4.861-0.861-1.373-1.357-2.861-1.526-4.576-0.032-0.317-0.032-1.552-0.003-1.856 0.25-2.432 1.219-4.547 2.874-6.266 1.274-1.325 2.765-2.227 4.608-2.787 0.493-0.15 1.437-0.323 1.955-0.358 0.166-0.013 0.307-0.026 0.314-0.032 0.022-0.019 1.466 0.013 1.683 0.035z"></path>
<path fill="#ff7900" d="M14.787 9.67c-0.080 0.042-0.189 0.128-0.24 0.195l-0.099 0.125-0.010 2.173c-0.003 1.194-0.013 2.173-0.022 2.173-0.006 0-0.246-0.093-0.534-0.205-0.886-0.349-2.682-1.050-2.982-1.162-0.294-0.109-0.464-0.128-0.618-0.070-0.099 0.035-0.253 0.17-0.304 0.262-0.067 0.128-0.666 1.862-0.685 1.994-0.029 0.205 0.102 0.464 0.285 0.57 0.074 0.042 0.986 0.358 2.022 0.707 1.040 0.349 1.894 0.637 1.898 0.643 0.006 0.003-0.208 0.301-0.48 0.659-2.125 2.8-2.077 2.73-2.051 2.998 0.022 0.237 0.122 0.339 0.835 0.864 0.378 0.275 0.736 0.538 0.8 0.586 0.227 0.166 0.304 0.198 0.506 0.198 0.352 0.003 0.17 0.234 2.144-2.678 0.304-0.442 0.573-0.838 0.605-0.88l0.054-0.074 0.182 0.253c0.266 0.381 0.982 1.376 1.219 1.702 0.115 0.157 0.406 0.563 0.653 0.902 0.243 0.339 0.474 0.643 0.515 0.672 0.042 0.032 0.141 0.074 0.221 0.096 0.243 0.064 0.371 0.010 0.941-0.413 1.306-0.966 1.29-0.95 1.312-1.258 0.016-0.237-0.006-0.275-0.787-1.302-1.331-1.763-1.712-2.266-1.725-2.298-0.006-0.019 0.144-0.086 0.333-0.15 0.192-0.061 1.072-0.355 1.962-0.646 0.89-0.294 1.661-0.566 1.718-0.605s0.134-0.128 0.173-0.198c0.118-0.208 0.102-0.378-0.093-0.928-0.096-0.266-0.214-0.602-0.269-0.752-0.211-0.602-0.253-0.694-0.355-0.794-0.211-0.205-0.429-0.218-0.861-0.051-1.318 0.506-3.488 1.322-3.533 1.331-0.054 0.010-0.058-0.115-0.058-2.118l-0.003-2.128-0.077-0.134c-0.045-0.077-0.138-0.176-0.208-0.224l-0.131-0.090-1.056-0.010c-1.046-0.010-1.056-0.006-1.197 0.064z"></path>
</svg>
