<!-- Generated by IcoMoon.io -->
<svg version="1.1" xmlns="http://www.w3.org/2000/svg" width="32" height="32" viewBox="0 0 32 32">
<title>modifier_add</title>
<path fill="#ff7900" d="M15.194 2.416c-0.003 0.003-0.147 0.019-0.314 0.029-0.166 0.013-0.333 0.029-0.368 0.035s-0.134 0.022-0.224 0.032c-0.211 0.022-0.342 0.045-0.832 0.125-0.035 0.003-0.099 0.019-0.144 0.029s-0.218 0.051-0.384 0.086c-0.592 0.131-1.597 0.445-2 0.624-0.051 0.026-0.189 0.083-0.304 0.128-0.307 0.128-1.117 0.534-1.469 0.742-1.024 0.602-1.907 1.283-2.752 2.122-1.44 1.434-2.534 3.155-3.226 5.088-0.24 0.675-0.493 1.648-0.586 2.266-0.080 0.509-0.093 0.611-0.112 0.822-0.013 0.122-0.029 0.266-0.038 0.32-0.029 0.182-0.035 1.795-0.010 2.112 0.032 0.368 0.096 0.963 0.115 1.056 0.010 0.035 0.045 0.23 0.080 0.432 0.304 1.725 1.005 3.475 2.010 5.008 0.115 0.176 0.221 0.333 0.234 0.352 0.016 0.016 0.070 0.090 0.122 0.16 0.573 0.774 1.050 1.312 1.795 2.019 0.534 0.506 1.389 1.152 2.093 1.584 1.53 0.941 3.453 1.645 5.12 1.866 0.070 0.010 0.23 0.032 0.352 0.048 0.611 0.083 2.118 0.115 2.736 0.058 0.893-0.083 1.686-0.221 2.448-0.426 2.621-0.704 4.97-2.182 6.742-4.237 1.558-1.805 2.576-3.872 3.043-6.176 0.102-0.493 0.176-0.963 0.202-1.28 0.010-0.131 0.026-0.275 0.035-0.32 0.029-0.144 0.035-1.798 0.006-2.112-0.035-0.435-0.093-0.918-0.125-1.104-0.016-0.090-0.045-0.253-0.064-0.368-0.262-1.485-0.89-3.165-1.667-4.454-0.189-0.31-0.525-0.835-0.582-0.906-0.013-0.019-0.131-0.176-0.266-0.352-1.741-2.33-4.259-4.070-7.053-4.88-0.806-0.234-1.654-0.4-2.368-0.467-0.115-0.010-0.25-0.026-0.304-0.035-0.106-0.016-1.923-0.042-1.942-0.026zM17.136 5.184c0.195 0.019 0.467 0.054 0.608 0.080s0.307 0.051 0.368 0.064c0.237 0.038 0.896 0.211 1.216 0.317 1.907 0.614 3.584 1.728 4.886 3.235 0.592 0.685 1.014 1.302 1.421 2.080 0.688 1.318 1.085 2.688 1.21 4.192 0.029 0.339 0.019 1.587-0.013 1.856-0.138 1.174-0.307 1.904-0.666 2.864-0.243 0.662-0.768 1.664-1.178 2.259-0.643 0.931-1.546 1.878-2.413 2.531-1.693 1.277-3.578 1.997-5.712 2.182-0.317 0.029-1.606 0.019-1.856-0.010-0.080-0.010-0.224-0.026-0.32-0.038-0.307-0.032-0.899-0.141-1.306-0.24-1.651-0.406-3.21-1.216-4.486-2.326-2.115-1.837-3.402-4.298-3.715-7.094-0.054-0.461-0.051-1.824 0-2.272 0.205-1.773 0.758-3.338 1.696-4.784 0.899-1.392 2.221-2.653 3.642-3.475 0.291-0.17 0.995-0.525 1.21-0.611 0.054-0.022 0.17-0.070 0.256-0.106 0.275-0.118 0.989-0.346 1.398-0.445 0.618-0.154 1.056-0.221 1.978-0.301 0.243-0.022 1.443 0.006 1.776 0.042z"></path>
<path fill="#ff7900" d="M14.099 8.048c-0.237 0.083-0.403 0.259-0.467 0.493-0.019 0.074-0.032 1.030-0.032 2.586v2.474l-2.534 0.006c-2.406 0.010-2.544 0.013-2.65 0.070-0.157 0.083-0.253 0.176-0.33 0.323-0.070 0.128-0.070 0.144-0.070 2s0 1.872 0.070 2c0.077 0.147 0.173 0.24 0.33 0.323 0.106 0.058 0.243 0.061 2.646 0.070l2.538 0.006 0.006 2.538c0.010 2.525 0.010 2.534 0.080 2.662 0.077 0.147 0.173 0.24 0.33 0.323 0.106 0.058 0.227 0.061 1.888 0.070 1.203 0.006 1.827 0 1.939-0.026 0.192-0.042 0.371-0.179 0.47-0.362l0.070-0.134 0.010-2.538 0.010-2.534h2.464c1.782 0 2.506-0.010 2.614-0.038 0.106-0.026 0.192-0.080 0.298-0.186 0.227-0.227 0.227-0.221 0.214-2.272-0.010-1.763-0.010-1.776-0.080-1.91-0.093-0.17-0.269-0.314-0.445-0.358-0.093-0.022-0.931-0.035-2.602-0.035h-2.467v-2.467c0-1.67-0.013-2.509-0.035-2.602-0.045-0.176-0.189-0.352-0.358-0.445-0.134-0.070-0.141-0.070-1.958-0.077-1.51-0.006-1.846 0-1.949 0.038z"></path>
</svg>
