<!-- Generated by IcoMoon.io -->
<svg version="1.1" xmlns="http://www.w3.org/2000/svg" width="32" height="32" viewBox="0 0 32 32">
<title>mon_reseau</title>
<path fill="#ff7900" d="M12.8 15.84v6.72h1.92v-13.44h-1.92v6.72z"></path>
<path fill="#ff7900" d="M16.32 10.077v0.963l0.234 0.003c0.464 0.006 0.861 0.038 1.478 0.128 0.246 0.035 0.474 0.070 0.502 0.080 0.032 0.010 0.096 0.026 0.144 0.032 0.221 0.042 0.634 0.147 0.986 0.253 2.992 0.909 5.507 3.014 6.912 5.792 0.144 0.282 0.291 0.582 0.326 0.672 0.579 1.35 0.912 2.896 0.934 4.31l0.003 0.25h1.93l-0.022-0.538c-0.013-0.294-0.035-0.643-0.051-0.774s-0.038-0.32-0.048-0.416c-0.17-1.549-0.784-3.392-1.632-4.899-0.877-1.555-2.16-3.014-3.619-4.115-1.254-0.95-2.794-1.722-4.301-2.16-0.499-0.144-1.414-0.346-1.808-0.394-0.070-0.010-0.157-0.022-0.192-0.032-0.035-0.006-0.192-0.022-0.352-0.035-0.157-0.010-0.298-0.026-0.307-0.032s-0.266-0.019-0.57-0.032l-0.547-0.019v0.963z"></path>
<path fill="#ff7900" d="M9.28 17.6v4.96h1.92v-9.92h-1.92v4.96z"></path>
<path fill="#ff7900" d="M16.32 13.597v0.963l0.202 0.003c0.224 0.006 0.259 0.006 0.614 0.042 1.482 0.141 3.002 0.762 4.192 1.718 0.333 0.266 0.973 0.906 1.232 1.229 0.96 1.203 1.565 2.685 1.715 4.186 0.029 0.304 0.038 0.438 0.042 0.637l0.003 0.186h1.926l-0.019-0.442c-0.010-0.24-0.026-0.502-0.035-0.582-0.163-1.341-0.483-2.4-1.069-3.539-0.947-1.837-2.493-3.37-4.346-4.298-1.29-0.646-2.589-0.982-4.048-1.050l-0.41-0.016v0.963z"></path>
<path fill="#ff7900" d="M5.76 19.36v3.2h1.92v-6.4h-1.92v3.2z"></path>
<path fill="#ff7900" d="M16.32 17.117v0.963l0.122 0.003c0.87 0.016 1.83 0.346 2.528 0.867 0.33 0.246 0.762 0.682 0.982 0.986 0.515 0.717 0.832 1.658 0.845 2.518l0.003 0.106h1.926l-0.019-0.346c-0.061-0.998-0.307-1.866-0.762-2.701-0.397-0.73-0.922-1.357-1.658-1.981-0.173-0.147-0.8-0.544-1.072-0.678-0.81-0.406-1.651-0.63-2.528-0.682l-0.368-0.022v0.966z"></path>
<path fill="#ff7900" d="M2.24 21.12v1.44h1.92v-2.88h-1.92v1.44z"></path>
<path fill="#ff7900" d="M17.082 20.048c-0.262 0.070-0.451 0.182-0.65 0.381-0.342 0.346-0.477 0.749-0.41 1.219 0.166 1.168 1.597 1.642 2.426 0.803 0.288-0.291 0.432-0.627 0.432-1.011s-0.144-0.72-0.432-1.011c-0.362-0.365-0.89-0.512-1.366-0.381z"></path>
</svg>
