<!-- Generated by IcoMoon.io -->
<svg version="1.1" xmlns="http://www.w3.org/2000/svg" width="32" height="32" viewBox="0 0 32 32">
<title>money</title>
<path fill="#ff7900" d="M2.4 15.2v8h25.6v-16h-25.6v8zM24.013 9.008c0.090 0.864 0.563 1.558 1.318 1.933 0.304 0.15 0.528 0.214 0.838 0.246l0.23 0.022v7.99h-0.118c-0.342 0.003-0.851 0.17-1.203 0.4-0.618 0.397-1.056 1.174-1.075 1.894l-0.003 0.106h-17.6l-0.003-0.074c-0.019-0.944-0.65-1.827-1.546-2.17-0.15-0.058-0.595-0.163-0.65-0.154-0.016 0.003-0.064 0.003-0.112 0l-0.090-0.003v-7.99l0.221-0.022c0.861-0.086 1.594-0.608 1.968-1.405 0.096-0.202 0.208-0.672 0.211-0.864v-0.118h17.59l0.022 0.208z"></path>
<path fill="#ff7900" d="M14.618 10.435c-1.971 0.256-3.568 1.658-4.054 3.555-0.125 0.48-0.131 0.538-0.147 1.098-0.016 0.659 0.022 0.941 0.224 1.584 0.403 1.29 1.35 2.342 2.63 2.922 0.32 0.144 0.742 0.269 1.174 0.342 0.358 0.064 1.245 0.064 1.539 0.003 0.090-0.019 0.195-0.042 0.24-0.048 0.656-0.125 1.475-0.528 2.035-0.998 0.88-0.736 1.427-1.67 1.664-2.829 0.061-0.301 0.080-1.194 0.035-1.504-0.17-1.114-0.646-2.051-1.427-2.813-0.717-0.694-1.542-1.101-2.627-1.299-0.189-0.032-1.059-0.042-1.286-0.013z"></path>
<path fill="#ff7900" d="M7.392 14.019c-0.208 0.038-0.509 0.198-0.643 0.339-0.662 0.691-0.314 1.818 0.621 2.013 0.106 0.022 0.221 0.035 0.259 0.029s0.131-0.019 0.208-0.029c0.499-0.074 0.963-0.627 0.963-1.152 0-0.746-0.691-1.331-1.408-1.2z"></path>
<path fill="#ff7900" d="M22.656 14.010c-0.902 0.125-1.347 1.13-0.835 1.875 0.419 0.605 1.29 0.688 1.808 0.17 0.592-0.592 0.442-1.549-0.294-1.923-0.202-0.102-0.477-0.15-0.678-0.122z"></path>
<path fill="#ff7900" d="M28.8 16.8v7.2h-24.8v1.6h26.4v-16h-1.6v7.2z"></path>
</svg>
