<!-- Generated by IcoMoon.io -->
<svg version="1.1" xmlns="http://www.w3.org/2000/svg" width="32" height="32" viewBox="0 0 32 32">
<title>More_dots</title>
<path fill="#ff7900" d="M5.84 12.851c-0.637 0.112-1.219 0.416-1.696 0.893-0.614 0.611-0.938 1.392-0.938 2.256 0 1.77 1.421 3.194 3.197 3.194 0.509 0 0.947-0.102 1.421-0.336 1.44-0.71 2.118-2.381 1.594-3.914-0.371-1.078-1.334-1.898-2.474-2.096-0.294-0.051-0.803-0.051-1.104 0.003z"></path>
<path fill="#ff7900" d="M15.456 12.851c-1.101 0.189-2.016 0.931-2.429 1.974-0.163 0.41-0.224 0.774-0.211 1.254 0.022 0.87 0.32 1.568 0.928 2.176 0.646 0.646 1.427 0.957 2.352 0.931 1.728-0.045 3.098-1.446 3.098-3.171 0-1.571-1.098-2.89-2.64-3.165-0.298-0.054-0.79-0.054-1.098 0z"></path>
<path fill="#ff7900" d="M24.986 12.864c-0.346 0.070-0.467 0.112-0.73 0.234-0.336 0.157-0.637 0.371-0.912 0.646-0.474 0.474-0.746 0.982-0.88 1.645-0.33 1.642 0.685 3.258 2.323 3.706 0.282 0.077 0.371 0.086 0.813 0.086 0.432-0.003 0.534-0.013 0.806-0.086 1.21-0.323 2.074-1.251 2.342-2.518 0.064-0.301 0.042-0.998-0.038-1.328-0.262-1.034-0.96-1.827-1.971-2.24-0.477-0.192-1.232-0.256-1.754-0.144z"></path>
</svg>
