<!-- Generated by IcoMoon.io -->
<svg version="1.1" xmlns="http://www.w3.org/2000/svg" width="32" height="32" viewBox="0 0 32 32">
<title>move_to_folder</title>
<path fill="#ff7900" d="M3.2 9.6v4h4v-0.861c0-0.931 0.013-1.018 0.179-1.238 0.048-0.061 0.154-0.15 0.234-0.198 0.125-0.074 0.182-0.086 0.387-0.086 0.202 0 0.266 0.016 0.374 0.080 0.128 0.077 1.613 1.523 3.85 3.744 0.998 0.989 1.053 1.053 1.162 1.283 0.282 0.598 0.282 1.168 0 1.757-0.109 0.224-0.182 0.304-1.078 1.2-1.981 1.971-3.802 3.747-3.917 3.814-0.282 0.173-0.691 0.115-0.944-0.128-0.23-0.227-0.246-0.31-0.246-1.309v-0.858h-4v1.894c0 2.134 0.003 2.147 0.227 2.611 0.243 0.502 0.723 0.883 1.296 1.030 0.243 0.064 0.41 0.064 12.163 0.064h11.914v-7.898c0-6.806-0.006-7.926-0.048-8.118-0.154-0.73-0.736-1.331-1.475-1.52-0.243-0.064-0.368-0.064-6.56-0.064h-6.31l-0.070-0.090c-0.038-0.048-0.579-0.765-1.197-1.59l-1.13-1.504-8.81-0.016v4z"></path>
<path fill="#ff7900" d="M8 13.197v1.203l-2.662 0.003c-1.466 0-2.707 0.010-2.762 0.016-0.17 0.029-0.477 0.192-0.621 0.336-0.077 0.077-0.186 0.234-0.24 0.349l-0.099 0.208v3.776l0.099 0.208c0.166 0.339 0.41 0.55 0.755 0.653 0.16 0.045 0.467 0.051 2.854 0.051h2.675v2.4l0.17-0.163c0.090-0.093 0.845-0.832 1.67-1.645 0.829-0.813 1.779-1.75 2.115-2.077 0.518-0.506 0.63-0.634 0.72-0.813 0.099-0.198 0.109-0.237 0.106-0.502-0.003-0.24-0.019-0.32-0.090-0.477-0.093-0.211 0.080-0.032-2.835-2.899-0.832-0.819-1.59-1.565-1.683-1.658l-0.173-0.173v1.203z"></path>
</svg>
