<!-- Generated by IcoMoon.io -->
<svg version="1.1" xmlns="http://www.w3.org/2000/svg" width="32" height="32" viewBox="0 0 32 32">
<title>multi_sim</title>
<path fill="#ff7900" d="M6.48 2.445c-0.355 0.112-0.595 0.32-0.762 0.656l-0.102 0.211v21.376l0.099 0.208c0.131 0.269 0.323 0.464 0.586 0.589l0.211 0.099 3.888 0.019v-1.603h-1.258c-1.437 0-1.469-0.003-1.706-0.243-0.23-0.227-0.237-0.285-0.237-1.715v-1.242h3.2v-0.8h-3.2v-3.2h3.2v-0.8h-3.2v-1.258c0-1.443 0.003-1.472 0.246-1.709 0.237-0.227 0.285-0.234 1.712-0.234h1.242v-2.698c0-3.018-0.003-2.944 0.227-3.408 0.246-0.502 0.73-0.886 1.296-1.030 0.237-0.061 0.368-0.064 3.347-0.064 1.702 0 3.098-0.006 3.098-0.016s-0.714-0.73-1.584-1.6l-1.584-1.584-4.298 0.003c-3.376 0-4.323 0.010-4.422 0.042z"></path>
<path fill="#ff7900" d="M12.118 6.435c-0.422 0.099-0.797 0.483-0.886 0.906-0.022 0.112-0.029 3.456-0.026 10.755l0.010 10.592 0.099 0.208c0.128 0.266 0.326 0.464 0.589 0.589l0.208 0.099 6.192 0.010c4.058 0.003 6.243-0.003 6.342-0.026 0.368-0.077 0.669-0.317 0.838-0.672l0.099-0.208 0.010-8.742 0.006-8.746-4.8-4.8-4.278 0.003c-2.358 0.003-4.336 0.016-4.403 0.032zM16 18.4v1.6h-3.203l0.010-1.322c0.010-1.478 0-1.408 0.253-1.654 0.224-0.214 0.243-0.218 1.67-0.221l1.27-0.003v1.6zM20 20.4v3.6h-7.2v-3.2h4v-4h3.2v3.6zM23.459 16.848c0.192 0.067 0.333 0.186 0.435 0.362l0.090 0.15 0.010 1.318 0.010 1.322h-3.203v-3.2h1.261c1.043 0 1.283 0.010 1.398 0.048zM24 22.4v1.6h-3.2v-3.2h3.2v1.6zM16 26.4v1.6h-1.29l-1.286-0.003-0.173-0.086c-0.096-0.048-0.214-0.138-0.266-0.202-0.176-0.221-0.182-0.256-0.186-1.638v-1.27h3.2v1.6zM20 26.4v1.6h-3.2v-3.2h3.2v1.6zM23.994 26.118c-0.010 1.475 0 1.408-0.246 1.654-0.221 0.221-0.272 0.227-1.69 0.227h-1.258v-3.2h3.203l-0.010 1.318z"></path>
</svg>
