<!-- Generated by IcoMoon.io -->
<svg version="1.1" xmlns="http://www.w3.org/2000/svg" width="32" height="32" viewBox="0 0 32 32">
<title>multiple_timezone</title>
<path fill="#ff7900" d="M11.357 1.613c-0.006 0.006-0.134 0.019-0.282 0.032-1.178 0.086-2.48 0.451-3.635 1.011-3.264 1.59-5.482 4.81-5.802 8.422-0.045 0.518-0.022 1.84 0.038 2.202 0.010 0.045 0.022 0.138 0.032 0.208 0.23 1.779 1.043 3.616 2.269 5.136 0.291 0.358 1.11 1.165 1.51 1.485 1.149 0.918 2.483 1.587 3.901 1.958 0.387 0.099 0.464 0.138 0.467 0.224 0 0.019 0.051 0.218 0.112 0.445 0.307 1.117 0.79 2.17 1.418 3.088 0.179 0.259 0.467 0.653 0.518 0.704 0.010 0.010 0.093 0.109 0.189 0.224 0.259 0.31 0.906 0.95 1.251 1.235 1.635 1.363 3.648 2.192 5.76 2.374 0.362 0.029 1.482 0.029 1.84-0.003 3.77-0.333 7.082-2.736 8.605-6.24 0.282-0.643 0.55-1.517 0.656-2.118 0.019-0.106 0.042-0.227 0.051-0.272 0.144-0.701 0.173-2.186 0.064-3.040-0.237-1.811-0.915-3.482-2.013-4.944-0.301-0.4-0.57-0.701-1.024-1.152-1.251-1.242-2.8-2.141-4.499-2.608-0.202-0.058-0.422-0.118-0.493-0.141l-0.122-0.035-0.106-0.416c-0.339-1.334-1.002-2.688-1.85-3.77-0.326-0.413-0.387-0.483-0.854-0.954-1.642-1.658-3.674-2.662-6.064-2.989-0.342-0.048-1.901-0.102-1.939-0.067zM12.493 4.528c0.33 0.157 0.576 0.461 0.656 0.819 0.022 0.090 0.035 1.206 0.035 3.043 0 2.762-0.003 2.909-0.061 3.094-0.035 0.109-0.096 0.243-0.141 0.301-0.125 0.166-2.845 2.861-2.973 2.95-0.336 0.227-0.87 0.253-1.206 0.058-0.643-0.374-0.832-1.114-0.435-1.722 0.058-0.086 0.634-0.685 1.277-1.328l1.171-1.168v-2.566c0-2.403 0.003-2.576 0.058-2.755 0.128-0.406 0.454-0.71 0.886-0.819 0.035-0.010 0.173-0.010 0.307-0.006 0.179 0.010 0.288 0.035 0.426 0.099zM21.101 12.077c1.066 0.15 2.080 0.506 2.995 1.053 0.304 0.179 0.33 0.198 0.784 0.538 0.323 0.24 0.966 0.851 1.251 1.19 0.515 0.614 0.989 1.405 1.29 2.157 0.234 0.576 0.445 1.373 0.502 1.882 0.010 0.106 0.032 0.262 0.045 0.352 0.042 0.259 0.013 1.466-0.042 1.84-0.218 1.443-0.771 2.746-1.638 3.856-1.072 1.373-2.646 2.39-4.352 2.819-1.075 0.269-2.349 0.304-3.44 0.093-2.019-0.39-3.802-1.53-5.002-3.206-0.56-0.778-1.094-1.942-1.27-2.762-0.106-0.506-0.125-0.608-0.147-0.784-0.010-0.106-0.029-0.256-0.042-0.336-0.054-0.339-0.029-1.398 0.045-1.888 0.042-0.285 0.054-0.358 0.16-0.848 0.042-0.186 0.262-0.838 0.374-1.104 0.282-0.669 0.704-1.379 1.142-1.93 0.195-0.243 0.797-0.87 1.034-1.072 1.229-1.053 2.928-1.776 4.426-1.882 0.157-0.013 0.294-0.026 0.301-0.032 0.038-0.032 1.245 0.016 1.584 0.064z"></path>
<path fill="#ff7900" d="M19.645 13.277c-0.336 0.109-0.579 0.33-0.746 0.675-0.067 0.141-0.067 0.179-0.083 2.39l-0.016 2.25-1.219 1.222c-1.418 1.427-1.398 1.398-1.402 1.914-0.003 0.266 0.010 0.326 0.080 0.483 0.317 0.675 1.155 0.928 1.747 0.525 0.067-0.045 0.774-0.73 1.568-1.523 1.306-1.302 1.456-1.462 1.52-1.626l0.074-0.179v-2.64c0-2.467-0.003-2.65-0.058-2.781-0.141-0.349-0.416-0.605-0.762-0.71-0.24-0.074-0.47-0.074-0.704 0z"></path>
</svg>
