<!-- Generated by IcoMoon.io -->
<svg version="1.1" xmlns="http://www.w3.org/2000/svg" width="32" height="32" viewBox="0 0 32 32">
<title>Music_artist</title>
<path fill="#ff7900" d="M15.245 2.448c-0.906 0.134-1.68 0.426-2.413 0.906-0.362 0.237-0.563 0.406-0.928 0.771-0.87 0.877-1.398 1.926-1.606 3.203-0.051 0.323-0.051 1.392 0.003 1.696 0.109 0.634 0.285 1.178 0.547 1.702 0.752 1.501 2.093 2.586 3.709 3.005 2.029 0.525 4.192-0.096 5.622-1.613 0.787-0.835 1.299-1.862 1.504-3.014 0.070-0.394 0.080-1.44 0.016-1.808-0.058-0.346-0.211-0.922-0.31-1.174-0.579-1.485-1.69-2.64-3.136-3.258-0.477-0.205-0.797-0.294-1.485-0.416-0.237-0.045-1.232-0.042-1.523 0z"></path>
<path fill="#ff7900" d="M10.832 13.581c-0.035 0.022-0.208 0.134-0.384 0.25-1.757 1.136-2.954 3.075-3.206 5.194-0.013 0.122-0.026 1.946-0.026 4.048v3.824l0.083 0.304c0.198 0.71 0.608 1.325 1.165 1.744 0.269 0.202 0.634 0.394 0.934 0.493 0.512 0.17 0.176 0.163 8.080 0.163h7.325l-0.013-5.258c-0.006-2.89-0.022-5.312-0.035-5.382-0.096-0.544-0.195-0.995-0.266-1.216-0.531-1.686-1.6-3.078-3.088-4.013-0.17-0.109-0.326-0.195-0.346-0.195s-0.090 0.048-0.154 0.109c-0.781 0.723-1.984 1.37-3.059 1.638-0.666 0.17-1.085 0.221-1.811 0.221-0.656 0-0.934-0.026-1.478-0.131-0.912-0.176-1.83-0.557-2.618-1.078-0.278-0.186-0.749-0.554-0.861-0.675-0.086-0.093-0.147-0.102-0.243-0.038zM20.208 17.696c0.192 0.086 0.416 0.31 0.506 0.506l0.070 0.15 0.010 3.254c0.006 2.826 0 3.286-0.042 3.469-0.256 1.104-1.478 1.658-2.464 1.114-0.365-0.202-0.704-0.64-0.819-1.053-0.067-0.25-0.054-0.694 0.032-0.95 0.243-0.733 0.989-1.232 1.734-1.165l0.208 0.022v-1.594c-0.003-1.574-0.003-1.594-0.067-1.584-0.035 0.006-0.605 0.15-1.264 0.317s-1.488 0.371-1.84 0.458c-0.352 0.090-0.694 0.173-0.758 0.192l-0.122 0.035v2.374c-0.003 3.027-0.003 2.982-0.051 3.19-0.182 0.778-0.848 1.312-1.645 1.315-0.458 0-0.864-0.166-1.19-0.49-0.237-0.237-0.349-0.429-0.438-0.762-0.163-0.586-0.006-1.181 0.429-1.616 0.371-0.374 0.877-0.56 1.35-0.496 0.109 0.013 0.17 0.010 0.179-0.013 0.006-0.019 0.010-1.242 0.006-2.72 0-2.659 0-2.685 0.064-2.71 0.035-0.013 0.56-0.141 1.168-0.285s1.427-0.339 1.824-0.435c0.397-0.096 0.835-0.202 0.976-0.237s0.522-0.125 0.848-0.205c0.326-0.077 0.621-0.15 0.656-0.16 0.128-0.032 0.493 0.010 0.64 0.077z"></path>
</svg>
