<!-- Generated by IcoMoon.io -->
<svg version="1.1" xmlns="http://www.w3.org/2000/svg" width="32" height="32" viewBox="0 0 32 32">
<title>music_player</title>
<path fill="#ff7900" d="M13.376 3.626c-0.010 0.006-0.154 0.022-0.32 0.035-1.203 0.077-2.822 0.464-3.83 0.918-0.074 0.035-0.141 0.061-0.15 0.061s-0.214 0.096-0.458 0.211c-3.011 1.459-5.328 4.086-6.371 7.229-0.266 0.794-0.442 1.565-0.534 2.304-0.029 0.227-0.058 0.467-0.067 0.528-0.029 0.211-0.038 1.744-0.010 2.048 0.026 0.31 0.035 0.394 0.096 0.848 0.051 0.387 0.182 1.005 0.32 1.507 0.416 1.52 1.094 2.893 2.074 4.189 0.368 0.486 0.605 0.752 1.168 1.312 2.102 2.093 4.806 3.325 7.811 3.565 0.368 0.029 1.773 0.022 2.048-0.013 0.522-0.061 1.146-0.154 1.312-0.192 0.106-0.022 0.272-0.061 0.368-0.080 1.36-0.291 2.922-0.97 4.17-1.814 0.778-0.525 1.168-0.864 2.358-2.045 4.147-4.118 6.374-6.358 6.502-6.541 0.71-1.014 0.71-2.346 0-3.36-0.125-0.176-5.155-5.232-7.094-7.13-1.405-1.376-2.909-2.301-4.768-2.944-0.739-0.256-1.846-0.496-2.598-0.57-0.102-0.010-0.227-0.022-0.282-0.032-0.128-0.022-1.725-0.051-1.744-0.035zM18.909 8.451c0.416 0.096 0.819 0.429 0.982 0.819l0.093 0.218v9.024l-0.099 0.278c-0.173 0.486-0.445 0.858-0.829 1.13-0.762 0.547-1.741 0.592-2.547 0.125-0.31-0.182-0.691-0.582-0.851-0.893-0.214-0.426-0.25-0.579-0.25-1.072 0.003-0.381 0.013-0.461 0.090-0.688 0.118-0.352 0.285-0.627 0.55-0.896s0.518-0.429 0.899-0.57c0.269-0.096 0.31-0.102 0.717-0.102h0.432l-0.006-2c-0.003-1.101-0.006-2.022-0.006-2.051-0.003-0.048-0.022-0.048-0.218 0.010-0.224 0.061-0.301 0.080-2.106 0.554-0.579 0.15-1.184 0.31-1.344 0.352-0.157 0.042-0.461 0.122-0.672 0.176s-0.406 0.106-0.432 0.112c-0.026 0.010-0.186 0.051-0.352 0.093-0.32 0.083-0.902 0.24-1.158 0.31l-0.147 0.042v3.84c0 3.334-0.006 3.872-0.051 4.054-0.198 0.858-0.768 1.462-1.619 1.728-0.31 0.096-0.896 0.106-1.216 0.019-0.57-0.154-1.034-0.49-1.357-0.982-0.778-1.184-0.262-2.8 1.062-3.341 0.301-0.122 0.531-0.16 0.934-0.157h0.368v-3.962c0-2.182 0.003-3.965 0.006-3.965s0.429-0.109 0.944-0.243c0.515-0.134 1.203-0.314 1.53-0.397 0.326-0.086 0.794-0.205 1.040-0.272 0.246-0.064 0.701-0.179 1.008-0.259 0.931-0.243 1.584-0.413 2.256-0.589 1.901-0.499 2.022-0.522 2.349-0.445zM23.968 12.32c0.010 0.010 0.362 0.333 0.784 0.72s0.842 0.768 0.928 0.851c0.090 0.080 0.435 0.397 0.768 0.704 0.336 0.304 0.682 0.621 0.768 0.704 0.272 0.25 0.57 0.522 0.682 0.621l0.106 0.093-0.090 0.083c-0.387 0.349-0.835 0.762-0.874 0.8-0.026 0.026-0.285 0.266-0.576 0.528-0.291 0.266-0.544 0.493-0.563 0.512-0.019 0.016-0.182 0.17-0.365 0.336s-0.429 0.39-0.544 0.499c-0.115 0.106-0.278 0.256-0.365 0.336-0.086 0.077-0.189 0.17-0.224 0.205-0.038 0.035-0.227 0.208-0.419 0.384s-0.438 0.403-0.547 0.502c-0.106 0.102-0.205 0.186-0.214 0.186-0.013 0-0.022-1.974-0.022-4.387v-4.387l0.378 0.346c0.205 0.192 0.381 0.355 0.39 0.365z"></path>
</svg>
