<!-- Generated by IcoMoon.io -->
<svg version="1.1" xmlns="http://www.w3.org/2000/svg" width="32" height="32" viewBox="0 0 32 32">
<title>music_file</title>
<path fill="#ff7900" d="M5.6 15.302c0 14.067-0.013 13.034 0.179 13.43 0.115 0.234 0.454 0.573 0.688 0.688 0.397 0.192-0.342 0.179 10.23 0.179h9.702v-19.2l-2.518-0.003c-1.389 0-2.586-0.010-2.666-0.019-0.467-0.058-1.005-0.262-1.421-0.538-0.445-0.294-0.896-0.842-1.123-1.357-0.109-0.246-0.224-0.659-0.253-0.915-0.006-0.070-0.016-1.261-0.016-2.65l-0.003-2.518h-12.8v12.902zM20.106 13.722c0.253 0.118 0.451 0.32 0.579 0.582l0.099 0.208 0.010 3.84c0.010 4.304 0.019 4.077-0.224 4.563-0.413 0.829-1.44 1.27-2.33 1.005-1.021-0.307-1.638-1.379-1.376-2.397 0.24-0.944 1.094-1.571 2.058-1.514l0.278 0.019v-1.888c0-1.037-0.003-1.885-0.010-1.885-0.003 0-0.893 0.224-1.974 0.496s-2.16 0.541-2.39 0.598l-0.426 0.102v3.187c0 3.069-0.003 3.2-0.064 3.437-0.115 0.448-0.41 0.886-0.778 1.152-0.464 0.336-1.155 0.454-1.718 0.288-0.675-0.195-1.2-0.746-1.379-1.446-0.17-0.662 0.032-1.376 0.528-1.875 0.403-0.406 0.826-0.576 1.437-0.579h0.374v-3.206c0-3.024 0.003-3.206 0.058-3.222 0.029-0.010 0.205-0.051 0.39-0.096s0.525-0.125 0.752-0.179c0.23-0.058 0.438-0.106 0.464-0.112 0.074-0.016 0.666-0.16 2.176-0.525 0.291-0.070 0.688-0.163 0.88-0.211 0.576-0.138 1.786-0.426 1.856-0.445 0.166-0.042 0.534 0.010 0.73 0.102z"></path>
<path fill="#ff7900" d="M20 4.918c0.003 1.61 0.016 2.547 0.035 2.65 0.125 0.586 0.589 1.085 1.123 1.2 0.122 0.026 0.89 0.032 2.698 0.026l2.528-0.010-3.178-3.178c-1.744-1.744-3.181-3.174-3.19-3.174s-0.016 1.12-0.016 2.486z"></path>
</svg>
