<!-- Generated by IcoMoon.io -->
<svg version="1.1" xmlns="http://www.w3.org/2000/svg" width="32" height="32" viewBox="0 0 32 32">
<title>Music_genre</title>
<path fill="#ff7900" d="M26.502 2.205c-0.093 0.032-0.208 0.093-0.253 0.134-0.307 0.275-3.408 3.402-3.43 3.462-0.016 0.038-0.029 0.307-0.032 0.598l-0.003 0.528-5.587 5.587-0.23-0.176c-0.685-0.518-1.456-0.893-2.198-1.062-0.358-0.083-1.155-0.083-1.472 0-0.49 0.128-0.986 0.419-1.331 0.778-0.486 0.502-0.742 1.101-0.784 1.843-0.022 0.442-0.080 0.704-0.205 0.957-0.195 0.39-0.467 0.678-0.832 0.883-0.371 0.208-0.618 0.253-1.389 0.259-0.317 0.003-0.627 0.010-0.688 0.016-0.064 0.010-0.214 0.022-0.339 0.035-0.781 0.070-1.68 0.333-2.32 0.678-1.683 0.906-2.787 2.576-2.989 4.522-0.042 0.39-0.045 1.117-0.006 1.408 0.013 0.080 0.029 0.208 0.038 0.288 0.086 0.672 0.371 1.552 0.739 2.278 0.746 1.472 2.022 2.758 3.498 3.526 1.059 0.55 2.086 0.816 3.232 0.835 1.91 0.029 3.6-0.736 4.749-2.157 0.71-0.877 1.139-1.958 1.251-3.155 0.013-0.125 0.026-0.275 0.032-0.336s0.016-0.387 0.019-0.72c0.006-0.723 0.045-0.96 0.221-1.312 0.234-0.464 0.637-0.826 1.114-0.992 0.237-0.083 0.352-0.102 0.774-0.125 0.787-0.048 1.347-0.301 1.888-0.848 0.803-0.819 1.011-1.914 0.589-3.136-0.205-0.598-0.602-1.328-1.046-1.926l-0.067-0.093 5.597-5.6h0.483c0.266 0 0.534-0.010 0.592-0.022 0.157-0.029 3.52-3.392 3.619-3.619 0.090-0.192 0.086-0.47-0.003-0.659-0.093-0.186-2.48-2.573-2.653-2.65-0.186-0.083-0.384-0.093-0.576-0.029zM13.68 16.451c0.829 0.182 1.514 0.8 1.77 1.597 0.086 0.275 0.102 0.365 0.118 0.65 0.061 1.347-1.030 2.49-2.381 2.486-0.653-0.003-1.2-0.218-1.661-0.65-0.941-0.89-0.998-2.39-0.131-3.344 0.566-0.624 1.475-0.918 2.285-0.739z"></path>
</svg>
