<!-- Generated by IcoMoon.io -->
<svg version="1.1" xmlns="http://www.w3.org/2000/svg" width="32" height="32" viewBox="0 0 32 32">
<title>Mute_microphone</title>
<path fill="#ff7900" d="M15.126 15.232l-13.594 13.597 0.413 0.41c0.224 0.224 0.608 0.608 0.851 0.848l0.438 0.442 27.197-27.197-0.848-0.851c-0.467-0.467-0.854-0.848-0.858-0.845-0.003 0-6.125 6.118-13.6 13.597z"></path>
<path fill="#ff7900" d="M15.168 2.467c-0.653 0.106-1.098 0.243-1.648 0.515-1.715 0.848-2.864 2.496-3.088 4.426-0.019 0.186-0.032 1.843-0.029 4.64 0 3.514 0.010 4.416 0.045 4.682 0.042 0.317 0.128 0.704 0.163 0.739 0.010 0.010 2.448-2.416 5.421-5.392l5.408-5.405-0.048-0.186c-0.067-0.259-0.253-0.726-0.406-1.030-0.765-1.507-2.224-2.618-3.866-2.941-0.646-0.128-1.363-0.144-1.952-0.048z"></path>
<path fill="#ff7900" d="M7.28 13.642c-0.358 0.122-0.611 0.339-0.765 0.662l-0.099 0.208v1.152c0.003 1.267 0.029 1.565 0.211 2.397 0.166 0.758 0.381 1.386 0.71 2.074 0.109 0.227 0.205 0.41 0.214 0.41s0.416-0.4 0.902-0.89l0.886-0.886-0.157-0.467c-0.138-0.403-0.262-0.941-0.336-1.421-0.013-0.070-0.026-0.467-0.035-0.88-0.029-1.568-0.019-1.466-0.131-1.696-0.198-0.419-0.557-0.666-1.011-0.691-0.17-0.006-0.307 0.003-0.39 0.029z"></path>
<path fill="#ff7900" d="M24.074 13.648c-0.33 0.093-0.602 0.326-0.758 0.656l-0.099 0.208-0.022 1.12c-0.022 1.174-0.022 1.171-0.125 1.718-0.163 0.886-0.566 1.878-1.072 2.624-0.704 1.046-1.523 1.789-2.605 2.371-0.131 0.070-0.253 0.138-0.272 0.15-0.074 0.051-0.8 0.33-1.059 0.403-1.443 0.419-2.998 0.39-4.368-0.083l-0.365-0.125-0.886 0.886c-0.49 0.486-0.89 0.899-0.89 0.912 0 0.029 0.566 0.301 0.912 0.438 0.598 0.237 1.494 0.48 2.064 0.557l0.272 0.038 0.010 1.238 0.006 1.238h-1.466c-0.915 0-1.539 0.013-1.658 0.035-0.605 0.109-1.13 0.627-1.258 1.238-0.019 0.093-0.035 0.384-0.035 0.646v0.48h11.203l-0.003-0.512c-0.003-0.314-0.022-0.576-0.048-0.675-0.154-0.582-0.646-1.056-1.226-1.178-0.109-0.022-0.694-0.035-1.654-0.035h-1.488v-1.229c0-1.389-0.029-1.245 0.272-1.283 0.262-0.029 0.774-0.144 1.184-0.259 1.565-0.448 2.963-1.27 4.131-2.429 1.6-1.59 2.566-3.642 2.794-5.936 0.016-0.15 0.026-0.739 0.022-1.312l-0.003-1.040-0.099-0.208c-0.253-0.534-0.854-0.813-1.411-0.656z"></path>
<path fill="#ff7900" d="M18.096 17.92c-1.917 1.917-3.478 3.491-3.472 3.498 0.035 0.029 0.355 0.093 0.656 0.134 0.598 0.080 1.344 0.045 1.974-0.096 1.805-0.403 3.35-1.76 3.997-3.51 0.099-0.275 0.262-0.893 0.301-1.146 0.022-0.16 0.061-2.099 0.042-2.262-0.010-0.102-0.128 0.013-3.498 3.382z"></path>
</svg>
