<!-- Generated by IcoMoon.io -->
<svg version="1.1" xmlns="http://www.w3.org/2000/svg" width="32" height="32" viewBox="0 0 32 32">
<title>my_bill_uk</title>
<path fill="#ff7900" d="M5.6 6.4v3.2h0.816c0.448 0 0.816-0.013 0.816-0.026 0-0.042 0.298-0.25 0.432-0.301 0.445-0.173 0.947-0.058 1.274 0.291 0.24 0.256 0.323 0.467 0.323 0.835 0.003 0.282-0.003 0.32-0.102 0.518-0.189 0.384-0.547 0.63-0.982 0.682-0.278 0.032-0.643-0.099-0.893-0.317l-0.093-0.083h-1.59v9.6h1.67l0.093-0.077c0.208-0.176 0.666-0.266 0.989-0.195 0.33 0.070 0.656 0.342 0.822 0.685 0.077 0.157 0.086 0.218 0.086 0.467 0 0.218-0.019 0.33-0.070 0.464-0.218 0.554-0.883 0.877-1.446 0.701-0.154-0.048-0.378-0.195-0.509-0.33l-0.112-0.115h-1.526l0.010 2.23c0.013 2.157 0.013 2.24 0.077 2.442 0.278 0.87 0.918 1.469 1.798 1.686 0.195 0.048 0.998 0.051 9.568 0.054l9.35 0.003-0.006-11.808c-0.010-11.219-0.013-11.818-0.067-12-0.272-0.922-0.957-1.568-1.862-1.76-0.195-0.042-1.462-0.048-9.542-0.048h-9.322v3.2zM22.79 9.226c0.374 0.224 0.515 0.701 0.314 1.066-0.096 0.173-0.154 0.23-0.32 0.33l-0.144 0.083-4.973 0.010c-5.61 0.010-5.171 0.029-5.43-0.24-0.403-0.416-0.246-1.114 0.294-1.306 0.106-0.038 0.928-0.045 5.117-0.038l4.992 0.006 0.15 0.090zM22.79 13.222c0.595 0.352 0.515 1.219-0.131 1.45-0.122 0.042-0.739 0.048-5.059 0.048-4.272 0-4.938-0.006-5.056-0.048-0.554-0.195-0.72-0.899-0.304-1.312 0.253-0.253-0.179-0.237 5.408-0.23l4.992 0.006 0.15 0.086zM18.288 17.206c0.477 0.256 0.576 0.893 0.195 1.27-0.253 0.256-0.106 0.243-3.126 0.243-2.314 0-2.694-0.006-2.816-0.048-0.56-0.198-0.72-0.896-0.298-1.315 0.243-0.243 0.099-0.234 3.181-0.227l2.736 0.006 0.128 0.070zM22.355 20.032c0.445 0.070 0.755 0.227 1.021 0.522 0.221 0.243 0.368 0.528 0.368 0.71 0 0.272-0.234 0.48-0.544 0.48-0.253-0.003-0.352-0.074-0.512-0.365-0.195-0.365-0.429-0.493-0.848-0.464-0.221 0.013-0.365 0.074-0.499 0.214-0.182 0.186-0.221 0.352-0.24 0.992l-0.019 0.566h0.547c0.598 0 0.717 0.026 0.813 0.17 0.115 0.176 0.064 0.493-0.099 0.614-0.077 0.058-0.141 0.064-0.646 0.070-0.307 0-0.57 0.006-0.579 0.006-0.010 0.003-0.019 0.15-0.016 0.33 0.003 0.765-0.102 1.222-0.371 1.6l-0.061 0.090h1.459c1.382 0 1.466 0.003 1.581 0.061 0.074 0.038 0.138 0.102 0.163 0.163 0.048 0.118 0.026 0.323-0.048 0.435-0.115 0.176-0.096 0.176-2.336 0.166l-2.061-0.010-0.096-0.093c-0.122-0.118-0.173-0.272-0.154-0.451 0.026-0.189 0.093-0.282 0.33-0.451 0.243-0.176 0.336-0.278 0.438-0.499 0.112-0.24 0.154-0.515 0.147-0.938-0.006-0.432 0.003-0.422-0.333-0.413-0.272 0.003-0.432-0.051-0.506-0.179-0.074-0.122-0.077-0.346-0.010-0.477 0.074-0.141 0.218-0.195 0.531-0.195h0.256l-0.006-0.602c-0.003-0.675 0.035-0.899 0.208-1.238 0.333-0.637 1.181-0.963 2.122-0.816z"></path>
</svg>
