<!-- Generated by IcoMoon.io -->
<svg version="1.1" xmlns="http://www.w3.org/2000/svg" width="32" height="32" viewBox="0 0 32 32">
<title>my_boutique</title>
<path fill="#ff7900" d="M15.504 2.419c-0.739 0.086-1.28 0.237-1.898 0.528-1.878 0.883-3.146 2.81-3.2 4.867l-0.006 0.186h-4.8v9.718c0 10.416-0.006 9.862 0.157 10.326 0.086 0.246 0.31 0.602 0.509 0.806 0.304 0.314 0.637 0.518 1.094 0.666l0.208 0.067 8.352 0.006c9.155 0.006 8.544 0.016 9.014-0.182 0.662-0.282 1.174-0.867 1.392-1.584 0.054-0.182 0.058-0.653 0.064-10.010l0.010-9.814h-4.8l-0.003-0.186c0-0.099-0.006-0.205-0.010-0.23-0.006-0.026-0.019-0.144-0.032-0.259-0.074-0.736-0.403-1.658-0.835-2.323-0.928-1.43-2.346-2.326-4.029-2.554-0.314-0.042-0.931-0.058-1.187-0.029zM16.784 4.080c0.803 0.173 1.453 0.525 2.032 1.104 0.698 0.694 1.107 1.59 1.174 2.55l0.019 0.266h-8.019l0.019-0.266c0.096-1.405 0.95-2.675 2.224-3.315 0.394-0.195 0.768-0.31 1.318-0.397 0.195-0.032 0.992 0.003 1.232 0.058zM10.544 11.635c0.346 0.499 1.046 0.474 1.354-0.048l0.086-0.147 0.010-0.81 0.013-0.806 0.096 0.054c0.051 0.032 0.173 0.141 0.266 0.24 0.835 0.899 0.384 2.352-0.822 2.643-0.211 0.054-0.646 0.026-0.867-0.051-1.21-0.429-1.453-2.051-0.422-2.797l0.128-0.093 0.016 0.813 0.016 0.816 0.128 0.186zM20.090 11.562c0.202 0.406 0.736 0.56 1.123 0.32 0.17-0.106 0.317-0.301 0.355-0.477 0.016-0.067 0.032-0.454 0.032-0.854v-0.73l0.099 0.058c0.163 0.096 0.435 0.413 0.534 0.627 0.31 0.653 0.173 1.376-0.355 1.866-0.499 0.464-1.222 0.554-1.862 0.227-0.202-0.102-0.531-0.458-0.65-0.701-0.336-0.688-0.125-1.539 0.49-1.984l0.128-0.093 0.016 0.794c0.016 0.749 0.019 0.803 0.090 0.947zM16.842 14.493c0.771 0.176 1.411 0.528 1.974 1.091 1.024 1.021 1.437 2.544 1.021 3.786-0.083 0.253-0.426 0.963-0.666 1.382-0.048 0.086-0.122 0.218-0.163 0.288-0.125 0.221-1.536 2.733-1.76 3.136-0.307 0.547-0.944 1.686-1.101 1.958-0.070 0.128-0.141 0.234-0.15 0.234-0.013 0-0.051-0.054-0.086-0.122-0.035-0.070-0.218-0.397-0.406-0.73-0.291-0.512-0.554-0.976-1.002-1.773-0.045-0.080-0.304-0.541-0.576-1.024s-0.531-0.944-0.576-1.024c-0.045-0.080-0.24-0.426-0.432-0.768-0.752-1.331-0.915-1.792-0.912-2.605 0.010-1.946 1.526-3.638 3.482-3.891 0.326-0.045 1.034-0.010 1.354 0.061z"></path>
<path fill="#ff7900" d="M17.12 17.251c-0.554 0.246-1.050 0.467-1.104 0.49-0.051 0.026-0.528 0.237-1.056 0.467-0.528 0.234-0.973 0.435-0.986 0.448s0.298 0.112 0.694 0.224c0.397 0.112 0.733 0.211 0.749 0.221 0.013 0.010 0.067 0.342 0.115 0.739s0.099 0.771 0.109 0.832l0.026 0.109 0.205-0.333c0.112-0.186 0.266-0.429 0.339-0.544 0.109-0.17 0.957-1.536 1.613-2.592 0.080-0.131 0.186-0.301 0.234-0.378 0.048-0.074 0.083-0.134 0.080-0.131-0.006 0-0.464 0.202-1.018 0.448z"></path>
</svg>
