<!-- Generated by IcoMoon.io -->
<svg version="1.1" xmlns="http://www.w3.org/2000/svg" width="32" height="32" viewBox="0 0 32 32">
<title>my_essential_tablet</title>
<path fill="#ff7900" d="M20.637 2.029c-0.006 0.006-0.134 0.022-0.285 0.032-0.355 0.032-0.915 0.128-1.306 0.227-3.168 0.806-5.626 3.302-6.39 6.493-0.179 0.746-0.214 1.101-0.23 2.403-0.010 0.669-0.019 1.219-0.022 1.219 0 0.003-0.55 0.013-1.219 0.022-1.485 0.019-1.949 0.077-2.88 0.358-3.44 1.037-5.885 4-6.246 7.568-0.032 0.323-0.032 1.459 0 1.76 0.237 2.109 1.142 3.971 2.64 5.421 1.392 1.347 3.11 2.17 5.078 2.422 0.486 0.064 2.144 0.048 2.256-0.019 0.010-0.006 0.106-0.022 0.208-0.032 0.106-0.013 0.202-0.029 0.211-0.035s0.128-0.032 0.262-0.061c2.035-0.419 3.997-1.718 5.264-3.482 0.87-1.21 1.459-2.768 1.59-4.198 0.013-0.125 0.026-0.275 0.032-0.336s0.013-0.576 0.013-1.139l0.003-1.030 1.21-0.016c0.662-0.006 1.242-0.022 1.286-0.032s0.166-0.026 0.272-0.038c0.778-0.083 1.888-0.419 2.682-0.806 2.739-1.341 4.563-3.942 4.902-7.002 0.042-0.365 0.045-1.581 0.003-1.834-0.010-0.058-0.032-0.221-0.051-0.368-0.179-1.341-0.784-2.8-1.632-3.946-1.421-1.917-3.667-3.235-5.936-3.488-0.086-0.010-0.195-0.026-0.24-0.035-0.090-0.019-1.456-0.045-1.475-0.029zM22.016 4.47c0.95 0.122 1.926 0.48 2.704 0.995 1.517 1.002 2.493 2.509 2.819 4.342 0.080 0.454 0.080 1.568 0 2.016-0.25 1.379-0.794 2.464-1.731 3.434-0.819 0.851-1.837 1.453-2.96 1.744-0.675 0.176-0.989 0.205-2.198 0.211l-1.034 0.006v-2.403h0.922c1.046-0.003 1.152-0.010 1.59-0.112 0.368-0.086 0.57-0.16 0.922-0.339 0.397-0.202 0.621-0.368 0.986-0.733 0.592-0.592 0.931-1.219 1.104-2.048 0.074-0.339 0.080-1.155 0.016-1.488-0.31-1.59-1.526-2.845-3.098-3.19-0.422-0.093-1.21-0.099-1.61-0.016-1.722 0.368-2.976 1.712-3.2 3.424-0.016 0.138-0.032 0.669-0.032 1.178v0.925h-2.406l0.016-1.146c0.010-0.627 0.026-1.194 0.035-1.251 0.010-0.061 0.042-0.237 0.067-0.39 0.246-1.421 1.117-2.87 2.288-3.808 0.918-0.736 2.211-1.27 3.296-1.36 0.131-0.013 0.246-0.026 0.253-0.032 0.032-0.026 0.954 0.003 1.251 0.042zM17.213 18.23c-0.003 2.582-0.016 3.501-0.045 3.754-0.355 2.877-2.566 5.136-5.44 5.565-0.323 0.048-0.547 0.058-1.008 0.051-0.627-0.013-0.662-0.016-1.178-0.115-2.083-0.4-3.917-1.949-4.694-3.965-0.445-1.152-0.544-2.486-0.275-3.702 0.426-1.933 1.792-3.606 3.619-4.438 0.541-0.246 1.312-0.458 1.92-0.528 0.131-0.013 1.786-0.029 3.674-0.032l3.43-0.003-0.003 3.414z"></path>
<path fill="#ff7900" d="M10.224 17.264c-0.899 0.144-1.578 0.49-2.227 1.136-0.765 0.765-1.142 1.642-1.165 2.72-0.026 1.104 0.339 2.054 1.085 2.838 0.563 0.592 1.219 0.97 2.035 1.162 0.368 0.090 1.174 0.109 1.568 0.035 0.806-0.147 1.517-0.525 2.115-1.12 0.81-0.813 1.184-1.747 1.165-2.899-0.013-0.675-0.125-1.133-0.419-1.728-0.544-1.085-1.552-1.853-2.781-2.115-0.326-0.067-1.037-0.083-1.376-0.029z"></path>
</svg>
