<!-- Generated by IcoMoon.io -->
<svg version="1.1" xmlns="http://www.w3.org/2000/svg" width="32" height="32" viewBox="0 0 32 32">
<title>my_livebox</title>
<path fill="#ff7900" d="M15.504 4.051c-0.317 0.070-0.65 0.214-0.902 0.394-0.118 0.086-0.547 0.49-0.95 0.902-0.4 0.413-1.338 1.366-2.083 2.125-0.742 0.755-1.507 1.533-1.696 1.728-0.189 0.192-0.973 0.992-1.741 1.776-0.771 0.784-1.536 1.562-1.702 1.734-0.864 0.886-3.002 3.056-3.091 3.139-0.058 0.054-0.106 0.109-0.106 0.125 0 0.013 1.072 0.026 2.384 0.026h2.384l0.006 5.014 0.010 5.018 0.074 0.24c0.246 0.8 0.861 1.398 1.693 1.654 0.176 0.051 0.538 0.058 6.106 0.064 5.36 0.010 5.942 0.006 6.176-0.042 0.992-0.202 1.741-0.976 1.904-1.968 0.019-0.134 0.032-1.888 0.032-5.094v-4.886h4.803l-0.234-0.237c-0.746-0.752-3.264-3.309-3.738-3.795-0.307-0.314-1.222-1.242-2.032-2.064s-1.686-1.715-1.952-1.984c-3.514-3.59-3.517-3.594-4.118-3.795-0.368-0.125-0.864-0.154-1.226-0.074zM21.018 11.309c0.784 0.272 1.315 0.973 1.36 1.795 0.051 0.877-0.518 1.702-1.366 1.99-0.55 0.189-1.181 0.112-1.693-0.205l-0.122-0.077-1.008 0.755c-0.595 0.445-1.005 0.771-0.992 0.794 0.266 0.608 0.374 1.059 0.378 1.571 0.003 0.413-0.019 0.614-0.102 0.947-0.118 0.454-0.285 0.822-0.55 1.19-0.083 0.118-0.154 0.23-0.154 0.243 0 0.016 0.032 0.064 0.074 0.106s0.208 0.234 0.374 0.429c0.166 0.192 0.358 0.416 0.429 0.496 0.074 0.080 0.166 0.189 0.211 0.243 0.109 0.128 0.493 0.57 0.512 0.589 0.010 0.010 0.074 0.083 0.138 0.166 0.115 0.141 0.128 0.147 0.224 0.118 0.179-0.054 0.544-0.067 0.742-0.032 0.413 0.077 0.874 0.394 1.078 0.742 0.323 0.55 0.298 1.226-0.064 1.754-0.205 0.304-0.618 0.573-0.982 0.64-0.25 0.048-0.646 0.019-0.854-0.061-0.832-0.314-1.258-1.194-0.976-2.016 0.045-0.131 0.074-0.256 0.061-0.275-0.013-0.022-0.074-0.096-0.134-0.163s-0.192-0.214-0.288-0.33c-0.096-0.115-0.182-0.214-0.192-0.224s-0.198-0.224-0.416-0.48c-0.438-0.509-0.509-0.586-0.698-0.8l-0.128-0.144-0.269 0.134c-0.56 0.282-1.072 0.394-1.722 0.378-0.976-0.019-1.85-0.406-2.509-1.107-0.787-0.838-1.114-1.882-0.947-3.050 0.102-0.723 0.522-1.514 1.069-2.029 1.35-1.264 3.341-1.331 4.781-0.166 0.118 0.096 0.218 0.154 0.24 0.138 0.022-0.013 0.202-0.144 0.403-0.294 0.339-0.256 0.682-0.512 1.302-0.976 0.138-0.102 0.256-0.192 0.262-0.195 0.006-0.006-0.013-0.093-0.038-0.195-0.163-0.63 0.003-1.334 0.429-1.827 0.144-0.166 0.435-0.384 0.643-0.48 0.179-0.083 0.275-0.115 0.557-0.182 0.035-0.010 0.208-0.010 0.384-0.003 0.237 0.010 0.381 0.032 0.554 0.093z"></path>
</svg>
