<!-- Generated by IcoMoon.io -->
<svg version="1.1" xmlns="http://www.w3.org/2000/svg" width="32" height="32" viewBox="0 0 32 32">
<title>my_media</title>
<path fill="#ff7900" d="M3.2 15.094c0 10.566-0.019 9.706 0.227 10.211 0.243 0.502 0.723 0.883 1.296 1.030 0.243 0.064 0.41 0.064 12.163 0.064h11.914v-7.898c0-8.787 0.016-8.115-0.227-8.608-0.246-0.502-0.73-0.886-1.296-1.030-0.243-0.064-0.381-0.064-6.56-0.064h-6.31l-0.070-0.090c-0.038-0.048-0.579-0.765-1.197-1.59l-1.13-1.504-8.81-0.016v9.494zM17.088 11.293c0.723 0.141 1.219 0.304 1.802 0.602 1.002 0.512 1.792 1.213 2.435 2.163 0.32 0.47 0.704 1.29 0.822 1.75 0.195 0.752 0.25 1.206 0.237 1.936-0.006 0.317-0.019 0.611-0.029 0.656s-0.032 0.173-0.048 0.288c-0.24 1.498-1.146 3.008-2.381 3.962-0.861 0.666-1.789 1.072-2.918 1.274-0.442 0.080-1.526 0.080-1.99 0.003-1.238-0.208-2.294-0.701-3.21-1.498-0.672-0.586-1.187-1.261-1.568-2.051-0.426-0.89-0.608-1.674-0.624-2.682-0.013-0.813 0.070-1.37 0.307-2.096 0.736-2.234 2.682-3.917 4.989-4.304 0.509-0.083 0.515-0.083 1.2-0.077 0.477 0.003 0.688 0.019 0.976 0.074z"></path>
<path fill="#ff7900" d="M14.4 17.587v4.371l0.202-0.16c0.326-0.256 0.806-0.634 1.466-1.142 0.342-0.262 0.694-0.538 0.784-0.608s0.397-0.31 0.688-0.534c0.288-0.224 0.864-0.672 1.277-0.995s0.848-0.659 0.97-0.752l0.214-0.163-0.23-0.182c-0.448-0.355-0.589-0.464-1.018-0.8-0.237-0.186-0.547-0.426-0.688-0.534s-0.285-0.221-0.32-0.25c-0.035-0.032-0.467-0.371-0.96-0.755-0.493-0.387-1.232-0.963-1.638-1.283l-0.746-0.582v4.371z"></path>
</svg>
