<!-- Generated by IcoMoon.io -->
<svg version="1.1" xmlns="http://www.w3.org/2000/svg" width="32" height="32" viewBox="0 0 32 32">
<title>My_Office_Phone</title>
<path fill="#ff7900" d="M2.4 14.918c0 10.045-0.006 9.488 0.16 9.939 0.083 0.218 0.141 0.326 0.291 0.534 0.32 0.438 0.669 0.698 1.203 0.89l0.282 0.102 25.264 0.016v-9.318c0-10.042 0.006-9.488-0.16-9.939-0.294-0.787-1.018-1.373-1.862-1.51-0.134-0.019-4.33-0.032-12.688-0.032h-12.49v9.318zM10.899 8.102c0.301 0.195 0.326 0.349 0.237 1.306-0.032 0.326-0.067 0.72-0.077 0.88-0.013 0.157-0.029 0.339-0.035 0.4s-0.022 0.227-0.032 0.368c-0.029 0.368-0.090 0.56-0.227 0.701-0.221 0.227-0.298 0.243-1.213 0.243h-0.81l-0.099 0.080c-0.118 0.102-0.23 0.336-0.336 0.694-0.083 0.285-0.195 0.922-0.227 1.274-0.010 0.115-0.029 0.33-0.045 0.48-0.032 0.358-0.035 1.76 0 2.144 0.045 0.528 0.064 0.678 0.131 1.088 0.109 0.669 0.285 1.181 0.464 1.35 0.077 0.070 0.096 0.074 0.931 0.090 0.758 0.013 0.867 0.022 0.979 0.077 0.288 0.144 0.413 0.374 0.448 0.819 0.019 0.246 0.038 0.467 0.067 0.752 0.010 0.086 0.022 0.275 0.032 0.416s0.026 0.298 0.032 0.352c0.006 0.051 0.029 0.31 0.051 0.576 0.035 0.47 0.035 0.483-0.035 0.634-0.083 0.176-0.214 0.288-0.4 0.342-0.090 0.026-0.445 0.032-1.2 0.026-1.152-0.013-1.107-0.006-1.456-0.192-1.094-0.582-2-2.582-2.333-5.146-0.109-0.822-0.131-1.226-0.131-2.256 0-1.034 0.026-1.446 0.131-2.272 0.016-0.131 0.134-0.858 0.157-0.966 0.432-2.115 1.21-3.603 2.176-4.17 0.298-0.173 0.451-0.189 1.616-0.182l1.072 0.006 0.131 0.086zM25.99 8.106c0.083 0.048 0.189 0.138 0.237 0.198 0.176 0.234 0.173 0.166 0.173 3.312 0 3.258 0.013 3.082-0.237 3.338-0.256 0.266 0.173 0.246-5.363 0.246s-5.107 0.019-5.363-0.246c-0.25-0.256-0.237-0.077-0.237-3.354 0-3.283-0.013-3.11 0.24-3.36 0.253-0.253-0.179-0.237 5.408-0.23l4.992 0.006 0.15 0.090zM25.99 17.706c0.461 0.269 0.544 0.88 0.173 1.251-0.259 0.262 0.163 0.243-5.36 0.243-3.104 0-4.957-0.013-5.024-0.032-0.259-0.074-0.48-0.307-0.554-0.582-0.102-0.39 0.173-0.861 0.557-0.954 0.058-0.016 2.346-0.022 5.082-0.022l4.976 0.006 0.15 0.090zM25.866 21.651c0.086 0.029 0.211 0.109 0.291 0.186 0.429 0.419 0.253 1.146-0.32 1.318-0.218 0.064-9.917 0.064-10.099 0-0.298-0.106-0.538-0.435-0.538-0.733 0-0.166 0.067-0.371 0.163-0.506 0.080-0.112 0.291-0.253 0.429-0.288 0.054-0.013 2.307-0.022 5.011-0.026 4.422-0.003 4.928 0.003 5.062 0.048z"></path>
</svg>
