<!-- Generated by IcoMoon.io -->
<svg version="1.1" xmlns="http://www.w3.org/2000/svg" width="32" height="32" viewBox="0 0 32 32">
<title>my_plug</title>
<path fill="#ff7900" d="M4.512 3.222c-0.448 0.077-0.934 0.442-1.136 0.854-0.189 0.384-0.176-0.486-0.176 11.898 0 8.205 0.010 11.43 0.035 11.552 0.125 0.598 0.64 1.114 1.238 1.238 0.122 0.026 3.347 0.035 11.552 0.035 9.754 0 11.408-0.006 11.555-0.048 0.563-0.147 1.021-0.595 1.162-1.133 0.051-0.198 0.054-0.941 0.054-11.594 0.003-8.192-0.006-11.43-0.032-11.552-0.125-0.598-0.64-1.114-1.238-1.238-0.122-0.026-3.35-0.035-11.552-0.032-6.259 0.003-11.418 0.013-11.462 0.019zM17.040 5.654c2.026 0.208 3.869 0.963 5.475 2.24 0.448 0.358 1.232 1.142 1.594 1.594 0.8 1.005 1.389 2.099 1.792 3.328 0.195 0.605 0.368 1.411 0.451 2.144 0.042 0.374 0.042 1.581 0 2.016-0.179 1.83-0.832 3.59-1.85 5.008-0.483 0.672-1.226 1.488-1.763 1.939-1.68 1.405-3.722 2.259-5.843 2.442-0.333 0.029-1.706 0.022-1.92-0.010-0.061-0.010-0.234-0.032-0.384-0.054-1.245-0.16-2.608-0.618-3.69-1.235-0.554-0.314-1.251-0.803-1.712-1.2-0.147-0.125-0.947-0.931-1.075-1.078-1.402-1.642-2.246-3.632-2.474-5.827-0.032-0.31-0.032-1.466 0-1.856 0.323-4.006 3.018-7.507 6.838-8.89 0.544-0.198 1.488-0.438 1.952-0.499 0.080-0.010 0.205-0.029 0.278-0.038 0.57-0.080 1.683-0.090 2.33-0.022z"></path>
<path fill="#ff7900" d="M15.514 7.248c-0.928 0.192-1.67 0.941-1.866 1.888-0.214 1.046 0.317 2.128 1.28 2.605 0.384 0.189 0.605 0.24 1.072 0.24s0.685-0.048 1.072-0.243c0.611-0.304 1.037-0.816 1.235-1.482 0.086-0.285 0.106-0.842 0.042-1.136-0.163-0.758-0.685-1.408-1.379-1.715-0.406-0.182-1.018-0.246-1.456-0.157zM16.515 8.090c1.123 0.394 1.446 1.795 0.608 2.634-0.346 0.346-0.774 0.506-1.251 0.464-1.357-0.112-1.958-1.75-0.995-2.71 0.221-0.221 0.464-0.362 0.749-0.432 0.221-0.058 0.659-0.035 0.89 0.045z"></path>
<path fill="#ff7900" d="M10.096 13.619c-0.035 0.006-0.144 0.029-0.24 0.048-0.506 0.102-1.104 0.499-1.405 0.938-0.333 0.483-0.458 0.912-0.435 1.507 0.026 0.794 0.435 1.491 1.123 1.923 1.357 0.848 3.162 0.131 3.584-1.427 0.070-0.259 0.083-0.81 0.029-1.078-0.211-0.989-0.989-1.741-1.968-1.894-0.202-0.035-0.557-0.042-0.688-0.016z"></path>
<path fill="#ff7900" d="M21.264 13.622c-1.402 0.195-2.342 1.606-1.984 2.982 0.211 0.822 0.874 1.485 1.712 1.718 0.285 0.080 0.925 0.080 1.216 0 1.107-0.301 1.862-1.354 1.779-2.483-0.054-0.771-0.442-1.427-1.085-1.85-0.483-0.314-1.075-0.445-1.638-0.368z"></path>
</svg>
