<!-- Generated by IcoMoon.io -->
<svg version="1.1" xmlns="http://www.w3.org/2000/svg" width="32" height="32" viewBox="0 0 32 32">
<title>my_services</title>
<path fill="#ff7900" d="M9.6 5.654c0 0.051 0 3.322 0 7.274 0 4.861 0.010 7.242 0.032 7.36 0.093 0.486 0.474 0.954 0.947 1.152 0.253 0.109 0.256 0.109 0.858 0.122 0.579 0.013 0.605 0.010 0.579-0.045-0.016-0.035-0.061-0.192-0.102-0.349-0.067-0.246-0.077-0.339-0.064-0.64 0.010-0.198 0.038-0.435 0.070-0.544 0.032-0.106 0.422-1.078 0.87-2.16 0.451-1.082 0.842-2.032 0.874-2.112s0.080-0.198 0.109-0.262l0.051-0.122-0.202-0.214c-1.014-1.085-1.741-2.195-2.144-3.277-0.198-0.534-0.259-0.829-0.259-1.277-0.003-0.621-0.003-0.627 0.701-1.331 0.826-0.832 0.938-0.87 1.354-0.461 0.182 0.179 1.005 1.206 1.152 1.434 0.298 0.467 0.253 0.618-0.368 1.261l-0.403 0.416 0.019 0.186c0.029 0.314 0.256 0.723 0.691 1.245l0.195 0.234 0.061-0.138c0.032-0.077 0.211-0.509 0.397-0.957 1.971-4.765 2.557-6.163 2.627-6.256 0.048-0.061 0.154-0.15 0.237-0.198 0.128-0.077 0.186-0.090 0.374-0.090 0.211 0.003 0.272 0.022 1.040 0.342 1.907 0.794 3.072 1.274 3.088 1.274 0.035 0-0.016-0.627-0.064-0.784-0.134-0.432-0.4-0.755-0.819-0.989-0.326-0.182 0-0.176-6.195-0.176l-5.706-0.003v0.086z"></path>
<path fill="#ff7900" d="M18.24 6.96c0 0.026-0.013 0.074-0.032 0.106-0.016 0.029-0.173 0.4-0.349 0.822-0.173 0.422-0.614 1.488-0.979 2.368s-0.797 1.923-0.96 2.32c-0.163 0.397-0.717 1.728-1.226 2.96s-1.165 2.816-1.456 3.52c-0.291 0.704-0.547 1.344-0.563 1.424-0.115 0.493 0.038 1.050 0.394 1.434 0.246 0.269 0.23 0.262 2.323 1.126 0.397 0.163 1.059 0.438 1.472 0.608 1.091 0.454 2.326 0.966 3.28 1.36 0.458 0.189 1.136 0.47 1.504 0.624 1.107 0.461 2.237 0.925 2.282 0.934 0.026 0.006 0.074-0.064 0.115-0.166 0.042-0.096 0.525-1.264 1.075-2.592s1.018-2.461 1.040-2.512c0.042-0.090 1.376-3.318 1.776-4.288 0.102-0.246 0.432-1.046 0.736-1.776 0.832-2.003 0.829-1.997 0.874-2.198 0.144-0.611-0.131-1.322-0.643-1.67-0.099-0.067-0.464-0.237-0.806-0.378-0.342-0.144-1.309-0.544-2.144-0.89s-1.965-0.816-2.512-1.040c-0.544-0.227-1.933-0.8-3.082-1.277-1.152-0.477-2.096-0.867-2.106-0.867-0.006 0-0.013 0.022-0.013 0.048zM22.042 12.157c1.466 0.323 2.637 1.21 3.296 2.499 0.4 0.778 0.563 1.488 0.538 2.352-0.067 2.243-1.613 4.070-3.859 4.56-0.4 0.090-1.174 0.109-1.6 0.045-1.629-0.25-2.97-1.242-3.664-2.71-0.304-0.643-0.438-1.222-0.448-1.958-0.010-0.509 0.016-0.758 0.125-1.216 0.4-1.693 1.75-3.069 3.446-3.507 0.493-0.128 0.723-0.15 1.309-0.141 0.413 0.010 0.637 0.029 0.858 0.077z"></path>
<path fill="#ff7900" d="M20.96 12.746c-0.061 0.016-0.227 0.032-0.368 0.035-0.454 0.010-0.544 0.112-0.182 0.208 0.122 0.035 0.144 0.054 0.214 0.211 0.042 0.096 0.106 0.208 0.144 0.246 0.054 0.058 0.064 0.099 0.051 0.189-0.013 0.074 0 0.138 0.032 0.186 0.106 0.147-0.035 0.221-0.192 0.096-0.096-0.074-0.106-0.131-0.032-0.202 0.074-0.077 0.026-0.115-0.147-0.115-0.106 0-0.198-0.022-0.278-0.070l-0.122-0.074 0.138 0.163c0.138 0.163 0.166 0.234 0.096 0.24-0.083 0.010-0.141-0.010-0.272-0.077-0.134-0.067-0.138-0.067-0.234-0.010-0.054 0.032-0.131 0.061-0.17 0.067-0.214 0.026-0.336 0.067-0.451 0.15-0.067 0.048-0.15 0.090-0.182 0.090-0.077 0-0.179 0.115-0.205 0.227-0.032 0.141-0.077 0.141-0.131 0.006-0.067-0.163-0.128-0.227-0.31-0.317-0.144-0.074-0.157-0.077-0.224-0.026-0.038 0.032-0.154 0.157-0.256 0.282-0.173 0.214-0.179 0.23-0.118 0.256 0.042 0.019 0.118 0.016 0.208-0.003 0.195-0.045 0.23-0.016 0.166 0.141-0.042 0.109-0.042 0.131 0 0.186 0.026 0.035 0.090 0.147 0.144 0.25 0.141 0.262 0.246 0.342 0.451 0.346 0.141 0.003 0.214 0.029 0.451 0.166 0.253 0.147 0.307 0.195 0.458 0.406 0.173 0.246 0.349 0.509 0.486 0.726 0.042 0.067 0.16 0.192 0.266 0.275 0.333 0.272 0.33 0.355-0.042 0.726-0.304 0.301-0.362 0.333-0.73 0.432-0.15 0.042-0.358 0.118-0.464 0.173-0.102 0.054-0.227 0.099-0.275 0.099s-0.179 0.035-0.291 0.077c-0.112 0.042-0.269 0.086-0.349 0.099-0.221 0.035-0.384 0.112-0.384 0.176 0 0.029-0.051 0.109-0.118 0.176-0.102 0.106-0.109 0.125-0.064 0.15 0.032 0.016 0.054 0.061 0.054 0.099 0.003 0.083 0.128 0.259 0.378 0.515 1.293 1.338 3.312 1.654 4.944 0.778 0.224-0.122 0.246-0.141 0.23-0.214-0.010-0.045-0.022-0.314-0.032-0.598l-0.016-0.518 0.144-0.141c0.080-0.080 0.147-0.166 0.147-0.195 0.003-0.029 0.006-0.070 0.006-0.093 0.003-0.019-0.010-0.118-0.022-0.214-0.035-0.214-0.026-0.314 0.032-0.397 0.093-0.131 0.058-0.198-0.227-0.419-0.058-0.045-0.179-0.090-0.301-0.112-0.224-0.042-0.448-0.134-0.525-0.218-0.029-0.032-0.093-0.176-0.147-0.326l-0.096-0.269 0.102-0.237c0.128-0.298 0.198-0.368 0.432-0.435 0.102-0.029 0.237-0.086 0.294-0.134 0.086-0.061 0.138-0.077 0.224-0.064 0.061 0.006 0.227 0.029 0.365 0.048 0.422 0.054 0.774 0.246 0.627 0.339-0.058 0.035-0.035 0.077 0.080 0.15 0.061 0.042 0.118 0.099 0.131 0.128 0.010 0.032 0.061 0.086 0.112 0.125 0.090 0.061 0.099 0.064 0.154 0.016 0.080-0.074 0.106-0.067 0.278 0.077 0.083 0.070 0.16 0.122 0.166 0.115 0.019-0.022 0.013-0.355-0.010-0.48-0.013-0.061-0.035-0.106-0.054-0.096-0.016 0.010-0.019 0.045-0.010 0.080 0.016 0.048 0.003 0.061-0.064 0.061-0.070 0-0.083-0.013-0.074-0.058 0.010-0.032 0-0.083-0.022-0.115-0.022-0.029-0.035-0.083-0.026-0.118 0.013-0.042-0.010-0.096-0.061-0.15-0.042-0.048-0.102-0.125-0.131-0.176-0.032-0.048-0.077-0.086-0.102-0.086-0.054 0-0.064 0.051-0.016 0.080 0.019 0.010 0.032 0.045 0.032 0.074s0.038 0.086 0.090 0.128c0.058 0.048 0.074 0.080 0.048 0.090-0.022 0.010-0.042 0.038-0.042 0.061 0 0.070-0.189 0.096-0.253 0.032-0.048-0.048-0.042-0.051 0.070-0.032 0.157 0.029 0.16-0.035 0.010-0.198-0.058-0.067-0.112-0.15-0.118-0.186-0.010-0.045-0.051-0.074-0.141-0.093-0.070-0.013-0.16-0.042-0.202-0.061-0.051-0.026-0.083-0.022-0.109 0.003-0.022 0.022-0.080 0.038-0.128 0.038s-0.115 0.026-0.15 0.061c-0.115 0.115-0.208 0.109-0.336-0.019s-0.131-0.192-0.029-0.349c0.061-0.096 0.15-0.096 0.307 0 0.128 0.080 0.246 0.077 0.246-0.003 0-0.026-0.032-0.090-0.067-0.144-0.086-0.122-0.042-0.16 0.122-0.106 0.086 0.029 0.157 0.032 0.314 0 0.109-0.019 0.227-0.026 0.259-0.013 0.125 0.048 0.166 0.032 0.182-0.077 0.010-0.064-0.003-0.131-0.035-0.182-0.032-0.045-0.070-0.115-0.090-0.16-0.054-0.125-0.4-0.573-0.582-0.758-0.182-0.182-0.557-0.493-0.675-0.554-0.058-0.029-0.080-0.029-0.099 0s-0.042 0.029-0.090 0.003c-0.096-0.051-0.128-0.042-0.054 0.016 0.064 0.051 0.064 0.051 0 0.035-0.134-0.035-0.774-0.125-0.912-0.128-0.109 0-0.182 0.022-0.278 0.090-0.157 0.102-0.243 0.093-0.378-0.038-0.106-0.106-0.25-0.4-0.234-0.483 0.006-0.029 0.061-0.070 0.122-0.093 0.074-0.022 0.096-0.042 0.064-0.054-0.090-0.032-0.432-0.038-0.544-0.010zM24.022 14.624c0.022 0.032 0.032 0.083 0.022 0.106-0.010 0.026 0.016 0.115 0.054 0.195 0.038 0.083 0.061 0.16 0.048 0.17-0.013 0.013-0.083 0.006-0.16-0.016-0.074-0.019-0.166-0.026-0.205-0.016-0.080 0.019-0.099-0.045-0.022-0.074 0.026-0.013 0.042-0.032 0.032-0.045-0.016-0.026 0.035-0.074 0.090-0.083 0.013-0.003 0.032-0.006 0.045-0.010 0.010 0-0.003-0.029-0.029-0.061-0.070-0.080-0.090-0.154-0.048-0.195 0.054-0.054 0.131-0.042 0.173 0.029zM23.725 14.675c0.064 0.026 0.064 0.058 0 0.122-0.054 0.058-0.163 0.067-0.237 0.019-0.038-0.022-0.032-0.038 0.029-0.093 0.080-0.070 0.125-0.080 0.208-0.048z"></path>
<path fill="#ff7900" d="M17.526 14.758c-0.656 1.133-0.752 2.573-0.243 3.718 0.058 0.134 0.070 0.144 0.112 0.099 0.029-0.026 0.077-0.064 0.112-0.080 0.035-0.019 0.061-0.067 0.061-0.115 0-0.054 0.048-0.131 0.144-0.23 0.128-0.128 0.256-0.323 0.49-0.752 0.090-0.163 0.077-0.259-0.074-0.56-0.125-0.253-0.16-0.461-0.112-0.653 0.029-0.106 0.086-0.186 0.243-0.333 0.112-0.106 0.205-0.214 0.205-0.243 0-0.051-0.038-0.093-0.262-0.282-0.077-0.064-0.128-0.138-0.141-0.208-0.013-0.080-0.058-0.141-0.16-0.214-0.074-0.058-0.154-0.144-0.176-0.195-0.051-0.122-0.106-0.109-0.198 0.048z"></path>
<path fill="#ff7900" d="M8.64 9.056c-0.080 0.032-0.288 0.118-0.464 0.192s-0.362 0.15-0.416 0.176c-0.051 0.022-0.298 0.125-0.544 0.224-0.246 0.102-0.662 0.275-0.928 0.384-0.262 0.112-1.194 0.496-2.064 0.858s-1.706 0.707-1.856 0.771c-0.17 0.070-0.269 0.128-0.266 0.154 0.010 0.048 2.307 5.619 2.41 5.84 0.035 0.077 0.064 0.147 0.064 0.157 0 0.013 0.035 0.102 0.080 0.202 0.042 0.099 0.234 0.56 0.429 1.027 0.192 0.467 0.698 1.69 1.123 2.72s0.918 2.224 1.098 2.653c0.179 0.432 0.378 0.867 0.445 0.966 0.282 0.422 0.778 0.678 1.302 0.675 0.333 0 0.394-0.019 1.283-0.39 0.432-0.179 1.146-0.474 1.584-0.656 2.454-1.018 3.027-1.258 3.046-1.274 0.010-0.013-0.010-0.032-0.042-0.042-0.032-0.013-0.419-0.173-0.861-0.355-0.806-0.336-1.066-0.48-1.44-0.794l-0.163-0.138-0.877-0.016c-0.954-0.016-1.088-0.035-1.507-0.214-0.438-0.186-0.774-0.486-0.995-0.886-0.096-0.176-0.141-0.23-0.182-0.221-0.403 0.122-0.746 0.080-1.078-0.134-0.227-0.147-0.381-0.362-0.538-0.742-0.243-0.605-2.483-6.022-2.499-6.048-0.006-0.010 0.358-0.173 0.81-0.362 0.451-0.186 1.347-0.557 1.99-0.822 0.643-0.269 1.178-0.496 1.194-0.509 0.013-0.013 0.019-0.794 0.016-1.738l-0.010-1.718-0.144 0.061z"></path>
<path fill="#ff7900" d="M8.272 13.491c-0.262 0.115-0.739 0.317-1.056 0.451-0.317 0.131-0.618 0.259-0.672 0.282-0.051 0.026-0.205 0.090-0.336 0.144-0.307 0.128-0.384 0.166-0.384 0.192 0 0.010 0.109 0.278 0.243 0.595 0.134 0.314 0.422 0.998 0.643 1.517s0.522 1.232 0.672 1.584c0.147 0.352 0.294 0.698 0.326 0.768s0.106 0.246 0.166 0.39c0.061 0.147 0.118 0.266 0.131 0.266s0.195-0.074 0.406-0.163l0.387-0.163v-3.037c0-1.67-0.010-3.037-0.022-3.034-0.016 0-0.24 0.093-0.506 0.208z"></path>
</svg>
