<!-- Generated by IcoMoon.io -->
<svg version="1.1" xmlns="http://www.w3.org/2000/svg" width="32" height="32" viewBox="0 0 32 32">
<title>my_travels</title>
<path fill="#ff7900" d="M15.594 3.315c-0.368 0.077-0.726 0.33-0.947 0.662-0.061 0.090-0.333 0.554-0.608 1.030-0.272 0.474-0.896 1.555-1.382 2.4-0.49 0.845-0.918 1.587-0.954 1.648-0.109 0.195-0.666 1.158-0.838 1.456-0.093 0.157-0.87 1.504-1.728 2.992-2.003 3.472-2.141 3.709-2.32 4.016-0.522 0.886-0.682 1.187-0.739 1.386-0.176 0.634-0.026 1.2 0.442 1.667l0.24 0.234 0.4-0.698c0.221-0.387 0.438-0.765 0.48-0.845 0.045-0.080 0.128-0.224 0.186-0.32s0.243-0.422 0.416-0.72c0.813-1.414 3.274-5.667 3.648-6.304 0.093-0.16 0.877-1.514 1.744-3.008 0.864-1.498 1.61-2.768 1.658-2.829 0.102-0.138 0.301-0.317 0.451-0.41 0.31-0.195 0.81-0.256 1.184-0.15 0.218 0.061 0.256 0.080 3.859 2.163 0.563 0.326 1.558 0.899 2.208 1.274 0.653 0.374 1.354 0.781 1.558 0.902 0.205 0.118 0.387 0.218 0.4 0.218 0.016 0 0.067-0.106 0.118-0.234 0.128-0.323 0.15-0.726 0.058-1.037-0.086-0.275-0.266-0.557-0.483-0.755-0.141-0.125-1.037-0.656-2.019-1.2-0.080-0.045-0.157-0.090-0.176-0.102-0.016-0.013-0.096-0.061-0.176-0.106-0.474-0.262-1.718-0.97-4-2.272-0.989-0.563-0.912-0.518-1.331-0.752-0.192-0.109-0.429-0.227-0.522-0.262-0.221-0.080-0.576-0.099-0.826-0.045z"></path>
<path fill="#ff7900" d="M16.416 6.602c-0.339 0.096-0.669 0.333-0.864 0.618-0.054 0.074-0.253 0.406-0.445 0.739-0.189 0.33-0.618 1.069-0.947 1.642s-0.765 1.328-0.97 1.68c-0.867 1.504-1.427 2.477-1.542 2.672-0.067 0.115-0.278 0.48-0.474 0.816-0.192 0.333-0.835 1.45-1.43 2.48s-1.19 2.058-1.322 2.288c-0.131 0.227-0.266 0.467-0.301 0.528s-0.282 0.486-0.547 0.941c-0.534 0.922-0.637 1.133-0.694 1.405-0.115 0.563 0.029 1.011 0.467 1.446 0.198 0.198 0.346 0.294 1.28 0.829 0.579 0.336 1.392 0.803 1.805 1.043 0.634 0.368 2.285 1.322 2.608 1.504 0.054 0.032 0.326 0.189 0.608 0.352 1.245 0.72 1.578 0.912 1.728 0.976 0.426 0.186 0.902 0.176 1.344-0.029 0.358-0.166 0.595-0.406 0.87-0.893 0.186-0.326 0.192-0.339 1.056-1.83 1.376-2.374 3.181-5.498 3.251-5.616 0.067-0.118 2.093-3.622 2.598-4.496 1.61-2.774 1.558-2.672 1.558-3.152 0-0.195-0.022-0.333-0.070-0.48-0.070-0.208-0.294-0.582-0.406-0.675-0.032-0.029-0.416-0.256-0.858-0.509-0.438-0.253-1.066-0.614-1.392-0.803-0.326-0.186-0.922-0.531-1.328-0.765-0.698-0.403-1.84-1.062-2.048-1.184-0.093-0.054-0.618-0.355-0.845-0.486-0.061-0.035-0.448-0.256-0.858-0.496-0.41-0.237-0.829-0.461-0.931-0.496-0.224-0.083-0.694-0.109-0.902-0.048zM13.923 11.709c0.064 0.064 0.093 0.125 0.093 0.195 0 0.138-0.15 0.288-0.288 0.288s-0.288-0.15-0.288-0.288c0-0.138 0.15-0.288 0.288-0.288 0.070 0 0.131 0.029 0.195 0.093zM14.8 12.211c0.221 0.24-0.054 0.611-0.339 0.461-0.093-0.051-0.163-0.214-0.141-0.323 0.048-0.214 0.336-0.294 0.48-0.138zM15.664 12.717c0.112 0.112 0.131 0.221 0.058 0.346-0.138 0.237-0.496 0.166-0.525-0.102-0.010-0.112 0.006-0.166 0.083-0.24 0.106-0.109 0.278-0.109 0.384-0.003zM16.515 13.194c0.074 0.054 0.125 0.166 0.125 0.262 0 0.122-0.16 0.272-0.288 0.272s-0.288-0.15-0.288-0.272c0-0.179 0.115-0.301 0.288-0.301 0.061 0 0.134 0.016 0.163 0.038zM17.424 13.744c0.154 0.15 0.080 0.432-0.128 0.483-0.192 0.048-0.394-0.147-0.352-0.342 0.048-0.208 0.33-0.294 0.48-0.141zM18.285 14.246c0.179 0.157 0.106 0.448-0.118 0.49-0.198 0.038-0.339-0.080-0.342-0.282 0-0.246 0.275-0.371 0.461-0.208zM19.123 14.714c0.070 0.048 0.141 0.182 0.141 0.269 0 0.048-0.035 0.125-0.077 0.176-0.061 0.070-0.102 0.090-0.211 0.090-0.234 0-0.352-0.214-0.24-0.432 0.026-0.048 0.064-0.096 0.086-0.106 0.064-0.026 0.262-0.026 0.301 0.003zM20.080 15.306c0.17 0.243-0.102 0.56-0.362 0.426-0.23-0.118-0.179-0.486 0.074-0.538 0.093-0.019 0.234 0.035 0.288 0.112zM20.918 15.782c0.144 0.134 0.115 0.371-0.058 0.458-0.131 0.070-0.202 0.058-0.314-0.045-0.154-0.144-0.131-0.368 0.048-0.461 0.102-0.054 0.23-0.035 0.323 0.048zM21.786 16.282c0.16 0.102 0.125 0.368-0.064 0.47-0.112 0.061-0.122 0.061-0.23 0.006-0.147-0.070-0.198-0.176-0.16-0.336 0.022-0.090 0.058-0.131 0.141-0.173 0.115-0.058 0.186-0.051 0.314 0.032zM16.944 16.531c0.093 0.038 0.147 0.198 0.147 0.435 0 0.246-0.128 0.71-0.298 1.082-0.112 0.25-0.57 1.402-0.57 1.437 0 0.013 0.378 0.592 0.842 1.286 0.461 0.694 0.899 1.363 0.973 1.488l0.131 0.23-0.176 0.314c-0.099 0.176-0.182 0.323-0.189 0.33-0.003 0.006-0.045-0.022-0.086-0.064-0.090-0.090-1.453-1.408-1.942-1.878-0.186-0.179-0.342-0.323-0.352-0.323-0.026 0-1.568 2.134-1.568 2.17 0 0.019 0.157 0.234 0.346 0.474 0.576 0.736 0.528 0.656 0.464 0.774-0.032 0.054-0.067 0.099-0.080 0.099-0.010 0-0.234-0.125-0.496-0.278-0.422-0.246-0.672-0.39-1.008-0.582-0.717-0.406-1.648-0.947-1.67-0.966-0.013-0.013 0-0.067 0.032-0.122 0.067-0.115 0.093-0.118 0.525-0.054s0.701 0.096 0.842 0.099h0.118l0.416-0.912c0.23-0.502 0.467-1.018 0.528-1.146s0.118-0.266 0.128-0.304c0.022-0.083 0.134-0.045-1.152-0.406-0.438-0.125-0.835-0.24-0.88-0.256-0.045-0.013-0.304-0.086-0.576-0.163s-0.502-0.141-0.509-0.144c-0.029-0.022 0.336-0.618 0.384-0.63 0.093-0.026 1.101 0.006 1.821 0.058 0.096 0.006 0.336 0.019 0.528 0.032 0.195 0.010 0.403 0.026 0.464 0.032s0.256 0.022 0.432 0.032l0.32 0.019 0.464-0.602c0.256-0.33 0.528-0.685 0.605-0.784 0.333-0.442 0.666-0.71 0.986-0.794 0.003 0 0.029 0.010 0.058 0.019zM22.653 16.781c0.067 0.051 0.125 0.205 0.106 0.291-0.051 0.275-0.464 0.294-0.554 0.026-0.086-0.262 0.23-0.49 0.448-0.317z"></path>
</svg>
