<!-- Generated by IcoMoon.io -->
<svg version="1.1" xmlns="http://www.w3.org/2000/svg" width="32" height="32" viewBox="0 0 32 32">
<title>Nature</title>
<path fill="#ff7900" d="M16.096 3.44c-1.264 0.16-2.451 0.675-3.37 1.469-0.595 0.512-1.133 1.187-1.43 1.792l-0.102 0.205-0.349 0.054c-2.621 0.403-4.918 2.115-6.058 4.512-0.394 0.829-0.627 1.648-0.739 2.592-0.045 0.397-0.054 1.293-0.013 1.632 0.013 0.122 0.035 0.288 0.042 0.368 0.070 0.602 0.32 1.485 0.602 2.128 0.685 1.555 1.869 2.88 3.357 3.754 0.278 0.16 0.89 0.461 1.027 0.502 0.042 0.013 0.118 0.042 0.17 0.064 0.189 0.083 0.71 0.24 1.056 0.317 0.624 0.141 1.050 0.189 1.696 0.192 0.717 0.003 1.043-0.022 1.578-0.122l0.394-0.070-0.019 0.336c-0.010 0.186-0.022 0.454-0.032 0.595s-0.022 0.435-0.032 0.656c-0.010 0.221-0.022 0.499-0.032 0.624-0.010 0.122-0.022 0.397-0.032 0.608s-0.026 0.47-0.032 0.576c-0.032 0.477-0.061 1.174-0.061 1.424 0.003 0.218 0.019 0.307 0.083 0.448 0.099 0.218 0.291 0.419 0.512 0.534l0.17 0.090h3.68l0.176-0.083c0.416-0.198 0.646-0.598 0.624-1.075-0.035-0.746-0.051-1.046-0.064-1.226-0.010-0.115-0.022-0.381-0.032-0.592s-0.026-0.493-0.032-0.624c-0.010-0.131-0.022-0.4-0.032-0.592-0.010-0.195-0.022-0.467-0.032-0.608-0.006-0.141-0.022-0.419-0.035-0.618-0.010-0.195-0.006-0.358 0.010-0.358 0.013 0 0.141 0.035 0.282 0.080 0.272 0.086 0.909 0.221 1.2 0.256 0.294 0.035 1.28 0.042 1.568 0.013 0.579-0.064 1.344-0.253 1.894-0.474 1.744-0.694 3.181-2.128 3.843-3.83 0.336-0.864 0.474-1.619 0.454-2.541-0.006-0.307-0.019-0.618-0.026-0.688-0.243-1.987-1.37-3.776-3.069-4.883-0.362-0.234-1.027-0.563-1.418-0.701-0.49-0.176-0.442-0.134-0.416-0.342 0.010-0.096 0.019-0.358 0.019-0.582-0.003-2.147-1.28-4.144-3.315-5.178-0.541-0.275-1.222-0.493-1.872-0.602-0.41-0.070-1.363-0.086-1.792-0.032zM17.002 18.838c0.25 0.128 0.272 0.218 0.298 1.149 0.013 0.438 0.022 0.864 0.026 0.947 0.003 0.166 0.019 0.182 0.109 0.096 0.035-0.029 0.182-0.17 0.33-0.31 0.749-0.72 0.787-0.752 0.893-0.752 0.083 0 0.147 0.042 0.339 0.23 0.205 0.195 0.237 0.243 0.237 0.339 0 0.115 0.022 0.090-0.755 0.902-0.368 0.384-0.752 0.79-0.95 1.005l-0.15 0.163 0.016 0.528c0.010 0.291 0.022 0.752 0.032 1.024 0.042 1.341 0.051 1.654 0.067 2.112 0.022 0.605-0.010 0.723-0.227 0.848-0.131 0.080-0.141 0.080-0.941 0.080-0.896 0-0.963-0.013-1.101-0.205-0.064-0.093-0.070-0.131-0.067-0.579 0.003-0.413 0.019-1.203 0.061-2.544 0.006-0.186 0.019-0.698 0.032-1.136 0.010-0.442 0.026-0.95 0.032-1.136s0.022-0.717 0.032-1.184c0.032-1.194 0.032-1.219 0.086-1.347 0.051-0.118 0.182-0.234 0.298-0.262 0.035-0.006 0.32-0.016 0.634-0.019 0.474-0.003 0.586 0.006 0.672 0.051z"></path>
</svg>
