<!-- Generated by IcoMoon.io -->
<svg version="1.1" xmlns="http://www.w3.org/2000/svg" width="32" height="32" viewBox="0 0 32 32">
<title>Network_add</title>
<path fill="#ff7900" d="M6.362 7.584c-0.365 0.077-0.474 0.112-0.765 0.256-0.371 0.179-0.595 0.342-0.877 0.624-0.435 0.435-0.691 0.886-0.854 1.501-0.096 0.358-0.102 1.107-0.013 1.459 0.438 1.734 2.051 2.774 3.763 2.426 0.435-0.090 0.758-0.224 1.171-0.493 0.058-0.038 0.093-0.029 0.349 0.118 0.157 0.090 0.301 0.17 0.323 0.179 0.035 0.013 0.118-0.118 0.829-1.347 0.304-0.528 0.394-0.707 0.362-0.73-0.022-0.013-0.144-0.083-0.266-0.157l-0.227-0.128v-0.534c0-0.646-0.048-0.867-0.307-1.446-0.262-0.576-0.899-1.206-1.507-1.485-0.63-0.288-1.344-0.374-1.981-0.243z"></path>
<path fill="#ff7900" d="M24.336 7.6c-1.277 0.291-2.237 1.296-2.464 2.573-0.026 0.147-0.038 0.416-0.035 0.678l0.010 0.435-0.339 0.192c-0.186 0.106-0.87 0.499-1.523 0.874-0.65 0.374-1.203 0.688-1.222 0.694-0.022 0.010-0.109-0.042-0.192-0.109-0.502-0.419-1.078-0.701-1.722-0.845-0.374-0.086-1.136-0.106-1.504-0.042-0.691 0.122-1.37 0.432-1.898 0.874l-0.186 0.154-0.237-0.134c-0.131-0.077-0.25-0.128-0.259-0.118-0.013 0.013-0.106 0.166-0.205 0.342-0.102 0.176-0.365 0.627-0.582 1.005-0.214 0.374-0.394 0.691-0.394 0.704 0 0.010 0.115 0.080 0.253 0.157l0.246 0.138-0.042 0.262c-0.054 0.339-0.035 1.018 0.035 1.35 0.176 0.816 0.518 1.446 1.107 2.032 0.438 0.442 0.784 0.672 1.338 0.896l0.262 0.109v3.619l-0.227 0.109c-0.826 0.4-1.437 1.184-1.68 2.147-0.093 0.371-0.080 1.098 0.029 1.507 0.314 1.187 1.261 2.080 2.47 2.33 0.576 0.118 1.274 0.058 1.808-0.163 0.608-0.246 1.139-0.682 1.478-1.21 0.253-0.39 0.365-0.653 0.458-1.062l0.054-0.25 0.15 0.234c0.595 0.909 1.462 1.632 2.48 2.067 0.422 0.179 0.864 0.304 1.427 0.403 0.192 0.035 1.123 0.045 1.376 0.016 1.456-0.173 2.762-0.87 3.674-1.965 0.688-0.826 1.101-1.75 1.264-2.835 0.054-0.355 0.048-1.347-0.010-1.648-0.173-0.902-0.426-1.542-0.88-2.224-0.563-0.851-1.318-1.504-2.269-1.952-0.842-0.4-1.552-0.55-2.499-0.528-0.65 0.016-1.082 0.083-1.606 0.253-0.957 0.31-1.83 0.886-2.496 1.645-0.736 0.845-1.21 1.904-1.341 2.998-0.013 0.106-0.026 0.214-0.032 0.24-0.003 0.026-0.010 0.195-0.010 0.378l-0.003 0.333-0.214-0.198c-0.256-0.23-0.464-0.374-0.774-0.531l-0.227-0.115v-3.6l0.138-0.042c0.198-0.058 0.63-0.275 0.886-0.445 0.858-0.566 1.485-1.485 1.702-2.496 0.090-0.416 0.096-1.222 0.016-1.648-0.003-0.016 0.067-0.070 0.154-0.125 0.138-0.083 2.538-1.462 2.918-1.677l0.134-0.077 0.17 0.106c0.861 0.547 1.958 0.65 2.899 0.278 0.979-0.39 1.718-1.254 1.949-2.285 0.042-0.186 0.058-0.384 0.054-0.72 0-0.4-0.013-0.509-0.090-0.784-0.33-1.213-1.29-2.096-2.531-2.333-0.374-0.070-0.861-0.058-1.248 0.029zM16.496 13.654c0.896 0.198 1.565 0.835 1.824 1.738 0.083 0.288 0.086 0.925 0.003 1.216-0.234 0.838-0.867 1.472-1.715 1.715-0.278 0.080-0.922 0.080-1.21 0-1.36-0.371-2.115-1.782-1.664-3.104 0.166-0.486 0.496-0.912 0.931-1.21 0.282-0.192 0.518-0.285 0.998-0.39 0.128-0.029 0.643-0.006 0.832 0.035zM24.784 20.080c0.81 0.17 1.434 0.509 2.035 1.104 0.586 0.582 0.928 1.216 1.107 2.048 0.070 0.336 0.077 1.152 0.013 1.488-0.182 0.941-0.707 1.811-1.446 2.403-1.379 1.101-3.315 1.165-4.781 0.157-0.294-0.205-0.829-0.742-1.014-1.024-0.307-0.467-0.509-0.944-0.624-1.488-0.077-0.371-0.077-1.19 0.003-1.552 0.173-0.8 0.518-1.44 1.075-2.003 0.333-0.339 0.538-0.499 0.88-0.691 0.659-0.368 1.286-0.525 2.064-0.506 0.243 0.006 0.544 0.032 0.688 0.064z"></path>
<path fill="#ff7900" d="M23.424 20.842c-0.045 0.019-0.112 0.102-0.15 0.182-0.070 0.138-0.074 0.166-0.074 1.158v1.018h-1.018c-0.992 0-1.021 0.003-1.158 0.070-0.080 0.042-0.163 0.109-0.182 0.154-0.029 0.054-0.042 0.246-0.042 0.579 0 0.464 0.006 0.506 0.074 0.605 0.118 0.176 0.189 0.186 1.312 0.189l1.014 0.003v0.998c0 0.906 0.006 1.014 0.061 1.133 0.112 0.25 0.166 0.269 0.739 0.269 0.467 0 0.509-0.006 0.608-0.074 0.176-0.118 0.186-0.189 0.189-1.312l0.003-1.014h1.018c0.992 0 1.021-0.003 1.158-0.070 0.080-0.042 0.163-0.109 0.182-0.154 0.029-0.054 0.042-0.246 0.042-0.57 0-0.534-0.022-0.621-0.182-0.73-0.083-0.058-0.17-0.061-1.152-0.070l-1.066-0.010-0.003-1.014c-0.003-1.12-0.013-1.19-0.189-1.312-0.099-0.064-0.141-0.070-0.605-0.070-0.333 0-0.525 0.013-0.579 0.042z"></path>
<path fill="#ff7900" d="M11.366 12.042c-0.026 0.035-0.234 0.39-0.909 1.565-0.138 0.24-0.25 0.448-0.25 0.464 0 0.026 0.586 0.368 0.656 0.384 0.016 0.006 0.128-0.16 0.243-0.368 0.118-0.205 0.374-0.653 0.57-0.992 0.198-0.339 0.365-0.637 0.374-0.659 0.022-0.061-0.646-0.442-0.685-0.394z"></path>
</svg>
