<!-- Generated by IcoMoon.io -->
<svg version="1.1" xmlns="http://www.w3.org/2000/svg" width="32" height="32" viewBox="0 0 32 32">
<title>networks</title>
<path fill="#ff7900" d="M4.778 4.003c-0.349 0.061-0.467 0.195-0.88 0.989-0.707 1.366-1.229 3.040-1.402 4.512-0.019 0.166-0.042 0.346-0.048 0.4-0.070 0.496-0.074 2.195-0.003 2.608 0.006 0.045 0.022 0.179 0.035 0.304 0.038 0.397 0.173 1.139 0.307 1.68 0.243 0.986 0.602 1.958 1.072 2.877 0.419 0.829 0.486 0.925 0.733 1.046 0.515 0.25 1.104-0.083 1.149-0.653 0.013-0.179-0.042-0.358-0.179-0.592-0.138-0.23-0.451-0.861-0.589-1.181-0.474-1.098-0.794-2.31-0.906-3.434-0.019-0.176-0.042-0.406-0.051-0.512-0.026-0.243-0.026-1.37 0-1.645 0.173-1.949 0.627-3.469 1.517-5.075 0.189-0.342 0.227-0.544 0.147-0.781-0.125-0.384-0.506-0.611-0.902-0.544z"></path>
<path fill="#ff7900" d="M26.944 4.003c-0.202 0.032-0.294 0.074-0.426 0.186-0.166 0.15-0.256 0.362-0.253 0.608 0 0.176 0.019 0.237 0.134 0.448 0.234 0.435 0.598 1.197 0.73 1.523 1.136 2.864 1.139 6.042 0.006 8.896-0.16 0.403-0.384 0.877-0.704 1.485-0.163 0.31-0.192 0.39-0.192 0.528 0.006 0.442 0.294 0.755 0.742 0.806 0.166 0.019 0.205 0.013 0.39-0.080 0.23-0.112 0.291-0.182 0.518-0.595 0.602-1.088 1.066-2.301 1.341-3.504 0.173-0.755 0.253-1.306 0.333-2.269 0.026-0.346 0.022-1.35-0.010-1.779-0.131-1.824-0.643-3.638-1.482-5.264-0.131-0.253-0.291-0.538-0.352-0.63-0.179-0.272-0.474-0.406-0.778-0.358z"></path>
<path fill="#ff7900" d="M7.488 5.597c-0.333 0.109-0.474 0.291-0.89 1.155-0.957 1.997-1.248 4.298-0.819 6.464 0.23 1.162 0.666 2.317 1.216 3.235 0.224 0.374 0.605 0.522 0.989 0.378 0.419-0.157 0.64-0.688 0.442-1.075-0.032-0.067-0.147-0.288-0.253-0.49-0.208-0.403-0.288-0.576-0.413-0.912-0.547-1.45-0.704-3.005-0.464-4.512 0.163-1.008 0.451-1.853 0.97-2.832 0.214-0.41 0.227-0.445 0.227-0.64 0-0.307-0.134-0.534-0.406-0.701-0.131-0.080-0.454-0.118-0.598-0.070z"></path>
<path fill="#ff7900" d="M23.974 5.622c-0.304 0.128-0.493 0.416-0.496 0.758-0.003 0.179 0.013 0.224 0.189 0.547 0.218 0.406 0.493 0.992 0.493 1.050 0 0.022 0.013 0.054 0.029 0.074 0.038 0.038 0.237 0.659 0.336 1.053 0.118 0.48 0.179 0.832 0.224 1.338 0.106 1.194-0.026 2.371-0.397 3.507-0.163 0.512-0.304 0.835-0.618 1.443-0.23 0.448-0.256 0.512-0.253 0.675 0.003 0.602 0.586 0.976 1.133 0.726 0.214-0.099 0.31-0.218 0.563-0.698 0.253-0.474 0.48-1.011 0.659-1.542 0.138-0.406 0.317-1.069 0.355-1.306 0.010-0.061 0.032-0.192 0.048-0.288 0.294-1.664 0.141-3.482-0.429-5.146-0.182-0.522-0.253-0.688-0.573-1.325-0.275-0.547-0.41-0.73-0.608-0.832-0.182-0.090-0.477-0.106-0.656-0.035z"></path>
<path fill="#ff7900" d="M10.397 7.107c-0.282 0.042-0.438 0.166-0.643 0.522-0.394 0.672-0.704 1.52-0.854 2.323-0.128 0.691-0.141 1.683-0.032 2.352 0.122 0.736 0.349 1.466 0.65 2.077 0.262 0.538 0.362 0.666 0.582 0.774 0.544 0.266 1.152-0.115 1.142-0.714-0.003-0.182-0.022-0.243-0.195-0.579-0.454-0.89-0.653-1.69-0.65-2.646 0-1.037 0.234-1.882 0.797-2.896 0.102-0.182 0.115-0.234 0.115-0.432 0-0.17-0.016-0.256-0.067-0.352-0.17-0.32-0.49-0.483-0.845-0.429z"></path>
<path fill="#ff7900" d="M21.344 7.232c-0.378 0.109-0.611 0.403-0.614 0.771-0.003 0.17 0.019 0.234 0.192 0.582 0.39 0.784 0.576 1.395 0.637 2.118 0.093 1.062-0.099 2.096-0.56 3.008-0.080 0.157-0.173 0.346-0.208 0.416-0.336 0.669 0.416 1.389 1.088 1.043 0.198-0.099 0.314-0.259 0.57-0.781 0.662-1.366 0.87-2.733 0.653-4.278-0.042-0.285-0.218-0.979-0.333-1.306-0.179-0.515-0.518-1.187-0.682-1.36-0.166-0.173-0.525-0.278-0.742-0.214z"></path>
<path fill="#ff7900" d="M15.414 8.083c-0.653 0.118-1.219 0.416-1.696 0.896-1.206 1.213-1.242 3.158-0.077 4.416 0.115 0.125 0.288 0.288 0.387 0.362l0.173 0.134-0.093 0.278c-0.054 0.154-0.144 0.416-0.205 0.582-0.058 0.166-0.218 0.621-0.352 1.008-0.477 1.37-0.918 2.627-1.008 2.88-0.051 0.141-0.202 0.573-0.336 0.96s-0.294 0.842-0.352 1.008c-0.058 0.166-0.173 0.499-0.256 0.736-0.080 0.237-0.163 0.467-0.179 0.506-0.016 0.042-0.061 0.166-0.096 0.272-0.035 0.109-0.106 0.314-0.157 0.454s-0.243 0.688-0.426 1.216c-0.186 0.528-0.518 1.482-0.742 2.118-0.333 0.95-0.403 1.19-0.403 1.338 0 0.563 0.602 0.947 1.107 0.707 0.218-0.102 0.352-0.246 0.435-0.461 0.067-0.186 0.429-1.206 0.477-1.35 0.013-0.045 0.122-0.352 0.237-0.685s0.211-0.608 0.211-0.614c0-0.006 1.763-0.013 3.917-0.013h3.917l0.048 0.134c0.755 2.163 0.918 2.624 0.947 2.675 0.019 0.035 0.099 0.122 0.179 0.192 0.506 0.445 1.309 0.074 1.306-0.602-0.003-0.141-0.070-0.368-0.33-1.104-0.381-1.088-0.525-1.494-0.742-2.128-0.086-0.256-0.173-0.493-0.186-0.528-0.016-0.035-0.154-0.426-0.307-0.864-0.15-0.442-0.419-1.21-0.595-1.712s-0.384-1.101-0.464-1.328c-0.077-0.23-0.176-0.509-0.218-0.624s-0.179-0.502-0.304-0.864c-0.125-0.362-0.282-0.8-0.342-0.976-0.064-0.176-0.125-0.355-0.141-0.4-0.013-0.045-0.106-0.31-0.205-0.592s-0.195-0.547-0.208-0.592c-0.032-0.096-0.454-1.302-0.522-1.494l-0.051-0.134 0.166-0.125c1.619-1.226 1.67-3.696 0.102-4.995-0.733-0.605-1.686-0.858-2.618-0.688zM16.685 15.642c0.221 0.64 0.403 1.168 0.403 1.178 0 0.006-0.496 0.013-1.104 0.013s-1.104-0.003-1.104-0.010c0-0.006 0.179-0.528 0.4-1.162 0.221-0.63 0.41-1.165 0.416-1.187 0.016-0.048 0.496-0.070 0.547-0.026 0.022 0.016 0.218 0.554 0.442 1.194zM17.68 18.49c0.054 0.147 0.528 1.507 0.528 1.523 0 0.010-1.002 0.019-2.224 0.019s-2.224-0.006-2.224-0.010c0-0.006 0.067-0.198 0.147-0.426s0.202-0.576 0.269-0.774c0.070-0.198 0.131-0.371 0.141-0.384 0.006-0.013 0.762-0.019 1.677-0.013 1.546 0.006 1.664 0.013 1.686 0.064zM18.826 21.766c0.029 0.077 0.109 0.304 0.179 0.506s0.17 0.493 0.224 0.646c0.054 0.157 0.099 0.288 0.099 0.298s-1.507 0.016-3.347 0.016c-2.666 0-3.344-0.010-3.334-0.042 0.010-0.019 0.134-0.381 0.282-0.8l0.266-0.758h5.581l0.051 0.134z"></path>
</svg>
