<!-- Generated by IcoMoon.io -->
<svg version="1.1" xmlns="http://www.w3.org/2000/svg" width="32" height="32" viewBox="0 0 32 32">
<title>Network_livebox</title>
<path fill="#ff7900" d="M24.528 7.936c-0.701 0.144-1.21 0.419-1.712 0.928-0.614 0.614-0.941 1.424-0.931 2.304 0 0.202 0.022 0.461 0.045 0.576l0.042 0.208-0.675 0.477c-0.368 0.262-0.819 0.582-0.995 0.707l-0.326 0.23-0.25-0.173c-0.96-0.662-2.192-0.883-3.306-0.598-0.746 0.195-1.418 0.589-1.949 1.142l-0.202 0.211-0.499-0.221-0.502-0.218-0.115 0.275c-0.064 0.154-0.141 0.33-0.17 0.39-0.074 0.157-0.534 1.216-0.57 1.302-0.029 0.080-0.045 0.070 0.634 0.365l0.326 0.138-0.010 0.422c-0.013 0.598 0.058 1.040 0.256 1.568 0.442 1.184 1.434 2.109 2.637 2.464l0.24 0.070 0.006 1.162c0.006 0.64 0.003 1.197-0.006 1.235s-0.048 0.080-0.090 0.090c-0.144 0.045-0.582 0.282-0.771 0.416-0.214 0.154-0.566 0.496-0.733 0.72-0.742 0.992-0.867 2.384-0.307 3.494 0.573 1.136 1.776 1.872 3.021 1.846 0.899-0.016 1.702-0.358 2.32-0.986 0.618-0.624 0.941-1.354 0.976-2.211 0.042-0.957-0.291-1.814-0.973-2.499-0.33-0.33-0.541-0.48-0.954-0.678l-0.266-0.125 0.010-1.293 0.006-1.29 0.144-0.054c0.234-0.086 0.509-0.234 0.784-0.41 0.88-0.573 1.504-1.504 1.731-2.579 0.064-0.288 0.083-1.11 0.038-1.424-0.022-0.144-0.128-0.579-0.17-0.691-0.010-0.029 0.304-0.269 0.963-0.736l0.982-0.691 0.243 0.147c1.29 0.778 2.934 0.579 4-0.483 0.467-0.467 0.768-1.034 0.915-1.738 0.045-0.205 0.045-0.899 0-1.136-0.237-1.274-1.146-2.269-2.384-2.608-0.413-0.115-1.034-0.134-1.456-0.048zM18.032 14.253c0.634 0.166 1.222 0.646 1.52 1.235 0.186 0.368 0.24 0.614 0.24 1.088 0 0.384-0.010 0.461-0.090 0.707-0.205 0.63-0.64 1.133-1.222 1.421-1.328 0.656-2.896-0.035-3.344-1.472-0.080-0.262-0.112-0.797-0.061-1.072 0.182-0.976 0.944-1.754 1.901-1.939 0.275-0.054 0.79-0.035 1.056 0.032z"></path>
<path fill="#ff7900" d="M6.24 8.483c-0.483 0.051-1.030 0.25-1.437 0.522-0.246 0.163-0.691 0.582-0.838 0.787-0.243 0.336-0.451 0.797-0.56 1.232-0.070 0.278-0.080 1.091-0.016 1.36 0.163 0.694 0.442 1.206 0.902 1.667 0.637 0.637 1.446 0.966 2.339 0.954 0.819-0.010 1.546-0.288 2.131-0.813l0.17-0.15 0.406 0.176c0.224 0.099 0.416 0.17 0.426 0.157 0.019-0.019 0.522-1.174 0.806-1.84 0.038-0.090 0.051-0.163 0.035-0.179-0.016-0.013-0.189-0.093-0.384-0.179l-0.355-0.15v-0.262c-0.003-1.978-1.677-3.491-3.626-3.28z"></path>
<path fill="#ff7900" d="M11.194 13.13c-0.099 0.23-0.298 0.685-0.438 1.008l-0.256 0.589 0.182 0.080c0.099 0.045 0.246 0.109 0.326 0.144s0.253 0.112 0.387 0.17l0.246 0.102 0.438-1.005c0.25-0.57 0.429-1.018 0.413-1.034-0.032-0.029-1.059-0.48-1.094-0.48-0.013 0-0.106 0.192-0.205 0.426z"></path>
</svg>
