<!-- Generated by IcoMoon.io -->
<svg version="1.1" xmlns="http://www.w3.org/2000/svg" width="32" height="32" viewBox="0 0 32 32">
<title>new</title>
<path fill="#ff7900" d="M14.006 2.499c-0.419 0.099-0.781 0.422-0.928 0.835-0.029 0.080-0.042 1.171-0.054 4.368l-0.016 4.259-1.728-0.669c-0.95-0.368-1.872-0.726-2.048-0.794s-0.608-0.234-0.96-0.371c-0.352-0.134-0.669-0.259-0.704-0.275-0.099-0.042-1.098-0.429-1.664-0.643-0.458-0.173-0.534-0.192-0.752-0.192-0.381 0-0.704 0.157-0.944 0.458-0.125 0.154-0.154 0.23-0.448 1.069-0.109 0.317-0.23 0.662-0.269 0.768-0.042 0.106-0.090 0.25-0.115 0.32-0.090 0.272-0.339 0.979-0.483 1.376-0.141 0.384-0.15 0.438-0.154 0.72 0 0.262 0.013 0.33 0.083 0.486 0.093 0.205 0.301 0.445 0.48 0.557 0.112 0.070 0.445 0.189 2.394 0.845 0.413 0.141 1.782 0.602 3.040 1.024 1.258 0.426 2.32 0.784 2.358 0.794 0.042 0.013 0.074 0.035 0.077 0.048 0 0.016-0.054 0.102-0.122 0.192-0.218 0.291-2.096 2.778-3.926 5.2-1.040 1.376-1.024 1.347-1.024 1.83-0.003 0.24 0.010 0.298 0.099 0.48 0.054 0.115 0.147 0.262 0.205 0.326 0.086 0.093 1.213 0.931 2.742 2.038 0.784 0.57 0.941 0.637 1.334 0.602 0.416-0.038 0.707-0.24 1.014-0.694 0.077-0.115 0.307-0.454 0.512-0.752 0.442-0.646 0.899-1.322 1.357-2 0.186-0.272 0.614-0.902 0.95-1.398 0.339-0.499 0.851-1.258 1.142-1.686 0.291-0.432 0.534-0.784 0.544-0.784s0.147 0.182 0.307 0.406c0.16 0.224 0.698 0.976 1.197 1.67s1.274 1.776 1.725 2.4c0.448 0.624 1.027 1.434 1.29 1.798 0.618 0.861 0.781 0.992 1.312 1.040 0.163 0.013 0.262 0.003 0.432-0.048 0.198-0.061 0.346-0.16 1.453-0.982 0.675-0.506 1.274-0.947 1.328-0.986 0.336-0.234 0.694-0.518 0.797-0.634 0.064-0.074 0.157-0.214 0.205-0.314 0.074-0.16 0.083-0.218 0.083-0.515-0.003-0.307-0.010-0.352-0.093-0.512-0.051-0.096-0.173-0.282-0.272-0.416-0.102-0.131-0.454-0.602-0.787-1.040-0.333-0.442-0.893-1.181-1.245-1.648-0.349-0.467-0.941-1.248-1.312-1.738s-0.698-0.922-0.723-0.96c-0.026-0.038-0.182-0.246-0.342-0.461-0.163-0.214-0.298-0.403-0.298-0.416s0.314-0.128 0.698-0.253c3.91-1.28 7.213-2.394 7.334-2.47 0.522-0.33 0.691-0.928 0.458-1.59-0.234-0.659-0.845-2.4-1.037-2.96-0.182-0.525-0.189-0.534-0.32-0.714-0.282-0.374-0.819-0.576-1.235-0.464-0.067 0.016-0.71 0.25-1.434 0.515-0.72 0.266-2.493 0.918-3.936 1.45l-2.624 0.966-0.016-4.278-0.016-4.275-0.102-0.208c-0.166-0.342-0.49-0.608-0.848-0.698-0.182-0.045-3.779-0.048-3.971-0.003z"></path>
</svg>
