<!-- Generated by IcoMoon.io -->
<svg version="1.1" xmlns="http://www.w3.org/2000/svg" width="32" height="32" viewBox="0 0 32 32">
<title>newspaper</title>
<path fill="#ff7900" d="M4.8 14.646c0 8.918 0 9.050-0.064 9.152-0.16 0.262-0.512 0.262-0.672 0-0.064-0.099-0.064-0.218-0.064-7.392v-7.286h-1.6v7.558c0 8.141-0.006 7.731 0.16 8.179 0.083 0.218 0.141 0.326 0.291 0.534 0.33 0.448 0.701 0.72 1.245 0.902l0.272 0.090h11.6c11.302 0 11.606 0 11.824-0.061 0.854-0.234 1.498-0.867 1.734-1.715 0.054-0.198 0.058-0.576 0.058-8.256v-8.048l-0.086-0.307c-0.192-0.704-0.608-1.325-1.155-1.734-0.442-0.326-0.803-0.49-1.334-0.598-0.307-0.064-0.47-0.064-11.261-0.064h-10.947v9.046zM26.477 8.102c0.416 0.198 0.666 0.541 0.71 0.982 0.054 0.499-0.221 0.976-0.691 1.2l-0.208 0.099h-18.176l-0.211-0.102c-0.272-0.134-0.464-0.326-0.586-0.586-0.090-0.186-0.099-0.24-0.099-0.496s0.013-0.31 0.099-0.496c0.112-0.237 0.266-0.406 0.48-0.531 0.307-0.179-0.31-0.17 9.453-0.163l9.040 0.006 0.189 0.086zM15.574 13.328c0.102 0.026 0.266 0.086 0.362 0.134 0.23 0.112 0.573 0.454 0.685 0.685 0.186 0.384 0.179 0.198 0.179 4.31v3.782h-4.102c-3.309 0-4.138-0.010-4.266-0.045-0.614-0.163-1.088-0.659-1.197-1.248-0.026-0.131-0.035-1.382-0.035-3.93v-3.738h4.096c3.546 0 4.118 0.006 4.278 0.048zM27.024 13.363c0.294 0.154 0.419 0.547 0.262 0.845-0.042 0.080-0.138 0.186-0.211 0.24l-0.138 0.096h-7.155l-0.138-0.099c-0.336-0.243-0.374-0.694-0.086-0.976 0.070-0.067 0.176-0.138 0.23-0.154 0.058-0.019 1.568-0.029 3.603-0.026 3.488 0.006 3.504 0.006 3.632 0.074zM26.995 15.907c0.477 0.224 0.477 0.918 0 1.146l-0.15 0.067-7.053-0.016-0.122-0.077c-0.246-0.15-0.355-0.445-0.275-0.73 0.048-0.176 0.221-0.365 0.381-0.416 0.080-0.026 1.155-0.035 3.594-0.038l3.478-0.003 0.147 0.067zM27.024 18.483c0.294 0.154 0.419 0.547 0.262 0.845-0.042 0.080-0.138 0.186-0.211 0.24l-0.138 0.096h-7.146l-0.122-0.077c-0.246-0.15-0.355-0.445-0.275-0.73 0.048-0.176 0.221-0.365 0.381-0.416 0.080-0.026 1.13-0.035 3.616-0.032 3.488 0.006 3.504 0.006 3.632 0.074zM24.038 20.992c0.15 0.042 0.358 0.246 0.41 0.403 0.093 0.278-0.045 0.627-0.304 0.762-0.125 0.067-0.16 0.067-2.243 0.067h-2.115l-0.131-0.093c-0.205-0.141-0.278-0.282-0.278-0.531 0.003-0.157 0.019-0.237 0.074-0.32 0.077-0.128 0.227-0.25 0.355-0.288 0.128-0.042 4.093-0.038 4.234 0z"></path>
</svg>
