<!-- Generated by IcoMoon.io -->
<svg version="1.1" xmlns="http://www.w3.org/2000/svg" width="32" height="32" viewBox="0 0 32 32">
<title>nfc</title>
<path fill="#ff7900" d="M21.584 2.438c-0.214 0.045-0.467 0.157-0.694 0.304-0.358 0.237-0.531 0.515-0.56 0.918-0.029 0.394 0.096 0.816 0.49 1.648 0.112 0.234 0.205 0.432 0.205 0.435 0 0.006 0.067 0.15 0.147 0.326 0.25 0.528 0.589 1.376 0.861 2.138 0.525 1.485 0.893 2.963 1.152 4.656 0.016 0.093 0.102 0.842 0.125 1.072 0.016 0.166 0.035 0.4 0.070 0.912 0.042 0.595 0.019 2.211-0.035 2.816-0.010 0.080-0.022 0.237-0.032 0.352-0.016 0.221-0.045 0.509-0.064 0.64-0.006 0.045-0.029 0.202-0.048 0.352-0.090 0.701-0.32 1.885-0.499 2.592-0.458 1.77-1.018 3.306-1.869 5.104-0.362 0.762-0.48 1.123-0.499 1.494-0.022 0.528 0.237 0.934 0.778 1.216 0.762 0.4 1.322 0.205 1.85-0.653 0.227-0.365 0.797-1.488 1.142-2.25 0.976-2.154 1.648-4.352 1.99-6.512 0.099-0.621 0.106-0.653 0.147-1.024 0.019-0.166 0.042-0.349 0.048-0.4 0.006-0.054 0.022-0.227 0.032-0.384 0.013-0.16 0.029-0.333 0.035-0.384 0.022-0.192 0.058-1.325 0.058-1.808 0-0.522-0.038-1.581-0.058-1.744-0.010-0.054-0.022-0.211-0.035-0.352-0.026-0.352-0.045-0.518-0.099-0.944-0.029-0.202-0.058-0.426-0.064-0.496-0.010-0.070-0.054-0.33-0.096-0.576-0.368-2.080-0.928-3.965-1.741-5.872-0.294-0.685-0.502-1.133-0.947-2.026-0.397-0.79-0.502-0.966-0.752-1.213-0.301-0.304-0.659-0.419-1.037-0.339z"></path>
<path fill="#ff7900" d="M16.352 5.187c-0.179 0.048-0.352 0.128-0.566 0.259-0.518 0.323-0.707 0.794-0.573 1.434 0.058 0.288 0.144 0.502 0.442 1.12 0.774 1.606 1.35 3.286 1.629 4.749 0.077 0.41 0.154 0.893 0.189 1.171 0.019 0.166 0.042 0.362 0.048 0.429 0.051 0.413 0.064 0.778 0.064 1.635 0 1.024-0.035 1.619-0.128 2.24-0.314 2.074-0.832 3.76-1.728 5.632-0.339 0.707-0.394 0.835-0.483 1.13-0.086 0.278-0.109 0.589-0.061 0.813 0.141 0.643 1.101 1.216 1.734 1.034 0.518-0.15 0.845-0.56 1.514-1.904 0.758-1.514 1.328-3.165 1.661-4.816 0.128-0.637 0.256-1.514 0.304-2.106 0.010-0.118 0.026-0.304 0.035-0.416 0.080-0.938 0.064-2.582-0.035-3.542-0.048-0.493-0.141-1.21-0.173-1.392-0.176-0.922-0.246-1.254-0.355-1.68-0.339-1.328-0.784-2.547-1.366-3.741-0.678-1.402-1.050-1.875-1.574-2.032-0.189-0.058-0.403-0.061-0.576-0.016z"></path>
<path fill="#ff7900" d="M11.296 7.814c-0.419 0.064-0.986 0.454-1.174 0.816-0.253 0.474-0.205 0.864 0.224 1.731 0.794 1.61 1.149 2.72 1.363 4.253 0.118 0.829 0.112 2.051-0.016 2.922-0.202 1.402-0.573 2.557-1.309 4.048-0.336 0.678-0.403 0.883-0.403 1.232-0.006 0.477 0.253 0.88 0.739 1.165 0.282 0.166 0.49 0.227 0.768 0.227 0.528 0 0.899-0.333 1.437-1.29 0.73-1.293 1.254-2.742 1.536-4.246 0.118-0.63 0.15-0.858 0.224-1.744 0.026-0.294 0.019-1.965-0.010-2.16-0.006-0.054-0.022-0.198-0.032-0.32-0.099-1.101-0.464-2.557-0.922-3.696-0.211-0.525-0.669-1.456-0.944-1.92-0.282-0.474-0.643-0.854-0.906-0.95-0.227-0.086-0.358-0.099-0.576-0.067z"></path>
<path fill="#ff7900" d="M6.304 10.432c-0.506 0.090-1.037 0.534-1.2 1.011-0.141 0.406-0.035 0.851 0.349 1.498 0.886 1.491 1.117 3.075 0.672 4.611-0.15 0.518-0.314 0.89-0.666 1.517-0.272 0.496-0.339 0.643-0.387 0.867-0.106 0.515 0.083 0.989 0.534 1.328 0.886 0.666 1.616 0.406 2.432-0.864 0.595-0.928 0.973-2.109 1.133-3.536 0.013-0.115 0.029-0.243 0.035-0.288 0.029-0.17 0.038-1.338 0.010-1.52-0.013-0.106-0.035-0.266-0.045-0.352-0.15-1.277-0.717-2.627-1.517-3.61-0.413-0.509-0.89-0.742-1.35-0.662z"></path>
</svg>
