<!-- Generated by IcoMoon.io -->
<svg version="1.1" xmlns="http://www.w3.org/2000/svg" width="32" height="32" viewBox="0 0 32 32">
<title>NFC_tag</title>
<path fill="#ff7900" d="M15.443 2.067c-0.454 0.080-0.835 0.237-1.267 0.522-0.176 0.115-0.544 0.467-0.989 0.947-0.131 0.141-0.342 0.365-0.464 0.496-0.125 0.131-0.342 0.365-0.483 0.515s-0.371 0.394-0.512 0.544c-0.141 0.15-0.362 0.387-0.493 0.525-0.131 0.141-0.355 0.378-0.496 0.528-0.221 0.234-0.912 0.97-1.213 1.296-0.086 0.093-0.214 0.224-0.755 0.8-0.134 0.144-0.358 0.381-0.499 0.531s-0.371 0.394-0.512 0.544c-0.275 0.294-0.992 1.056-1.328 1.418-0.115 0.122-0.349 0.368-0.518 0.544l-0.314 0.323 0.010 7.856 0.006 7.856 0.090 0.314c0.163 0.582 0.422 1.030 0.838 1.446 0.486 0.486 1.046 0.778 1.734 0.896 0.25 0.045 1.184 0.048 7.85 0.042l7.568-0.010 0.314-0.086c0.56-0.154 1.034-0.432 1.446-0.842 0.365-0.362 0.624-0.781 0.784-1.264 0.166-0.493 0.16-0.189 0.16-8.48v-7.728l-0.266-0.272c-0.23-0.243-0.576-0.608-1.478-1.568-0.39-0.413-1.155-1.229-1.424-1.517-0.237-0.253-0.563-0.598-1.024-1.088-0.131-0.141-0.269-0.285-0.304-0.323s-0.266-0.285-0.512-0.547c-0.707-0.752-0.893-0.95-0.928-0.989-0.016-0.022-0.221-0.237-0.451-0.483-0.234-0.243-0.467-0.496-0.525-0.557-1.328-1.44-1.622-1.702-2.166-1.952-0.563-0.256-1.261-0.342-1.878-0.237zM16.387 5.658c0.742 0.141 1.363 0.733 1.552 1.478 0.243 0.954-0.285 1.978-1.206 2.333-0.643 0.253-1.341 0.166-1.894-0.23-1.11-0.794-1.11-2.451-0.003-3.242 0.458-0.326 0.998-0.445 1.552-0.339zM19.411 13.277c0.189 0.086 0.304 0.243 0.589 0.803 0.413 0.816 0.762 1.664 1.005 2.448 0.096 0.304 0.301 1.114 0.342 1.341 0.064 0.362 0.157 0.976 0.176 1.171 0.010 0.115 0.026 0.243 0.035 0.288 0.006 0.045 0.019 0.448 0.026 0.896 0.029 1.952-0.298 3.6-1.088 5.472-0.262 0.621-0.701 1.466-0.858 1.645-0.144 0.173-0.333 0.272-0.506 0.275-0.157 0-0.486-0.17-0.605-0.314-0.23-0.278-0.205-0.538 0.134-1.27 0.291-0.634 0.298-0.65 0.451-1.043 0.429-1.101 0.739-2.378 0.845-3.485 0.032-0.346 0.032-1.898 0-2.192-0.176-1.6-0.557-2.931-1.261-4.432-0.374-0.797-0.413-1.072-0.179-1.344 0.237-0.275 0.614-0.387 0.893-0.259zM16.55 14.685c0.269 0.064 0.467 0.304 0.806 0.986 0.595 1.187 0.934 2.394 1.062 3.77 0.032 0.336 0.035 1.517 0.006 1.904-0.086 1.091-0.374 2.269-0.794 3.238-0.173 0.397-0.474 0.979-0.605 1.174-0.272 0.4-0.563 0.496-0.938 0.307-0.304-0.154-0.442-0.342-0.442-0.614 0-0.205 0.042-0.346 0.205-0.694 0.138-0.288 0.243-0.522 0.326-0.707 0.221-0.509 0.454-1.27 0.582-1.92 0.064-0.314 0.074-0.371 0.125-0.768 0.048-0.371 0.029-1.76-0.032-2.16-0.166-1.088-0.442-1.952-0.97-3.062-0.282-0.595-0.307-0.922-0.086-1.165 0.064-0.070 0.189-0.16 0.278-0.202 0.272-0.128 0.288-0.128 0.474-0.086zM13.904 16.109c0.205 0.086 0.371 0.294 0.65 0.819 0.819 1.539 1.056 3.334 0.672 5.12-0.195 0.922-0.752 2.17-1.117 2.512-0.166 0.154-0.358 0.224-0.518 0.189-0.275-0.058-0.586-0.307-0.659-0.522-0.083-0.25-0.051-0.374 0.246-0.995 0.477-1.005 0.672-1.824 0.672-2.832 0-1.024-0.192-1.802-0.72-2.909-0.227-0.477-0.269-0.659-0.202-0.87 0.054-0.163 0.166-0.294 0.349-0.41 0.243-0.154 0.429-0.182 0.627-0.102zM11.331 17.52c0.144 0.077 0.272 0.202 0.438 0.426 0.506 0.682 0.771 1.597 0.73 2.486-0.022 0.48-0.045 0.659-0.16 1.197-0.131 0.605-0.579 1.395-0.925 1.626-0.218 0.144-0.39 0.163-0.605 0.067-0.518-0.24-0.656-0.666-0.371-1.158 0.179-0.314 0.342-0.678 0.426-0.963 0.106-0.352 0.134-0.95 0.064-1.315-0.058-0.301-0.208-0.701-0.371-0.998-0.24-0.438-0.256-0.483-0.259-0.682-0.003-0.154 0.013-0.214 0.090-0.339 0.099-0.16 0.333-0.339 0.506-0.39 0.118-0.035 0.32-0.016 0.438 0.045z"></path>
</svg>
