<!-- Generated by IcoMoon.io -->
<svg version="1.1" xmlns="http://www.w3.org/2000/svg" width="32" height="32" viewBox="0 0 32 32">
<title>no_sim</title>
<path fill="#ff7900" d="M6.816 2.451c-0.272 0.074-0.499 0.195-0.698 0.381-0.227 0.211-0.371 0.448-0.454 0.746-0.064 0.227-0.064 0.352-0.064 12.429 0 13.299-0.013 12.33 0.179 12.726 0.115 0.234 0.454 0.573 0.688 0.688 0.39 0.189 0.070 0.179 5.709 0.179h5.184l-0.307-0.31c-0.358-0.365-0.592-0.656-0.861-1.072-0.106-0.163-0.192-0.278-0.192-0.259 0 0.032-0.422 0.042-2 0.042h-2v-4h3.264v-0.077c0-0.042 0.029-0.218 0.064-0.387s0.064-0.317 0.064-0.323c0-0.006-1.843-0.013-4.096-0.013h-4.096v-4h4.8v-4.8h4l0.003 3.638c0 2.832 0.010 3.629 0.038 3.581 0.214-0.339 0.429-0.65 0.579-0.835l0.179-0.224v-1.36h1.696l0.282-0.141c0.637-0.32 1.315-0.518 2.109-0.621 0.205-0.026 1.085-0.032 1.338-0.006l0.16 0.013 0.010-5.222 0.006-5.222-5.6-5.6-4.906 0.003c-4.192 0-4.928 0.006-5.078 0.048zM11.2 16.4v2h-4v-1.661c0-1.776 0.003-1.798 0.163-2.022 0.074-0.102 0.243-0.221 0.397-0.278 0.064-0.022 0.659-0.035 1.77-0.035l1.67-0.003v2zM20.374 14.493c0.16 0.093 0.23 0.163 0.336 0.339l0.074 0.128 0.010 1.718 0.010 1.722h-4.003v-4.003l3.44 0.019 0.134 0.077zM11.2 26v2h-1.658c-1.878 0-1.862 0.003-2.102-0.24-0.243-0.24-0.24-0.224-0.24-2.102v-1.658h4v2z"></path>
<path fill="#ff7900" d="M20.848 19.251c-0.838 0.112-1.744 0.464-2.445 0.95-0.739 0.512-1.405 1.283-1.808 2.093-0.57 1.146-0.736 2.438-0.467 3.69 0.445 2.061 2.019 3.699 4.070 4.237 0.506 0.131 0.803 0.163 1.45 0.16 0.64-0.003 0.915-0.038 1.456-0.189 2.192-0.614 3.773-2.467 4.061-4.752 0.054-0.435 0.019-1.277-0.074-1.722-0.49-2.362-2.314-4.093-4.707-4.47-0.266-0.042-1.219-0.042-1.536 0.003zM22.73 22.534l1.126-1.126 1.139 1.133-2.259 2.259 2.259 2.259-1.139 1.133-1.126-1.13-1.13-1.126-2.256 2.256-0.57-0.566-0.566-0.57 1.126-1.126c0.621-0.621 1.117-1.139 1.104-1.152s-0.522-0.522-1.13-1.13l-1.104-1.107 0.57-0.566 0.566-0.57 2.259 2.259 1.13-1.13z"></path>
</svg>
