<!-- Generated by IcoMoon.io -->
<svg version="1.1" xmlns="http://www.w3.org/2000/svg" width="32" height="32" viewBox="0 0 32 32">
<title>Notification</title>
<path fill="#ff7900" d="M12.573 3.213c-0.006 0.006-0.192 0.019-0.413 0.032-0.493 0.026-0.733 0.048-1.344 0.131-0.202 0.026-0.576 0.093-0.832 0.147-0.598 0.125-0.48 0.096-1.28 0.301l-0.698 0.176h-2.406v24.8h2.4v-10.035l0.202-0.051c0.109-0.026 0.515-0.131 0.902-0.23 0.966-0.253 1.664-0.387 2.336-0.454 0.090-0.010 0.205-0.022 0.256-0.029 0.63-0.083 3.386-0.083 3.808 0 0.035 0.006 0.157 0.022 0.272 0.032 0.534 0.048 1.376 0.205 2.128 0.4 1.299 0.336 1.501 0.387 1.795 0.445 0.72 0.147 1.434 0.24 2.189 0.285 0.79 0.045 2.787 0.019 3.184-0.038 0.054-0.010 0.176-0.022 0.272-0.032 0.346-0.032 0.87-0.115 1.274-0.198 0.224-0.048 0.445-0.093 0.496-0.099l0.086-0.016v-7.376c0-4.896-0.010-7.366-0.032-7.354-0.086 0.054-1.35 0.278-1.792 0.32-0.115 0.013-0.243 0.026-0.288 0.035-0.499 0.083-3.069 0.080-3.808-0.003-0.061-0.010-0.182-0.022-0.272-0.032-0.374-0.042-0.826-0.115-1.2-0.189-0.387-0.077-0.637-0.138-1.824-0.448-0.714-0.182-1.44-0.33-1.936-0.387-0.086-0.010-0.195-0.026-0.24-0.032s-0.195-0.022-0.336-0.035c-0.141-0.013-0.307-0.026-0.368-0.032-0.147-0.019-2.515-0.048-2.531-0.032zM17.757 6.458c0.23 0.125 0.227 0.106 0.227 1.741v1.462l0.25-0.093c0.134-0.051 0.742-0.278 1.347-0.509s1.142-0.419 1.2-0.419c0.106 0 0.253 0.080 0.32 0.179 0.026 0.032 0.067 0.125 0.093 0.205 0.029 0.080 0.131 0.374 0.23 0.656 0.141 0.403 0.176 0.541 0.163 0.64-0.029 0.246-0.083 0.272-1.571 0.765-0.739 0.243-1.35 0.448-1.357 0.454-0.010 0.006 1.040 1.418 1.501 2.013 0.083 0.106 0.166 0.224 0.186 0.262 0.054 0.099 0.048 0.336-0.013 0.422-0.051 0.074-1.075 0.848-1.226 0.928-0.090 0.051-0.294 0.029-0.4-0.038-0.061-0.042-0.963-1.27-1.568-2.141-0.109-0.154-0.205-0.278-0.214-0.282-0.019 0-1.427 2.058-1.546 2.259-0.032 0.054-0.118 0.134-0.186 0.173-0.221 0.125-0.298 0.093-0.954-0.387-0.323-0.237-0.611-0.464-0.643-0.509-0.077-0.106-0.093-0.25-0.045-0.374 0.032-0.077 0.586-0.842 0.762-1.050 0.115-0.141 0.954-1.27 0.944-1.277-0.003-0.006-0.614-0.214-1.354-0.464-0.746-0.25-1.37-0.477-1.402-0.509-0.086-0.090-0.147-0.285-0.118-0.403 0.013-0.054 0.099-0.307 0.189-0.563 0.093-0.256 0.189-0.531 0.211-0.611 0.064-0.205 0.237-0.349 0.413-0.349 0.048 0 0.208 0.048 0.365 0.109 0.397 0.157 1.904 0.746 2.144 0.835l0.198 0.077v-1.462c0-1.357 0.003-1.472 0.058-1.571 0.112-0.208 0.189-0.227 0.982-0.227 0.621 0 0.717 0.006 0.813 0.058z"></path>
</svg>
