<!-- Generated by IcoMoon.io -->
<svg version="1.1" xmlns="http://www.w3.org/2000/svg" width="32" height="32" viewBox="0 0 32 32">
<title>Notification_Bell</title>
<path fill="#ff7900" d="M15.696 1.619c-0.035 0.006-0.144 0.029-0.24 0.048-0.394 0.080-0.854 0.336-1.158 0.646-0.461 0.47-0.694 1.056-0.698 1.725 0 0.221-0.010 0.282-0.045 0.282-0.026 0-0.205 0.048-0.397 0.109-3.024 0.95-5.382 3.302-6.326 6.314-0.147 0.474-0.304 1.197-0.352 1.61-0.010 0.096-0.032 0.285-0.045 0.416-0.016 0.131-0.029 2.173-0.032 4.538l-0.003 4.298-0.63 1.046c-0.346 0.576-0.736 1.219-0.864 1.434-0.278 0.467-0.326 0.614-0.275 0.861 0.051 0.234 0.182 0.422 0.374 0.544l0.157 0.096h21.67l0.154-0.090c0.182-0.109 0.317-0.285 0.374-0.49 0.074-0.259 0.013-0.458-0.294-0.966-0.147-0.24-0.282-0.467-0.301-0.502s-0.291-0.486-0.598-0.998l-0.563-0.938-0.013-4.422c-0.010-2.896-0.026-4.493-0.048-4.618-0.019-0.106-0.042-0.266-0.054-0.352-0.061-0.493-0.288-1.35-0.512-1.952-0.163-0.448-0.576-1.274-0.851-1.712-1.226-1.955-3.126-3.43-5.28-4.102l-0.435-0.134-0.019-0.368c-0.022-0.416-0.077-0.659-0.221-0.963-0.294-0.624-0.886-1.117-1.546-1.296-0.189-0.048-0.803-0.090-0.928-0.061z"></path>
<path fill="#ff7900" d="M12.816 26.675c0.083 1.005 0.682 1.962 1.546 2.47 0.547 0.32 1.101 0.461 1.734 0.442 0.592-0.019 1.056-0.15 1.552-0.448 0.874-0.522 1.459-1.469 1.542-2.493l0.019-0.246h-6.416l0.022 0.275z"></path>
</svg>
