<!-- Generated by IcoMoon.io -->
<svg version="1.1" xmlns="http://www.w3.org/2000/svg" width="32" height="32" viewBox="0 0 32 32">
<title>nouveau_contract_social</title>
<path fill="#ff7900" d="M5.6 15.302c0 14.067-0.013 13.034 0.179 13.43 0.115 0.234 0.454 0.573 0.688 0.688 0.397 0.192-0.342 0.179 10.23 0.179h9.702v-19.2l-2.518-0.003c-1.389 0-2.586-0.010-2.666-0.019-0.467-0.058-1.005-0.262-1.421-0.538-0.445-0.294-0.896-0.842-1.123-1.357-0.109-0.246-0.224-0.659-0.253-0.915-0.006-0.070-0.016-1.261-0.016-2.65l-0.003-2.518h-12.8v12.902zM14.525 13.651c0.288 0.064 0.669 0.272 0.915 0.499 0.115 0.106 0.208 0.205 0.202 0.221s-0.48 0.506-1.053 1.091c-1.821 1.856-1.882 1.923-1.853 1.978 0.016 0.026 0.205 0.221 0.422 0.435 0.416 0.406 0.595 0.522 0.918 0.592 0.198 0.042 0.502 0.022 0.698-0.045 0.326-0.112 0.451-0.227 2.083-1.904l0.458-0.47 0.55 0.566c0.304 0.31 1.046 1.072 1.654 1.69 1.619 1.648 1.667 1.699 1.731 1.84 0.173 0.374-0.048 0.864-0.438 0.973-0.067 0.019-0.17 0.035-0.227 0.035-0.243 0-0.339-0.080-1.485-1.251-0.611-0.624-1.242-1.267-1.402-1.43-0.314-0.32-0.378-0.346-0.528-0.227-0.058 0.045-0.083 0.096-0.083 0.166 0 0.115-0.067 0.045 1.776 1.923 1.187 1.213 1.213 1.251 1.088 1.674-0.054 0.182-0.24 0.387-0.406 0.448-0.16 0.058-0.378 0.048-0.531-0.022-0.080-0.038-0.246-0.176-0.397-0.326-1.315-1.354-2.483-2.534-2.531-2.56-0.102-0.054-0.246 0.003-0.294 0.112-0.058 0.138-0.013 0.24 0.186 0.432 0.198 0.189 2.205 2.24 2.445 2.496 0.176 0.189 0.227 0.291 0.243 0.502 0.019 0.221-0.038 0.371-0.214 0.547-0.17 0.166-0.262 0.205-0.506 0.205-0.202 0-0.333-0.077-0.659-0.394-0.403-0.39-0.608-0.493-0.973-0.49l-0.154 0.003v-0.179c0-0.634-0.502-1.155-1.123-1.162l-0.179-0.003-0.019-0.246c-0.042-0.602-0.47-1.043-1.075-1.107l-0.23-0.022-0.010-0.198c-0.022-0.432-0.262-0.81-0.64-1.002-0.208-0.106-0.24-0.112-0.528-0.112-0.448 0.003-0.563 0.070-1.168 0.688l-0.48 0.486-0.272-0.282c-0.464-0.486-0.618-0.73-0.742-1.187-0.070-0.253-0.093-0.71-0.045-0.941 0.067-0.349 0.221-0.694 0.419-0.95 0.096-0.128 2.134-2.227 2.486-2.56 0.538-0.515 1.238-0.704 1.971-0.531zM18.394 13.619c0.134 0.026 0.368 0.109 0.518 0.182 0.253 0.122 0.314 0.173 0.896 0.758 1.072 1.078 1.997 2.029 2.118 2.176 0.285 0.349 0.451 0.848 0.451 1.344-0.003 0.56-0.198 1.066-0.566 1.459l-0.208 0.221-0.403-0.416c-0.224-0.23-0.938-0.957-1.584-1.616s-1.43-1.459-1.738-1.776l-0.566-0.576-0.403 0.416c-0.224 0.227-0.774 0.794-1.229 1.251-0.749 0.762-0.838 0.842-1.005 0.906-0.214 0.080-0.394 0.086-0.624 0.016-0.134-0.038-0.221-0.099-0.422-0.291-0.138-0.134-0.253-0.253-0.253-0.269 0-0.013 0.061-0.086 0.138-0.166 0.618-0.634 2.656-2.714 2.883-2.938 0.154-0.157 0.355-0.333 0.448-0.39 0.464-0.304 0.998-0.403 1.549-0.291zM12.618 19.434c0.368 0.157 0.544 0.611 0.378 0.966-0.083 0.179-0.851 0.954-1.011 1.024-0.374 0.163-0.842-0.054-0.947-0.438-0.048-0.179-0.019-0.435 0.064-0.57 0.109-0.182 0.893-0.947 1.005-0.986 0.147-0.048 0.394-0.045 0.512 0.003zM13.952 20.79c0.349 0.141 0.528 0.611 0.365 0.96-0.077 0.16-0.826 0.925-0.989 1.011-0.17 0.090-0.435 0.090-0.614-0.003-0.342-0.176-0.49-0.627-0.31-0.97 0.077-0.154 0.838-0.915 0.986-0.986 0.154-0.077 0.39-0.080 0.563-0.013zM15.2 22.112c0.154 0.042 0.339 0.202 0.422 0.362 0.093 0.176 0.096 0.467 0.006 0.64-0.035 0.064-0.253 0.314-0.486 0.55-0.378 0.381-0.445 0.435-0.598 0.483-0.458 0.144-0.886-0.186-0.886-0.682 0-0.154 0.016-0.227 0.074-0.326 0.067-0.109 0.592-0.672 0.835-0.893 0.16-0.144 0.41-0.198 0.634-0.134zM16.621 23.494c0.144 0.070 0.307 0.266 0.358 0.419 0.058 0.179 0.045 0.41-0.032 0.557-0.064 0.128-0.778 0.867-0.928 0.96-0.442 0.282-1.043-0.058-1.043-0.586 0-0.301 0.048-0.381 0.518-0.864 0.362-0.371 0.47-0.461 0.595-0.502 0.16-0.058 0.406-0.048 0.531 0.016z"></path>
<path fill="#ff7900" d="M20 4.918c0.003 1.61 0.016 2.547 0.035 2.65 0.125 0.586 0.589 1.085 1.123 1.2 0.122 0.026 0.89 0.032 2.698 0.026l2.528-0.010-3.178-3.178c-1.744-1.744-3.181-3.174-3.19-3.174s-0.016 1.12-0.016 2.486z"></path>
</svg>
