<!-- Generated by IcoMoon.io -->
<svg version="1.1" xmlns="http://www.w3.org/2000/svg" width="32" height="32" viewBox="0 0 32 32">
<title>numero_unique</title>
<path fill="#ff7900" d="M18.554 6.416c-0.003 0.003-0.118 0.019-0.25 0.029-0.352 0.035-0.467 0.048-0.752 0.102-1.443 0.275-2.736 0.874-3.904 1.802-0.387 0.307-1.114 1.027-1.283 1.27-0.042 0.061-0.061 0.067-0.166 0.038-0.211-0.054-0.96-0.058-1.248-0.006-1.542 0.275-2.707 1.44-2.963 2.966l-0.035 0.227-0.432 0.083c-2.445 0.486-4.384 2.346-4.973 4.768-0.125 0.515-0.157 0.819-0.16 1.44-0.003 0.659 0.006 0.787 0.106 1.296 0.467 2.442 2.362 4.416 4.787 4.989 0.726 0.173 0.224 0.163 9.44 0.163 8.23 0 8.589-0.003 8.896-0.061 1.51-0.282 2.762-1.222 3.45-2.595 0.202-0.406 0.374-0.928 0.426-1.28 0.006-0.054 0.019-0.131 0.032-0.176 0.042-0.186 0.038-1.078-0.006-1.376-0.179-1.146-0.723-2.138-1.61-2.925l-0.141-0.125 0.035-0.147c0.038-0.15 0.090-0.499 0.128-0.867 0.038-0.346 0.022-1.53-0.022-1.872-0.198-1.523-0.717-2.861-1.581-4.077-0.218-0.304-0.23-0.32-0.547-0.685-1.382-1.59-3.312-2.624-5.443-2.922-0.326-0.045-1.744-0.096-1.782-0.061zM14.896 12.013c0.166 0.070 0.474 0.39 0.995 1.046 0.752 0.938 0.906 1.2 0.864 1.478-0.032 0.208-0.163 0.394-0.621 0.858-0.224 0.23-0.419 0.451-0.432 0.486-0.054 0.141 0 0.435 0.131 0.704 0.246 0.515 0.698 1.069 1.587 1.958 0.944 0.944 1.603 1.462 2.106 1.661 0.208 0.080 0.454 0.106 0.573 0.058 0.032-0.013 0.246-0.208 0.48-0.435 0.486-0.47 0.64-0.582 0.858-0.611 0.278-0.038 0.531 0.109 1.389 0.794 1.165 0.931 1.283 1.091 1.098 1.478-0.122 0.246-1.306 1.427-1.542 1.539-0.582 0.275-1.603 0.125-2.765-0.4-2.125-0.963-4.33-2.979-5.734-5.245-0.061-0.099-0.083-0.141-0.291-0.518-0.573-1.050-0.886-2.259-0.762-2.928 0.064-0.342 0.154-0.47 0.749-1.072 0.87-0.883 1.014-0.976 1.318-0.851z"></path>
</svg>
