<!-- Generated by IcoMoon.io -->
<svg version="1.1" xmlns="http://www.w3.org/2000/svg" width="32" height="32" viewBox="0 0 32 32">
<title>office</title>
<path fill="#ff7900" d="M16 4v1.6h-1.6v0.8h-5.6v8.003l-1.6 1.6v12.797h-0.8v0.8h18.4v-0.8h-0.8v-6.4l-1.6-1.6v-14.4h-1.6v-0.8h-1.6v-1.6h-0.8v1.6h-1.6v-3.2h-0.8v1.6zM12.768 9.2v1.2h-2.368v-2.4h2.368v1.2zM16.8 8.224c0.003 0.122 0.003 0.461 0.003 0.752s0 0.73-0.003 0.976v0.448h-2.4v-2.4h2.4v0.224zM20.8 9.2v1.2h-2.4v-2.4h2.4v1.2zM12.8 13.2v1.2h-2.368v-2.4h2.368v1.2zM16.8 13.2v1.2h-2.4v-2.4h2.4v1.2zM20.81 12.922c-0.003 0.506-0.006 1.043-0.010 1.197v0.282h-2.4v-2.4h2.416l-0.006 0.922zM12.8 17.2v1.2h-2.4v-2.4h2.4v1.2zM16.8 17.2v1.2h-2.4v-2.4h2.4v1.2zM20.8 17.2v1.2h-2.4v-2.4h2.4v1.2zM12.8 21.2v1.2h-2.4v-2.4h2.4v1.2zM16.8 21.2v1.2h-2.4v-2.4h2.4v1.2zM20.8 21.2v1.2h-2.4v-2.4h2.4v1.2zM12.8 25.2v1.2h-2.4v-2.4h2.4v1.2zM16.8 25.2v1.2h-2.4v-2.4h2.4v1.2zM20.8 25.2v1.2h-2.4v-2.4h2.4v1.2z"></path>
</svg>
