<!-- Generated by IcoMoon.io -->
<svg version="1.1" xmlns="http://www.w3.org/2000/svg" width="32" height="32" viewBox="0 0 32 32">
<title>oil-and-gas</title>
<path fill="#ff7900" d="M20.797 3.238c-0.013 0.154-0.032 0.298-0.061 0.506-0.019 0.131-0.038 0.31-0.048 0.4-0.016 0.173-0.045 0.432-0.064 0.56-0.006 0.045-0.042 0.339-0.080 0.656-0.035 0.317-0.096 0.813-0.128 1.104-0.035 0.291-0.070 0.586-0.080 0.656-0.006 0.070-0.035 0.323-0.064 0.56-0.026 0.237-0.054 0.474-0.064 0.528-0.006 0.051-0.051 0.426-0.096 0.832-0.045 0.403-0.090 0.771-0.096 0.816s-0.035 0.288-0.064 0.544c-0.026 0.256-0.070 0.63-0.096 0.832s-0.061 0.496-0.077 0.656c-0.029 0.25-0.054 0.47-0.15 1.264-0.010 0.080-0.022 0.195-0.029 0.256s-0.029 0.227-0.045 0.368c-0.019 0.141-0.064 0.522-0.099 0.848-0.038 0.326-0.074 0.643-0.080 0.704-0.010 0.061-0.042 0.365-0.080 0.672-0.035 0.307-0.074 0.614-0.083 0.678l-0.019 0.122h-1.594v-2.525c0-2.694-0.006-2.806-0.163-3.277-0.298-0.896-0.998-1.632-1.875-1.978-0.406-0.16-0.675-0.205-1.21-0.202-0.381 0-0.496 0.016-0.762 0.086-0.566 0.154-1.037 0.429-1.446 0.838-0.483 0.486-0.826 1.146-0.899 1.738-0.013 0.099-0.026 0.205-0.032 0.23-0.003 0.026-0.010 0.102-0.010 0.166l-0.003 0.122h-1.6v1.6h-1.6v4h17.6v-0.8h-0.794l-0.019-0.122c-0.019-0.112-0.026-0.176-0.067-0.566-0.010-0.090-0.026-0.211-0.032-0.272-0.019-0.15-0.099-0.816-0.176-1.504-0.035-0.307-0.080-0.669-0.096-0.8-0.019-0.131-0.038-0.32-0.048-0.416s-0.045-0.4-0.080-0.672c-0.032-0.272-0.070-0.576-0.080-0.672s-0.048-0.413-0.083-0.704c-0.032-0.291-0.090-0.781-0.125-1.088s-0.086-0.739-0.112-0.96c-0.029-0.221-0.054-0.454-0.064-0.518-0.006-0.067-0.035-0.304-0.064-0.528-0.026-0.224-0.054-0.483-0.064-0.57-0.010-0.090-0.026-0.211-0.032-0.272-0.019-0.15-0.128-1.078-0.224-1.92-0.045-0.378-0.086-0.733-0.096-0.784-0.006-0.054-0.022-0.176-0.032-0.272s-0.022-0.221-0.032-0.272c-0.013-0.096-0.048-0.378-0.061-0.528-0.006-0.045-0.013-0.099-0.013-0.122-0.006-0.029-0.272-0.038-1.206-0.038-0.938 0-1.2 0.010-1.203 0.038zM22.499 4.054c0 0.032 0.006 0.086 0.013 0.122 0.013 0.061 0.038 0.25 0.064 0.48 0.035 0.304 0.054 0.486 0.096 0.816 0.026 0.202 0.054 0.448 0.064 0.544s0.032 0.269 0.048 0.384c0.016 0.115 0.038 0.278 0.045 0.368 0.016 0.157 0.102 0.893 0.128 1.088 0.010 0.051 0.022 0.182 0.035 0.288 0.022 0.195 0.026 0.234 0.064 0.502l0.022 0.154h-2.157l0.022-0.154c0.029-0.227 0.042-0.336 0.096-0.79 0.090-0.758 0.147-1.216 0.16-1.318 0.010-0.054 0.029-0.234 0.048-0.4 0.019-0.163 0.083-0.704 0.144-1.203s0.112-0.912 0.112-0.918c0-0.010 0.224-0.016 0.496-0.016 0.451 0 0.496 0.006 0.499 0.054zM23.114 9.638c-0.042 0.051-0.87 1.242-1.158 1.658-0.211 0.31-0.49 0.707-0.611 0.88-0.038 0.051-0.138 0.195-0.224 0.32-0.541 0.774-0.736 1.050-0.755 1.069-0.013 0.010-0.013-0.032-0.003-0.093 0.013-0.061 0.051-0.342 0.086-0.624s0.070-0.563 0.080-0.624c0.010-0.061 0.051-0.4 0.096-0.752 0.176-1.389 0.208-1.635 0.227-1.754l0.019-0.118h1.136c0.906 0 1.13 0.010 1.107 0.038zM23.347 11.178c0.038 0.336 0.189 1.661 0.221 1.91 0.006 0.061 0.029 0.256 0.048 0.432 0.058 0.515 0.061 0.55 0.128 1.117 0.035 0.298 0.061 0.544 0.054 0.55-0.006 0.010-0.819 0.010-1.805 0.006l-1.792-0.010 0.461-0.656c0.253-0.362 0.538-0.771 0.637-0.912 0.096-0.141 0.294-0.426 0.438-0.63 0.477-0.682 1.251-1.792 1.395-2 0.077-0.112 0.147-0.195 0.157-0.186s0.035 0.179 0.058 0.378zM23.93 16.246c0.019 0.138 0.042 0.317 0.051 0.4l0.019 0.154h-4.003l0.016-0.106c0.010-0.054 0.026-0.195 0.038-0.31s0.026-0.23 0.032-0.256c0.003-0.026 0.010-0.067 0.010-0.090 0.003-0.029 0.406-0.038 1.904-0.038h1.901l0.032 0.246z"></path>
<path fill="#ff7900" d="M8 19.6v1.2h17.6v-2.4h-17.6v1.2z"></path>
<path fill="#ff7900" d="M11.2 25.6v4h2.4v-8h-2.4v4z"></path>
<path fill="#ff7900" d="M20 25.6v4h2.4v-8h-2.4v4z"></path>
</svg>
