<!-- Generated by IcoMoon.io -->
<svg version="1.1" xmlns="http://www.w3.org/2000/svg" width="32" height="32" viewBox="0 0 32 32">
<title>orange_events</title>
<path fill="#ff7900" d="M10.448 3.45c-0.25 0.093-0.342 0.15-0.49 0.298-0.307 0.307-0.358 0.506-0.358 1.363v0.682h-5.6l0.010 10.214c0.006 9.706 0.010 10.227 0.064 10.403 0.272 0.886 0.922 1.514 1.782 1.715 0.269 0.064 0.378 0.064 11.21 0.067h10.934v-10.112c0-8.874-0.006-10.144-0.048-10.349-0.211-1.024-1.021-1.782-2.048-1.92-0.070-0.010-0.886-0.016-1.814-0.019h-1.683l-0.013-0.746-0.010-0.742-0.099-0.208c-0.118-0.25-0.298-0.435-0.566-0.579-0.186-0.099-0.218-0.109-0.502-0.109-0.275 0-0.323 0.010-0.512 0.099-0.266 0.125-0.464 0.323-0.589 0.589l-0.099 0.208-0.010 0.742-0.010 0.746h-7.994l-0.010-0.746-0.010-0.742-0.099-0.208c-0.195-0.413-0.573-0.666-1.030-0.691-0.189-0.013-0.285 0-0.406 0.045zM9.715 9.088c0.125 0.266 0.326 0.464 0.589 0.589 0.182 0.086 0.243 0.099 0.496 0.099 0.256 0 0.31-0.010 0.496-0.099 0.266-0.128 0.464-0.326 0.589-0.589l0.099-0.208 0.032-1.92 0.211 0.218c0.352 0.355 0.528 0.762 0.56 1.286 0.074 1.165-0.925 2.16-2.099 2.086-0.506-0.032-0.938-0.224-1.283-0.57-0.784-0.781-0.8-2.042-0.035-2.806l0.214-0.214 0.032 1.92 0.099 0.208zM20.115 9.088c0.128 0.269 0.304 0.445 0.576 0.579 0.202 0.099 0.246 0.109 0.509 0.109 0.256 0 0.31-0.010 0.496-0.099 0.323-0.154 0.528-0.381 0.634-0.701 0.061-0.173 0.067-0.278 0.070-1.069 0-0.483 0.010-0.886 0.019-0.896 0.006-0.010 0.106 0.077 0.214 0.192 0.758 0.794 0.746 2.029-0.026 2.797-0.714 0.707-1.802 0.784-2.618 0.182-0.944-0.698-1.050-2.125-0.224-2.97l0.218-0.221 0.032 1.888 0.099 0.208zM9.6 16.192v1.6h-3.2v-3.2h3.2v1.6zM13.6 16.192v1.6h-3.2v-3.2h3.2v1.6zM17.6 15.789v1.194l-0.218 0.189c-0.118 0.102-0.301 0.285-0.403 0.403l-0.189 0.218h-2.39v-3.2h3.2v1.197zM21.6 15.555c0 0.906-0.003 0.963-0.054 0.941-0.813-0.317-1.584-0.378-2.49-0.192-0.086 0.019-0.458 0.138-0.598 0.192-0.054 0.022-0.058-0.035-0.058-0.941v-0.963h3.2v0.963zM25.6 16.192v1.6h-2.365l-0.416-0.419-0.419-0.416v-2.365h3.2v1.6zM20.118 17.11c0.118 0.224 0.646 1.178 0.861 1.565l0.109 0.195 0.538 0.102c1.181 0.224 1.574 0.307 1.574 0.323-0.003 0.019-0.163 0.198-0.49 0.544-0.31 0.326-0.592 0.627-0.813 0.864l-0.163 0.176 0.026 0.16c0.013 0.086 0.035 0.246 0.045 0.352 0.013 0.106 0.042 0.349 0.067 0.544 0.026 0.192 0.054 0.432 0.064 0.528 0.013 0.096 0.032 0.262 0.048 0.368 0.013 0.106 0.022 0.195 0.019 0.198s-0.8-0.365-1.77-0.822l-0.198-0.093-0.266 0.122c-0.147 0.067-0.387 0.182-0.538 0.253-0.442 0.205-0.838 0.394-0.992 0.464-0.080 0.038-0.154 0.074-0.166 0.080-0.010 0.006-0.016-0.029-0.010-0.080 0.042-0.317 0.086-0.688 0.099-0.81 0.010-0.080 0.022-0.173 0.029-0.211 0.006-0.035 0.022-0.144 0.032-0.24s0.032-0.275 0.048-0.397c0.016-0.125 0.032-0.269 0.038-0.323 0.010-0.112 0.016-0.102-0.746-0.909-0.71-0.752-0.736-0.784-0.675-0.794 0.122-0.022 1.206-0.23 1.629-0.314l0.458-0.086 0.195-0.355c0.109-0.195 0.23-0.413 0.269-0.483s0.099-0.179 0.134-0.24c0.035-0.061 0.125-0.224 0.198-0.358 0.205-0.378 0.243-0.442 0.262-0.442 0.010 0 0.045 0.054 0.083 0.118zM9.6 20.192v1.6h-3.2v-3.2h3.2v1.6zM13.6 20.192v1.6h-3.2v-3.2h3.2v1.6zM16.304 18.646c-0.224 0.573-0.282 0.896-0.282 1.546s0.061 0.973 0.282 1.542c0.022 0.054-0.035 0.058-0.941 0.058h-0.963v-3.2h0.963c0.906 0 0.963 0.003 0.941 0.054zM25.6 20.192v1.6h-0.96c-0.528 0-0.96-0.006-0.96-0.016 0-0.006 0.029-0.090 0.067-0.182 0.035-0.093 0.102-0.32 0.15-0.506 0.074-0.301 0.083-0.397 0.083-0.896 0-0.598-0.048-0.877-0.224-1.363-0.042-0.118-0.077-0.221-0.077-0.224 0-0.006 0.432-0.013 0.96-0.013h0.96v1.6zM9.6 24.192v1.6h-3.2v-3.2h3.2v1.6zM13.6 24.192v1.6h-3.2v-3.2h3.2v1.6zM17.181 23.011l0.419 0.416v2.365h-3.2v-3.2h2.365l0.416 0.419zM25.6 24.192v1.6h-3.2v-2.365l0.41-0.413 0.406-0.416 2.384-0.006v1.6zM18.643 23.955c0.762 0.285 1.786 0.304 2.573 0.045 0.15-0.051 0.298-0.099 0.33-0.112 0.051-0.022 0.054 0.035 0.054 0.941v0.963h-3.2v-0.96c0-0.528 0.006-0.96 0.013-0.96s0.109 0.038 0.23 0.083z"></path>
</svg>
