<!-- Generated by IcoMoon.io -->
<svg version="1.1" xmlns="http://www.w3.org/2000/svg" width="32" height="32" viewBox="0 0 32 32">
<title>Orange_garden</title>
<path fill="#ff7900" d="M15.648 2.646c-0.886 0.646-1.715 1.373-2.4 2.109-0.41 0.438-0.598 0.666-1.046 1.245-0.17 0.221-0.554 0.787-0.554 0.816 0 0.016 0.048 0.061 0.106 0.099 0.16 0.115 0.659 0.512 0.854 0.685 0.269 0.237 0.89 0.867 1.12 1.136 0.931 1.091 1.728 2.528 2.15 3.878 0.058 0.192 0.112 0.346 0.122 0.346s0.074-0.176 0.141-0.394c0.691-2.166 2.086-4.128 3.904-5.498 0.195-0.144 0.304-0.246 0.294-0.275-0.032-0.077-0.349-0.534-0.63-0.906-0.742-0.976-1.642-1.894-2.646-2.698-0.342-0.275-1.040-0.79-1.069-0.79-0.003 0-0.16 0.112-0.346 0.246z"></path>
<path fill="#ff7900" d="M5.61 11.242c0.010 5.075 0.016 5.677 0.064 6.035 0.179 1.299 0.502 2.355 1.066 3.453 0.298 0.579 0.518 0.938 0.912 1.462 0.406 0.544 0.502 0.653 1.034 1.187 0.963 0.96 1.907 1.597 3.299 2.221 0.47 0.214 1.453 0.502 2.122 0.627l0.294 0.054v0.918c0 0.518 0.016 0.998 0.035 1.107 0.131 0.717 0.816 1.29 1.539 1.293 0.685 0 1.309-0.432 1.53-1.062 0.090-0.256 0.090-0.278 0.093-1.309l0.003-0.95 0.298-0.054c0.576-0.102 1.542-0.378 1.926-0.544 0.054-0.026 0.205-0.090 0.336-0.144s0.413-0.189 0.624-0.301c2.134-1.114 3.837-2.944 4.778-5.139 0.282-0.656 0.512-1.405 0.64-2.080 0.195-1.005 0.192-0.947 0.195-6.954l0.003-5.466-0.166 0.016c-0.093 0.010-0.269 0.026-0.394 0.035-1.958 0.16-3.942 0.957-5.507 2.211-1.619 1.299-2.768 2.941-3.405 4.877-0.333 1.011-0.477 1.846-0.525 3.091-0.006 0.141-0.032 0.298-0.054 0.349-0.134 0.275-0.515 0.294-0.688 0.032-0.035-0.054-0.054-0.173-0.061-0.374-0.042-1.040-0.144-1.77-0.355-2.538-0.582-2.115-1.741-3.914-3.414-5.302-1.718-1.424-3.763-2.234-6.016-2.378l-0.218-0.013 0.013 5.638z"></path>
</svg>
