<!-- Generated by IcoMoon.io -->
<svg version="1.1" xmlns="http://www.w3.org/2000/svg" width="32" height="32" viewBox="0 0 32 32">
<title>orange_protect</title>
<path fill="#ff7900" d="M15.696 4.016c-0.016 0.006-0.141 0.035-0.272 0.064-0.458 0.106-0.794 0.304-1.187 0.698-0.291 0.288-3.258 3.302-3.674 3.731-0.166 0.17-0.957 0.973-1.76 1.789s-1.654 1.683-1.891 1.926c-0.49 0.499-2.989 3.040-3.405 3.462-0.15 0.15-0.275 0.285-0.275 0.294s1.072 0.019 2.384 0.019h2.384v4.912c0 4.365 0.006 4.941 0.051 5.162 0.182 0.89 0.822 1.574 1.731 1.853 0.176 0.051 0.538 0.058 6.106 0.064 5.36 0.010 5.942 0.006 6.176-0.042 0.992-0.202 1.741-0.976 1.904-1.968 0.019-0.134 0.032-1.888 0.032-5.094v-4.886h4.803l-0.234-0.237c-0.349-0.352-2.96-3.008-3.414-3.472-0.218-0.221-1.053-1.072-1.859-1.891s-1.658-1.683-1.891-1.926c-0.714-0.726-3.123-3.178-3.507-3.565-0.538-0.538-0.88-0.746-1.434-0.861-0.208-0.042-0.675-0.061-0.768-0.032zM16.304 15.968c0.947 0.15 1.706 0.838 1.952 1.763 0.256 0.966-0.144 2.022-0.976 2.589-0.106 0.074-0.189 0.141-0.179 0.154 0.006 0.013 0.022 0.122 0.032 0.246 0.013 0.122 0.029 0.282 0.035 0.352 0.029 0.253 0.045 0.419 0.064 0.64 0.010 0.122 0.026 0.266 0.032 0.32 0.006 0.051 0.019 0.195 0.032 0.32 0.010 0.122 0.026 0.266 0.032 0.32 0.006 0.051 0.019 0.195 0.032 0.32 0.010 0.122 0.026 0.266 0.032 0.32 0.019 0.141 0.045 0.419 0.096 0.96 0.010 0.122 0.026 0.278 0.035 0.342l0.016 0.122h-3.21l0.022-0.202c0.010-0.109 0.026-0.234 0.032-0.278s0.019-0.189 0.032-0.32c0.013-0.131 0.026-0.275 0.032-0.32s0.019-0.195 0.032-0.336c0.013-0.141 0.026-0.291 0.032-0.336s0.019-0.166 0.029-0.272c0.010-0.106 0.038-0.4 0.067-0.656 0.026-0.256 0.054-0.557 0.067-0.672 0.010-0.115 0.022-0.24 0.029-0.278s0.019-0.195 0.032-0.352l0.022-0.285-0.173-0.112c-0.477-0.32-0.842-0.845-0.982-1.427-0.077-0.31-0.070-0.851 0.010-1.162 0.179-0.672 0.63-1.222 1.254-1.533 0.458-0.227 0.944-0.307 1.437-0.227z"></path>
</svg>
