<!-- Generated by IcoMoon.io -->
<svg version="1.1" xmlns="http://www.w3.org/2000/svg" width="32" height="32" viewBox="0 0 32 32">
<title>Orange_security_suite</title>
<path fill="#ff7900" d="M15.68 2.611c-0.65 0.445-1.67 1.014-2.368 1.325-0.166 0.074-0.374 0.17-0.464 0.208-0.979 0.438-2.506 0.902-3.664 1.117-0.15 0.029-0.342 0.067-0.432 0.083-0.086 0.016-0.23 0.038-0.32 0.048-0.086 0.010-0.195 0.026-0.24 0.032-0.16 0.029-0.95 0.109-1.264 0.128-0.176 0.013-0.39 0.026-0.48 0.032-0.086 0.006-0.496 0.013-0.906 0.013l-0.746 0.003 0.013 4.966c0.006 2.733 0.022 5.005 0.029 5.050 0.010 0.045 0.026 0.179 0.038 0.304 0.099 1.088 0.362 2.342 0.73 3.472 1.114 3.424 3.248 6.269 6.154 8.202 1.181 0.787 2.374 1.373 3.795 1.862l0.435 0.15 0.381-0.128c1.987-0.659 4.010-1.802 5.421-3.062 1.162-1.040 1.968-1.965 2.758-3.168 1.13-1.715 1.949-3.738 2.342-5.76 0.112-0.579 0.147-0.81 0.208-1.392 0.019-0.166 0.045-0.362 0.054-0.432 0.013-0.070 0.029-2.365 0.035-5.098l0.013-4.966-0.746-0.003c-0.41 0-0.816-0.006-0.906-0.013-0.086-0.006-0.317-0.019-0.512-0.032-0.192-0.010-0.39-0.026-0.442-0.029-0.048-0.006-0.176-0.022-0.288-0.032-0.208-0.022-0.611-0.074-0.774-0.102-0.051-0.006-0.182-0.029-0.288-0.045-0.765-0.118-1.875-0.397-2.755-0.691-0.365-0.122-1.258-0.464-1.533-0.589-0.979-0.442-1.859-0.928-2.678-1.478-0.157-0.102-0.285-0.186-0.288-0.182-0.006 0-0.147 0.093-0.314 0.208zM17.36 8.848c0.448 0.070 0.605 0.102 0.96 0.192 2.669 0.691 4.774 2.803 5.456 5.488 0.080 0.31 0.179 0.909 0.208 1.222l0.022 0.25h-2.406l-0.003 0.326c-0.006 1.149-0.294 2.109-0.902 2.998-0.349 0.509-0.899 1.066-1.347 1.357l-0.147 0.099v1.619h-5.6v-1.619l-0.24-0.166c-0.131-0.093-0.24-0.179-0.24-0.192s0.509-0.531 1.133-1.155l1.136-1.133 0.192 0.086c1.024 0.461 2.259-0.035 2.669-1.069 0.221-0.56 0.195-1.107-0.077-1.664-0.458-0.925-1.638-1.344-2.586-0.912-0.093 0.045-0.173 0.080-0.179 0.080s-2.256-2.253-2.282-2.285c-0.032-0.038 0.656-0.48 1.021-0.653 0.781-0.378 1.485-0.518 2.582-0.518h0.070v-2.406l0.246 0.022c0.138 0.013 0.278 0.029 0.314 0.032zM13.693 14.083c0.934 0.938 1.699 1.69 1.699 1.67 0-0.016 0.067-0.099 0.15-0.186 0.48-0.493 1.267-0.48 1.75 0.032 0.253 0.269 0.368 0.755 0.262 1.117-0.278 0.954-1.469 1.187-2.102 0.413l-0.086-0.102-1.674 1.677c-0.922 0.925-1.683 1.68-1.693 1.68-0.029 0-0.653-0.621-0.928-0.928-0.566-0.627-0.976-1.203-1.248-1.75-0.147-0.301-0.32-0.758-0.32-0.858 0-0.042 0.291-0.048 2.301-0.048h2.298l0.109-0.074c0.192-0.128 0.243-0.336 0.125-0.525-0.128-0.211-0.016-0.202-2.544-0.202-2.234 0-2.288 0-2.288-0.061 0-0.035 0.045-0.189 0.099-0.346 0.301-0.848 0.886-1.693 1.882-2.707 0.272-0.275 0.499-0.502 0.502-0.502s0.771 0.765 1.706 1.699z"></path>
</svg>
