<!-- Generated by IcoMoon.io -->
<svg version="1.1" xmlns="http://www.w3.org/2000/svg" width="32" height="32" viewBox="0 0 32 32">
<title>orange_pro</title>
<path fill="#ff7900" d="M2.403 14.566c0 8.659 0.003 8.979 0.061 9.258 0.256 1.222 1.149 2.157 2.371 2.486l0.269 0.074 24.496 0.016-0.006-9.046-0.010-9.050-0.086-0.307c-0.336-1.219-1.258-2.083-2.49-2.333-0.307-0.064-0.474-0.064-12.461-0.064h-12.147l0.003 8.966zM10.122 8.848c1.264 0.221 2.25 1.123 2.573 2.346 0.115 0.435 0.122 1.136 0.016 1.555-0.365 1.443-1.638 2.448-3.11 2.445-0.851 0-1.629-0.317-2.227-0.906-0.429-0.426-0.71-0.899-0.867-1.472-0.077-0.285-0.086-0.374-0.086-0.816 0-0.512 0.022-0.64 0.179-1.104 0.25-0.72 0.835-1.376 1.552-1.747 0.595-0.304 1.325-0.416 1.971-0.301zM25.872 8.854c0.33 0.112 0.557 0.47 0.518 0.826-0.022 0.205-0.083 0.333-0.243 0.493-0.24 0.24 0.010 0.227-4.15 0.227-4.048 0-3.846 0.010-4.096-0.179-0.368-0.282-0.397-0.854-0.058-1.184 0.256-0.246-0.026-0.23 4.144-0.234 3.392-0.003 3.744 0.003 3.885 0.051zM25.901 12.061c0.608 0.262 0.666 1.078 0.099 1.424l-0.16 0.099-3.795 0.010c-3.747 0.006-3.798 0.006-3.949-0.058-0.163-0.070-0.333-0.227-0.422-0.39-0.042-0.074-0.058-0.176-0.058-0.346 0-0.205 0.016-0.266 0.090-0.39 0.048-0.083 0.134-0.189 0.195-0.234 0.237-0.179 0.042-0.173 4.106-0.173 3.638-0.003 3.754 0 3.894 0.058zM7.456 15.37c0.432 0.282 0.979 0.493 1.504 0.576 0.294 0.048 1.091 0.054 1.28 0.010 0.045-0.010 0.154-0.035 0.24-0.054 0.528-0.118 1.248-0.458 1.587-0.752 0.045-0.038 0.077-0.029 0.24 0.086 1.050 0.733 1.709 1.731 2.006 3.037 0.067 0.298 0.067 0.374 0.080 3.018l0.010 2.714-3.818-0.013c-3.494-0.006-3.834-0.013-3.997-0.064-0.739-0.224-1.312-0.723-1.594-1.389-0.192-0.445-0.202-0.573-0.186-2.336 0.006-0.877 0.022-1.645 0.035-1.706s0.045-0.211 0.070-0.333c0.096-0.464 0.346-1.075 0.611-1.501 0.33-0.534 0.864-1.085 1.37-1.424l0.192-0.128 0.080 0.061c0.045 0.035 0.173 0.125 0.288 0.198zM25.2 17.6h1.2l-0.992 0.992c-0.544 0.547-0.992 1.002-0.992 1.008 0 0.010 0.438 0.454 0.976 0.992s0.976 0.982 0.976 0.992c0 0.010-0.531 0.016-1.184 0.016h-1.184v1.184c0 0.65-0.006 1.184-0.016 1.184s-0.458-0.442-0.995-0.979c-0.861-0.861-0.982-0.973-1.030-0.934-0.029 0.022-0.474 0.464-0.989 0.976-0.512 0.515-0.941 0.938-0.95 0.938s-0.019-0.534-0.019-1.184v-1.184h-1.184c-0.65 0-1.184-0.006-1.184-0.016s0.438-0.454 0.976-0.989c0.538-0.538 0.976-0.982 0.976-0.992s-0.445-0.464-0.992-1.011l-0.992-0.992h2.4l0.006-1.194 0.010-1.19 0.982 0.982c0.592 0.592 0.998 0.976 1.024 0.966 0.022-0.010 0.474-0.451 1.002-0.982l0.96-0.966 0.010 1.19 0.006 1.194h1.2z"></path>
<path fill="#ff7900" d="M9.264 16.71c-0.010 0.042-0.218 1.088-0.464 2.326-0.246 1.242-0.458 2.288-0.467 2.326-0.016 0.061 0.090 0.179 0.624 0.714l0.643 0.643 0.643-0.643c0.525-0.525 0.64-0.656 0.624-0.71-0.013-0.054-0.522-2.611-0.605-3.030-0.006-0.045-0.074-0.374-0.15-0.736-0.074-0.362-0.138-0.685-0.147-0.72-0.006-0.035-0.019-0.102-0.032-0.154l-0.019-0.086h-0.317c-0.301 0-0.317 0.003-0.333 0.070z"></path>
</svg>
