<!-- Generated by IcoMoon.io -->
<svg version="1.1" xmlns="http://www.w3.org/2000/svg" width="32" height="32" viewBox="0 0 32 32">
<title>Orange_Football_Club</title>
<path fill="#ff7900" d="M15.197 2.413c-0.006 0.006-0.141 0.022-0.301 0.032-0.272 0.022-0.634 0.064-0.88 0.102-0.739 0.112-1.085 0.186-1.725 0.368-1.222 0.346-2.522 0.922-3.507 1.558-0.496 0.32-0.586 0.381-0.81 0.544-2.198 1.613-3.875 3.862-4.797 6.438-0.301 0.848-0.582 2.022-0.666 2.8-0.013 0.106-0.029 0.227-0.035 0.272-0.093 0.576-0.080 2.365 0.019 3.13 0.051 0.368 0.051 0.374 0.128 0.79 0.23 1.274 0.63 2.467 1.219 3.648 1.043 2.077 2.57 3.818 4.541 5.171 1.587 1.094 3.757 1.936 5.616 2.186 0.070 0.010 0.23 0.032 0.352 0.048 0.611 0.083 2.118 0.115 2.736 0.058 2.678-0.246 5.024-1.139 7.088-2.688 0.141-0.106 0.307-0.237 0.371-0.291s0.186-0.157 0.272-0.227c0.186-0.154 0.512-0.458 0.826-0.771 1.68-1.68 2.893-3.792 3.507-6.118 0.080-0.301 0.24-1.053 0.272-1.264 0.010-0.086 0.026-0.186 0.032-0.221 0.010-0.035 0.022-0.147 0.032-0.246 0.013-0.099 0.026-0.214 0.035-0.259 0.061-0.362 0.083-1.939 0.035-2.528-0.032-0.432-0.138-1.219-0.211-1.568-0.557-2.73-1.824-5.085-3.776-7.030-1.587-1.578-3.562-2.752-5.712-3.389-0.602-0.176-1.392-0.352-1.894-0.413-0.086-0.013-0.179-0.026-0.205-0.032s-0.163-0.022-0.304-0.035c-0.141-0.010-0.291-0.026-0.336-0.035-0.099-0.016-1.907-0.045-1.923-0.029zM12.461 5.424c-0.49 0.957-0.496 0.976-0.422 1.005 0.042 0.016 0.534 0.211 1.098 0.435s1.44 0.57 1.946 0.771l0.922 0.365 1.926-0.771c1.059-0.426 1.958-0.784 2-0.8 0.070-0.026 0.058-0.051-0.41-0.992-0.266-0.531-0.48-0.97-0.474-0.976 0.006-0.003 0.125 0.026 0.266 0.064 2.656 0.774 4.944 2.413 6.525 4.672 0.134 0.192 0.24 0.352 0.237 0.355-0.010 0.010-0.253-0.029-1.558-0.24-0.339-0.054-0.624-0.096-0.627-0.090-0.013 0.010-0.038 0.333-0.064 0.746-0.010 0.157-0.026 0.387-0.032 0.512-0.010 0.122-0.022 0.346-0.032 0.496s-0.022 0.365-0.032 0.48c-0.010 0.115-0.022 0.358-0.035 0.544-0.010 0.186-0.022 0.387-0.029 0.448-0.010 0.125-0.058 0.938-0.061 1.040 0 0.080 2.698 3.344 2.755 3.334 0.022-0.003 0.387-0.352 0.81-0.771s0.781-0.755 0.794-0.742c0.029 0.032 0.029 1.36 0 1.731-0.166 1.981-0.806 3.878-1.875 5.52-0.339 0.525-0.819 1.155-0.842 1.11-0.013-0.022-0.054-0.246-0.093-0.502-0.038-0.253-0.077-0.493-0.083-0.528-0.019-0.112-0.144-0.925-0.163-1.056-0.010-0.070-0.026-0.138-0.035-0.15-0.013-0.013-0.208 0.026-0.438 0.086-0.227 0.058-0.877 0.224-1.44 0.368s-1.315 0.336-1.674 0.429l-0.65 0.163-0.413 0.656c-0.227 0.362-0.547 0.867-0.71 1.13-0.525 0.832-0.765 1.216-0.97 1.546l-0.198 0.32 0.291 0.15c0.285 0.147 0.982 0.509 1.52 0.79 0.304 0.157 0.32 0.125-0.157 0.294-1.338 0.474-2.611 0.691-4.032 0.688-0.627 0-0.822-0.010-1.504-0.086-0.522-0.061-1.274-0.214-1.824-0.374-0.493-0.141-1.171-0.384-1.149-0.41 0.006-0.006 0.461-0.237 1.005-0.515 0.547-0.275 1.005-0.512 1.021-0.528 0.032-0.029-0.032-0.134-0.605-1.030-0.035-0.058-0.23-0.362-0.429-0.678-0.202-0.317-0.413-0.65-0.467-0.736-0.058-0.090-0.243-0.384-0.416-0.656-0.17-0.272-0.333-0.518-0.355-0.544-0.026-0.026-0.202-0.086-0.39-0.131-0.189-0.048-1.12-0.282-2.067-0.522-0.95-0.24-1.728-0.432-1.731-0.429-0.003 0.006-0.042 0.24-0.090 0.522-0.182 1.11-0.282 1.696-0.291 1.702-0.016 0.016-0.374-0.461-0.634-0.838-0.896-1.315-1.552-2.877-1.834-4.362-0.026-0.134-0.054-0.275-0.061-0.31-0.013-0.070-0.102-0.71-0.131-0.944-0.026-0.221-0.048-1.667-0.026-1.789l0.019-0.106 0.771 0.771c0.426 0.422 0.781 0.771 0.794 0.771 0.010 0 0.221-0.24 0.464-0.538 0.246-0.294 0.864-1.040 1.376-1.658l0.934-1.126-0.013-0.138c-0.006-0.077-0.019-0.314-0.032-0.525-0.010-0.211-0.026-0.419-0.032-0.464s-0.022-0.246-0.032-0.448c-0.010-0.202-0.026-0.454-0.032-0.56-0.010-0.106-0.022-0.307-0.032-0.448s-0.022-0.342-0.032-0.448c-0.006-0.106-0.022-0.323-0.032-0.48-0.026-0.422-0.054-0.768-0.061-0.774s-0.723 0.090-0.995 0.134c-0.096 0.016-0.214 0.035-0.816 0.125-0.166 0.026-0.307 0.042-0.314 0.035-0.026-0.026 0.506-0.755 0.822-1.136 1.546-1.843 3.642-3.216 5.907-3.859 0.141-0.038 0.259-0.074 0.262-0.074 0.006-0.003-0.214 0.435-0.49 0.973z"></path>
<path fill="#ff7900" d="M12.8 11.6v0.4h-2.022l0.013 1.27 0.013 1.274 0.090 0.288c0.192 0.63 0.557 1.114 1.107 1.472 0.192 0.125 0.589 0.304 0.672 0.304 0.070 0 0.224 0.099 0.224 0.147 0 0.067 0.115 0.397 0.211 0.611 0.346 0.755 1.101 1.421 1.891 1.67l0.186 0.058 0.010 0.454c0.006 0.419 0.003 0.451-0.051 0.451-0.112 0-0.346 0.099-0.461 0.192-0.128 0.106-0.282 0.394-0.282 0.525 0 0.067-0.016 0.083-0.077 0.083-0.24 0-0.582 0.269-0.672 0.528-0.102 0.304-0.368 0.272 2.352 0.272h2.406l-0.019-0.112c-0.029-0.173-0.154-0.397-0.275-0.499-0.109-0.090-0.346-0.189-0.454-0.189-0.038 0-0.058-0.038-0.074-0.131-0.054-0.336-0.323-0.602-0.666-0.656l-0.122-0.022v-0.445c0-0.394 0.006-0.445 0.058-0.461 0.698-0.218 1.312-0.637 1.699-1.158 0.211-0.288 0.4-0.659 0.502-0.998l0.083-0.275 0.166-0.038c0.25-0.058 0.714-0.301 0.954-0.499 0.41-0.339 0.723-0.829 0.864-1.347 0.064-0.237 0.070-0.346 0.083-1.514l0.013-1.254h-2.022v-0.8h-6.4v0.4zM12.8 14.304c0 0.826-0.006 1.504-0.016 1.504s-0.099-0.042-0.202-0.093c-0.518-0.269-0.874-0.755-0.966-1.325-0.016-0.112-0.029-0.518-0.029-0.899l0.003-0.691h1.21v1.504zM20.406 13.622c-0.013 0.736-0.019 0.848-0.080 1.037-0.138 0.422-0.483 0.832-0.874 1.037-0.118 0.061-0.224 0.112-0.234 0.112s-0.019-0.678-0.019-1.504v-1.504h1.219l-0.013 0.822z"></path>
</svg>
