<!-- Generated by IcoMoon.io -->
<svg version="1.1" xmlns="http://www.w3.org/2000/svg" width="32" height="32" viewBox="0 0 32 32">
<title>orange_wallet</title>
<path fill="#ff7900" d="M5.2 6.422c-0.432 0.054-0.864 0.208-1.286 0.464-0.618 0.371-1.152 1.056-1.366 1.754-0.144 0.467-0.141 0.256-0.141 7.776-0.003 6.858 0 7.13 0.058 7.408 0.256 1.222 1.149 2.157 2.371 2.486l0.269 0.074 22.896 0.016v-5.59l-0.262-0.022c-1.094-0.090-2.045-0.726-2.576-1.718-0.419-0.778-0.47-1.792-0.131-2.653 0.384-0.97 1.258-1.715 2.266-1.933 0.301-0.064 0.397-0.077 0.57-0.080l0.134-0.003v-5.6h-2.4v-2.4l-10.15 0.003c-5.584 0.003-10.195 0.013-10.25 0.019zM24.8 8v0.8h-9.258c-10.39 0-9.44 0.022-9.702-0.24-0.413-0.41-0.266-1.082 0.282-1.302 0.125-0.051 0.765-0.054 9.408-0.054l9.27-0.003v0.8zM15.917 12.045c0.157 0.064 0.282 0.24 0.518 0.72 0.611 1.248 0.998 2.493 1.117 3.619 0.013 0.115 0.029 0.237 0.038 0.272 0.029 0.109 0.035 1.587 0.010 1.808-0.016 0.115-0.035 0.294-0.048 0.4-0.122 1.11-0.531 2.406-1.12 3.565-0.39 0.765-0.576 0.893-0.979 0.682-0.221-0.115-0.317-0.253-0.317-0.458 0-0.182 0.051-0.342 0.237-0.742 0.49-1.053 0.829-2.163 0.931-3.059 0.013-0.096 0.026-0.195 0.032-0.224 0.048-0.259 0.067-1.235 0.032-1.683-0.016-0.234-0.080-0.768-0.099-0.861-0.010-0.035-0.029-0.147-0.045-0.243-0.106-0.614-0.41-1.558-0.726-2.272-0.4-0.89-0.416-0.954-0.342-1.168 0.054-0.16 0.128-0.237 0.317-0.323 0.182-0.086 0.294-0.096 0.445-0.032zM13.843 13.2c0.32 0.208 0.845 1.338 1.114 2.403 0.070 0.278 0.176 0.912 0.202 1.229 0.045 0.541 0.022 1.507-0.042 1.936-0.147 1.005-0.403 1.786-0.89 2.733-0.147 0.291-0.378 0.528-0.538 0.56-0.298 0.054-0.698-0.25-0.698-0.531 0-0.122 0.093-0.406 0.208-0.634 0.314-0.627 0.605-1.504 0.704-2.144 0.013-0.080 0.029-0.173 0.038-0.208 0.026-0.122 0.054-0.64 0.054-0.976 0.003-0.995-0.221-1.99-0.659-2.96-0.298-0.656-0.323-0.726-0.326-0.915-0.003-0.227 0.096-0.368 0.339-0.493 0.182-0.090 0.355-0.090 0.493 0zM11.677 14.269c0.138 0.074 0.23 0.186 0.406 0.499 0.346 0.614 0.602 1.373 0.672 1.974 0.010 0.093 0.029 0.25 0.042 0.346 0.048 0.397 0.010 1.072-0.096 1.638-0.157 0.851-0.65 1.942-0.979 2.17-0.147 0.099-0.349 0.096-0.531-0.010-0.166-0.099-0.23-0.166-0.288-0.31-0.070-0.173-0.035-0.333 0.166-0.768 0.23-0.49 0.301-0.678 0.4-1.078 0.109-0.438 0.118-0.509 0.131-1.034 0.016-0.589-0.042-0.986-0.224-1.565-0.080-0.253-0.147-0.413-0.374-0.899-0.144-0.307-0.163-0.39-0.122-0.544 0.045-0.17 0.176-0.314 0.352-0.397 0.195-0.090 0.298-0.096 0.445-0.022zM9.725 15.395c0.141 0.102 0.368 0.41 0.499 0.669 0.381 0.765 0.438 1.616 0.173 2.582-0.15 0.55-0.477 1.059-0.771 1.213-0.141 0.074-0.352 0.045-0.515-0.070-0.182-0.131-0.253-0.24-0.269-0.419-0.016-0.141 0-0.189 0.144-0.464 0.291-0.56 0.394-0.944 0.378-1.402-0.013-0.352-0.096-0.64-0.317-1.072-0.166-0.33-0.195-0.41-0.195-0.566-0.003-0.154 0.010-0.195 0.096-0.301 0.214-0.269 0.547-0.339 0.778-0.17z"></path>
<path fill="#ff7900" d="M27.504 15.254c-1.331 0.285-2.166 1.632-1.824 2.95 0.224 0.861 0.925 1.539 1.795 1.731 0.224 0.048 0.406 0.064 0.864 0.064 0.682 0 0.813-0.032 1.024-0.243 0.237-0.237 0.237-0.23 0.237-2.186-0.003-1.331-0.013-1.741-0.045-1.834-0.067-0.189-0.23-0.368-0.419-0.454-0.166-0.080-0.192-0.083-0.79-0.080-0.419 0-0.691 0.016-0.842 0.051z"></path>
</svg>
