<!-- Generated by IcoMoon.io -->
<svg version="1.1" xmlns="http://www.w3.org/2000/svg" width="32" height="32" viewBox="0 0 32 32">
<title>orange_foundation</title>
<path fill="#ff7900" d="M9.264 4.422c-0.144 0.054-0.346 0.198-0.464 0.336-0.058 0.067-0.285 0.31-0.502 0.544-0.221 0.234-0.422 0.451-0.451 0.483-0.032 0.035-0.224 0.24-0.429 0.458s-0.41 0.438-0.461 0.493c-0.048 0.051-0.253 0.275-0.458 0.493s-0.384 0.413-0.403 0.432c-0.042 0.045-0.813 0.877-0.896 0.966-0.429 0.454-0.877 0.931-0.95 1.014-0.23 0.256-0.304 0.582-0.202 0.89 0.064 0.192 0.189 0.326 0.96 1.037 0.227 0.211 0.515 0.48 0.64 0.595 0.122 0.115 0.346 0.323 0.496 0.464 0.15 0.138 0.368 0.346 0.49 0.461l0.218 0.208-0.038 0.256c-0.045 0.291-0.058 1.36-0.022 1.702 0.163 1.603 0.781 3.062 1.802 4.266 0.256 0.301 1.286 1.302 1.779 1.731 0.032 0.029 0.256 0.237 0.499 0.464 0.243 0.23 0.666 0.624 0.938 0.877 0.272 0.256 0.589 0.55 0.704 0.656 0.115 0.109 0.33 0.31 0.48 0.448 0.15 0.141 0.365 0.342 0.48 0.448 0.115 0.109 0.307 0.288 0.432 0.403 0.122 0.112 0.246 0.227 0.272 0.253s0.15 0.141 0.272 0.256c0.125 0.115 0.349 0.323 0.499 0.464 0.147 0.141 0.458 0.429 0.685 0.643 0.23 0.214 0.49 0.454 0.576 0.538 0.432 0.403 0.906 0.499 1.37 0.282 0.608-0.285 0.851-0.998 0.544-1.59-0.093-0.179-0.131-0.214-1.242-1.248-0.227-0.211-0.464-0.435-0.531-0.496-0.064-0.061-0.182-0.17-0.259-0.24-0.074-0.070-0.352-0.33-0.618-0.576-0.262-0.243-0.566-0.525-0.672-0.627-0.106-0.099-0.243-0.23-0.304-0.285-0.163-0.15-0.835-0.778-0.886-0.826-0.266-0.262-0.042-0.726 0.314-0.656 0.134 0.022 0.176 0.051 0.406 0.269 0.195 0.182 1.533 1.43 1.594 1.485 0.090 0.083 0.883 0.822 1.088 1.018 0.128 0.122 0.259 0.243 0.294 0.272s0.243 0.224 0.461 0.432c0.221 0.205 0.435 0.406 0.477 0.442s0.186 0.17 0.317 0.294c0.134 0.128 0.429 0.403 0.656 0.614 0.419 0.39 0.733 0.682 1.168 1.088 0.131 0.125 0.326 0.307 0.432 0.403 0.304 0.282 0.656 0.611 0.88 0.822 0.115 0.109 0.301 0.246 0.416 0.304 0.189 0.093 0.234 0.102 0.496 0.102 0.25 0 0.314-0.013 0.486-0.093 0.627-0.288 0.867-1.094 0.499-1.667-0.093-0.141-0.077-0.128-0.781-0.784-0.272-0.256-0.688-0.643-0.922-0.861-0.234-0.221-0.451-0.422-0.48-0.448-0.032-0.029-0.23-0.211-0.438-0.406-0.208-0.198-0.432-0.403-0.493-0.461s-0.282-0.266-0.493-0.461c-0.208-0.195-0.406-0.378-0.442-0.406-0.032-0.029-0.272-0.253-0.531-0.496-0.4-0.381-0.666-0.627-0.902-0.845-0.029-0.026-0.237-0.221-0.467-0.435-0.227-0.214-0.496-0.464-0.598-0.557-0.214-0.195-0.278-0.304-0.278-0.458 0-0.256 0.339-0.448 0.563-0.317 0.067 0.042 0.538 0.474 1.85 1.702 0.122 0.115 0.237 0.221 0.256 0.24 0.022 0.016 0.154 0.141 0.291 0.272 0.141 0.131 0.358 0.333 0.48 0.448 0.125 0.115 0.333 0.307 0.464 0.432 0.131 0.122 0.448 0.419 0.704 0.656s0.573 0.531 0.704 0.656c0.131 0.122 0.253 0.237 0.275 0.256 0.032 0.029 0.614 0.573 1.085 1.014 0.106 0.099 0.243 0.227 0.304 0.282 0.24 0.221 0.89 0.826 1.114 1.040 0.432 0.41 0.666 0.515 1.078 0.49 0.592-0.038 1.008-0.451 1.082-1.078 0.035-0.307-0.134-0.698-0.419-0.97-0.102-0.093-0.397-0.371-0.662-0.618-0.262-0.243-0.566-0.528-0.672-0.627-0.106-0.102-0.224-0.211-0.259-0.243-0.038-0.032-0.259-0.237-0.493-0.458s-0.448-0.422-0.48-0.448c-0.080-0.070-0.8-0.742-1.104-1.027-0.141-0.134-0.298-0.285-0.352-0.333-0.147-0.131-0.8-0.739-1.088-1.011-0.141-0.131-0.378-0.355-0.528-0.493s-0.381-0.355-0.512-0.477c-0.47-0.438-1.075-1.002-1.274-1.187-0.112-0.106-0.224-0.23-0.253-0.285-0.096-0.186 0.026-0.47 0.23-0.528 0.166-0.045 0.294 0.006 0.509 0.205 0.685 0.64 0.928 0.867 0.989 0.922 0.038 0.032 0.179 0.163 0.31 0.288 0.134 0.128 0.349 0.33 0.48 0.451s0.342 0.317 0.464 0.432c0.125 0.115 0.326 0.304 0.448 0.419 0.125 0.115 0.422 0.394 0.662 0.618 0.24 0.227 0.47 0.442 0.512 0.477s0.182 0.166 0.314 0.291c0.134 0.128 0.419 0.397 0.637 0.598 0.221 0.202 0.445 0.41 0.499 0.464 0.058 0.051 0.275 0.256 0.483 0.451 0.573 0.534 0.598 0.557 0.701 0.634 0.246 0.186 0.63 0.266 0.944 0.195 0.317-0.067 0.634-0.33 0.79-0.65 0.080-0.163 0.090-0.218 0.090-0.486-0.003-0.266-0.013-0.326-0.093-0.49-0.112-0.227-0.102-0.214-1.219-1.254-0.227-0.211-0.522-0.486-0.656-0.614-0.131-0.125-0.272-0.256-0.307-0.288-0.074-0.061-0.688-0.634-1.13-1.050-0.15-0.141-0.368-0.342-0.483-0.448-0.115-0.109-0.301-0.282-0.413-0.384-0.112-0.106-0.237-0.221-0.272-0.256-0.141-0.131-0.525-0.486-0.79-0.736-0.563-0.531-1.13-1.059-1.181-1.104-0.029-0.026-0.227-0.211-0.438-0.41s-0.416-0.387-0.451-0.416c-0.035-0.032-0.266-0.246-0.512-0.48s-0.483-0.454-0.531-0.49c-0.24-0.189-0.237-0.493 0.010-0.659 0.205-0.138 0.349-0.083 0.746 0.294 0.39 0.371 1.078 1.014 1.142 1.069 0.054 0.048 0.614 0.57 1.139 1.062 0.317 0.298 0.394 0.362 0.576 0.454 0.483 0.253 1.043 0.234 1.53-0.054 0.192-0.109 0.467-0.416 0.573-0.634 0.234-0.48 0.202-1.066-0.083-1.51-0.086-0.134-0.499-0.55-1.107-1.107-0.061-0.058-0.282-0.262-0.493-0.461-0.208-0.195-0.416-0.39-0.464-0.432-0.045-0.042-0.176-0.163-0.291-0.272-0.115-0.106-0.31-0.288-0.432-0.403-0.288-0.266-0.669-0.624-0.995-0.928-0.141-0.131-0.435-0.406-0.653-0.608s-0.499-0.464-0.621-0.582c-0.678-0.637-1.165-1.008-1.798-1.366-1.555-0.88-3.539-1.194-5.302-0.832l-0.314 0.064-0.102-0.086c-0.054-0.045-0.211-0.189-0.342-0.314-0.134-0.125-0.435-0.406-0.672-0.627s-0.544-0.509-0.685-0.64c-0.419-0.39-0.669-0.624-0.755-0.701-0.208-0.189-0.614-0.278-0.848-0.189zM12.026 10.048c0.323 0.083 0.73 0.285 0.966 0.483 0.102 0.086 0.198 0.157 0.208 0.157 0.013 0 0.093-0.064 0.182-0.141 0.406-0.355 1.034-0.573 1.642-0.57 0.704 0.003 1.315 0.256 1.808 0.746 0.909 0.902 1.018 2.352 0.25 3.379-0.080 0.106-0.25 0.294-1.082 1.21-0.272 0.298-0.698 0.768-0.944 1.040s-0.454 0.502-0.464 0.512c-0.013 0.013-0.221 0.24-0.714 0.784-0.032 0.035-0.198 0.218-0.368 0.41l-0.31 0.346-0.077-0.090c-0.042-0.051-0.208-0.234-0.368-0.41-0.861-0.941-0.989-1.082-1.299-1.424-0.15-0.166-0.422-0.467-0.608-0.672s-0.451-0.499-0.592-0.653c-0.141-0.157-0.298-0.33-0.349-0.384-0.304-0.326-0.541-0.598-0.627-0.717-0.17-0.234-0.32-0.57-0.403-0.893-0.064-0.259-0.074-0.362-0.064-0.678 0.019-0.534 0.134-0.915 0.41-1.338 0.346-0.531 0.822-0.877 1.51-1.098 0.314-0.099 0.893-0.099 1.293 0z"></path>
</svg>
