<!-- Generated by IcoMoon.io -->
<svg version="1.1" xmlns="http://www.w3.org/2000/svg" width="32" height="32" viewBox="0 0 32 32">
<title>orange_experts_orange_business_consultant</title>
<path fill="#ff7900" d="M15.52 3.21c-0.010 0.010-0.102 0.026-0.208 0.035-0.794 0.086-1.606 0.381-2.304 0.842-0.675 0.445-1.158 0.928-1.597 1.6-1.133 1.731-1.168 4.029-0.093 5.77 0.858 1.386 2.189 2.278 3.818 2.56 0.115 0.019 0.429 0.042 0.701 0.051 1.53 0.045 2.947-0.522 4.016-1.603 0.454-0.458 0.739-0.858 1.027-1.44 0.25-0.512 0.39-0.957 0.512-1.648 0.032-0.192 0.042-1.027 0.013-1.302-0.208-2.016-1.542-3.76-3.44-4.502-0.624-0.243-1.13-0.339-1.869-0.358-0.31-0.010-0.57-0.010-0.576-0.003z"></path>
<path fill="#ff7900" d="M11.066 13.725c-1.696 1.034-2.781 2.704-3.050 4.707-0.064 0.47-0.067 7.597-0.003 7.952 0.106 0.595 0.358 1.091 0.784 1.53 0.346 0.362 0.765 0.611 1.302 0.781l0.285 0.090 13.616 0.016-0.003-5.014c-0.003-4.426-0.013-5.293-0.070-5.562-0.010-0.035-0.026-0.128-0.038-0.208-0.077-0.48-0.307-1.155-0.576-1.696-0.554-1.101-1.51-2.106-2.573-2.698l-0.144-0.077-0.202 0.173c-0.899 0.762-1.923 1.264-3.050 1.494-0.57 0.118-0.835 0.141-1.488 0.131-1.066-0.019-1.952-0.234-2.88-0.701-0.518-0.262-0.877-0.496-1.306-0.851l-0.304-0.253-0.301 0.186zM16.643 16.538c0 0.029 0.006 0.083 0.013 0.118 0.003 0.035 0.019 0.144 0.029 0.24 0.013 0.096 0.029 0.234 0.038 0.304 0.122 0.902 0.413 3.142 0.464 3.584 0.016 0.141 0.038 0.291 0.045 0.336s0.058 0.426 0.112 0.848c0.054 0.422 0.106 0.81 0.112 0.864 0.010 0.051 0.029 0.218 0.048 0.368 0.016 0.15 0.038 0.301 0.045 0.339 0.054 0.278 0.061 0.262-0.413 0.88-0.246 0.32-0.547 0.714-0.669 0.874s-0.282 0.365-0.355 0.454l-0.134 0.166-0.8-1.043-0.8-1.040 0.026-0.147c0.010-0.080 0.029-0.221 0.042-0.307 0.019-0.163 0.195-1.472 0.227-1.69 0.010-0.064 0.022-0.173 0.032-0.24 0.019-0.15 0.042-0.307 0.064-0.47 0.010-0.070 0.045-0.346 0.080-0.608 0.035-0.266 0.070-0.531 0.080-0.592 0.032-0.214 0.269-1.968 0.403-3.014l0.035-0.278h0.637c0.576 0 0.637 0.006 0.64 0.054z"></path>
</svg>
