<!-- Generated by IcoMoon.io -->
<svg version="1.1" xmlns="http://www.w3.org/2000/svg" width="32" height="32" viewBox="0 0 32 32">
<title>orange_experts_recycle</title>
<path fill="#ff7900" d="M12.928 5.238c-0.64 0.099-1.19 0.371-1.638 0.803-0.243 0.234-0.355 0.39-0.826 1.174-0.179 0.298-0.403 0.666-0.496 0.816s-0.336 0.554-0.544 0.896c-0.432 0.714-0.771 1.27-0.947 1.558l-0.122 0.195 0.15 0.090c0.17 0.096 0.838 0.49 1.574 0.925 0.272 0.163 0.742 0.438 1.040 0.614 0.301 0.176 0.794 0.47 1.101 0.65 0.438 0.259 0.56 0.32 0.582 0.285 0.016-0.026 0.544-0.902 1.171-1.949 0.624-1.046 1.171-1.955 1.21-2.016 0.141-0.218 2.416-4.029 2.416-4.048s-4.547-0.013-4.672 0.006z"></path>
<path fill="#ff7900" d="M19.248 5.251c-0.086 0.019-0.269 0.086-0.397 0.15-0.381 0.186-0.531 0.362-1.034 1.206-0.24 0.403-0.605 1.014-0.806 1.357-0.205 0.342-0.371 0.64-0.371 0.662s0.128 0.253 0.285 0.515c0.864 1.446 1.411 2.374 1.411 2.4-0.003 0.013-0.093 0.077-0.202 0.141-0.586 0.336-1.165 0.685-1.206 0.723-0.035 0.032-0.038 0.042-0.003 0.042 0.038 0 1.805 0.576 4.771 1.558 0.928 0.307 1.046 0.323 1.264 0.157 0.16-0.125 0.224-0.285 0.317-0.803 0.045-0.246 0.147-0.81 0.227-1.248 0.083-0.442 0.16-0.874 0.176-0.96 0.029-0.179 0.093-0.528 0.285-1.568 0.070-0.387 0.138-0.746 0.144-0.797 0.010-0.051 0.032-0.166 0.048-0.256 0.019-0.090 0.042-0.218 0.051-0.288 0.010-0.067 0.026-0.134 0.035-0.15s0.010-0.029 0-0.029c-0.010 0-0.342 0.195-0.742 0.432l-0.73 0.432-0.336-0.57c-0.186-0.31-0.592-0.992-0.899-1.51-0.435-0.733-0.602-0.989-0.752-1.139-0.202-0.205-0.483-0.365-0.768-0.442-0.195-0.051-0.55-0.058-0.768-0.016z"></path>
<path fill="#ff7900" d="M8.080 13.971c-0.352 0.131-1.245 0.464-1.984 0.739-1.696 0.63-2.726 1.014-2.848 1.062-0.106 0.042-0.163 0.006 1.024 0.64 0.176 0.096 0.333 0.182 0.349 0.198 0.016 0.013-0.080 0.224-0.214 0.467-0.301 0.554-1.216 2.243-1.331 2.458-0.282 0.522-0.298 1.088-0.042 1.616 0.109 0.221 0.397 0.528 0.618 0.662 0.323 0.192 0.355 0.195 2.224 0.198l1.699 0.003 0.41-0.758c0.227-0.419 0.435-0.806 0.464-0.858 0.029-0.054 0.115-0.211 0.192-0.352 0.179-0.333 0.518-0.957 0.528-0.966 0.003-0.006 0.336 0.17 0.736 0.39 0.403 0.218 0.739 0.39 0.746 0.384 0.006-0.003-0.013-0.122-0.045-0.259-0.029-0.141-0.064-0.304-0.077-0.365-0.038-0.182-0.384-1.734-0.416-1.872-0.061-0.262-0.166-0.736-0.432-1.936-0.15-0.678-0.298-1.286-0.326-1.354-0.090-0.205-0.314-0.346-0.554-0.339-0.045 0-0.368 0.109-0.72 0.24z"></path>
<path fill="#ff7900" d="M26.128 15.098c-0.122 0.067-0.534 0.291-0.912 0.499-0.803 0.442-0.758 0.416-1.856 1.018-0.467 0.256-0.899 0.493-0.96 0.528s-0.208 0.115-0.326 0.182c-0.205 0.115-0.214 0.125-0.173 0.189 0.045 0.070 0.525 0.88 1.747 2.95 0.374 0.634 1.165 1.965 1.754 2.96s1.091 1.846 1.117 1.894c0.026 0.051 0.058 0.090 0.067 0.090 0.013 0 0.179-0.272 0.374-0.602 0.352-0.602 1.165-1.971 1.664-2.806 0.474-0.794 0.56-1.034 0.576-1.664 0.013-0.362 0.003-0.454-0.064-0.717-0.045-0.166-0.118-0.39-0.17-0.496-0.074-0.157-0.819-1.354-1.494-2.403-0.182-0.285-0.387-0.605-0.483-0.758-0.186-0.301-0.627-0.986-0.63-0.986s-0.106 0.058-0.23 0.122z"></path>
<path fill="#ff7900" d="M20.461 21.373c-0.211 0.186-0.736 0.65-1.168 1.027-0.429 0.378-0.966 0.851-1.197 1.053-0.227 0.202-0.675 0.592-0.992 0.864-0.314 0.275-0.634 0.557-0.704 0.627-0.211 0.211-0.25 0.47-0.106 0.72 0.035 0.061 0.378 0.381 0.758 0.714 0.381 0.33 0.736 0.637 0.787 0.688 0.054 0.048 0.211 0.186 0.352 0.31 0.141 0.122 0.262 0.23 0.272 0.24s0.125 0.109 0.256 0.224c0.208 0.182 0.406 0.355 0.525 0.464 0.019 0.019 0.202 0.179 0.403 0.355 0.202 0.179 0.557 0.49 0.784 0.691l0.416 0.368 0.010-0.89 0.006-0.89 1.85-0.010c1.814-0.010 1.85-0.010 2.032-0.080 0.966-0.365 1.389-1.45 0.922-2.374-0.051-0.102-0.352-0.653-0.669-1.222-0.314-0.57-0.621-1.126-0.682-1.238l-0.109-0.198h-3.344l-0.006-0.893-0.010-0.89-0.387 0.339z"></path>
<path fill="#ff7900" d="M4.17 22.858c0.006 0.022 0.499 0.845 1.091 1.824 0.592 0.982 1.075 1.792 1.075 1.798 0 0.051 0.259 0.403 0.422 0.579 0.403 0.429 0.896 0.701 1.507 0.829 0.182 0.042 0.675 0.048 2.864 0.048h2.646l-0.003-2.554v-2.55l-4.81-0.010c-3.894-0.006-4.806 0-4.794 0.035z"></path>
</svg>
