<!-- Generated by IcoMoon.io -->
<svg version="1.1" xmlns="http://www.w3.org/2000/svg" width="32" height="32" viewBox="0 0 32 32">
<title>orange_experts_repair</title>
<path fill="#ff7900" d="M8.864 4.848c-0.358 0.051-0.614 0.106-0.851 0.179l-0.192 0.061 1.61 1.606c1.155 1.158 1.629 1.648 1.677 1.75 0.096 0.205 0.112 0.41 0.045 0.614-0.054 0.16-0.147 0.262-1.354 1.475-0.893 0.893-1.344 1.325-1.443 1.376-0.214 0.109-0.541 0.102-0.739-0.016-0.080-0.045-0.851-0.79-1.725-1.667-0.87-0.87-1.59-1.578-1.603-1.571-0.042 0.026-0.134 0.403-0.208 0.832-0.061 0.349-0.070 0.509-0.064 0.992 0.010 0.621 0.016 0.675 0.118 1.136 0.17 0.784 0.541 1.565 1.056 2.24 0.275 0.362 0.851 0.896 1.245 1.162 0.758 0.506 1.45 0.778 2.333 0.918 0.531 0.086 1.408 0.064 1.92-0.045l0.368-0.077 6.192 6.189c3.405 3.405 6.256 6.234 6.336 6.288 1.174 0.79 2.678 0.643 3.635-0.358 0.499-0.525 0.758-1.152 0.778-1.878 0.016-0.576-0.179-1.206-0.522-1.686-0.064-0.090-2.893-2.938-6.288-6.336l-6.176-6.176 0.051-0.208c0.176-0.752 0.173-1.741-0.006-2.512-0.176-0.774-0.614-1.674-1.098-2.256-0.877-1.062-2.064-1.76-3.414-2.003-0.378-0.067-1.318-0.083-1.68-0.029z"></path>
</svg>
