<!-- Generated by IcoMoon.io -->
<svg version="1.1" xmlns="http://www.w3.org/2000/svg" width="32" height="32" viewBox="0 0 32 32">
<title>Orange-Guest</title>
<path fill="#ff7900" d="M14.938 2.448c-0.179 0.067-0.339 0.198-0.435 0.365l-0.086 0.147v3.68l0.086 0.15c0.112 0.189 0.31 0.333 0.518 0.378 0.106 0.026 0.483 0.035 1.091 0.026 0.899-0.010 0.931-0.013 1.056-0.083 0.070-0.042 0.173-0.125 0.23-0.186 0.202-0.227 0.202-0.227 0.202-2.122 0-1.082-0.013-1.76-0.032-1.834-0.051-0.179-0.221-0.381-0.4-0.47l-0.157-0.083-0.979-0.006c-0.768-0.006-1.002 0.003-1.094 0.038z"></path>
<path fill="#ff7900" d="M9.126 4.848c-0.794 0.173-1.453 0.717-1.747 1.446-0.186 0.451-0.173-0.266-0.173 10.906 0 8.966 0.006 10.301 0.048 10.493 0.15 0.717 0.634 1.338 1.29 1.658 0.522 0.253-0.182 0.23 7.344 0.243 6.067 0.006 6.746 0.003 6.976-0.045 0.995-0.198 1.731-0.966 1.901-1.981 0.029-0.17 0.035-2.739 0.029-10.512-0.010-9.824-0.013-10.298-0.067-10.48-0.086-0.285-0.272-0.646-0.435-0.845-0.336-0.419-0.656-0.64-1.219-0.838l-0.208-0.074-4.458-0.022-0.013 0.986c-0.013 0.973-0.013 0.989-0.096 1.184-0.166 0.394-0.445 0.698-0.803 0.87-0.323 0.154-0.477 0.17-1.622 0.157-0.986-0.013-1.050-0.019-1.213-0.086-0.538-0.221-0.915-0.656-1.024-1.181-0.019-0.099-0.035-0.531-0.035-1.046v-0.88l-2.134 0.003c-1.683 0-2.179 0.013-2.339 0.045zM21.891 12.829c0.576 0.096 1.101 0.592 1.261 1.19 0.070 0.259 0.070 12.502 0 12.762-0.109 0.419-0.378 0.778-0.749 0.995-0.41 0.24 0.067 0.224-6.403 0.224-4.928 0-5.834-0.006-5.981-0.048-0.573-0.15-1.021-0.598-1.171-1.171-0.070-0.259-0.070-12.502 0-12.762 0.15-0.57 0.592-1.014 1.168-1.174 0.112-0.029 1.411-0.038 5.92-0.042 3.363-0.003 5.85 0.010 5.955 0.026z"></path>
<path fill="#ff7900" d="M15.898 14.582c-0.048 0.102-0.214 0.451-0.371 0.778-0.419 0.864-1.014 2.106-1.21 2.518-0.096 0.198-0.189 0.362-0.208 0.362-0.051 0-2.099 0.342-2.221 0.371-0.016 0.003-0.176 0.029-0.352 0.054-0.301 0.048-1.254 0.208-1.36 0.23-0.109 0.022-0.403 0.061-0.422 0.054-0.086-0.022 0.035 0.102 0.512 0.522 0.294 0.262 0.614 0.55 0.71 0.637 0.099 0.090 0.234 0.214 0.304 0.275 0.070 0.064 0.438 0.39 0.816 0.726s0.746 0.662 0.813 0.723l0.125 0.109-0.55 2.205c-0.301 1.213-0.547 2.214-0.547 2.23 0 0.013 0.058-0.013 0.128-0.058s0.134-0.080 0.144-0.080c0.010 0 0.128-0.064 0.266-0.141 0.134-0.077 0.349-0.192 0.47-0.259 0.125-0.067 0.282-0.154 0.352-0.192s0.208-0.115 0.304-0.166c0.096-0.054 0.669-0.365 1.267-0.694 0.602-0.326 1.114-0.595 1.136-0.595 0.026 0 0.109 0.038 0.186 0.080 0.077 0.045 0.278 0.157 0.448 0.246s0.323 0.173 0.339 0.186c0.019 0.013 0.163 0.093 0.32 0.176 0.16 0.083 0.419 0.227 0.576 0.314 0.16 0.086 0.397 0.218 0.528 0.288s0.323 0.176 0.426 0.234c0.102 0.061 0.189 0.109 0.195 0.109s0.243 0.128 0.525 0.285c0.285 0.157 0.518 0.272 0.518 0.256 0-0.013-0.243-1.005-0.544-2.205-0.298-1.197-0.544-2.189-0.544-2.202 0-0.016 0.154-0.163 0.342-0.33 0.186-0.166 0.355-0.317 0.374-0.333 0.019-0.019 0.157-0.141 0.307-0.272s0.278-0.246 0.288-0.256c0.010-0.010 0.461-0.41 1.002-0.893 0.877-0.778 1.005-0.909 0.925-0.918-0.013 0-0.074-0.013-0.134-0.022-0.061-0.013-0.73-0.125-1.488-0.25-0.755-0.122-1.411-0.23-1.456-0.24-0.365-0.064-1.222-0.205-1.248-0.205-0.016 0-0.096-0.141-0.179-0.314-0.080-0.17-0.291-0.605-0.464-0.963-0.176-0.358-0.317-0.656-0.317-0.662 0-0.003-0.141-0.301-0.314-0.659s-0.378-0.784-0.458-0.947c-0.077-0.16-0.147-0.294-0.157-0.294s-0.058 0.083-0.102 0.182zM16.275 18.595c0.426 0.077 0.851 0.41 1.037 0.806 0.454 0.966-0.182 2.045-1.245 2.112-0.931 0.061-1.693-0.778-1.542-1.702 0.051-0.31 0.195-0.586 0.426-0.816 0.365-0.362 0.806-0.496 1.325-0.4zM14.922 21.658c0.426 0.288 0.989 0.394 1.469 0.278 0.224-0.051 0.627-0.23 0.733-0.323 0.080-0.074 0.131-0.054 0.352 0.128 0.352 0.291 0.582 0.688 0.682 1.165 0.051 0.23 0.074 1.494 0.029 1.469-0.067-0.038-0.973-0.554-1.098-0.624-0.080-0.045-0.355-0.198-0.614-0.346l-0.47-0.269-0.986 0.547c-0.541 0.301-1.050 0.582-1.123 0.627l-0.141 0.080 0.016-0.714c0.016-0.915 0.070-1.133 0.397-1.59 0.141-0.195 0.496-0.515 0.579-0.518 0.022 0 0.102 0.042 0.176 0.090z"></path>
</svg>
