<!-- Generated by IcoMoon.io -->
<svg version="1.1" xmlns="http://www.w3.org/2000/svg" width="32" height="32" viewBox="0 0 32 32">
<title>orange_experts_expert</title>
<path fill="#ff7900" d="M11.808 2.422c-0.227 0.074-0.39 0.198-0.499 0.384-0.077 0.128-0.093 0.189-0.093 0.378 0 0.211 0.019 0.269 0.298 0.944 0.163 0.397 0.336 0.797 0.381 0.89 0.298 0.611 1.152 0.605 1.437-0.006 0.141-0.304 0.122-0.397-0.278-1.366-0.403-0.97-0.47-1.072-0.752-1.178-0.163-0.064-0.381-0.083-0.493-0.045z"></path>
<path fill="#ff7900" d="M19.715 2.454c-0.243 0.086-0.384 0.262-0.576 0.73-0.522 1.258-0.547 1.328-0.547 1.475 0 0.246 0.064 0.4 0.24 0.573 0.256 0.256 0.589 0.314 0.906 0.157 0.237-0.118 0.326-0.246 0.544-0.778 0.109-0.256 0.262-0.627 0.346-0.819 0.134-0.31 0.15-0.381 0.154-0.592 0.003-0.208-0.010-0.259-0.086-0.39-0.202-0.346-0.598-0.49-0.979-0.355z"></path>
<path fill="#ff7900" d="M15.421 5.613c-0.006 0.006-0.112 0.022-0.237 0.035-0.554 0.051-1.325 0.25-1.904 0.486-2.054 0.838-3.638 2.621-4.218 4.746-0.186 0.678-0.237 1.066-0.246 1.808-0.013 0.874 0.058 1.402 0.288 2.176 0.198 0.666 0.506 1.325 0.918 1.952 0.31 0.48 0.442 0.688 0.442 0.707 0 0.010 0.051 0.096 0.112 0.192s0.112 0.182 0.112 0.189c0 0.010 0.038 0.077 0.083 0.147 0.109 0.173 0.608 1.174 0.797 1.597 0.582 1.306 1.040 2.778 1.216 3.936 0.090 0.582 0.298 0.902 0.714 1.098l0.214 0.102 2.23 0.010c2.198 0.006 2.234 0.006 2.432-0.061 0.278-0.093 0.49-0.256 0.65-0.509 0.099-0.16 0.131-0.272 0.224-0.81 0.355-2.093 1.312-4.394 2.752-6.63 0.784-1.222 1.158-2.429 1.184-3.84 0.022-1.213-0.189-2.195-0.701-3.264-0.582-1.213-1.44-2.182-2.595-2.938-0.797-0.518-1.856-0.925-2.736-1.046-0.15-0.022-0.342-0.051-0.429-0.064-0.154-0.026-1.28-0.042-1.302-0.019z"></path>
<path fill="#ff7900" d="M6.176 8.221c-0.221 0.067-0.39 0.208-0.499 0.419-0.074 0.138-0.080 0.547-0.016 0.672 0.099 0.179 0.237 0.317 0.394 0.39 0.093 0.045 0.493 0.218 0.89 0.381 0.678 0.285 0.733 0.301 0.944 0.301 0.25-0.003 0.416-0.070 0.566-0.23 0.355-0.374 0.253-1.027-0.198-1.258-0.061-0.032-0.467-0.202-0.899-0.381-0.813-0.333-0.944-0.365-1.181-0.294z"></path>
<path fill="#ff7900" d="M25.392 8.214c-0.035 0.010-0.106 0.035-0.16 0.058-0.051 0.026-0.419 0.176-0.816 0.339-0.781 0.326-0.893 0.397-1.011 0.653-0.256 0.547 0.179 1.187 0.765 1.126 0.208-0.019 1.779-0.656 1.939-0.784 0.176-0.144 0.275-0.368 0.275-0.63-0.003-0.342-0.154-0.576-0.464-0.717-0.138-0.064-0.371-0.083-0.528-0.045z"></path>
<path fill="#ff7900" d="M7.696 16.061c-0.294 0.112-1.341 0.554-1.51 0.63-0.621 0.294-0.605 1.181 0.029 1.453 0.25 0.106 0.454 0.077 0.97-0.138 0.23-0.096 0.605-0.25 0.832-0.346 0.317-0.131 0.448-0.202 0.547-0.301 0.368-0.368 0.288-0.986-0.16-1.248-0.195-0.115-0.49-0.134-0.707-0.051z"></path>
<path fill="#ff7900" d="M23.789 16.032c-0.362 0.083-0.618 0.464-0.579 0.854 0.022 0.205 0.138 0.419 0.291 0.538 0.058 0.045 0.486 0.237 0.957 0.432 0.96 0.397 1.053 0.416 1.35 0.275 0.419-0.198 0.586-0.662 0.381-1.069-0.045-0.093-0.131-0.208-0.192-0.256-0.093-0.077-1.331-0.618-1.738-0.758-0.147-0.051-0.307-0.058-0.47-0.016z"></path>
<path fill="#ff7900" d="M12.8 26.854c0 0.768 0.013 1.306 0.032 1.376 0.054 0.186 0.221 0.381 0.416 0.48 0.166 0.083 0.186 0.083 0.765 0.086s0.595 0.006 0.643 0.077c0.026 0.038 0.115 0.141 0.198 0.23 0.598 0.64 1.622 0.659 2.259 0.038 0.077-0.074 0.166-0.179 0.202-0.237l0.064-0.102 1.27-0.019 0.186-0.128c0.131-0.093 0.208-0.173 0.269-0.288l0.080-0.157 0.019-2.611h-6.403v1.254z"></path>
</svg>
