<!-- Generated by IcoMoon.io -->
<svg version="1.1" xmlns="http://www.w3.org/2000/svg" width="32" height="32" viewBox="0 0 32 32">
<title>orange_money</title>
<path fill="#ff7900" d="M27.568 9.171c-0.198 0.032-0.499 0.147-0.678 0.266-0.118 0.077-1.309 1.245-3.296 3.235l-3.114 3.114v-1.933c0-1.19-0.013-2.013-0.035-2.138-0.109-0.675-0.698-1.27-1.398-1.411-0.403-0.083-0.918 0.019-1.283 0.253-0.378 0.243-0.698 0.723-0.771 1.155-0.026 0.147-0.032 1.466-0.026 4.448l0.010 4.24 0.083 0.214c0.224 0.579 0.688 0.992 1.264 1.13 0.157 0.038 0.867 0.045 4.381 0.045 2.71 0 4.253-0.013 4.368-0.032 0.307-0.058 0.63-0.237 0.883-0.49 0.374-0.374 0.547-0.826 0.515-1.331-0.032-0.474-0.218-0.874-0.563-1.19-0.227-0.211-0.429-0.32-0.739-0.406-0.23-0.064-0.314-0.067-2.221-0.067h-1.984l3.13-3.13c1.99-1.99 3.168-3.19 3.235-3.299 0.186-0.294 0.256-0.547 0.256-0.931 0-0.266-0.016-0.381-0.074-0.55-0.182-0.525-0.586-0.931-1.114-1.117-0.186-0.064-0.627-0.102-0.829-0.074z"></path>
<path fill="#ff7900" d="M4.912 10.31c-0.474 0.090-0.989 0.496-1.21 0.954-0.486 1.018 0.086 2.218 1.181 2.48 0.15 0.038 0.576 0.045 2.17 0.048h1.981l-3.126 3.126c-1.981 1.984-3.168 3.194-3.235 3.302-0.237 0.371-0.33 0.915-0.227 1.315 0.25 0.986 1.206 1.568 2.154 1.312 0.147-0.038 0.355-0.125 0.461-0.189 0.147-0.090 0.966-0.89 3.328-3.251l3.133-3.133 0.003 1.965c0 1.082 0.010 2.010 0.016 2.064 0.058 0.355 0.234 0.694 0.502 0.97 0.314 0.32 0.694 0.483 1.174 0.502 0.534 0.022 0.979-0.163 1.347-0.55 0.211-0.227 0.384-0.563 0.442-0.858 0.029-0.144 0.035-1.277 0.029-4.448l-0.010-4.256-0.083-0.214c-0.224-0.579-0.672-0.979-1.261-1.13-0.166-0.042-0.726-0.048-4.4-0.045-2.496 0.003-4.272 0.016-4.368 0.035z"></path>
</svg>
