<!-- Generated by IcoMoon.io -->
<svg version="1.1" xmlns="http://www.w3.org/2000/svg" width="32" height="32" viewBox="0 0 32 32">
<title>orange_messenger</title>
<path fill="#ff7900" d="M3.21 12.614c0.006 8.17 0.010 8.627 0.064 8.803 0.298 0.97 1.062 1.632 2.038 1.766 0.045 0.006 0.848 0.013 1.786 0.013l1.702 0.003v4.8l4.8-4.8h15.2l-0.003-8.538c-0.003-9.347 0.010-8.726-0.189-9.197-0.285-0.666-0.819-1.139-1.568-1.382l-0.208-0.067-23.632-0.016 0.010 8.614zM23.453 8.848c0.563 0.198 0.726 0.896 0.307 1.312-0.262 0.262 0.458 0.243-7.824 0.234-7.037-0.010-7.382-0.013-7.482-0.067-0.173-0.093-0.346-0.291-0.403-0.454-0.154-0.458 0.077-0.893 0.557-1.050 0.026-0.010 3.347-0.019 7.379-0.019 6.355-0.003 7.35 0.003 7.466 0.045zM23.459 12.848c0.192 0.067 0.333 0.186 0.435 0.362 0.074 0.125 0.090 0.186 0.090 0.39 0 0.208-0.013 0.262-0.090 0.394-0.106 0.179-0.285 0.317-0.477 0.371-0.106 0.029-1.926 0.035-7.498 0.029-7.146-0.010-7.363-0.013-7.472-0.070-0.061-0.032-0.157-0.109-0.214-0.166-0.17-0.176-0.214-0.291-0.214-0.557-0.003-0.208 0.010-0.259 0.086-0.39 0.102-0.166 0.253-0.298 0.432-0.362 0.099-0.035 1.302-0.045 7.45-0.045 6.464-0.003 7.35 0.003 7.472 0.045zM16.256 16.848c0.339 0.118 0.528 0.397 0.525 0.768 0 0.186-0.016 0.25-0.090 0.378-0.102 0.173-0.25 0.298-0.426 0.362-0.099 0.035-0.816 0.042-3.837 0.045-4.182 0-3.936 0.013-4.186-0.237-0.32-0.32-0.32-0.816 0.003-1.126 0.253-0.246-0.029-0.23 4.141-0.234 3.226-0.003 3.75 0.003 3.869 0.045z"></path>
</svg>
