<!-- Generated by IcoMoon.io -->
<svg version="1.1" xmlns="http://www.w3.org/2000/svg" width="32" height="32" viewBox="0 0 32 32">
<title>orange_experts_insurance</title>
<path fill="#ff7900" d="M15.792 3.331c-0.522 0.342-1.056 0.64-1.808 1.008-2.026 0.995-4.31 1.683-6.4 1.933-0.166 0.019-0.346 0.042-0.4 0.048-0.227 0.029-1.072 0.077-1.402 0.080h-0.186l0.013 4.918c0.006 2.707 0.019 4.963 0.032 5.018 0.010 0.051 0.035 0.224 0.054 0.384 0.342 2.883 1.69 5.635 3.856 7.885 0.602 0.624 1.6 1.494 2.208 1.92 1.242 0.874 2.307 1.469 3.584 2.010 0.694 0.294 0.614 0.282 0.954 0.15 1.728-0.678 3.45-1.702 4.922-2.928 0.464-0.387 1.51-1.424 1.856-1.834 0.973-1.168 1.757-2.422 2.253-3.603 0.099-0.237 0.192-0.461 0.208-0.496 0.317-0.739 0.666-2.16 0.784-3.2 0.010-0.090 0.029-0.218 0.038-0.288s0.022-2.336 0.032-5.034l0.013-4.902-0.202-0.003c-0.39-0.003-1.13-0.045-1.386-0.077-0.051-0.010-0.182-0.022-0.288-0.032-0.307-0.029-0.986-0.138-1.504-0.243-2.31-0.461-4.758-1.421-6.682-2.627-0.192-0.118-0.352-0.218-0.352-0.214-0.003 0-0.093 0.058-0.198 0.128zM20.387 16h4.387l-0.019 0.166c-0.010 0.093-0.029 0.25-0.038 0.346-0.128 1.229-0.563 2.646-1.181 3.856-1.158 2.275-3.069 4.253-5.498 5.683-0.442 0.262-1.363 0.736-1.75 0.899l-0.272 0.118-0.010-5.536-0.006-5.533h-8.762l-0.016-0.106c-0.029-0.163-0.026-7.997 0-7.981 0.016 0.006 0.118 0.003 0.234-0.013 0.115-0.013 0.294-0.035 0.4-0.045 0.106-0.013 0.214-0.029 0.24-0.032 0.026-0.006 0.163-0.026 0.304-0.045 0.266-0.038 0.349-0.054 0.912-0.166 1.395-0.275 3.034-0.79 4.451-1.405 0.659-0.285 1.699-0.806 2.125-1.062l0.096-0.058 0.010 5.456 0.006 5.456h4.387z"></path>
</svg>
