<!-- Generated by IcoMoon.io -->
<svg version="1.1" xmlns="http://www.w3.org/2000/svg" width="32" height="32" viewBox="0 0 32 32">
<title>orange_experts_orange_startup_smartphone</title>
<path fill="#ff7900" d="M9.181 2.458c-0.538 0.141-0.982 0.598-1.133 1.162-0.070 0.259-0.070 24.502 0 24.762 0.15 0.563 0.595 1.021 1.133 1.162 0.195 0.051 0.675 0.054 6.819 0.054s6.624-0.003 6.819-0.054c0.538-0.141 0.982-0.598 1.133-1.162 0.042-0.147 0.048-1.898 0.048-12.355 0-8.771-0.010-12.23-0.035-12.352-0.125-0.602-0.656-1.13-1.245-1.242-0.109-0.019-2.528-0.032-6.749-0.029-6.112 0-6.595 0.003-6.79 0.054zM17.398 3.264c0.115 0.070 0.202 0.211 0.202 0.336s-0.086 0.266-0.202 0.336c-0.096 0.061-0.17 0.064-1.398 0.064-1.245 0-1.299-0.003-1.402-0.064-0.106-0.067-0.198-0.227-0.198-0.352 0-0.109 0.093-0.253 0.202-0.32 0.096-0.061 0.17-0.064 1.398-0.064s1.302 0.003 1.398 0.064zM22.4 15.6v10.8h-12.8v-21.6h12.8v10.8zM16.266 27.251c0.643 0.218 0.71 1.146 0.106 1.45-0.326 0.163-0.675 0.109-0.928-0.144-0.598-0.595 0.022-1.578 0.822-1.306z"></path>
<path fill="#ff7900" d="M14.352 10.448c-0.435 0.118-0.928 0.374-1.069 0.557-0.109 0.144-0.109 0.307 0.010 0.595 0.166 0.413 0.109 0.685-0.218 1.002-0.336 0.333-0.566 0.378-1.024 0.198-0.307-0.118-0.435-0.115-0.586 0.013-0.208 0.173-0.538 0.915-0.576 1.286-0.032 0.304 0.054 0.416 0.448 0.573 0.374 0.15 0.534 0.403 0.534 0.848s-0.154 0.688-0.534 0.848c-0.298 0.125-0.381 0.189-0.429 0.326-0.048 0.15-0.022 0.352 0.093 0.685 0.163 0.47 0.346 0.778 0.534 0.893 0.138 0.086 0.253 0.074 0.56-0.051 0.403-0.166 0.691-0.093 1.027 0.266 0.291 0.314 0.333 0.544 0.17 0.95-0.109 0.266-0.122 0.374-0.067 0.509 0.058 0.138 0.243 0.278 0.55 0.422 0.646 0.304 1.069 0.346 1.226 0.118 0.032-0.048 0.099-0.179 0.147-0.294 0.099-0.237 0.205-0.358 0.387-0.458 0.109-0.061 0.179-0.070 0.464-0.067 0.486 0.003 0.65 0.093 0.819 0.458 0.045 0.099 0.106 0.227 0.134 0.288 0.141 0.307 0.547 0.294 1.258-0.035 0.451-0.214 0.63-0.406 0.592-0.643-0.010-0.058-0.054-0.195-0.102-0.31-0.17-0.403-0.096-0.685 0.262-1.021 0.317-0.298 0.55-0.342 0.944-0.179 0.288 0.115 0.387 0.128 0.525 0.061 0.144-0.067 0.275-0.24 0.416-0.541 0.157-0.333 0.23-0.557 0.256-0.758 0.042-0.323-0.054-0.464-0.397-0.602-0.454-0.176-0.605-0.429-0.573-0.954 0.026-0.419 0.17-0.611 0.602-0.79 0.326-0.138 0.406-0.266 0.368-0.586-0.029-0.234-0.24-0.778-0.397-1.021-0.214-0.336-0.387-0.384-0.787-0.221s-0.659 0.112-0.976-0.189c-0.342-0.33-0.406-0.602-0.237-1.024 0.106-0.259 0.118-0.445 0.035-0.573-0.125-0.189-0.758-0.509-1.194-0.598-0.381-0.077-0.531 0.013-0.701 0.419-0.163 0.4-0.4 0.544-0.88 0.544-0.387 0-0.64-0.154-0.79-0.48-0.042-0.096-0.102-0.224-0.131-0.285-0.099-0.214-0.339-0.275-0.694-0.179zM16.448 13.005c1.043 0.202 1.843 0.982 2.058 2.006 0.064 0.301 0.051 0.829-0.026 1.133-0.243 0.954-1.030 1.702-1.987 1.885-0.483 0.090-0.906 0.054-1.382-0.115-0.605-0.221-1.171-0.736-1.424-1.309-0.195-0.442-0.25-0.717-0.23-1.197 0.029-0.829 0.451-1.571 1.155-2.032 0.531-0.346 1.235-0.49 1.837-0.371z"></path>
</svg>
