<!-- Generated by IcoMoon.io -->
<svg version="1.1" xmlns="http://www.w3.org/2000/svg" width="32" height="32" viewBox="0 0 32 32">
<title>orange_experts_tranquil</title>
<path fill="#ff7900" d="M10.112 3.242c-0.17 0.054-0.426 0.326-0.477 0.509-0.074 0.266-0.035 0.435 0.285 1.21 0.358 0.867 0.413 0.979 0.55 1.11 0.39 0.374 1.050 0.234 1.28-0.272 0.115-0.256 0.090-0.445-0.144-1.002-0.112-0.272-0.269-0.653-0.346-0.845-0.218-0.547-0.464-0.758-0.88-0.749-0.086 0.003-0.208 0.019-0.269 0.038z"></path>
<path fill="#ff7900" d="M21.28 3.267c-0.176 0.077-0.307 0.198-0.384 0.349-0.032 0.061-0.198 0.451-0.368 0.864-0.234 0.557-0.317 0.8-0.33 0.934-0.038 0.477 0.317 0.864 0.794 0.864 0.179 0 0.397-0.074 0.512-0.173 0.131-0.112 0.243-0.33 0.56-1.094 0.301-0.733 0.342-0.851 0.339-1.014-0.003-0.579-0.602-0.966-1.123-0.73z"></path>
<path fill="#ff7900" d="M15.216 7.219c-1.747 0.179-3.168 0.678-4.544 1.597-0.586 0.39-0.883 0.634-1.405 1.146-1.539 1.517-2.454 3.334-2.794 5.558-0.070 0.464-0.080 2-0.016 2.448 0.102 0.688 0.31 1.562 0.47 1.974 0.022 0.054-0.083 0.058-1.914 0.058-2.099 0-2.080 0-2.317 0.179-0.058 0.042-0.144 0.147-0.192 0.23-0.077 0.128-0.090 0.186-0.090 0.39s0.013 0.262 0.090 0.39c0.099 0.17 0.253 0.301 0.429 0.365 0.102 0.035 2.333 0.042 13.050 0.045 8.813 0 12.966-0.010 13.046-0.032 0.179-0.051 0.381-0.221 0.47-0.4 0.122-0.23 0.118-0.55-0.006-0.758-0.099-0.17-0.253-0.301-0.429-0.365-0.096-0.032-0.525-0.042-2.064-0.045h-1.942l0.048-0.154c0.054-0.163 0.23-0.784 0.253-0.886 0.195-0.902 0.24-1.354 0.224-2.304-0.010-0.874-0.067-1.357-0.24-2.080-0.714-2.995-2.829-5.475-5.68-6.653-0.826-0.342-1.491-0.515-2.592-0.675-0.16-0.022-1.68-0.045-1.856-0.029z"></path>
<path fill="#ff7900" d="M2.912 10.442c-0.157 0.051-0.426 0.33-0.474 0.49-0.096 0.323-0.029 0.602 0.202 0.829 0.147 0.147 0.221 0.186 1.008 0.506 0.739 0.304 0.87 0.349 1.030 0.346 0.32 0 0.579-0.16 0.717-0.438 0.195-0.4 0.045-0.87-0.339-1.069-0.064-0.032-0.451-0.198-0.864-0.371-0.656-0.272-0.778-0.314-0.96-0.32-0.115-0.006-0.259 0.006-0.32 0.029z"></path>
<path fill="#ff7900" d="M28.576 10.422c-0.147 0.051-1.536 0.634-1.635 0.682-0.138 0.074-0.307 0.259-0.371 0.413-0.077 0.182-0.061 0.458 0.035 0.656 0.138 0.282 0.403 0.442 0.723 0.438 0.157 0 0.288-0.045 0.931-0.307 0.954-0.394 1.005-0.419 1.149-0.582 0.278-0.32 0.262-0.774-0.048-1.082-0.099-0.102-0.208-0.176-0.291-0.202-0.134-0.038-0.403-0.048-0.493-0.016z"></path>
<path fill="#ff7900" d="M7.731 23.248c-0.323 0.115-0.515 0.403-0.515 0.768 0 0.189 0.016 0.25 0.090 0.378 0.102 0.173 0.294 0.326 0.47 0.374 0.080 0.022 2.896 0.029 8.294 0.026l8.176-0.010 0.157-0.096c0.522-0.323 0.522-1.053 0-1.376l-0.157-0.096-8.195-0.006c-6.912-0.006-8.214 0-8.32 0.038z"></path>
<path fill="#ff7900" d="M11.734 26.445c-0.176 0.064-0.33 0.195-0.429 0.365-0.077 0.128-0.090 0.186-0.090 0.39s0.013 0.262 0.090 0.39c0.099 0.17 0.253 0.301 0.429 0.365 0.179 0.064 8.352 0.064 8.531 0 0.176-0.064 0.33-0.195 0.429-0.365 0.077-0.128 0.090-0.186 0.090-0.39s-0.013-0.262-0.090-0.39c-0.048-0.083-0.134-0.189-0.192-0.23-0.246-0.189-0.013-0.179-4.515-0.179-3.366 0.003-4.154 0.010-4.253 0.045z"></path>
</svg>
