<!-- Generated by IcoMoon.io -->
<svg version="1.1" xmlns="http://www.w3.org/2000/svg" width="32" height="32" viewBox="0 0 32 32">
<title>orange_jobs</title>
<path fill="#ff7900" d="M8.429 10.947c-0.006 0.013-0.013 1.12-0.016 2.464 0 1.427-0.013 2.525-0.032 2.634-0.042 0.243-0.134 0.413-0.294 0.522-0.112 0.077-0.166 0.093-0.394 0.102-0.339 0.013-0.544-0.051-0.694-0.218-0.176-0.195-0.24-0.435-0.243-0.925l-0.003-0.294h-1.376l0.013 0.502c0.016 0.589 0.048 0.774 0.198 1.082 0.198 0.41 0.467 0.675 0.893 0.88 0.4 0.192 0.627 0.237 1.184 0.237 0.765 0.003 1.194-0.134 1.613-0.515 0.349-0.314 0.538-0.694 0.608-1.222 0.054-0.403 0.048-5.251-0.003-5.254-0.269-0.013-1.443-0.006-1.453 0.006z"></path>
<path fill="#ff7900" d="M16.285 10.938l-0.086 0.010v3.424c-0.003 1.882 0.006 3.421 0.019 3.424 0.035 0.003 1.101 0.003 1.197 0l0.086-0.003 0.010-0.31 0.010-0.307 0.090 0.141c0.25 0.39 0.813 0.608 1.542 0.592 0.314-0.006 0.426-0.022 0.611-0.090 0.694-0.246 1.197-0.883 1.37-1.744 0.102-0.502 0.077-1.299-0.058-1.782-0.173-0.614-0.592-1.152-1.088-1.389-0.33-0.16-0.493-0.198-0.842-0.202-0.608-0.003-1.12 0.198-1.443 0.563l-0.134 0.154v-1.238c0-1.155-0.003-1.235-0.054-1.238-0.262-0.006-1.165-0.010-1.229-0.003zM19.13 13.821c0.301 0.154 0.547 0.506 0.65 0.931 0.061 0.253 0.054 0.861-0.013 1.155-0.102 0.448-0.374 0.797-0.72 0.928-0.234 0.086-0.602 0.074-0.822-0.035-0.429-0.208-0.688-0.736-0.698-1.424-0.003-0.358 0.026-0.573 0.109-0.826 0.128-0.384 0.397-0.675 0.714-0.778 0.198-0.067 0.611-0.042 0.781 0.048z"></path>
<path fill="#ff7900" d="M23.648 12.698c-0.272 0.013-0.739 0.106-0.941 0.179-0.445 0.166-0.749 0.461-0.902 0.867-0.080 0.211-0.083 0.806-0.003 0.979 0.166 0.371 0.531 0.63 1.126 0.797 0.195 0.054 0.397 0.106 0.448 0.115 0.227 0.038 0.954 0.243 1.11 0.31 0.173 0.077 0.342 0.24 0.349 0.336 0.026 0.339-0.112 0.541-0.454 0.666-0.192 0.070-0.605 0.070-0.835 0.003-0.33-0.099-0.592-0.378-0.611-0.656-0.003-0.077-0.022-0.102-0.070-0.106-0.221-0.006-1.238 0-1.245 0.006s0.010 0.128 0.035 0.269c0.115 0.685 0.598 1.155 1.402 1.363 0.333 0.086 1.187 0.112 1.568 0.048 1.158-0.198 1.734-0.918 1.571-1.978-0.029-0.182-0.218-0.486-0.39-0.621-0.304-0.24-0.602-0.349-1.526-0.554-0.682-0.154-0.899-0.234-1.053-0.387-0.106-0.106-0.122-0.141-0.122-0.266 0-0.291 0.253-0.451 0.717-0.451 0.323 0 0.557 0.058 0.717 0.173 0.128 0.093 0.227 0.256 0.237 0.397 0.010 0.093-0.045 0.086 0.682 0.086 0.221 0 0.454 0 0.525 0l0.122-0.003-0.045-0.234c-0.128-0.627-0.602-1.085-1.306-1.254-0.224-0.054-0.835-0.102-1.104-0.086z"></path>
<path fill="#ff7900" d="M12.48 12.752c-1.171 0.253-1.894 1.168-1.933 2.438-0.032 1.062 0.358 1.891 1.107 2.352 0.451 0.278 0.893 0.381 1.546 0.362 0.515-0.013 0.816-0.080 1.158-0.253 0.646-0.323 1.030-0.816 1.232-1.565 0.058-0.214 0.070-0.352 0.070-0.758 0.003-0.525-0.022-0.685-0.163-1.072-0.291-0.794-0.89-1.306-1.75-1.498-0.266-0.061-1.008-0.064-1.267-0.006zM13.6 13.827c0.326 0.154 0.557 0.483 0.653 0.941 0.048 0.218 0.051 0.918 0.006 1.101-0.131 0.55-0.387 0.861-0.803 0.979-0.246 0.074-0.611 0.051-0.842-0.048-0.205-0.090-0.432-0.326-0.538-0.563-0.16-0.362-0.208-1.053-0.109-1.517 0.106-0.48 0.384-0.819 0.778-0.947 0.214-0.070 0.64-0.042 0.854 0.054z"></path>
</svg>
