<!-- Generated by IcoMoon.io -->
<svg version="1.1" xmlns="http://www.w3.org/2000/svg" width="32" height="32" viewBox="0 0 32 32">
<title>Orange_Experts_Copy_Keep</title>
<path fill="#ff7900" d="M3.2 15.094c0 10.566-0.019 9.706 0.227 10.211 0.243 0.502 0.723 0.883 1.296 1.030 0.243 0.064 0.41 0.064 12.163 0.064h11.914v-7.898c0-6.806-0.006-7.926-0.048-8.118-0.154-0.73-0.736-1.331-1.475-1.52-0.243-0.064-0.368-0.064-6.56-0.064h-6.31l-0.070-0.090c-0.038-0.048-0.579-0.765-1.197-1.59l-1.13-1.504-8.81-0.016v9.494zM17.306 12.048c0.627 0.118 1.104 0.374 1.546 0.822 0.358 0.368 0.602 0.79 0.736 1.29 0.061 0.221 0.070 0.365 0.083 1.046l0.016 0.794h0.198c0.387 0 0.646 0.131 0.81 0.41l0.090 0.15 0.010 3.318 0.006 3.322h-3.658c-4.115 0-3.85 0.016-4.102-0.24-0.253-0.253-0.24-0.035-0.24-3.702v-3.258h1.12v-0.666c0.003-0.733 0.010-0.81 0.096-1.165 0.195-0.8 0.758-1.491 1.52-1.872 0.531-0.266 1.194-0.358 1.77-0.25z"></path>
<path fill="#ff7900" d="M16.464 13.318c-0.416 0.077-0.899 0.448-1.082 0.826-0.157 0.323-0.182 0.502-0.182 1.206v0.65h3.203l-0.003-0.669c-0.003-0.432-0.019-0.726-0.045-0.826-0.080-0.294-0.214-0.531-0.432-0.749-0.397-0.394-0.899-0.547-1.459-0.438z"></path>
<path fill="#ff7900" d="M16.541 17.629c-0.509 0.106-0.909 0.586-0.941 1.123-0.019 0.378 0.243 0.893 0.534 1.043 0.090 0.045 0.093 0.054 0.074 0.23-0.013 0.099-0.026 0.205-0.032 0.23s-0.022 0.128-0.032 0.224c-0.013 0.096-0.048 0.378-0.083 0.621-0.032 0.246-0.061 0.458-0.061 0.474 0 0.013 0.362 0.026 0.803 0.026h0.803l-0.019-0.122c-0.010-0.064-0.032-0.24-0.051-0.39s-0.042-0.307-0.048-0.352c-0.006-0.045-0.029-0.202-0.045-0.352-0.019-0.15-0.042-0.33-0.051-0.403-0.019-0.125-0.013-0.134 0.086-0.195 0.128-0.074 0.31-0.291 0.403-0.474 0.291-0.582 0.022-1.312-0.592-1.603-0.192-0.090-0.534-0.128-0.749-0.080z"></path>
</svg>
