<!-- Generated by IcoMoon.io -->
<svg version="1.1" xmlns="http://www.w3.org/2000/svg" width="32" height="32" viewBox="0 0 32 32">
<title>orange_radio</title>
<path fill="#ff7900" d="M4.448 7.222c-0.512 0.090-0.989 0.333-1.344 0.682-0.259 0.259-0.515 0.694-0.63 1.072-0.054 0.182-0.058 0.563-0.064 6.918-0.010 6.589-0.010 6.733 0.051 7.014 0.211 0.966 0.992 1.709 1.955 1.856 0.179 0.029 3.094 0.035 11.728 0.029 10.96-0.010 11.498-0.013 11.68-0.067 0.842-0.253 1.462-0.883 1.702-1.725 0.054-0.192 0.058-0.557 0.058-6.986 0-6.595-0.003-6.79-0.061-7.008-0.25-0.902-0.938-1.565-1.83-1.754-0.192-0.042-1.664-0.048-11.693-0.048-6.31 0-11.507 0.010-11.552 0.016zM5.955 10.515c0.189 0.131 0.269 0.278 0.269 0.509 0 0.246-0.086 0.416-0.275 0.544-0.122 0.083-0.17 0.096-0.355 0.096s-0.23-0.013-0.349-0.096c-0.195-0.138-0.291-0.336-0.272-0.563 0.019-0.285 0.173-0.48 0.451-0.579 0.131-0.048 0.403 0 0.531 0.090zM8.525 10.518c0.352 0.25 0.349 0.803-0.006 1.043-0.336 0.227-0.797 0.090-0.954-0.285-0.131-0.314 0.058-0.73 0.371-0.838 0.179-0.058 0.442-0.022 0.589 0.080zM11.075 10.515c0.189 0.131 0.269 0.278 0.269 0.509 0 0.243-0.083 0.413-0.269 0.544-0.118 0.083-0.163 0.096-0.355 0.096s-0.237-0.013-0.355-0.096c-0.195-0.138-0.291-0.336-0.272-0.566 0.016-0.221 0.109-0.384 0.272-0.49 0.157-0.096 0.211-0.112 0.416-0.096 0.118 0.010 0.208 0.038 0.294 0.099zM13.587 10.486c0.070 0.035 0.166 0.125 0.221 0.198 0.080 0.115 0.096 0.166 0.096 0.333 0 0.25-0.083 0.419-0.269 0.55-0.118 0.083-0.163 0.096-0.355 0.096s-0.237-0.013-0.355-0.096c-0.198-0.141-0.294-0.336-0.275-0.566 0.010-0.106 0.045-0.23 0.083-0.291 0.067-0.109 0.256-0.256 0.374-0.288 0.115-0.032 0.355 0 0.48 0.064zM16.195 10.515c0.189 0.131 0.269 0.278 0.269 0.509 0 0.246-0.086 0.416-0.275 0.544-0.122 0.083-0.17 0.096-0.355 0.096s-0.23-0.013-0.349-0.096c-0.195-0.138-0.291-0.336-0.272-0.563 0.019-0.285 0.173-0.48 0.451-0.579 0.131-0.048 0.403 0 0.531 0.090zM22.4 12.4v2h-0.8v-1.6h-0.8v1.6h-0.8v-1.6h-0.8v1.6h-0.8v-4h4v2zM27.2 12.4v2h-0.8v-1.6h-0.8v1.6h-0.8v-1.6h-0.8v1.6h-0.8v-4h4v2zM5.965 13.078c0.266 0.189 0.346 0.589 0.173 0.861-0.131 0.205-0.285 0.285-0.544 0.285-0.186 0-0.23-0.013-0.349-0.096-0.333-0.237-0.378-0.678-0.093-0.973 0.15-0.154 0.275-0.198 0.509-0.179 0.125 0.010 0.211 0.038 0.304 0.102zM8.515 13.075c0.195 0.134 0.269 0.278 0.269 0.528 0 0.179-0.013 0.23-0.093 0.342-0.166 0.24-0.435 0.339-0.714 0.266-0.163-0.045-0.371-0.243-0.426-0.406-0.051-0.15-0.022-0.403 0.064-0.538 0.064-0.106 0.256-0.253 0.371-0.285 0.141-0.042 0.403 0.006 0.528 0.093zM11.053 13.053c0.058 0.038 0.147 0.128 0.198 0.198 0.118 0.173 0.131 0.454 0.026 0.653-0.141 0.269-0.518 0.406-0.794 0.288-0.157-0.067-0.323-0.243-0.374-0.39-0.077-0.234 0.048-0.614 0.234-0.72 0.24-0.138 0.515-0.147 0.71-0.029zM13.613 13.053c0.058 0.038 0.147 0.128 0.198 0.198 0.118 0.17 0.131 0.454 0.029 0.65-0.192 0.362-0.691 0.445-0.989 0.163-0.195-0.182-0.253-0.397-0.179-0.659 0.042-0.147 0.24-0.355 0.387-0.406 0.154-0.051 0.426-0.022 0.554 0.054zM16.195 13.075c0.189 0.131 0.269 0.278 0.269 0.509 0 0.243-0.086 0.416-0.266 0.538-0.448 0.304-1.040-0.045-0.989-0.579 0.022-0.205 0.109-0.355 0.272-0.464 0.16-0.102 0.211-0.118 0.419-0.102 0.118 0.010 0.208 0.038 0.294 0.099zM5.907 15.606c0.070 0.035 0.166 0.125 0.221 0.198 0.080 0.115 0.096 0.166 0.096 0.333 0 0.246-0.080 0.41-0.262 0.541-0.285 0.208-0.685 0.131-0.89-0.17-0.083-0.122-0.096-0.17-0.096-0.349 0-0.16 0.016-0.234 0.074-0.323 0.070-0.115 0.256-0.262 0.378-0.294 0.115-0.032 0.355 0 0.48 0.064zM8.467 15.606c0.070 0.035 0.166 0.125 0.221 0.198 0.080 0.115 0.096 0.166 0.096 0.333 0 0.25-0.083 0.419-0.269 0.55-0.118 0.083-0.163 0.096-0.349 0.096-0.256 0-0.413-0.080-0.544-0.282-0.112-0.166-0.122-0.454-0.019-0.646 0.067-0.128 0.259-0.288 0.381-0.317 0.125-0.029 0.362 0.003 0.483 0.067zM11.085 15.638c0.17 0.122 0.259 0.301 0.259 0.522 0 0.227-0.090 0.403-0.275 0.528-0.122 0.083-0.17 0.096-0.355 0.096s-0.23-0.013-0.349-0.096c-0.33-0.234-0.378-0.691-0.096-0.973 0.147-0.147 0.288-0.195 0.512-0.179 0.128 0.010 0.211 0.038 0.304 0.102zM13.635 15.635c0.189 0.131 0.269 0.278 0.269 0.509 0 0.365-0.224 0.618-0.579 0.643-0.154 0.013-0.214 0-0.333-0.061-0.381-0.198-0.464-0.71-0.166-1.008 0.067-0.067 0.17-0.138 0.23-0.16 0.176-0.058 0.435-0.026 0.579 0.077zM16.195 15.635c0.189 0.131 0.269 0.278 0.269 0.509 0 0.243-0.083 0.413-0.269 0.544-0.118 0.083-0.163 0.096-0.349 0.096-0.256 0-0.413-0.080-0.544-0.282-0.112-0.166-0.122-0.454-0.019-0.646 0.067-0.128 0.259-0.288 0.381-0.317 0.154-0.035 0.406 0.010 0.531 0.096zM25.606 17.824c0.886 0.224 1.52 0.97 1.584 1.869 0.067 0.963-0.512 1.808-1.459 2.134-0.256 0.090-0.733 0.112-1.027 0.048-0.243-0.051-0.691-0.25-0.832-0.371-0.525-0.442-0.79-0.944-0.822-1.552-0.077-1.386 1.222-2.464 2.557-2.128zM5.965 18.198c0.266 0.189 0.346 0.589 0.173 0.861-0.131 0.205-0.285 0.285-0.544 0.285-0.186 0-0.23-0.013-0.349-0.096-0.195-0.138-0.291-0.336-0.272-0.566 0.016-0.221 0.109-0.384 0.272-0.49 0.157-0.099 0.211-0.112 0.416-0.096 0.128 0.010 0.211 0.038 0.304 0.102zM8.362 18.115c0.163 0.045 0.355 0.246 0.406 0.429 0.077 0.275-0.038 0.576-0.278 0.723-0.096 0.061-0.166 0.077-0.336 0.077-0.186 0-0.23-0.013-0.349-0.096-0.33-0.234-0.378-0.678-0.099-0.966 0.179-0.182 0.4-0.24 0.656-0.166zM11.072 18.189c0.189 0.125 0.272 0.285 0.272 0.531 0 0.25-0.083 0.406-0.282 0.538-0.109 0.070-0.166 0.086-0.339 0.086-0.253 0-0.41-0.080-0.541-0.282-0.112-0.166-0.122-0.454-0.019-0.646 0.067-0.128 0.259-0.288 0.381-0.317 0.147-0.035 0.41 0.010 0.528 0.090zM13.485 18.118c0.493 0.15 0.579 0.848 0.138 1.139-0.109 0.074-0.166 0.086-0.346 0.086-0.189 0-0.234-0.013-0.352-0.096-0.33-0.234-0.378-0.691-0.096-0.973 0.179-0.179 0.4-0.234 0.656-0.157zM16.045 18.118c0.272 0.083 0.47 0.41 0.422 0.704s-0.278 0.502-0.589 0.525c-0.576 0.045-0.896-0.65-0.493-1.066 0.182-0.186 0.4-0.24 0.659-0.163zM5.965 20.758c0.266 0.189 0.346 0.589 0.173 0.861-0.131 0.205-0.285 0.285-0.544 0.285-0.186 0-0.23-0.013-0.349-0.096-0.33-0.234-0.378-0.691-0.096-0.973 0.147-0.147 0.288-0.195 0.512-0.179 0.128 0.010 0.211 0.038 0.304 0.102zM8.515 20.755c0.189 0.131 0.269 0.278 0.269 0.509 0 0.243-0.083 0.413-0.269 0.544-0.118 0.083-0.163 0.096-0.349 0.096-0.17 0-0.24-0.016-0.336-0.077-0.349-0.214-0.41-0.704-0.125-0.989 0.067-0.067 0.17-0.138 0.23-0.16 0.176-0.058 0.435-0.026 0.579 0.077zM11.075 20.755c0.189 0.131 0.269 0.278 0.269 0.509 0 0.243-0.083 0.413-0.269 0.544-0.118 0.083-0.163 0.096-0.355 0.096s-0.237-0.013-0.355-0.096c-0.195-0.138-0.291-0.336-0.272-0.563 0.019-0.285 0.173-0.48 0.451-0.579 0.131-0.048 0.403 0 0.531 0.090zM13.587 20.726c0.070 0.035 0.166 0.125 0.221 0.198 0.080 0.115 0.096 0.166 0.096 0.333 0 0.25-0.083 0.419-0.269 0.55-0.118 0.083-0.163 0.096-0.355 0.096s-0.237-0.013-0.355-0.096c-0.198-0.141-0.294-0.336-0.275-0.566 0.010-0.106 0.045-0.23 0.083-0.291 0.067-0.109 0.256-0.256 0.374-0.288 0.115-0.032 0.355 0 0.48 0.064zM16.038 20.678c0.176 0.051 0.358 0.237 0.406 0.419 0.115 0.403-0.147 0.778-0.563 0.81-0.24 0.019-0.432-0.074-0.57-0.278-0.080-0.118-0.096-0.173-0.096-0.333 0-0.243 0.077-0.406 0.253-0.525 0.195-0.134 0.346-0.16 0.57-0.093z"></path>
</svg>
