<!-- Generated by IcoMoon.io -->
<svg version="1.1" xmlns="http://www.w3.org/2000/svg" width="32" height="32" viewBox="0 0 32 32">
<title>orange_cash</title>
<path fill="#ff7900" d="M3.606 2.448c-0.394 0.109-0.771 0.39-0.979 0.733-0.058 0.096-0.134 0.282-0.166 0.41-0.061 0.224-0.061 0.56-0.061 12.422 0 10.458 0.006 12.221 0.048 12.368 0.15 0.573 0.598 1.021 1.171 1.171 0.259 0.070 13.302 0.070 13.562 0 0.576-0.15 1.018-0.595 1.171-1.171 0.042-0.147 0.048-1.872 0.048-12.355 0-8.787-0.010-12.23-0.035-12.352-0.125-0.602-0.64-1.114-1.238-1.238-0.269-0.058-13.315-0.045-13.52 0.013zM11.798 3.264c0.115 0.070 0.202 0.211 0.202 0.336s-0.086 0.266-0.202 0.336c-0.096 0.061-0.17 0.064-1.392 0.064-1.424 0-1.421 0-1.542-0.202-0.115-0.189-0.058-0.416 0.138-0.534 0.096-0.061 0.17-0.064 1.398-0.064s1.302 0.003 1.398 0.064zM16.8 15.6v10.8h-12.8v-21.6h12.8v10.8zM10.637 27.245c0.198 0.061 0.352 0.179 0.458 0.365 0.077 0.128 0.090 0.186 0.090 0.39s-0.013 0.262-0.086 0.387c-0.166 0.282-0.454 0.432-0.771 0.4-0.221-0.022-0.342-0.080-0.502-0.243-0.298-0.304-0.291-0.8 0.016-1.104 0.218-0.218 0.496-0.285 0.797-0.195z"></path>
<path fill="#ff7900" d="M10.534 11.251c-1.45 0.208-2.467 1.248-2.886 2.947l-0.035 0.138h-0.336c-0.467 0-0.637 0.080-0.79 0.368-0.051 0.096-0.067 0.186-0.070 0.355 0 0.195 0.013 0.246 0.096 0.381 0.141 0.227 0.304 0.301 0.666 0.304h0.278v0.698l-0.314 0.013c-0.282 0.010-0.33 0.019-0.448 0.099-0.16 0.106-0.262 0.291-0.285 0.522-0.022 0.221 0.090 0.47 0.269 0.589 0.109 0.070 0.163 0.080 0.499 0.090l0.374 0.013 0.019 0.086c0.25 1.133 0.96 2.122 1.853 2.57 0.49 0.25 0.957 0.349 1.68 0.362 0.57 0.013 0.902-0.022 1.302-0.125 0.822-0.214 1.459-0.762 1.866-1.6 0.179-0.371 0.163-0.614-0.058-0.858-0.333-0.368-0.89-0.387-1.2-0.042-0.032 0.035-0.102 0.157-0.157 0.272-0.342 0.726-0.749 0.966-1.642 0.966-0.918-0.003-1.533-0.307-1.91-0.957-0.093-0.157-0.282-0.605-0.282-0.669 0-0.006 0.643-0.013 1.434-0.013 0.893 0 1.475-0.013 1.549-0.035 0.49-0.134 0.547-0.986 0.080-1.21-0.134-0.064-0.179-0.067-1.664-0.067h-1.526v-0.704h1.779c1.264 0 1.818-0.010 1.907-0.038 0.154-0.045 0.362-0.262 0.406-0.429 0.106-0.378-0.070-0.781-0.39-0.899-0.074-0.026-0.589-0.038-1.808-0.038l-1.706-0.003 0.019-0.074c0.067-0.221 0.246-0.611 0.358-0.778 0.406-0.595 0.915-0.87 1.658-0.89 0.912-0.026 1.354 0.234 1.728 1.011 0.125 0.262 0.202 0.358 0.368 0.474 0.154 0.109 0.528 0.112 0.72 0.010 0.301-0.163 0.413-0.346 0.413-0.666 0-0.192-0.016-0.259-0.115-0.474-0.429-0.909-1.094-1.437-2.086-1.661-0.368-0.083-1.178-0.102-1.613-0.038z"></path>
<path fill="#ff7900" d="M27.229 9.645c-0.301 0.106-0.461 0.278-0.486 0.522-0.022 0.192 0.032 0.371 0.294 0.947 0.669 1.475 0.989 2.64 1.11 4.038 0.045 0.506 0.026 1.712-0.035 2.064-0.006 0.045-0.029 0.195-0.048 0.336-0.144 1.021-0.518 2.25-1.008 3.296-0.294 0.627-0.355 0.838-0.298 1.062 0.080 0.333 0.573 0.582 0.874 0.442 0.176-0.086 0.333-0.307 0.63-0.902 0.726-1.45 1.139-2.845 1.286-4.362 0.042-0.429 0.045-1.734 0.006-2.128-0.134-1.309-0.48-2.614-1.011-3.827-0.218-0.493-0.573-1.184-0.666-1.293-0.182-0.221-0.4-0.285-0.65-0.195z"></path>
<path fill="#ff7900" d="M24.835 10.915c-0.224 0.067-0.464 0.269-0.499 0.426-0.061 0.256-0.035 0.368 0.23 0.947 0.342 0.762 0.461 1.088 0.634 1.75 0.179 0.682 0.25 1.254 0.246 1.994 0 1.203-0.278 2.374-0.845 3.584-0.227 0.486-0.285 0.646-0.291 0.845-0.006 0.147 0.010 0.195 0.090 0.31 0.102 0.144 0.352 0.304 0.522 0.326 0.336 0.051 0.538-0.144 0.915-0.893 0.522-1.043 0.842-2.179 0.938-3.341 0.045-0.547 0.026-1.715-0.035-2.080-0.010-0.045-0.038-0.227-0.064-0.406-0.086-0.557-0.278-1.258-0.512-1.859-0.122-0.317-0.49-1.072-0.602-1.235-0.224-0.33-0.458-0.445-0.726-0.368z"></path>
<path fill="#ff7900" d="M22.384 12.166c-0.154 0.054-0.368 0.214-0.432 0.323-0.138 0.227-0.109 0.48 0.099 0.874 0.157 0.291 0.406 0.947 0.493 1.283 0.176 0.701 0.221 1.402 0.128 2.042-0.096 0.688-0.25 1.174-0.602 1.904-0.096 0.202-0.186 0.429-0.198 0.502-0.042 0.266 0.096 0.515 0.362 0.659 0.496 0.269 0.8 0.029 1.267-1.002 0.39-0.858 0.563-1.654 0.579-2.656 0.016-0.854-0.070-1.443-0.307-2.16-0.131-0.394-0.144-0.429-0.352-0.864-0.381-0.8-0.656-1.040-1.037-0.906z"></path>
<path fill="#ff7900" d="M20.090 13.392c-0.186 0.045-0.394 0.211-0.477 0.378-0.112 0.214-0.077 0.426 0.128 0.79 0.342 0.611 0.474 1.229 0.387 1.802-0.054 0.342-0.157 0.627-0.387 1.072-0.166 0.32-0.189 0.384-0.189 0.544 0.003 0.147 0.019 0.208 0.090 0.31 0.179 0.259 0.49 0.397 0.736 0.323 0.378-0.112 0.842-0.864 1.011-1.642 0.266-1.206 0.096-2.294-0.477-3.098-0.291-0.41-0.538-0.554-0.822-0.48z"></path>
</svg>
