<!-- Generated by IcoMoon.io -->
<svg version="1.1" xmlns="http://www.w3.org/2000/svg" width="32" height="32" viewBox="0 0 32 32">
<title>Orange_Experts_Class_Training</title>
<path fill="#ff7900" d="M15.933 2.029c-0.016 0.016-0.992 0.365-1.405 0.502-0.096 0.032-0.384 0.131-0.64 0.221-0.256 0.093-0.621 0.221-0.816 0.288-0.192 0.067-0.768 0.269-1.28 0.448-0.509 0.179-1.107 0.39-1.328 0.464-0.221 0.077-0.586 0.205-0.816 0.288-0.227 0.080-0.515 0.182-0.64 0.224-0.416 0.141-0.954 0.333-0.966 0.349-0.006 0.006 0.048 0.035 0.125 0.061 0.246 0.086 1.398 0.49 2.394 0.838 0.538 0.186 1.091 0.381 1.232 0.432 0.57 0.202 2.602 0.915 3.248 1.136 0.221 0.077 0.528 0.182 0.682 0.237l0.285 0.102 0.259-0.096c0.358-0.128 1.658-0.589 1.894-0.669 0.106-0.038 0.4-0.141 0.656-0.23 0.256-0.093 0.688-0.243 0.96-0.339s0.656-0.23 0.848-0.301c0.195-0.067 0.602-0.211 0.906-0.317l0.55-0.195v5.341l-0.16 0.79c-0.086 0.435-0.16 0.797-0.16 0.803s0.294 0.010 0.656 0.010c0.362 0 0.656-0.010 0.656-0.019 0-0.013-0.016-0.074-0.032-0.138-0.019-0.064-0.096-0.413-0.176-0.774l-0.144-0.662v-2.787c0-2.202 0.010-2.794 0.042-2.803 0.019-0.010 0.301-0.102 0.624-0.211s0.579-0.202 0.573-0.211c-0.013-0.010-0.877-0.317-1.11-0.394-0.045-0.013-0.454-0.16-0.912-0.32-0.458-0.163-1.011-0.355-1.232-0.432-0.458-0.157-1.411-0.493-2.832-0.992-0.282-0.099-0.592-0.208-0.688-0.24s-0.384-0.134-0.64-0.224c-0.509-0.182-0.582-0.205-0.611-0.179z"></path>
<path fill="#ff7900" d="M11.203 8.57c0 0.979 0.016 1.891 0.032 2.022 0.15 1.21 0.749 2.317 1.677 3.091 0.202 0.17 0.605 0.461 0.637 0.461 0.013 0 0.074 0.032 0.141 0.074 0.288 0.179 0.95 0.426 1.344 0.502 0.544 0.102 1.322 0.112 1.814 0.019 1.13-0.208 2.157-0.813 2.861-1.683 0.064-0.080 0.125-0.15 0.134-0.16 0.013-0.010 0.086-0.118 0.17-0.246 0.285-0.445 0.55-1.046 0.646-1.482 0.128-0.566 0.141-0.771 0.141-2.598v-1.782l-0.086 0.029c-0.051 0.013-0.189 0.064-0.314 0.106-0.214 0.080-0.659 0.234-3.232 1.133l-1.184 0.413-0.144-0.054c-0.080-0.032-0.87-0.31-1.76-0.621s-1.754-0.614-1.92-0.672c-0.166-0.061-0.451-0.16-0.634-0.221l-0.326-0.112 0.003 1.782z"></path>
<path fill="#ff7900" d="M17.926 15.67l-1.93 1.546-1.92-1.536c-1.386-1.11-1.939-1.536-1.997-1.536-0.118 0-0.758 0.214-1.066 0.355-0.778 0.358-1.475 0.931-2.010 1.651-0.381 0.509-0.746 1.309-0.877 1.914-0.109 0.486-0.122 0.784-0.125 2.358l-0.003 1.594h7.2v-1.011l-0.198-0.157c-0.877-0.704-0.774-2.038 0.202-2.618 0.486-0.288 1.149-0.278 1.626 0.026 0.954 0.602 1.024 1.968 0.131 2.624l-0.16 0.118v1.018h7.203l-0.013-1.722c-0.006-0.944-0.022-1.763-0.032-1.814-0.013-0.054-0.045-0.208-0.070-0.346-0.166-0.838-0.656-1.789-1.264-2.442-0.672-0.723-1.542-1.245-2.486-1.494l-0.282-0.077-1.93 1.549z"></path>
<path fill="#ff7900" d="M4.531 22.864c-0.288 0.102-0.499 0.384-0.525 0.701-0.013 0.179 0.048 0.358 0.47 1.357 0.086 0.205 0.374 0.893 0.637 1.526l0.48 1.152 0.806 0.019v2.397h19.2v-2.4h0.79l0.051-0.122c0.102-0.23 0.662-1.61 0.662-1.626 0-0.006 0.029-0.074 0.061-0.15 0.131-0.288 0.736-1.779 0.768-1.898 0.102-0.368-0.074-0.752-0.419-0.922l-0.17-0.080h-11.344c-9.571 0-11.363 0.006-11.469 0.045z"></path>
</svg>
