<!-- Generated by IcoMoon.io -->
<svg version="1.1" xmlns="http://www.w3.org/2000/svg" width="32" height="32" viewBox="0 0 32 32">
<title>Orange_Messenger_1</title>
<path fill="#ff7900" d="M3.21 12.614c0.006 8.17 0.010 8.627 0.064 8.803 0.298 0.97 1.062 1.632 2.038 1.766 0.045 0.006 0.848 0.013 1.786 0.013l1.702 0.003v5.603l5.6-5.603h14.4l-0.003-8.538c-0.003-9.347 0.010-8.726-0.189-9.197-0.285-0.666-0.819-1.139-1.568-1.382l-0.208-0.067-23.632-0.016 0.010 8.614zM14.672 6.173c0.813 0.259 1.395 0.829 1.635 1.603 0.026 0.080 0.045 0.16 0.045 0.179s-0.067 0.080-0.15 0.134c-0.358 0.23-0.755 0.672-1.002 1.107-0.195 0.355-0.336 0.838-0.374 1.315-0.010 0.122-0.032 0.234-0.051 0.243-0.17 0.112-1.018 0.141-1.357 0.051-1.098-0.301-1.824-1.27-1.789-2.39 0.013-0.39 0.077-0.656 0.234-0.989 0.314-0.65 0.931-1.133 1.658-1.296 0.294-0.067 0.88-0.045 1.152 0.042zM18.445 8.358c0.902 0.166 1.648 0.858 1.898 1.766 0.067 0.246 0.077 0.89 0.013 1.139-0.362 1.443-1.904 2.234-3.258 1.67-1.571-0.659-1.978-2.698-0.778-3.904 0.381-0.384 0.819-0.598 1.408-0.691 0.141-0.022 0.544-0.010 0.717 0.019zM14.534 11.718c0.474 0.080 0.445 0.061 0.598 0.381 0.077 0.157 0.208 0.381 0.298 0.499 0.182 0.25 0.57 0.627 0.758 0.746 0.070 0.045 0.131 0.086 0.131 0.096s-0.090 0.061-0.198 0.109c-0.797 0.365-1.562 1.094-2 1.907-0.23 0.422-0.432 1.050-0.477 1.472-0.013 0.115-0.026 0.23-0.032 0.256-0.003 0.026-0.010 0.528-0.010 1.11l-0.003 1.066h-0.902c-0.666 0-0.95-0.013-1.072-0.045-0.605-0.16-1.078-0.656-1.194-1.251-0.026-0.134-0.032-0.65-0.026-1.76l0.013-1.568 0.083-0.304c0.138-0.486 0.256-0.749 0.522-1.152 0.531-0.803 1.421-1.379 2.384-1.546 0.304-0.051 0.87-0.061 1.126-0.016zM18.819 14.013c0.653 0.154 1.181 0.438 1.661 0.89 0.538 0.506 0.886 1.107 1.062 1.827 0.067 0.269 0.070 0.368 0.080 2.573l0.013 2.298h-2.896c-1.99 0-2.95-0.010-3.066-0.035-0.518-0.109-0.95-0.477-1.171-0.998l-0.083-0.198-0.010-1.568c-0.006-1.238 0.003-1.626 0.038-1.84 0.173-1.037 0.736-1.888 1.632-2.47 0.432-0.278 0.822-0.422 1.52-0.55 0.195-0.035 0.954 0.010 1.219 0.074z"></path>
</svg>
