<!-- Generated by IcoMoon.io -->
<svg version="1.1" xmlns="http://www.w3.org/2000/svg" width="32" height="32" viewBox="0 0 32 32">
<title>orange_assistant</title>
<path fill="#ff7900" d="M9.226 2.445c-0.579 0.141-1.069 0.646-1.19 1.229-0.051 0.24-0.051 24.413 0 24.653 0.125 0.598 0.64 1.114 1.238 1.238 0.24 0.051 13.213 0.051 13.453 0 0.598-0.125 1.114-0.64 1.238-1.238 0.051-0.24 0.051-24.413 0-24.653-0.118-0.563-0.611-1.082-1.165-1.232-0.054-0.013-3.091-0.029-6.752-0.032-5.245-0.003-6.691 0.003-6.822 0.035zM17.398 3.264c0.115 0.070 0.202 0.211 0.202 0.336s-0.086 0.266-0.202 0.336c-0.096 0.061-0.17 0.064-1.392 0.064-1.424 0-1.421 0-1.542-0.202-0.115-0.189-0.058-0.416 0.138-0.534 0.096-0.061 0.17-0.064 1.398-0.064s1.302 0.003 1.398 0.064zM14.781 4.912c0.323 0.179 0.506 0.512 0.47 0.861-0.029 0.288-0.118 0.438-0.416 0.701-0.541 0.474-0.797 1.040-0.746 1.667 0.128 1.603 2.051 2.352 3.219 1.251 0.371-0.349 0.566-0.774 0.598-1.296 0.038-0.566-0.214-1.178-0.63-1.52-0.509-0.419-0.64-0.742-0.477-1.174 0.083-0.224 0.211-0.374 0.419-0.49l0.173-0.096 5.008-0.019v21.603l-5.008-0.016-0.173-0.096c-0.557-0.307-0.64-1.037-0.17-1.459 0.483-0.429 0.618-0.611 0.768-1.027 0.115-0.317 0.122-0.822 0.016-1.162-0.243-0.771-0.915-1.296-1.725-1.35-0.755-0.051-1.498 0.387-1.83 1.078-0.16 0.336-0.211 0.598-0.186 0.963 0.042 0.554 0.227 0.915 0.707 1.36 0.282 0.262 0.346 0.336 0.403 0.49 0.131 0.349 0.019 0.778-0.266 1.002-0.269 0.214-0.086 0.202-2.835 0.211l-2.502 0.010 0.006-4.714 0.010-4.714 0.099-0.176c0.24-0.426 0.742-0.589 1.181-0.381 0.099 0.048 0.221 0.15 0.362 0.317 0.118 0.134 0.288 0.301 0.374 0.368 0.627 0.477 1.494 0.525 2.154 0.118 0.464-0.285 0.736-0.659 0.874-1.184 0.266-1.027-0.419-2.106-1.475-2.33-0.643-0.138-1.312 0.074-1.757 0.554-0.112 0.118-0.256 0.272-0.317 0.336-0.163 0.173-0.413 0.262-0.672 0.237-0.349-0.035-0.582-0.192-0.752-0.512l-0.070-0.131-0.010-4.698-0.006-4.694 5.008 0.016 0.173 0.096zM16.4 27.309c0.39 0.23 0.512 0.749 0.266 1.12-0.112 0.17-0.221 0.256-0.413 0.323-0.608 0.214-1.222-0.394-1.005-1.005 0.086-0.246 0.282-0.442 0.522-0.518 0.16-0.051 0.47-0.013 0.63 0.080z"></path>
</svg>
