<!-- Generated by IcoMoon.io -->
<svg version="1.1" xmlns="http://www.w3.org/2000/svg" width="32" height="32" viewBox="0 0 32 32">
<title>orange_travel</title>
<path fill="#ff7900" d="M13.411 5.622c-0.198 0.038-0.461 0.285-0.547 0.512-0.061 0.16-0.064 0.253-0.064 1.418v1.245l-3.366 0.010c-3.117 0.010-3.382 0.016-3.562 0.067-0.893 0.266-1.558 0.934-1.798 1.814-0.054 0.195-0.058 0.579-0.058 6.928 0 7.546-0.022 6.854 0.24 7.392 0.346 0.714 1.059 1.238 1.85 1.36 0.144 0.022 3.402 0.032 10.038 0.026l9.824-0.010 0.288-0.102c0.912-0.317 1.536-1.043 1.677-1.952 0.051-0.326 0.051-13.101 0-13.427-0.16-1.030-0.934-1.84-1.958-2.051-0.211-0.045-0.659-0.051-3.507-0.051h-3.264l-0.010-1.306c-0.010-1.264-0.013-1.306-0.080-1.43-0.090-0.17-0.25-0.317-0.426-0.397-0.141-0.064-0.195-0.067-2.672-0.061-1.389 0-2.563 0.010-2.605 0.016zM18.134 6.598c0.054 0.032 0.134 0.109 0.176 0.176 0.074 0.118 0.074 0.138 0.083 1.072l0.010 0.954h-4.806l0.003-0.877c0.003-0.57 0.016-0.918 0.042-0.998 0.048-0.157 0.208-0.317 0.365-0.358 0.080-0.022 0.806-0.032 2.074-0.029 1.782 0.006 1.962 0.013 2.054 0.061zM8 17.6v8h-0.8v-16h0.8v8zM24.8 17.6v8h-0.8v-16h0.8v8zM21.088 12.912c0.051 0.026 0.112 0.080 0.131 0.118 0.086 0.16 0.022 0.515-0.157 0.874-0.141 0.285-0.342 0.573-1.226 1.75-0.477 0.637-0.874 1.174-0.88 1.194-0.010 0.022 0.346 1.12 0.787 2.442 0.438 1.322 0.8 2.451 0.8 2.509 0 0.138 0 0.138-0.419 0.557l-0.358 0.362-0.24-0.406c-0.131-0.224-0.266-0.445-0.298-0.493-0.035-0.045-0.061-0.093-0.061-0.102s-0.099-0.182-0.218-0.378c-0.122-0.198-0.518-0.867-0.886-1.482-0.365-0.618-0.691-1.168-0.726-1.226l-0.064-0.102-0.259 0.214c-0.144 0.118-0.326 0.269-0.406 0.333-0.736 0.598-1.866 1.52-2.102 1.715-0.163 0.131-0.298 0.256-0.298 0.272 0 0.029 0.080 0.218 0.256 0.618 0.032 0.070 0.118 0.272 0.192 0.448s0.163 0.384 0.198 0.461c0.17 0.374 0.166 0.432-0.003 0.595l-0.102 0.093-3.901-3.901 0.118-0.118c0.064-0.067 0.15-0.122 0.186-0.122 0.038 0 0.486 0.179 0.995 0.397l0.925 0.394 0.096-0.112c0.054-0.064 0.198-0.24 0.32-0.39 0.125-0.154 0.506-0.621 0.848-1.040 1.027-1.261 1.216-1.494 1.216-1.52 0-0.016-0.048-0.054-0.102-0.090-0.058-0.035-0.982-0.592-2.058-1.238-1.072-0.65-1.958-1.184-1.965-1.187-0.022-0.019 0.653-0.691 0.739-0.736 0.048-0.026 0.128-0.045 0.176-0.045s1.162 0.362 2.474 0.8c1.309 0.442 2.4 0.8 2.426 0.8 0.022 0 0.576-0.4 1.232-0.893 0.656-0.49 1.27-0.941 1.366-1.002 0.554-0.352 1.011-0.483 1.248-0.362z"></path>
</svg>
