<!-- Generated by IcoMoon.io -->
<svg version="1.1" xmlns="http://www.w3.org/2000/svg" width="32" height="32" viewBox="0 0 32 32">
<title>Orange_Detente</title>
<path fill="#ff7900" d="M3.565 2.998c-0.173 0.243-0.339 0.48-0.368 0.525l-0.058 0.083 0.582 0.413c0.32 0.227 0.624 0.442 0.678 0.48 0.054 0.035 0.506 0.352 1.008 0.704s1.402 0.986 2 1.405c0.598 0.419 1.162 0.816 1.251 0.883 0.454 0.336 0.57 0.669 0.669 1.949 0.010 0.131 0.026 0.304 0.032 0.384s0.029 0.33 0.048 0.56c0.019 0.227 0.038 0.486 0.048 0.576 0.010 0.086 0.045 0.506 0.080 0.928 0.083 0.986 0.096 1.12 0.112 1.296 0.006 0.080 0.022 0.253 0.032 0.384 0.019 0.24 0.038 0.496 0.064 0.768 0.010 0.080 0.029 0.323 0.048 0.544 0.045 0.522 0.064 0.749 0.080 0.944 0.010 0.086 0.022 0.259 0.032 0.384 0.010 0.122 0.026 0.288 0.032 0.368 0.010 0.080 0.022 0.243 0.032 0.368 0.010 0.122 0.022 0.294 0.032 0.384 0.022 0.282 0.051 0.605 0.064 0.736 0.006 0.070 0.022 0.227 0.032 0.352 0.026 0.323 0.048 0.582 0.064 0.784 0.010 0.096 0.022 0.275 0.032 0.4 0.022 0.288 0.048 0.586 0.064 0.688 0.006 0.045 0.019 0.208 0.032 0.368 0.010 0.157 0.026 0.346 0.032 0.416s0.022 0.221 0.032 0.336c0.010 0.115 0.029 0.365 0.045 0.56 0.019 0.192 0.042 0.474 0.054 0.624 0.010 0.15 0.026 0.294 0.029 0.326 0.006 0.029 0.022 0.214 0.032 0.416 0.013 0.198 0.029 0.368 0.032 0.378 0.006 0.010 0.019 0.173 0.032 0.368 0.010 0.192 0.026 0.374 0.032 0.4s0.022 0.17 0.032 0.32c0.010 0.15 0.022 0.323 0.032 0.384 0.006 0.061 0.019 0.227 0.032 0.368 0.010 0.141 0.026 0.32 0.032 0.4 0.013 0.141 0.032 0.355 0.064 0.752 0.010 0.106 0.026 0.272 0.032 0.368 0.010 0.096 0.026 0.275 0.035 0.394 0.010 0.122 0.022 0.259 0.026 0.304 0.006 0.048 0.022 0.224 0.035 0.39 0.010 0.166 0.026 0.339 0.032 0.384s0.022 0.211 0.032 0.374c0.013 0.16 0.026 0.32 0.032 0.352s0.013 0.096 0.013 0.144l0.003 0.090h9.594l0.022-0.202c0.010-0.109 0.026-0.25 0.032-0.31s0.022-0.227 0.032-0.368c0.013-0.141 0.026-0.336 0.035-0.432 0.026-0.298 0.038-0.454 0.061-0.704 0.019-0.227 0.026-0.323 0.064-0.698 0.006-0.083 0.022-0.266 0.032-0.406s0.026-0.301 0.032-0.352c0.006-0.054 0.022-0.211 0.032-0.352 0.022-0.31 0.045-0.56 0.064-0.752 0.010-0.080 0.022-0.246 0.032-0.368 0.010-0.125 0.026-0.288 0.032-0.368 0.010-0.080 0.022-0.237 0.032-0.352 0.019-0.259 0.045-0.547 0.064-0.736 0.010-0.080 0.022-0.253 0.032-0.384s0.022-0.291 0.032-0.352c0.013-0.102 0.022-0.227 0.064-0.752 0.010-0.106 0.022-0.256 0.032-0.336s0.022-0.253 0.032-0.384c0.013-0.131 0.026-0.291 0.032-0.352s0.022-0.243 0.032-0.4c0.013-0.16 0.026-0.323 0.032-0.368s0.022-0.189 0.032-0.32c0.010-0.131 0.026-0.304 0.032-0.384s0.022-0.253 0.032-0.384c0.010-0.131 0.026-0.291 0.032-0.352s0.022-0.221 0.032-0.352c0.010-0.131 0.022-0.304 0.032-0.384 0.026-0.246 0.080-0.87 0.096-1.104 0.010-0.125 0.022-0.275 0.029-0.336 0.010-0.061 0.026-0.227 0.035-0.368 0.013-0.141 0.026-0.314 0.032-0.384s0.022-0.237 0.032-0.368c0.010-0.131 0.026-0.291 0.032-0.352s0.022-0.221 0.032-0.352c0.010-0.131 0.026-0.304 0.032-0.384s0.022-0.253 0.035-0.384c0.013-0.131 0.026-0.285 0.029-0.336 0.006-0.054 0.019-0.234 0.032-0.4s0.026-0.339 0.035-0.384c0.006-0.045 0.022-0.224 0.032-0.4s0.026-0.33 0.032-0.339c0.006-0.010 0.019-0.192 0.032-0.4 0.019-0.374 0.016-0.384-0.074-0.557-0.099-0.195-0.294-0.362-0.483-0.416-0.080-0.019-1.907-0.032-5.549-0.032-5.152 0-5.434-0.003-5.437-0.058 0-0.029-0.006-0.090-0.013-0.134-0.010-0.090-0.032-0.349-0.080-0.912-0.016-0.211-0.042-0.477-0.051-0.592-0.019-0.224-0.115-0.666-0.192-0.896-0.125-0.365-0.438-0.842-0.717-1.082-0.106-0.093-1.84-1.328-2.576-1.834-0.122-0.083-0.589-0.41-1.030-0.723-0.445-0.314-1.027-0.723-1.296-0.912-0.269-0.186-0.573-0.4-0.672-0.47l-0.182-0.131-0.31 0.438zM21.427 11.318c-0.051 0.515-0.070 0.742-0.099 1.082-0.010 0.141-0.026 0.314-0.032 0.384s-0.022 0.243-0.032 0.384c-0.010 0.141-0.026 0.307-0.032 0.368s-0.022 0.221-0.032 0.352c-0.026 0.323-0.051 0.557-0.067 0.579-0.022 0.038-0.413 0.214-0.701 0.317-0.442 0.154-0.934 0.227-1.536 0.227-0.282 0-0.547-0.006-0.592-0.016-0.045-0.006-0.15-0.022-0.237-0.035-0.56-0.070-1.162-0.307-1.907-0.749-0.294-0.173-0.746-0.387-1.018-0.483-0.71-0.246-1.901-0.294-2.758-0.109-0.131 0.029-0.256 0.064-0.275 0.080-0.022 0.019-0.026 0.090-0.010 0.211 0.013 0.102 0.032 0.307 0.045 0.458s0.026 0.314 0.032 0.368c0.006 0.051 0.019 0.211 0.032 0.352 0.010 0.141 0.026 0.314 0.032 0.384s0.022 0.227 0.032 0.352c0.013 0.122 0.026 0.266 0.032 0.32 0.006 0.051 0.022 0.211 0.032 0.352 0.019 0.259 0.038 0.474 0.064 0.704 0.006 0.070 0.022 0.227 0.032 0.352 0.010 0.122 0.022 0.282 0.032 0.352 0.006 0.070 0.022 0.243 0.032 0.384 0.013 0.141 0.026 0.288 0.032 0.326s0.019 0.195 0.032 0.352c0.010 0.154 0.026 0.333 0.032 0.394s0.022 0.211 0.032 0.336c0.010 0.122 0.026 0.282 0.032 0.352s0.022 0.227 0.032 0.352c0.010 0.122 0.026 0.282 0.032 0.352 0.026 0.266 0.048 0.486 0.064 0.662 0.010 0.102 0.022 0.262 0.032 0.352 0.010 0.093 0.022 0.256 0.032 0.362 0.016 0.192 0.038 0.448 0.064 0.72 0.013 0.131 0.054 0.605 0.096 1.104 0.010 0.106 0.026 0.25 0.032 0.32 0.016 0.157 0.061 0.624 0.131 1.424 0.006 0.096 0.019 0.246 0.029 0.336 0.013 0.154 0.019 0.227 0.064 0.736 0.013 0.122 0.026 0.266 0.032 0.32 0.006 0.051 0.019 0.195 0.032 0.32 0.010 0.122 0.026 0.285 0.035 0.358l0.016 0.138h-0.579c-0.438 0-0.576-0.010-0.579-0.042 0-0.019-0.006-0.061-0.010-0.086-0.006-0.026-0.019-0.182-0.032-0.342-0.013-0.163-0.029-0.33-0.035-0.368-0.006-0.042-0.019-0.189-0.032-0.33s-0.026-0.307-0.032-0.368c-0.006-0.061-0.019-0.227-0.032-0.365s-0.026-0.275-0.032-0.304c-0.003-0.029-0.019-0.195-0.032-0.371s-0.026-0.342-0.032-0.368c-0.003-0.026-0.019-0.163-0.029-0.304-0.013-0.141-0.029-0.32-0.035-0.4-0.010-0.080-0.022-0.23-0.032-0.336s-0.022-0.266-0.032-0.352c-0.010-0.090-0.022-0.246-0.032-0.352s-0.022-0.266-0.032-0.352c-0.010-0.090-0.045-0.493-0.083-0.896-0.035-0.406-0.070-0.787-0.077-0.848s-0.019-0.227-0.032-0.368c-0.019-0.256-0.038-0.435-0.064-0.672-0.006-0.070-0.022-0.23-0.032-0.352-0.032-0.371-0.048-0.57-0.064-0.704-0.006-0.070-0.022-0.243-0.032-0.384-0.013-0.141-0.026-0.291-0.032-0.336s-0.022-0.211-0.032-0.368c-0.013-0.16-0.026-0.323-0.032-0.368s-0.022-0.195-0.032-0.336c-0.010-0.141-0.026-0.307-0.032-0.368-0.013-0.106-0.035-0.342-0.064-0.672-0.022-0.237-0.051-0.55-0.064-0.688-0.006-0.070-0.029-0.317-0.048-0.544-0.019-0.23-0.042-0.474-0.048-0.544s-0.022-0.214-0.032-0.32c-0.010-0.106-0.026-0.266-0.032-0.352-0.010-0.090-0.022-0.246-0.032-0.352s-0.022-0.269-0.032-0.362c-0.029-0.288-0.045-0.49-0.080-0.902-0.019-0.221-0.042-0.451-0.048-0.512s-0.022-0.202-0.032-0.314l-0.019-0.198h10.762l-0.019 0.214z"></path>
<path fill="#ff7900" d="M21.52 4.179c-1.296 0.195-2.413 0.774-3.296 1.715-0.883 0.938-1.392 2.080-1.504 3.376l-0.019 0.234h0.4c0.397 0 0.403 0 0.403-0.074 0.010-0.448 0.221-1.258 0.464-1.766 0.675-1.414 1.984-2.403 3.536-2.672 0.458-0.080 1.306-0.074 1.712 0.013 2.045 0.432 3.539 2.006 3.84 4.051 0.058 0.384 0.042 1.133-0.029 1.52-0.179 0.979-0.637 1.846-1.338 2.534-0.781 0.771-1.587 1.178-2.714 1.366-0.045 0.010-0.118 0.016-0.163 0.016-0.083 0.003-0.086 0.010-0.106 0.282-0.013 0.157-0.029 0.339-0.038 0.406l-0.016 0.125 0.25-0.019c1.146-0.086 2.429-0.691 3.306-1.555 1.146-1.126 1.731-2.579 1.683-4.163-0.029-0.902-0.189-1.549-0.579-2.339-0.816-1.645-2.374-2.774-4.218-3.053-0.371-0.054-1.197-0.054-1.574 0.003z"></path>
<path fill="#ff7900" d="M21.584 5.622c-0.205 0.029-0.781 0.211-1.027 0.326-0.314 0.147-0.765 0.432-0.829 0.525s-0.061 0.243 0.010 0.346c0.061 0.090 2.294 2.333 2.323 2.333 0.038 0 0.022-3.29-0.016-3.37-0.019-0.042-0.074-0.099-0.125-0.128-0.090-0.054-0.141-0.058-0.336-0.032z"></path>
<path fill="#ff7900" d="M22.688 5.651c-0.163 0.118-0.157 0.051-0.16 1.846v1.686l1.146-1.142c0.627-0.63 1.168-1.181 1.197-1.226 0.134-0.189 0.045-0.355-0.301-0.579-0.48-0.307-1.149-0.563-1.635-0.621-0.131-0.016-0.182-0.006-0.246 0.035z"></path>
<path fill="#ff7900" d="M19.053 7.149c-0.086 0.061-0.33 0.426-0.474 0.717-0.118 0.237-0.32 0.806-0.349 0.982-0.010 0.051-0.026 0.157-0.038 0.23-0.029 0.17 0.019 0.301 0.141 0.371 0.083 0.048 0.253 0.054 1.76 0.054h1.67l-1.162-1.162c-0.64-0.64-1.194-1.181-1.232-1.2-0.096-0.051-0.237-0.048-0.317 0.006z"></path>
<path fill="#ff7900" d="M25.232 7.136c-0.035 0.016-0.586 0.554-1.226 1.197l-1.162 1.171h3.363l0.102-0.093c0.096-0.086 0.106-0.109 0.099-0.269-0.019-0.544-0.486-1.642-0.838-1.968-0.080-0.074-0.221-0.090-0.339-0.038z"></path>
<path fill="#ff7900" d="M24.026 11.136c0.73 0.726 1.216 1.19 1.267 1.203 0.179 0.045 0.285-0.026 0.48-0.323 0.307-0.461 0.528-1.014 0.627-1.578 0.029-0.166 0.026-0.214-0.016-0.307-0.029-0.058-0.086-0.122-0.131-0.144-0.058-0.026-0.566-0.035-1.744-0.035h-1.667l1.184 1.184z"></path>
<path fill="#ff7900" d="M23.037 10.899c0 0.067-0.006 0.147-0.013 0.179-0.003 0.029-0.019 0.173-0.029 0.32-0.013 0.144-0.035 0.422-0.051 0.618-0.045 0.454-0.054 0.592-0.096 1.040-0.016 0.202-0.038 0.464-0.051 0.582-0.013 0.138-0.006 0.218 0.013 0.218s0.138-0.019 0.269-0.045c0.531-0.102 1.056-0.317 1.52-0.621 0.317-0.208 0.39-0.346 0.282-0.544-0.026-0.048-0.448-0.49-0.944-0.979l-0.896-0.896-0.003 0.128z"></path>
</svg>
