<!-- Generated by IcoMoon.io -->
<svg version="1.1" xmlns="http://www.w3.org/2000/svg" width="32" height="32" viewBox="0 0 32 32">
<title>orange_corporate</title>
<path fill="#ff7900" d="M14.109 2.413c-0.006 0.006-0.16 0.022-0.339 0.032-0.179 0.013-0.358 0.029-0.4 0.035s-0.24 0.035-0.442 0.064c-0.598 0.086-1.133 0.208-1.824 0.422-4.109 1.27-7.315 4.672-8.336 8.842-0.17 0.698-0.282 1.379-0.33 2-0.029 0.41-0.029 1.574 0 1.968 0.378 4.979 3.792 9.293 8.57 10.832 0.874 0.282 1.907 0.486 2.8 0.554 0.387 0.029 1.587 0.029 1.984-0.003 1.622-0.125 3.235-0.586 4.704-1.347 0.506-0.259 1.11-0.63 1.533-0.938 0.157-0.115 0.301-0.211 0.32-0.221 0.019-0.006 1.075 1.027 2.346 2.301 1.59 1.59 2.368 2.346 2.49 2.419 0.259 0.157 0.541 0.227 0.874 0.214 1.235-0.042 1.946-1.389 1.29-2.438-0.051-0.083-1.133-1.194-2.403-2.464s-2.301-2.326-2.291-2.346c0.013-0.019 0.138-0.195 0.278-0.394 0.483-0.672 0.97-1.549 1.306-2.349 0.454-1.088 0.723-2.122 0.886-3.405 0.080-0.627 0.080-2.342 0-2.771-0.006-0.032-0.022-0.147-0.032-0.253-0.067-0.621-0.285-1.555-0.531-2.298-1.034-3.094-3.283-5.693-6.195-7.152-1.286-0.646-2.768-1.088-4.141-1.238-0.096-0.010-0.234-0.026-0.304-0.035-0.166-0.019-1.792-0.048-1.811-0.032zM15.84 4.848c0.643 0.083 1.206 0.192 1.715 0.339 3.264 0.934 5.875 3.517 6.826 6.752 0.128 0.445 0.211 0.784 0.246 1.005 0.010 0.070 0.029 0.186 0.045 0.256s0.035 0.221 0.048 0.336c0.010 0.115 0.032 0.323 0.048 0.464 0.038 0.374 0.029 1.379-0.019 1.824-0.323 3.018-1.942 5.674-4.461 7.331-1.357 0.89-2.787 1.402-4.48 1.594-0.394 0.045-1.68 0.048-2.064 0.003-2.349-0.275-4.445-1.29-6.054-2.931-0.81-0.829-1.334-1.558-1.834-2.557-0.534-1.062-0.81-1.994-0.995-3.344-0.045-0.32-0.058-1.613-0.022-2.019 0.339-3.75 2.797-7.030 6.298-8.406 0.714-0.278 1.6-0.515 2.192-0.582 0.106-0.013 0.198-0.029 0.208-0.032 0.013-0.006 0.157-0.022 0.32-0.032 0.166-0.013 0.31-0.029 0.317-0.035 0.019-0.019 1.494 0.013 1.667 0.035z"></path>
<path fill="#ff7900" d="M8.496 9.632c-0.461 0.086-0.918 0.432-1.12 0.845-0.182 0.374-0.176 0.134-0.176 5.018v4.499l0.195 0.269c0.288 0.387 0.685 0.835 1.059 1.197l0.33 0.314 0.010-4.886 0.006-4.886h12l0.006 4.886 0.010 4.883 0.358-0.342c0.374-0.358 0.659-0.682 1.014-1.146l0.211-0.282v-4.477c0-3.149-0.010-4.531-0.035-4.65-0.122-0.582-0.592-1.069-1.184-1.226-0.147-0.042-1.101-0.048-6.365-0.045-3.405 0.003-6.25 0.016-6.32 0.029zM16.176 10.451c0.125 0.058 0.243 0.266 0.221 0.387-0.029 0.147-0.102 0.256-0.218 0.31-0.096 0.045-0.269 0.051-1.379 0.051-1.443 0-1.45 0-1.552-0.234-0.090-0.202-0.019-0.422 0.166-0.512 0.093-0.045 0.269-0.054 1.379-0.054 1.101 0 1.293 0.006 1.382 0.051z"></path>
<path fill="#ff7900" d="M10.4 16.16v0.48h8.64v-0.96h-8.64v0.48z"></path>
<path fill="#ff7900" d="M10.4 18.080v0.48h7.68v-0.96h-7.68v0.48z"></path>
<path fill="#ff7900" d="M10.4 20v0.48h6.72v-0.96h-6.72v0.48z"></path>
</svg>
