<!-- Generated by IcoMoon.io -->
<svg version="1.1" xmlns="http://www.w3.org/2000/svg" width="32" height="32" viewBox="0 0 32 32">
<title>orange_Photography</title>
<path fill="#ff7900" d="M4.006 13.654c0.010 9.171 0.013 9.667 0.067 9.85 0.086 0.294 0.32 0.746 0.493 0.96 0.218 0.269 0.547 0.531 0.848 0.685 0.144 0.070 0.269 0.122 0.282 0.115 0.010-0.006 0.019-4.403 0.016-9.773 0-9.734 0-9.76 0.064-9.77 0.035-0.006 4.438-0.010 9.786-0.010l9.718 0.003-0.019-0.064c-0.035-0.118-0.237-0.467-0.362-0.637-0.256-0.346-0.64-0.64-1.072-0.819-0.499-0.208 0.166-0.195-10.31-0.195h-9.517l0.006 9.654z"></path>
<path fill="#ff7900" d="M6.579 6.589c-0.006 0.010-0.006 4.339-0.003 9.619l0.003 9.6 0.070 0.253c0.227 0.819 0.758 1.424 1.536 1.747 0.48 0.202-0.157 0.189 10.272 0.192h9.542v-9.546c0-9.309-0.003-9.549-0.064-9.843-0.163-0.794-0.704-1.469-1.446-1.808-0.157-0.070-0.384-0.144-0.618-0.198-0.118-0.029-19.277-0.045-19.293-0.016zM25.638 8.394c0.234 0.115 0.48 0.381 0.573 0.624l0.070 0.182 0.003 5.936c0.003 3.264 0 5.949-0.006 5.962-0.006 0.016-0.064-0.035-0.128-0.112-0.067-0.074-0.227-0.259-0.358-0.413-0.131-0.15-0.406-0.467-0.608-0.701s-0.531-0.614-0.733-0.845c-0.198-0.23-0.394-0.454-0.432-0.499s-0.298-0.346-0.579-0.669c-0.282-0.323-0.563-0.65-0.624-0.72-0.061-0.074-0.342-0.397-0.624-0.723s-0.794-0.912-1.133-1.306c-0.339-0.394-0.65-0.733-0.688-0.758-0.067-0.045-0.179-0.061-0.33-0.051-0.080 0.003-0.291 0.202-0.557 0.515-0.096 0.115-0.211 0.25-0.256 0.304-0.048 0.051-0.314 0.362-0.592 0.688-0.282 0.326-0.691 0.8-0.909 1.056-0.221 0.253-0.723 0.835-1.117 1.296-0.394 0.458-0.787 0.918-0.88 1.021-0.090 0.102-0.179 0.211-0.202 0.24-0.029 0.035-0.048 0.042-0.064 0.016-1.85-2.595-2.4-3.35-2.477-3.405-0.266-0.192-0.429-0.106-0.976 0.512-0.429 0.483-0.563 0.63-0.669 0.749-0.035 0.038-0.163 0.182-0.288 0.323-0.122 0.138-0.24 0.266-0.256 0.285-0.019 0.019-0.141 0.157-0.272 0.307s-0.246 0.278-0.256 0.288c-0.010 0.010-0.189 0.211-0.4 0.448s-0.442 0.496-0.515 0.576c-0.074 0.080-0.202 0.227-0.288 0.326s-0.173 0.182-0.189 0.182c-0.048 0.003-0.342-0.307-0.426-0.448-0.173-0.288-0.166-0.048-0.166-5.891v-5.402l17.168 0.016 0.182 0.090z"></path>
<path fill="#ff7900" d="M12.333 10.531c-0.182 0.022-0.515 0.128-0.675 0.214-0.288 0.154-0.618 0.506-0.778 0.829-0.48 0.973-0.022 2.16 0.992 2.573 0.698 0.282 1.475 0.122 2.019-0.419 0.394-0.39 0.579-0.858 0.557-1.408-0.019-0.493-0.192-0.88-0.56-1.248-0.419-0.422-0.976-0.614-1.555-0.541z"></path>
</svg>
