<!-- Generated by IcoMoon.io -->
<svg version="1.1" xmlns="http://www.w3.org/2000/svg" width="32" height="32" viewBox="0 0 32 32">
<title>Orange_rewards</title>
<path fill="#ff7900" d="M15.85 2.435c-0.074 0.013-0.176 0.048-0.227 0.074s-0.534 0.49-1.072 1.027c-0.538 0.538-0.986 0.976-0.992 0.976s-0.285-0.074-0.618-0.16c-0.333-0.090-0.784-0.211-1.005-0.269-1.171-0.314-1.11-0.304-1.36-0.24-0.157 0.038-0.406 0.237-0.477 0.378-0.026 0.045-0.090 0.25-0.144 0.451s-0.214 0.79-0.352 1.309c-0.141 0.515-0.266 0.95-0.282 0.963-0.019 0.022-0.413 0.131-1.018 0.288-0.544 0.141-1.562 0.422-1.651 0.461-0.256 0.106-0.448 0.41-0.448 0.701 0 0.138 0.096 0.57 0.259 1.142 0.045 0.163 0.278 1.027 0.301 1.12 0.010 0.045 0.045 0.176 0.080 0.294l0.064 0.218-0.998 0.998c-0.899 0.902-1.005 1.018-1.059 1.171-0.070 0.205-0.058 0.448 0.038 0.634 0.035 0.070 0.496 0.554 1.040 1.098l0.973 0.973-0.070 0.275c-0.15 0.563-0.282 1.062-0.454 1.699-0.118 0.429-0.179 0.714-0.176 0.826 0.003 0.211 0.106 0.426 0.278 0.573 0.16 0.134 0.106 0.118 2.352 0.717 0.272 0.074 0.499 0.134 0.506 0.141s0.221 0.797 0.506 1.872c0.227 0.851 0.275 0.966 0.49 1.117 0.118 0.086 0.211 0.118 0.387 0.144 0.118 0.016 0.33-0.032 1.168-0.256 0.563-0.15 1.171-0.31 1.354-0.358l0.33-0.083 0.982 0.979c1.066 1.066 1.126 1.11 1.446 1.114 0.326 0 0.403-0.061 1.456-1.117 0.528-0.531 0.979-0.963 1.002-0.963s0.448 0.109 0.944 0.243c1.635 0.438 1.734 0.461 1.872 0.445 0.173-0.022 0.288-0.067 0.416-0.163 0.195-0.15 0.278-0.342 0.458-1.075 0.029-0.118 0.314-1.178 0.448-1.661l0.067-0.246 0.502-0.131c1.174-0.31 2.045-0.547 2.17-0.595 0.154-0.061 0.336-0.25 0.41-0.422 0.099-0.237 0.074-0.4-0.298-1.77l-0.352-1.296 0.979-0.982c0.538-0.541 1.005-1.034 1.037-1.098 0.093-0.179 0.106-0.397 0.038-0.611-0.054-0.176-0.102-0.23-1.056-1.187-0.55-0.554-0.995-1.021-0.989-1.043 0.010-0.022 0.166-0.608 0.355-1.302 0.365-1.354 0.384-1.491 0.275-1.738-0.118-0.256-0.298-0.39-0.662-0.486-0.106-0.029-0.33-0.090-0.496-0.131-0.378-0.102-1.274-0.342-1.616-0.432-0.141-0.038-0.269-0.080-0.282-0.093-0.026-0.022-0.106-0.291-0.278-0.944-0.285-1.091-0.458-1.702-0.496-1.773-0.115-0.224-0.435-0.416-0.691-0.419-0.080 0-0.294 0.042-0.48 0.093-0.182 0.051-0.774 0.211-1.315 0.355l-0.982 0.262-0.986-0.986c-0.675-0.672-1.027-1.002-1.114-1.040-0.166-0.070-0.32-0.090-0.486-0.058zM16.672 7.248c0.819 0.096 1.472 0.288 2.182 0.64 1.712 0.848 2.954 2.429 3.382 4.304 0.211 0.918 0.202 2.102-0.029 2.979-0.595 2.285-2.365 4.058-4.64 4.637-0.499 0.128-0.813 0.166-1.456 0.179-0.835 0.013-1.434-0.074-2.182-0.326-1.974-0.662-3.568-2.365-4.106-4.378-0.17-0.637-0.208-0.986-0.205-1.763 0.006-1.501 0.522-2.883 1.517-4.064 0.896-1.059 2.304-1.891 3.581-2.112 0.061-0.010 0.118-0.022 0.128-0.029 0.022-0.013 0.275-0.045 0.627-0.080 0.259-0.026 0.944-0.019 1.2 0.013z"></path>
<path fill="#ff7900" d="M15.338 8.051c-2.522 0.291-4.541 2.282-4.89 4.826-0.045 0.317-0.045 1.242 0 1.491 0.157 0.918 0.416 1.606 0.861 2.291 0.899 1.379 2.403 2.32 4.003 2.502 0.262 0.032 1.206 0.029 1.434-0.003 1.84-0.256 3.44-1.402 4.262-3.056 0.56-1.123 0.723-2.355 0.477-3.619-0.272-1.402-1.174-2.736-2.397-3.539-1.104-0.73-2.429-1.043-3.75-0.893z"></path>
<path fill="#ff7900" d="M8.544 22.102c-0.166 0.288-0.362 0.63-0.435 0.755-0.074 0.128-0.237 0.41-0.365 0.63-0.125 0.221-0.262 0.458-0.304 0.528-0.144 0.253-0.874 1.51-1.056 1.824-0.102 0.176-0.218 0.378-0.256 0.448-0.042 0.070-0.176 0.304-0.301 0.522-0.214 0.374-0.221 0.39-0.138 0.371 0.048-0.013 0.762-0.192 1.59-0.4 0.826-0.208 1.51-0.365 1.52-0.349 0.010 0.013 0.189 0.726 0.4 1.581s0.39 1.555 0.4 1.555c0.010 0 0.189-0.291 0.4-0.65 0.211-0.355 0.464-0.784 0.56-0.95 0.099-0.166 0.307-0.515 0.458-0.778 0.589-0.998 0.832-1.408 1.286-2.182 0.259-0.442 0.509-0.864 0.554-0.944s0.115-0.198 0.157-0.266c0.045-0.070 0.074-0.128 0.067-0.134-0.006-0.003-0.269 0.064-0.586 0.147-1.030 0.282-1.437 0.381-1.6 0.394-0.582 0.045-1.248-0.333-1.51-0.861-0.054-0.109-0.186-0.531-0.298-0.96-0.112-0.422-0.211-0.778-0.221-0.79-0.010-0.010-0.157 0.218-0.323 0.509z"></path>
<path fill="#ff7900" d="M23.094 21.731c-0.029 0.096-0.090 0.317-0.134 0.493-0.275 1.040-0.326 1.174-0.579 1.453-0.358 0.4-0.922 0.598-1.43 0.509-0.093-0.016-0.541-0.131-0.998-0.256-0.458-0.122-0.867-0.23-0.909-0.237-0.045-0.010-0.090-0.022-0.106-0.032-0.013-0.010-0.026-0.010-0.026-0.003 0 0.013 1.226 2.106 2.141 3.654 0.134 0.227 0.49 0.829 0.787 1.334s0.55 0.909 0.563 0.896c0.010-0.013 0.195-0.717 0.406-1.568s0.39-1.552 0.397-1.558c0.006-0.006 0.723 0.166 1.594 0.384s1.584 0.394 1.587 0.39c0.003-0.003-0.118-0.224-0.272-0.486-0.454-0.781-1.366-2.358-1.434-2.48-0.070-0.125-0.938-1.626-1.13-1.952-0.067-0.115-0.186-0.32-0.266-0.461l-0.144-0.253-0.048 0.173z"></path>
</svg>
