<!-- Generated by IcoMoon.io -->
<svg version="1.1" xmlns="http://www.w3.org/2000/svg" width="32" height="32" viewBox="0 0 32 32">
<title>outbox</title>
<path fill="#ff7900" d="M15.728 2.419c-0.035 0.006-0.128 0.032-0.208 0.051-0.202 0.048-0.534 0.227-0.691 0.371-0.074 0.064-1.654 1.629-3.514 3.478-1.862 1.846-3.728 3.702-4.15 4.118l-0.765 0.762h4.8v4.886c0 3.181 0.013 4.96 0.032 5.091 0.154 0.931 0.81 1.664 1.75 1.949 0.17 0.051 0.413 0.054 2.938 0.061 2.976 0.010 2.931 0.010 3.386-0.166 0.243-0.093 0.627-0.355 0.826-0.563 0.269-0.282 0.448-0.592 0.586-1.014 0.067-0.211 0.067-0.214 0.077-5.229l0.006-5.014h4.8l-0.781-0.778c-0.432-0.426-2.275-2.259-4.099-4.070-1.824-1.814-3.392-3.366-3.482-3.45-0.205-0.189-0.477-0.355-0.701-0.422-0.17-0.051-0.688-0.090-0.81-0.061z"></path>
<path fill="#ff7900" d="M2.41 22.646c0.010 4.234 0.010 4.25 0.077 4.506 0.294 1.098 1.075 1.939 2.112 2.285 0.496 0.166-0.106 0.157 11.514 0.15l10.816-0.003 0.246-0.074c1.206-0.349 2.016-1.168 2.339-2.358 0.067-0.256 0.067-0.262 0.077-4.506l0.013-4.246h-4.003v7.2h-19.2v-7.2h-4l0.010 4.246z"></path>
</svg>
