<!-- Generated by IcoMoon.io -->
<svg version="1.1" xmlns="http://www.w3.org/2000/svg" width="32" height="32" viewBox="0 0 32 32">
<title>outdoor_sports_skiing</title>
<path fill="#ff7900" d="M26.256 4.47c-0.88 0.122-1.606 0.739-1.882 1.594-0.134 0.429-0.125 0.954 0.026 1.408 0.061 0.186 0.269 0.547 0.403 0.707 0.701 0.832 1.846 1.059 2.81 0.557 1.35-0.704 1.626-2.528 0.544-3.613-0.496-0.496-1.226-0.746-1.901-0.653z"></path>
<path fill="#ff7900" d="M10.339 4.598c-0.362 0.070-0.454 0.56-0.157 0.829 0.038 0.038 0.586 0.365 1.21 0.723 0.624 0.362 1.28 0.739 1.456 0.842s0.371 0.211 0.432 0.246c0.061 0.035 0.342 0.198 0.624 0.362 0.742 0.432 2.122 1.229 2.285 1.322 0.080 0.045 0.218 0.122 0.304 0.176 0.090 0.051 0.227 0.131 0.307 0.176s0.17 0.096 0.202 0.118c0.048 0.035-0.109 0.134-1.216 0.771-0.938 0.538-1.322 0.778-1.453 0.902-0.39 0.365-0.547 0.976-0.381 1.466 0.074 0.218 0.026 0.131 2.221 3.926 0.314 0.541 0.566 0.989 0.56 0.995s-0.394 0.23-0.861 0.499c-0.467 0.269-1.36 0.784-1.984 1.146-2.285 1.322-2.173 1.258-2.243 1.222-0.035-0.019-0.637-0.368-1.334-0.774s-1.312-0.765-1.366-0.794c-0.051-0.032-0.182-0.106-0.288-0.166-0.518-0.301-1.152-0.669-2.128-1.235-0.589-0.346-1.2-0.698-1.354-0.787-0.157-0.090-0.307-0.179-0.336-0.195-0.541-0.32-0.752-0.371-1.12-0.275-0.198 0.054-0.451 0.278-0.563 0.49-0.179 0.352-0.109 0.819 0.166 1.104 0.054 0.054 0.234 0.179 0.397 0.275 0.24 0.141 5.917 3.424 7.13 4.125 1.037 0.598 3.037 1.757 3.28 1.898 0.16 0.093 0.656 0.381 1.104 0.64s0.947 0.547 1.104 0.64c0.16 0.093 0.771 0.445 1.36 0.784s1.238 0.714 1.44 0.832c0.438 0.259 2.982 1.728 3.139 1.814 0.467 0.262 1.069 0.090 1.325-0.378 0.070-0.134 0.096-0.224 0.106-0.419 0.013-0.23 0.006-0.266-0.086-0.454-0.125-0.256-0.218-0.336-0.694-0.608-0.208-0.122-0.509-0.294-0.669-0.387-0.23-0.138-5.216-3.014-5.568-3.216-0.051-0.029-0.378-0.218-0.72-0.416s-0.963-0.554-1.376-0.794c-0.413-0.237-0.794-0.458-0.845-0.486l-0.093-0.058 0.077-0.048c0.061-0.038 3.382-1.958 5.002-2.89 0.448-0.259 0.669-0.464 0.81-0.755 0.208-0.426 0.208-0.845 0.006-1.29-0.051-0.112-0.755-2.006-0.829-2.224-0.016-0.045-0.086-0.237-0.157-0.432-0.070-0.192-0.125-0.352-0.122-0.352 0.003-0.003 0.253-0.128 0.55-0.282 0.301-0.15 0.736-0.374 0.973-0.496l0.429-0.221 0.819 0.47c0.451 0.259 0.886 0.506 0.963 0.55 0.080 0.045 0.778 0.442 1.549 0.886 0.771 0.442 1.472 0.822 1.552 0.845 0.438 0.128 0.922-0.096 1.133-0.522 0.054-0.115 0.070-0.198 0.070-0.416 0-0.24-0.010-0.291-0.093-0.438-0.048-0.090-0.128-0.202-0.176-0.246-0.090-0.086-2.816-1.674-3.418-1.99-0.198-0.102-0.362-0.195-0.362-0.205s0.278-0.166 0.618-0.349c0.944-0.512 1.146-0.659 1.325-0.957 0.074-0.125 0.090-0.189 0.090-0.374 0-0.272 0.026-0.214-0.659-1.408-0.566-0.986-0.704-1.187-0.918-1.347-0.387-0.298-1.005-0.339-1.43-0.096-0.528 0.304-1.811 1.043-2.538 1.466-0.771 0.445-0.883 0.502-0.944 0.47-0.038-0.019-0.198-0.112-0.358-0.205-0.157-0.093-1.606-0.931-3.216-1.859s-3.094-1.786-3.296-1.901c-0.483-0.278-0.557-0.304-0.765-0.266z"></path>
</svg>
