<!-- Generated by IcoMoon.io -->
<svg version="1.1" xmlns="http://www.w3.org/2000/svg" width="32" height="32" viewBox="0 0 32 32">
<title>outdoor_sports_mountain_biking</title>
<path fill="#ff7900" d="M16.384 4.051c-0.534 0.112-1.075 0.522-1.322 0.995-0.589 1.13-0.064 2.432 1.152 2.861 0.246 0.086 0.749 0.109 1.034 0.045 1.274-0.291 1.933-1.699 1.344-2.867-0.4-0.794-1.322-1.226-2.208-1.034z"></path>
<path fill="#ff7900" d="M13.632 8.048c-0.253 0.070-0.483 0.189-0.653 0.339-0.154 0.134-3.376 4.144-3.542 4.41-0.122 0.189-0.186 0.403-0.208 0.71-0.038 0.461 0.122 0.877 0.464 1.21 0.218 0.214 0.154 0.173 4.282 2.653l0.838 0.502 0.019 4.416 0.099 0.208c0.128 0.266 0.326 0.464 0.589 0.589 0.186 0.086 0.24 0.099 0.496 0.099s0.31-0.013 0.496-0.099c0.266-0.128 0.464-0.326 0.589-0.589l0.099-0.208 0.010-2.592c0.006-1.664-0.003-2.646-0.026-2.742-0.077-0.358-0.218-0.538-0.752-0.954-1.504-1.174-3.328-2.637-3.325-2.669 0.006-0.054 1.802-2.294 1.83-2.278 0.013 0.006 0.275 0.115 0.582 0.243s0.624 0.259 0.701 0.294c0.080 0.035 0.195 0.083 0.256 0.106 0.064 0.022 1.088 0.448 2.275 0.944s2.227 0.918 2.31 0.938c0.314 0.074 0.675-0.090 0.848-0.384 0.074-0.128 0.090-0.189 0.090-0.394s-0.013-0.262-0.086-0.387c-0.048-0.080-0.134-0.182-0.192-0.227-0.202-0.15-7.018-4.035-7.194-4.096-0.237-0.086-0.666-0.106-0.896-0.042z"></path>
<path fill="#ff7900" d="M23.024 15.235c-1.699 0.23-3.094 1.274-3.798 2.829-0.131 0.294-0.253 0.678-0.336 1.072-0.086 0.406-0.077 1.37 0.019 1.802 0.278 1.296 1.002 2.365 2.067 3.066 1.741 1.142 4.026 1.040 5.626-0.253 1.622-1.309 2.23-3.462 1.52-5.398-0.582-1.587-1.99-2.778-3.642-3.072-0.362-0.064-1.142-0.090-1.456-0.045zM24.25 16.867c1.222 0.253 2.179 1.174 2.474 2.381 0.413 1.706-0.64 3.434-2.355 3.859-0.384 0.096-0.973 0.109-1.363 0.029-1.258-0.259-2.192-1.165-2.512-2.432-0.093-0.362-0.083-1.069 0.016-1.453 0.285-1.094 1.059-1.936 2.106-2.288 0.486-0.163 1.12-0.202 1.635-0.096z"></path>
<path fill="#ff7900" d="M7.814 19.238c-2.067 0.266-3.747 1.856-4.122 3.907-0.026 0.144-0.058 0.448-0.067 0.678-0.096 2.227 1.398 4.243 3.574 4.816 0.442 0.115 0.691 0.144 1.216 0.144 0.506 0 0.765-0.029 1.168-0.131 1.798-0.451 3.152-1.872 3.539-3.709 0.099-0.47 0.106-1.312 0.016-1.792-0.346-1.856-1.725-3.341-3.517-3.792-0.198-0.048-0.416-0.099-0.486-0.109-0.23-0.035-1.082-0.045-1.322-0.013zM9.216 20.906c0.403 0.115 0.646 0.224 0.954 0.429 0.714 0.474 1.206 1.197 1.376 2.029 0.33 1.584-0.602 3.174-2.154 3.68-0.506 0.166-1.232 0.192-1.728 0.064-1.235-0.32-2.134-1.254-2.378-2.477-0.211-1.056 0.102-2.099 0.864-2.88 0.467-0.474 1.085-0.797 1.738-0.906 0.378-0.064 0.986-0.035 1.328 0.061z"></path>
</svg>
