<!-- Generated by IcoMoon.io -->
<svg version="1.1" xmlns="http://www.w3.org/2000/svg" width="32" height="32" viewBox="0 0 32 32">
<title>Package</title>
<path fill="#ff7900" d="M5.206 4.048c-0.582 0.16-1.053 0.653-1.171 1.226-0.026 0.122-0.035 3.149-0.035 10.752 0 11.533-0.013 10.71 0.179 11.107 0.115 0.234 0.454 0.573 0.688 0.688 0.397 0.192-0.426 0.179 11.107 0.179 7.603 0 10.63-0.010 10.752-0.035 0.531-0.112 0.982-0.506 1.184-1.040l0.074-0.189 0.006-10.672c0.006-9.171 0.003-10.698-0.038-10.845-0.157-0.592-0.64-1.059-1.226-1.184-0.269-0.058-21.312-0.045-21.52 0.013zM12.8 8.71c0 1.274 0 2.352 0 2.403 0 0.080 0.118-0.003 1.6-1.114l1.6-1.2 3.2 2.4v-4.8h6.4v19.2h-19.2v-19.2h6.4v2.31z"></path>
<path fill="#ff7900" d="M15.482 15.331c-0.064 0.077-0.691 0.797-1.392 1.597l-1.277 1.456 0.794 0.010 0.794 0.006v3.2h2.4v-3.2h1.6l-1.254-1.434c-0.691-0.79-1.322-1.51-1.402-1.603l-0.144-0.17-0.118 0.138z"></path>
<path fill="#ff7900" d="M21.923 15.286c-0.042 0.048-0.118 0.141-0.173 0.202-0.058 0.061-0.246 0.278-0.422 0.48s-0.365 0.419-0.419 0.48c-0.128 0.144-0.413 0.467-0.522 0.592-0.045 0.051-0.333 0.381-0.637 0.726l-0.55 0.634h1.6v3.2h2.4v-3.2h1.6l-1.030-1.178c-0.563-0.646-1.11-1.267-1.21-1.382s-0.25-0.288-0.336-0.384c-0.246-0.285-0.224-0.272-0.301-0.17z"></path>
<path fill="#ff7900" d="M14.4 23.2v0.8h8.8v-1.6h-8.8v0.8z"></path>
</svg>
