<!-- Generated by IcoMoon.io -->
<svg version="1.1" xmlns="http://www.w3.org/2000/svg" width="32" height="32" viewBox="0 0 32 32">
<title>Package_content</title>
<path fill="#ff7900" d="M9.613 5.606c-0.022 0.035-0.016 14.451 0.006 14.598 0.054 0.362 0.195 0.65 0.445 0.902 0.202 0.205 0.374 0.31 0.621 0.381 0.214 0.064 0.349 0.077 0.861 0.096 0.355 0.013 0.454 0.010 0.454-0.022 0-0.022-0.029-0.122-0.061-0.221-0.099-0.294-0.131-0.63-0.093-0.95 0.048-0.413 0.093-0.538 0.678-1.942l0.24-0.576-0.112-0.038c-0.16-0.058-0.448-0.256-0.56-0.39-0.246-0.298-0.358-0.71-0.291-1.091 0.115-0.666 0.669-1.13 1.338-1.123l0.23 0.003-0.003-2.32c0-1.402 0.010-2.333 0.029-2.349 0.016-0.013 0.627-0.182 1.36-0.374l1.334-0.349 0.224-0.544c0.125-0.298 0.442-1.062 0.704-1.696s0.502-1.2 0.531-1.258c0.144-0.282 0.464-0.467 0.742-0.432 0.218 0.026 0.214 0.022 2.189 0.842 1.603 0.666 1.853 0.768 1.878 0.768 0.042 0 0.016-0.477-0.042-0.71-0.048-0.202-0.198-0.49-0.349-0.669-0.099-0.118-0.336-0.301-0.493-0.381-0.365-0.182 0.035-0.173-6.157-0.173-3.133-0.003-5.699 0.006-5.706 0.019z"></path>
<path fill="#ff7900" d="M17.587 8.57c-0.368 0.893-0.694 1.68-0.726 1.75s-0.163 0.387-0.294 0.704c-0.589 1.427-1.024 2.477-1.414 3.424-0.234 0.563-0.634 1.526-0.89 2.144-0.256 0.614-0.701 1.696-0.992 2.4-0.294 0.704-0.554 1.366-0.582 1.472-0.138 0.531 0.013 1.088 0.403 1.485 0.237 0.243 0.31 0.278 1.693 0.851 1.466 0.608 2.992 1.238 4.864 2.016 0.835 0.346 2.061 0.854 2.72 1.126s1.283 0.531 1.386 0.576c0.099 0.045 0.192 0.077 0.202 0.067 0.006-0.010 0.525-1.254 1.152-2.765 0.624-1.514 1.219-2.95 1.325-3.197 0.102-0.246 0.339-0.816 0.522-1.264 0.186-0.448 0.829-2.003 1.43-3.456s1.114-2.726 1.136-2.832c0.163-0.675-0.112-1.354-0.698-1.725-0.090-0.058-0.995-0.448-2.006-0.864-1.642-0.678-1.952-0.81-2.32-0.963-0.051-0.022-0.643-0.269-1.312-0.544s-2.048-0.848-3.062-1.267c-1.014-0.419-1.85-0.765-1.856-0.765s-0.31 0.733-0.678 1.626zM21.974 12.57c0.058 0.042 0.432 0.614 1.034 1.581 0.845 1.363 0.941 1.53 0.954 1.674 0.010 0.118-0.029 0.326-0.138 0.784-0.083 0.342-0.16 0.682-0.166 0.752l-0.016 0.128 0.525 0.122c1.206 0.285 1.341 0.32 1.44 0.384 0.16 0.112 0.218 0.214 0.224 0.394 0.013 0.282-0.214 0.525-0.48 0.525-0.077 0-1.254-0.262-2.346-0.522-0.246-0.061-0.39-0.157-0.461-0.307-0.061-0.138-0.054-0.294 0.029-0.63 0.115-0.454 0.182-0.755 0.173-0.765-0.006-0.006-0.141 0.070-0.298 0.166-0.16 0.099-0.438 0.275-0.624 0.387-0.186 0.115-0.355 0.227-0.378 0.246-0.032 0.029 0.090 0.246 0.592 1.059 0.912 1.469 0.912 1.469 0.928 1.622 0.013 0.157-0.077 0.342-0.224 0.451-0.134 0.099-0.374 0.086-0.934-0.051-0.262-0.067-0.826-0.198-1.248-0.298-1.776-0.413-1.744-0.403-1.875-0.634-0.16-0.291 0.038-0.672 0.374-0.717 0.125-0.016 0.467 0.051 1.645 0.33 0.256 0.061 0.499 0.118 0.541 0.128 0.099 0.022 0.090 0-0.16-0.394-0.109-0.173-0.214-0.342-0.234-0.378s-0.221-0.362-0.448-0.726l-0.413-0.666-0.099 0.061c-0.301 0.186-0.832 0.515-1.277 0.794-0.278 0.173-0.566 0.352-0.64 0.397s-0.653 0.403-1.286 0.797c-1.178 0.726-1.36 0.819-1.578 0.781-0.138-0.026-0.31-0.205-0.349-0.358-0.058-0.23 0.032-0.429 0.266-0.586 0.109-0.077 1.203-0.758 2.173-1.357 1.962-1.213 4.842-3.008 4.87-3.037 0.038-0.035-0.045-0.192-0.48-0.874l-0.086-0.134-0.518 0.323c-1.098 0.685-1.181 0.73-1.331 0.73-0.304 0-0.502-0.202-0.502-0.509 0-0.131 0.019-0.205 0.070-0.275 0.061-0.090 0.797-0.566 1.914-1.242 0.4-0.243 0.422-0.253 0.579-0.24 0.096 0.010 0.202 0.042 0.259 0.083zM25.232 12.976c0.41 0.182 0.675 0.694 0.576 1.12-0.112 0.49-0.522 0.829-0.992 0.822-0.227 0-0.4-0.054-0.582-0.176-0.618-0.422-0.573-1.373 0.080-1.728 0.291-0.157 0.621-0.173 0.918-0.038z"></path>
<path fill="#ff7900" d="M8.512 9.133c-0.15 0.058-1.293 0.531-2.544 1.050-1.248 0.522-2.63 1.091-3.072 1.274-0.438 0.179-0.806 0.333-0.813 0.336-0.003 0.006 0.083 0.234 0.198 0.502s0.483 1.158 0.822 1.978c0.339 0.819 0.736 1.782 0.886 2.144s0.32 0.771 0.378 0.912c0.086 0.218 1.117 2.707 2.806 6.784 0.47 1.136 0.534 1.261 0.781 1.507 0.317 0.317 0.701 0.464 1.152 0.445 0.288-0.016 0.454-0.070 1.402-0.464 0.797-0.333 2.762-1.149 3.898-1.619 0.298-0.122 0.538-0.23 0.538-0.24s-0.054-0.042-0.118-0.067c-0.067-0.029-0.394-0.16-0.73-0.298-0.714-0.288-0.979-0.429-1.373-0.726-0.224-0.166-0.317-0.218-0.403-0.221-0.061 0-0.394-0.006-0.736-0.013-0.694-0.010-1.062-0.054-1.386-0.163-0.576-0.192-1.014-0.618-1.251-1.206-0.109-0.275-0.205-0.64-0.23-0.896-0.013-0.109-0.026-0.221-0.032-0.246-0.003-0.026-0.010-0.058-0.010-0.070-0.003-0.013-0.086-0.080-0.186-0.147-0.352-0.24-0.595-0.554-0.845-1.082l-0.157-0.333h-0.157c-0.218 0-0.611-0.109-0.845-0.23-0.275-0.147-0.65-0.528-0.781-0.797-0.294-0.598-0.278-1.264 0.042-1.837 0.122-0.211 0.467-0.557 0.685-0.678 0.41-0.234 0.947-0.314 1.382-0.214l0.189 0.045 0.237-0.246c0.128-0.138 0.32-0.314 0.426-0.394l0.195-0.144-0.016-1.040c-0.010-0.573-0.022-1.299-0.029-1.616s-0.013-0.918-0.016-1.338c-0.003-0.416-0.006-0.758-0.010-0.758-0.003 0.003-0.128 0.051-0.278 0.109z"></path>
<path fill="#ff7900" d="M14.784 12.093l-0.304 0.083-0.010 0.781c-0.003 0.432-0.003 0.778 0.006 0.768 0.006-0.006 0.166-0.387 0.355-0.845s0.349-0.842 0.358-0.858c0.022-0.038-0.086-0.019-0.406 0.070z"></path>
</svg>
