<!-- Generated by IcoMoon.io -->
<svg version="1.1" xmlns="http://www.w3.org/2000/svg" width="32" height="32" viewBox="0 0 32 32">
<title>parabole_tv</title>
<path fill="#ff7900" d="M6.499 5.331c-0.451 1.283-0.733 2.624-0.829 3.933-0.045 0.64-0.019 2.41 0.042 2.72 0.006 0.035 0.022 0.144 0.032 0.24 0.205 1.965 0.973 4.221 2.048 6.003 0.323 0.531 0.71 1.101 0.95 1.392 0.067 0.083 0.122 0.163 0.122 0.182 0 0.016-0.086 0.118-0.195 0.227l-0.195 0.195 0.083 0.099c0.099 0.118 0.106 0.208 0.016 0.304l-0.064 0.070 0.070 0.067 0.074 0.067-0.659 0.666c-0.669 0.672-0.816 0.858-0.902 1.123-0.070 0.218-0.077 0.387-0.080 2.406l-0.003 1.846-0.096 0.038c-0.176 0.074-0.192 0.128-0.192 0.63v0.458h2.080v-0.458c0-0.512-0.019-0.566-0.208-0.63l-0.112-0.038v-1.85c0-1.014 0.010-1.898 0.022-1.955 0.016-0.086 0.141-0.234 0.579-0.675l0.563-0.57 0.067 0.064 0.070 0.064 0.074-0.064c0.096-0.083 0.166-0.080 0.282 0.013l0.093 0.080 0.17-0.173 0.17-0.17 0.323 0.278c2.458 2.138 5.517 3.405 8.835 3.674 0.413 0.032 1.987 0.032 2.4 0 1.456-0.118 2.634-0.368 3.968-0.845 0.176-0.064 0.323-0.118 0.33-0.122 0.003-0.003-0.083-0.221-0.195-0.486-1.222-2.858-3.133-6.038-5.117-8.515l-0.314-0.39v-4.8h-4.774l-0.454-0.362c-1.702-1.366-3.616-2.618-5.667-3.709-0.902-0.483-2.371-1.165-3.046-1.421l-0.195-0.074-0.163 0.464zM8.65 7.133c0.534 0.275 0.998 0.525 1.571 0.848 0.963 0.547 2.458 1.533 3.408 2.25l0.269 0.202h-0.221c-0.915 0.006-3.446 0-3.453-0.006-0.122-0.166-0.691-1.018-0.96-1.437-0.317-0.493-1.008-1.642-1.008-1.674 0-0.006-0.058-0.112-0.128-0.23-0.122-0.211-0.147-0.269-0.112-0.269 0.010 0 0.294 0.141 0.634 0.317zM18.752 11.574c0 0.010-0.925 0.947-2.054 2.080l-2.054 2.058-0.237-0.25c-0.301-0.314-0.877-0.931-1.062-1.139-0.080-0.090-0.195-0.221-0.259-0.291s-0.16-0.179-0.208-0.24c-0.051-0.061-0.099-0.118-0.112-0.128-0.106-0.086-1.581-1.91-1.674-2.074-0.019-0.029 0.755-0.038 3.818-0.038 2.115 0 3.843 0.010 3.843 0.022zM19.706 18.208l-0.010 1.92-0.179-0.134c-0.099-0.077-0.234-0.179-0.304-0.234-0.486-0.371-1.69-1.35-1.997-1.629-0.080-0.074-0.253-0.224-0.384-0.339s-0.333-0.294-0.448-0.4c-0.39-0.365-0.614-0.576-0.726-0.682l-0.109-0.106 4.147-4.16 0.010 1.923c0.003 1.056 0.003 2.784 0 3.84zM21.421 18.25c0.717 1.002 1.485 2.205 2.122 3.318 0.304 0.534 0.397 0.701 0.778 1.421l0.17 0.314-0.157-0.090c-0.89-0.509-2.147-1.296-2.989-1.875l-0.528-0.362-0.010-1.789-0.006-1.789 0.106 0.141c0.061 0.077 0.291 0.397 0.515 0.71z"></path>
</svg>
