<!-- Generated by IcoMoon.io -->
<svg version="1.1" xmlns="http://www.w3.org/2000/svg" width="32" height="32" viewBox="0 0 32 32">
<title>parental_control</title>
<path fill="#ff7900" d="M15.68 2.611c-0.65 0.445-1.67 1.014-2.368 1.325-0.166 0.074-0.381 0.17-0.474 0.211-0.934 0.422-2.518 0.906-3.654 1.114-0.15 0.029-0.342 0.067-0.432 0.083-0.086 0.016-0.23 0.038-0.32 0.048-0.086 0.010-0.195 0.026-0.24 0.032-0.16 0.029-0.95 0.109-1.264 0.128-0.176 0.013-0.39 0.026-0.48 0.032-0.086 0.006-0.496 0.013-0.906 0.013l-0.746 0.003 0.013 4.966c0.006 2.733 0.022 5.005 0.029 5.050 0.010 0.045 0.026 0.179 0.038 0.304 0.099 1.088 0.362 2.342 0.73 3.472 1.114 3.424 3.248 6.269 6.154 8.202 1.181 0.787 2.374 1.373 3.795 1.862l0.435 0.15 0.381-0.128c1.987-0.659 4.010-1.802 5.421-3.062 1.162-1.040 1.968-1.965 2.758-3.168 1.13-1.715 1.949-3.738 2.342-5.76 0.112-0.579 0.147-0.81 0.208-1.392 0.019-0.166 0.045-0.362 0.054-0.432 0.013-0.070 0.029-2.365 0.035-5.098l0.013-4.966-0.746-0.003c-0.41 0-0.816-0.006-0.906-0.013-0.086-0.006-0.317-0.019-0.512-0.032-0.192-0.010-0.39-0.026-0.442-0.029-0.048-0.006-0.176-0.022-0.288-0.032-0.208-0.022-0.611-0.074-0.774-0.102-0.051-0.006-0.182-0.029-0.288-0.045-0.765-0.118-1.875-0.397-2.755-0.691-0.365-0.122-1.258-0.464-1.533-0.589-0.979-0.442-1.859-0.928-2.678-1.478-0.157-0.102-0.285-0.186-0.288-0.182-0.006 0-0.147 0.093-0.314 0.208zM16.448 6.413c0.64 0.074 1.29 0.346 1.798 0.752 1.498 1.19 1.805 3.331 0.704 4.899-0.080 0.115-0.269 0.33-0.419 0.48-0.784 0.778-1.814 1.133-2.931 1.011-1.219-0.134-2.32-0.928-2.848-2.058-0.24-0.515-0.336-0.995-0.32-1.626 0.019-0.781 0.243-1.424 0.71-2.048 0.774-1.027 2.016-1.558 3.306-1.411zM13.402 13.52c0.707 0.528 1.642 0.845 2.515 0.858 0.477 0.003 0.755-0.029 1.194-0.138 0.579-0.147 1.126-0.416 1.616-0.794l0.182-0.141 0.218 0.134c1.149 0.72 1.904 1.91 2.058 3.248 0.026 0.221 0.032 0.947 0.022 2.336l-0.013 2.016-0.083 0.387c-0.346 1.571-1.29 2.822-2.691 3.565-1.088 0.576-2.384 0.736-3.619 0.445-1.715-0.4-3.146-1.709-3.709-3.398-0.256-0.762-0.275-1.011-0.272-3.302 0-1.523 0.010-1.981 0.048-2.208 0.154-0.941 0.534-1.715 1.174-2.381 0.272-0.282 0.483-0.458 0.797-0.659 0.144-0.096 0.269-0.176 0.275-0.176 0.003 0 0.134 0.093 0.288 0.208z"></path>
<path fill="#ff7900" d="M14.56 16.019c-0.515 0.138-0.941 0.611-1.034 1.149-0.173 1.005 0.784 1.898 1.754 1.635 0.97-0.259 1.395-1.366 0.845-2.192-0.346-0.515-0.966-0.752-1.565-0.592z"></path>
<path fill="#ff7900" d="M13.52 19.018c-0.282 0.208-0.512 0.538-0.643 0.918-0.054 0.157-0.061 0.282-0.061 1.216 0 0.925 0.006 1.062 0.061 1.232 0.275 0.896 1.043 1.517 1.936 1.574 1.11 0.070 2.070-0.688 2.272-1.798 0.022-0.112 0.035-0.56 0.035-1.062-0.003-0.771-0.013-0.899-0.067-1.104-0.077-0.275-0.234-0.566-0.403-0.749-0.125-0.131-0.416-0.365-0.458-0.365-0.013 0-0.115 0.061-0.227 0.138-0.614 0.41-1.43 0.406-2.070-0.010l-0.195-0.125-0.179 0.134z"></path>
</svg>
