<!-- Generated by IcoMoon.io -->
<svg version="1.1" xmlns="http://www.w3.org/2000/svg" width="32" height="32" viewBox="0 0 32 32">
<title>Parrasol</title>
<path fill="#ff7900" d="M12.336 2.451c-0.883 0.083-1.923 0.291-2.752 0.55l-0.288 0.090-1.158 2.31 2.586 2.586c1.514 1.514 2.608 2.586 2.637 2.579 0.026-0.006 0.547-0.259 1.158-0.566l1.114-0.56 0.576 0.576-0.57 1.136c-0.31 0.624-0.566 1.149-0.566 1.162s1.034 1.056 2.294 2.32c2.198 2.198 2.301 2.294 2.378 2.262 0.045-0.019 0.554-0.272 1.133-0.56 0.579-0.291 1.069-0.528 1.088-0.528s0.16 0.125 0.31 0.275l0.278 0.275-0.573 1.146c-0.314 0.63-0.573 1.152-0.573 1.162 0 0.006 1.165 1.178 2.592 2.602l2.589 2.592 2.304-1.152 0.112-0.355c0.061-0.192 0.157-0.534 0.211-0.758 0.109-0.445 0.115-0.47 0.16-0.73 0.016-0.096 0.045-0.262 0.064-0.368 0.016-0.106 0.042-0.266 0.051-0.352 0.006-0.090 0.022-0.189 0.029-0.224 0.083-0.406 0.086-2.474 0.003-3.152-0.173-1.472-0.496-2.755-1.018-4.064-0.323-0.81-0.842-1.853-1.19-2.4-0.042-0.061-0.134-0.214-0.211-0.336-0.378-0.602-1.078-1.536-1.546-2.058l-0.157-0.173 0.349-0.349c0.218-0.221 0.371-0.403 0.416-0.499 0.246-0.525-0.15-1.142-0.73-1.139-0.288 0.003-0.442 0.093-0.845 0.49l-0.358 0.352-0.061-0.067c-0.080-0.090-0.746-0.627-1.149-0.928-1.267-0.947-2.88-1.798-4.448-2.342-1.232-0.432-2.422-0.682-3.888-0.819-0.445-0.042-1.834-0.032-2.352 0.016z"></path>
<path fill="#ff7900" d="M9.29 21.552l-6.89 6.893 0.576 0.579 0.576 0.576 6.896-6.899c3.792-3.795 6.896-6.906 6.896-6.915 0-0.035-1.104-1.13-1.136-1.13-0.016 0-3.133 3.104-6.918 6.896z"></path>
</svg>
