<!-- Generated by IcoMoon.io -->
<svg version="1.1" xmlns="http://www.w3.org/2000/svg" width="32" height="32" viewBox="0 0 32 32">
<title>pass_video</title>
<path fill="#ff7900" d="M4.010 13.414c0.006 11.331 0.010 11.824 0.067 12.010 0.218 0.717 0.707 1.286 1.357 1.571l0.166 0.077v-23.872l20.8-0.016-0.099-0.205c-0.291-0.624-0.858-1.098-1.549-1.306-0.182-0.054-0.691-0.058-10.474-0.067l-10.278-0.006 0.010 11.814z"></path>
<path fill="#ff7900" d="M6.4 15.67c0 7.587 0.013 11.75 0.032 11.894 0.118 0.8 0.675 1.52 1.43 1.84 0.474 0.205-0.31 0.189 10.803 0.192l10.134 0.003-0.003-11.734c-0.003-10.288-0.010-11.766-0.051-11.962-0.205-0.96-1.002-1.722-1.955-1.869-0.16-0.026-3.136-0.035-10.307-0.035h-10.083v11.67zM10.4 6.8v1.2h-2.4v-2.4h2.4v1.2zM22.672 5.654c0.093 0.029 0.211 0.106 0.288 0.186 0.259 0.256 0.24-0.112 0.24 4.944 0 5.053 0.016 4.71-0.234 4.97-0.262 0.269 0.179 0.25-5.434 0.24l-4.979-0.010-0.154-0.096c-0.17-0.106-0.31-0.285-0.365-0.467-0.026-0.080-0.035-1.478-0.035-4.627 0-5.018-0.016-4.675 0.218-4.938 0.083-0.093 0.173-0.15 0.294-0.192 0.17-0.061 0.358-0.061 5.091-0.064 4.49 0 4.928 0.003 5.069 0.054zM27.2 6.8v1.2h-2.4v-2.4h2.4v1.2zM10.4 10.8v1.2h-2.4v-2.4h2.4v1.2zM27.2 10.8v1.2h-2.4v-2.4h2.4v1.2zM10.4 14.8v1.2h-2.4v-2.4h2.4v1.2zM27.2 14.8v1.2h-2.4v-2.4h2.4v1.2zM10.4 18.8v1.2h-2.4v-2.4h2.4v1.2zM22.662 17.645c0.179 0.064 0.365 0.227 0.448 0.397l0.074 0.15 0.010 4.544c0.006 3.958 0 4.563-0.042 4.707-0.051 0.182-0.218 0.381-0.4 0.48-0.109 0.058-0.269 0.061-5.088 0.070-5.59 0.010-5.165 0.026-5.424-0.234-0.259-0.256-0.24 0.115-0.24-4.944 0-5.062-0.016-4.72 0.237-4.976 0.256-0.253-0.173-0.234 5.363-0.237 4.003 0 4.966 0.006 5.062 0.042zM27.2 18.8v1.2h-2.4v-2.4h2.4v1.2zM10.4 22.8v1.2h-2.4v-2.4h2.4v1.2zM27.2 22.8v1.2h-2.4v-2.4h2.4v1.2zM10.4 26.8v1.2h-2.4v-2.4h2.4v1.2zM27.2 26.8v1.2h-2.4v-2.4h2.4v1.2z"></path>
</svg>
