<!-- Generated by IcoMoon.io -->
<svg version="1.1" xmlns="http://www.w3.org/2000/svg" width="32" height="32" viewBox="0 0 32 32">
<title>Payment_euro</title>
<path fill="#ff7900" d="M3.2 16v8h25.6v-16h-25.6v8zM24.8 9.712c0 0.064 0.022 0.227 0.051 0.362 0.214 1.043 1.078 1.818 2.144 1.917l0.205 0.019v7.981l-0.221 0.022c-1.123 0.112-1.997 0.957-2.16 2.083-0.006 0.051-0.016 0.144-0.016 0.198l-0.003 0.106h-17.6v-0.122c-0.003-0.378-0.23-0.998-0.49-1.328-0.371-0.474-0.934-0.822-1.453-0.902-0.067-0.013-0.15-0.026-0.186-0.032s-0.112-0.013-0.166-0.013l-0.106-0.003v-7.99l0.234-0.022c0.23-0.022 0.653-0.141 0.838-0.234 0.605-0.314 1.104-0.931 1.248-1.555 0.064-0.282 0.074-0.342 0.077-0.48l0.003-0.118h17.6v0.112z"></path>
<path fill="#ff7900" d="M15.488 11.222c-0.262 0.029-0.768 0.144-1.037 0.237-1.715 0.592-2.941 2.070-3.203 3.869-0.054 0.384-0.042 1.168 0.029 1.536 0.32 1.706 1.546 3.126 3.171 3.677 0.806 0.272 1.77 0.326 2.592 0.144 1.018-0.224 2.038-0.851 2.656-1.629 0.070-0.090 0.138-0.166 0.147-0.176 0.013-0.010 0.090-0.122 0.173-0.253 0.39-0.602 0.64-1.277 0.746-1.997 0.045-0.317 0.022-1.171-0.038-1.494-0.266-1.405-1.139-2.624-2.384-3.325-0.701-0.397-1.402-0.582-2.227-0.595-0.282-0.003-0.563 0-0.624 0.006zM16.851 13.008c0.611 0.074 1.136 0.442 1.398 0.982 0.186 0.381 0.157 0.602-0.102 0.771-0.102 0.067-0.154 0.083-0.278 0.070-0.208-0.016-0.294-0.090-0.464-0.403-0.25-0.458-0.506-0.595-1.072-0.566-0.509 0.022-0.864 0.259-1.085 0.714-0.061 0.122-0.118 0.259-0.128 0.304l-0.019 0.080 1.050-0.003c0.762-0.003 1.075 0.006 1.146 0.035 0.262 0.106 0.317 0.547 0.093 0.755l-0.083 0.077-2.33 0.019v0.442l0.989 0.010c0.938 0.010 0.992 0.013 1.059 0.074 0.208 0.189 0.163 0.63-0.074 0.707-0.038 0.013-0.474 0.026-0.966 0.029l-0.896 0.003 0.010 0.077c0.016 0.16 0.198 0.47 0.368 0.63 0.259 0.246 0.454 0.31 0.95 0.31 0.339 0.003 0.422-0.010 0.544-0.064 0.195-0.090 0.336-0.237 0.461-0.49 0.141-0.278 0.205-0.33 0.413-0.349 0.291-0.022 0.566 0.182 0.566 0.422 0 0.218-0.298 0.714-0.566 0.941-0.614 0.528-1.891 0.589-2.659 0.128-0.288-0.176-0.595-0.531-0.774-0.902-0.086-0.179-0.176-0.406-0.198-0.509-0.022-0.099-0.048-0.182-0.058-0.186s-0.102-0.006-0.208-0.010c-0.109-0.003-0.237-0.026-0.291-0.045-0.202-0.083-0.272-0.384-0.141-0.595 0.077-0.128 0.202-0.179 0.432-0.179h0.163v-0.224l-0.003-0.224h-0.17c-0.224 0-0.371-0.070-0.438-0.214-0.067-0.141-0.070-0.282-0.006-0.432 0.074-0.176 0.179-0.227 0.458-0.23l0.237-0.003 0.064-0.224c0.15-0.509 0.355-0.883 0.627-1.155 0.49-0.49 1.133-0.678 1.984-0.573z"></path>
<path fill="#ff7900" d="M8.176 14.829c-1.056 0.202-1.325 1.603-0.416 2.179 0.614 0.39 1.414 0.15 1.731-0.518 0.23-0.49 0.058-1.142-0.39-1.459-0.285-0.198-0.582-0.266-0.925-0.202z"></path>
<path fill="#ff7900" d="M23.472 14.806c-0.509 0.086-0.864 0.381-1.008 0.838-0.109 0.349-0.064 0.691 0.134 1.002 0.509 0.803 1.728 0.698 2.106-0.179 0.221-0.515 0.022-1.168-0.442-1.462-0.23-0.144-0.582-0.234-0.79-0.198z"></path>
</svg>
