<!-- Generated by IcoMoon.io -->
<svg version="1.1" xmlns="http://www.w3.org/2000/svg" width="32" height="32" viewBox="0 0 32 32">
<title>pda_device</title>
<path fill="#ff7900" d="M9.226 2.445c-0.579 0.141-1.069 0.646-1.19 1.229-0.051 0.24-0.051 24.413 0 24.653 0.125 0.598 0.64 1.114 1.238 1.238 0.122 0.026 2.064 0.035 6.736 0.035 7.158 0 6.762 0.010 7.136-0.179 0.374-0.192 0.73-0.666 0.819-1.094 0.026-0.122 0.035-2.275 0.035-7.51 0-4.038-0.006-7.344-0.016-7.344s-0.371 0.352-0.8 0.784l-0.784 0.784v11.36h-12.8v-21.6h12.8v2.832c0 1.558 0.006 2.832 0.016 2.832s0.368-0.352 0.8-0.784l0.784-0.784v-2.528c0-1.718-0.013-2.579-0.035-2.694-0.125-0.602-0.656-1.13-1.245-1.242-0.269-0.051-13.283-0.038-13.494 0.013zM17.475 3.315c0.074 0.074 0.102 0.138 0.115 0.24 0.016 0.17-0.035 0.275-0.179 0.371l-0.109 0.074h-1.302c-1.299 0-1.302 0-1.411-0.074-0.061-0.042-0.128-0.125-0.154-0.195-0.064-0.166 0-0.355 0.154-0.458l0.112-0.077 2.675 0.019 0.099 0.099zM16.39 27.306c0.182 0.106 0.262 0.198 0.342 0.384 0.211 0.493-0.115 1.046-0.646 1.101-0.406 0.042-0.765-0.221-0.861-0.63-0.090-0.384 0.157-0.803 0.55-0.931 0.15-0.051 0.467-0.010 0.614 0.077z"></path>
<path fill="#ff7900" d="M20.294 13.75l-7.357 7.354-0.454 0.755c-0.253 0.422-0.461 0.806-0.47 0.867-0.022 0.125 0.035 0.259 0.144 0.362 0.051 0.042 0.118 0.061 0.237 0.061 0.154 0 0.205-0.022 0.64-0.285 0.259-0.16 0.595-0.362 0.746-0.451 0.259-0.154 0.662-0.554 6.224-6.112l5.949-5.949 0.266 0.262c0.144 0.147 0.272 0.275 0.285 0.285 0.035 0.032 1.283-1.238 1.43-1.453 0.15-0.221 0.253-0.448 0.342-0.742 0.080-0.282 0.083-0.915 0-1.216s-0.285-0.691-0.467-0.906l-0.157-0.182-7.357 7.35z"></path>
</svg>
