<!-- Generated by IcoMoon.io -->
<svg version="1.1" xmlns="http://www.w3.org/2000/svg" width="32" height="32" viewBox="0 0 32 32">
<title>pdf_file</title>
<path fill="#ff7900" d="M5.6 15.302c0 14.067-0.013 13.034 0.179 13.43 0.115 0.234 0.454 0.573 0.688 0.688 0.397 0.192-0.342 0.179 10.23 0.179h9.702v-19.2l-2.518-0.003c-1.389 0-2.586-0.010-2.666-0.019-0.467-0.058-1.005-0.262-1.421-0.538-0.445-0.294-0.896-0.842-1.123-1.357-0.109-0.246-0.224-0.659-0.253-0.915-0.006-0.070-0.016-1.261-0.016-2.65l-0.003-2.518h-12.8v12.902zM11.376 15.299c0.573 0.176 0.976 0.502 1.194 0.963 0.166 0.346 0.205 0.512 0.218 0.938 0.019 0.627-0.157 1.11-0.547 1.504-0.32 0.323-0.73 0.515-1.232 0.573-0.080 0.010-0.47 0.016-0.87 0.016l-0.73 0.003v2.304h-1.408v-6.403l1.562 0.010c1.552 0.013 1.558 0.013 1.814 0.093zM16.928 15.264c0.931 0.179 1.558 0.656 1.946 1.475 0.243 0.512 0.33 0.995 0.31 1.773-0.013 0.662-0.128 1.174-0.365 1.642-0.349 0.685-0.941 1.158-1.699 1.354-0.259 0.067-0.346 0.074-1.894 0.083l-1.626 0.013v-6.403l1.514 0.003c1.328 0 1.549 0.010 1.814 0.061zM24 15.792v0.592h-2.592v1.472h2.176v1.088h-2.176v2.656h-1.408v-6.4h4v0.592z"></path>
<path fill="#ff7900" d="M9.408 17.248v0.963l0.554-0.003c0.301-0.003 0.627-0.019 0.723-0.038 0.496-0.090 0.742-0.39 0.746-0.909 0-0.25-0.042-0.426-0.147-0.573-0.211-0.307-0.541-0.4-1.392-0.4h-0.483v0.96z"></path>
<path fill="#ff7900" d="M15.008 18.4v2.016h0.698c0.781 0 0.982-0.032 1.293-0.198 0.33-0.176 0.589-0.541 0.717-1.005 0.074-0.275 0.090-1.008 0.026-1.373-0.099-0.557-0.307-0.918-0.669-1.162-0.349-0.237-0.64-0.291-1.51-0.294h-0.554v2.016z"></path>
<path fill="#ff7900" d="M20 4.918c0.003 1.61 0.016 2.547 0.035 2.65 0.125 0.586 0.589 1.085 1.123 1.2 0.122 0.026 0.89 0.032 2.698 0.026l2.528-0.010-3.178-3.178c-1.744-1.744-3.181-3.174-3.19-3.174s-0.016 1.12-0.016 2.486z"></path>
</svg>
