<!-- Generated by IcoMoon.io -->
<svg version="1.1" xmlns="http://www.w3.org/2000/svg" width="32" height="32" viewBox="0 0 32 32">
<title>Pencil</title>
<path fill="#ff7900" d="M22.237 3.206c-0.432 0.038-0.915 0.23-1.277 0.502-0.115 0.086-3.533 3.485-7.597 7.555-6.448 6.454-7.392 7.411-7.427 7.53-0.307 1.008-1.098 3.61-1.392 4.582-0.208 0.685-0.432 1.421-0.496 1.632-0.221 0.72-0.438 1.44-0.464 1.536-0.016 0.051-0.109 0.362-0.208 0.688-0.154 0.502-0.179 0.618-0.166 0.771 0.048 0.547 0.57 0.902 1.11 0.755 0.096-0.026 0.349-0.099 0.56-0.166 0.211-0.064 0.614-0.186 0.896-0.272s1.11-0.339 1.84-0.56c0.73-0.224 1.392-0.426 1.472-0.448 0.118-0.032 2.979-0.899 3.488-1.056 0.080-0.026 0.282-0.086 0.448-0.138l0.304-0.096 7.414-7.418c4.080-4.083 7.475-7.501 7.549-7.597 0.17-0.221 0.355-0.621 0.432-0.912 0.064-0.259 0.086-0.778 0.042-1.056-0.058-0.374-0.237-0.794-0.477-1.123-0.176-0.234-3.994-4.048-4.23-4.224-0.538-0.394-1.126-0.554-1.821-0.486zM22.867 6.138l0.262 0.266-14.701 14.714 1.219 1.226 1.216 1.226 14.726-14.71 0.304 0.304 0.301 0.304-14.707 14.714 0.592 0.589c0.326 0.326 0.592 0.598 0.592 0.608s-0.112 0.048-0.246 0.086c-0.138 0.038-0.48 0.141-0.762 0.227-0.282 0.090-0.893 0.275-1.36 0.416-0.467 0.144-1.206 0.368-1.648 0.502-0.438 0.134-0.87 0.266-0.96 0.291-0.086 0.022-0.269 0.077-0.403 0.122l-0.243 0.077-2.147-2.154 0.262-0.864c0.147-0.477 0.294-0.966 0.333-1.088 0.416-1.366 0.899-2.957 0.992-3.274 0.064-0.214 0.122-0.39 0.134-0.39 0.010 0 0.282 0.266 0.605 0.589l0.586 0.586 7.347-7.354c6.224-6.23 7.354-7.347 7.395-7.315 0.029 0.022 0.166 0.157 0.31 0.304z"></path>
</svg>
