<!-- Generated by IcoMoon.io -->
<svg version="1.1" xmlns="http://www.w3.org/2000/svg" width="32" height="32" viewBox="0 0 32 32">
<title>personal_smartphone_trainer</title>
<path fill="#ff7900" d="M9.226 2.445c-0.579 0.141-1.069 0.646-1.19 1.229-0.051 0.24-0.051 24.413 0 24.653 0.125 0.598 0.64 1.114 1.238 1.238 0.24 0.051 13.213 0.051 13.453 0 0.598-0.125 1.114-0.64 1.238-1.238 0.051-0.24 0.051-24.413 0-24.653-0.118-0.563-0.611-1.082-1.165-1.232-0.054-0.013-3.091-0.029-6.752-0.032-5.245-0.003-6.691 0.003-6.822 0.035zM17.398 3.264c0.115 0.070 0.202 0.211 0.202 0.336s-0.086 0.266-0.202 0.336c-0.096 0.061-0.17 0.064-1.392 0.064-1.424 0-1.421 0-1.542-0.202-0.115-0.189-0.058-0.416 0.138-0.534 0.096-0.061 0.17-0.064 1.398-0.064s1.302 0.003 1.398 0.064zM22.4 15.6v10.8h-12.8v-21.6h12.8v10.8zM16.4 27.309c0.39 0.23 0.512 0.749 0.266 1.12-0.112 0.17-0.221 0.256-0.413 0.323-0.608 0.214-1.222-0.394-1.005-1.005 0.086-0.246 0.282-0.442 0.522-0.518 0.16-0.051 0.47-0.013 0.63 0.080z"></path>
<path fill="#ff7900" d="M15.696 8.928c-0.157 0.070-1.229 0.528-2.381 1.018-1.149 0.493-2.077 0.902-2.061 0.912s1.085 0.371 2.371 0.803l2.342 0.781 0.47-0.154c0.262-0.086 1.027-0.346 1.706-0.576 0.678-0.227 1.242-0.416 1.254-0.416 0.016 0 0.026 0.528 0.026 1.171 0 1.146 0 1.174-0.080 1.494-0.045 0.179-0.090 0.352-0.099 0.381-0.016 0.054 0.026 0.058 0.544 0.058 0.31 0 0.563-0.010 0.563-0.026 0-0.013-0.038-0.173-0.083-0.358-0.083-0.33-0.086-0.355-0.096-1.654l-0.013-1.315 0.138-0.051c0.074-0.029 0.211-0.077 0.307-0.109l0.176-0.058-0.272-0.115c-0.147-0.064-0.752-0.32-1.341-0.57-1.971-0.838-3.171-1.344-3.178-1.344-0.003 0-0.134 0.058-0.294 0.128z"></path>
<path fill="#ff7900" d="M13.226 13.19c0.013 0.71 0.022 0.838 0.080 1.034 0.304 0.989 1.008 1.677 1.987 1.942 0.323 0.090 1.005 0.096 1.315 0.013 0.912-0.246 1.626-0.867 1.933-1.69 0.16-0.422 0.182-0.598 0.186-1.363 0-0.394-0.006-0.723-0.016-0.733-0.016-0.013-0.314 0.083-2.102 0.694l-0.624 0.214-1.376-0.461c-0.755-0.253-1.379-0.458-1.386-0.458s-0.006 0.365 0.003 0.806z"></path>
<path fill="#ff7900" d="M13.424 16.432c-0.726 0.461-1.2 1.040-1.363 1.677-0.058 0.227-0.064 0.358-0.061 1.939 0 1.805 0.006 1.859 0.16 2.17 0.221 0.442 0.714 0.845 1.152 0.947 0.093 0.022 1.293 0.035 3.418 0.035h3.27l0.003-2.314c0.003-1.27 0-2.368-0.003-2.435-0.003-0.070-0.032-0.23-0.064-0.358-0.173-0.675-0.688-1.274-1.526-1.77-0.134-0.077-0.176-0.090-0.208-0.058-0.118 0.118-0.422 0.32-0.65 0.432-0.534 0.269-0.973 0.362-1.648 0.342-0.522-0.013-0.582-0.022-0.941-0.134-0.416-0.131-0.794-0.333-1.123-0.598l-0.096-0.077-0.32 0.202z"></path>
</svg>
