<!-- Generated by IcoMoon.io -->
<svg version="1.1" xmlns="http://www.w3.org/2000/svg" width="32" height="32" viewBox="0 0 32 32">
<title>phone_fund</title>
<path fill="#ff7900" d="M11.277 2.563c-0.544 0.483-1.123 1.139-1.485 1.677-0.733 1.091-1.056 2.138-1.069 3.472l-0.006 0.528-0.704 0.704c-1.498 1.498-2.33 2.704-2.845 4.115l-0.054 0.147h-0.739c-0.723 0-0.749 0.003-0.944 0.083-0.493 0.202-0.864 0.669-0.986 1.232-0.067 0.32-0.064 5.136 0.003 5.462 0.128 0.605 0.557 1.094 1.117 1.267 0.080 0.022 0.387 0.038 0.842 0.042l0.714 0.003 0.118 0.202c0.163 0.278 0.406 0.576 0.765 0.944 0.406 0.413 0.781 0.733 1.853 1.59 0.493 0.39 0.902 0.72 0.912 0.726 0.010 0.010 0.022 0.803 0.035 1.763l0.016 1.75 0.086 0.24c0.166 0.458 0.48 0.816 0.87 0.998 0.154 0.070 0.195 0.074 1.171 0.083 0.963 0.010 1.021 0.006 1.213-0.058 0.371-0.125 0.682-0.406 0.874-0.787 0.189-0.374 0.221-0.518 0.237-1.107 0.013-0.368 0.029-0.538 0.054-0.538 0.019 0 0.122 0.032 0.227 0.067 0.477 0.16 1.434 0.384 2.112 0.493 0.134 0.022 0.65 0.080 0.902 0.099 0.461 0.035 1.6 0.013 1.93-0.035 0.045-0.006 0.186-0.022 0.317-0.032 0.131-0.013 0.269-0.029 0.304-0.035s0.179-0.026 0.32-0.045c0.886-0.118 2.106-0.394 2.816-0.64 0.106-0.035 0.198-0.064 0.211-0.064s0.026 0.259 0.026 0.573c0.003 0.646 0.038 0.838 0.214 1.203 0.198 0.406 0.538 0.723 0.909 0.845 0.189 0.061 0.278 0.067 1.056 0.067 0.627 0 0.896-0.013 1.021-0.045 0.518-0.141 0.97-0.653 1.123-1.286 0.058-0.23 0.064-0.381 0.064-1.661 0-0.774 0-1.638 0.003-1.923v-0.515l0.195-0.205c0.221-0.23 0.499-0.547 0.592-0.672 0.032-0.045 0.118-0.16 0.189-0.256 0.138-0.179 0.451-0.678 0.538-0.845 0.637-1.258 0.931-2.25 1.094-3.712 0.010-0.090 0.026-0.189 0.032-0.224 0.061-0.301 0.086-2.189 0.038-2.8-0.083-1.043-0.4-2.272-0.845-3.296-0.906-2.086-2.541-3.917-4.618-5.178-1.059-0.64-2.298-1.152-3.546-1.462-0.669-0.166-1.126-0.243-2.070-0.352-0.070-0.010-0.525-0.022-1.008-0.029-1.354-0.019-2.288 0.090-3.6 0.416-0.365 0.090-1.184 0.346-1.43 0.445-0.054 0.022-0.058-0.010-0.058-0.403 0-0.237-0.022-0.573-0.048-0.749-0.112-0.742-0.435-1.683-0.797-2.317l-0.074-0.134-0.189 0.166zM18.624 6.090c0.045 0.010 0.173 0.026 0.288 0.038 0.624 0.058 1.712 0.285 2.336 0.486l0.176 0.058 0.006 0.586c0.006 0.39-0.003 0.579-0.026 0.563-0.067-0.042-0.678-0.237-1.024-0.33-0.499-0.131-1.094-0.243-1.453-0.278-0.106-0.010-0.227-0.026-0.272-0.035-0.134-0.029-1.632-0.038-1.888-0.010-0.499 0.054-0.954 0.134-1.386 0.243-0.246 0.064-0.88 0.278-1.005 0.342-0.205 0.106-0.202 0.115-0.202-0.518v-0.573l0.266-0.096c0.701-0.253 1.469-0.419 2.208-0.474 0.144-0.013 0.269-0.026 0.275-0.032 0.022-0.019 1.6 0.010 1.699 0.029zM18.688 10.365c0.096 0.016 0.234 0.042 0.301 0.051 0.195 0.029 0.602 0.138 0.858 0.227 0.957 0.346 1.718 0.947 2.070 1.638 0.195 0.387 0.246 0.928 0.118 1.29-0.208 0.592-0.71 0.944-1.331 0.934-0.458-0.006-0.714-0.189-1.229-0.883-0.384-0.518-0.602-0.698-0.998-0.822-0.269-0.086-0.736-0.118-0.973-0.067-0.406 0.086-0.813 0.387-0.979 0.73-0.189 0.387-0.144 0.822 0.154 1.437l0.109 0.221 0.749 0.003c0.586 0.003 0.797 0.016 0.96 0.058 0.656 0.17 1.021 0.682 0.957 1.347-0.032 0.317-0.141 0.541-0.358 0.736-0.358 0.323-0.627 0.4-1.402 0.4-0.426 0-0.57 0.010-0.579 0.038-0.010 0.022-0.019 0.112-0.022 0.202-0.022 0.413-0.224 1.034-0.55 1.686l-0.125 0.25h2.269c1.408 0 2.333 0.013 2.438 0.032 0.272 0.051 0.557 0.202 0.742 0.394 0.192 0.195 0.272 0.387 0.301 0.714 0.058 0.714-0.426 1.264-1.187 1.35-0.256 0.029-6.675 0.022-6.883-0.006-0.48-0.067-0.794-0.256-0.966-0.586-0.128-0.24-0.182-0.525-0.16-0.838 0.019-0.301 0.128-0.55 0.374-0.867 0.397-0.509 0.637-0.931 0.752-1.328 0.077-0.259 0.208-0.893 0.208-0.998 0-0.032-0.128-0.042-0.598-0.042-0.723 0-0.915-0.029-1.216-0.176-0.461-0.227-0.678-0.65-0.63-1.222 0.026-0.32 0.122-0.541 0.33-0.746 0.298-0.298 0.573-0.387 1.184-0.39 0.214-0.003 0.387-0.006 0.387-0.010s-0.029-0.099-0.064-0.211c-0.189-0.586-0.243-0.912-0.234-1.424 0.006-0.438 0.15-0.966 0.336-1.235 0.032-0.045 0.058-0.093 0.058-0.106 0-0.045 0.246-0.33 0.49-0.57 0.646-0.634 1.597-1.059 2.726-1.222 0.326-0.045 1.338-0.038 1.616 0.013z"></path>
</svg>
