<!-- Generated by IcoMoon.io -->
<svg version="1.1" xmlns="http://www.w3.org/2000/svg" width="32" height="32" viewBox="0 0 32 32">
<title>phone_advisor</title>
<path fill="#ff7900" d="M9.226 2.445c-0.579 0.141-1.069 0.646-1.19 1.229-0.051 0.24-0.051 24.413 0 24.653 0.125 0.598 0.64 1.114 1.238 1.238 0.24 0.051 13.213 0.051 13.453 0 0.598-0.125 1.114-0.64 1.238-1.238 0.051-0.24 0.051-24.413 0-24.653-0.118-0.563-0.611-1.082-1.165-1.232-0.054-0.013-3.091-0.029-6.752-0.032-5.245-0.003-6.691 0.003-6.822 0.035zM17.398 3.264c0.115 0.070 0.202 0.211 0.202 0.336s-0.086 0.266-0.202 0.336c-0.096 0.061-0.17 0.064-1.392 0.064-1.424 0-1.421 0-1.542-0.202-0.115-0.189-0.058-0.416 0.138-0.534 0.096-0.061 0.17-0.064 1.398-0.064s1.302 0.003 1.398 0.064zM22.4 15.6v10.8h-12.8v-21.6h12.8v10.8zM16.4 27.309c0.39 0.23 0.512 0.749 0.266 1.12-0.112 0.17-0.221 0.256-0.413 0.323-0.608 0.214-1.222-0.394-1.005-1.005 0.086-0.246 0.282-0.442 0.522-0.518 0.16-0.051 0.47-0.013 0.63 0.080z"></path>
<path fill="#ff7900" d="M15.309 8.986c-0.019 0.013-0.106 0.304-0.189 0.646-0.179 0.717-0.211 0.784-1.286 2.768-0.374 0.691-0.502 0.931-0.864 1.61-0.243 0.454-0.448 0.691-0.762 0.874l-0.192 0.112-0.010 1.872c-0.006 1.254 0.003 1.936 0.026 2.077 0.134 0.781 0.819 1.478 1.728 1.766l0.24 0.074h4.192l0.166-0.077c0.186-0.083 0.374-0.269 0.445-0.438 0.026-0.061 0.051-0.195 0.058-0.301 0.019-0.358-0.15-0.675-0.432-0.806-0.083-0.042-0.154-0.080-0.157-0.090 0-0.010 0.141-0.019 0.314-0.022 0.515-0.006 0.832-0.17 0.986-0.506 0.102-0.214 0.102-0.458 0-0.672-0.118-0.256-0.358-0.426-0.717-0.509l-0.182-0.042 0.272-0.019c0.522-0.038 0.838-0.224 0.989-0.576 0.086-0.198 0.086-0.387-0.003-0.614-0.134-0.352-0.461-0.525-1.018-0.538-0.176-0.003-0.32-0.013-0.32-0.022s0.029-0.019 0.064-0.022c0.106-0.010 0.394-0.157 0.502-0.256 0.173-0.166 0.25-0.346 0.246-0.605 0-0.198-0.013-0.25-0.096-0.384-0.128-0.208-0.323-0.349-0.598-0.435-0.224-0.067-0.278-0.070-1.645-0.070-0.781-0.003-1.418-0.010-1.418-0.019s0.058-0.205 0.125-0.432c0.070-0.23 0.307-1.018 0.531-1.757 0.365-1.216 0.4-1.357 0.387-1.52-0.022-0.227-0.061-0.358-0.15-0.509-0.176-0.298-0.41-0.454-0.765-0.512-0.381-0.064-0.432-0.070-0.467-0.045z"></path>
</svg>
