<!-- Generated by IcoMoon.io -->
<svg version="1.1" xmlns="http://www.w3.org/2000/svg" width="32" height="32" viewBox="0 0 32 32">
<title>phone_protection</title>
<path fill="#ff7900" d="M9.181 2.458c-0.538 0.141-0.982 0.598-1.133 1.162-0.070 0.259-0.070 24.502 0 24.762 0.157 0.592 0.662 1.078 1.232 1.187 0.109 0.019 2.528 0.032 6.749 0.029 6.112 0 6.595-0.003 6.79-0.054 0.538-0.141 0.982-0.598 1.133-1.162 0.042-0.147 0.048-1.302 0.048-7.878v-7.702h-4.861c-5.325 0-4.995 0.013-5.248-0.189-0.064-0.051-0.154-0.163-0.195-0.25l-0.080-0.154-0.010-3.744c-0.003-2.061-0.003-4.262 0-4.896l0.010-1.152 5.174 5.174c2.848 2.848 5.184 5.178 5.194 5.178 0.035 0 0.016-8.922-0.019-9.094-0.125-0.602-0.656-1.13-1.245-1.242-0.109-0.019-2.528-0.032-6.749-0.029-6.112 0-6.595 0.003-6.79 0.054z"></path>
</svg>
