<!-- Generated by IcoMoon.io -->
<svg version="1.1" xmlns="http://www.w3.org/2000/svg" width="32" height="32" viewBox="0 0 32 32">
<title>Photo_dialer</title>
<path fill="#ff7900" d="M13.296 4.019c-0.035 0.006-0.144 0.029-0.24 0.048-0.669 0.134-1.299 0.643-1.632 1.325-0.195 0.397-0.422 0.646-0.736 0.813-0.32 0.17-0.48 0.195-1.28 0.195-1.226 0-1.347-0.048-2.083-0.851-0.461-0.499-1.075-0.752-1.789-0.736-0.65 0.019-1.174 0.24-1.629 0.691-0.307 0.304-0.496 0.637-0.646 1.149-0.045 0.15-0.058 0.733-0.022 0.963 0.077 0.486 0.358 0.998 0.726 1.325 0.538 0.48 0.717 0.733 0.8 1.133 0.026 0.122 0.035 1.952 0.035 6.32 0 6.707 0.006 6.397-0.182 6.752-0.086 0.16-0.246 0.336-0.675 0.736-0.502 0.47-0.752 1.082-0.73 1.782 0.022 0.746 0.31 1.334 0.88 1.795 0.262 0.214 0.442 0.314 0.742 0.41 0.301 0.099 0.333 0.106 0.701 0.118 0.691 0.022 1.309-0.227 1.776-0.723 0.598-0.634 0.768-0.752 1.181-0.829 0.272-0.051 14.797-0.048 15.034 0 0.403 0.083 0.602 0.227 1.142 0.806 0.496 0.538 1.165 0.797 1.914 0.746 0.787-0.054 1.504-0.506 1.907-1.206 0.048-0.080 0.122-0.246 0.163-0.371 0.32-0.912 0.086-1.901-0.598-2.534-0.589-0.541-0.736-0.746-0.819-1.149-0.051-0.24-0.051-12.413 0-12.653 0.019-0.093 0.080-0.262 0.131-0.374 0.096-0.205 0.182-0.304 0.678-0.771 0.314-0.294 0.608-0.774 0.672-1.091 0.010-0.042 0.032-0.157 0.051-0.253 0.061-0.307 0.029-0.749-0.080-1.104-0.224-0.723-0.813-1.325-1.52-1.549-0.307-0.099-0.336-0.102-0.704-0.115-0.813-0.026-1.501 0.314-2.026 0.992-0.192 0.253-0.579 0.49-0.915 0.557-0.269 0.058-1.613 0.042-1.846-0.019-0.246-0.061-0.506-0.202-0.688-0.371-0.147-0.134-0.413-0.509-0.413-0.582 0-0.061-0.298-0.499-0.435-0.64-0.95-0.976-2.47-1.005-3.414-0.064-0.371 0.368-0.614 0.832-0.691 1.315-0.029 0.176-0.035 0.16-0.112-0.173-0.182-0.819-0.829-1.488-1.683-1.741-0.198-0.061-0.8-0.106-0.944-0.070zM24.8 15.67c0 7.494 0.006 7.117-0.182 7.475-0.118 0.224-0.47 0.57-0.688 0.675-0.33 0.16-0.445 0.176-1.421 0.179l-0.909 0.003v-1.568c0-1.418-0.006-1.6-0.064-1.946-0.227-1.344-1.005-2.454-2.202-3.133-0.134-0.077-0.266-0.141-0.288-0.141-0.026 0-0.112 0.058-0.192 0.131-0.202 0.176-0.714 0.512-0.95 0.621-0.41 0.186-0.81 0.31-1.232 0.384-0.269 0.045-0.842 0.054-1.152 0.019-0.877-0.102-1.6-0.403-2.272-0.947-0.141-0.115-0.275-0.208-0.298-0.208-0.058 0-0.49 0.253-0.749 0.435-0.486 0.342-1.050 1.008-1.338 1.578-0.138 0.278-0.291 0.717-0.374 1.075-0.064 0.269-0.070 0.4-0.080 1.99l-0.013 1.706h-3.197v-6.88c0-4.858 0.010-6.928 0.035-7.046 0.122-0.582 0.611-1.088 1.19-1.229 0.131-0.032 1.904-0.038 8.272-0.042l8.102-0.003v6.87zM14.685 19.382c0.362 0.394 0.611 0.755 0.611 0.89 0 0.080-0.099 0.218-0.294 0.416-0.080 0.080-0.157 0.182-0.166 0.227-0.048 0.189 0.211 0.566 0.781 1.133 0.442 0.442 0.765 0.672 0.966 0.694 0.134 0.016 0.154 0.006 0.285-0.118 0.298-0.285 0.349-0.32 0.458-0.32 0.122 0 0.339 0.144 0.739 0.483 0.285 0.237 0.355 0.336 0.326 0.451-0.029 0.106-0.57 0.637-0.72 0.704-0.157 0.074-0.374 0.070-0.678-0.006-1.501-0.384-3.392-2.461-3.392-3.725 0-0.256 0.077-0.403 0.339-0.659 0.429-0.416 0.502-0.432 0.746-0.17z"></path>
<path fill="#ff7900" d="M15.6 10.419c-0.854 0.109-1.638 0.502-2.208 1.107-1.059 1.123-1.29 2.765-0.582 4.134 0.474 0.918 1.347 1.597 2.381 1.846 0.221 0.054 0.39 0.070 0.778 0.074 0.595 0.003 0.88-0.048 1.382-0.25 0.992-0.403 1.798-1.283 2.093-2.291 0.682-2.33-1.027-4.63-3.44-4.634-0.17 0-0.349 0.006-0.403 0.013z"></path>
</svg>
