<!-- Generated by IcoMoon.io -->
<svg version="1.1" xmlns="http://www.w3.org/2000/svg" width="32" height="32" viewBox="0 0 32 32">
<title>picture_messaging</title>
<path fill="#ff7900" d="M3.21 12.614c0.006 8.17 0.010 8.627 0.064 8.803 0.298 0.97 1.062 1.632 2.038 1.766 0.045 0.006 0.848 0.013 1.786 0.013l1.702 0.003v4.8l4.8-4.8h15.2l-0.003-8.538c-0.003-9.347 0.010-8.726-0.189-9.197-0.285-0.666-0.819-1.139-1.568-1.382l-0.208-0.067-23.632-0.016 0.010 8.614zM26.835 5.712c0.096 0.061 0.192 0.157 0.253 0.253l0.096 0.157 0.006 6.931 0.010 6.931-0.122-0.128c-0.067-0.070-0.262-0.294-0.438-0.496s-0.326-0.374-0.336-0.384c-0.013-0.010-0.39-0.442-0.845-0.96s-0.874-0.995-0.928-1.056c-0.054-0.061-0.307-0.349-0.563-0.64s-0.477-0.544-0.496-0.563c-0.016-0.019-0.112-0.125-0.208-0.24-0.157-0.182-0.438-0.499-0.48-0.541-0.010-0.010-0.109-0.125-0.224-0.256-0.112-0.131-0.214-0.246-0.224-0.256s-0.154-0.173-0.32-0.365c-0.166-0.192-0.381-0.438-0.477-0.544-0.25-0.278-0.346-0.39-0.579-0.659-0.115-0.131-0.221-0.256-0.24-0.275-0.058-0.061-0.413-0.467-0.554-0.637-0.278-0.323-0.413-0.41-0.624-0.403-0.15 0.003-0.266 0.064-0.394 0.202-0.054 0.058-0.432 0.573-0.838 1.146-0.627 0.877-1.67 2.342-2.669 3.738-0.307 0.429-0.688 0.963-0.998 1.389l-0.246 0.346-0.406-0.506c-0.221-0.275-0.65-0.806-0.95-1.174-0.301-0.371-0.79-0.976-1.088-1.344-0.298-0.371-0.595-0.736-0.662-0.816-0.064-0.080-0.227-0.278-0.362-0.438-0.269-0.333-0.371-0.4-0.595-0.4-0.202 0.003-0.314 0.080-0.579 0.403-0.115 0.144-0.752 0.922-1.414 1.731-1.994 2.432-2.266 2.765-2.509 3.062l-0.237 0.285-0.134-0.122c-0.342-0.31-0.547-0.675-0.624-1.11-0.026-0.131-0.035-2.144-0.035-6.282v-6.090l21.878 0.016 0.157 0.096z"></path>
<path fill="#ff7900" d="M8.32 7.251c-0.314 0.067-0.56 0.166-0.813 0.333-0.515 0.339-0.851 0.8-1.027 1.408-0.080 0.278-0.083 0.922-0.003 1.21 0.24 0.886 0.941 1.555 1.827 1.738 0.499 0.102 0.95 0.064 1.414-0.125 0.621-0.253 1.168-0.842 1.36-1.462 0.134-0.429 0.147-1.046 0.032-1.408-0.269-0.835-0.848-1.414-1.654-1.651-0.285-0.086-0.842-0.106-1.136-0.042z"></path>
</svg>
