<!-- Generated by IcoMoon.io -->
<svg version="1.1" xmlns="http://www.w3.org/2000/svg" width="32" height="32" viewBox="0 0 32 32">
<title>Pills</title>
<path fill="#ff7900" d="M22.144 3.235c-2.451 0.272-4.518 2.048-5.133 4.406-0.208 0.787-0.189 0.102-0.198 8.198-0.010 7.606-0.010 7.6 0.112 8.176 0.176 0.848 0.531 1.642 1.056 2.352 0.829 1.126 2.083 1.952 3.443 2.272 0.794 0.182 1.738 0.202 2.512 0.048 2.285-0.454 4.058-2.115 4.666-4.368 0.035-0.131 0.093-0.378 0.125-0.544 0.054-0.288 0.058-0.675 0.058-7.68 0-4.058-0.010-7.472-0.022-7.587-0.15-1.331-0.749-2.563-1.715-3.539-0.973-0.979-2.259-1.597-3.613-1.734-0.342-0.035-0.963-0.035-1.29 0zM23.696 4.925c0.95 0.208 1.779 0.694 2.403 1.405 0.403 0.461 0.672 0.925 0.858 1.478 0.24 0.723 0.224 0.4 0.237 4.502l0.010 3.69h-8.003v3.846c0 3.763-0.003 3.853-0.064 3.952-0.118 0.195-0.346 0.253-0.534 0.138-0.221-0.131-0.202 0.525-0.198-7.638 0-4.138 0.013-7.485 0.032-7.61 0.122-0.973 0.56-1.859 1.264-2.563 0.675-0.675 1.469-1.078 2.445-1.245 0.352-0.061 1.187-0.038 1.552 0.045z"></path>
<path fill="#ff7900" d="M8.432 7.251c-1.494 0.195-2.838 0.928-3.84 2.106-0.432 0.502-0.864 1.283-1.085 1.949-0.138 0.422-0.202 0.714-0.275 1.254-0.029 0.227-0.019 1.232 0.016 1.408 0.010 0.051 0.045 0.253 0.083 0.442 0.077 0.416 0.269 0.976 0.483 1.424 0.182 0.378 0.57 0.966 0.826 1.261 0.096 0.109 2.432 2.454 5.187 5.213 5.322 5.318 5.315 5.312 5.997 5.699 0.643 0.362 1.328 0.602 2.096 0.73 0.237 0.042 1.261 0.064 1.456 0.035l0.128-0.019-0.208-0.125c-0.195-0.118-0.554-0.368-0.71-0.493-0.374-0.301-0.65-0.566-0.941-0.906-0.202-0.24-0.256-0.285-0.4-0.333-0.442-0.141-0.976-0.47-1.414-0.864-0.413-0.371-10.342-10.32-10.387-10.406-0.083-0.163-0.016-0.4 0.141-0.502 0.109-0.070 0.314-0.074 0.419-0.006 0.045 0.032 1.29 1.264 2.768 2.742l2.685 2.685 4.544-4.544v-4.483l-1.424-1.421c-1.466-1.459-1.766-1.725-2.333-2.061-0.579-0.342-1.213-0.586-1.894-0.723-0.534-0.112-1.338-0.134-1.917-0.061z"></path>
</svg>
