<!-- Generated by IcoMoon.io -->
<svg version="1.1" xmlns="http://www.w3.org/2000/svg" width="32" height="32" viewBox="0 0 32 32">
<title>pioneering</title>
<path fill="#ff7900" d="M4.509 2.442c-0.342 0.096-0.621 0.333-0.778 0.662l-0.099 0.208-0.010 13.146-0.006 13.142h2.4v-12.8h3.69c2.394 0 3.757 0.013 3.891 0.035 1.082 0.173 1.917 1.072 2.003 2.15 0.010 0.118 0.022 0.31 0.032 0.429 0.083 1.062 0.896 1.949 1.968 2.15 0.115 0.019 1.971 0.032 5.498 0.035 4.477 0 5.315-0.006 5.28-0.042-0.022-0.026-0.214-0.23-0.426-0.454s-0.406-0.432-0.435-0.461c-0.026-0.029-0.262-0.282-0.525-0.563s-0.573-0.611-0.688-0.733c-0.115-0.122-0.237-0.253-0.272-0.291-0.035-0.035-0.173-0.182-0.304-0.323-0.339-0.358-1.062-1.13-1.184-1.261-0.173-0.189-0.48-0.515-0.733-0.784-0.963-1.018-1.376-1.466-1.376-1.488s0.083-0.115 1.389-1.504c0.122-0.131 0.24-0.253 0.256-0.275 0.019-0.019 0.234-0.25 0.48-0.512 0.246-0.259 0.49-0.518 0.538-0.573 0.051-0.051 0.25-0.262 0.438-0.464s0.39-0.419 0.448-0.48c0.16-0.173 0.883-0.944 1.155-1.232 0.134-0.141 0.336-0.355 0.448-0.477s0.342-0.365 0.512-0.544l0.31-0.323-0.662-0.006c-0.362-0.006-2.618-0.013-5.011-0.019-4.317-0.006-4.355-0.010-4.56-0.074-0.81-0.262-1.363-0.784-1.626-1.533-0.080-0.23-0.125-0.506-0.147-0.912-0.061-1.11-0.826-1.99-1.926-2.224-0.186-0.038-0.858-0.048-4.336-0.048h-4.115l-0.016-0.346c-0.013-0.304-0.026-0.371-0.112-0.554-0.195-0.406-0.579-0.669-1.014-0.691-0.125-0.003-0.294 0.010-0.374 0.032z"></path>
</svg>
