<!-- Generated by IcoMoon.io -->
<svg version="1.1" xmlns="http://www.w3.org/2000/svg" width="32" height="32" viewBox="0 0 32 32">
<title>Play</title>
<path fill="#ff7900" d="M4 16v12.803l0.346-0.182c0.189-0.099 0.445-0.234 0.566-0.301 0.125-0.064 0.413-0.218 0.64-0.336 0.387-0.202 0.531-0.275 1.306-0.685 0.16-0.086 0.454-0.237 0.646-0.339 0.195-0.102 0.483-0.253 0.64-0.336 0.566-0.298 0.902-0.474 1.216-0.64 0.176-0.093 0.451-0.237 0.608-0.32 0.16-0.083 0.461-0.24 0.672-0.352s0.499-0.262 0.64-0.336c0.141-0.074 0.55-0.291 0.912-0.48s0.803-0.422 0.986-0.515c0.179-0.096 0.48-0.253 0.672-0.352 0.189-0.099 0.445-0.234 0.566-0.301 0.125-0.067 0.413-0.218 0.64-0.336 0.474-0.246 0.922-0.483 1.248-0.656 0.291-0.157 3.978-2.154 4.208-2.282 0.237-0.131 0.429-0.234 0.848-0.454 0.195-0.102 0.368-0.195 0.384-0.208 0.019-0.013 0.394-0.218 0.832-0.454 0.442-0.24 1.421-0.768 2.176-1.178 0.758-0.41 1.469-0.797 1.584-0.858s0.438-0.237 0.72-0.39c0.282-0.154 0.602-0.326 0.71-0.384 0.112-0.058 0.202-0.115 0.202-0.128s-0.141-0.096-0.31-0.186c-0.173-0.093-0.384-0.208-0.474-0.256-0.086-0.051-0.304-0.166-0.48-0.262-0.176-0.093-0.39-0.208-0.48-0.256-0.141-0.077-1.312-0.714-1.856-1.008-0.259-0.138-1.296-0.701-1.536-0.832-0.106-0.058-0.291-0.157-0.416-0.224-0.122-0.067-0.294-0.16-0.384-0.208-0.086-0.048-0.259-0.141-0.384-0.208-0.122-0.067-0.294-0.16-0.384-0.208-0.355-0.195-1.328-0.72-1.552-0.842-0.413-0.221-0.589-0.317-0.688-0.374-0.051-0.032-0.224-0.125-0.384-0.208-0.157-0.083-0.358-0.192-0.448-0.24-0.086-0.048-0.419-0.227-0.736-0.4-0.317-0.17-0.666-0.362-0.774-0.419-0.326-0.179-1.114-0.592-2.314-1.222-0.186-0.096-0.435-0.23-0.56-0.294-0.122-0.064-0.397-0.208-0.608-0.32-0.211-0.109-0.512-0.269-0.672-0.352-0.55-0.291-0.899-0.474-1.312-0.688-0.227-0.118-0.486-0.256-0.576-0.304-0.086-0.048-0.346-0.186-0.576-0.304-0.227-0.122-0.515-0.272-0.64-0.336-0.122-0.064-0.438-0.23-0.704-0.368-0.262-0.138-0.522-0.272-0.576-0.304-0.051-0.032-0.326-0.176-0.608-0.32-0.528-0.272-0.89-0.464-1.28-0.672-0.122-0.064-0.397-0.208-0.608-0.32-0.211-0.109-0.512-0.269-0.672-0.352-0.157-0.083-0.442-0.234-0.63-0.333l-0.346-0.182v12.803z"></path>
</svg>
