<!-- Generated by IcoMoon.io -->
<svg version="1.1" xmlns="http://www.w3.org/2000/svg" width="32" height="32" viewBox="0 0 32 32">
<title>playmode_random</title>
<path fill="#ff7900" d="M24 6.016v1.984l-1.814 0.003c-1.002 0-1.84 0.006-1.866 0.010-0.026 0.006-0.17 0.019-0.317 0.032-0.403 0.032-1.059 0.163-1.523 0.304-1.786 0.544-3.325 1.699-4.365 3.283-0.688 1.050-1.075 2.106-1.264 3.456-0.010 0.070-0.026 0.365-0.038 0.656-0.038 1.133-0.189 1.779-0.592 2.525-0.218 0.406-0.474 0.742-0.858 1.123-0.806 0.8-1.814 1.28-2.915 1.389-0.096 0.010-1.498 0.019-3.11 0.019h-2.938v3.203l3.19-0.013c1.757-0.006 3.258-0.022 3.338-0.035 0.698-0.106 1.328-0.262 1.872-0.467 2.003-0.752 3.664-2.323 4.528-4.291 0.125-0.278 0.368-0.973 0.397-1.117 0.006-0.045 0.045-0.195 0.080-0.336 0.086-0.346 0.16-0.89 0.179-1.35 0.038-0.848 0.054-1.030 0.115-1.338 0.189-0.934 0.614-1.722 1.309-2.419 0.506-0.506 1.002-0.842 1.584-1.075 0.845-0.336 1.008-0.355 3.226-0.358l1.782-0.003v4.010l0.186-0.173c0.099-0.096 0.314-0.288 0.47-0.432 0.16-0.141 0.707-0.637 1.216-1.101 0.512-0.464 1.056-0.96 1.216-1.101 0.157-0.144 0.374-0.339 0.48-0.435 0.106-0.099 0.336-0.307 0.512-0.464s0.342-0.307 0.371-0.336c0.029-0.026 0.173-0.157 0.32-0.288 0.643-0.573 0.781-0.774 0.816-1.194 0.016-0.186 0.006-0.272-0.045-0.432-0.118-0.352-0.077-0.307-1.462-1.558-0.211-0.189-0.448-0.403-0.528-0.477-0.195-0.179-0.883-0.803-1.040-0.944-0.070-0.064-0.422-0.384-0.784-0.707-0.362-0.326-0.742-0.672-0.848-0.771-0.358-0.336-0.842-0.765-0.861-0.765-0.010 0-0.019 0.893-0.019 1.984z"></path>
<path fill="#ff7900" d="M2.4 9.6v1.6h2.938c1.613 0.003 3.014 0.010 3.11 0.019 1.453 0.138 2.803 0.976 3.613 2.24 0.090 0.138 0.163 0.272 0.163 0.291 0 0.022 0.013 0.042 0.026 0.042s0.074-0.154 0.131-0.342c0.269-0.88 0.691-1.744 1.219-2.483 0.307-0.435 0.304-0.368 0.032-0.634-1.181-1.142-2.474-1.837-4.032-2.166-0.726-0.154-0.995-0.166-4.198-0.166h-3.002v1.6z"></path>
<path fill="#ff7900" d="M24 18.816v1.987l-1.91-0.010c-1.818-0.013-1.93-0.016-2.218-0.083-0.998-0.224-1.744-0.627-2.435-1.315-0.352-0.352-0.538-0.582-0.755-0.947l-0.157-0.259-0.086 0.304c-0.25 0.858-0.733 1.846-1.258 2.573-0.282 0.394-0.278 0.339-0.042 0.57 1.44 1.414 3.146 2.192 5.133 2.349 0.070 0.006 0.938 0.010 1.93 0.013l1.798 0.003v4.010l0.186-0.173c0.099-0.096 0.31-0.288 0.467-0.429s0.301-0.272 0.32-0.291c0.019-0.016 0.282-0.253 0.579-0.525 0.461-0.416 0.877-0.79 1.187-1.072 0.038-0.035 0.125-0.115 0.192-0.176 0.070-0.061 0.285-0.256 0.477-0.429 0.195-0.176 0.496-0.451 0.669-0.608 0.176-0.16 0.333-0.307 0.352-0.323 0.064-0.058 0.611-0.547 0.736-0.659 0.256-0.227 0.435-0.605 0.435-0.922 0-0.326-0.182-0.707-0.454-0.947-0.141-0.125-1.702-1.53-1.722-1.552-0.032-0.032-0.403-0.371-0.685-0.624-0.157-0.141-0.301-0.272-0.32-0.288-0.051-0.048-1.283-1.162-1.376-1.248-0.234-0.208-0.406-0.365-0.672-0.608-0.173-0.16-0.326-0.294-0.342-0.298-0.016-0.006-0.029 0.81-0.029 1.978z"></path>
</svg>
