<!-- Generated by IcoMoon.io -->
<svg version="1.1" xmlns="http://www.w3.org/2000/svg" width="32" height="32" viewBox="0 0 32 32">
<title>play_and_win</title>
<path fill="#ff7900" d="M7.2 2.8v1.2h-4.803l0.013 3.158c0.010 3.078 0.013 3.171 0.077 3.514 0.192 0.976 0.49 1.715 0.998 2.483 0.733 1.104 1.834 1.974 3.085 2.442 0.31 0.115 1.018 0.307 1.136 0.307 0.045 0 0.077 0.032 0.099 0.102 0.093 0.266 0.531 1.162 0.666 1.357 0.035 0.051 0.147 0.218 0.253 0.371 0.326 0.48 0.451 0.64 0.797 1.014 1.046 1.133 2.445 2.026 3.83 2.442l0.25 0.074v3.53l-0.614 0.016c-0.339 0.010-0.675 0.032-0.746 0.054-0.656 0.195-1.114 0.522-1.446 1.030-0.227 0.349-0.336 0.669-0.381 1.098l-0.022 0.208h11.21v-0.112c0-0.179-0.090-0.573-0.186-0.806-0.291-0.717-1.024-1.315-1.754-1.434-0.086-0.016-0.17-0.029-0.189-0.032-0.016-0.003-0.266-0.010-0.55-0.010l-0.522-0.006v-3.539l0.154-0.038c0.275-0.074 0.848-0.298 1.27-0.499 1.098-0.525 2.182-1.373 2.944-2.304 0.070-0.086 0.166-0.202 0.211-0.256 0.371-0.454 0.973-1.514 1.194-2.102l0.054-0.144 0.282-0.054c0.672-0.125 1.558-0.493 2.176-0.899 0.419-0.278 0.662-0.474 1.005-0.813 1.011-0.995 1.619-2.211 1.866-3.718 0.013-0.080 0.029-1.558 0.035-3.29l0.013-3.142h-4.803v-2.4h-17.6v1.2zM16.608 7.424c0.32 0.96 0.589 1.75 0.598 1.76 0.006 0.010 0.81 0.016 1.779 0.016 0.973 0 1.763 0.013 1.76 0.026s-0.63 0.522-1.392 1.13c-0.762 0.608-1.424 1.139-1.469 1.181l-0.083 0.070 0.602 1.795 0.598 1.795-0.384-0.262c-0.211-0.144-0.464-0.317-0.563-0.387-0.099-0.067-0.595-0.41-1.101-0.758-0.506-0.352-0.934-0.637-0.95-0.637-0.019 0-0.147 0.077-0.282 0.173-0.138 0.096-0.474 0.326-0.746 0.515-0.272 0.186-0.653 0.448-0.848 0.582-0.909 0.627-1.088 0.746-1.094 0.723-0.006-0.019 0.669-2.077 1.139-3.466 0.026-0.077-0.051-0.141-1.456-1.264-0.816-0.653-1.482-1.19-1.485-1.2 0-0.010 0.787-0.016 1.754-0.013 0.963 0 1.766-0.003 1.786-0.010s0.301-0.81 0.624-1.786c0.323-0.973 0.598-1.76 0.611-1.75 0.010 0.013 0.282 0.806 0.602 1.766zM7.203 9.558c0 3.453 0.006 3.827 0.045 4.112 0.013 0.096 0.006 0.122-0.032 0.122-0.026 0-0.214-0.086-0.419-0.192-1.28-0.659-2.083-1.718-2.403-3.168-0.048-0.208-0.054-0.534-0.067-2.378l-0.010-2.134h2.883l0.003 3.638zM27.68 7.926c0 2.205-0.010 2.355-0.192 2.966-0.125 0.413-0.387 0.95-0.637 1.299-0.246 0.346-0.698 0.8-1.034 1.043-0.253 0.182-0.95 0.557-1.037 0.557-0.029 0-0.038-0.038-0.026-0.138 0.006-0.074 0.019-0.198 0.026-0.278 0.010-0.080 0.016-1.789 0.016-3.802l0.003-3.654h2.88v2.006z"></path>
<path fill="#ff7900" d="M9.408 28.022c-0.157 0.051-0.336 0.166-0.416 0.262-0.186 0.237-0.192 0.285-0.192 1.238v0.877h14.403l-0.010-0.922c-0.010-1.027-0.010-1.018-0.253-1.254-0.25-0.243 0.33-0.224-6.954-0.221-3.594 0-6.554 0.010-6.579 0.019z"></path>
</svg>
