<!-- Generated by IcoMoon.io -->
<svg version="1.1" xmlns="http://www.w3.org/2000/svg" width="32" height="32" viewBox="0 0 32 32">
<title>polls</title>
<path fill="#ff7900" d="M2.4 14.893c0 10.403-0.022 9.482 0.24 10.019 0.25 0.518 0.707 0.979 1.242 1.245 0.525 0.266-0.726 0.243 13.232 0.243h12.486v-9.306c0-9.091 0-9.315-0.061-9.549-0.234-0.909-1.11-1.747-2.003-1.91-0.134-0.026-3.792-0.035-12.662-0.035h-12.474v9.293zM25.258 10.157c0.138 0.096 0.176 0.134 0.243 0.243 0.157 0.259 0.074 0.461-0.448 1.104-0.186 0.227-0.579 0.717-0.877 1.088-0.298 0.368-0.864 1.075-1.261 1.568s-0.842 1.046-0.989 1.232c-0.147 0.186-0.314 0.378-0.371 0.426-0.266 0.24-0.646 0.269-0.95 0.070-0.064-0.042-0.435-0.448-0.829-0.902-0.39-0.454-0.758-0.877-0.813-0.938-0.496-0.563-0.563-0.678-0.563-0.95 0-0.438 0.32-0.778 0.746-0.797 0.394-0.016 0.467 0.042 1.238 0.944 0.48 0.563 0.56 0.627 0.736 0.579 0.070-0.019 0.221-0.16 0.576-0.544 0.045-0.048 0.189-0.202 0.32-0.339 0.406-0.432 0.797-0.842 1.312-1.389 1.254-1.331 1.245-1.318 1.357-1.392 0.173-0.112 0.416-0.115 0.573-0.003zM14.63 10.438c0.266 0.080 0.528 0.41 0.544 0.688 0.016 0.259-0.035 0.416-0.182 0.579-0.266 0.294 0.083 0.272-4.154 0.285-4.198 0.016-3.93 0.029-4.202-0.221-0.182-0.17-0.25-0.349-0.23-0.618 0.029-0.342 0.237-0.608 0.55-0.707 0.182-0.058 7.482-0.064 7.674-0.006zM12.259 13.648c0.659 0.234 0.726 1.139 0.106 1.456l-0.157 0.080h-5.216l-0.138-0.074c-0.666-0.349-0.592-1.264 0.122-1.482 0.045-0.013 1.219-0.026 2.611-0.026 2.189-0.003 2.55 0.003 2.672 0.045zM22.39 18.714c0.371 0.192 0.525 0.685 0.33 1.059-0.032 0.064-0.262 0.32-0.509 0.566-0.25 0.25-0.451 0.467-0.451 0.48 0 0.016 0.202 0.23 0.451 0.477 0.531 0.525 0.589 0.614 0.586 0.928 0 0.266-0.074 0.429-0.256 0.592-0.163 0.141-0.31 0.198-0.525 0.198-0.294 0.003-0.413-0.070-0.938-0.595l-0.474-0.47-0.47 0.47c-0.314 0.317-0.515 0.493-0.608 0.534-0.173 0.074-0.458 0.080-0.618 0.013-0.179-0.074-0.365-0.262-0.445-0.445-0.086-0.202-0.077-0.454 0.026-0.653 0.035-0.067 0.253-0.314 0.486-0.541 0.23-0.23 0.432-0.442 0.451-0.47 0.022-0.045-0.054-0.138-0.432-0.518-0.253-0.256-0.486-0.518-0.518-0.586-0.086-0.173-0.080-0.525 0.010-0.698 0.144-0.269 0.41-0.432 0.71-0.432s0.41 0.070 0.934 0.595l0.47 0.47 0.442-0.442c0.243-0.24 0.493-0.474 0.557-0.515 0.221-0.147 0.531-0.154 0.79-0.019zM14.627 20.038c0.147 0.042 0.349 0.208 0.445 0.362 0.099 0.16 0.131 0.41 0.077 0.618-0.058 0.214-0.173 0.368-0.362 0.48l-0.147 0.086h-7.68l-0.128-0.070c-0.278-0.147-0.435-0.403-0.435-0.694 0-0.358 0.243-0.685 0.582-0.784 0.166-0.045 7.491-0.045 7.648 0.003z"></path>
</svg>
