<!-- Generated by IcoMoon.io -->
<svg version="1.1" xmlns="http://www.w3.org/2000/svg" width="32" height="32" viewBox="0 0 32 32">
<title>popout-my-customers</title>
<path fill="#f60" d="M31.211 20.958c-0.5 1.539-2.563 2.295-3.496 3.576-0.942 1.294-1.029 3.487-2.323 4.428-1.281 0.932-3.389 0.344-4.928 0.844-1.485 0.482-2.837 2.213-4.483 2.213s-2.998-1.73-4.483-2.213c-1.539-0.5-3.647 0.088-4.928-0.844-1.294-0.942-1.382-3.134-2.323-4.428-0.932-1.281-2.996-2.037-3.495-3.576-0.482-1.485 0.727-3.303 0.727-4.949s-1.209-3.463-0.727-4.948c0.5-1.539 2.563-2.295 3.496-3.576 0.942-1.294 1.029-3.487 2.323-4.428 1.281-0.932 3.389-0.344 4.928-0.844 1.485-0.482 2.837-2.213 4.483-2.213s2.998 1.73 4.483 2.213c1.539 0.5 3.647-0.088 4.928 0.844 1.294 0.942 1.382 3.134 2.323 4.428 0.932 1.281 2.996 2.037 3.496 3.576 0.482 1.485-0.727 3.303-0.727 4.948s1.209 3.463 0.727 4.948z"></path>
</svg>
