<!-- Generated by IcoMoon.io -->
<svg version="1.1" xmlns="http://www.w3.org/2000/svg" width="32" height="32" viewBox="0 0 32 32">
<title>popout-family</title>
<path fill="#f60" d="M30.409 19.922c-0.605 0.605-1.318 1.037-2.076 1.297 0.33 0.701 0.515 1.484 0.515 2.31 0 3.001-2.432 5.433-5.433 5.433-0.856 0-1.665-0.199-2.385-0.551-0.262 0.729-0.685 1.414-1.269 1.998-2.122 2.122-5.561 2.121-7.683 0-0.605-0.605-1.037-1.318-1.297-2.076-0.701 0.33-1.484 0.515-2.31 0.515-3.001 0-5.433-2.432-5.433-5.433 0-0.856 0.199-1.665 0.551-2.385-0.729-0.262-1.414-0.685-1.998-1.269-2.122-2.122-2.122-5.561 0-7.683 0.605-0.605 1.318-1.037 2.076-1.297-0.33-0.701-0.515-1.484-0.515-2.31 0-3 2.432-5.433 5.433-5.433 0.856 0 1.665 0.198 2.385 0.551 0.262-0.729 0.685-1.414 1.269-1.998 2.122-2.122 5.561-2.122 7.683-0 0.605 0.605 1.037 1.318 1.297 2.076 0.701-0.33 1.484-0.515 2.31-0.515 3.001 0 5.433 2.432 5.433 5.433 0 0.856-0.199 1.665-0.551 2.385 0.729 0.262 1.414 0.685 1.998 1.269 2.122 2.122 2.122 5.561 0 7.683z"></path>
</svg>
