<!-- Generated by IcoMoon.io -->
<svg version="1.1" xmlns="http://www.w3.org/2000/svg" width="32" height="32" viewBox="0 0 32 32">
<title>popout-fun</title>
<path fill="#f60" d="M29.301 16.001c1.669-1.699 2.699-4.026 2.699-6.594 0-5.196-4.212-9.407-9.407-9.407-2.568 0-4.896 1.031-6.593 2.7-1.698-1.669-4.025-2.7-6.593-2.7-5.195 0-9.407 4.211-9.407 9.407 0 2.568 1.031 4.895 2.7 6.594-1.669 1.697-2.7 4.024-2.7 6.592 0 5.195 4.212 9.407 9.407 9.407 2.568 0 4.896-1.031 6.593-2.7 1.697 1.669 4.025 2.7 6.593 2.7 5.195 0 9.407-4.212 9.407-9.407 0-2.568-1.031-4.896-2.699-6.592z"></path>
</svg>
