<!-- Generated by IcoMoon.io -->
<svg version="1.1" xmlns="http://www.w3.org/2000/svg" width="32" height="32" viewBox="0 0 32 32">
<title>portfolio</title>
<path fill="#ff7900" d="M3.232 15.107c0 10.595-0.022 9.648 0.227 10.163 0.224 0.467 0.614 0.806 1.139 0.992l0.25 0.090 23.92 0.016-0.006-7.99-0.010-7.994-0.093-0.24c-0.198-0.515-0.544-0.912-0.982-1.126-0.477-0.234 0.026-0.218-6.918-0.218-4.893 0-6.262-0.010-6.326-0.042-0.045-0.022-0.595-0.723-1.248-1.597l-1.168-1.558-8.784-0.003v9.507zM16.352 11.197c1.046 0.269 1.843 1.123 2.026 2.17 0.243 1.411-0.618 2.746-2.010 3.117-0.31 0.083-0.957 0.099-1.232 0.032-0.989-0.24-1.709-0.886-2.022-1.818-0.41-1.222 0.115-2.589 1.242-3.229 0.598-0.336 1.344-0.438 1.997-0.272zM13.504 16.544c0.56 0.464 1.35 0.765 2.042 0.774 0.893 0.016 1.578-0.198 2.23-0.688 0.118-0.093 0.243-0.186 0.272-0.208 0.048-0.035 0.090-0.019 0.291 0.118 0.65 0.435 1.101 1.027 1.341 1.76 0.173 0.531 0.17 0.483 0.176 3.178l0.006 2.522h-3.475c-2.954 0-3.504-0.010-3.677-0.048-0.518-0.122-0.912-0.477-1.098-0.995-0.067-0.186-0.070-0.234-0.077-2.013-0.003-1.632 0.003-1.859 0.054-2.15 0.144-0.81 0.538-1.504 1.142-2.006 0.208-0.173 0.534-0.403 0.57-0.403 0.006 0 0.099 0.070 0.202 0.16z"></path>
</svg>
