<!-- Generated by IcoMoon.io -->
<svg version="1.1" xmlns="http://www.w3.org/2000/svg" width="32" height="32" viewBox="0 0 32 32">
<title>POS_payment</title>
<path fill="#ff7900" d="M11.306 2.454c-0.189 0.067-0.403 0.282-0.467 0.474-0.048 0.138-0.054 0.352-0.054 1.814v1.658h0.8v-1.45c0-1.091 0.010-1.466 0.042-1.526 0.022-0.042 0.090-0.112 0.147-0.15 0.106-0.070 0.134-0.074 0.758-0.074h0.653v3.2h1.6v-3.2h2.64c2.918 0 2.768-0.010 2.896 0.202 0.061 0.096 0.064 0.17 0.064 1.549v1.45h0.803l-0.010-1.722-0.010-1.718-0.090-0.15c-0.048-0.083-0.134-0.189-0.192-0.23-0.246-0.189 0.026-0.179-4.915-0.176-3.942 0-4.55 0.010-4.666 0.051z"></path>
<path fill="#ff7900" d="M17.754 4.029c-0.144 0.048-0.301 0.157-0.39 0.275-0.166 0.218-0.179 0.304-0.179 1.235v0.861h1.6v-0.874c-0.003-0.643-0.013-0.902-0.045-0.992-0.109-0.301-0.381-0.502-0.704-0.522-0.109-0.006-0.234 0-0.282 0.016z"></path>
<path fill="#ff7900" d="M9.61 7.245c-0.576 0.141-1.072 0.65-1.19 1.229-0.026 0.115-0.035 1.315-0.035 3.846v3.68l1.6 1.6v5.258c0 3.638 0.010 5.318 0.035 5.45 0.109 0.602 0.634 1.133 1.238 1.258 0.122 0.026 1.52 0.035 4.752 0.035 3.859 0 4.608-0.010 4.755-0.048 0.592-0.157 1.062-0.643 1.184-1.226 0.026-0.118 0.035-1.718 0.035-5.446v-5.277l1.6-1.6v-3.706c0-3.098-0.010-3.734-0.048-3.878-0.157-0.602-0.659-1.078-1.245-1.184-0.294-0.054-12.458-0.045-12.682 0.010zM21.184 12.4v2.8h-10.4v-5.6h10.4v2.8zM13.795 18.474c0.173 0.115 0.189 0.176 0.189 0.726s-0.016 0.611-0.189 0.726c-0.106 0.074-0.125 0.074-1.008 0.074-0.835 0-0.906-0.003-1.002-0.064-0.179-0.106-0.202-0.195-0.202-0.742 0-0.541 0.016-0.605 0.189-0.72 0.106-0.074 0.125-0.074 1.011-0.074s0.906 0 1.011 0.074zM16.963 18.448c0.192 0.099 0.221 0.202 0.221 0.746 0 0.547-0.022 0.637-0.202 0.742-0.096 0.061-0.166 0.064-1.002 0.064-0.883 0-0.902 0-1.008-0.074-0.173-0.115-0.189-0.179-0.189-0.72 0-0.547 0.022-0.637 0.202-0.742 0.096-0.061 0.166-0.064 0.992-0.064 0.739 0 0.906 0.010 0.986 0.048zM20.163 18.448c0.192 0.099 0.221 0.198 0.221 0.752 0 0.55-0.016 0.611-0.189 0.726-0.106 0.074-0.125 0.074-1.011 0.074s-0.906 0-1.011-0.074c-0.173-0.115-0.189-0.176-0.189-0.726s0.016-0.611 0.189-0.726c0.106-0.074 0.125-0.074 1.002-0.074 0.742 0 0.909 0.010 0.989 0.048zM13.763 20.848c0.192 0.099 0.221 0.202 0.221 0.746 0 0.547-0.022 0.637-0.202 0.742-0.096 0.061-0.166 0.064-0.998 0.064s-0.902-0.003-0.998-0.064c-0.176-0.106-0.202-0.195-0.202-0.736s0.026-0.63 0.202-0.736c0.096-0.061 0.166-0.064 0.992-0.064 0.739 0 0.906 0.010 0.986 0.048zM16.96 20.842c0.042 0.022 0.112 0.090 0.15 0.147 0.067 0.102 0.074 0.141 0.074 0.602 0 0.55-0.022 0.64-0.202 0.746-0.096 0.061-0.166 0.064-1.002 0.064-0.883 0-0.902 0-1.008-0.074-0.173-0.115-0.189-0.179-0.189-0.72 0-0.547 0.022-0.637 0.202-0.742 0.096-0.061 0.166-0.064 0.998-0.064 0.653 0 0.918 0.013 0.976 0.042zM20.163 20.848c0.192 0.099 0.221 0.202 0.221 0.746 0 0.547-0.022 0.637-0.202 0.742-0.096 0.061-0.166 0.064-0.998 0.064s-0.902-0.003-0.998-0.064c-0.176-0.106-0.202-0.195-0.202-0.736s0.026-0.63 0.202-0.736c0.096-0.061 0.166-0.064 0.992-0.064 0.739 0 0.906 0.010 0.986 0.048zM13.795 23.274c0.173 0.115 0.189 0.179 0.189 0.72 0 0.547-0.022 0.637-0.202 0.742-0.096 0.061-0.166 0.064-0.998 0.064s-0.902-0.003-0.998-0.064c-0.176-0.106-0.202-0.195-0.202-0.736s0.026-0.63 0.202-0.736c0.096-0.061 0.166-0.064 1.002-0.064 0.883 0 0.902 0 1.008 0.074zM16.963 23.248c0.192 0.099 0.221 0.202 0.221 0.746 0 0.547-0.022 0.637-0.202 0.742-0.096 0.061-0.166 0.064-1.002 0.064-0.883 0-0.902 0-1.008-0.074-0.173-0.115-0.189-0.179-0.189-0.72 0-0.547 0.022-0.637 0.202-0.742 0.096-0.061 0.166-0.064 0.992-0.064 0.739 0 0.906 0.010 0.986 0.048zM20.224 23.28c0.141 0.128 0.16 0.211 0.16 0.72 0 0.541-0.026 0.63-0.202 0.736-0.096 0.061-0.166 0.064-0.998 0.064s-0.902-0.003-0.998-0.064c-0.176-0.106-0.202-0.195-0.202-0.736s0.026-0.627 0.202-0.739c0.096-0.058 0.154-0.061 1.034-0.054 0.883 0.010 0.938 0.013 1.005 0.074zM13.763 25.648c0.192 0.099 0.221 0.202 0.221 0.746 0 0.547-0.022 0.637-0.202 0.742-0.096 0.061-0.166 0.064-0.998 0.064s-0.902-0.003-0.998-0.064c-0.176-0.106-0.202-0.195-0.202-0.736s0.026-0.63 0.202-0.736c0.096-0.061 0.166-0.064 0.992-0.064 0.739 0 0.906 0.010 0.986 0.048zM16.963 25.648c0.192 0.102 0.221 0.198 0.221 0.762 0 0.464-0.006 0.515-0.067 0.602-0.128 0.182-0.166 0.189-1.139 0.189-0.826 0-0.896-0.003-0.992-0.064-0.176-0.106-0.202-0.195-0.202-0.736s0.026-0.63 0.202-0.736c0.096-0.061 0.166-0.064 0.992-0.064 0.739 0 0.906 0.010 0.986 0.048zM20.195 25.674c0.173 0.115 0.189 0.179 0.189 0.72 0 0.547-0.022 0.637-0.202 0.742-0.096 0.061-0.166 0.064-0.998 0.064s-0.902-0.003-0.998-0.064c-0.176-0.106-0.202-0.195-0.202-0.736s0.026-0.63 0.202-0.736c0.096-0.061 0.166-0.064 1.002-0.064 0.883 0 0.902 0 1.008 0.074z"></path>
</svg>
