<!-- Generated by IcoMoon.io -->
<svg version="1.1" xmlns="http://www.w3.org/2000/svg" width="32" height="32" viewBox="0 0 32 32">
<title>powerpoint_file</title>
<path fill="#ff7900" d="M5.6 15.302c0 14.067-0.013 13.034 0.179 13.43 0.115 0.234 0.454 0.573 0.688 0.688 0.397 0.192-0.342 0.179 10.23 0.179h9.702v-19.2l-2.518-0.003c-1.389 0-2.586-0.010-2.666-0.019-0.467-0.058-1.005-0.262-1.421-0.538-0.445-0.294-0.896-0.842-1.123-1.357-0.109-0.246-0.224-0.659-0.253-0.915-0.006-0.070-0.016-1.261-0.016-2.65l-0.003-2.518h-12.8v12.902zM12.531 14.432c0.957 0.157 1.645 0.502 2.301 1.165 0.47 0.474 0.771 0.963 0.973 1.581 0.144 0.435 0.192 0.806 0.179 1.35-0.029 1.056-0.403 1.926-1.165 2.691-0.582 0.579-1.206 0.922-2.032 1.107-0.32 0.074-1.258 0.070-1.581 0-0.819-0.186-1.437-0.525-2.026-1.11-0.582-0.579-0.925-1.206-1.104-2.032-0.080-0.362-0.080-1.181-0.003-1.549 0.17-0.794 0.506-1.434 1.046-2 0.624-0.65 1.446-1.072 2.333-1.2 0.23-0.032 0.877-0.035 1.078-0.003zM24.259 14.448c0.192 0.067 0.333 0.186 0.435 0.362 0.077 0.128 0.090 0.186 0.090 0.39s-0.016 0.266-0.086 0.387c-0.099 0.17-0.259 0.301-0.445 0.365-0.186 0.067-5.13 0.070-5.315 0.003-0.547-0.195-0.707-0.893-0.301-1.309 0.243-0.253 0.102-0.24 2.954-0.243 2.17 0 2.554 0.006 2.669 0.045zM24.39 17.706c0.461 0.269 0.544 0.883 0.17 1.254-0.246 0.25-0.141 0.24-2.976 0.24-2.819 0-2.694 0.010-2.944-0.24-0.144-0.144-0.24-0.368-0.24-0.563 0-0.33 0.25-0.669 0.57-0.765 0.048-0.016 1.254-0.026 2.678-0.022l2.592 0.006 0.15 0.090zM24.259 20.848c0.554 0.189 0.717 0.899 0.301 1.312-0.25 0.25-0.125 0.24-2.944 0.24-2.816 0-2.73 0.006-2.963-0.227-0.186-0.186-0.262-0.384-0.243-0.611 0.029-0.339 0.23-0.611 0.528-0.717 0.093-0.032 0.643-0.042 2.65-0.045 2.189 0 2.547 0.006 2.672 0.048z"></path>
<path fill="#ff7900" d="M11.552 15.229c-0.675 0.099-1.338 0.435-1.821 0.925-0.797 0.81-1.107 1.952-0.826 3.046 0.31 1.203 1.312 2.131 2.547 2.352 0.349 0.064 0.973 0.042 1.302-0.042 1.094-0.288 1.91-1.040 2.278-2.102 0.093-0.259 0.166-0.71 0.166-0.995 0-0.25-0.054-0.682-0.093-0.746-0.019-0.029-0.422 0.061-1.51 0.333-0.816 0.205-1.51 0.378-1.542 0.387s0.374-0.557 0.902-1.261l0.96-1.28-0.112-0.086c-0.269-0.205-0.771-0.413-1.245-0.512-0.157-0.035-0.816-0.045-1.008-0.019z"></path>
<path fill="#ff7900" d="M20 4.918c0.003 1.61 0.016 2.547 0.035 2.65 0.125 0.586 0.589 1.085 1.123 1.2 0.122 0.026 0.89 0.032 2.698 0.026l2.528-0.010-3.178-3.178c-1.744-1.744-3.181-3.174-3.19-3.174s-0.016 1.12-0.016 2.486z"></path>
</svg>
