<!-- Generated by IcoMoon.io -->
<svg version="1.1" xmlns="http://www.w3.org/2000/svg" width="32" height="32" viewBox="0 0 32 32">
<title>power</title>
<path fill="#ff7900" d="M15.632 3.235c-0.419 0.086-0.902 0.454-1.082 0.829-0.192 0.403-0.182 0.022-0.182 6.326 0 4.086 0.010 5.814 0.035 5.936 0.147 0.71 0.758 1.226 1.485 1.258 0.714 0.032 1.286-0.339 1.581-1.018l0.083-0.198 0.010-5.84c0.006-4.253 0-5.891-0.026-6.032-0.102-0.544-0.512-1.018-1.046-1.206-0.214-0.077-0.621-0.102-0.858-0.054z"></path>
<path fill="#ff7900" d="M9.664 6.806c-0.438 0.080-0.957 0.445-1.715 1.21-1.626 1.635-2.701 3.77-3.069 6.096-0.010 0.061-0.022 0.134-0.032 0.16-0.006 0.026-0.022 0.147-0.032 0.272-0.013 0.122-0.029 0.266-0.035 0.32-0.032 0.192-0.038 1.642-0.010 1.984 0.278 3.453 2.166 6.602 5.101 8.502 1.536 0.995 3.331 1.603 5.152 1.747 0.374 0.029 1.491 0.029 1.84 0 3.347-0.291 6.31-1.997 8.266-4.762 0.563-0.797 1.155-1.984 1.453-2.912 0.182-0.57 0.387-1.45 0.445-1.92 0.010-0.096 0.026-0.205 0.032-0.24 0.090-0.483 0.083-1.994-0.016-2.784-0.118-0.925-0.426-2.080-0.742-2.79-0.035-0.074-0.061-0.141-0.061-0.15 0-0.042-0.374-0.79-0.55-1.101-0.31-0.547-0.838-1.299-1.194-1.699-0.538-0.611-1.069-1.123-1.584-1.526-0.742-0.582-1.632-0.563-2.243 0.048-0.336 0.339-0.48 0.704-0.464 1.184 0.016 0.509 0.179 0.81 0.701 1.286 0.835 0.771 1.267 1.251 1.693 1.888 0.496 0.742 0.794 1.392 1.082 2.349 0.064 0.214 0.189 0.918 0.221 1.232 0.029 0.314 0.026 1.44-0.006 1.584-0.006 0.035-0.026 0.15-0.038 0.256-0.122 1.056-0.586 2.288-1.222 3.264-0.646 0.989-1.565 1.878-2.56 2.477-1.002 0.598-1.936 0.922-3.226 1.104-0.243 0.035-1.344 0.048-1.648 0.016-1.888-0.182-3.6-0.992-4.931-2.33-1.286-1.293-2.051-2.88-2.282-4.739-0.067-0.531-0.045-1.587 0.045-2.112 0.294-1.782 1.104-3.344 2.362-4.56 0.202-0.195 0.486-0.467 0.634-0.611 0.288-0.278 0.416-0.499 0.49-0.838 0.077-0.365 0.006-0.806-0.176-1.123-0.208-0.352-0.595-0.646-0.992-0.752-0.157-0.042-0.534-0.058-0.685-0.029z"></path>
</svg>
