<!-- Generated by IcoMoon.io -->
<svg version="1.1" xmlns="http://www.w3.org/2000/svg" width="32" height="32" viewBox="0 0 32 32">
<title>presentation</title>
<path fill="#ff7900" d="M2.915 3.254c-0.186 0.064-0.4 0.288-0.464 0.48-0.067 0.192-0.070 1.146-0.006 1.328 0.096 0.266 0.355 0.48 0.64 0.528l0.115 0.019v8.454c0 9.485-0.022 8.634 0.24 8.896 0.262 0.266-1.030 0.24 12.541 0.24 7.094 0 12.15-0.013 12.224-0.032 0.176-0.038 0.371-0.189 0.483-0.368l0.096-0.154 0.010-8.518 0.006-8.518 0.115-0.019c0.285-0.048 0.544-0.262 0.64-0.528 0.061-0.173 0.061-1.139-0.003-1.315-0.064-0.189-0.195-0.346-0.365-0.445l-0.147-0.086-12.992-0.006c-11.715-0.003-13.005 0-13.133 0.045zM27.2 13.6v8h-22.4v-16h22.4v8z"></path>
<path fill="#ff7900" d="M9.92 8.822c-0.403 0.048-1.088 0.269-1.427 0.458-1.046 0.586-1.786 1.594-2.019 2.749-0.077 0.374-0.080 1.075-0.013 1.459 0.147 0.806 0.493 1.485 1.059 2.077 0.614 0.643 1.37 1.037 2.288 1.19 0.317 0.051 1.027 0.038 1.363-0.029 0.755-0.15 1.424-0.502 1.994-1.050 0.602-0.573 0.982-1.264 1.162-2.109 0.042-0.202 0.054-0.406 0.054-0.8-0.003-0.461-0.013-0.573-0.086-0.874-0.198-0.8-0.56-1.427-1.139-1.981-0.557-0.531-1.19-0.864-1.971-1.040-0.218-0.048-1.024-0.080-1.264-0.051zM11.040 9.667c0.778 0.166 1.443 0.589 1.907 1.2 0.163 0.218 0.39 0.627 0.442 0.797 0.016 0.058-0.083 0.099-1.142 0.477-1.347 0.483-1.712 0.611-1.789 0.643-0.054 0.022-0.058-0.067-0.058-1.584v-1.61l0.25 0.022c0.134 0.013 0.31 0.038 0.39 0.054z"></path>
<path fill="#ff7900" d="M16 10.4v0.8h8v-1.6h-8v0.8z"></path>
<path fill="#ff7900" d="M16 12.8v0.8h9.6v-1.6h-9.6v0.8z"></path>
<path fill="#ff7900" d="M16 15.2v0.8h8v-1.6h-8v0.8z"></path>
<path fill="#ff7900" d="M15.2 26v2h-1.242c-1.344 0-1.44 0.010-1.651 0.173-0.061 0.045-0.147 0.15-0.198 0.234-0.090 0.15-0.093 0.17-0.102 0.672l-0.013 0.522h8.006v-0.458c0-0.557-0.042-0.707-0.246-0.906-0.237-0.234-0.269-0.237-1.696-0.237h-1.258v-4h-1.6v2z"></path>
</svg>
