<!-- Generated by IcoMoon.io -->
<svg version="1.1" xmlns="http://www.w3.org/2000/svg" width="32" height="32" viewBox="0 0 32 32">
<title>previous</title>
<path fill="#ff7900" d="M15.059 2.544c-0.067 0.070-0.566 0.582-1.107 1.136s-1.059 1.088-1.152 1.184c-0.093 0.096-0.595 0.611-1.117 1.146s-1.098 1.123-1.277 1.312c-0.182 0.189-0.749 0.771-1.261 1.293-0.509 0.522-1.014 1.040-1.12 1.152-0.109 0.112-0.643 0.659-1.19 1.222-0.547 0.56-1.088 1.117-1.203 1.235s-0.515 0.528-0.893 0.915c-0.835 0.854-1.024 1.088-1.222 1.501-0.23 0.486-0.298 0.797-0.298 1.36 0 0.531 0.067 0.867 0.256 1.28 0.234 0.502 0.342 0.64 1.277 1.594 0.374 0.381 0.768 0.787 0.88 0.902 0.109 0.115 0.64 0.662 1.184 1.216 0.541 0.554 1.066 1.094 1.168 1.2 0.099 0.106 0.458 0.474 0.797 0.819 1.43 1.462 2.678 2.746 2.835 2.909 0.093 0.096 0.624 0.643 1.184 1.216s1.107 1.133 1.216 1.248c0.394 0.41 1.162 1.184 1.171 1.184 0.006 0 0.013-1.613 0.013-3.584v-3.584h5.706c3.92 0 5.766-0.010 5.898-0.035 0.49-0.086 0.909-0.304 1.274-0.662 0.221-0.214 0.33-0.368 0.48-0.666 0.243-0.49 0.227-0.118 0.227-5.021 0-4.726 0.010-4.493-0.166-4.925-0.227-0.56-0.749-1.082-1.293-1.302-0.461-0.186 0.022-0.17-6.307-0.179l-5.818-0.010-0.006-3.594-0.010-3.59-0.125 0.128z"></path>
</svg>
