<!-- Generated by IcoMoon.io -->
<svg version="1.1" xmlns="http://www.w3.org/2000/svg" width="32" height="32" viewBox="0 0 32 32">
<title>printer</title>
<path fill="#ff7900" d="M7.2 10.4v4.8l-1.686 0.003c-0.931 0-1.728 0.010-1.776 0.016-0.608 0.102-1.126 0.586-1.293 1.206-0.035 0.138-0.045 0.912-0.045 4.349 0 2.947 0.010 4.23 0.035 4.352 0.122 0.582 0.592 1.069 1.184 1.226 0.259 0.070 24.502 0.070 24.762 0 0.528-0.141 0.934-0.509 1.13-1.027l0.074-0.189 0.010-4.266c0.006-3.827 0.003-4.285-0.045-4.464-0.144-0.57-0.582-1.005-1.165-1.158-0.144-0.038-0.486-0.048-1.878-0.048h-1.706v-3.2l-6.4-6.4h-11.2v4.8zM17.6 9.29c0 1.933 0.003 2.109 0.061 2.317 0.15 0.582 0.653 1.053 1.232 1.158 0.125 0.022 0.909 0.035 2.25 0.035h2.058v6.4h-14.4v-12h8.8v2.090zM16.272 23.254c0.448 0.15 0.662 0.73 0.422 1.139-0.096 0.163-0.157 0.218-0.339 0.314-0.624 0.323-1.341-0.298-1.107-0.96 0.15-0.435 0.586-0.643 1.024-0.493z"></path>
</svg>
