<!-- Generated by IcoMoon.io -->
<svg version="1.1" xmlns="http://www.w3.org/2000/svg" width="32" height="32" viewBox="0 0 32 32">
<title>profileringtone</title>
<path fill="#ff7900" d="M9.226 2.445c-0.579 0.141-1.069 0.646-1.19 1.229-0.051 0.24-0.051 24.413 0 24.653 0.125 0.598 0.64 1.114 1.238 1.238 0.24 0.051 13.213 0.051 13.453 0 0.598-0.125 1.114-0.64 1.238-1.238 0.051-0.24 0.051-24.413 0-24.653-0.118-0.563-0.611-1.082-1.165-1.232-0.054-0.013-3.091-0.029-6.752-0.032-5.245-0.003-6.691 0.003-6.822 0.035zM17.398 3.264c0.115 0.070 0.202 0.211 0.202 0.336s-0.086 0.266-0.202 0.336c-0.096 0.061-0.17 0.064-1.392 0.064-1.424 0-1.421 0-1.542-0.202-0.115-0.189-0.058-0.416 0.138-0.534 0.096-0.061 0.17-0.064 1.398-0.064s1.302 0.003 1.398 0.064zM22.4 15.6v10.8h-12.8v-21.6h12.8v10.8zM16.4 27.309c0.39 0.23 0.512 0.749 0.266 1.12-0.112 0.17-0.221 0.256-0.413 0.323-0.608 0.214-1.222-0.394-1.005-1.005 0.086-0.246 0.282-0.442 0.522-0.518 0.16-0.051 0.47-0.013 0.63 0.080z"></path>
<path fill="#ff7900" d="M17.088 13.069v3.030l-0.182-0.026c-0.102-0.013-0.301-0.026-0.442-0.026-0.832 0.006-1.558 0.723-1.597 1.571-0.013 0.317 0.035 0.547 0.173 0.829 0.205 0.413 0.534 0.71 0.954 0.854 0.272 0.093 0.758 0.099 1.034 0.016 0.198-0.064 0.509-0.237 0.65-0.368 0.112-0.106 0.349-0.464 0.403-0.614 0.125-0.346 0.125-0.397 0.128-3.629 0-1.725 0.006-3.139 0.013-3.146 0.003-0.006 0.122 0.003 0.262 0.022 0.906 0.118 1.334 0.422 1.92 1.366 0.058 0.096 0.182 0.122 0.33 0.077l0.122-0.035-0.038-0.23c-0.022-0.128-0.051-0.301-0.061-0.381-0.029-0.221-0.134-0.611-0.224-0.829-0.122-0.307-0.275-0.541-0.499-0.768-0.362-0.362-0.806-0.566-1.395-0.64-0.157-0.019-0.32-0.042-0.362-0.048-0.042-0.010-0.326-0.022-0.634-0.035l-0.554-0.022v3.030z"></path>
<path fill="#ff7900" d="M12.224 14.941c-0.506 0.506-0.886 1.283-1.040 2.118-0.061 0.33-0.067 0.534-0.035 0.893 0.061 0.669 0.205 1.19 0.458 1.664 0.256 0.483 0.685 0.998 0.861 1.043 0.096 0.026 0.227-0.035 0.253-0.118 0.026-0.080-0.083-0.307-0.224-0.461-0.064-0.070-0.179-0.221-0.253-0.336-0.429-0.64-0.634-1.347-0.611-2.112 0.022-0.886 0.317-1.645 0.88-2.291 0.182-0.208 0.253-0.381 0.195-0.49-0.022-0.035-0.061-0.070-0.093-0.070-0.029-0.003-0.090-0.010-0.134-0.013-0.058-0.006-0.125 0.038-0.256 0.173z"></path>
<path fill="#ff7900" d="M13.155 15.427c-0.086 0.035-0.371 0.333-0.547 0.579-0.362 0.509-0.483 0.957-0.464 1.706 0.019 0.752 0.195 1.28 0.634 1.872 0.214 0.291 0.346 0.416 0.438 0.416 0.189 0 0.298-0.192 0.198-0.349-0.029-0.045-0.128-0.176-0.218-0.291-0.214-0.269-0.413-0.666-0.499-0.998-0.096-0.368-0.093-0.96 0.003-1.322 0.096-0.355 0.285-0.723 0.531-1.024 0.115-0.141 0.208-0.275 0.211-0.298 0.003-0.019 0.006-0.058 0.010-0.080 0.019-0.125-0.166-0.259-0.298-0.211z"></path>
<path fill="#ff7900" d="M13.824 16.144c-0.045 0.022-0.134 0.109-0.198 0.186-0.477 0.573-0.614 1.322-0.381 2.070 0.102 0.333 0.416 0.79 0.605 0.893 0.154 0.080 0.358-0.090 0.317-0.259-0.013-0.042-0.080-0.154-0.15-0.25-0.362-0.48-0.474-0.976-0.339-1.501 0.061-0.24 0.166-0.442 0.355-0.691 0.16-0.211 0.176-0.288 0.077-0.413-0.074-0.093-0.163-0.102-0.285-0.035z"></path>
</svg>
