<!-- Generated by IcoMoon.io -->
<svg version="1.1" xmlns="http://www.w3.org/2000/svg" width="32" height="32" viewBox="0 0 32 32">
<title>public_transport</title>
<path fill="#ff7900" d="M1.334 10.451c-0.166 0.051-0.362 0.224-0.461 0.403-0.054 0.099-0.058 0.397-0.067 6.224l-0.006 6.115 0.182 0.019c0.102 0.010 0.266 0.026 0.362 0.035s0.24 0.026 0.32 0.032c0.080 0.010 0.403 0.038 0.72 0.064 0.317 0.029 0.634 0.058 0.704 0.064s0.221 0.022 0.336 0.032c0.115 0.010 0.272 0.026 0.352 0.032s0.246 0.022 0.368 0.032c0.234 0.019 0.445 0.038 0.688 0.064 0.080 0.006 0.253 0.022 0.384 0.032s0.275 0.026 0.32 0.035c0.080 0.013 0.083 0.006 0.122-0.211 0.106-0.624 0.426-1.226 0.896-1.693s1.037-0.762 1.693-0.88c0.317-0.058 0.973-0.045 1.267 0.026 1.36 0.326 2.368 1.494 2.477 2.874l0.019 0.25h7.19v-0.074c0.006-0.416 0.141-0.944 0.336-1.344 0.426-0.861 1.219-1.485 2.176-1.706 0.339-0.080 1.088-0.080 1.392 0 0.643 0.166 1.088 0.413 1.536 0.848 0.573 0.56 0.944 1.402 0.957 2.186l0.003 0.090h2.477c2.192 0 2.49-0.006 2.598-0.051 0.182-0.077 0.326-0.198 0.422-0.362l0.086-0.147v-12.451l-0.083-0.157c-0.090-0.179-0.291-0.349-0.47-0.4-0.080-0.022-4.726-0.032-14.63-0.029-12.688 0-14.531 0.006-14.666 0.048zM8.611 12.074c0.058 0.038 0.125 0.109 0.147 0.15 0.032 0.061 0.042 0.563 0.042 2.176 0 2.022-0.003 2.099-0.064 2.198-0.128 0.214 0.048 0.202-3.136 0.202s-3.008 0.013-3.136-0.202c-0.061-0.099-0.064-0.176-0.064-2.192 0-2.307-0.006-2.218 0.202-2.342 0.099-0.061 0.182-0.064 3.002-0.064h2.899l0.109 0.074zM16.579 12.048c0.051 0.029 0.125 0.096 0.157 0.154 0.061 0.099 0.064 0.176 0.064 2.202v2.099l-0.074 0.109c-0.038 0.058-0.109 0.125-0.15 0.147-0.064 0.032-0.723 0.042-2.97 0.042-3.19 0-3.014 0.013-3.142-0.202-0.061-0.099-0.064-0.176-0.064-2.192 0-2.218-0.003-2.182 0.147-2.314 0.035-0.032 0.090-0.061 0.125-0.070 0.035-0.006 1.357-0.016 2.938-0.019 2.538-0.003 2.886 0.003 2.97 0.045zM24.691 12.141l0.109 0.125v2.115c0 2.042-0.003 2.118-0.064 2.218-0.128 0.214 0.048 0.202-3.136 0.202s-3.008 0.013-3.136-0.202c-0.061-0.099-0.064-0.176-0.064-2.192 0-2.307-0.006-2.214 0.202-2.342 0.099-0.064 0.17-0.064 3.043-0.058l2.938 0.010 0.109 0.125zM29.398 12.064c0.218 0.131 0.202-0.214 0.202 4.742 0 4.397 0 4.493-0.064 4.592-0.122 0.202-0.118 0.202-1.542 0.202-1.408 0-1.392 0-1.52-0.189l-0.074-0.109v-4.493c0-4.963-0.016-4.614 0.202-4.746 0.096-0.061 0.17-0.064 1.398-0.064s1.302 0.003 1.398 0.064z"></path>
<path fill="#ff7900" d="M8.272 21.661c-1.325 0.317-2.131 1.642-1.792 2.944 0.282 1.091 1.328 1.856 2.445 1.786 0.778-0.048 1.434-0.419 1.866-1.053 0.467-0.694 0.534-1.603 0.17-2.378-0.285-0.608-0.88-1.101-1.536-1.277-0.307-0.083-0.848-0.093-1.152-0.022z"></path>
<path fill="#ff7900" d="M21.99 21.635c-0.902 0.15-1.664 0.851-1.914 1.757-0.080 0.285-0.080 0.928-0.003 1.21 0.294 1.053 1.187 1.76 2.262 1.786 0.72 0.019 1.312-0.227 1.818-0.755 0.55-0.576 0.771-1.45 0.57-2.23-0.182-0.694-0.704-1.309-1.357-1.6-0.39-0.173-0.941-0.24-1.376-0.166z"></path>
</svg>
