<!-- Generated by IcoMoon.io -->
<svg version="1.1" xmlns="http://www.w3.org/2000/svg" width="32" height="32" viewBox="0 0 32 32">
<title>Quirky_stories</title>
<path fill="#ff7900" d="M14.656 5.344c-1.197 0.125-1.888 0.259-3.040 0.598-2.429 0.71-5.11 2.166-7.184 3.901-0.445 0.371-0.486 0.413-0.422 0.451 0.029 0.013 0.102 0.074 0.166 0.131 0.659 0.605 2.291 1.757 3.184 2.256 0.080 0.042 0.237 0.131 0.352 0.198 0.368 0.211 1.443 0.739 1.904 0.938 1.014 0.429 2.029 0.765 2.995 0.986 0.288 0.064 0.531 0.125 0.538 0.128 0.013 0.013-0.042 0.131-0.445 0.989-0.246 0.518-0.896 1.901-1.008 2.144-0.058 0.122-0.166 0.352-0.24 0.512-0.074 0.157-0.182 0.387-0.24 0.512-0.058 0.122-0.173 0.368-0.256 0.544s-0.246 0.522-0.358 0.768c-0.115 0.246-0.301 0.64-0.413 0.877-0.112 0.234-0.205 0.432-0.205 0.435 0 0.006-0.122 0.266-0.272 0.576s-0.272 0.57-0.272 0.576c0 0.003-0.083 0.186-0.189 0.403-0.179 0.384-0.237 0.506-0.531 1.133-0.074 0.157-0.182 0.387-0.24 0.506-0.054 0.122-0.096 0.224-0.093 0.227 0.058 0.051 0.416 0.259 0.627 0.368 0.672 0.336 1.453 0.582 2.554 0.8 0.266 0.051 0.538 0.102 0.608 0.112 0.691 0.086 0.928 0.115 1.12 0.131 0.125 0.010 0.269 0.026 0.32 0.032 0.339 0.042 1.072 0.064 2.016 0.064 0.97 0 1.418-0.013 2-0.064 0.806-0.067 0.819-0.070 1.504-0.163 1.261-0.173 2.538-0.49 3.424-0.845 0.243-0.096 0.81-0.381 0.851-0.426 0.029-0.029-0.003-0.122-0.128-0.374-0.090-0.186-0.208-0.438-0.266-0.56-0.099-0.218-0.275-0.595-0.637-1.357-0.096-0.198-0.173-0.365-0.173-0.371 0-0.003-0.096-0.208-0.211-0.451-0.118-0.246-0.259-0.547-0.317-0.669-0.163-0.355-1.062-2.266-1.251-2.669-0.096-0.198-0.173-0.368-0.173-0.371 0-0.006-0.106-0.23-0.237-0.502-0.128-0.269-0.272-0.57-0.317-0.666-0.042-0.096-0.25-0.538-0.454-0.976-0.208-0.442-0.419-0.893-0.47-1.002-0.051-0.112-0.086-0.211-0.080-0.221 0.010-0.010 0.208-0.058 0.445-0.106 1.67-0.358 3.587-1.11 5.242-2.058 1.245-0.71 2.624-1.683 3.456-2.435l0.128-0.115-0.115-0.106c-0.819-0.717-1.933-1.526-2.957-2.141-2.291-1.379-4.605-2.24-6.918-2.57-1.008-0.144-2.362-0.176-3.322-0.080zM17.424 6.957c0.432 0.045 0.582 0.061 0.912 0.102 1.853 0.234 3.754 0.768 5.616 1.571 0.442 0.192 1.818 0.874 1.802 0.893-0.006 0.006-0.192-0.032-0.41-0.086-0.723-0.176-2.541-0.522-3.248-0.618-0.070-0.010-0.33-0.048-0.576-0.080-0.445-0.064-1.43-0.173-1.856-0.211-0.122-0.010-0.288-0.022-0.368-0.032-0.080-0.006-0.282-0.022-0.448-0.032-0.166-0.013-0.365-0.026-0.435-0.032-0.947-0.077-3.859-0.077-4.733 0-0.070 0.006-0.266 0.019-0.432 0.032-0.166 0.010-0.362 0.026-0.432 0.032s-0.227 0.022-0.352 0.032c-0.122 0.010-0.282 0.026-0.352 0.032s-0.214 0.022-0.32 0.032c-0.525 0.051-1.568 0.189-2.064 0.272-0.096 0.016-0.24 0.038-0.32 0.048-0.48 0.067-1.952 0.358-2.72 0.541-0.182 0.045-0.339 0.077-0.342 0.070-0.016-0.013 1.421-0.726 1.766-0.877 2.17-0.947 4.592-1.555 6.72-1.69 0.176-0.013 0.326-0.026 0.333-0.032 0.016-0.013 2.090 0.016 2.259 0.032zM16.986 11.776c1.453 0.134 2.525 0.554 2.662 1.037 0.032 0.112 0.032 0.166-0.003 0.266-0.054 0.166-0.32 0.419-0.592 0.56-0.275 0.147-0.81 0.33-0.848 0.291-0.016-0.016-0.141-0.272-0.278-0.57l-0.253-0.544-0.221-0.077c-0.394-0.134-0.79-0.195-1.373-0.211-0.726-0.016-1.168 0.038-1.709 0.214l-0.202 0.064-0.253 0.528c-0.138 0.291-0.253 0.541-0.253 0.557 0 0.048-0.080 0.035-0.326-0.054-0.73-0.262-1.133-0.634-1.069-0.982 0.026-0.144 0.189-0.33 0.413-0.474 0.771-0.499 2.634-0.762 4.304-0.605zM16.397 18.461c0.413 0.182 0.675 0.554 0.704 0.998 0.058 0.874-0.835 1.491-1.622 1.123-0.56-0.259-0.813-0.867-0.608-1.453 0.112-0.314 0.422-0.614 0.742-0.71 0.211-0.064 0.589-0.045 0.784 0.042zM13.706 19.459c0.038 0.019 0.336 0.298 0.662 0.618 0.49 0.483 0.63 0.605 0.822 0.704 0.467 0.24 0.752 0.294 1.114 0.211 0.333-0.074 0.509-0.205 1.194-0.88 0.358-0.352 0.675-0.65 0.704-0.662 0.106-0.042 0.278-0.026 0.384 0.038 0.17 0.106 0.25 0.371 0.157 0.534-0.022 0.038-0.397 0.432-0.832 0.87l-0.794 0.803v1.77c0 1.61-0.003 1.779-0.054 1.878-0.090 0.176-0.224 0.224-0.621 0.224h-0.346v-1.888h-0.192v1.888h-0.394c-0.448 0-0.57-0.042-0.669-0.227-0.054-0.099-0.058-0.224-0.058-1.878v-1.77l-0.79-0.8c-0.883-0.89-0.925-0.947-0.842-1.187 0.080-0.23 0.352-0.349 0.554-0.246z"></path>
</svg>
