<!-- Generated by IcoMoon.io -->
<svg version="1.1" xmlns="http://www.w3.org/2000/svg" width="32" height="32" viewBox="0 0 32 32">
<title>Quiz</title>
<path fill="#ff7900" d="M8.8 4.8v0.8h-4.803l0.013 2.742c0.006 1.51 0.022 2.81 0.035 2.89 0.112 0.701 0.317 1.366 0.598 1.952 0.803 1.667 2.288 2.893 4.128 3.408l0.179 0.051 0.058 0.259c0.198 0.918 0.746 2.022 1.398 2.832 0.25 0.304 0.739 0.797 1.034 1.037 0.765 0.621 1.766 1.136 2.682 1.379l0.278 0.074v2.576h-0.502c-0.326 0-0.563 0.016-0.669 0.045-0.637 0.17-1.104 0.675-1.203 1.306l-0.035 0.24-0.243 0.038c-0.704 0.106-1.254 0.685-1.334 1.402l-0.019 0.17h11.216l-0.022-0.179c-0.077-0.659-0.55-1.2-1.206-1.373-0.096-0.026-0.221-0.048-0.275-0.048-0.096 0-0.106-0.010-0.106-0.106 0-0.15-0.080-0.419-0.182-0.627-0.182-0.371-0.662-0.746-1.053-0.822-0.067-0.016-0.134-0.029-0.147-0.032-0.016-0.003-0.25-0.006-0.522-0.010l-0.496-0.003v-2.576l0.346-0.093c1.632-0.442 3.104-1.52 4.080-2.995 0.416-0.627 0.829-1.584 0.97-2.237l0.054-0.259 0.131-0.035c1.142-0.298 2.186-0.909 3.011-1.76 0.502-0.522 0.81-0.95 1.133-1.597 0.307-0.614 0.458-1.101 0.63-2.032 0.013-0.070 0.029-1.363 0.035-2.874l0.013-2.742h-4.803v-1.6h-14.4v0.8zM8.8 11.056c0 2.547-0.010 3.856-0.032 3.856-0.067 0-0.637-0.272-0.874-0.419-1.206-0.746-1.984-1.914-2.25-3.373-0.013-0.070-0.029-0.982-0.035-2.026l-0.013-1.894h3.203v3.856zM26.394 9.11c-0.013 1.843-0.016 1.926-0.086 2.234-0.218 0.97-0.637 1.76-1.286 2.413-0.307 0.314-0.742 0.65-1.037 0.81-0.24 0.131-0.707 0.346-0.752 0.346-0.022 0-0.032-1.286-0.032-3.856v-3.856h3.203l-0.010 1.91zM16.771 8.906c0.717 0.144 1.395 0.496 1.869 0.966 0.71 0.71 0.979 1.635 0.781 2.685-0.208 1.094-0.938 1.869-2.115 2.243-0.234 0.074-0.282 0.099-0.285 0.157-0.003 0.208-0.038 0.413-0.096 0.608-0.211 0.707-1.197 0.947-1.734 0.422-0.134-0.128-0.256-0.365-0.307-0.595-0.045-0.195-0.026-1.549 0.022-1.699 0.083-0.253 0.33-0.406 0.81-0.509 0.586-0.125 0.794-0.218 1.024-0.454 0.125-0.125 0.17-0.205 0.224-0.384 0.218-0.71-0.25-1.29-1.043-1.29-0.227 0-0.282 0.013-0.464 0.102-0.237 0.118-0.374 0.24-0.634 0.563-0.237 0.298-0.371 0.422-0.566 0.528-0.211 0.112-0.592 0.118-0.822 0.013-0.419-0.189-0.643-0.582-0.618-1.094 0.022-0.496 0.211-0.899 0.605-1.296 0.515-0.522 1.296-0.89 2.163-1.018 0.186-0.029 0.963 0.006 1.187 0.051zM16.278 16.867c0.31 0.099 0.598 0.358 0.742 0.669 0.070 0.15 0.083 0.218 0.083 0.48 0 0.266-0.013 0.33-0.093 0.502-0.112 0.246-0.362 0.49-0.618 0.611-0.157 0.070-0.23 0.086-0.474 0.086-0.435 0-0.752-0.16-0.986-0.502-0.416-0.608-0.246-1.37 0.387-1.744 0.266-0.157 0.662-0.202 0.957-0.102z"></path>
</svg>
