<!-- Generated by IcoMoon.io -->
<svg version="1.1" xmlns="http://www.w3.org/2000/svg" width="32" height="32" viewBox="0 0 32 32">
<title>Radiography</title>
<path fill="#ff7900" d="M2.97 4.032c-0.141 0.042-0.301 0.154-0.39 0.272-0.192 0.253-0.179-0.656-0.179 11.693 0 10.282 0.003 11.334 0.051 11.469 0.067 0.202 0.278 0.413 0.477 0.48 0.144 0.051 1.123 0.054 13.072 0.054 11.894 0 12.928-0.003 13.072-0.051 0.163-0.058 0.362-0.23 0.454-0.403 0.054-0.102 0.058-0.589 0.067-11.482 0.006-10.477 0.003-11.386-0.045-11.533-0.067-0.202-0.278-0.41-0.483-0.48-0.134-0.048-1.318-0.051-13.078-0.048-7.114 0-12.97 0.013-13.018 0.029zM25.472 8.134c-1.395 1.395-2.627 2.653-2.742 2.794-0.602 0.746-1.008 1.648-1.181 2.624-0.061 0.339-0.077 0.547-0.090 1.12-0.010 0.352-0.029 0.544-0.080 0.726-0.115 0.435-0.381 0.896-0.691 1.19-0.141 0.134-0.371 0.314-0.387 0.298-0.006-0.003-0.032-0.118-0.061-0.253-0.17-0.832-0.531-1.498-1.136-2.106-0.512-0.515-1.037-0.842-1.712-1.056-0.576-0.186-0.749-0.352-0.915-0.886-0.352-1.12-1.13-2.035-2.16-2.55-0.282-0.138-0.803-0.314-1.053-0.355-0.256-0.038-0.253-0.035-0.138-0.198 0.134-0.186 0.432-0.461 0.643-0.595 0.477-0.304 0.854-0.406 1.552-0.422 0.582-0.010 0.762-0.029 1.219-0.118 0.858-0.166 1.734-0.573 2.451-1.139 0.125-0.099 0.547-0.499 0.944-0.893l0.72-0.714h7.354l-2.538 2.534zM13.149 11.296c0.906 0.262 1.549 0.915 1.827 1.856 0.138 0.474 0.368 0.848 0.73 1.194 0.314 0.294 0.627 0.47 1.11 0.618 0.966 0.294 1.645 1.018 1.856 1.981 0.070 0.326 0.051 0.918-0.042 1.232-0.266 0.893-0.922 1.546-1.802 1.802-0.214 0.064-0.438 0.083-1.069 0.099-0.262 0.010-0.608 0.038-0.768 0.064-0.995 0.179-1.91 0.586-2.672 1.194-0.096 0.077-1.286 1.248-2.643 2.602l-2.467 2.464h-3.21v-4.144l2.115-2.112c1.162-1.162 2.218-2.234 2.346-2.384 0.902-1.053 1.379-2.333 1.392-3.734 0.006-0.672 0.074-0.989 0.294-1.418 0.349-0.675 1.021-1.194 1.744-1.344 0.384-0.077 0.928-0.064 1.258 0.032zM27.2 21.6v0.8h-5.6v-1.6h5.6v0.8zM27.2 24.8v0.8h-5.6v-1.6h5.6v0.8z"></path>
</svg>
