<!-- Generated by IcoMoon.io -->
<svg version="1.1" xmlns="http://www.w3.org/2000/svg" width="32" height="32" viewBox="0 0 32 32">
<title>ratings_stars</title>
<path fill="#ff7900" d="M7.178 12.416c-0.019 0.045-0.086 0.253-0.154 0.464-0.064 0.211-0.173 0.557-0.243 0.768-0.202 0.634-0.477 1.52-0.477 1.536 0 0.010-0.694 0.019-1.542 0.022l-1.542 0.010 0.333 0.24c0.47 0.336 2.093 1.51 2.106 1.52 0.006 0.006-0.074 0.31-0.179 0.678-0.534 1.843-0.643 2.218-0.662 2.282-0.022 0.070 0.058 0.010 1.642-1.222 0.358-0.278 0.675-0.525 0.707-0.544 0.048-0.029 0.198 0.077 0.966 0.682 0.499 0.39 1.037 0.813 1.19 0.934 0.179 0.138 0.278 0.198 0.269 0.16-0.010-0.032-0.048-0.16-0.083-0.282-0.035-0.125-0.086-0.304-0.112-0.4s-0.070-0.259-0.096-0.362c-0.307-1.126-0.496-1.802-0.512-1.846-0.029-0.070-0.026-0.070 1.258-1.011l1.13-0.829-1.504-0.010-1.504-0.006-0.016-0.074c-0.006-0.038-0.205-0.624-0.438-1.302-0.23-0.678-0.438-1.29-0.461-1.36-0.042-0.125-0.042-0.128-0.074-0.048z"></path>
<path fill="#ff7900" d="M15.946 12.486c-0.019 0.077-0.189 0.621-0.378 1.21-0.186 0.589-0.371 1.168-0.406 1.286l-0.067 0.218-1.539 0.006-1.539 0.010 0.224 0.16c0.288 0.205 2.205 1.587 2.218 1.6 0.006 0.006-0.077 0.317-0.186 0.694-0.218 0.755-0.598 2.074-0.64 2.208-0.016 0.051-0.019 0.090-0.013 0.090 0.022 0 0.15-0.099 0.784-0.592 0.886-0.691 1.568-1.216 1.597-1.226 0.022-0.006 0.419 0.294 1.36 1.037 0.538 0.422 1.002 0.781 1.014 0.781 0.010 0-0.125-0.515-0.301-1.146-0.272-0.982-0.419-1.523-0.486-1.782-0.016-0.054 0.173-0.205 1.184-0.944l1.206-0.88-1.504-0.010-1.507-0.006-0.016-0.074c-0.029-0.134-0.922-2.726-0.947-2.752-0.013-0.013-0.038 0.038-0.058 0.112z"></path>
<path fill="#ff7900" d="M24.688 12.666c-0.051 0.17-0.147 0.477-0.211 0.678s-0.221 0.704-0.349 1.11l-0.234 0.746-1.536 0.006-1.536 0.010 1.194 0.864c0.659 0.474 1.21 0.874 1.226 0.883 0.016 0.013-0.029 0.221-0.106 0.48-0.070 0.253-0.15 0.531-0.176 0.621-0.026 0.086-0.16 0.554-0.298 1.030-0.141 0.48-0.246 0.874-0.234 0.874 0.010 0 0.538-0.406 1.171-0.899s1.168-0.906 1.19-0.915c0.032-0.013 0.41 0.272 1.53 1.158 0.522 0.41 0.842 0.656 0.858 0.656 0.010 0 0-0.067-0.026-0.154-0.026-0.083-0.067-0.23-0.093-0.326-0.125-0.47-0.275-1.018-0.304-1.104-0.016-0.054-0.077-0.269-0.131-0.48-0.058-0.211-0.138-0.506-0.179-0.653-0.045-0.147-0.074-0.272-0.070-0.275 0.006-0.003 0.547-0.4 1.206-0.883l1.197-0.877-1.504-0.010-1.507-0.006-0.016-0.074c-0.006-0.038-0.205-0.624-0.438-1.302-0.23-0.678-0.438-1.286-0.454-1.354-0.019-0.064-0.042-0.118-0.054-0.118-0.010 0-0.061 0.141-0.115 0.314z"></path>
</svg>
