<!-- Generated by IcoMoon.io -->
<svg version="1.1" xmlns="http://www.w3.org/2000/svg" width="32" height="32" viewBox="0 0 32 32">
<title>Real_time</title>
<path fill="#ff7900" d="M14.090 1.664c-0.189 0.083-0.374 0.282-0.438 0.464-0.042 0.128-0.051 0.301-0.051 1.014v0.858h0.8v0.893l-0.118 0.019c-2.026 0.307-3.712 0.941-5.306 1.99-0.813 0.538-1.318 0.954-2.067 1.702-1.552 1.558-2.643 3.427-3.242 5.565-0.147 0.518-0.323 1.382-0.358 1.763-0.010 0.099-0.022 0.198-0.029 0.221-0.032 0.099-0.064 0.816-0.064 1.446 0 0.851 0.042 1.446 0.144 2.016 0.016 0.096 0.038 0.234 0.051 0.304 0.022 0.163 0.154 0.733 0.24 1.040 0.035 0.131 0.077 0.291 0.093 0.352 0.102 0.4 0.458 1.296 0.755 1.907 0.88 1.808 2.227 3.427 3.878 4.662 1.302 0.973 2.867 1.722 4.438 2.118 0.592 0.15 1.078 0.237 1.792 0.326 0.566 0.067 2.090 0.077 2.656 0.016 0.41-0.045 1.206-0.173 1.472-0.237 2.163-0.506 3.853-1.341 5.52-2.726 0.403-0.336 1.264-1.2 1.603-1.619 1.366-1.667 2.282-3.581 2.682-5.6 0.128-0.643 0.16-0.886 0.224-1.632 0.029-0.33 0.019-1.846-0.013-2.080-0.010-0.080-0.038-0.32-0.067-0.538-0.083-0.698-0.294-1.622-0.541-2.358-0.502-1.501-1.194-2.742-2.294-4.134-0.022-0.026 0.154-0.221 0.589-0.659 0.346-0.342 0.65-0.675 0.685-0.746 0.086-0.176 0.083-0.528-0.010-0.701-0.106-0.198-1.478-1.552-1.664-1.642-0.182-0.086-0.467-0.083-0.666 0.013-0.074 0.035-0.397 0.333-0.79 0.723-0.365 0.365-0.675 0.666-0.685 0.666-0.013 0-0.176-0.099-0.362-0.221-1.36-0.883-2.883-1.498-4.531-1.824-0.176-0.032-0.39-0.070-0.48-0.083-0.086-0.010-0.198-0.029-0.246-0.035l-0.090-0.019v-0.89h0.803l-0.010-0.922-0.010-0.925-0.096-0.157c-0.112-0.179-0.304-0.323-0.483-0.365-0.067-0.016-0.902-0.029-1.853-0.029-1.613 0-1.738 0.006-1.862 0.061zM17.024 7.245c0.061 0.010 0.192 0.026 0.288 0.035 0.096 0.013 0.182 0.026 0.192 0.032 0.010 0.003 0.093 0.016 0.186 0.029 0.384 0.045 1.146 0.24 1.712 0.435 3.85 1.325 6.586 4.822 6.957 8.88 0.048 0.534 0.029 1.824-0.035 2.224-0.006 0.045-0.022 0.15-0.035 0.24-0.24 1.786-1.091 3.69-2.301 5.136-1.696 2.029-4.006 3.296-6.691 3.664-0.451 0.064-1.709 0.090-2.16 0.048-3.264-0.31-6.061-1.984-7.846-4.688-0.915-1.392-1.462-2.966-1.648-4.752-0.032-0.304-0.032-1.462 0-1.84 0.365-4.39 3.571-8.131 7.869-9.181 0.605-0.147 0.89-0.195 1.642-0.275 0.237-0.026 1.68-0.013 1.872 0.013z"></path>
<path fill="#ff7900" d="M15.28 8.026c-0.506 0.029-1.318 0.176-1.914 0.346-3.437 0.982-6.058 3.805-6.768 7.296-0.070 0.336-0.077 0.374-0.138 0.829-0.064 0.458-0.048 2.234 0.019 2.352 0.003 0.010 0.016 0.086 0.029 0.176 0.042 0.333 0.182 0.976 0.307 1.373 0.931 3.024 3.264 5.386 6.272 6.352 0.944 0.304 1.76 0.429 2.816 0.432 1.043 0.003 1.504-0.045 2.362-0.256 1.632-0.4 3.050-1.165 4.307-2.323l0.221-0.205-6.794-6.797v-9.603l-0.278 0.010c-0.157 0.006-0.352 0.013-0.442 0.019z"></path>
</svg>
