<!-- Generated by IcoMoon.io -->
<svg version="1.1" xmlns="http://www.w3.org/2000/svg" width="32" height="32" viewBox="0 0 32 32">
<title>record</title>
<path fill="#ff7900" d="M15.136 2.419c-2.576 0.211-4.643 0.915-6.688 2.272-3.43 2.278-5.677 6.086-6.006 10.173-0.038 0.477-0.026 2.058 0.019 2.48 0.336 3.197 1.702 6.058 3.962 8.307 2.179 2.173 4.954 3.501 8.090 3.875 0.672 0.080 2.294 0.080 2.976-0.003 1.658-0.195 3.094-0.614 4.544-1.331 3.376-1.667 5.904-4.662 7.008-8.307 0.198-0.656 0.422-1.766 0.48-2.381 0.013-0.131 0.035-0.355 0.048-0.496 0.032-0.349 0.032-1.693-0.003-2.048-0.064-0.701-0.099-0.963-0.186-1.424-0.275-1.469-0.787-2.896-1.51-4.192-0.25-0.445-0.637-1.034-0.979-1.491-1.955-2.608-4.774-4.432-7.93-5.13-0.506-0.112-1.13-0.214-1.488-0.243-0.131-0.013-0.275-0.029-0.32-0.038-0.099-0.019-1.818-0.038-2.016-0.022z"></path>
</svg>
