<!-- Generated by IcoMoon.io -->
<svg version="1.1" xmlns="http://www.w3.org/2000/svg" width="32" height="32" viewBox="0 0 32 32">
<title>Record_1</title>
<path fill="#ff7900" d="M3.606 6.448c-0.592 0.163-1.066 0.666-1.171 1.245-0.026 0.134-0.035 2.627-0.035 8.352 0 8.893-0.013 8.294 0.179 8.688 0.122 0.25 0.454 0.576 0.72 0.701 0.115 0.054 0.307 0.115 0.432 0.134 0.262 0.038 18.915 0.029 19.069-0.010 0.342-0.093 0.749-0.39 0.941-0.691 0.106-0.16 0.211-0.429 0.24-0.598 0.006-0.051 0.016-1.264 0.016-2.698l0.003-2.602 0.218 0.205c0.39 0.371 1.069 0.995 1.67 1.53 0.326 0.291 0.614 0.55 0.643 0.576 0.026 0.026 0.106 0.096 0.176 0.157 0.138 0.122 0.691 0.618 0.717 0.643 0.010 0.010 0.090 0.080 0.176 0.157 0.090 0.077 0.234 0.208 0.32 0.288 0.275 0.253 0.605 0.534 0.688 0.589 0.115 0.074 0.422 0.106 0.55 0.054 0.176-0.070 0.317-0.192 0.381-0.333 0.058-0.128 0.061-0.355 0.061-6.835s-0.003-6.707-0.061-6.835c-0.141-0.31-0.602-0.458-0.912-0.294-0.042 0.022-0.31 0.256-0.598 0.522-0.285 0.262-0.544 0.502-0.573 0.528-0.032 0.029-0.221 0.202-0.422 0.39s-0.394 0.368-0.432 0.4c-0.035 0.032-0.234 0.214-0.445 0.41-0.582 0.541-1.059 0.982-1.245 1.152-0.33 0.304-0.742 0.685-0.819 0.762l-0.093 0.093v-2.653c0-2.275-0.006-2.678-0.048-2.842-0.138-0.528-0.467-0.909-0.986-1.133l-0.198-0.083-9.504-0.006c-7.802-0.003-9.533 0.003-9.658 0.038zM20.163 12.634c0.998 0.266 1.677 0.909 1.914 1.805 0.035 0.128 0.070 0.282 0.080 0.336l0.019 0.106h-1.408v-0.074c0-0.131-0.186-0.454-0.358-0.627-0.394-0.397-1.008-0.531-1.594-0.355-0.573 0.17-0.954 0.637-1.142 1.392-0.083 0.342-0.077 1.226 0.016 1.555 0.106 0.387 0.272 0.688 0.515 0.925 0.352 0.346 0.694 0.467 1.254 0.442 0.294-0.016 0.365-0.032 0.547-0.115 0.384-0.186 0.662-0.573 0.784-1.091 0.045-0.189 0.067-0.227 0.122-0.23 0.278-0.013 1.264 0 1.29 0.016 0.058 0.035-0.083 0.659-0.227 0.995-0.291 0.691-0.826 1.2-1.542 1.466-0.406 0.15-1.178 0.205-1.68 0.122-1.312-0.224-2.243-1.171-2.515-2.554-0.077-0.39-0.077-1.174 0-1.562 0.282-1.44 1.238-2.403 2.595-2.608 0.301-0.045 1.066-0.013 1.331 0.058zM8.147 12.752c0.89 0.198 1.446 0.925 1.405 1.84-0.029 0.618-0.246 1.050-0.678 1.347-0.077 0.054-0.182 0.112-0.234 0.131-0.125 0.042-0.122 0.067 0.026 0.118 0.269 0.096 0.534 0.374 0.65 0.675 0.086 0.224 0.15 0.595 0.173 0.97 0.048 0.81 0.074 0.966 0.224 1.312 0.022 0.051-0.019 0.054-0.691 0.048l-0.714-0.010-0.054-0.224c-0.032-0.125-0.067-0.339-0.077-0.48-0.026-0.422-0.083-0.886-0.128-1.059-0.118-0.467-0.362-0.694-0.794-0.742-0.157-0.016-1.379-0.026-1.626-0.010-0.045 0.003-0.048 0.141-0.048 1.258v1.258h-1.434l-0.003-3.238v-3.238l0.16-0.010c0.090-0.006 0.934-0.006 1.882-0.003 1.472 0.003 1.757 0.013 1.962 0.058zM15.456 12.701c0.042 0.003 0.048 0.090 0.045 0.586-0.003 0.323-0.006 0.592-0.010 0.602s-0.774 0.016-1.715 0.013l-1.712-0.003v1.398l1.574 0.006 1.578 0.010v1.088l-1.536 0.006c-0.845 0-1.555 0.003-1.574 0.006-0.032 0.003-0.042 0.182-0.042 0.787s0.010 0.784 0.042 0.787c0.019 0.003 0.81 0.006 1.75 0.010l1.712 0.003 0.003 0.602 0.003 0.598-4.934-0.016-0.003-3.238v-3.238l0.176-0.010c0.141-0.006 4.451-0.003 4.643 0.003z"></path>
<path fill="#ff7900" d="M5.587 13.824c-0.006 0.010-0.010 0.419-0.006 0.912l0.003 0.896 0.848 0.003c1.19 0.003 1.405-0.054 1.597-0.419 0.074-0.141 0.083-0.198 0.083-0.48 0-0.378-0.042-0.512-0.205-0.678-0.211-0.221-0.352-0.246-1.405-0.25-0.499 0-0.912 0.006-0.915 0.016z"></path>
</svg>
