<!-- Generated by IcoMoon.io -->
<svg version="1.1" xmlns="http://www.w3.org/2000/svg" width="32" height="32" viewBox="0 0 32 32">
<title>recommend</title>
<path fill="#ff7900" d="M9.853 3.181c-0.006 0.006-0.122 0.019-0.253 0.032-1.437 0.122-2.925 0.72-4.16 1.677-0.352 0.272-1.046 0.97-1.325 1.325-0.778 1.005-1.318 2.176-1.552 3.37-0.051 0.262-0.102 0.55-0.112 0.64-0.038 0.288-0.048 1.402-0.016 1.712 0.106 1.024 0.387 1.987 0.848 2.877 0.384 0.739 0.691 1.174 1.366 1.92 0.198 0.218 0.384 0.426 0.416 0.464s0.128 0.141 0.208 0.227c0.083 0.090 0.278 0.304 0.438 0.48 0.157 0.176 0.346 0.384 0.419 0.464 0.070 0.080 0.214 0.237 0.32 0.352 0.102 0.115 0.32 0.352 0.48 0.528s0.454 0.499 0.653 0.72c0.198 0.221 0.422 0.464 0.493 0.544 0.074 0.080 0.333 0.368 0.579 0.64s0.512 0.566 0.595 0.656c0.285 0.31 0.563 0.614 0.989 1.088 0.237 0.262 0.662 0.73 0.941 1.040 0.282 0.307 0.627 0.688 0.768 0.845 0.144 0.157 0.275 0.301 0.291 0.32 0.019 0.019 0.378 0.416 0.8 0.883s0.781 0.864 0.8 0.883c0.016 0.019 0.147 0.163 0.291 0.32 0.278 0.31 1.101 1.213 1.568 1.728 0.163 0.179 0.307 0.317 0.32 0.304 0.016-0.010 0.15-0.157 0.301-0.323s0.288-0.32 0.304-0.339c0.019-0.019 0.163-0.176 0.323-0.352 0.253-0.278 0.611-0.672 1.549-1.709 0.371-0.41 1.219-1.344 1.597-1.76 0.502-0.554 0.605-0.666 0.877-0.966 0.134-0.15 0.278-0.307 0.32-0.352 0.038-0.042 0.186-0.208 0.33-0.365 0.544-0.602 1.309-1.443 1.466-1.616 0.090-0.096 0.272-0.298 0.403-0.445s0.256-0.282 0.272-0.301c0.019-0.019 0.118-0.128 0.224-0.243 0.102-0.115 0.304-0.339 0.448-0.496 0.144-0.16 0.49-0.541 0.768-0.848s0.627-0.691 0.774-0.851c0.147-0.16 0.291-0.32 0.323-0.355 0.061-0.074 0.355-0.397 0.995-1.098 0.726-0.794 1.142-1.392 1.526-2.192 0.384-0.794 0.653-1.75 0.739-2.608 0.045-0.442 0.026-1.555-0.035-1.952-0.214-1.427-0.794-2.768-1.67-3.872-0.298-0.374-0.957-1.027-1.325-1.309-1.232-0.95-2.666-1.523-4.144-1.661-0.336-0.029-1.277-0.029-1.59 0.003-1.642 0.163-3.171 0.829-4.451 1.933l-0.346 0.301-0.307-0.272c-1.245-1.098-2.768-1.766-4.442-1.955-0.323-0.035-1.366-0.061-1.395-0.035zM11.072 6.416c0.8 0.122 1.53 0.419 2.166 0.886 0.298 0.221 0.221 0.15 1.805 1.661 0.323 0.31 0.666 0.637 0.762 0.73 0.096 0.090 0.186 0.163 0.198 0.163s0.086-0.061 0.166-0.138c0.077-0.074 0.426-0.41 0.774-0.742 0.726-0.691 1.248-1.194 1.325-1.267 0.627-0.618 1.571-1.098 2.483-1.264 0.346-0.064 1.072-0.080 1.472-0.035 0.474 0.051 1.13 0.256 1.574 0.493 1.619 0.858 2.598 2.461 2.595 4.266-0.003 1.312-0.448 2.384-1.43 3.44-0.064 0.070-0.259 0.285-0.432 0.48-0.173 0.192-0.384 0.422-0.464 0.512-0.083 0.086-0.278 0.304-0.435 0.48s-0.352 0.39-0.432 0.48c-0.083 0.086-0.349 0.384-0.595 0.656-0.666 0.739-1.67 1.853-1.802 2-0.064 0.070-0.253 0.278-0.419 0.464s-0.362 0.4-0.435 0.48c-0.285 0.314-0.803 0.886-1.514 1.68-0.413 0.458-0.822 0.912-0.912 1.008s-0.467 0.512-0.835 0.918c-0.368 0.41-0.678 0.746-0.691 0.746-0.010 0-0.112-0.102-0.224-0.23-0.262-0.291-0.24-0.269-0.429-0.474-0.086-0.099-0.282-0.314-0.432-0.48s-0.352-0.39-0.448-0.496c-0.381-0.419-0.72-0.797-0.752-0.829-0.016-0.019-0.154-0.173-0.304-0.339s-0.278-0.31-0.288-0.32c-0.010-0.010-0.198-0.218-0.416-0.464-0.221-0.246-0.422-0.47-0.448-0.496-0.029-0.026-0.179-0.192-0.336-0.368s-0.346-0.384-0.419-0.464c-0.147-0.16-0.918-1.014-1.21-1.341-0.102-0.115-0.314-0.349-0.464-0.515s-0.333-0.368-0.403-0.448c-0.070-0.077-0.141-0.16-0.16-0.179-0.051-0.058-0.563-0.618-0.752-0.829-0.096-0.106-0.291-0.323-0.435-0.48-1.472-1.629-1.562-1.734-1.802-2.141-0.339-0.573-0.515-1.082-0.64-1.859-0.051-0.301-0.016-1.197 0.058-1.536 0.33-1.504 1.232-2.678 2.582-3.357 0.448-0.227 0.896-0.362 1.533-0.464 0.246-0.038 0.96-0.032 1.264 0.013z"></path>
</svg>
