<!-- Generated by IcoMoon.io -->
<svg version="1.1" xmlns="http://www.w3.org/2000/svg" width="32" height="32" viewBox="0 0 32 32">
<title>recycle_device</title>
<path fill="#ff7900" d="M9.226 2.445c-0.579 0.141-1.069 0.646-1.19 1.229-0.051 0.24-0.051 24.413 0 24.653 0.125 0.598 0.64 1.114 1.238 1.238 0.24 0.051 13.213 0.051 13.453 0 0.598-0.125 1.114-0.64 1.238-1.238 0.051-0.24 0.051-24.413 0-24.653-0.118-0.563-0.611-1.082-1.165-1.232-0.054-0.013-3.091-0.029-6.752-0.032-5.245-0.003-6.691 0.003-6.822 0.035zM17.398 3.264c0.115 0.070 0.202 0.211 0.202 0.336s-0.086 0.266-0.202 0.336c-0.096 0.061-0.17 0.064-1.392 0.064-1.424 0-1.421 0-1.542-0.202-0.115-0.189-0.058-0.416 0.138-0.534 0.096-0.061 0.17-0.064 1.398-0.064s1.302 0.003 1.398 0.064zM22.4 15.6v10.8h-12.8v-21.6h12.8v10.8zM16.4 27.309c0.39 0.23 0.512 0.749 0.266 1.12-0.112 0.17-0.221 0.256-0.413 0.323-0.608 0.214-1.222-0.394-1.005-1.005 0.086-0.246 0.282-0.442 0.522-0.518 0.16-0.051 0.47-0.013 0.63 0.080z"></path>
<path fill="#ff7900" d="M14.474 11.568c-0.304 0.093-0.493 0.25-0.698 0.573-0.227 0.355-0.912 1.501-0.912 1.52 0 0.016 1.61 0.982 1.699 1.021 0.019 0.010 0.15-0.205 1.334-2.186 0.272-0.458 0.518-0.864 0.544-0.906l0.045-0.070-0.938 0.003c-0.685 0-0.979 0.013-1.075 0.045z"></path>
<path fill="#ff7900" d="M17.008 11.581c-0.202 0.093-0.243 0.144-0.589 0.73l-0.33 0.55 0.282 0.474c0.157 0.259 0.307 0.518 0.339 0.576l0.054 0.102-0.269 0.163c-0.15 0.090-0.272 0.17-0.272 0.176 0 0.026 2.157 0.72 2.24 0.72 0.122 0 0.211-0.118 0.24-0.31 0.013-0.086 0.070-0.429 0.131-0.762 0.061-0.336 0.125-0.682 0.141-0.768 0.016-0.090 0.045-0.237 0.061-0.333 0.019-0.093 0.035-0.192 0.035-0.214 0-0.026-0.109 0.022-0.282 0.128l-0.282 0.17-0.362-0.605c-0.198-0.33-0.39-0.634-0.429-0.669-0.192-0.179-0.486-0.234-0.71-0.128z"></path>
<path fill="#ff7900" d="M13.024 14.912c-0.080 0.035-0.566 0.218-1.085 0.41l-0.938 0.349 0.282 0.154c0.157 0.083 0.291 0.157 0.298 0.163 0.006 0.003-0.144 0.294-0.336 0.64-0.339 0.624-0.346 0.637-0.346 0.848-0.003 0.189 0.010 0.234 0.093 0.355 0.058 0.080 0.157 0.166 0.24 0.208 0.134 0.070 0.179 0.074 0.819 0.074h0.678l0.275-0.499c0.15-0.272 0.275-0.506 0.275-0.518s0.022-0.048 0.048-0.083c0.042-0.058 0.051-0.054 0.23 0.045 0.102 0.058 0.234 0.131 0.291 0.163l0.102 0.061-0.016-0.074c-0.010-0.038-0.038-0.163-0.061-0.278-0.026-0.115-0.096-0.445-0.16-0.736-0.067-0.291-0.141-0.63-0.17-0.752-0.083-0.384-0.102-0.448-0.144-0.506-0.064-0.083-0.214-0.093-0.378-0.022z"></path>
<path fill="#ff7900" d="M19.344 15.658c-0.301 0.163-0.672 0.368-0.832 0.451-0.371 0.198-0.397 0.221-0.336 0.317 0.035 0.054 0.49 0.826 0.8 1.35 0.614 1.046 0.966 1.635 0.986 1.654 0.013 0.013 0.237-0.333 0.493-0.768 0.566-0.95 0.608-1.072 0.518-1.494-0.029-0.141-0.077-0.224-0.525-0.928-0.224-0.352-0.438-0.694-0.477-0.762-0.042-0.064-0.074-0.118-0.077-0.118s-0.253 0.134-0.55 0.298z"></path>
<path fill="#ff7900" d="M17.008 18.39c-1.101 0.97-1.104 0.976-1.104 1.082 0 0.102-0.003 0.099 1.114 1.085l0.71 0.63v-0.704l1.53-0.019 0.141-0.096c0.179-0.125 0.288-0.339 0.288-0.56-0.003-0.134-0.032-0.218-0.17-0.474-0.192-0.358-0.256-0.47-0.387-0.704l-0.093-0.166h-1.306l-0.019-0.691-0.704 0.618z"></path>
<path fill="#ff7900" d="M11.402 18.486c0.010 0.016 0.182 0.307 0.39 0.65 0.205 0.342 0.419 0.701 0.474 0.794 0.118 0.195 0.304 0.362 0.525 0.464 0.147 0.067 0.198 0.070 1.235 0.080l1.078 0.010v-1.011l-0.003-1.008h-1.856c-1.021 0-1.85 0.010-1.843 0.022z"></path>
</svg>
