<!-- Generated by IcoMoon.io -->
<svg version="1.1" xmlns="http://www.w3.org/2000/svg" width="32" height="32" viewBox="0 0 32 32">
<title>Redo</title>
<path fill="#ff7900" d="M11.686 4.662l2.266 2.266-2.765 2.768c-2.861 2.867-3.101 3.126-3.606 3.888-0.336 0.502-0.467 0.733-0.717 1.248-0.589 1.213-0.906 2.403-1.024 3.84-0.019 0.208-0.019 1.293-0.003 1.424 0.006 0.045 0.022 0.195 0.032 0.336 0.067 0.758 0.304 1.773 0.598 2.566 1.101 2.954 3.453 5.232 6.448 6.246 0.746 0.253 1.648 0.435 2.493 0.502 0.547 0.045 1.859 0.019 2.013-0.038 0.042-0.016-0.192-0.269-0.963-1.043-1.165-1.168-1.037-1.037-1.251-1.315-0.656-0.858-1.008-2.006-0.954-3.094 0.019-0.403 0.048-0.586 0.144-0.976 0.154-0.624 0.496-1.309 0.909-1.824 0.070-0.090 1.578-1.61 3.347-3.386l3.219-3.222 4.528 4.528v-7.392c0-6.384-0.006-7.427-0.048-7.638-0.17-0.899-0.832-1.603-1.744-1.869-0.202-0.058-0.477-0.061-7.696-0.070l-7.488-0.006 2.262 2.262z"></path>
</svg>
