<!-- Generated by IcoMoon.io -->
<svg version="1.1" xmlns="http://www.w3.org/2000/svg" width="32" height="32" viewBox="0 0 32 32">
<title>relationship</title>
<path fill="#ff7900" d="M9.776 2.982c-2.781 0.23-5.21 1.853-6.48 4.33-1.36 2.646-1.133 5.834 0.586 8.256 0.208 0.294 0.563 0.73 0.691 0.848 0.029 0.029 0.109 0.115 0.179 0.195 0.070 0.077 0.253 0.278 0.403 0.445s0.582 0.643 0.957 1.056c0.374 0.413 0.8 0.88 0.941 1.037 0.144 0.157 0.285 0.314 0.317 0.352s0.179 0.195 0.323 0.355c0.294 0.32 1.229 1.347 2.195 2.416 0.298 0.33 0.538 0.595 0.944 1.037 0.019 0.019 0.147 0.166 0.288 0.323 0.141 0.16 0.272 0.301 0.291 0.32 0.019 0.016 0.179 0.189 0.352 0.384 0.458 0.509 0.746 0.822 1.005 1.104 0.026 0.029 0.15 0.166 0.272 0.307 0.125 0.138 0.24 0.266 0.259 0.285 0.032 0.029 1.142 1.251 1.392 1.533 0.058 0.067 0.144 0.163 0.189 0.211s0.202 0.221 0.352 0.387c0.15 0.163 0.339 0.371 0.419 0.461 0.083 0.086 0.198 0.214 0.256 0.278l0.109 0.122 0.672-0.739c0.371-0.406 0.704-0.778 0.746-0.822 0.042-0.048 0.134-0.15 0.208-0.23s0.272-0.294 0.438-0.48c0.166-0.186 0.355-0.394 0.419-0.464 0.067-0.070 0.147-0.157 0.179-0.195s0.179-0.202 0.33-0.368c0.272-0.301 0.915-1.008 0.976-1.072 0.019-0.019 0.141-0.154 0.272-0.301s0.285-0.314 0.336-0.371c0.054-0.054 0.189-0.208 0.304-0.336s0.224-0.246 0.243-0.266c0.038-0.042 0.954-1.046 1.338-1.475 0.275-0.301 0.618-0.682 0.675-0.739 0.016-0.019 0.134-0.147 0.256-0.285 0.125-0.138 0.24-0.266 0.256-0.285 0.019-0.019 0.387-0.426 0.816-0.899 0.432-0.477 0.848-0.934 0.928-1.021s0.16-0.173 0.176-0.192c0.099-0.109 0.717-0.794 0.829-0.915 0.074-0.080 0.269-0.294 0.435-0.48s0.378-0.416 0.467-0.512c0.090-0.096 0.227-0.25 0.304-0.336 0.077-0.090 0.147-0.166 0.157-0.176 0.077-0.070 0.518-0.701 0.688-0.979 0.464-0.762 0.832-1.699 0.989-2.509 0.317-1.642 0.17-3.206-0.445-4.688-0.89-2.15-2.72-3.837-4.944-4.55-0.397-0.128-0.922-0.246-1.376-0.314-0.413-0.061-1.306-0.080-1.747-0.038-0.24 0.022-0.861 0.112-0.941 0.134-0.026 0.006-0.083 0.019-0.128 0.029-0.141 0.022-0.774 0.211-1.056 0.314-0.87 0.31-2.010 1.014-2.637 1.629l-0.157 0.15-0.275-0.243c-1.235-1.107-2.794-1.808-4.429-1.99-0.413-0.045-1.146-0.058-1.542-0.026z"></path>
</svg>
