<!-- Generated by IcoMoon.io -->
<svg version="1.1" xmlns="http://www.w3.org/2000/svg" width="32" height="32" viewBox="0 0 32 32">
<title>reload</title>
<path fill="#ff7900" d="M15.389 3.213c-0.006 0.006-0.163 0.019-0.349 0.029-1.533 0.090-3.21 0.547-4.691 1.274-0.944 0.464-1.898 1.094-2.714 1.792-0.32 0.275-1.174 1.142-1.443 1.469-0.995 1.2-1.76 2.538-2.24 3.904-0.064 0.186-0.128 0.371-0.144 0.416-0.131 0.368-0.362 1.334-0.448 1.888-0.016 0.115-0.038 0.237-0.045 0.275s-0.022 0.182-0.035 0.32c-0.013 0.138-0.035 0.362-0.048 0.493-0.035 0.378-0.026 1.542 0.019 2.016 0.058 0.624 0.074 0.736 0.16 1.216 0.474 2.576 1.67 4.854 3.517 6.707 0.698 0.698 1.222 1.136 1.936 1.613 0.166 0.109 0.342 0.227 0.39 0.259 0.349 0.24 1.363 0.752 1.949 0.982 1.002 0.4 1.744 0.602 2.877 0.79 0.691 0.112 2.122 0.17 2.864 0.109 2.771-0.218 5.344-1.283 7.408-3.066 0.314-0.269 0.672-0.618 0.672-0.65 0-0.016-0.758-0.784-1.683-1.709l-1.683-1.683-0.134 0.125c-0.237 0.23-0.32 0.301-0.579 0.502-0.598 0.47-1.123 0.778-1.936 1.133-0.429 0.189-1.242 0.406-1.856 0.499-0.445 0.070-1.542 0.093-1.987 0.042-1.539-0.17-3.043-0.794-4.202-1.744-1.443-1.181-2.451-2.842-2.797-4.614-0.128-0.65-0.15-0.874-0.15-1.584 0-0.755 0.029-1.040 0.166-1.693 0.323-1.526 1.046-2.854 2.166-3.971 0.771-0.771 1.578-1.315 2.547-1.728 0.541-0.23 1.293-0.442 1.888-0.528 0.131-0.019 0.275-0.045 0.32-0.054s0.39-0.019 0.768-0.026c0.544-0.010 0.784 0.003 1.152 0.051 1.68 0.224 3.12 0.896 4.39 2.048l0.25 0.224-3.245 3.245 4.048 0.010c2.902 0.006 4.099 0 4.237-0.026 0.589-0.112 1.091-0.589 1.248-1.187 0.038-0.144 0.048-0.835 0.048-4.278v-4.106l-1.472 1.475-1.475 1.475-0.31-0.294c-1.466-1.379-3.302-2.416-5.27-2.973-1.12-0.317-2.208-0.467-3.443-0.474-0.346-0.003-0.634 0-0.64 0.006z"></path>
</svg>
