<!-- Generated by IcoMoon.io -->
<svg version="1.1" xmlns="http://www.w3.org/2000/svg" width="32" height="32" viewBox="0 0 32 32">
<title>remove_modifier</title>
<path fill="#ff7900" d="M15.194 2.416c-0.003 0.003-0.147 0.019-0.314 0.029-0.166 0.013-0.333 0.029-0.368 0.035s-0.134 0.022-0.224 0.032c-0.211 0.022-0.342 0.045-0.832 0.125-0.035 0.003-0.099 0.019-0.144 0.029s-0.218 0.051-0.384 0.086c-0.592 0.131-1.597 0.445-2 0.624-0.051 0.026-0.189 0.083-0.304 0.128-0.57 0.234-1.491 0.733-2.115 1.149-0.515 0.342-0.605 0.406-1.043 0.765-1.971 1.59-3.434 3.654-4.288 6.038-0.24 0.675-0.493 1.648-0.586 2.266-0.080 0.509-0.093 0.611-0.112 0.822-0.013 0.122-0.029 0.266-0.038 0.32-0.029 0.182-0.035 1.795-0.010 2.112 0.032 0.368 0.096 0.963 0.115 1.056 0.010 0.035 0.045 0.23 0.080 0.432 0.304 1.725 1.005 3.475 2.010 5.008 0.115 0.176 0.221 0.333 0.237 0.352 0.013 0.016 0.125 0.17 0.25 0.336 0.762 1.018 1.658 1.914 2.669 2.678 0.806 0.605 1.299 0.912 2.195 1.36 1.203 0.598 2.765 1.088 4.013 1.254 0.070 0.010 0.23 0.032 0.352 0.048 0.611 0.083 2.118 0.115 2.736 0.058 1.494-0.138 2.755-0.438 4.048-0.963 0.662-0.272 1.507-0.701 2.032-1.037 0.522-0.333 1.107-0.749 1.379-0.979 0.064-0.054 0.186-0.157 0.272-0.227s0.256-0.221 0.381-0.336c2.144-1.997 3.552-4.49 4.122-7.296 0.102-0.493 0.176-0.963 0.202-1.28 0.010-0.131 0.026-0.275 0.035-0.32 0.029-0.144 0.035-1.798 0.006-2.112-0.035-0.435-0.093-0.918-0.125-1.104-0.016-0.090-0.045-0.253-0.064-0.368-0.262-1.485-0.89-3.165-1.667-4.454-0.189-0.31-0.525-0.835-0.582-0.906-0.013-0.019-0.131-0.176-0.266-0.352-1.741-2.33-4.259-4.070-7.053-4.88-0.806-0.234-1.654-0.4-2.368-0.467-0.115-0.010-0.25-0.026-0.304-0.035-0.106-0.016-1.923-0.042-1.942-0.026zM17.040 5.654c2.026 0.208 3.869 0.963 5.475 2.24 0.448 0.358 1.232 1.142 1.594 1.594 0.8 1.005 1.389 2.099 1.792 3.328 0.195 0.605 0.368 1.411 0.451 2.144 0.042 0.374 0.042 1.581 0 2.016-0.179 1.83-0.832 3.59-1.85 5.008-0.483 0.672-1.226 1.488-1.763 1.939-1.68 1.405-3.722 2.259-5.843 2.442-0.333 0.029-1.706 0.022-1.92-0.010-0.061-0.010-0.234-0.032-0.384-0.054-1.245-0.16-2.608-0.618-3.69-1.235-0.554-0.314-1.251-0.803-1.712-1.2-0.147-0.125-0.947-0.931-1.075-1.078-1.402-1.642-2.246-3.632-2.474-5.827-0.032-0.31-0.032-1.466 0-1.856 0.323-4.006 3.018-7.507 6.838-8.89 0.544-0.198 1.488-0.438 1.952-0.499 0.080-0.010 0.205-0.029 0.278-0.038 0.57-0.080 1.683-0.090 2.33-0.022z"></path>
<path fill="#ff7900" d="M8.544 13.629c-0.218 0.067-0.358 0.182-0.467 0.387-0.058 0.106-0.061 0.218-0.061 1.984 0 1.856 0 1.872 0.070 2 0.077 0.147 0.173 0.24 0.33 0.323 0.109 0.058 0.358 0.061 7.488 0.070 5.51 0.006 7.421 0 7.549-0.029 0.138-0.029 0.202-0.067 0.323-0.189 0.23-0.227 0.23-0.218 0.218-2.272-0.010-1.763-0.010-1.776-0.080-1.91-0.093-0.17-0.269-0.314-0.445-0.358-0.16-0.042-14.79-0.045-14.925-0.006z"></path>
</svg>
