<!-- Generated by IcoMoon.io -->
<svg version="1.1" xmlns="http://www.w3.org/2000/svg" width="32" height="32" viewBox="0 0 32 32">
<title>Remote_control_1</title>
<path fill="#ff7900" d="M11.158 1.616c-0.563 0.154-1.008 0.605-1.158 1.171-0.070 0.259-0.070 26.102 0 26.362 0.15 0.573 0.598 1.021 1.171 1.171 0.147 0.042 0.886 0.048 4.755 0.048 3.222 0 4.634-0.010 4.752-0.035 0.598-0.125 1.114-0.64 1.238-1.238 0.026-0.122 0.035-3.779 0.035-13.152 0-11.181-0.006-13.008-0.048-13.155-0.157-0.592-0.64-1.059-1.226-1.184-0.266-0.054-9.312-0.045-9.52 0.013zM12.618 3.219c0.211 0.070 0.416 0.278 0.486 0.493 0.173 0.522-0.214 1.056-0.768 1.056-0.31 0-0.634-0.24-0.736-0.544-0.211-0.634 0.384-1.222 1.018-1.005zM13.731 8.816c0.192 0.099 0.221 0.202 0.221 0.746 0 0.547-0.022 0.637-0.202 0.742-0.096 0.061-0.166 0.064-0.998 0.064s-0.902-0.003-0.998-0.064c-0.179-0.106-0.202-0.195-0.202-0.742 0-0.541 0.016-0.605 0.189-0.72 0.106-0.074 0.125-0.074 1.002-0.074 0.742 0 0.909 0.010 0.989 0.048zM16.928 8.81c0.042 0.022 0.112 0.090 0.15 0.147 0.067 0.102 0.074 0.141 0.074 0.602 0 0.55-0.022 0.64-0.202 0.746-0.096 0.061-0.166 0.064-0.998 0.064-0.982 0-1.002-0.003-1.126-0.189-0.070-0.102-0.074-0.141-0.074-0.608 0-0.554 0.016-0.614 0.189-0.73 0.106-0.074 0.125-0.074 1.008-0.074 0.656 0 0.922 0.013 0.979 0.042zM20.131 8.816c0.192 0.099 0.221 0.198 0.221 0.752 0 0.435-0.006 0.509-0.064 0.598-0.122 0.202-0.157 0.205-1.184 0.195-0.867-0.010-0.925-0.013-0.992-0.074-0.141-0.128-0.16-0.211-0.16-0.72 0-0.541 0.026-0.63 0.202-0.736 0.096-0.061 0.166-0.064 0.992-0.064 0.739 0 0.906 0.010 0.986 0.048zM13.731 12.016c0.192 0.099 0.221 0.198 0.221 0.752 0 0.435-0.006 0.509-0.064 0.598-0.122 0.202-0.157 0.205-1.184 0.195-0.867-0.010-0.925-0.013-0.992-0.074-0.141-0.128-0.16-0.211-0.16-0.72 0-0.541 0.026-0.63 0.202-0.736 0.096-0.061 0.166-0.064 0.992-0.064 0.739 0 0.906 0.010 0.986 0.048zM16.931 12.016c0.192 0.099 0.221 0.202 0.221 0.746 0 0.547-0.022 0.637-0.202 0.742-0.096 0.061-0.166 0.064-0.998 0.064s-0.902-0.003-0.998-0.064c-0.176-0.106-0.202-0.195-0.202-0.736s0.026-0.63 0.202-0.736c0.096-0.061 0.166-0.064 0.992-0.064 0.739 0 0.906 0.010 0.986 0.048zM20.128 12.010c0.042 0.022 0.112 0.090 0.15 0.147 0.067 0.102 0.074 0.141 0.074 0.602 0 0.55-0.022 0.64-0.202 0.746-0.096 0.061-0.166 0.064-0.998 0.064s-0.902-0.003-0.998-0.064c-0.179-0.106-0.202-0.195-0.202-0.742 0-0.541 0.016-0.605 0.189-0.72 0.106-0.074 0.125-0.074 1.008-0.074 0.656 0 0.922 0.013 0.979 0.042zM13.731 15.216c0.192 0.099 0.221 0.202 0.221 0.746 0 0.547-0.022 0.637-0.202 0.742-0.096 0.061-0.166 0.064-0.998 0.064s-0.902-0.003-0.998-0.064c-0.176-0.106-0.202-0.195-0.202-0.736s0.026-0.63 0.202-0.736c0.096-0.061 0.166-0.064 0.992-0.064 0.739 0 0.906 0.010 0.986 0.048zM16.931 15.216c0.192 0.099 0.221 0.202 0.221 0.746 0 0.547-0.022 0.637-0.202 0.742-0.096 0.061-0.166 0.064-0.998 0.064s-0.902-0.003-0.998-0.064c-0.176-0.106-0.202-0.195-0.202-0.736 0-0.502 0.019-0.595 0.147-0.707 0.035-0.032 0.090-0.061 0.125-0.070 0.035-0.006 0.458-0.016 0.938-0.019 0.733-0.003 0.89 0.006 0.97 0.045zM20.131 15.216c0.192 0.099 0.221 0.202 0.221 0.746 0 0.547-0.022 0.637-0.202 0.742-0.096 0.061-0.166 0.064-0.998 0.064s-0.902-0.003-0.998-0.064c-0.176-0.106-0.202-0.195-0.202-0.736s0.026-0.63 0.202-0.736c0.096-0.061 0.166-0.064 0.992-0.064 0.739 0 0.906 0.010 0.986 0.048zM16.541 19.222c0.374 0.064 0.742 0.186 1.059 0.349 0.278 0.144 0.576 0.346 0.576 0.39 0 0.013-0.25 0.272-0.554 0.576l-0.557 0.554-0.189-0.093c-0.576-0.291-1.232-0.298-1.802-0.019l-0.234 0.115-0.573-0.57-0.57-0.57 0.198-0.141c0.406-0.285 1.037-0.538 1.542-0.611 0.282-0.042 0.803-0.035 1.101 0.019zM19.133 21.088c0.57 1.069 0.547 2.41-0.058 3.462-0.074 0.128-0.176 0.285-0.227 0.346l-0.093 0.112-0.566-0.566-0.566-0.563 0.112-0.221c0.288-0.544 0.282-1.258-0.013-1.811l-0.099-0.186 0.57-0.573 0.573-0.573 0.118 0.166c0.067 0.093 0.179 0.275 0.25 0.406zM13.725 21.101l0.554 0.554-0.086 0.17c-0.301 0.595-0.314 1.229-0.032 1.821l0.115 0.24-1.136 1.136-0.122-0.166c-0.394-0.547-0.666-1.379-0.666-2.054 0-0.589 0.16-1.232 0.429-1.725 0.154-0.282 0.326-0.531 0.365-0.531 0.013 0 0.272 0.25 0.579 0.557zM16.448 21.686c0.266 0.125 0.461 0.32 0.589 0.586 0.086 0.182 0.096 0.243 0.099 0.496 0 0.256-0.010 0.31-0.099 0.499-0.125 0.262-0.32 0.454-0.589 0.586-0.186 0.090-0.24 0.099-0.496 0.099s-0.31-0.013-0.496-0.099c-0.266-0.125-0.464-0.323-0.589-0.589-0.090-0.186-0.099-0.24-0.099-0.496s0.013-0.31 0.099-0.496c0.218-0.454 0.624-0.707 1.117-0.691 0.208 0.006 0.298 0.029 0.464 0.106zM15.034 24.544c0.57 0.298 1.258 0.291 1.869-0.016l0.166-0.083 0.57 0.57 0.57 0.573-0.294 0.195c-0.64 0.416-1.392 0.618-2.144 0.573-0.672-0.038-1.184-0.202-1.741-0.547-0.368-0.23-0.39-0.166 0.246-0.803 0.304-0.307 0.56-0.557 0.566-0.557 0.003 0 0.093 0.042 0.192 0.096z"></path>
</svg>
