<!-- Generated by IcoMoon.io -->
<svg version="1.1" xmlns="http://www.w3.org/2000/svg" width="32" height="32" viewBox="0 0 32 32">
<title>remote_control</title>
<path fill="#ff7900" d="M11.184 1.638c-0.576 0.109-1.104 0.64-1.229 1.235-0.051 0.24-0.051 26.013 0 26.253 0.125 0.598 0.64 1.114 1.238 1.238 0.118 0.026 1.546 0.035 4.816 0.035 5.053 0 4.848 0.006 5.21-0.179 0.090-0.045 0.262-0.182 0.387-0.304 0.243-0.243 0.381-0.499 0.438-0.819 0.026-0.125 0.035-4 0.035-12.56v-12.378l-2.56-2.56-4.086 0.003c-2.438 0.003-4.154 0.016-4.25 0.035zM16.394 3.77c0.323 0.144 0.566 0.515 0.566 0.87 0 0.342-0.224 0.701-0.528 0.848-0.621 0.307-1.325-0.093-1.382-0.778-0.019-0.253 0.054-0.493 0.214-0.682 0.102-0.128 0.339-0.282 0.496-0.32 0.154-0.042 0.47-0.010 0.634 0.061zM16.992 8.518l0.672 0.666h-3.325l0.822-0.826 0.822-0.822 0.17 0.16c0.093 0.086 0.474 0.458 0.838 0.822zM19.786 12.995l-0.842 0.835v-3.341l0.842 0.835 0.838 0.835-0.838 0.835zM13.024 12.16c0 0.896-0.006 1.632-0.016 1.632s-0.381-0.368-0.826-0.816l-0.81-0.813 0.803-0.816c0.438-0.448 0.81-0.816 0.826-0.816 0.013-0.003 0.022 0.73 0.022 1.629zM16.307 10.755c0.278 0.067 0.502 0.192 0.704 0.394 0.33 0.333 0.467 0.736 0.406 1.194-0.045 0.339-0.166 0.586-0.406 0.829-0.576 0.573-1.446 0.573-2.019 0-0.48-0.48-0.563-1.184-0.214-1.763 0.31-0.509 0.966-0.79 1.53-0.653zM17.632 15.123c0 0.013-0.355 0.378-0.79 0.816s-0.8 0.81-0.81 0.829c-0.010 0.016-0.397-0.349-0.861-0.816l-0.842-0.848h1.651c0.909 0 1.651 0.010 1.651 0.019zM13.229 19.469c0.336 0.163 0.512 0.458 0.515 0.851 0 0.317-0.109 0.554-0.342 0.736-0.394 0.314-0.925 0.288-1.274-0.064-0.352-0.349-0.378-0.906-0.061-1.29 0.106-0.131 0.33-0.272 0.486-0.314 0.186-0.048 0.49-0.010 0.675 0.080zM16.432 19.469c0.579 0.285 0.701 1.066 0.24 1.523-0.621 0.624-1.683 0.141-1.622-0.739 0.026-0.406 0.32-0.762 0.71-0.864 0.176-0.048 0.483-0.010 0.672 0.080zM19.635 19.472c0.467 0.23 0.659 0.838 0.406 1.299-0.301 0.557-1.059 0.675-1.501 0.237-0.198-0.198-0.275-0.374-0.288-0.637-0.032-0.746 0.707-1.229 1.382-0.899zM13.229 22.669c0.586 0.285 0.707 1.072 0.24 1.526-0.586 0.57-1.542 0.218-1.619-0.592-0.067-0.746 0.701-1.267 1.379-0.934zM16.387 22.646c0.208 0.093 0.358 0.24 0.464 0.448 0.077 0.15 0.093 0.218 0.093 0.422-0.003 0.531-0.358 0.912-0.886 0.954-0.8 0.061-1.302-0.864-0.826-1.52 0.253-0.352 0.752-0.48 1.155-0.304zM19.635 22.672c0.307 0.15 0.525 0.509 0.525 0.867 0 0.218-0.118 0.486-0.288 0.653-0.566 0.57-1.536 0.227-1.619-0.57-0.080-0.755 0.691-1.286 1.382-0.95zM13.235 25.872c0.336 0.163 0.55 0.547 0.515 0.918-0.061 0.675-0.758 1.078-1.363 0.787-0.317-0.15-0.502-0.422-0.538-0.774-0.067-0.746 0.704-1.264 1.386-0.931zM16.39 25.85c0.358 0.157 0.589 0.544 0.56 0.928-0.038 0.496-0.39 0.851-0.88 0.893-0.259 0.019-0.502-0.061-0.704-0.23-0.31-0.266-0.406-0.765-0.221-1.142 0.224-0.458 0.774-0.656 1.245-0.448zM19.629 25.869c0.435 0.211 0.637 0.73 0.467 1.181-0.202 0.538-0.806 0.774-1.328 0.518-0.298-0.144-0.528-0.506-0.528-0.826 0-0.726 0.739-1.19 1.389-0.874z"></path>
</svg>
