<!-- Generated by IcoMoon.io -->
<svg version="1.1" xmlns="http://www.w3.org/2000/svg" width="32" height="32" viewBox="0 0 32 32">
<title>Replay_boxed_arrow</title>
<path fill="#ff7900" d="M12.669 2.102c-0.045 0.048-0.234 0.234-0.416 0.41-0.186 0.176-0.637 0.611-1.008 0.963-0.368 0.355-0.72 0.691-0.781 0.749s-0.278 0.262-0.48 0.461c-0.525 0.506-1.722 1.654-1.856 1.779-0.061 0.058-0.39 0.371-0.733 0.701-0.342 0.326-0.682 0.653-0.755 0.723-2.138 2.038-2.355 2.259-2.474 2.512-0.262 0.544-0.266 1.059-0.016 1.6 0.099 0.211 0.17 0.294 0.582 0.704 0.41 0.406 1.539 1.494 1.955 1.885 0.080 0.074 0.422 0.406 0.765 0.733 0.342 0.33 0.688 0.662 0.768 0.739 0.16 0.15 0.371 0.352 1.427 1.366 0.387 0.374 0.755 0.723 0.816 0.781 0.186 0.173 1.392 1.331 1.856 1.782l0.432 0.422 0.010-2.8 0.006-2.797h8.032v8h-5.242c-5.891 0-5.462-0.019-5.715 0.237-0.256 0.253-0.243 0.077-0.243 3.366 0 3.168-0.006 3.056 0.176 3.296 0.042 0.054 0.147 0.144 0.23 0.192l0.154 0.093 7.856 0.006c7.094 0.006 7.878 0.003 8.080-0.042 0.976-0.224 1.712-0.998 1.869-1.968 0.022-0.138 0.035-3.136 0.035-9.206 0-8.080-0.006-9.027-0.051-9.248-0.192-0.947-0.928-1.68-1.875-1.875-0.221-0.045-0.938-0.051-6.778-0.051h-6.528l-0.006-2.803-0.010-2.803-0.083 0.093z"></path>
</svg>
