<!-- Generated by IcoMoon.io -->
<svg version="1.1" xmlns="http://www.w3.org/2000/svg" width="32" height="32" viewBox="0 0 32 32">
<title>Reply_curved_arrow</title>
<path fill="#ff7900" d="M7.526 8.762c-2.989 2.998-5.264 5.306-5.318 5.392-0.17 0.269-0.253 0.458-0.32 0.723-0.182 0.698-0.048 1.424 0.365 2.003 0.064 0.086 2.461 2.509 5.331 5.382l5.216 5.222v-6.4l4.698 0.013c2.582 0.006 4.746 0.022 4.806 0.035s0.211 0.045 0.336 0.070c0.691 0.144 1.469 0.525 2.019 0.992 1.005 0.848 1.558 1.898 1.722 3.261 0.010 0.070 0.016 0.781 0.019 1.578v1.45l0.246-0.202c0.387-0.314 1.117-1.059 1.453-1.482 1.062-1.334 1.763-2.822 2.090-4.432 0.086-0.432 0.090-0.458 0.154-0.96 0.064-0.509 0.051-1.866-0.019-2.394-0.227-1.686-0.778-3.165-1.683-4.518-0.365-0.541-0.762-1.018-1.296-1.552-0.771-0.771-1.475-1.302-2.4-1.805-1.027-0.56-2.362-1.005-3.408-1.136-0.080-0.010-0.179-0.026-0.221-0.035-0.045-0.006-0.208-0.026-0.368-0.035-0.16-0.013-0.314-0.026-0.339-0.032-0.026-0.003-1.795-0.010-3.926-0.010l-3.882-0.003v-3.184c0-1.75-0.010-3.184-0.022-3.181-0.016 0-2.378 2.358-5.251 5.238z"></path>
</svg>
