<!-- Generated by IcoMoon.io -->
<svg version="1.1" xmlns="http://www.w3.org/2000/svg" width="32" height="32" viewBox="0 0 32 32">
<title>report</title>
<path fill="#ff7900" d="M15.165 3.213c-0.006 0.006-0.182 0.022-0.387 0.032-0.208 0.013-0.41 0.029-0.448 0.035-0.042 0.006-0.16 0.019-0.266 0.032-1.309 0.141-2.733 0.486-3.978 0.963-1.578 0.608-2.989 1.446-4.182 2.49-0.81 0.71-1.6 1.642-2.147 2.534-0.717 1.168-1.162 2.458-1.309 3.805-0.042 0.387-0.048 1.613-0.006 1.792 0.010 0.035 0.026 0.15 0.038 0.256 0.054 0.499 0.189 1.050 0.403 1.696 0.79 2.349 2.637 4.461 5.165 5.91 0.819 0.47 1.875 0.938 2.778 1.229l0.374 0.122v5.494l4.794-4.794 0.618-0.022c0.342-0.013 0.65-0.029 0.685-0.035s0.173-0.022 0.304-0.032c1.629-0.125 3.613-0.637 5.12-1.328 0.704-0.323 1.584-0.813 2.109-1.174 0.246-0.173 0.877-0.643 0.998-0.752 0.048-0.042 0.157-0.134 0.24-0.205 0.72-0.614 1.498-1.507 2.045-2.349 0.234-0.355 0.723-1.296 0.845-1.616 0.451-1.184 0.63-2.118 0.634-3.28 0.010-2.47-1.027-4.835-2.963-6.749-1.514-1.494-3.363-2.586-5.584-3.296-1.062-0.339-2.384-0.608-3.395-0.691-0.141-0.013-0.298-0.029-0.352-0.035-0.115-0.019-2.115-0.048-2.131-0.032zM21.853 8.848c0.189 0.064 0.346 0.195 0.445 0.365 0.074 0.125 0.086 0.186 0.086 0.387s-0.013 0.262-0.086 0.387c-0.048 0.080-0.138 0.186-0.198 0.234-0.253 0.192 0.138 0.179-6.080 0.179-6.403 0-5.923 0.019-6.176-0.237-0.282-0.282-0.317-0.714-0.086-1.040 0.083-0.115 0.294-0.259 0.426-0.291 0.058-0.013 2.678-0.026 5.821-0.029 4.938-0.003 5.734 0.003 5.85 0.045zM21.837 12.845c0.304 0.093 0.512 0.339 0.55 0.659 0.038 0.326-0.112 0.624-0.397 0.794l-0.15 0.086h-11.651l-0.154-0.080c-0.48-0.246-0.579-0.883-0.195-1.264 0.253-0.253-0.259-0.234 6.131-0.237 4.842-0.003 5.738 0.003 5.866 0.042zM16.256 16.848c0.339 0.118 0.528 0.397 0.525 0.768 0 0.186-0.016 0.25-0.090 0.378-0.102 0.173-0.25 0.298-0.426 0.362-0.099 0.035-0.691 0.042-3.075 0.045h-2.954l-0.173-0.083c-0.643-0.301-0.598-1.222 0.067-1.466 0.192-0.070 5.926-0.074 6.125-0.003z"></path>
</svg>
