<!-- Generated by IcoMoon.io -->
<svg version="1.1" xmlns="http://www.w3.org/2000/svg" width="32" height="32" viewBox="0 0 32 32">
<title>responsible</title>
<path fill="#ff7900" d="M19.28 5.014c-0.666 0.074-1.373 0.352-1.92 0.758-0.163 0.122-1.338 1.27-3.293 3.226l-3.037 3.037 0.093 0.099c0.301 0.32 0.704 0.691 0.845 0.781 0.234 0.147 0.566 0.243 0.864 0.253 0.333 0.010 0.502-0.026 0.832-0.182l0.272-0.128 2.246-2.243c1.235-1.235 2.262-2.25 2.282-2.256s1.843 1.798 4.054 4.010l4.022 4.022 0.262-0.275c0.374-0.39 0.563-0.653 0.765-1.059 0.323-0.659 0.416-1.056 0.413-1.792-0.003-0.397-0.016-0.576-0.070-0.803-0.131-0.579-0.371-1.098-0.717-1.562-0.243-0.326-4.848-4.918-5.162-5.146-0.47-0.346-1.094-0.605-1.696-0.71-0.23-0.038-0.813-0.054-1.056-0.029z"></path>
<path fill="#ff7900" d="M11.568 5.088c-0.563 0.099-1.123 0.33-1.603 0.659-0.298 0.205-4.864 4.755-5.152 5.133-0.355 0.467-0.602 1.024-0.736 1.648-0.064 0.307-0.074 1.11-0.016 1.424 0.109 0.598 0.384 1.242 0.733 1.715 0.106 0.138 0.438 0.502 0.742 0.81l0.554 0.554 0.131-0.154c0.182-0.218 1.446-1.478 1.603-1.6 0.611-0.477 1.453-0.589 2.189-0.288 0.816 0.33 1.357 1.162 1.338 2.054l-0.006 0.259 0.31 0.003c1.251 0.006 2.208 1.002 2.179 2.262l-0.006 0.224h0.326c0.547 0.003 1.037 0.189 1.421 0.541 0.496 0.454 0.726 0.963 0.73 1.61v0.326l0.24-0.003c0.435-0.006 0.774 0.077 1.13 0.272 0.227 0.128 0.349 0.234 0.89 0.768 0.502 0.496 0.675 0.582 1.133 0.579 0.355-0.003 0.509-0.045 0.762-0.214 0.186-0.125 0.394-0.39 0.48-0.611 0.141-0.362 0.086-0.858-0.128-1.187-0.045-0.070-1.229-1.274-2.627-2.675-1.398-1.398-2.56-2.579-2.586-2.624-0.134-0.243 0.042-0.563 0.339-0.614 0.208-0.035 0.214-0.029 2.854 2.611 1.523 1.523 2.627 2.605 2.714 2.656 0.246 0.144 0.413 0.189 0.688 0.189 0.509-0.003 0.922-0.256 1.162-0.704 0.24-0.454 0.195-0.963-0.125-1.398-0.067-0.090-1.251-1.29-2.634-2.672-1.904-1.898-2.525-2.538-2.544-2.618-0.099-0.346 0.243-0.65 0.586-0.522 0.042 0.019 1.245 1.197 2.672 2.621 2.803 2.803 2.704 2.714 3.133 2.794 0.518 0.099 1.066-0.144 1.354-0.598 0.218-0.349 0.243-0.848 0.064-1.245-0.099-0.218-0.214-0.336-3.744-3.869l-3.642-3.645-1.901 1.901c-1.046 1.046-1.965 1.952-2.045 2.016-0.864 0.701-2.125 0.762-3.078 0.15-0.118-0.077-0.499-0.426-0.931-0.854l-0.73-0.723 5.587-5.59-0.304-0.288c-0.326-0.307-0.678-0.557-1.040-0.739-0.227-0.112-0.765-0.298-0.954-0.326-0.058-0.010-0.182-0.029-0.278-0.045-0.288-0.048-0.886-0.032-1.232 0.029z"></path>
<path fill="#ff7900" d="M8.896 15.725c-0.352 0.077-0.458 0.154-1.226 0.912-0.403 0.397-0.771 0.787-0.822 0.864-0.294 0.438-0.31 0.976-0.045 1.43 0.112 0.189 0.355 0.406 0.576 0.512 0.173 0.083 0.221 0.093 0.541 0.093 0.339 0 0.362-0.006 0.576-0.109 0.192-0.096 0.317-0.208 0.986-0.874 0.65-0.653 0.778-0.794 0.858-0.963 0.186-0.4 0.189-0.781 0.006-1.165-0.25-0.525-0.874-0.826-1.45-0.701z"></path>
<path fill="#ff7900" d="M11.338 18.205c-0.32 0.083-0.458 0.192-1.245 0.976-0.835 0.835-0.906 0.934-0.979 1.328-0.16 0.851 0.614 1.651 1.469 1.517 0.426-0.064 0.522-0.134 1.373-0.982 0.685-0.685 0.784-0.797 0.877-0.992 0.208-0.438 0.157-0.954-0.134-1.344-0.144-0.195-0.432-0.41-0.627-0.47-0.154-0.045-0.602-0.064-0.733-0.032z"></path>
<path fill="#ff7900" d="M13.952 20.662c-0.15 0.022-0.4 0.115-0.528 0.195-0.218 0.138-1.59 1.539-1.686 1.722-0.115 0.218-0.16 0.406-0.16 0.637 0.003 0.87 0.842 1.494 1.677 1.251 0.294-0.086 0.525-0.269 1.258-1.014 0.547-0.557 0.723-0.758 0.79-0.896 0.317-0.653 0.058-1.434-0.582-1.757-0.24-0.118-0.531-0.173-0.768-0.138z"></path>
<path fill="#ff7900" d="M16.214 23.2c-0.102 0.032-0.243 0.096-0.314 0.144-0.173 0.112-1.539 1.482-1.635 1.638-0.39 0.624-0.214 1.421 0.406 1.818 0.426 0.272 0.979 0.269 1.414-0.010 0.224-0.144 1.587-1.53 1.674-1.699 0.278-0.55 0.186-1.168-0.234-1.578-0.352-0.339-0.854-0.461-1.312-0.314z"></path>
</svg>
