<!-- Generated by IcoMoon.io -->
<svg version="1.1" xmlns="http://www.w3.org/2000/svg" width="32" height="32" viewBox="0 0 32 32">
<title>Restaurant</title>
<path fill="#ff7900" d="M9.408 2.422c-0.157 0.051-0.336 0.166-0.416 0.262-0.205 0.262-0.192-0.058-0.192 4.547 0 4.586-0.006 4.413 0.189 4.893 0.221 0.544 0.685 1.014 1.261 1.277l0.15 0.070v7.344c0 5.235 0.010 7.389 0.035 7.51 0.256 1.219 1.747 1.68 2.666 0.822 0.227-0.211 0.403-0.525 0.464-0.822 0.026-0.118 0.035-2.333 0.035-7.51v-7.341l0.266-0.134c0.624-0.314 1.050-0.826 1.258-1.517 0.054-0.179 0.061-0.448 0.067-4.458 0.006-2.835 0-4.307-0.022-4.387-0.048-0.179-0.198-0.371-0.374-0.474-0.211-0.125-0.528-0.128-0.762-0.006-0.179 0.090-0.349 0.291-0.4 0.47-0.019 0.077-0.032 1.229-0.032 3.373v3.258h-0.8v-3.258c0-2.144-0.013-3.296-0.032-3.373-0.051-0.176-0.221-0.381-0.394-0.467-0.39-0.202-0.842-0.074-1.069 0.307l-0.090 0.15-0.010 3.318-0.006 3.322h-0.8l-0.006-3.322c-0.010-3.728 0.013-3.395-0.253-3.654-0.182-0.179-0.525-0.272-0.733-0.202z"></path>
<path fill="#ff7900" d="M21.882 2.432c-0.867 0.102-1.734 0.547-2.378 1.219-0.586 0.611-0.95 1.373-1.069 2.221-0.019 0.138-0.032 2.579-0.032 6.374l-0.003 6.154h1.6v4.88c0 3.437 0.010 4.928 0.035 5.046 0.176 0.838 1.024 1.405 1.859 1.242 0.624-0.118 1.142-0.627 1.274-1.248 0.026-0.131 0.032-3.347 0.026-12.768-0.010-12.061-0.013-12.595-0.067-12.698-0.090-0.166-0.298-0.349-0.461-0.403-0.157-0.054-0.422-0.061-0.784-0.019z"></path>
</svg>
