<!-- Generated by IcoMoon.io -->
<svg version="1.1" xmlns="http://www.w3.org/2000/svg" width="32" height="32" viewBox="0 0 32 32">
<title>Restrictied_content</title>
<path fill="#ff7900" d="M5.776 5.648c-0.72 0.134-1.341 0.406-1.859 0.819-0.691 0.55-1.171 1.299-1.411 2.211l-0.090 0.33-0.010 8.694-0.006 8.698h27.2l-0.010-8.682c-0.006-8.224-0.013-8.691-0.067-8.918-0.202-0.845-0.528-1.437-1.107-2.016-0.49-0.49-0.963-0.784-1.606-0.992-0.624-0.202 0.086-0.189-10.842-0.186-7.987 0-10.013 0.010-10.192 0.042zM16.458 8.051c0.762 0.179 1.398 0.765 1.619 1.501 0.096 0.31 0.118 0.797 0.054 1.104-0.096 0.467-0.4 0.925-0.845 1.283-0.234 0.186-0.24 0.262-0.122 1.277 0.013 0.122 0.054 0.528 0.198 1.952 0.010 0.096 0.022 0.227 0.029 0.288s0.019 0.208 0.032 0.326l0.022 0.218h-2.922l0.019-0.17c0.032-0.298 0.048-0.451 0.064-0.646 0.010-0.106 0.022-0.243 0.032-0.304 0.006-0.061 0.035-0.342 0.064-0.624s0.058-0.563 0.064-0.624c0.006-0.061 0.022-0.205 0.032-0.32 0.022-0.218 0.035-0.336 0.064-0.576 0.064-0.541 0.045-0.627-0.179-0.8-0.63-0.483-0.928-1.107-0.883-1.853 0.051-0.822 0.477-1.478 1.2-1.84 0.445-0.221 1.005-0.294 1.456-0.192zM6.95 18.461c0.205 0.086 0.314 0.208 0.749 0.829 0.208 0.304 0.39 0.547 0.403 0.541 0.013-0.003 0.189-0.246 0.39-0.538 0.416-0.598 0.531-0.726 0.749-0.835 0.122-0.058 0.202-0.074 0.406-0.074 0.342 0.003 0.573 0.109 0.749 0.346 0.234 0.31 0.285 0.634 0.154 0.95-0.064 0.15-0.435 0.717-0.851 1.296-0.272 0.378-0.362 0.528-0.362 0.608 0 0.051 0.064 0.182 0.157 0.314 0.086 0.128 0.352 0.512 0.586 0.854 0.477 0.688 0.547 0.838 0.528 1.142-0.019 0.362-0.218 0.646-0.56 0.806-0.141 0.064-0.227 0.080-0.432 0.083-0.224 0-0.278-0.013-0.426-0.093-0.179-0.102-0.282-0.211-0.554-0.611-0.096-0.141-0.186-0.272-0.205-0.291-0.016-0.022-0.096-0.134-0.176-0.25s-0.154-0.211-0.163-0.211c-0.010 0-0.064 0.067-0.115 0.15-0.24 0.371-0.698 0.992-0.79 1.075-0.189 0.17-0.362 0.23-0.643 0.227-0.419 0-0.678-0.157-0.854-0.518-0.093-0.186-0.106-0.243-0.102-0.454 0.003-0.176 0.019-0.275 0.067-0.368 0.038-0.070 0.31-0.48 0.608-0.909 0.595-0.864 0.618-0.893 0.618-0.966 0-0.029-0.048-0.115-0.106-0.192-0.061-0.077-0.246-0.342-0.413-0.589-0.17-0.246-0.374-0.541-0.454-0.656-0.282-0.397-0.323-0.499-0.323-0.784 0-0.214 0.016-0.282 0.086-0.416 0.093-0.176 0.282-0.381 0.416-0.451 0.234-0.122 0.605-0.128 0.864-0.016zM14.816 18.458c0.211 0.090 0.355 0.253 0.768 0.848 0.202 0.294 0.378 0.534 0.387 0.534s0.074-0.083 0.144-0.182c0.81-1.19 0.902-1.274 1.405-1.27 0.218 0 0.285 0.013 0.445 0.093 0.298 0.15 0.531 0.518 0.531 0.845 0 0.282-0.070 0.422-0.605 1.187-0.653 0.941-0.71 1.030-0.688 1.101 0.016 0.064 0.176 0.314 0.39 0.611 0.422 0.595 0.8 1.178 0.845 1.312 0.070 0.208 0.054 0.528-0.035 0.71-0.093 0.186-0.272 0.355-0.483 0.454-0.141 0.064-0.224 0.080-0.432 0.083-0.442 0-0.554-0.090-1.12-0.906-0.208-0.304-0.387-0.55-0.397-0.55-0.013 0-0.054 0.054-0.099 0.122-0.387 0.582-0.781 1.088-0.918 1.181-0.256 0.173-0.547 0.211-0.848 0.112-0.253-0.083-0.426-0.237-0.547-0.483-0.086-0.176-0.102-0.246-0.102-0.435 0-0.157 0.022-0.266 0.067-0.368 0.054-0.118 0.877-1.334 1.162-1.718 0.099-0.134 0.080-0.198-0.166-0.544-0.502-0.694-1.011-1.482-1.046-1.613-0.125-0.454 0.163-0.992 0.614-1.155 0.208-0.074 0.515-0.061 0.73 0.032zM22.72 18.458c0.214 0.096 0.32 0.205 0.637 0.662 0.445 0.646 0.499 0.72 0.515 0.72 0.010 0 0.182-0.237 0.381-0.528 0.566-0.819 0.704-0.928 1.171-0.928 0.221 0.003 0.282 0.016 0.448 0.099 0.448 0.23 0.643 0.778 0.438 1.242-0.035 0.077-0.176 0.304-0.317 0.502-0.899 1.29-0.902 1.299-0.89 1.379 0.010 0.042 0.112 0.214 0.23 0.384 1.056 1.526 1.091 1.59 1.056 1.936-0.077 0.762-1.034 1.142-1.597 0.64-0.064-0.058-0.291-0.355-0.502-0.662-0.214-0.307-0.4-0.563-0.413-0.566-0.013-0.006-0.173 0.208-0.358 0.474s-0.358 0.515-0.384 0.554c-0.253 0.358-0.726 0.518-1.13 0.378-0.266-0.096-0.419-0.23-0.541-0.48-0.090-0.182-0.106-0.246-0.102-0.438 0-0.154 0.022-0.269 0.067-0.368 0.058-0.131 0.886-1.36 1.101-1.635 0.147-0.186 0.15-0.317 0.019-0.451-0.022-0.022-0.16-0.214-0.307-0.426-0.902-1.318-0.912-1.334-0.893-1.632 0.026-0.422 0.333-0.816 0.714-0.915 0.15-0.042 0.499-0.006 0.656 0.061z"></path>
</svg>
