<!-- Generated by IcoMoon.io -->
<svg version="1.1" xmlns="http://www.w3.org/2000/svg" width="32" height="32" viewBox="0 0 32 32">
<title>restore_to_phone</title>
<path fill="#ff7900" d="M14.48 1.645c-0.352 0.112-0.611 0.336-0.765 0.659l-0.099 0.208-0.010 2.342-0.010 2.346h-1.181c-0.653 0-1.184 0.010-1.184 0.022 0 0.016 0.054 0.083 0.122 0.154 0.064 0.070 0.227 0.25 0.358 0.4s0.256 0.288 0.272 0.307c0.048 0.051 0.394 0.442 0.88 0.989 0.234 0.262 0.522 0.589 0.64 0.72 0.387 0.435 1.062 1.197 1.293 1.456 0.522 0.595 0.71 0.72 1.123 0.746 0.272 0.016 0.512-0.042 0.72-0.182 0.080-0.051 0.288-0.256 0.464-0.454s0.336-0.374 0.352-0.394c0.032-0.035 0.422-0.474 0.608-0.688 0.054-0.058 0.112-0.125 0.131-0.144 0.016-0.019 0.138-0.157 0.269-0.307s0.246-0.278 0.256-0.288c0.022-0.019 1.478-1.654 1.68-1.885 0.070-0.080 0.189-0.211 0.262-0.291l0.134-0.144-1.197-0.010-1.197-0.006-0.010-2.346-0.010-2.342-0.102-0.208c-0.166-0.342-0.429-0.566-0.765-0.656-0.25-0.064-2.835-0.067-3.037-0.003z"></path>
<path fill="#ff7900" d="M9.226 2.445c-0.579 0.141-1.069 0.646-1.19 1.229-0.051 0.24-0.051 24.413 0 24.653 0.125 0.598 0.64 1.114 1.238 1.238 0.24 0.051 13.213 0.051 13.453 0 0.598-0.125 1.114-0.64 1.238-1.238 0.051-0.24 0.051-24.413 0-24.653-0.118-0.563-0.614-1.088-1.165-1.229-0.054-0.016-0.883-0.032-1.846-0.035l-1.754-0.013v2.403h3.2v21.6h-12.8v-21.6h3.2v-2.4l-1.702 0.003c-1.248 0-1.75 0.013-1.872 0.042zM16.4 27.309c0.39 0.23 0.512 0.749 0.266 1.12-0.112 0.17-0.221 0.256-0.413 0.323-0.608 0.214-1.222-0.394-1.005-1.005 0.086-0.246 0.282-0.442 0.522-0.518 0.16-0.051 0.47-0.013 0.63 0.080z"></path>
</svg>
