<!-- Generated by IcoMoon.io -->
<svg version="1.1" xmlns="http://www.w3.org/2000/svg" width="32" height="32" viewBox="0 0 32 32">
<title>rewards</title>
<path fill="#ff7900" d="M10.8 3.219c-0.598 0.112-0.966 0.253-1.376 0.522-0.915 0.602-1.472 1.706-1.414 2.803 0.051 0.973 0.499 1.83 1.248 2.394 0.448 0.339 0.938 0.534 1.59 0.64 0.045 0.006-1.334 0.016-3.062 0.019-2.205 0.003-3.194 0.013-3.312 0.038-0.522 0.112-0.95 0.48-1.171 0.998l-0.086 0.198-0.010 2.182-0.010 2.186h12.003v-5.597l1.6 0.006v5.59h12v-2.080c0-1.392-0.013-2.131-0.035-2.246-0.122-0.576-0.582-1.062-1.155-1.213-0.218-0.058-0.4-0.061-3.382-0.064-1.734-0.003-3.11-0.013-3.059-0.019 0.49-0.067 1.030-0.266 1.398-0.512 0.669-0.448 1.123-1.094 1.344-1.914 0.099-0.368 0.099-1.133 0-1.507-0.112-0.419-0.208-0.634-0.448-1.005-0.55-0.848-1.475-1.376-2.518-1.43-1.011-0.051-2.061 0.426-2.662 1.213-0.106 0.138-1.123 1.84-2.102 3.52-0.090 0.154-0.17 0.282-0.179 0.282s-0.064-0.083-0.125-0.186c-0.058-0.099-0.275-0.47-0.483-0.822-1.715-2.925-1.651-2.819-1.994-3.139-0.595-0.56-1.312-0.848-2.134-0.861-0.221-0.003-0.429-0.003-0.464 0.003zM11.728 4.893c0.349 0.134 0.614 0.339 0.79 0.602 0.154 0.23 1.466 2.483 1.453 2.496-0.006 0.006-0.659 0.013-1.45 0.013-1.587 0-1.696-0.010-2.070-0.198-0.474-0.24-0.797-0.736-0.838-1.29-0.038-0.474 0.122-0.896 0.464-1.235 0.221-0.221 0.435-0.346 0.739-0.432 0.234-0.064 0.691-0.042 0.912 0.045zM21.168 4.848c0.88 0.227 1.405 1.098 1.171 1.946-0.038 0.138-0.099 0.31-0.134 0.381-0.099 0.198-0.467 0.544-0.682 0.646-0.355 0.17-0.509 0.182-2.058 0.182-0.784 0-1.43-0.006-1.437-0.013-0.010-0.010 0.070-0.157 0.173-0.33 0.272-0.458 0.656-1.107 0.698-1.181 0.211-0.387 0.643-1.082 0.733-1.178 0.378-0.4 1.014-0.589 1.536-0.454z"></path>
<path fill="#ff7900" d="M4 22.080c0 3.728 0.010 5.328 0.035 5.446 0.128 0.608 0.656 1.13 1.258 1.238 0.131 0.026 1.699 0.035 5.050 0.035h4.858v-12h-11.2v5.28z"></path>
<path fill="#ff7900" d="M16.8 22.8v6h4.906c4.147 0 4.928-0.006 5.075-0.048 0.592-0.157 1.062-0.643 1.184-1.226 0.026-0.118 0.035-1.718 0.035-5.446v-5.28h-11.2v6z"></path>
</svg>
