<!-- Generated by IcoMoon.io -->
<svg version="1.1" xmlns="http://www.w3.org/2000/svg" width="32" height="32" viewBox="0 0 32 32">
<title>ringtones</title>
<path fill="#ff7900" d="M18.4 11.296v6.502l-0.070-0.019c-0.47-0.134-0.723-0.173-1.13-0.173-0.989 0.003-1.853 0.365-2.554 1.066-0.947 0.947-1.283 2.368-0.864 3.648 0.291 0.89 0.976 1.683 1.818 2.106 0.864 0.432 1.914 0.486 2.832 0.154 1.254-0.458 2.15-1.571 2.333-2.893 0.026-0.173 0.035-2.346 0.035-6.973v-6.723l0.346 0.022c0.189 0.013 0.378 0.029 0.422 0.032 1.693 0.23 2.989 1.168 3.84 2.778l0.198 0.378h0.803l-0.019-0.458c-0.115-2.582-1.149-4.406-3.027-5.334-0.496-0.246-0.877-0.371-1.571-0.518-0.275-0.061-0.454-0.067-1.846-0.080l-1.546-0.016v6.502z"></path>
<path fill="#ff7900" d="M8.336 14.845c-0.314 0.141-1.222 1.302-1.67 2.131-0.467 0.864-0.829 1.939-0.954 2.816-0.010 0.070-0.022 0.157-0.032 0.192-0.099 0.48-0.080 2.019 0.032 2.611 0.006 0.029 0.019 0.106 0.029 0.173 0.138 0.851 0.595 2.090 1.066 2.88 0.448 0.755 1.245 1.734 1.52 1.875 0.406 0.208 0.861-0.189 0.714-0.621-0.022-0.067-0.125-0.211-0.23-0.32-0.294-0.314-0.374-0.41-0.643-0.771-0.608-0.822-1.014-1.674-1.27-2.662-0.301-1.162-0.333-2.4-0.096-3.533 0.010-0.045 0.022-0.115 0.032-0.16 0.006-0.045 0.058-0.237 0.112-0.432 0.336-1.194 0.986-2.314 1.891-3.264 0.086-0.090 0.176-0.214 0.205-0.278 0.096-0.234-0.016-0.518-0.253-0.63-0.166-0.083-0.285-0.083-0.451-0.006z"></path>
<path fill="#ff7900" d="M9.872 16.301c-0.122 0.051-0.49 0.448-0.784 0.835-0.595 0.79-1.002 1.686-1.2 2.656-0.122 0.592-0.141 0.813-0.128 1.52 0.013 0.886 0.102 1.389 0.394 2.211 0.106 0.301 0.33 0.765 0.528 1.101 0.397 0.666 1.014 1.395 1.232 1.456 0.179 0.048 0.298 0.038 0.422-0.035 0.189-0.115 0.262-0.25 0.259-0.467 0-0.176-0.038-0.243-0.243-0.458-0.762-0.797-1.315-1.894-1.488-2.944-0.285-1.728 0.189-3.44 1.306-4.72 0.118-0.134 0.256-0.291 0.304-0.352 0.355-0.413-0.102-1.021-0.602-0.803z"></path>
<path fill="#ff7900" d="M11.408 17.779c-0.128 0.067-0.243 0.176-0.467 0.458-0.682 0.842-1.021 1.773-1.040 2.851-0.019 1.206 0.349 2.237 1.12 3.142 0.259 0.304 0.371 0.384 0.563 0.403 0.304 0.029 0.557-0.202 0.554-0.506-0.003-0.189-0.038-0.253-0.256-0.496-0.986-1.088-1.226-2.643-0.611-3.978 0.128-0.285 0.394-0.682 0.608-0.918 0.221-0.243 0.256-0.307 0.259-0.496 0.003-0.371-0.406-0.63-0.73-0.461z"></path>
</svg>
