<!-- Generated by IcoMoon.io -->
<svg version="1.1" xmlns="http://www.w3.org/2000/svg" width="32" height="32" viewBox="0 0 32 32">
<title>running</title>
<path fill="#ff7900" d="M23.12 5.27c-0.579 0.122-1.085 0.451-1.446 0.938-0.298 0.406-0.429 0.794-0.445 1.328-0.013 0.429 0.029 0.659 0.179 1.014 0.278 0.666 0.893 1.203 1.584 1.389 0.31 0.083 0.976 0.083 1.248 0 0.614-0.189 1.078-0.538 1.408-1.062 0.592-0.938 0.451-2.166-0.342-2.954-0.573-0.573-1.405-0.819-2.186-0.653z"></path>
<path fill="#ff7900" d="M15.648 6.067c-0.096 0.026-0.24 0.090-0.32 0.141s-1.082 1.034-2.227 2.182c-2.397 2.403-2.269 2.246-2.269 2.794 0 0.288 0.010 0.339 0.093 0.506 0.128 0.256 0.33 0.454 0.586 0.573 0.182 0.086 0.253 0.102 0.47 0.102 0.288 0.003 0.515-0.061 0.694-0.189 0.061-0.045 0.829-0.8 1.709-1.68l1.6-1.6 0.963 0.963 0.963 0.96-7.046 7.046c-7.651 7.654-7.184 7.165-7.242 7.59-0.070 0.528 0.205 1.034 0.682 1.251 0.227 0.106 0.403 0.131 0.656 0.102 0.429-0.051 0.163 0.195 5.005-4.646l4.445-4.442 2.138 2.138c1.174 1.174 2.131 2.144 2.125 2.154-0.010 0.006-1.206 0.016-2.662 0.016-2.627 0.006-2.65 0.006-2.819 0.074-0.506 0.205-0.797 0.656-0.768 1.2 0.032 0.582 0.48 1.053 1.062 1.11 0.109 0.010 2.016 0.019 4.243 0.016 4.538-0.003 4.23 0.013 4.586-0.234 0.49-0.342 0.643-1.072 0.333-1.581-0.042-0.067-1.165-1.213-2.496-2.544-1.331-1.334-2.422-2.432-2.422-2.445s0.602-0.621 1.338-1.357l1.334-1.334 0.032 3.002 0.093 0.186c0.157 0.323 0.422 0.554 0.765 0.662 0.096 0.029 0.835 0.038 3.091 0.038 1.632 0 3.018-0.010 3.078-0.022 0.592-0.128 0.998-0.678 0.944-1.277-0.038-0.432-0.291-0.794-0.688-0.989l-0.211-0.102-4.685-0.019-0.019-3.885-0.099-0.208c-0.093-0.192-0.33-0.438-3.008-3.117-1.6-1.597-2.97-2.947-3.043-2.998-0.256-0.176-0.653-0.23-1.002-0.138z"></path>
</svg>
