<!-- Generated by IcoMoon.io -->
<svg version="1.1" xmlns="http://www.w3.org/2000/svg" width="32" height="32" viewBox="0 0 32 32">
<title>Scales</title>
<path fill="#ff7900" d="M6.669 4.048c-0.826 0.15-1.53 0.576-2.013 1.216-0.272 0.362-0.435 0.707-0.582 1.232-0.054 0.198-0.058 0.614-0.058 9.504v9.296l0.086 0.31c0.298 1.078 1.094 1.914 2.154 2.25 0.138 0.042 0.355 0.093 0.486 0.112 0.16 0.022 3.216 0.032 9.27 0.032 9.939 0 9.29 0.013 9.875-0.195 0.15-0.051 0.374-0.154 0.496-0.227 0.752-0.442 1.254-1.088 1.507-1.946l0.093-0.304 0.010-9.136c0.010-6.829 0-9.203-0.026-9.408-0.16-1.165-0.906-2.122-1.987-2.557-0.099-0.038-0.288-0.102-0.416-0.141l-0.237-0.070-9.216-0.003c-7.398-0.006-9.261 0-9.443 0.035zM17.168 6.461c1.651 0.202 3.235 0.774 4.544 1.645 0.182 0.122 0.781 0.56 0.816 0.598 0.010 0.010 0.109 0.096 0.224 0.189 0.685 0.576 1.712 1.744 1.878 2.141 0.112 0.266 0.035 0.646-0.176 0.854-0.051 0.051-0.323 0.227-0.602 0.387-0.282 0.163-1.056 0.611-1.725 0.998-1.587 0.915-1.459 0.851-1.728 0.851-0.294 0-0.422-0.067-0.688-0.368-0.317-0.362-0.442-0.48-0.723-0.707-0.666-0.534-1.478-0.883-2.358-1.011-0.307-0.042-1.171-0.022-1.478 0.038-1.066 0.205-1.978 0.707-2.672 1.469-0.371 0.41-0.458 0.483-0.624 0.538-0.237 0.074-0.438 0.048-0.704-0.096-0.122-0.067-0.64-0.365-1.152-0.659-0.509-0.294-1.219-0.704-1.574-0.909-0.858-0.493-0.912-0.534-1.018-0.752-0.077-0.154-0.086-0.208-0.074-0.4 0.010-0.198 0.026-0.24 0.16-0.442 0.422-0.637 1.318-1.597 1.994-2.134 0.41-0.326 1.018-0.733 1.478-0.992 0.566-0.32 1.472-0.698 2.058-0.864 0.096-0.026 0.256-0.074 0.352-0.099 0.192-0.054 0.698-0.16 0.928-0.192 0.080-0.010 0.166-0.026 0.192-0.032 0.067-0.016 0.352-0.051 0.656-0.080 0.355-0.032 1.667-0.013 2.016 0.029z"></path>
<path fill="#ff7900" d="M19.677 8.25c-0.17 0.138-0.774 0.614-1.344 1.062s-1.238 0.973-1.485 1.168c-0.246 0.195-0.554 0.438-0.685 0.538l-0.234 0.182 0.154 0.003c0.214 0 0.522 0.022 0.637 0.042 0.054 0.010 0.154 0.026 0.224 0.038 0.845 0.128 1.824 0.563 2.528 1.126 0.125 0.099 0.291 0.243 0.378 0.323l0.15 0.141v-2.438c0-1.338-0.003-2.435-0.006-2.432-0.006 0-0.147 0.112-0.317 0.246z"></path>
</svg>
