<!-- Generated by IcoMoon.io -->
<svg version="1.1" xmlns="http://www.w3.org/2000/svg" width="32" height="32" viewBox="0 0 32 32">
<title>scan_ticket</title>
<path fill="#ff7900" d="M9.226 2.445c-0.579 0.141-1.069 0.646-1.19 1.229-0.051 0.24-0.051 24.413 0 24.653 0.125 0.598 0.64 1.114 1.238 1.238 0.24 0.051 13.213 0.051 13.453 0 0.598-0.125 1.114-0.64 1.238-1.238 0.051-0.24 0.051-24.413 0-24.653-0.118-0.563-0.611-1.082-1.165-1.232-0.054-0.013-3.091-0.029-6.752-0.032-5.245-0.003-6.691 0.003-6.822 0.035zM17.398 3.264c0.115 0.070 0.202 0.211 0.202 0.336s-0.086 0.266-0.202 0.336c-0.096 0.061-0.17 0.064-1.392 0.064-1.424 0-1.421 0-1.542-0.202-0.115-0.189-0.058-0.416 0.138-0.534 0.096-0.061 0.17-0.064 1.398-0.064s1.302 0.003 1.398 0.064zM22.4 15.6v10.8h-12.8v-21.6h12.8v10.8zM16.4 27.309c0.39 0.23 0.512 0.749 0.266 1.12-0.112 0.17-0.221 0.256-0.413 0.323-0.608 0.214-1.222-0.394-1.005-1.005 0.086-0.246 0.282-0.442 0.522-0.518 0.16-0.051 0.47-0.013 0.63 0.080z"></path>
<path fill="#ff7900" d="M10.88 12.16v0.96h0.64v-1.28h1.28v-0.64h-1.92v0.96z"></path>
<path fill="#ff7900" d="M19.2 11.52v0.32h1.28v1.28h0.64v-1.92h-1.92v0.32z"></path>
<path fill="#ff7900" d="M12.48 15.040v2.24h0.64v-4.48h-0.64v2.24z"></path>
<path fill="#ff7900" d="M13.44 15.040v2.24h1.28v-4.48h-1.28v2.24z"></path>
<path fill="#ff7900" d="M15.36 15.040v2.24h0.64v-4.48h-0.64v2.24z"></path>
<path fill="#ff7900" d="M16.64 15.040v2.24h0.32v-4.48h-0.32v2.24z"></path>
<path fill="#ff7900" d="M17.28 15.040v2.24h0.64v-4.48h-0.64v2.24z"></path>
<path fill="#ff7900" d="M18.24 15.040v2.24h1.28v-4.48h-1.28v2.24z"></path>
<path fill="#ff7900" d="M10.88 17.92v0.96h1.92v-0.64h-1.28v-1.28h-0.64v0.96z"></path>
<path fill="#ff7900" d="M20.48 17.6v0.64h-1.28v0.64h1.92v-1.92h-0.64v0.64z"></path>
<path fill="#ff7900" d="M2.4 10.794v2.79l0.246 0.042c0.634 0.099 1.139 0.563 1.306 1.194 0.064 0.234 0.038 0.694-0.045 0.918-0.214 0.576-0.723 0.976-1.322 1.046l-0.186 0.022v5.594h4.8v-14.4h-4.8v2.794z"></path>
<path fill="#ff7900" d="M24.8 15.2v7.2h4.8v-5.6l-0.096-0.003c-0.051-0.003-0.106-0.006-0.118-0.010-0.016-0.003-0.083-0.016-0.15-0.032-0.662-0.131-1.232-0.838-1.235-1.53 0-0.8 0.573-1.475 1.357-1.6l0.243-0.042v-5.584h-4.8v7.2z"></path>
</svg>
