<!-- Generated by IcoMoon.io -->
<svg version="1.1" xmlns="http://www.w3.org/2000/svg" width="32" height="32" viewBox="0 0 32 32">
<title>School</title>
<path fill="#ff7900" d="M15.674 6.662c-0.339 0.269-1.699 1.354-1.786 1.424-0.026 0.022-0.458 0.371-0.96 0.771l-0.912 0.73-0.010 0.806-0.006 0.806-7.21 0.016-1.194 1.994-1.197 1.99v12h-0.8v0.8h28.8v-0.8h-0.8v-12l-1.197-1.99-1.194-1.994-7.21-0.016v-1.587l-0.086-0.080c-0.051-0.045-0.128-0.109-0.173-0.144-0.086-0.064-0.64-0.502-1.021-0.813-0.118-0.096-0.346-0.275-0.499-0.4-0.157-0.122-0.291-0.23-0.301-0.24-0.016-0.016-0.25-0.205-0.522-0.416-0.058-0.045-0.317-0.253-0.579-0.464s-0.55-0.445-0.646-0.518l-0.17-0.138-0.33 0.262zM16.528 12.093c1.075 0.381 1.418 1.738 0.653 2.576-0.288 0.317-0.63 0.483-1.053 0.518-0.742 0.064-1.35-0.349-1.664-1.123-0.022-0.054-0.045-0.234-0.051-0.4-0.006-0.25 0.003-0.346 0.064-0.534 0.179-0.547 0.614-0.96 1.146-1.082 0.269-0.061 0.662-0.042 0.906 0.045zM7.2 18.8v1.2h-2.4v-2.4h2.4v1.2zM12 18.8v1.2h-2.4v-2.4h2.4v1.2zM17.6 18.8v1.2h-3.2v-2.4h3.2v1.2zM22.4 18.8v1.2h-2.4v-2.4h2.4v1.2zM27.2 18.8v1.2h-2.4v-2.4h2.4v1.2zM7.2 23.6v1.2h-2.4v-2.4h2.4v1.2zM12 23.6v1.2h-2.4v-2.4h2.4v1.2zM16.342 22.445c0.595 0.128 1.098 0.634 1.222 1.229 0.022 0.112 0.035 0.749 0.035 1.846v1.68h-3.2v-1.68c0-1.101 0.013-1.734 0.035-1.846 0.061-0.294 0.211-0.566 0.442-0.797 0.403-0.403 0.909-0.55 1.466-0.432zM22.4 23.6v1.2h-2.4v-2.4h2.4v1.2zM27.2 23.6v1.2h-2.4v-2.4h2.4v1.2z"></path>
</svg>
