<!-- Generated by IcoMoon.io -->
<svg version="1.1" xmlns="http://www.w3.org/2000/svg" width="32" height="32" viewBox="0 0 32 32">
<title>Science</title>
<path fill="#ff7900" d="M10.115 3.254c-0.282 0.099-0.515 0.438-0.515 0.746 0 0.266 0.173 0.557 0.413 0.698 0.141 0.083 0.17 0.086 0.669 0.099l0.518 0.010v7.203l-0.278 0.467c-0.15 0.256-0.339 0.573-0.416 0.698-0.074 0.128-0.138 0.24-0.138 0.25s-0.029 0.058-0.061 0.106c-0.032 0.048-0.406 0.682-0.832 1.405-1.696 2.906-2.317 3.965-2.368 4.042-0.026 0.045-0.067 0.115-0.093 0.157-0.035 0.070-0.573 0.982-0.966 1.651-0.083 0.141-0.182 0.307-0.218 0.368s-0.253 0.435-0.486 0.832c-0.23 0.397-0.547 0.934-0.701 1.194-0.15 0.259-0.298 0.512-0.326 0.56s-0.102 0.173-0.163 0.278c-0.061 0.106-0.243 0.416-0.406 0.688-0.374 0.63-0.467 0.819-0.547 1.133-0.275 1.075 0.282 2.243 1.302 2.73 0.125 0.061 0.304 0.134 0.4 0.163 0.157 0.048 0.986 0.054 10.986 0.061 9.091 0.006 10.851 0 11.040-0.035 0.902-0.179 1.635-0.864 1.856-1.738 0.077-0.307 0.080-0.326 0.083-0.634 0-0.301-0.074-0.662-0.189-0.922-0.032-0.074-0.333-0.595-0.662-1.158s-0.72-1.226-0.864-1.472c-0.749-1.28-1.306-2.23-3.050-5.2-0.15-0.256-0.374-0.637-0.496-0.848-0.125-0.211-0.262-0.448-0.31-0.528s-0.317-0.534-0.592-1.008c-0.278-0.477-0.65-1.11-0.826-1.408-0.176-0.301-0.419-0.717-0.544-0.928s-0.294-0.499-0.381-0.643l-0.154-0.259v-7.206l0.506-0.010c0.461-0.010 0.515-0.016 0.659-0.090 0.63-0.323 0.55-1.254-0.128-1.459-0.128-0.038-1.024-0.045-5.866-0.042-5.091 0-5.731 0.006-5.856 0.051zM19.2 8.618v3.818l0.787 1.341c0.432 0.739 0.883 1.51 1.005 1.712 0.118 0.202 0.246 0.419 0.282 0.48s0.157 0.269 0.269 0.464c0.115 0.192 0.406 0.691 0.65 1.104 0.24 0.413 0.451 0.765 0.467 0.784 0.016 0.016 0.029 0.042 0.029 0.054s-0.486 0.026-1.082 0.026h-1.082l-0.058-0.115c-0.237-0.496-0.845-1.050-1.402-1.27-0.413-0.166-0.582-0.198-1.082-0.195-0.41 0.003-0.496 0.013-0.752 0.090-0.698 0.211-1.366 0.739-1.667 1.315l-0.093 0.176h-3.078c-1.696 0-3.082-0.013-3.082-0.026s0.013-0.038 0.029-0.054c0.026-0.029 0.797-1.334 1.44-2.442 0.115-0.198 0.234-0.4 0.262-0.448s0.275-0.47 0.55-0.938c0.272-0.467 0.656-1.12 0.851-1.45l0.355-0.602v-7.642h6.4v3.818z"></path>
<path fill="#ff7900" d="M16.048 8.054c-0.33 0.106-0.57 0.317-0.73 0.65-0.093 0.186-0.102 0.237-0.102 0.496 0 0.256 0.013 0.31 0.102 0.496 0.224 0.464 0.582 0.688 1.098 0.688 0.24 0 0.298-0.013 0.48-0.099 0.339-0.166 0.55-0.41 0.653-0.755 0.214-0.739-0.314-1.478-1.088-1.514-0.173-0.010-0.304 0.003-0.413 0.038z"></path>
<path fill="#ff7900" d="M15.117 12.064c-0.746 0.195-1.315 0.784-1.466 1.514-0.099 0.477-0.045 0.89 0.179 1.334 0.605 1.2 2.227 1.453 3.178 0.496 0.778-0.784 0.787-2.019 0.022-2.794-0.506-0.515-1.245-0.726-1.914-0.55z"></path>
</svg>
