<!-- Generated by IcoMoon.io -->
<svg version="1.1" xmlns="http://www.w3.org/2000/svg" width="32" height="32" viewBox="0 0 32 32">
<title>Scissors</title>
<path fill="#ff7900" d="M6.624 4.832c-0.301 0.035-0.838 0.173-1.136 0.285-1.622 0.627-2.774 2.061-3.037 3.786-0.048 0.298-0.048 1.165-0.003 1.402 0.115 0.608 0.237 0.992 0.451 1.418 0.358 0.717 0.851 1.302 1.475 1.754 0.144 0.106 1.178 0.714 2.294 1.354 1.494 0.854 2.026 1.171 1.997 1.197-0.022 0.016-0.093 0.061-0.154 0.093-0.061 0.035-0.451 0.259-0.864 0.496s-0.816 0.467-0.896 0.512c-0.925 0.515-2.179 1.254-2.381 1.395-0.966 0.694-1.667 1.814-1.894 3.030-0.090 0.467-0.080 1.35 0.016 1.789 0.419 1.942 1.837 3.354 3.773 3.766 0.394 0.086 1.21 0.109 1.606 0.045 2.058-0.32 3.613-1.795 4.032-3.824 0.093-0.442 0.115-1.206 0.045-1.616-0.134-0.819-0.422-1.526-0.87-2.138-0.067-0.093-0.131-0.182-0.144-0.205-0.016-0.022 0.080-0.093 0.256-0.192 0.157-0.086 0.339-0.192 0.41-0.23 0.285-0.163 2.637-1.51 3.76-2.154 0.659-0.378 1.264-0.723 1.344-0.768 0.307-0.173 1.843-1.053 1.888-1.082 0.026-0.016 0.093-0.054 0.144-0.083 0.054-0.029 0.694-0.397 1.427-0.816s1.379-0.787 1.44-0.822c0.061-0.035 1.059-0.605 2.221-1.27s2.163-1.238 2.224-1.274c0.061-0.035 0.307-0.173 0.544-0.31s0.483-0.275 0.544-0.31c0.618-0.349 3.222-1.846 3.242-1.862 0.026-0.026-0.224-0.4-0.432-0.646-0.147-0.176-0.557-0.531-0.8-0.694-0.733-0.496-1.754-0.742-2.659-0.64-0.618 0.070-1.062 0.23-1.766 0.634-0.176 0.102-0.378 0.218-0.448 0.256-0.102 0.058-2 1.142-4.048 2.314-0.186 0.109-0.429 0.246-0.544 0.31s-0.854 0.49-1.648 0.944c-0.79 0.454-1.482 0.848-1.536 0.88-0.051 0.029-0.922 0.525-1.93 1.101l-1.83 1.050-0.915-0.518c-0.89-0.509-0.909-0.522-0.861-0.589 0.726-1.014 1.056-1.974 1.037-3.040-0.042-2.32-1.622-4.202-3.933-4.678-0.272-0.058-1.123-0.083-1.44-0.045zM7.552 7.232c0.298 0.051 0.349 0.064 0.506 0.125 0.986 0.39 1.61 1.37 1.53 2.41-0.061 0.848-0.56 1.597-1.315 1.987-0.141 0.070-0.49 0.182-0.656 0.208-0.275 0.042-0.774 0.022-1.008-0.038-0.838-0.221-1.507-0.883-1.731-1.715-0.064-0.246-0.086-0.774-0.042-1.024 0.144-0.778 0.672-1.446 1.408-1.786 0.374-0.17 0.902-0.24 1.309-0.166zM7.718 20.064c1.091 0.24 1.862 1.19 1.875 2.307 0.013 1.104-0.701 2.042-1.786 2.352-0.285 0.080-0.922 0.080-1.216 0-1.418-0.39-2.166-1.914-1.597-3.258 0.445-1.059 1.597-1.651 2.723-1.402z"></path>
<path fill="#ff7900" d="M17.424 16.538c-0.054 0.029-0.16 0.093-0.24 0.138-0.080 0.048-0.195 0.115-0.256 0.147-0.323 0.182-3.347 1.91-3.36 1.92-0.010 0.010 0.006 0.029 0.032 0.045 0.064 0.038 4.714 2.704 4.896 2.806 0.080 0.045 0.886 0.506 1.792 1.024 1.709 0.979 2.464 1.411 2.656 1.52 0.061 0.032 0.291 0.166 0.512 0.294 0.221 0.125 0.464 0.266 0.544 0.31s0.352 0.202 0.608 0.346c0.582 0.333 0.845 0.458 1.2 0.56 1.651 0.477 3.453-0.157 4.41-1.552l0.186-0.272-0.070-0.048c-0.038-0.026-0.15-0.093-0.25-0.147s-1.13-0.643-2.291-1.309c-1.162-0.666-2.205-1.264-2.32-1.328s-1.258-0.72-2.544-1.456c-1.283-0.736-2.387-1.366-2.448-1.402-0.106-0.058-0.291-0.163-0.768-0.442-1.13-0.65-2.128-1.213-2.157-1.21-0.019 0-0.080 0.026-0.131 0.054z"></path>
</svg>
