<!-- Generated by IcoMoon.io -->
<svg version="1.1" xmlns="http://www.w3.org/2000/svg" width="32" height="32" viewBox="0 0 32 32">
<title>SD_card_1</title>
<path fill="#ff7900" d="M9.776 3.277c-0.317 0.106-0.499 0.218-0.701 0.438-0.202 0.218-0.352 0.506-0.4 0.778-0.026 0.131-0.035 1.699-0.035 5.053 0 3.843-0.010 4.867-0.038 4.899-0.061 0.061-0.765 0.813-0.854 0.912-0.042 0.045-0.157 0.17-0.256 0.275s-0.387 0.413-0.637 0.678l-0.458 0.49 0.013 4.662c0.010 4.365 0.013 4.678 0.067 4.858 0.109 0.371 0.15 0.483 0.278 0.73 0.381 0.752 1.066 1.341 1.843 1.584 0.541 0.173 0.176 0.163 7.418 0.163 6.541 0 6.726 0 7.008-0.061 0.656-0.141 1.171-0.416 1.622-0.867 0.416-0.413 0.701-0.912 0.867-1.517l0.070-0.256v-10.8c0-10.304-0.003-10.81-0.058-10.982-0.166-0.522-0.659-0.966-1.2-1.078-0.122-0.026-2.198-0.035-7.248-0.035l-7.078 0.003-0.224 0.074zM13.12 7.92v2.8h-2.56v-5.6h2.56v2.8zM16.64 7.92v2.8h-2.56v-5.6h2.56v2.8zM20.16 7.92v2.8h-2.56v-5.6h2.56v2.8zM23.68 7.92v2.8h-2.56v-5.6h2.56v2.8z"></path>
</svg>
