<!-- Generated by IcoMoon.io -->
<svg version="1.1" xmlns="http://www.w3.org/2000/svg" width="32" height="32" viewBox="0 0 32 32">
<title>sd_card</title>
<path fill="#ff7900" d="M7.19 4.8l-2.39 2.394v10.509c0 8.797 0.010 10.531 0.045 10.672 0.154 0.573 0.592 1.024 1.136 1.168 0.198 0.051 0.829 0.054 9.574 0.054 6.592 0.003 9.418-0.006 9.552-0.032 0.525-0.096 0.982-0.486 1.206-1.027l0.070-0.17 0.010-12.256c0.006-9.456 0-12.298-0.029-12.432-0.134-0.618-0.634-1.12-1.238-1.245-0.122-0.026-2.362-0.035-7.856-0.032h-7.686l-2.394 2.397zM12 6.4v2.4h-2.4v-4.8h2.4v2.4zM15.2 6.4v2.4h-2.4l0.003-2.4v-2.4h2.397v2.4zM18.4 6.4v2.4h-2.4v-4.8h2.4v2.4zM21.6 6.4v2.4h-2.4v-4.8h2.4v2.4zM24.8 6.4v2.4h-2.4v-4.8h2.4v2.4zM8.8 9.6v2.4h-2.4v-4.8h2.4v2.4z"></path>
</svg>
