<!-- Generated by IcoMoon.io -->
<svg version="1.1" xmlns="http://www.w3.org/2000/svg" width="32" height="32" viewBox="0 0 32 32">
<title>search</title>
<path fill="#ff7900" d="M12.573 3.213c-0.006 0.006-0.134 0.019-0.285 0.032-0.678 0.051-1.533 0.23-2.243 0.467-2.778 0.925-5.014 3.024-6.118 5.744-0.467 1.155-0.691 2.275-0.71 3.584-0.016 1.011 0.064 1.712 0.291 2.618 0.506 2.013 1.648 3.834 3.261 5.197 1.005 0.851 2.23 1.517 3.504 1.907 0.544 0.166 1.222 0.31 1.68 0.358 0.106 0.013 0.227 0.029 0.272 0.038 0.208 0.038 1.517 0.035 1.923-0.006 1.69-0.17 3.222-0.714 4.582-1.622l0.282-0.189 3.661 3.661c2.304 2.304 3.706 3.683 3.782 3.722 0.176 0.086 0.528 0.080 0.698-0.010 0.147-0.077 1.456-1.376 1.558-1.546s0.109-0.486 0.013-0.691c-0.061-0.128-0.739-0.822-3.728-3.811l-3.654-3.654 0.189-0.282c0.845-1.264 1.421-2.813 1.59-4.282 0.010-0.090 0.032-0.269 0.048-0.4 0.029-0.253 0.016-1.654-0.016-1.872-0.010-0.070-0.042-0.278-0.067-0.464-0.445-3.174-2.512-6.006-5.443-7.469-0.97-0.483-2.131-0.838-3.162-0.963-0.086-0.010-0.211-0.026-0.272-0.035-0.125-0.019-1.616-0.048-1.635-0.032zM14.064 6.448c1.568 0.237 2.867 0.877 3.936 1.949 1.078 1.082 1.731 2.406 1.952 3.955 0.035 0.259 0.045 1.322 0.013 1.584-0.141 1.142-0.502 2.118-1.126 3.056-1.088 1.635-2.922 2.752-4.864 2.966-0.298 0.032-1.283 0.032-1.574-0.003-0.771-0.086-1.738-0.394-2.416-0.765-1.99-1.091-3.334-3.088-3.546-5.27-0.042-0.435-0.022-1.338 0.035-1.712 0.346-2.246 1.702-4.102 3.728-5.104 0.758-0.374 1.523-0.592 2.406-0.682 0.163-0.016 1.306 0.003 1.456 0.026z"></path>
</svg>
