<!-- Generated by IcoMoon.io -->
<svg version="1.1" xmlns="http://www.w3.org/2000/svg" width="32" height="32" viewBox="0 0 32 32">
<title>Send</title>
<path fill="#ff7900" d="M2.413 2.454c0.010 0.032 0.083 0.301 0.163 0.602 0.179 0.678 0.24 0.899 0.4 1.504 0.070 0.262 0.16 0.595 0.195 0.736 0.038 0.141 0.096 0.349 0.128 0.464s0.099 0.374 0.154 0.576c0.051 0.202 0.125 0.48 0.16 0.614 0.038 0.138 0.096 0.362 0.131 0.496 0.122 0.464 0.39 1.466 0.448 1.674 0.067 0.243 0.134 0.496 0.352 1.318 0.090 0.333 0.234 0.87 0.32 1.2 0.090 0.333 0.218 0.816 0.288 1.082 0.342 1.286 0.445 1.654 0.458 1.667s0.57 0.070 1.526 0.157c0.115 0.013 0.41 0.042 0.656 0.067 0.39 0.038 1.053 0.099 1.696 0.157 0.106 0.010 0.256 0.026 0.336 0.032 0.080 0.010 0.218 0.022 0.304 0.032 0.090 0.010 0.224 0.022 0.304 0.032 0.080 0.006 0.246 0.022 0.368 0.032 0.125 0.010 0.282 0.026 0.352 0.032 0.070 0.010 0.301 0.029 0.512 0.048s0.435 0.042 0.496 0.048c0.061 0.006 0.198 0.019 0.304 0.029 0.234 0.022 1.411 0.134 1.872 0.179 0.48 0.048 0.595 0.058 0.864 0.080 0.131 0.010 0.285 0.026 0.336 0.032 0.054 0.006 0.189 0.022 0.304 0.032s0.266 0.026 0.336 0.032c0.141 0.016 1.424 0.134 1.728 0.16 0.106 0.010 0.256 0.026 0.336 0.035 0.246 0.032 0.298 0.038 0.592 0.061 0.16 0.010 0.323 0.026 0.368 0.032s0.269 0.029 0.496 0.048c0.23 0.019 0.461 0.042 0.512 0.048 0.054 0.006 0.218 0.022 0.368 0.032s0.304 0.026 0.339 0.032c0.038 0.010 0.176 0.022 0.304 0.032 0.131 0.010 0.282 0.022 0.333 0.032 0.054 0.006 0.23 0.022 0.394 0.035 0.16 0.010 0.294 0.032 0.294 0.045 0 0.010-0.019 0.022-0.038 0.022-0.086 0.003-0.557 0.045-0.634 0.058-0.045 0.006-0.195 0.022-0.336 0.032s-0.307 0.026-0.368 0.032c-0.128 0.016-0.336 0.038-0.64 0.064-0.115 0.010-0.346 0.032-0.512 0.048s-0.397 0.038-0.512 0.048c-0.115 0.010-0.259 0.026-0.32 0.032s-0.291 0.029-0.512 0.048c-0.221 0.019-0.451 0.042-0.512 0.048s-0.198 0.019-0.304 0.029c-0.294 0.029-1.197 0.112-1.36 0.131-0.080 0.006-0.301 0.029-0.496 0.048-0.192 0.019-0.419 0.042-0.499 0.048-0.080 0.010-0.323 0.029-0.544 0.048-0.218 0.019-0.432 0.042-0.477 0.048s-0.208 0.022-0.368 0.035c-0.157 0.010-0.314 0.026-0.346 0.032s-0.17 0.019-0.304 0.029c-0.134 0.010-0.298 0.026-0.358 0.032-0.061 0.010-0.211 0.022-0.336 0.032-0.122 0.010-0.259 0.026-0.304 0.032s-0.195 0.022-0.336 0.032c-0.141 0.010-0.291 0.026-0.336 0.032s-0.189 0.022-0.32 0.032c-0.131 0.010-0.291 0.026-0.352 0.032s-0.285 0.029-0.496 0.048c-0.211 0.019-0.442 0.042-0.512 0.048-0.070 0.010-0.285 0.029-0.48 0.048-0.49 0.042-1.693 0.154-1.904 0.176-0.173 0.019-0.234 0.026-0.64 0.064-0.115 0.013-0.266 0.026-0.336 0.032s-0.227 0.022-0.352 0.032c-0.317 0.029-0.474 0.048-0.49 0.064-0.013 0.013-0.419 1.517-0.71 2.624-0.070 0.269-0.432 1.622-1.085 4.064-0.262 0.986-0.56 2.102-0.659 2.48-0.102 0.378-0.304 1.133-0.448 1.68s-0.272 1.024-0.282 1.062c-0.013 0.058 2.448-1.162 13.565-6.72 7.469-3.734 13.581-6.797 13.581-6.806s-6.115-3.072-13.587-6.81c-9.184-4.592-13.581-6.774-13.568-6.736z"></path>
</svg>
