<!-- Generated by IcoMoon.io -->
<svg version="1.1" xmlns="http://www.w3.org/2000/svg" width="32" height="32" viewBox="0 0 32 32">
<title>Send_to_person</title>
<path fill="#ff7900" d="M15.091 2.435c-2.301 0.365-4.106 1.971-4.723 4.205-0.17 0.614-0.23 1.562-0.144 2.227 0.294 2.278 1.981 4.23 4.157 4.81 0.608 0.163 0.976 0.211 1.594 0.211 0.41 0.003 0.496-0.006 0.97-0.083 1.904-0.317 3.571-1.654 4.326-3.469 0.81-1.946 0.48-4.192-0.858-5.84-0.778-0.963-1.965-1.709-3.123-1.971-0.707-0.157-1.552-0.192-2.198-0.090z"></path>
<path fill="#ff7900" d="M10.589 13.635c-0.704 0.426-1.53 1.162-2.003 1.789-0.867 1.149-1.328 2.355-1.466 3.824-0.006 0.070-0.013 0.269-0.013 0.438l-0.003 0.314h-0.934c-0.723 0-0.986 0.013-1.142 0.048-0.595 0.141-1.040 0.534-1.267 1.12-0.061 0.15-0.064 0.25-0.064 1.824 0 1.555 0.003 1.677 0.061 1.84 0.192 0.554 0.595 0.95 1.162 1.142 0.125 0.042 0.339 0.054 1.171 0.064l1.014 0.013 0.003 0.278c0 0.368 0.019 0.512 0.109 0.854 0.237 0.902 0.835 1.645 1.67 2.070 0.154 0.080 0.362 0.166 0.458 0.198 0.502 0.15 0.176 0.144 8.026 0.147h7.366l-0.003-5.126c-0.003-5.366-0.003-5.434-0.141-6.109-0.387-1.888-1.517-3.542-3.152-4.611-0.186-0.122-0.368-0.227-0.41-0.24-0.054-0.013-0.115 0.019-0.25 0.138-1.344 1.168-3.018 1.805-4.765 1.818-1.277 0.006-2.31-0.23-3.414-0.784-0.512-0.256-1.194-0.717-1.546-1.043-0.195-0.182-0.173-0.182-0.467-0.006zM13.146 21.466c0.989 0.979 1.014 1.018 1.014 1.494-0.003 0.522 0.115 0.378-2.256 2.746l-2.080 2.074v-2.595h-2.256c-2.17 0-2.259-0.003-2.422-0.064-0.202-0.077-0.41-0.269-0.512-0.474-0.074-0.15-0.074-0.157-0.083-1.648l-0.010-1.501 0.077-0.163c0.093-0.198 0.234-0.346 0.435-0.445l0.147-0.074 4.624-0.019v-2.627l1.242 1.232c0.682 0.678 1.616 1.606 2.080 2.064z"></path>
</svg>
