<!-- Generated by IcoMoon.io -->
<svg version="1.1" xmlns="http://www.w3.org/2000/svg" width="32" height="32" viewBox="0 0 32 32">
<title>servers</title>
<path fill="#ff7900" d="M2.915 4.854c-0.080 0.029-0.202 0.112-0.278 0.189-0.246 0.256-0.237 0.128-0.237 2.96 0 2.736-0.006 2.653 0.179 2.896 0.048 0.061 0.154 0.15 0.234 0.198l0.147 0.086 12.976 0.010c11.757 0.006 12.989 0.003 13.126-0.045 0.205-0.067 0.416-0.275 0.483-0.477 0.048-0.141 0.054-0.413 0.054-2.675 0-2.736 0.006-2.653-0.179-2.896-0.048-0.061-0.154-0.15-0.234-0.198l-0.147-0.086-12.992-0.006c-11.718-0.003-13.005 0-13.133 0.045zM6.141 6.496c0.346 0.134 0.717 0.445 0.858 0.717 0.339 0.659 0.234 1.405-0.275 1.907-0.515 0.512-1.251 0.621-1.891 0.285-0.365-0.192-0.71-0.659-0.797-1.078-0.173-0.832 0.365-1.68 1.19-1.882 0.24-0.058 0.704-0.032 0.915 0.051zM21.965 7.296c0.614 0.314 0.55 1.226-0.102 1.459-0.096 0.035-1.274 0.042-6.25 0.045-6.899 0-6.317 0.022-6.576-0.246-0.17-0.176-0.253-0.4-0.227-0.634 0.022-0.208 0.086-0.336 0.25-0.496 0.246-0.237-0.291-0.221 6.573-0.214l6.176 0.006 0.157 0.080zM25.152 7.28c0.16 0.083 0.339 0.285 0.394 0.442 0.061 0.186 0.051 0.483-0.022 0.624-0.214 0.413-0.736 0.57-1.126 0.342-0.576-0.339-0.496-1.2 0.134-1.44 0.154-0.058 0.48-0.042 0.621 0.032zM27.472 7.254c0.47 0.16 0.672 0.758 0.394 1.174-0.115 0.176-0.237 0.269-0.432 0.326-0.192 0.058-0.317 0.058-0.506-0.010-0.47-0.16-0.672-0.758-0.394-1.174 0.214-0.326 0.566-0.445 0.938-0.317z"></path>
<path fill="#ff7900" d="M2.915 12.854c-0.077 0.029-0.202 0.112-0.275 0.186-0.25 0.25-0.24 0.125-0.24 2.963 0 2.736-0.006 2.653 0.179 2.896 0.048 0.061 0.154 0.15 0.234 0.198l0.147 0.086 12.96 0.010c9.853 0.006 12.992 0 13.098-0.029 0.192-0.054 0.371-0.192 0.477-0.371l0.090-0.154 0.010-2.573c0.010-2.902 0.019-2.765-0.234-3.024-0.259-0.269 1.104-0.243-13.389-0.24-11.613 0-12.928 0.006-13.056 0.051zM6.077 14.48c0.954 0.304 1.386 1.341 0.941 2.256-0.118 0.243-0.451 0.566-0.717 0.698-0.618 0.301-1.338 0.179-1.824-0.31-0.637-0.637-0.637-1.61 0-2.246 0.435-0.435 1.021-0.579 1.6-0.397zM21.866 15.251c0.211 0.070 0.416 0.278 0.486 0.493 0.106 0.317 0 0.688-0.25 0.877-0.25 0.192 0.176 0.179-6.499 0.179-6.848 0-6.304 0.019-6.554-0.23-0.189-0.189-0.259-0.381-0.237-0.63 0.019-0.237 0.122-0.432 0.291-0.56 0.243-0.186-0.17-0.176 6.483-0.176 5.533-0.003 6.144 0.003 6.278 0.048zM25.181 15.302c0.669 0.346 0.474 1.389-0.275 1.485-0.774 0.096-1.21-0.858-0.637-1.392 0.211-0.198 0.624-0.24 0.912-0.093zM27.459 15.248c0.298 0.106 0.499 0.358 0.531 0.662 0.077 0.746-0.822 1.178-1.35 0.65-0.355-0.355-0.304-0.928 0.109-1.213 0.211-0.147 0.47-0.182 0.71-0.099z"></path>
<path fill="#ff7900" d="M2.915 20.854c-0.192 0.067-0.397 0.282-0.464 0.48-0.048 0.141-0.051 0.41-0.045 2.717l0.010 2.56 0.083 0.157c0.093 0.182 0.294 0.352 0.474 0.4 0.083 0.022 4.243 0.029 13.094 0.026l12.973-0.010 0.147-0.086c0.080-0.048 0.186-0.138 0.234-0.198 0.186-0.243 0.179-0.16 0.179-2.88 0-1.373-0.016-2.557-0.032-2.624-0.038-0.176-0.189-0.371-0.368-0.483l-0.154-0.096-12.995-0.006c-11.709-0.003-13.008 0-13.136 0.045zM6.112 22.49c0.269 0.096 0.454 0.214 0.63 0.4 0.618 0.653 0.608 1.606-0.019 2.234-0.544 0.544-1.392 0.627-2.013 0.198-0.605-0.416-0.851-1.158-0.614-1.846 0.17-0.493 0.582-0.877 1.107-1.027 0.211-0.064 0.678-0.042 0.909 0.042zM21.875 23.251c0.65 0.272 0.704 1.139 0.090 1.453l-0.157 0.080-6.16 0.010c-6.883 0.006-6.349 0.026-6.595-0.221-0.16-0.16-0.221-0.288-0.243-0.493-0.026-0.237 0.058-0.47 0.23-0.64 0.253-0.256-0.31-0.234 6.563-0.237 5.555-0.003 6.16 0.003 6.272 0.048zM25.059 23.248c0.298 0.106 0.486 0.342 0.525 0.659 0.029 0.227-0.019 0.397-0.157 0.579-0.336 0.442-1.034 0.397-1.315-0.083-0.368-0.63 0.259-1.395 0.947-1.155zM27.459 23.248c0.192 0.067 0.333 0.186 0.435 0.362 0.077 0.128 0.090 0.186 0.090 0.39s-0.016 0.266-0.090 0.39c-0.166 0.285-0.464 0.435-0.79 0.397-0.445-0.054-0.746-0.445-0.691-0.896 0.064-0.493 0.573-0.81 1.046-0.643z"></path>
</svg>
