<!-- Generated by IcoMoon.io -->
<svg version="1.1" xmlns="http://www.w3.org/2000/svg" width="32" height="32" viewBox="0 0 32 32">
<title>settings</title>
<path fill="#ff7900" d="M12.048 3.040c-0.515 0.109-1.178 0.355-1.856 0.688-1.098 0.541-1.469 1.002-1.331 1.648 0.019 0.093 0.109 0.352 0.202 0.573 0.211 0.522 0.282 0.794 0.285 1.091 0.003 0.509-0.256 1.018-0.79 1.549-0.541 0.541-1.034 0.787-1.565 0.787-0.288 0-0.531-0.061-0.928-0.224-0.752-0.317-1.040-0.355-1.373-0.195-0.336 0.163-0.704 0.643-1.043 1.357-0.474 0.998-0.704 1.776-0.691 2.346 0.013 0.563 0.221 0.803 0.976 1.117 0.573 0.24 0.746 0.342 0.992 0.573 0.387 0.368 0.547 0.858 0.55 1.658 0 0.576-0.058 0.886-0.243 1.258-0.224 0.451-0.557 0.701-1.344 1.008-0.736 0.291-0.979 0.621-0.934 1.274 0.067 0.934 0.813 2.678 1.402 3.277 0.211 0.211 0.432 0.323 0.675 0.339 0.237 0.019 0.387-0.022 0.954-0.25 0.256-0.102 0.509-0.195 0.56-0.205 0.054-0.010 0.131-0.029 0.176-0.038 0.099-0.019 0.467-0.019 0.573 0.003 0.413 0.080 0.848 0.352 1.293 0.8 0.506 0.512 0.752 1.002 0.762 1.501 0.003 0.339-0.064 0.589-0.358 1.283-0.122 0.291-0.134 0.346-0.138 0.608-0.003 0.243 0.010 0.314 0.077 0.445 0.205 0.416 0.81 0.832 1.84 1.261 1.459 0.608 2.266 0.637 2.666 0.093 0.134-0.179 0.157-0.227 0.371-0.739 0.31-0.742 0.598-1.053 1.158-1.258 0.557-0.202 1.533-0.192 2.083 0.016 0.547 0.208 0.819 0.525 1.162 1.35 0.272 0.653 0.435 0.848 0.813 0.966 0.515 0.16 1.437-0.064 2.666-0.646 0.717-0.339 1.194-0.707 1.354-1.040 0.157-0.323 0.125-0.614-0.134-1.232-0.237-0.566-0.266-0.682-0.266-1.088 0.003-0.33 0.010-0.39 0.093-0.592 0.301-0.733 1.158-1.523 1.853-1.702 0.416-0.106 0.714-0.058 1.494 0.253 0.467 0.186 0.512 0.198 0.768 0.198 0.227 0.003 0.298-0.010 0.432-0.077 0.342-0.17 0.688-0.621 1.024-1.325 0.451-0.941 0.688-1.693 0.707-2.234 0.016-0.445-0.090-0.72-0.352-0.928-0.166-0.131-0.205-0.154-0.787-0.403-0.733-0.314-0.954-0.518-1.251-1.162-0.067-0.15-0.131-0.624-0.131-0.989-0.003-1.072 0.317-1.68 1.069-2.042 0.112-0.054 0.346-0.157 0.522-0.23 0.701-0.294 0.896-0.522 0.934-1.069 0.035-0.534-0.282-1.578-0.765-2.528-0.442-0.864-0.842-1.261-1.312-1.293-0.234-0.019-0.39 0.022-0.89 0.224-0.525 0.214-0.79 0.282-1.088 0.282-0.531 0-1.018-0.253-1.581-0.819-0.368-0.368-0.595-0.726-0.704-1.101-0.054-0.186-0.074-0.56-0.035-0.72 0.051-0.218 0.147-0.496 0.266-0.784 0.189-0.445 0.24-0.65 0.224-0.877-0.016-0.25-0.115-0.454-0.326-0.672-0.256-0.262-0.474-0.403-1.091-0.704-1.123-0.55-2.064-0.8-2.592-0.691-0.454 0.093-0.624 0.288-0.96 1.104-0.134 0.326-0.259 0.56-0.397 0.73-0.346 0.435-0.934 0.662-1.731 0.669-1.005 0.006-1.613-0.269-1.981-0.896-0.070-0.118-0.202-0.394-0.291-0.614-0.093-0.221-0.218-0.477-0.278-0.57-0.282-0.419-0.72-0.541-1.434-0.39zM17.168 9.741c1.034 0.195 2.003 0.64 2.832 1.299 0.307 0.246 0.842 0.784 1.059 1.072 0.691 0.906 1.13 1.958 1.29 3.104 0.058 0.41 0.045 1.427-0.022 1.811-0.25 1.411-0.861 2.595-1.837 3.555-1.024 1.011-2.23 1.597-3.706 1.802-0.304 0.042-1.354 0.045-1.552 0.006-0.045-0.010-0.189-0.035-0.32-0.054-0.762-0.122-1.578-0.432-2.304-0.883-0.243-0.15-0.682-0.467-0.787-0.57-0.019-0.019-0.106-0.102-0.192-0.182-0.515-0.477-1.024-1.158-1.338-1.779-0.464-0.934-0.685-1.85-0.685-2.874 0.003-1.443 0.458-2.79 1.334-3.936 0.205-0.272 0.742-0.819 1.027-1.050 0.912-0.736 2.045-1.222 3.216-1.379 0.55-0.074 1.424-0.048 1.984 0.058z"></path>
</svg>
