<!-- Generated by IcoMoon.io -->
<svg version="1.1" xmlns="http://www.w3.org/2000/svg" width="32" height="32" viewBox="0 0 32 32">
<title>setup_and_repair_cog</title>
<path fill="#ff7900" d="M15.638 2.451c-0.003 0.003-0.134 0.013-0.294 0.022-0.803 0.054-1.334 0.234-1.597 0.538-0.186 0.218-0.214 0.349-0.243 1.117-0.035 0.918-0.109 1.168-0.445 1.542-0.448 0.502-1.44 0.928-2.141 0.925-0.547-0.003-0.867-0.163-1.446-0.723-0.608-0.586-0.73-0.659-1.085-0.662-0.509-0.003-1.104 0.374-1.994 1.267-0.826 0.829-1.219 1.475-1.19 1.962 0.019 0.291 0.138 0.486 0.592 0.954 0.634 0.656 0.8 0.973 0.8 1.52 0 0.429-0.122 0.88-0.378 1.392-0.339 0.672-0.691 0.979-1.322 1.152-0.045 0.013-0.39 0.032-0.768 0.045-0.576 0.022-0.714 0.035-0.842 0.090-0.608 0.246-0.845 0.97-0.832 2.56 0.013 1.482 0.275 2.189 0.886 2.371 0.15 0.045 0.32 0.061 0.723 0.067 0.618 0.010 0.714 0.019 0.998 0.102 0.266 0.080 0.538 0.253 0.742 0.477l0.157 0.166 1.088-1.088c0.81-0.813 1.082-1.104 1.066-1.142-0.061-0.16-0.086-1.226-0.042-1.76 0.013-0.16 0.051-0.454 0.086-0.656 0.275-1.622 1.050-3.123 2.198-4.272 1.283-1.28 2.81-2.042 4.618-2.304 0.781-0.112 1.869-0.077 2.624 0.083 1.082 0.23 1.952 0.589 2.832 1.165 0.496 0.326 0.835 0.608 1.28 1.053 1.28 1.286 2.048 2.877 2.269 4.691 0.048 0.378 0.058 1.45 0.019 1.744-0.016 0.106-0.035 0.262-0.048 0.352-0.067 0.566-0.282 1.325-0.547 1.958-0.8 1.914-2.394 3.494-4.323 4.278-0.765 0.314-1.498 0.49-2.378 0.579-0.205 0.019-1.117 0.022-1.28 0.003-0.061-0.006-0.205-0.022-0.317-0.035l-0.208-0.019-2.15 2.15 0.227 0.23c0.403 0.406 0.518 0.755 0.528 1.603 0.003 0.55 0.013 0.65 0.086 0.851 0.070 0.195 0.147 0.301 0.32 0.432 0.355 0.272 1.075 0.413 2.106 0.413 1.261-0.003 1.926-0.154 2.285-0.522 0.237-0.24 0.262-0.346 0.291-1.155 0.019-0.557 0.035-0.73 0.090-0.912 0.182-0.605 0.678-1.040 1.558-1.37 0.493-0.186 0.995-0.234 1.37-0.134 0.358 0.093 0.538 0.218 1.101 0.755 0.518 0.496 0.675 0.586 1.024 0.579 0.499-0.006 1.082-0.381 1.958-1.258 1.107-1.11 1.427-1.853 1.043-2.435-0.048-0.070-0.262-0.314-0.477-0.534-0.47-0.49-0.669-0.797-0.739-1.152-0.035-0.166-0.016-0.611 0.029-0.813 0.125-0.541 0.426-1.168 0.717-1.491 0.371-0.419 0.749-0.579 1.414-0.598 1.056-0.035 1.178-0.058 1.418-0.269 0.224-0.198 0.416-0.653 0.483-1.152 0.070-0.502 0.080-1.542 0.022-2.064-0.074-0.666-0.25-1.139-0.502-1.35-0.269-0.227-0.355-0.243-1.421-0.278-0.506-0.016-0.749-0.080-1.043-0.269-0.301-0.195-0.531-0.477-0.749-0.918-0.294-0.605-0.39-0.938-0.39-1.402 0-0.528 0.176-0.864 0.774-1.478 0.394-0.406 0.506-0.557 0.576-0.768 0.182-0.55-0.179-1.219-1.222-2.259-0.931-0.928-1.606-1.296-2.128-1.162-0.25 0.064-0.368 0.147-0.822 0.586-0.64 0.614-0.931 0.771-1.472 0.778-0.688 0.006-1.686-0.406-2.125-0.883-0.346-0.374-0.451-0.669-0.474-1.299-0.032-1.046-0.058-1.168-0.262-1.411-0.24-0.278-0.752-0.461-1.494-0.528-0.186-0.016-1.194-0.038-1.21-0.026z"></path>
<path fill="#ff7900" d="M15.898 9.651c-0.006 0.003-0.118 0.013-0.253 0.016-0.243 0.006-0.806 0.086-1.101 0.157-0.618 0.147-1.459 0.512-1.984 0.861-2.24 1.485-3.306 4.061-2.768 6.688l0.067 0.336-5.421 5.421 0.115 0.189c0.726 1.197 1.92 2.506 3.174 3.488 0.288 0.224 1.021 0.733 1.165 0.81 0.074 0.038 0.173-0.058 2.787-2.672l2.71-2.71 0.224 0.051c0.627 0.141 1.45 0.195 2.074 0.134 0.992-0.099 2.048-0.477 2.88-1.027 2.294-1.53 3.357-4.288 2.672-6.944-0.093-0.362-0.243-0.813-0.288-0.858-0.013-0.016-0.979 0.931-2.15 2.099-1.418 1.418-2.173 2.154-2.269 2.202-0.198 0.106-0.499 0.106-0.707 0-0.102-0.054-0.512-0.442-1.379-1.312-1.069-1.072-1.235-1.254-1.28-1.386-0.061-0.189-0.051-0.454 0.026-0.618 0.042-0.086 0.765-0.832 2.202-2.269 1.174-1.178 2.125-2.15 2.112-2.163-0.086-0.080-1.043-0.355-1.434-0.413-0.432-0.061-1.146-0.112-1.174-0.080z"></path>
</svg>
