<!-- Generated by IcoMoon.io -->
<svg version="1.1" xmlns="http://www.w3.org/2000/svg" width="32" height="32" viewBox="0 0 32 32">
<title>setup_and_repair</title>
<path fill="#ff7900" d="M27.002 2.746c-0.128 0.099-0.291 0.227-0.358 0.278-0.070 0.054-0.214 0.163-0.32 0.25-0.109 0.083-0.294 0.23-0.419 0.323-0.122 0.096-0.499 0.387-0.832 0.646-0.336 0.262-0.666 0.518-0.733 0.573-0.067 0.051-0.198 0.154-0.291 0.224s-0.608 0.47-1.142 0.886l-0.973 0.762-0.589 1.174-0.586 1.178-8.902 8.912-0.592-0.592-0.595-0.592-3.635 3.638c-2 2.003-3.677 3.693-3.728 3.754-0.317 0.394-0.557 0.902-0.666 1.424-0.067 0.31-0.074 0.899-0.016 1.232 0.083 0.483 0.304 1.002 0.602 1.408 1.104 1.504 3.213 1.821 4.71 0.704 0.115-0.086 1.843-1.792 3.84-3.789l3.632-3.635-1.184-1.184 8.886-8.886 2.378-1.19 0.512-0.662c0.282-0.365 0.598-0.771 0.704-0.906 0.176-0.218 0.941-1.206 1.808-2.323 0.176-0.23 0.406-0.525 0.509-0.656 0.106-0.131 0.285-0.362 0.4-0.512l0.211-0.272-1.178-1.178c-0.646-0.646-1.184-1.174-1.197-1.174s-0.128 0.083-0.256 0.186zM10.643 19.722c0.138 0.125 0.179 0.333 0.099 0.49-0.029 0.051-1.28 1.322-2.781 2.819-2.058 2.054-2.752 2.73-2.81 2.733-0.182 0.013-0.275-0.010-0.371-0.083-0.154-0.115-0.205-0.358-0.112-0.522 0.022-0.038 2.714-2.742 4.742-4.758l0.787-0.784h0.163c0.144 0 0.182 0.016 0.282 0.106zM12.384 21.466c0.138 0.106 0.202 0.243 0.176 0.397-0.019 0.131-0.16 0.275-2.746 2.867-1.501 1.501-2.765 2.752-2.813 2.778-0.342 0.182-0.739-0.214-0.557-0.557 0.067-0.122 5.459-5.501 5.555-5.539 0.106-0.045 0.285-0.019 0.384 0.054z"></path>
<path fill="#ff7900" d="M7.962 2.608c-0.006 0.003-0.109 0.016-0.234 0.029-0.323 0.029-0.576 0.074-0.928 0.163-0.55 0.144-0.733-0.112 1.459 2.077 1.395 1.395 1.936 1.955 1.987 2.061 0.090 0.189 0.090 0.483 0 0.688-0.051 0.115-0.358 0.442-1.344 1.424-0.838 0.845-1.325 1.306-1.418 1.354-0.179 0.093-0.493 0.102-0.701 0.022-0.118-0.048-0.48-0.394-2.064-1.978-1.056-1.056-1.93-1.92-1.939-1.92-0.054 0-0.24 0.742-0.298 1.171-0.051 0.374-0.045 1.296 0.013 1.645 0.205 1.29 0.816 2.467 1.731 3.344 0.886 0.851 1.93 1.37 3.197 1.587 0.307 0.054 1.45 0.054 1.712 0.003l0.192-0.038 2.528 2.528 2.368-2.368c1.299-1.299 2.358-2.374 2.352-2.381-0.010-0.010-0.576-0.579-1.261-1.264l-1.245-1.248 0.042-0.253c0.045-0.294 0.058-1.002 0.022-1.37-0.128-1.411-0.842-2.816-1.93-3.789-0.893-0.803-2.125-1.35-3.277-1.459-0.227-0.019-0.95-0.042-0.966-0.029z"></path>
<path fill="#ff7900" d="M17.776 17.952l-2.368 2.368 4.176 4.179c2.298 2.298 4.288 4.269 4.426 4.378 0.611 0.496 1.414 0.752 2.23 0.71 0.63-0.029 1.165-0.205 1.686-0.55 1.565-1.037 1.971-3.181 0.896-4.71-0.128-0.176-1.363-1.434-4.419-4.486-2.333-2.333-4.246-4.243-4.253-4.246s-1.075 1.059-2.374 2.358z"></path>
</svg>
