<!-- Generated by IcoMoon.io -->
<svg version="1.1" xmlns="http://www.w3.org/2000/svg" width="32" height="32" viewBox="0 0 32 32">
<title>setup_internet</title>
<path fill="#ff7900" d="M5.206 6.448c-0.582 0.16-1.053 0.65-1.171 1.226-0.026 0.122-0.035 2.365-0.035 7.846v7.68h24v-7.68c0-5.482-0.010-7.725-0.035-7.846-0.128-0.611-0.653-1.126-1.264-1.238-0.131-0.026-3.312-0.035-10.762-0.032-8.694 0.003-10.608 0.010-10.733 0.045zM26.4 14.8v6.8h-20.8v-13.6h20.8v6.8z"></path>
<path fill="#ff7900" d="M14.56 10.445c-0.573 0.17-0.992 0.448-0.992 0.656 0 0.038 0.029 0.15 0.067 0.253 0.112 0.307 0.128 0.422 0.074 0.589-0.090 0.278-0.432 0.582-0.691 0.614-0.077 0.010-0.208-0.019-0.394-0.083-0.352-0.122-0.451-0.109-0.602 0.080-0.333 0.41-0.531 1.146-0.358 1.334 0.035 0.038 0.173 0.122 0.31 0.182 0.368 0.17 0.49 0.384 0.458 0.822-0.022 0.339-0.112 0.467-0.442 0.624-0.144 0.070-0.291 0.157-0.326 0.195-0.227 0.253 0.211 1.398 0.573 1.491 0.061 0.013 0.173-0.010 0.365-0.074 0.176-0.061 0.326-0.093 0.403-0.086 0.298 0.026 0.669 0.381 0.726 0.694 0.019 0.109 0.003 0.192-0.074 0.432-0.058 0.179-0.090 0.326-0.077 0.371 0.035 0.141 0.176 0.266 0.445 0.397 0.358 0.179 0.582 0.246 0.794 0.246 0.227 0 0.288-0.051 0.429-0.352 0.179-0.387 0.31-0.474 0.72-0.477 0.23-0.003 0.298 0.010 0.432 0.077 0.144 0.074 0.173 0.109 0.288 0.342 0.16 0.323 0.218 0.387 0.362 0.413 0.262 0.051 0.982-0.227 1.226-0.47 0.15-0.15 0.157-0.234 0.045-0.515-0.045-0.112-0.086-0.253-0.093-0.314-0.035-0.355 0.403-0.842 0.765-0.842 0.077 0 0.253 0.042 0.39 0.090 0.301 0.109 0.39 0.096 0.55-0.074 0.189-0.202 0.451-0.845 0.451-1.11 0-0.189-0.080-0.275-0.4-0.429-0.234-0.115-0.282-0.154-0.358-0.282-0.077-0.131-0.086-0.186-0.090-0.426 0-0.23 0.013-0.298 0.083-0.432 0.070-0.144 0.106-0.173 0.352-0.298 0.336-0.17 0.413-0.25 0.413-0.435 0-0.278-0.262-0.912-0.464-1.126-0.141-0.147-0.243-0.163-0.477-0.080-0.374 0.138-0.509 0.147-0.691 0.051-0.147-0.077-0.346-0.269-0.435-0.422-0.115-0.195-0.115-0.374-0.003-0.656 0.102-0.253 0.106-0.33 0.026-0.461-0.138-0.224-0.819-0.538-1.174-0.541-0.246 0-0.304 0.045-0.445 0.355-0.058 0.122-0.141 0.262-0.189 0.31-0.192 0.192-0.726 0.23-1.002 0.070-0.115-0.070-0.157-0.125-0.266-0.349-0.070-0.147-0.157-0.291-0.192-0.323-0.080-0.074-0.326-0.090-0.512-0.035zM16.234 12.301c0.048 0.035 0.102 0.115 0.122 0.179 0.022 0.070 0.029 0.493 0.022 1.155-0.010 0.992-0.013 1.050-0.074 1.117-0.202 0.224-0.486 0.211-0.646-0.029-0.074-0.109-0.074-0.118-0.074-1.168 0-0.995 0.003-1.066 0.064-1.152 0.131-0.202 0.387-0.246 0.586-0.102zM14.906 12.995c0.086 0.054 0.173 0.262 0.154 0.371-0.019 0.096-0.074 0.182-0.211 0.33-0.605 0.646-0.589 1.613 0.035 2.237 0.765 0.768 2.058 0.55 2.541-0.429 0.307-0.618 0.198-1.309-0.288-1.824-0.227-0.243-0.259-0.47-0.083-0.637 0.214-0.205 0.426-0.166 0.691 0.118 0.95 1.021 0.848 2.605-0.224 3.488-0.726 0.598-1.747 0.714-2.598 0.288-0.742-0.371-1.245-1.126-1.312-1.962-0.019-0.278 0.035-0.749 0.109-0.922 0.208-0.496 0.387-0.774 0.634-0.992 0.192-0.17 0.358-0.189 0.554-0.067z"></path>
<path fill="#ff7900" d="M2.4 24.858c0 0.717 0.010 0.886 0.054 1.014 0.067 0.198 0.278 0.41 0.48 0.477 0.134 0.048 1.322 0.051 13.088 0.051h12.941l0.179-0.086c0.096-0.048 0.218-0.138 0.269-0.198 0.173-0.211 0.189-0.317 0.189-1.258v-0.858h-11.194l-0.019 0.118c-0.045 0.262-0.205 0.474-0.467 0.621-0.064 0.035-0.41 0.048-1.853 0.054-2.019 0.010-1.984 0.013-2.23-0.237-0.125-0.131-0.237-0.362-0.237-0.499 0-0.054-0.205-0.058-5.6-0.058h-5.6v0.858z"></path>
</svg>
