<!-- Generated by IcoMoon.io -->
<svg version="1.1" xmlns="http://www.w3.org/2000/svg" width="32" height="32" viewBox="0 0 32 32">
<title>Share_wifi</title>
<path fill="#ff7900" d="M15.472 3.232c-1.222 0.109-2.358 0.374-3.427 0.8-1.408 0.563-2.653 1.363-3.798 2.442l-0.253 0.237 0.563 0.57 0.56 0.57 0.285-0.269c1.427-1.36 3.312-2.298 5.286-2.634 0.621-0.106 0.973-0.131 1.792-0.131 1.398 0.003 2.704 0.275 3.968 0.826 0.336 0.144 0.918 0.435 1.098 0.547 0.822 0.509 1.344 0.902 1.901 1.44l0.23 0.221 0.563-0.573 0.56-0.573-0.234-0.218c-1.546-1.456-3.264-2.406-5.306-2.931-0.397-0.102-1.155-0.243-1.501-0.275-0.115-0.013-0.243-0.029-0.288-0.038-0.134-0.026-1.728-0.032-2-0.010z"></path>
<path fill="#ff7900" d="M15.802 6.416c-0.006 0.006-0.118 0.016-0.25 0.029-1.84 0.154-3.786 1.050-5.126 2.352l-0.182 0.179 0.554 0.563 0.557 0.563 0.17-0.157c0.589-0.541 1.251-0.989 1.901-1.29 0.685-0.314 1.482-0.538 2.24-0.621 0.448-0.048 1.405-0.019 1.862 0.058 0.675 0.115 1.306 0.31 1.882 0.582 0.262 0.122 0.771 0.413 0.976 0.554 0.202 0.141 0.723 0.563 0.902 0.733l0.15 0.144 1.123-1.13-0.23-0.218c-1.411-1.328-3.219-2.141-5.162-2.323-0.269-0.026-1.341-0.038-1.366-0.019z"></path>
<path fill="#ff7900" d="M15.776 9.635c-0.72 0.109-1.206 0.25-1.718 0.493-0.544 0.259-1.149 0.675-1.472 1.014l-0.106 0.109 0.557 0.554 0.557 0.557 0.221-0.186c0.461-0.394 0.979-0.675 1.53-0.829 0.416-0.115 0.678-0.144 1.168-0.131 0.621 0.013 1.11 0.134 1.645 0.406 0.31 0.154 0.47 0.262 0.8 0.531l0.25 0.205 0.56-0.554 0.557-0.557-0.23-0.218c-0.736-0.685-1.728-1.168-2.781-1.354-0.314-0.054-1.277-0.083-1.536-0.042z"></path>
<path fill="#ff7900" d="M15.92 12.848c-0.909 0.198-1.597 0.848-1.843 1.728-0.054 0.198-0.070 0.342-0.070 0.624 0 0.445 0.051 0.669 0.256 1.088 0.125 0.253 0.195 0.349 0.422 0.579 0.317 0.314 0.566 0.474 0.979 0.614 0.262 0.090 0.323 0.099 0.704 0.099 0.467 0.003 0.694-0.045 1.040-0.211 0.282-0.134 0.454-0.256 0.672-0.474 0.995-0.976 0.925-2.646-0.15-3.536-0.246-0.205-0.63-0.403-0.938-0.483-0.266-0.070-0.822-0.083-1.072-0.029z"></path>
<path fill="#ff7900" d="M2.931 16.848c-0.179 0.064-0.342 0.208-0.435 0.387l-0.080 0.154-0.010 2.963c-0.010 3.222-0.016 3.101 0.173 3.344 0.122 0.16 0.326 0.272 0.531 0.294 0.141 0.013 0.394-0.042 1.546-0.323 0.758-0.189 1.488-0.371 1.622-0.406l0.25-0.064 0.47 0.278c0.262 0.154 0.675 0.397 0.922 0.541 0.246 0.147 1.558 0.915 2.912 1.712 1.357 0.797 2.63 1.546 2.832 1.664 0.618 0.365 0.867 0.467 1.344 0.557 0.429 0.080 1.078 0.045 1.469-0.080 0.109-0.035 3.334-1.318 9.091-3.619 1.456-0.579 2.71-1.098 2.794-1.155 0.365-0.243 0.592-0.717 0.557-1.162-0.064-0.781-0.739-1.309-1.52-1.19-0.253 0.038-0.362 0.054-0.71 0.109-0.166 0.026-0.403 0.061-0.528 0.080-0.416 0.061-0.573 0.086-1.2 0.186-0.342 0.054-0.675 0.109-0.736 0.118-0.717 0.109-2.323 0.362-3.072 0.477-0.518 0.083-1.024 0.16-1.12 0.176s-0.464 0.074-0.816 0.128c-0.352 0.054-0.826 0.128-1.056 0.163-0.227 0.035-0.422 0.077-0.435 0.096-0.010 0.019-0.029 0.102-0.038 0.186-0.077 0.63-0.557 1.405-1.126 1.811-0.752 0.538-1.773 0.669-2.643 0.339-0.099-0.038-1.050-0.57-2.112-1.184-2.099-1.21-2.099-1.21-2.067-1.453s0.23-0.403 0.445-0.362c0.058 0.010 0.646 0.33 1.306 0.714 3.034 1.75 2.842 1.658 3.456 1.658 0.41 0 0.56-0.038 0.944-0.237 0.282-0.144 0.634-0.49 0.778-0.762 0.17-0.323 0.234-0.541 0.253-0.89 0.016-0.269 0.006-0.362-0.051-0.576-0.106-0.378-0.272-0.669-0.531-0.928-0.211-0.211-0.374-0.31-3.162-1.904-1.936-1.107-3.027-1.712-3.2-1.776l-0.262-0.096-3.328-0.006c-2.774-0.006-3.347 0-3.453 0.038z"></path>
<path fill="#ff7900" d="M21.853 18.413c-0.006 0.006-0.179 0.038-0.381 0.067s-0.496 0.070-0.656 0.096c-0.288 0.045-1.293 0.198-1.472 0.221-0.179 0.026-0.992 0.15-1.088 0.166-0.051 0.010-0.24 0.038-0.416 0.061-0.333 0.048-0.733 0.109-1.28 0.195-0.176 0.026-0.397 0.058-0.486 0.067-0.093 0.010-0.16 0.029-0.15 0.045 0.006 0.016 0.134 0.093 0.278 0.17 0.144 0.080 0.355 0.218 0.467 0.31l0.205 0.163 0.451-0.070c0.541-0.083 1.334-0.208 1.731-0.272 0.16-0.026 0.534-0.083 0.832-0.128 0.634-0.096 0.707-0.109 0.816-0.128 0.045-0.006 0.131-0.019 0.192-0.029 0.371-0.051 2.211-0.342 2.326-0.365 0.122-0.026 0.106-0.054-0.122-0.24-0.173-0.138-0.426-0.256-0.662-0.307-0.163-0.035-0.557-0.048-0.586-0.022z"></path>
<path fill="#ff7900" d="M24.384 19.616c-0.080 0.013-0.208 0.035-0.288 0.045-0.531 0.080-3.27 0.49-3.424 0.515-0.045 0.006-0.179 0.029-0.304 0.045-0.218 0.032-1.267 0.189-2.16 0.326-0.237 0.035-0.486 0.070-0.554 0.080s-0.144 0.022-0.166 0.026c-0.083 0.013-0.083 0.038-0.003 0.214 0.045 0.096 0.102 0.259 0.128 0.362 0.029 0.102 0.058 0.195 0.067 0.205 0.013 0.016 0.95-0.115 1.248-0.173 0.035-0.006 0.259-0.042 0.496-0.077 0.237-0.038 0.698-0.109 1.024-0.163 0.326-0.051 0.771-0.122 0.992-0.157s0.624-0.099 0.896-0.141c0.272-0.045 1.194-0.192 2.048-0.326s1.558-0.25 1.568-0.259c0.032-0.032-0.285-0.275-0.496-0.381-0.333-0.163-0.678-0.208-1.072-0.141z"></path>
</svg>
