<!-- Generated by IcoMoon.io -->
<svg version="1.1" xmlns="http://www.w3.org/2000/svg" width="32" height="32" viewBox="0 0 32 32">
<title>share</title>
<path fill="#ff7900" d="M22.64 2.432c-1.834 0.221-3.398 1.488-3.984 3.229-0.182 0.541-0.234 0.858-0.237 1.459-0.003 0.298 0.013 0.659 0.035 0.8 0.029 0.198 0.029 0.266 0 0.294s-3.114 1.917-6.352 3.891c-0.189 0.115-0.282 0.154-0.31 0.131-0.752-0.528-1.27-0.771-1.968-0.925-0.394-0.086-0.502-0.096-1.072-0.093-0.426 0.003-0.618 0.019-0.877 0.074-1.574 0.326-2.829 1.334-3.466 2.787-0.282 0.64-0.4 1.2-0.403 1.904-0.010 2.87 2.467 5.094 5.322 4.784 0.797-0.086 1.571-0.381 2.218-0.835 0.144-0.106 0.275-0.189 0.291-0.189 0.019 0 1.069 0.63 1.427 0.861 0.054 0.032 0.528 0.323 1.056 0.643s1.139 0.694 1.36 0.832c0.221 0.134 0.739 0.451 1.152 0.704 0.413 0.25 0.803 0.49 0.864 0.528s0.262 0.163 0.448 0.272c0.186 0.112 0.342 0.208 0.346 0.211 0.006 0.003-0.010 0.141-0.035 0.307-0.026 0.163-0.048 0.483-0.048 0.714 0.006 2.41 1.811 4.451 4.202 4.749 0.259 0.032 1.075 0.022 1.312-0.013 0.198-0.032 0.829-0.202 1.014-0.275 0.378-0.147 0.768-0.365 1.104-0.611 0.957-0.704 1.606-1.718 1.869-2.912 0.115-0.534 0.109-1.453-0.019-1.994-0.288-1.232-1.046-2.323-2.067-2.976-0.854-0.55-1.715-0.794-2.717-0.771-0.765 0.019-1.402 0.173-2.051 0.499-0.301 0.15-0.758 0.442-0.829 0.528-0.042 0.048 0.227 0.208-3.248-1.92-0.598-0.368-1.245-0.762-1.44-0.88-0.323-0.195-2.003-1.219-2.026-1.235-0.006-0.003 0.010-0.141 0.035-0.307 0.061-0.371 0.061-1.005 0.003-1.398-0.026-0.166-0.042-0.304-0.038-0.307 0.006-0.003 0.406-0.246 0.89-0.541s0.944-0.576 1.024-0.627c0.080-0.048 0.742-0.451 1.472-0.896s1.402-0.854 1.488-0.912c0.090-0.054 0.419-0.259 0.736-0.448 0.317-0.192 0.672-0.41 0.794-0.486 0.218-0.138 0.291-0.163 0.326-0.106 0.035 0.054 0.557 0.384 0.816 0.515 1.36 0.678 2.931 0.675 4.288-0.003 0.486-0.243 0.848-0.502 1.245-0.893 0.701-0.694 1.155-1.571 1.35-2.611 0.048-0.25 0.058-1.142 0.019-1.44-0.134-1.002-0.643-2.019-1.37-2.739-0.47-0.464-1.11-0.877-1.702-1.101-0.221-0.080-0.749-0.221-0.966-0.253-0.227-0.035-1.050-0.048-1.28-0.019z"></path>
</svg>
