<!-- Generated by IcoMoon.io -->
<svg version="1.1" xmlns="http://www.w3.org/2000/svg" width="32" height="32" viewBox="0 0 32 32">
<title>shipping</title>
<path fill="#ff7900" d="M4 12.8v3.2h3.2v-4.819l0.074-0.067c0.038-0.035 0.218-0.214 0.4-0.403l0.326-0.336v-0.774h-4v3.2zM6.4 11.6v0.4h-1.6v-0.8h1.6v0.4zM6.4 13.2v0.4h-1.6v-0.8h1.6v0.4z"></path>
<path fill="#ff7900" d="M15.2 12.4v1.2h5.6v-2.4h-5.6v1.2z"></path>
<path fill="#ff7900" d="M8.8 15.2v0.8h5.6v-1.6h-5.6v0.8z"></path>
<path fill="#ff7900" d="M15.2 15.2v0.8h5.6v-1.6h-5.6v0.8z"></path>
<path fill="#ff7900" d="M23.149 15.27c-0.035 0.042-0.214 0.269-0.4 0.506-0.182 0.237-0.349 0.454-0.371 0.48s-0.128 0.16-0.234 0.294l-0.198 0.25h-19.549l0.003 0.63c0.006 0.605 0.010 0.64 0.083 0.8 0.045 0.093 0.131 0.211 0.192 0.259 0.061 0.051 0.39 0.234 0.73 0.406 0.733 0.371 0.883 0.474 0.973 0.662 0.074 0.154 0.080 0.189 0.17 0.89 0.032 0.272 0.067 0.547 0.077 0.608s0.045 0.342 0.080 0.624c0.035 0.282 0.070 0.56 0.080 0.614l0.019 0.106h19.158l0.173-0.218c0.096-0.118 0.41-0.518 0.698-0.886 0.509-0.65 1.059-1.354 2.24-2.864 0.31-0.397 0.957-1.226 1.44-1.84 0.48-0.618 0.925-1.181 0.986-1.258l0.109-0.134h-6.397l-0.061 0.070zM25.36 16.045c0.198 0.083 0.294 0.342 0.198 0.531-0.054 0.106-0.237 0.224-0.349 0.224-0.301 0-0.512-0.358-0.355-0.598 0.067-0.102 0.224-0.202 0.323-0.202 0.038 0 0.122 0.019 0.182 0.045zM26.979 16.048c0.118 0.064 0.221 0.224 0.221 0.352 0 0.202-0.202 0.4-0.41 0.4-0.112 0-0.294-0.118-0.349-0.224-0.090-0.179-0.019-0.403 0.16-0.512 0.125-0.077 0.25-0.080 0.378-0.016z"></path>
</svg>
