<!-- Generated by IcoMoon.io -->
<svg version="1.1" xmlns="http://www.w3.org/2000/svg" width="32" height="32" viewBox="0 0 32 32">
<title>Shop</title>
<path fill="#ff7900" d="M4.538 3.251c-0.198 0.061-0.416 0.275-0.483 0.477-0.048 0.134-0.054 0.326-0.054 1.414v1.258h24v-1.277c0-1.101-0.006-1.293-0.051-1.398-0.077-0.182-0.211-0.339-0.368-0.429l-0.141-0.080-11.376-0.006c-9.818-0.003-11.395 0-11.526 0.042z"></path>
<path fill="#ff7900" d="M3.997 7.254c-0.003 0.032-0.010 0.086-0.013 0.122-0.006 0.035-0.032 0.278-0.061 0.544-0.029 0.262-0.061 0.531-0.067 0.592s-0.022 0.198-0.032 0.304c-0.013 0.106-0.026 0.227-0.032 0.272s-0.042 0.362-0.080 0.704c-0.035 0.342-0.074 0.672-0.080 0.73-0.010 0.058-0.038 0.317-0.064 0.576s-0.054 0.522-0.064 0.582c-0.019 0.141-0.035 0.278-0.096 0.864-0.026 0.256-0.061 0.563-0.080 0.688-0.016 0.122-0.038 0.323-0.048 0.442-0.013 0.118-0.026 0.25-0.035 0.288-0.035 0.163-0.038 0.627-0.006 0.774 0.122 0.589 0.64 1.104 1.235 1.229 0.531 0.112 1.056-0.048 1.45-0.442 0.24-0.24 0.403-0.544 0.435-0.806 0.022-0.176 0.051-0.16 0.086 0.051 0.070 0.39 0.454 0.874 0.851 1.066 0.432 0.211 0.96 0.211 1.405 0 0.403-0.192 0.79-0.678 0.854-1.075 0.026-0.173 0.064-0.173 0.090 0 0.038 0.24 0.208 0.538 0.432 0.765 0.826 0.822 2.186 0.534 2.614-0.557 0.042-0.106 0.077-0.227 0.077-0.266 0-0.138 0.054-0.109 0.077 0.038 0.054 0.403 0.442 0.899 0.854 1.094 0.438 0.208 0.963 0.208 1.402 0 0.403-0.192 0.778-0.656 0.851-1.059 0.032-0.166 0.067-0.173 0.093-0.013 0.064 0.39 0.454 0.883 0.851 1.069 0.275 0.131 0.474 0.17 0.8 0.154 0.518-0.019 0.995-0.304 1.274-0.755 0.093-0.154 0.198-0.461 0.198-0.586 0.003-0.128 0.048-0.054 0.080 0.125 0.070 0.397 0.464 0.893 0.854 1.069 0.672 0.304 1.395 0.163 1.882-0.371 0.208-0.227 0.31-0.435 0.406-0.826l0.022-0.096 0.013 0.096c0.061 0.493 0.416 0.976 0.886 1.2 0.851 0.406 1.882-0.022 2.195-0.912 0.035-0.102 0.067-0.224 0.070-0.275 0.010-0.144 0.045-0.109 0.064 0.067 0.064 0.55 0.63 1.12 1.232 1.245 0.87 0.182 1.738-0.406 1.898-1.283 0.032-0.173 0.022-0.314-0.048-0.986-0.048-0.432-0.093-0.835-0.099-0.896-0.010-0.061-0.058-0.502-0.112-0.976-0.051-0.477-0.102-0.928-0.112-1.008s-0.086-0.8-0.176-1.6c-0.182-1.658-0.186-1.696-0.211-1.882l-0.019-0.134h-11.997c-11.402 0-11.997 0.003-12 0.054z"></path>
<path fill="#ff7900" d="M6.224 16.32c-0.573 0.451-1.424 0.592-2.166 0.365-0.054-0.016-0.058 0.288-0.058 6.048v6.067h16.8v-9.6h4.8v9.6h2.4v-6.067c0-5.898-0.003-6.064-0.061-6.045-0.752 0.237-1.597 0.083-2.221-0.406l-0.118-0.096-0.096 0.080c-0.544 0.461-1.411 0.643-2.128 0.451-0.246-0.064-0.662-0.272-0.835-0.416l-0.138-0.109-0.17 0.128c-0.57 0.432-1.366 0.582-2.067 0.39-0.275-0.074-0.64-0.256-0.832-0.413l-0.138-0.112-0.070 0.064c-0.122 0.112-0.426 0.288-0.637 0.374-0.771 0.307-1.709 0.182-2.336-0.314l-0.154-0.118-0.166 0.128c-0.208 0.157-0.55 0.323-0.826 0.4-0.288 0.083-0.89 0.083-1.2 0.003-0.272-0.070-0.688-0.272-0.874-0.426l-0.138-0.112-0.070 0.064c-0.122 0.109-0.419 0.285-0.63 0.371-0.768 0.314-1.712 0.189-2.342-0.31l-0.154-0.118-0.163 0.125c-0.387 0.294-0.832 0.448-1.341 0.47-0.595 0.022-1.126-0.144-1.555-0.49-0.074-0.058-0.138-0.106-0.144-0.102-0.006 0-0.083 0.058-0.173 0.125zM18.4 22.4v3.2h-12v-6.4h12v3.2z"></path>
</svg>
