<!-- Generated by IcoMoon.io -->
<svg version="1.1" xmlns="http://www.w3.org/2000/svg" width="32" height="32" viewBox="0 0 32 32">
<title>shop_subscriptions</title>
<path fill="#ff7900" d="M15.456 2.422c-0.685 0.090-1.178 0.221-1.696 0.448-1.574 0.694-2.778 2.109-3.181 3.741-0.118 0.477-0.166 0.803-0.176 1.203l-0.003 0.186h-4.8v9.718c0 10.416-0.006 9.862 0.157 10.326 0.086 0.246 0.31 0.602 0.509 0.806 0.304 0.314 0.637 0.518 1.094 0.666l0.208 0.067 8.352 0.006c9.155 0.006 8.544 0.016 9.014-0.182 0.662-0.282 1.174-0.867 1.392-1.584 0.054-0.182 0.058-0.653 0.064-10.010l0.010-9.814h-4.8l-0.003-0.186c0-0.099-0.006-0.205-0.010-0.23-0.006-0.026-0.019-0.144-0.032-0.259-0.074-0.736-0.403-1.658-0.835-2.323-0.928-1.43-2.342-2.326-4.032-2.557-0.307-0.042-0.995-0.054-1.232-0.022zM16.784 4.080c0.803 0.173 1.456 0.525 2.032 1.104 0.701 0.701 1.104 1.597 1.171 2.598l0.016 0.218h-8.013l0.019-0.266c0.096-1.405 0.95-2.675 2.224-3.315 0.394-0.195 0.768-0.31 1.318-0.397 0.195-0.032 0.992 0.003 1.232 0.058zM10.544 11.635c0.346 0.499 1.046 0.474 1.354-0.048l0.086-0.147 0.010-0.81 0.013-0.806 0.096 0.054c0.051 0.032 0.173 0.141 0.266 0.24 0.835 0.899 0.384 2.352-0.822 2.643-0.211 0.054-0.646 0.026-0.867-0.051-1.21-0.429-1.453-2.051-0.422-2.797l0.128-0.093 0.016 0.813 0.016 0.816 0.128 0.186zM20.112 11.603c0.323 0.522 1.053 0.522 1.376 0l0.096-0.157 0.010-0.813 0.013-0.81 0.096 0.054c0.16 0.096 0.432 0.413 0.531 0.627 0.31 0.653 0.173 1.376-0.355 1.866-0.646 0.602-1.658 0.557-2.256-0.096-0.634-0.698-0.525-1.814 0.234-2.362l0.128-0.093 0.032 1.626 0.096 0.157zM19.773 16.106c0.115 0.051 0.269 0.134 0.342 0.186 0.31 0.211 0.582 0.63 0.653 1.005 0.026 0.138 0.032 1.158 0.026 3.616l-0.010 3.424-0.086 0.218c-0.048 0.118-0.131 0.278-0.182 0.355-0.221 0.317-0.634 0.586-1.008 0.656-0.266 0.048-6.749 0.048-7.011 0-0.602-0.112-1.136-0.637-1.261-1.238-0.026-0.122-0.035-1.197-0.035-3.568l0.003-3.398 0.074-0.224c0.096-0.298 0.243-0.525 0.454-0.717 0.208-0.182 0.381-0.278 0.659-0.358 0.189-0.054 0.4-0.058 3.69-0.051l3.488 0.006 0.205 0.090z"></path>
<path fill="#ff7900" d="M18.41 18.15c-0.080 0.042-0.778 0.71-1.686 1.616-1.213 1.213-1.565 1.546-1.626 1.546s-0.227-0.147-0.707-0.621c-0.682-0.678-0.726-0.707-0.986-0.63-0.16 0.048-0.371 0.211-0.49 0.378-0.115 0.163-0.141 0.429-0.058 0.582 0.086 0.157 1.738 2.067 1.99 2.301 0.112 0.102 0.317 0.198 0.432 0.198 0.24 0 0.323-0.077 1.008-0.944 0.362-0.454 0.701-0.877 0.752-0.944 0.186-0.227 0.304-0.374 0.95-1.184 0.355-0.451 0.765-0.963 0.906-1.136 0.39-0.493 0.429-0.605 0.301-0.87-0.144-0.301-0.522-0.438-0.787-0.291z"></path>
</svg>
