<!-- Generated by IcoMoon.io -->
<svg version="1.1" xmlns="http://www.w3.org/2000/svg" width="32" height="32" viewBox="0 0 32 32">
<title>Shopping</title>
<path fill="#ff7900" d="M15.456 2.422c-1.418 0.189-2.47 0.691-3.408 1.626-0.986 0.989-1.542 2.218-1.635 3.622l-0.022 0.33h-4.79v9.718c0 10.416-0.006 9.862 0.157 10.326 0.086 0.246 0.31 0.602 0.509 0.806 0.304 0.314 0.637 0.518 1.094 0.666l0.208 0.067 8.352 0.006c9.155 0.006 8.544 0.016 9.014-0.182 0.662-0.282 1.174-0.867 1.392-1.584 0.054-0.182 0.058-0.653 0.064-10.010l0.010-9.814h-4.8l-0.003-0.186c0-0.099-0.006-0.205-0.010-0.23-0.006-0.026-0.019-0.147-0.032-0.266-0.070-0.726-0.41-1.661-0.835-2.317-0.928-1.43-2.342-2.326-4.032-2.557-0.307-0.042-0.995-0.054-1.232-0.022zM16.784 4.080c0.803 0.173 1.456 0.525 2.032 1.104 0.698 0.698 1.085 1.552 1.174 2.582l0.019 0.234h-8.019l0.019-0.266c0.096-1.405 0.95-2.675 2.224-3.315 0.394-0.195 0.768-0.31 1.318-0.397 0.195-0.032 0.992 0.003 1.232 0.058zM10.544 11.635c0.346 0.499 1.046 0.474 1.354-0.048l0.086-0.147 0.010-0.81 0.013-0.806 0.096 0.054c0.163 0.096 0.445 0.429 0.538 0.634 0.17 0.381 0.202 0.714 0.099 1.098-0.31 1.19-1.789 1.584-2.662 0.714-0.694-0.694-0.611-1.84 0.179-2.41l0.128-0.093 0.016 0.813 0.016 0.816 0.128 0.186zM20.112 11.603c0.323 0.522 1.053 0.522 1.376 0l0.096-0.157 0.010-0.813 0.013-0.81 0.096 0.054c0.15 0.090 0.419 0.397 0.515 0.589 0.33 0.662 0.198 1.405-0.339 1.904-0.646 0.602-1.658 0.557-2.256-0.096-0.634-0.698-0.525-1.814 0.234-2.362l0.128-0.093 0.032 1.626 0.096 0.157zM10.4 21.2v5.2h-0.8v-10.4h0.8v5.2zM12.8 20.8v4.8h-1.6v-9.6h1.6v4.8zM14.4 20.8v4.8h-0.8v-9.6h0.8v4.8zM16.8 20.8v4.8h-1.6v-9.6h1.6v4.8zM18.4 20.8v4.8h-0.8v-9.6h0.8v4.8zM20.8 20.8v4.8h-1.6v-9.6h1.6v4.8zM22.4 21.2v5.2h-0.8v-10.4h0.8v5.2z"></path>
</svg>
