<!-- Generated by IcoMoon.io -->
<svg version="1.1" xmlns="http://www.w3.org/2000/svg" width="32" height="32" viewBox="0 0 32 32">
<title>Show_front_back_camera</title>
<path fill="#ff7900" d="M3.606 6.448c-0.592 0.163-1.066 0.666-1.171 1.245-0.026 0.134-0.035 2.627-0.035 8.352 0 8.893-0.013 8.294 0.179 8.688 0.122 0.25 0.454 0.576 0.72 0.701 0.115 0.054 0.307 0.115 0.432 0.134 0.262 0.038 18.915 0.029 19.069-0.010 0.342-0.093 0.749-0.39 0.941-0.691 0.106-0.16 0.211-0.429 0.24-0.598 0.006-0.051 0.016-1.264 0.016-2.694l0.003-2.602 0.218 0.205c0.451 0.426 1.101 1.021 1.67 1.526 0.326 0.291 0.614 0.55 0.643 0.576 0.026 0.026 0.106 0.096 0.176 0.157 0.138 0.122 0.691 0.618 0.717 0.643 0.010 0.010 0.090 0.080 0.176 0.157 0.090 0.077 0.234 0.208 0.32 0.288 0.275 0.253 0.605 0.534 0.688 0.589 0.115 0.074 0.422 0.106 0.55 0.054 0.176-0.070 0.317-0.192 0.381-0.333 0.058-0.128 0.061-0.355 0.061-6.835s-0.003-6.707-0.061-6.835c-0.141-0.31-0.602-0.458-0.912-0.294-0.042 0.022-0.31 0.256-0.598 0.522-0.285 0.262-0.544 0.502-0.573 0.528-0.032 0.029-0.221 0.202-0.422 0.39s-0.394 0.368-0.432 0.4c-0.035 0.032-0.234 0.214-0.445 0.41-0.582 0.541-1.059 0.982-1.245 1.152-0.33 0.304-0.742 0.685-0.819 0.762l-0.093 0.093v-2.653c0-2.275-0.006-2.678-0.048-2.842-0.138-0.528-0.467-0.909-0.986-1.133l-0.198-0.083-9.504-0.006c-7.802-0.003-9.533 0.003-9.658 0.038zM13.942 10.448c1.632 0.214 3.072 1.046 4.038 2.336 0.195 0.259 0.515 0.755 0.515 0.8 0 0.010-0.422 0.016-0.941 0.016h-0.944l-0.317-0.314c-0.627-0.624-1.366-1.014-2.282-1.213-0.205-0.045-0.406-0.058-0.845-0.054-0.538 0-0.602 0.010-0.976 0.102-0.614 0.154-0.96 0.307-1.475 0.65-0.506 0.339-1.024 0.902-1.354 1.475l-0.086 0.154h0.787c0.432 0 0.784 0.006 0.784 0.016s-0.534 0.55-1.184 1.2l-1.184 1.184-1.184-1.184c-0.653-0.65-1.184-1.19-1.184-1.2s0.323-0.016 0.714-0.016h0.717l0.090-0.234c0.122-0.307 0.371-0.784 0.57-1.078 1.027-1.533 2.598-2.47 4.47-2.666 0.294-0.032 0.931-0.016 1.27 0.026zM19.264 16.384c0.65 0.65 1.184 1.19 1.184 1.2s-0.307 0.016-0.685 0.016h-0.688l-0.035 0.182c-0.112 0.541-0.486 1.408-0.826 1.91-0.829 1.232-1.958 2.061-3.382 2.48-0.842 0.25-2.026 0.288-2.88 0.096-1.677-0.378-3.037-1.357-3.917-2.819-0.154-0.256-0.416-0.803-0.467-0.979l-0.019-0.070h1.725l0.131 0.224c0.538 0.906 1.437 1.635 2.403 1.949 0.784 0.259 1.693 0.288 2.496 0.083 1.398-0.352 2.595-1.456 3.050-2.813l0.083-0.243h-1.757l1.194-1.197c0.653-0.659 1.194-1.2 1.197-1.2 0.006-0.003 0.541 0.528 1.194 1.181z"></path>
</svg>
