<!-- Generated by IcoMoon.io -->
<svg version="1.1" xmlns="http://www.w3.org/2000/svg" width="32" height="32" viewBox="0 0 32 32">
<title>Shower</title>
<path fill="#ff7900" d="M17.008 3.222c-1.139 0.138-2.064 0.464-2.944 1.050-1.19 0.787-2.093 1.971-2.541 3.328-0.205 0.621-0.282 1.062-0.31 1.776-0.013 0.256-0.029 0.474-0.042 0.486-0.010 0.013-1.235 0.426-2.723 0.922-1.485 0.496-2.771 0.938-2.858 0.986-0.307 0.166-0.557 0.477-0.704 0.864-0.064 0.173-0.067 0.253-0.080 1.373l-0.010 1.194h16.003v-1.098c0-1.194-0.013-1.306-0.186-1.654-0.115-0.237-0.426-0.544-0.662-0.662-0.106-0.054-1.021-0.346-2.032-0.65s-1.92-0.576-2.016-0.605c-0.096-0.032-0.656-0.198-1.245-0.374l-1.069-0.317 0.019-0.4c0.051-1.062 0.426-1.907 1.174-2.659 0.624-0.624 1.194-0.922 2.176-1.136 0.182-0.042 4.774-0.054 5.104-0.016 0.934 0.109 1.795 0.544 2.451 1.242 0.406 0.432 0.704 0.938 0.89 1.504 0.208 0.637 0.195-0.064 0.195 11.094v10.131h2.4l-0.010-10.362-0.006-10.358-0.070-0.368c-0.342-1.792-1.318-3.277-2.81-4.266-0.694-0.461-1.603-0.819-2.416-0.954-0.115-0.019-0.25-0.042-0.304-0.054-0.102-0.019-5.21-0.038-5.376-0.016z"></path>
<path fill="#ff7900" d="M6.141 16.845c-0.246 0.086-0.435 0.291-0.509 0.547-0.026 0.086-0.032 0.432-0.026 1.088l0.010 0.96 0.086 0.147c0.349 0.592 1.222 0.515 1.453-0.125 0.032-0.086 0.042-0.368 0.045-1.072v-0.954l-0.083-0.173c-0.173-0.368-0.605-0.554-0.976-0.419z"></path>
<path fill="#ff7900" d="M9.37 16.832c-0.144 0.042-0.301 0.154-0.394 0.275-0.16 0.211-0.176 0.326-0.176 1.309 0 1.037 0.016 1.12 0.24 1.344 0.416 0.419 1.114 0.256 1.312-0.301 0.074-0.211 0.070-1.91-0.006-2.131-0.128-0.378-0.592-0.611-0.976-0.496z"></path>
<path fill="#ff7900" d="M12.531 16.848c-0.179 0.064-0.342 0.208-0.435 0.387l-0.080 0.154v1.027c0 0.925 0.006 1.034 0.058 1.13 0.31 0.57 1.078 0.602 1.414 0.058l0.096-0.157v-2.086l-0.093-0.154c-0.202-0.339-0.602-0.486-0.96-0.358z"></path>
<path fill="#ff7900" d="M15.731 16.851c-0.182 0.067-0.326 0.186-0.426 0.358l-0.090 0.15-0.010 0.97c-0.013 1.12 0 1.2 0.234 1.43 0.416 0.416 1.114 0.256 1.312-0.301 0.074-0.208 0.070-1.91-0.003-2.125-0.138-0.403-0.618-0.63-1.018-0.483z"></path>
<path fill="#ff7900" d="M18.928 16.851c-0.192 0.067-0.355 0.218-0.445 0.413l-0.083 0.173v1.926l0.083 0.173c0.195 0.419 0.678 0.576 1.101 0.358 0.166-0.086 0.333-0.291 0.384-0.464 0.019-0.067 0.032-0.502 0.032-1.034 0-1.050-0.016-1.133-0.24-1.357-0.218-0.221-0.541-0.291-0.832-0.189z"></path>
<path fill="#ff7900" d="M6.15 21.648c-0.186 0.058-0.333 0.176-0.442 0.358l-0.093 0.154-0.010 0.96c-0.013 1.040 0 1.142 0.154 1.357 0.182 0.25 0.55 0.374 0.854 0.294 0.182-0.051 0.394-0.218 0.49-0.387 0.080-0.144 0.080-0.144 0.090-1.142l0.010-0.998-0.083-0.176c-0.176-0.374-0.57-0.544-0.97-0.419z"></path>
<path fill="#ff7900" d="M9.382 21.632c-0.128 0.029-0.342 0.176-0.419 0.285-0.157 0.218-0.163 0.275-0.163 1.28 0.003 0.698 0.013 0.979 0.045 1.066 0.195 0.547 0.906 0.707 1.318 0.298 0.221-0.221 0.237-0.323 0.237-1.373 0-0.522-0.013-0.95-0.032-1.018-0.083-0.301-0.438-0.573-0.736-0.566-0.080 0.003-0.192 0.016-0.25 0.029z"></path>
<path fill="#ff7900" d="M12.515 21.654c-0.192 0.067-0.397 0.278-0.461 0.474-0.045 0.131-0.054 0.304-0.054 1.101v0.947l0.090 0.176c0.157 0.31 0.454 0.474 0.803 0.438 0.314-0.032 0.608-0.288 0.675-0.586 0.042-0.173 0.038-1.888 0-2.035-0.118-0.416-0.634-0.669-1.053-0.515z"></path>
<path fill="#ff7900" d="M15.789 21.632c-0.24 0.054-0.451 0.253-0.541 0.509-0.074 0.211-0.070 1.91 0.006 2.131 0.109 0.323 0.467 0.554 0.813 0.522 0.314-0.032 0.621-0.275 0.701-0.563 0.042-0.157 0.042-1.904 0-2.061-0.019-0.064-0.090-0.189-0.16-0.278-0.189-0.237-0.499-0.336-0.819-0.259z"></path>
<path fill="#ff7900" d="M18.915 21.654c-0.077 0.029-0.205 0.112-0.278 0.186-0.221 0.221-0.237 0.323-0.237 1.373 0 0.522 0.013 0.95 0.032 1.018 0.080 0.278 0.378 0.528 0.682 0.56 0.349 0.042 0.723-0.192 0.832-0.518 0.080-0.227 0.080-1.914 0.003-2.138-0.141-0.41-0.611-0.63-1.034-0.48z"></path>
<path fill="#ff7900" d="M6.115 26.454c-0.189 0.067-0.397 0.278-0.461 0.474-0.080 0.227-0.080 1.914-0.003 2.138 0.112 0.326 0.474 0.56 0.816 0.528 0.314-0.032 0.621-0.275 0.701-0.563 0.019-0.067 0.032-0.502 0.032-1.034 0-1.050-0.016-1.133-0.24-1.357-0.221-0.224-0.541-0.291-0.845-0.186z"></path>
<path fill="#ff7900" d="M9.334 26.445c-0.176 0.064-0.33 0.195-0.429 0.365l-0.090 0.15-0.010 0.992c-0.010 0.934-0.006 1.002 0.054 1.142 0.262 0.611 1.078 0.672 1.427 0.109l0.096-0.157 0.010-0.973c0.010-0.848 0.003-0.992-0.045-1.136-0.134-0.403-0.611-0.637-1.014-0.493z"></path>
<path fill="#ff7900" d="M12.534 26.451c-0.202 0.064-0.41 0.269-0.48 0.477-0.045 0.131-0.054 0.304-0.054 1.072 0 1.056 0.016 1.136 0.24 1.363 0.365 0.365 0.973 0.288 1.248-0.16l0.096-0.157 0.010-0.995c0.013-1.13 0.003-1.174-0.243-1.421-0.211-0.211-0.502-0.275-0.816-0.179z"></path>
<path fill="#ff7900" d="M15.734 26.445c-0.176 0.064-0.33 0.195-0.429 0.365l-0.090 0.15-0.010 0.966c-0.006 0.624 0.003 1.011 0.026 1.094 0.051 0.192 0.218 0.39 0.416 0.493 0.157 0.080 0.202 0.086 0.394 0.074 0.358-0.026 0.653-0.262 0.726-0.582 0.016-0.067 0.032-0.541 0.032-1.046v-0.922l-0.083-0.173c-0.173-0.371-0.602-0.554-0.982-0.419z"></path>
<path fill="#ff7900" d="M18.934 26.445c-0.176 0.064-0.33 0.195-0.429 0.365l-0.090 0.15-0.010 0.96c-0.006 0.682 0 0.998 0.029 1.098 0.163 0.579 0.896 0.771 1.325 0.342 0.227-0.224 0.24-0.304 0.24-1.389v-0.947l-0.090-0.176c-0.182-0.365-0.598-0.538-0.976-0.403z"></path>
</svg>
