<!-- Generated by IcoMoon.io -->
<svg version="1.1" xmlns="http://www.w3.org/2000/svg" width="32" height="32" viewBox="0 0 32 32">
<title>signal_boost</title>
<path fill="#ff7900" d="M15.376 4.547c-0.381 0.080-0.464 0.109-0.784 0.266-0.512 0.253-0.573 0.307-2.381 2.122-0.742 0.742-3.072 3.078-5.184 5.194l-3.834 3.84h4.806v4.928c0 4.381 0.006 4.957 0.051 5.178 0.182 0.89 0.822 1.574 1.731 1.853 0.176 0.051 0.538 0.058 6.106 0.064 5.36 0.010 5.942 0.006 6.176-0.042 0.992-0.202 1.741-0.976 1.904-1.968 0.019-0.134 0.032-1.891 0.032-5.107v-4.906l4.781-0.016-5.379-5.382c-5.808-5.811-5.584-5.6-6.16-5.837-0.406-0.166-0.704-0.23-1.162-0.24-0.32-0.006-0.483 0.006-0.704 0.054zM15.722 12.893c0.214 0.106 0.259 0.205 0.266 0.579 0.003 0.166-0.016 0.477-0.038 0.688s-0.048 0.464-0.061 0.56c-0.019 0.202-0.051 0.435-0.067 0.528-0.006 0.035-0.022 0.115-0.032 0.176-0.077 0.432-0.224 0.659-0.483 0.739-0.067 0.019-0.394 0.042-0.73 0.048-0.333 0.010-0.64 0.022-0.678 0.032-0.118 0.022-0.285 0.195-0.371 0.378-0.23 0.483-0.326 1.235-0.326 2.563 0 1.757 0.176 2.64 0.582 2.915 0.096 0.064 0.157 0.070 0.752 0.086 0.685 0.016 0.829 0.042 0.979 0.166 0.163 0.134 0.282 0.502 0.339 1.040 0.010 0.096 0.026 0.24 0.035 0.32 0.118 0.922 0.131 1.453 0.038 1.619-0.032 0.064-0.112 0.131-0.205 0.176-0.15 0.077-0.17 0.077-1.146 0.077h-0.992l-0.208-0.112c-0.778-0.413-1.533-1.795-1.885-3.456-0.080-0.371-0.157-0.819-0.179-1.056-0.010-0.096-0.026-0.205-0.032-0.24-0.061-0.294-0.086-2.070-0.038-2.624 0.051-0.582 0.17-1.418 0.246-1.712 0.016-0.061 0.067-0.256 0.109-0.432 0.278-1.098 0.749-2.070 1.283-2.637 0.195-0.208 0.387-0.346 0.621-0.438 0.166-0.067 0.211-0.070 1.12-0.067 0.925 0.006 0.95 0.010 1.101 0.083zM20.080 15.037c0.56 0.71 0.995 1.622 1.216 2.547 0.227 0.931 0.221 2.077-0.013 3.062-0.189 0.803-0.598 1.674-1.101 2.355-0.192 0.259-0.301 0.39-0.326 0.39s-0.333-0.259-0.541-0.451l-0.128-0.118 0.131-0.154c0.486-0.589 0.931-1.494 1.11-2.269 0.288-1.251 0.147-2.611-0.394-3.744-0.186-0.387-0.454-0.826-0.675-1.098-0.090-0.112-0.16-0.214-0.154-0.23 0.019-0.058 0.646-0.576 0.666-0.554 0.013 0.016 0.106 0.131 0.208 0.262zM18.739 16.198c0.934 1.219 1.226 2.755 0.797 4.237-0.096 0.32-0.262 0.701-0.454 1.034-0.157 0.266-0.454 0.675-0.493 0.675-0.013 0-0.17-0.125-0.346-0.275-0.288-0.246-0.32-0.285-0.285-0.333 0.605-0.819 0.854-1.485 0.874-2.352 0.022-0.858-0.24-1.696-0.736-2.349l-0.182-0.24 0.109-0.096c0.285-0.262 0.525-0.464 0.554-0.467 0.019 0 0.090 0.077 0.163 0.166zM17.302 17.238c0.714 0.899 0.854 2.086 0.371 3.107-0.070 0.154-0.32 0.544-0.397 0.627-0.022 0.026-0.262-0.157-0.566-0.435l-0.138-0.125 0.083-0.099c0.122-0.144 0.291-0.496 0.352-0.733 0.061-0.234 0.070-0.72 0.016-0.928-0.080-0.317-0.243-0.656-0.394-0.819-0.035-0.042-0.061-0.080-0.051-0.086 0.051-0.051 0.656-0.563 0.666-0.563 0.006 0 0.032 0.026 0.058 0.054zM15.568 18.483c0.502 0.237 0.618 0.893 0.221 1.277-0.323 0.314-0.79 0.317-1.114 0.003-0.179-0.176-0.259-0.403-0.23-0.653 0.064-0.547 0.627-0.864 1.123-0.627z"></path>
</svg>
