<!-- Generated by IcoMoon.io -->
<svg version="1.1" xmlns="http://www.w3.org/2000/svg" width="32" height="32" viewBox="0 0 32 32">
<title>Silent</title>
<path fill="#ff7900" d="M18.208 4.17c-0.080 0.074-0.387 0.349-0.685 0.614-0.301 0.262-0.688 0.608-0.867 0.768-0.515 0.461-0.717 0.637-2.304 2.048-0.826 0.733-1.562 1.389-1.632 1.453s-0.243 0.214-0.384 0.339c-0.141 0.122-0.262 0.23-0.272 0.24s-0.205 0.186-0.435 0.394l-0.422 0.374h-3.693c-4.026 0-3.856-0.006-4.25 0.182-0.23 0.112-0.57 0.451-0.685 0.685-0.186 0.387-0.179 0.16-0.179 4.707 0 2.922 0.010 4.234 0.035 4.352 0.125 0.595 0.643 1.114 1.238 1.238 0.118 0.026 1.286 0.035 3.85 0.035h3.68l0.71 0.63c0.39 0.349 0.762 0.678 0.822 0.733s0.262 0.234 0.448 0.4c0.186 0.163 0.451 0.4 0.592 0.525 0.141 0.128 0.976 0.87 1.856 1.651s1.616 1.434 1.635 1.453c0.019 0.016 0.141 0.125 0.272 0.24s0.378 0.336 0.547 0.49l0.314 0.282v-11.984c0-6.592-0.010-11.987-0.022-11.987-0.016 0-0.090 0.061-0.17 0.138z"></path>
<path fill="#ff7900" d="M26.294 12.474l-1.491 1.491-1.472-1.469c-0.81-0.81-1.485-1.475-1.501-1.482-0.029-0.010-2.022 1.965-2.022 2.003 0 0.013 0.666 0.688 1.478 1.501l1.482 1.482-1.482 1.482c-0.813 0.813-1.478 1.488-1.478 1.498 0 0.013 0.454 0.474 1.008 1.027l1.005 1.008 1.491-1.488 1.491-1.491 1.494 1.491 1.494 1.494 1.002-1.002c0.547-0.55 0.998-1.014 0.998-1.034s-0.666-0.698-1.478-1.51l-1.475-1.475 1.405-1.405c0.771-0.774 1.443-1.446 1.491-1.498l0.086-0.090-1.018-1.014-1.014-1.014-1.494 1.494z"></path>
</svg>
