<!-- Generated by IcoMoon.io -->
<svg version="1.1" xmlns="http://www.w3.org/2000/svg" width="32" height="32" viewBox="0 0 32 32">
<title>sim</title>
<path fill="#ff7900" d="M9.226 2.445c-0.579 0.141-1.069 0.646-1.19 1.229-0.051 0.24-0.051 24.413 0 24.653 0.125 0.602 0.64 1.114 1.238 1.238 0.122 0.026 2.16 0.035 7.152 0.035 7.6 0 7.114 0.010 7.507-0.179 0.234-0.115 0.573-0.454 0.688-0.688 0.192-0.397 0.179 0.381 0.179-10.627v-10.102l-2.8-2.803-2.803-2.8-4.902 0.003c-3.805 0.003-4.941 0.013-5.069 0.042zM13.6 16.4v2h-4v-1.642c0-1.818 0.003-1.859 0.198-2.074 0.269-0.291 0.195-0.282 2.131-0.285h1.67v2zM18.4 18.8v4.4h-8.8v-4h4.8v-4.8h4v4.4zM22.8 14.512c0.182 0.112 0.326 0.304 0.368 0.483 0.016 0.067 0.032 0.864 0.032 1.763v1.642h-4v-4.003l3.446 0.019 0.154 0.096zM23.2 21.2v2h-4v-4h4v2zM13.6 26v2h-1.67c-1.277-0.003-1.699-0.013-1.789-0.045-0.173-0.061-0.342-0.205-0.438-0.368l-0.086-0.147-0.010-1.722-0.010-1.718h4.003v2zM18.4 26v2h-4v-4h4v2zM23.2 25.642c0 1.779-0.003 1.834-0.173 2.054-0.048 0.061-0.154 0.15-0.237 0.198l-0.15 0.090-3.44 0.019v-4.003h4v1.642z"></path>
</svg>
