<!-- Generated by IcoMoon.io -->
<svg version="1.1" xmlns="http://www.w3.org/2000/svg" width="32" height="32" viewBox="0 0 32 32">
<title>Simplicity</title>
<path fill="#ff7900" d="M15.77 6.595c-0.723 0.614-2.262 2.272-2.826 3.043-0.419 0.576-0.56 0.774-0.758 1.072-0.317 0.467-0.762 1.213-0.762 1.27 0 0.010 0.134 0.106 0.298 0.214 1.402 0.934 2.55 2.16 3.357 3.581 0.339 0.598 0.659 1.322 0.829 1.862 0.042 0.138 0.083 0.25 0.093 0.25s0.058-0.125 0.106-0.282c0.195-0.605 0.47-1.222 0.816-1.83 0.464-0.822 0.957-1.462 1.686-2.195 0.598-0.602 0.97-0.909 1.587-1.325 0.237-0.16 0.4-0.291 0.384-0.307s-0.064-0.093-0.106-0.173c-0.576-1.040-1.494-2.304-2.499-3.44-0.31-0.349-1.421-1.459-1.741-1.738l-0.23-0.202-0.234 0.198z"></path>
<path fill="#ff7900" d="M5.61 14.003c0.010 1.549 0.026 2.893 0.035 2.989 0.042 0.31 0.176 1.066 0.23 1.264 0.029 0.106 0.064 0.25 0.080 0.317 0.125 0.515 0.534 1.488 0.886 2.099 0.947 1.645 2.314 2.954 3.997 3.83 0.829 0.432 1.834 0.778 2.714 0.934 0.106 0.019 0.221 0.042 0.256 0.048s0.157 0.022 0.272 0.035c0.115 0.013 0.237 0.029 0.272 0.035s0.33 0.022 0.656 0.032l0.592 0.022-0.006-0.397c-0.006-0.218-0.013-1.507-0.019-2.861-0.006-1.357-0.019-2.493-0.029-2.528s-0.029-0.15-0.042-0.256c-0.038-0.346-0.176-1.008-0.288-1.386-0.458-1.565-1.264-2.918-2.429-4.090-0.838-0.838-1.594-1.382-2.627-1.891-1.062-0.522-2.138-0.829-3.344-0.957-0.080-0.010-0.387-0.022-0.682-0.035l-0.538-0.016 0.013 2.81z"></path>
<path fill="#ff7900" d="M25.494 11.219c-0.003 0.003-0.122 0.013-0.262 0.022-0.141 0.013-0.285 0.026-0.32 0.035-0.035 0.006-0.144 0.022-0.24 0.035s-0.205 0.029-0.24 0.035c-1.626 0.301-3.101 0.97-4.4 1.997-0.413 0.33-1.184 1.098-1.51 1.504-0.845 1.062-1.45 2.25-1.789 3.514-0.086 0.323-0.208 0.934-0.237 1.174-0.013 0.106-0.029 0.227-0.042 0.272-0.010 0.045-0.022 1.366-0.029 2.941l-0.013 2.861 0.586-0.019c0.323-0.013 0.614-0.029 0.65-0.035s0.15-0.022 0.256-0.035c1.178-0.131 2.528-0.586 3.616-1.21 1.293-0.746 2.298-1.67 3.232-2.982 0.17-0.237 0.458-0.739 0.656-1.136 0.346-0.694 0.544-1.235 0.72-1.968 0.253-1.050 0.266-1.229 0.269-4.346l0.003-2.682-0.448 0.006c-0.246 0.006-0.454 0.013-0.458 0.016z"></path>
<path fill="#ff7900" d="M1.613 17.254c0.013 0.253 0.029 0.486 0.035 0.522s0.022 0.147 0.032 0.25c0.010 0.102 0.026 0.205 0.032 0.224 0.006 0.022 0.019 0.090 0.029 0.15 0.061 0.41 0.234 1.072 0.406 1.552 0.17 0.464 0.198 0.534 0.451 1.040 1.322 2.669 3.891 4.611 6.89 5.213 0.346 0.067 0.442 0.083 0.736 0.115 0.106 0.013 0.227 0.029 0.272 0.042 0.093 0.019 4.438 0.051 4.416 0.029-0.010-0.010-0.138-0.022-0.288-0.035-2.013-0.154-4.134-0.986-5.744-2.253-0.934-0.739-1.92-1.802-2.573-2.781-0.576-0.864-0.989-1.821-1.245-2.89-0.115-0.48-0.179-0.854-0.25-1.45l-0.019-0.182h-3.2l0.019 0.454z"></path>
<path fill="#ff7900" d="M27.197 16.838c0 0.022-0.006 0.083-0.013 0.138-0.006 0.051-0.022 0.182-0.032 0.288-0.083 0.822-0.394 1.958-0.762 2.8-0.685 1.568-2.256 3.386-3.862 4.467-1.533 1.030-3.162 1.616-5.072 1.821-0.346 0.038-0.182 0.042 1.664 0.042 2.24 0 2.554-0.019 3.453-0.202 1.763-0.362 3.494-1.251 4.768-2.448 1.229-1.158 2.080-2.48 2.582-4.010 0.192-0.582 0.336-1.213 0.4-1.718 0.010-0.096 0.026-0.211 0.029-0.256 0.006-0.045 0.022-0.278 0.035-0.522l0.022-0.438h-1.606c-1.261 0-1.603 0.010-1.606 0.038z"></path>
</svg>
