<!-- Generated by IcoMoon.io -->
<svg version="1.1" xmlns="http://www.w3.org/2000/svg" width="32" height="32" viewBox="0 0 32 32">
<title>simple_mode</title>
<path fill="#ff7900" d="M9.238 2.435c-0.461 0.109-0.845 0.406-1.062 0.819-0.189 0.365-0.176-0.573-0.176 12.73 0 13.325-0.013 12.352 0.179 12.749 0.106 0.218 0.445 0.563 0.672 0.682 0.374 0.202-0.102 0.189 7.155 0.189 6.090 0.003 6.63-0.003 6.8-0.051 0.477-0.138 0.822-0.432 1.043-0.88l0.134-0.272v-24.768l-0.080-0.202c-0.17-0.432-0.502-0.758-0.954-0.941l-0.182-0.074-6.704-0.006c-3.888 0-6.755 0.010-6.826 0.026zM17.318 3.235c0.31 0.080 0.365 0.528 0.083 0.701-0.102 0.061-0.157 0.064-1.386 0.064-1.155 0-1.29-0.006-1.392-0.058-0.298-0.147-0.269-0.621 0.042-0.704 0.141-0.038 2.506-0.042 2.653-0.003zM22.4 15.6v10.8h-12.8v-21.6h12.8v10.8zM16.371 27.29c0.406 0.208 0.544 0.739 0.291 1.117-0.144 0.214-0.333 0.333-0.566 0.352-0.352 0.032-0.614-0.099-0.79-0.4-0.115-0.195-0.122-0.528-0.019-0.726 0.211-0.4 0.685-0.55 1.085-0.342z"></path>
<path fill="#ff7900" d="M13.11 12.038c-0.781 0.31-0.995 1.299-0.41 1.882 0.221 0.221 0.426 0.32 0.707 0.342 0.608 0.051 1.133-0.342 1.245-0.931 0.096-0.515-0.154-1.008-0.643-1.254-0.243-0.125-0.637-0.141-0.899-0.038z"></path>
<path fill="#ff7900" d="M18.048 12.022c-0.797 0.288-1.046 1.251-0.486 1.872 0.621 0.685 1.76 0.394 1.968-0.506 0.125-0.531-0.106-1.034-0.589-1.293-0.173-0.090-0.237-0.106-0.474-0.115-0.198-0.010-0.317 0.003-0.419 0.042z"></path>
<path fill="#ff7900" d="M12.499 16.592c-0.262 0.093-0.429 0.342-0.458 0.688-0.026 0.298 0.045 0.499 0.262 0.768 0.749 0.925 1.61 1.459 2.749 1.702 0.429 0.093 1.293 0.099 1.747 0.016 0.816-0.15 1.616-0.538 2.208-1.062 0.253-0.224 0.317-0.291 0.566-0.595s0.304-0.413 0.323-0.653c0.042-0.534-0.272-0.912-0.758-0.912-0.314 0-0.518 0.125-0.851 0.522-1.19 1.418-3.251 1.491-4.493 0.16-0.445-0.474-0.522-0.544-0.656-0.611-0.163-0.083-0.445-0.093-0.64-0.022z"></path>
</svg>
