<!-- Generated by IcoMoon.io -->
<svg version="1.1" xmlns="http://www.w3.org/2000/svg" width="32" height="32" viewBox="0 0 32 32">
<title>Skip_backward</title>
<path fill="#ff7900" d="M2.816 16.016v10h7.2l0.006-4.634 0.010-4.63 0.464 0.451c0.256 0.25 0.544 0.528 0.64 0.621 0.144 0.138 1.018 0.982 1.955 1.888 0.099 0.096 0.518 0.499 0.928 0.896s0.934 0.902 1.162 1.123c0.23 0.224 0.544 0.528 0.698 0.672 0.426 0.413 1.645 1.59 1.866 1.805 0.109 0.106 0.547 0.531 0.976 0.944s0.806 0.781 0.838 0.813c0.054 0.061 0.058-0.070 0.058-4.579v-4.643l0.17 0.16c0.090 0.090 0.346 0.336 0.566 0.55 0.694 0.672 1.466 1.418 2.288 2.211 0.438 0.422 0.986 0.95 1.216 1.171 0.227 0.224 0.509 0.496 0.624 0.605s0.547 0.528 0.96 0.928c0.413 0.4 0.832 0.803 0.928 0.896s0.528 0.509 0.96 0.928c0.432 0.416 0.848 0.819 0.928 0.896 0.080 0.074 0.326 0.317 0.554 0.538l0.406 0.403v-20.022l-0.342 0.336c-0.192 0.182-0.467 0.451-0.618 0.592-0.307 0.294-0.416 0.4-1.267 1.213-0.333 0.32-0.669 0.643-0.749 0.717-0.138 0.128-0.442 0.419-1.2 1.149-0.493 0.474-1.603 1.536-1.779 1.702-0.083 0.077-0.429 0.41-0.768 0.736-0.342 0.326-0.659 0.63-0.704 0.672-0.128 0.118-1.373 1.312-1.789 1.715l-0.368 0.358-0.010-4.595-0.006-4.595-0.282 0.275c-0.154 0.147-0.342 0.333-0.422 0.406-0.080 0.077-0.438 0.419-0.797 0.765-0.362 0.346-0.707 0.678-0.771 0.739-0.768 0.73-1.744 1.664-2.445 2.339-0.195 0.186-0.422 0.403-0.502 0.48-0.083 0.077-0.419 0.403-0.752 0.723-0.333 0.317-0.662 0.634-0.733 0.698-0.234 0.221-1.85 1.766-2.477 2.374l-0.403 0.387-0.010-4.589-0.006-4.589h-7.2v10z"></path>
</svg>
