<!-- Generated by IcoMoon.io -->
<svg version="1.1" xmlns="http://www.w3.org/2000/svg" width="32" height="32" viewBox="0 0 32 32">
<title>Skip_forward</title>
<path fill="#ff7900" d="M2.816 16.013c0 8.384 0.006 10 0.042 9.965 0.179-0.173 1.699-1.645 1.843-1.782 0.24-0.23 1.664-1.603 2.243-2.166 0.256-0.25 0.515-0.499 0.576-0.557s0.474-0.454 0.912-0.88c0.442-0.429 0.874-0.845 0.96-0.928 0.090-0.083 0.528-0.509 0.976-0.944 0.877-0.848 1.478-1.43 1.821-1.757l0.211-0.202 0.010 4.63 0.006 4.634 0.378-0.368c0.205-0.205 0.442-0.432 0.522-0.509s0.502-0.49 0.944-0.912c0.438-0.426 0.88-0.851 0.982-0.95 0.102-0.096 0.541-0.518 0.973-0.941 0.432-0.419 0.854-0.826 0.938-0.906s0.515-0.499 0.963-0.931c0.448-0.432 0.87-0.838 0.938-0.906 0.067-0.064 0.486-0.467 0.928-0.896s0.854-0.826 0.915-0.883c0.061-0.058 0.33-0.317 0.598-0.579s0.496-0.477 0.506-0.477c0.010 0 0.016 2.080 0.016 4.624v4.624h7.2v-20h-7.2v9.194l-0.278-0.272c-0.157-0.15-0.448-0.429-0.646-0.621-0.314-0.298-0.666-0.634-1.251-1.197-0.064-0.061-0.403-0.387-0.755-0.72-0.349-0.336-0.794-0.762-0.989-0.95-0.192-0.186-0.41-0.394-0.48-0.458-0.070-0.067-0.41-0.39-0.752-0.72s-0.688-0.659-0.768-0.736c-0.141-0.131-1.152-1.101-1.76-1.683-0.166-0.163-0.355-0.342-0.419-0.4-0.112-0.106-1.373-1.315-1.456-1.398-0.038-0.035-0.045 0.701-0.051 4.55l-0.010 4.592-0.387-0.374c-0.429-0.419-1.59-1.533-1.789-1.718-0.070-0.064-0.416-0.394-0.765-0.733-0.352-0.336-0.685-0.656-0.742-0.707-0.054-0.054-0.378-0.365-0.72-0.691-0.342-0.33-0.672-0.643-0.733-0.701s-0.39-0.371-0.733-0.701c-0.842-0.806-0.97-0.931-1.61-1.539-0.304-0.291-0.704-0.675-0.89-0.851-0.186-0.179-0.406-0.394-0.496-0.477-0.086-0.083-0.285-0.272-0.438-0.422l-0.282-0.275v10.006z"></path>
</svg>
