<!-- Generated by IcoMoon.io -->
<svg version="1.1" xmlns="http://www.w3.org/2000/svg" width="32" height="32" viewBox="0 0 32 32">
<title>Sleep</title>
<path fill="#ff7900" d="M14.624 2.458c-0.24 0.019-1.053 0.144-1.328 0.202-0.157 0.035-0.352 0.077-0.432 0.093-0.381 0.077-1.382 0.394-1.917 0.605-0.438 0.176-1.059 0.47-1.507 0.72-1.878 1.034-3.552 2.573-4.758 4.371-1.194 1.782-2.010 4.045-2.202 6.096-0.013 0.122-0.029 0.266-0.038 0.32-0.029 0.182-0.035 1.792-0.010 2.096 0.070 0.768 0.080 0.848 0.182 1.424 0.394 2.237 1.389 4.422 2.806 6.16 1.44 1.766 3.251 3.126 5.347 4.010 0.954 0.403 2.282 0.774 3.232 0.899 0.070 0.010 0.23 0.032 0.352 0.048 0.611 0.083 2.118 0.115 2.736 0.058 0.893-0.083 1.686-0.221 2.448-0.426 4.563-1.229 8.189-4.774 9.517-9.315 0.154-0.525 0.304-1.194 0.371-1.648 0.029-0.182 0.058-0.365 0.064-0.41s0.022-0.182 0.032-0.304c0.013-0.125 0.029-0.25 0.035-0.282 0.029-0.099-0.032-0.054-0.211 0.157-0.202 0.237-0.65 0.675-0.976 0.96-1.338 1.155-3.002 1.962-4.784 2.314-0.72 0.141-1.098 0.176-2 0.173-0.998 0-1.437-0.048-2.32-0.25-2.47-0.56-4.669-2.042-6.163-4.144-0.979-1.376-1.632-3.072-1.824-4.733-0.010-0.096-0.026-0.202-0.035-0.24-0.029-0.128-0.035-1.603-0.010-1.875 0.141-1.392 0.442-2.499 1.008-3.67 0.602-1.254 1.427-2.333 2.544-3.331 0.109-0.096 0.109-0.099 0.032-0.093-0.045 0.003-0.131 0.010-0.192 0.016z"></path>
<path fill="#ff7900" d="M25.76 2.662c-0.144 0.31-0.768 1.606-0.89 1.85l-0.118 0.24-0.224 0.035c-0.912 0.147-2.362 0.397-2.378 0.41-0.010 0.010 0.163 0.166 1.082 0.982 0.326 0.288 0.653 0.582 0.73 0.653l0.138 0.128-0.326 1.29c-0.176 0.71-0.317 1.299-0.307 1.306 0.013 0.016 0.365-0.166 0.573-0.298 0.067-0.042 0.128-0.074 0.138-0.074s0.141-0.070 0.294-0.154c0.157-0.086 0.397-0.218 0.538-0.294 0.141-0.074 0.301-0.16 0.352-0.192 0.326-0.189 0.522-0.282 0.547-0.256 0.016 0.013 0.109 0.070 0.205 0.122 0.534 0.288 1.92 1.046 2.010 1.101 0.058 0.035 0.115 0.058 0.125 0.045 0.013-0.010-0.125-0.598-0.304-1.306l-0.323-1.29 0.138-0.128c0.125-0.115 0.736-0.659 0.902-0.806 0.038-0.032 0.189-0.166 0.336-0.298s0.342-0.307 0.435-0.39l0.166-0.15-0.102-0.019c-0.058-0.010-0.317-0.051-0.582-0.096-0.262-0.042-0.81-0.131-1.213-0.198l-0.733-0.122-0.358-0.736c-0.195-0.403-0.442-0.912-0.544-1.13-0.102-0.214-0.195-0.39-0.205-0.39-0.013 0-0.054 0.077-0.099 0.166z"></path>
<path fill="#ff7900" d="M18.998 11.446c-0.096 0.208-0.272 0.573-0.387 0.813l-0.211 0.435-0.422 0.070c-0.534 0.090-0.506 0.086-1.002 0.166-0.227 0.038-0.426 0.080-0.442 0.090-0.013 0.013 0.074 0.109 0.192 0.218 0.25 0.218 1.174 1.040 1.187 1.050 0.003 0.003-0.099 0.432-0.23 0.954-0.221 0.89-0.237 1.021-0.128 0.922 0.016-0.013 0.122-0.077 0.237-0.138s0.477-0.259 0.806-0.438l0.602-0.33 0.422 0.23c0.234 0.128 0.518 0.285 0.634 0.346s0.307 0.17 0.429 0.237c0.122 0.067 0.23 0.118 0.243 0.115 0.010-0.006-0.086-0.435-0.214-0.954-0.221-0.886-0.23-0.947-0.179-0.986 0.032-0.022 0.115-0.096 0.186-0.16 0.070-0.067 0.362-0.326 0.65-0.579 0.285-0.253 0.518-0.467 0.518-0.48s-0.112-0.038-0.246-0.058c-0.211-0.032-0.41-0.064-1.098-0.182-0.045-0.006-0.186-0.032-0.314-0.051l-0.234-0.038-0.186-0.387c-0.422-0.89-0.595-1.238-0.611-1.238-0.013 0-0.102 0.17-0.202 0.374z"></path>
</svg>
