<!-- Generated by IcoMoon.io -->
<svg version="1.1" xmlns="http://www.w3.org/2000/svg" width="32" height="32" viewBox="0 0 32 32">
<title>Smart_heating_switch</title>
<path fill="#ff7900" d="M5.206 4.048c-0.582 0.16-1.053 0.653-1.171 1.226-0.026 0.122-0.035 3.133-0.035 10.752 0 9.059 0.006 10.608 0.048 10.755 0.157 0.592 0.643 1.062 1.226 1.184 0.24 0.051 21.213 0.051 21.453 0 0.611-0.128 1.13-0.653 1.238-1.258 0.026-0.138 0.035-3.286 0.035-10.752 0-9.043-0.006-10.589-0.048-10.736-0.157-0.592-0.64-1.059-1.226-1.184-0.269-0.058-21.312-0.045-21.52 0.013zM16.736 8.848c0.746 0.086 1.472 0.301 2.128 0.63 0.685 0.346 1.13 0.675 1.715 1.274 1.549 1.578 2.16 3.818 1.632 5.984-0.486 1.987-1.942 3.654-3.859 4.416-1.059 0.419-2.349 0.55-3.472 0.349-1.283-0.23-2.499-0.867-3.43-1.798-0.627-0.627-1.206-1.568-1.51-2.451-0.394-1.139-0.435-2.512-0.118-3.731 0.477-1.811 1.888-3.44 3.629-4.189 0.579-0.25 1.261-0.432 1.798-0.483 0.125-0.013 0.227-0.026 0.23-0.029 0.038-0.032 0.912-0.013 1.258 0.029zM20 23.6v0.4h0.8v0.8h-0.8v0.8h-0.8v-0.8h-0.8v-0.8h0.8v-0.8h0.8v0.4zM13.6 24.4v0.4h-2.4v-0.8h2.4v0.4z"></path>
<path fill="#ff7900" d="M18.192 10.442c-0.208 0.083-0.275 0.166-0.618 0.752-0.614 1.059-0.8 1.395-0.822 1.498-0.026 0.131 0.026 0.342 0.118 0.48s0.346 0.269 0.518 0.269c0.157 0 0.362-0.090 0.454-0.195 0.038-0.042 0.32-0.509 0.624-1.037 0.55-0.95 0.557-0.963 0.557-1.152 0-0.246-0.077-0.406-0.262-0.531-0.16-0.112-0.413-0.15-0.57-0.083z"></path>
</svg>
