<!-- Generated by IcoMoon.io -->
<svg version="1.1" xmlns="http://www.w3.org/2000/svg" width="32" height="32" viewBox="0 0 32 32">
<title>smart_powerstation</title>
<path fill="#ff7900" d="M15.632 2.419c-0.717 0.106-1.293 0.368-1.798 0.829-0.214 0.192-0.502 0.56-0.614 0.781l-0.074 0.138-0.211-0.218c-0.506-0.515-1.091-0.755-1.795-0.736-0.65 0.016-1.168 0.237-1.629 0.688-0.435 0.432-0.71 1.072-0.71 1.664 0 0.163-0.003 0.17-0.070 0.15-0.451-0.128-0.944-0.141-1.338-0.038-0.4 0.106-0.829 0.362-1.133 0.675-1.024 1.062-0.813 2.854 0.429 3.648 0.269 0.17 0.394 0.227 0.714 0.323l0.262 0.077h7.718l0.054 0.646c0.032 0.358 0.064 0.678 0.067 0.714 0.006 0.035 0.019 0.179 0.032 0.32s0.029 0.285 0.032 0.32c0.006 0.035 0.019 0.166 0.029 0.291 0.013 0.125 0.026 0.256 0.032 0.288 0.006 0.035 0.022 0.189 0.035 0.342l0.022 0.282 3.395-0.013c3.619-0.013 3.456-0.003 3.882-0.16 0.643-0.237 1.226-0.755 1.53-1.363 0.717-1.434 0.122-3.142-1.331-3.808-0.326-0.15-0.752-0.253-1.056-0.259h-0.086l0.125-0.234c0.608-1.13 0.083-2.442-1.152-2.877-0.262-0.093-0.778-0.106-1.085-0.022-0.237 0.064-0.49 0.176-0.65 0.291-0.090 0.061-0.090 0.061-0.090 0 0-0.15-0.163-0.688-0.282-0.928-0.192-0.39-0.342-0.602-0.63-0.886-0.477-0.477-0.998-0.752-1.696-0.896-0.125-0.026-0.803-0.048-0.928-0.029z"></path>
<path fill="#ff7900" d="M4.691 12.134c-0.010 0.077-0.026 0.208-0.035 0.298-0.045 0.483-0.115 1.168-0.128 1.264-0.026 0.234-0.064 0.563-0.096 0.88-0.010 0.106-0.032 0.301-0.048 0.432s-0.038 0.32-0.048 0.416c-0.010 0.096-0.038 0.342-0.064 0.544s-0.054 0.454-0.064 0.56c-0.010 0.106-0.026 0.243-0.032 0.304-0.010 0.061-0.022 0.176-0.032 0.256s-0.022 0.195-0.032 0.256c-0.006 0.061-0.022 0.192-0.032 0.288s-0.026 0.227-0.032 0.288c-0.032 0.256-0.048 0.387-0.096 0.784-0.026 0.227-0.061 0.525-0.080 0.656-0.016 0.131-0.054 0.419-0.080 0.64-0.029 0.221-0.058 0.435-0.064 0.48s-0.029 0.202-0.048 0.352c-0.016 0.15-0.038 0.307-0.045 0.352s-0.022 0.147-0.032 0.227c-0.013 0.080-0.026 0.182-0.032 0.224-0.010 0.042-0.022 0.144-0.032 0.224-0.013 0.080-0.026 0.182-0.035 0.224-0.032 0.208-0.080 0.541-0.096 0.669-0.026 0.189-0.234 1.536-0.272 1.76-0.019 0.096-0.090 0.534-0.16 0.976-0.163 1.021-0.189 1.168-0.208 1.264-0.010 0.045-0.038 0.202-0.064 0.352s-0.077 0.445-0.112 0.656c-0.038 0.211-0.077 0.426-0.083 0.48-0.010 0.051-0.038 0.205-0.064 0.336-0.032 0.166-0.045 0.483-0.045 1.030v0.794h27.2v-8.8h-1.6v-6.4h-1.6v6.4h-3.766l-0.038-0.25c-0.022-0.134-0.051-0.32-0.067-0.406-0.019-0.090-0.074-0.442-0.128-0.784s-0.109-0.698-0.128-0.784c-0.016-0.090-0.035-0.218-0.045-0.288-0.019-0.118-0.093-0.595-0.336-2.096-0.054-0.326-0.134-0.822-0.179-1.104s-0.090-0.55-0.099-0.602l-0.019-0.086h-5.722l0.013 0.118c0.013 0.102 0.070 0.614 0.134 1.162 0.006 0.080 0.022 0.195 0.029 0.256 0.010 0.061 0.026 0.182 0.035 0.272 0.016 0.157 0.026 0.25 0.061 0.512 0.006 0.070 0.022 0.192 0.029 0.272 0.010 0.080 0.038 0.323 0.067 0.544 0.026 0.221 0.054 0.464 0.064 0.544s0.026 0.202 0.035 0.272c0.006 0.070 0.019 0.17 0.026 0.224 0.022 0.192 0.15 1.155 0.163 1.232 0.006 0.045 0.035 0.246 0.064 0.448 0.026 0.202 0.086 0.611 0.131 0.912 0.099 0.678 0.301 1.994 0.317 2.086 0.006 0.038 0.026 0.182 0.048 0.32 0.019 0.138 0.048 0.32 0.067 0.41 0.016 0.086 0.125 0.73 0.24 1.424s0.221 1.328 0.237 1.408c0.013 0.080 0.064 0.358 0.109 0.624 0.048 0.262 0.093 0.499 0.099 0.518 0.010 0.032-0.163 0.042-0.8 0.042-0.746 0-0.813-0.003-0.829-0.058-0.022-0.074-0.333-1.859-0.528-3.046-0.141-0.864-0.202-1.245-0.323-2.016-0.035-0.214-0.211-1.402-0.24-1.6-0.010-0.061-0.022-0.147-0.032-0.192-0.006-0.045-0.022-0.154-0.032-0.24-0.010-0.090-0.048-0.362-0.083-0.608s-0.077-0.55-0.093-0.672c-0.016-0.125-0.045-0.346-0.064-0.496s-0.042-0.323-0.048-0.384c-0.026-0.198-0.138-1.13-0.16-1.328-0.013-0.102-0.026-0.211-0.032-0.24-0.003-0.026-0.019-0.15-0.029-0.272-0.013-0.125-0.029-0.259-0.035-0.304s-0.019-0.144-0.029-0.224c-0.010-0.080-0.032-0.266-0.048-0.416-0.019-0.15-0.042-0.358-0.051-0.464-0.013-0.106-0.026-0.227-0.032-0.272-0.016-0.102-0.038-0.291-0.080-0.688-0.019-0.176-0.042-0.365-0.048-0.416-0.006-0.054-0.022-0.182-0.032-0.288-0.013-0.106-0.026-0.227-0.032-0.272s-0.022-0.195-0.035-0.336c-0.010-0.141-0.026-0.282-0.032-0.317-0.010-0.058-0.026-0.202-0.061-0.547-0.045-0.474-0.083-0.816-0.099-0.954l-0.022-0.15h-9.2l-0.019 0.134zM21.6 24.8v0.8h-1.6v-1.6h1.6v0.8zM24.8 24.8v0.8h-1.6v-1.6h1.6v0.8zM28 24.8v0.8h-1.6v-1.6h1.6v0.8zM21.6 28v0.8h-1.6v-1.6h1.6v0.8zM24.8 28v0.8h-1.6v-1.6h1.6v0.8zM28 28v0.8h-1.6v-1.6h1.6v0.8z"></path>
</svg>
