<!-- Generated by IcoMoon.io -->
<svg version="1.1" xmlns="http://www.w3.org/2000/svg" width="32" height="32" viewBox="0 0 32 32">
<title>smart_watch</title>
<path fill="#ff7900" d="M11.606 1.648c-0.579 0.16-1.053 0.653-1.171 1.226-0.022 0.112-0.035 0.746-0.035 1.846v1.68h9.6v-1.706c-0.003-1.843-0.003-1.866-0.179-2.227-0.115-0.234-0.454-0.573-0.685-0.685-0.394-0.189-0.25-0.182-3.968-0.179-2.704 0.003-3.44 0.013-3.562 0.045z"></path>
<path fill="#ff7900" d="M7.626 7.245c-0.586 0.144-1.085 0.666-1.19 1.248-0.048 0.269-0.048 14.746 0 15.014 0.112 0.614 0.64 1.142 1.261 1.261 0.141 0.026 2.195 0.032 7.632 0.026l7.44-0.010 0.198-0.083c0.55-0.237 0.922-0.691 1.014-1.245 0.010-0.045 0.016-1.92 0.016-4.17l0.003-4.086h0.64c0.704 0 0.768-0.013 0.893-0.189 0.064-0.090 0.067-0.134 0.067-0.995 0-0.995-0.006-1.034-0.202-1.152-0.093-0.058-0.163-0.064-0.749-0.064h-0.65v-2.080c0-1.389-0.013-2.134-0.035-2.246-0.125-0.595-0.643-1.114-1.238-1.238-0.259-0.054-14.874-0.045-15.101 0.010zM22.4 16v7.2h-14.4v-14.4h14.4v7.2z"></path>
<path fill="#ff7900" d="M14.922 9.654c-0.077 0.026-0.198 0.109-0.278 0.182-0.259 0.253-0.246 0.064-0.237 3.43l0.010 2.973 0.086 0.144c0.048 0.080 0.829 0.886 1.776 1.827 1.523 1.517 1.706 1.69 1.846 1.738 0.192 0.064 0.317 0.064 0.506 0.006 0.195-0.058 0.362-0.189 0.467-0.368 0.074-0.125 0.086-0.182 0.086-0.387s-0.016-0.266-0.086-0.384c-0.048-0.080-0.765-0.819-1.59-1.648l-1.507-1.504v-2.691c0-3.034 0.013-2.883-0.243-3.136-0.214-0.218-0.541-0.288-0.835-0.182z"></path>
<path fill="#ff7900" d="M10.4 27.28c0 1.101 0.013 1.734 0.035 1.846 0.128 0.611 0.672 1.146 1.27 1.245 0.106 0.016 1.578 0.029 3.542 0.029 3.651 0 3.507 0.006 3.885-0.182 0.218-0.109 0.57-0.451 0.666-0.65 0.202-0.41 0.186-0.237 0.195-2.186l0.010-1.782h-9.603v1.68z"></path>
</svg>
