<!-- Generated by IcoMoon.io -->
<svg version="1.1" xmlns="http://www.w3.org/2000/svg" width="32" height="32" viewBox="0 0 32 32">
<title>Smart_Sensor</title>
<path fill="#ff7900" d="M7.312 4.064c-1.226 0.218-2.294 1.002-2.858 2.096-0.202 0.387-0.282 0.624-0.41 1.2-0.016 0.061-0.032 4.73-0.035 10.378l-0.010 10.262h10.131c8.989 0 10.17-0.006 10.467-0.051 1.472-0.218 2.717-1.264 3.194-2.682 0.045-0.131 0.106-0.336 0.134-0.458 0.051-0.202 0.054-0.934 0.064-10.515l0.010-10.294-10.182 0.003c-9.622 0.003-10.205 0.006-10.506 0.061zM10.736 9.648c1.062 0.102 2.006 0.304 2.966 0.627 2.845 0.954 5.338 2.954 6.864 5.501 0.253 0.419 0.294 0.499 0.509 0.928 0.624 1.258 0.989 2.438 1.213 3.952 0.006 0.051 0.022 0.189 0.035 0.304 0.010 0.115 0.022 0.24 0.029 0.282s0.022 0.32 0.035 0.618l0.022 0.541h-2.218l-0.003-0.234c-0.003-0.125-0.006-0.266-0.010-0.31-0.006-0.045-0.019-0.224-0.032-0.4-0.029-0.429-0.131-1.062-0.246-1.546-0.458-1.904-1.395-3.581-2.774-4.963-0.461-0.461-0.518-0.512-0.902-0.819-1.152-0.925-2.47-1.59-3.888-1.968-0.55-0.147-1.261-0.272-1.744-0.307-0.166-0.013-0.326-0.026-0.352-0.032-0.026-0.003-0.182-0.010-0.342-0.010l-0.298-0.003v-2.214l0.506 0.022c0.275 0.010 0.56 0.026 0.63 0.032zM10.528 13.741c0.045 0.006 0.16 0.022 0.256 0.035 0.717 0.083 1.683 0.358 2.413 0.694 1.011 0.461 1.843 1.050 2.63 1.853 0.557 0.566 0.941 1.072 1.322 1.738 0.141 0.243 0.451 0.864 0.451 0.902 0 0.010 0.035 0.093 0.077 0.182 0.179 0.39 0.429 1.315 0.512 1.891 0.061 0.413 0.083 0.662 0.096 1.053l0.013 0.31-1.107-0.006-1.107-0.010-0.010-0.272c-0.099-2.934-2.234-5.466-5.13-6.077-0.166-0.035-0.413-0.074-0.544-0.086s-0.262-0.026-0.288-0.032c-0.026-0.003-0.154-0.010-0.278-0.010l-0.234-0.003v-2.218l0.426 0.022c0.23 0.010 0.458 0.026 0.502 0.032zM10.323 17.846c1.562 0.25 2.88 1.28 3.494 2.73 0.211 0.499 0.342 1.075 0.355 1.574l0.006 0.25h-2.202l-0.019-0.25c-0.054-0.685-0.426-1.328-1.008-1.738-0.32-0.227-0.858-0.41-1.213-0.419l-0.138-0.003v-2.202l0.23 0.006c0.125 0.003 0.349 0.026 0.493 0.051z"></path>
</svg>
