<!-- Generated by IcoMoon.io -->
<svg version="1.1" xmlns="http://www.w3.org/2000/svg" width="32" height="32" viewBox="0 0 32 32">
<title>smart_lightswitch</title>
<path fill="#ff7900" d="M4.557 4.045c-0.186 0.058-0.352 0.195-0.454 0.368l-0.086 0.147-0.010 11.376c-0.006 12.771-0.032 11.562 0.234 11.827 0.262 0.259-0.886 0.237 11.776 0.237 10.397 0 11.312-0.003 11.456-0.051 0.163-0.058 0.362-0.23 0.454-0.403 0.054-0.102 0.058-0.589 0.067-11.478 0.003-7.382-0.003-11.411-0.026-11.488-0.045-0.17-0.208-0.374-0.378-0.477l-0.15-0.086-11.376-0.006c-9.238-0.003-11.402 0.003-11.507 0.035zM18.8 9.712c0.182 0.112 0.326 0.304 0.368 0.483 0.019 0.074 0.032 2.522 0.032 5.846v5.722l-0.083 0.173c-0.045 0.096-0.134 0.218-0.198 0.272-0.24 0.198-0.189 0.195-3.005 0.186l-2.56-0.010-0.154-0.096c-0.182-0.112-0.326-0.304-0.368-0.483-0.019-0.074-0.032-2.512-0.032-5.824 0-6.266-0.013-5.85 0.192-6.099 0.054-0.064 0.173-0.154 0.266-0.198l0.166-0.083 5.222 0.016 0.154 0.096zM8.496 14.48c0.090 0.029 0.195 0.077 0.237 0.102 0.077 0.048 0.070 0.054-1.008 1.133-0.595 0.595-1.094 1.085-1.104 1.085-0.032 0-0.125-0.243-0.176-0.448-0.202-0.829 0.333-1.693 1.181-1.907 0.211-0.054 0.659-0.035 0.87 0.035zM24.576 14.512c0.125 0.048 0.224 0.096 0.224 0.106 0 0.035-2.173 2.198-2.189 2.182-0.006-0.010-0.051-0.109-0.099-0.224-0.102-0.253-0.134-0.691-0.067-0.944 0.154-0.586 0.586-1.021 1.171-1.184 0.259-0.070 0.678-0.045 0.96 0.064zM9.475 15.398c0.096 0.256 0.096 0.25 0.109 0.557 0.048 0.931-0.768 1.715-1.706 1.635-0.227-0.019-0.483-0.093-0.611-0.173-0.077-0.048-0.070-0.054 1.008-1.133 0.595-0.595 1.094-1.085 1.104-1.085 0.013 0 0.054 0.090 0.096 0.198zM25.488 15.43c0.102 0.262 0.131 0.589 0.074 0.89-0.154 0.835-1.053 1.43-1.882 1.248-0.173-0.038-0.48-0.16-0.48-0.189 0-0.026 2.154-2.179 2.179-2.179 0.010 0 0.061 0.106 0.109 0.23z"></path>
<path fill="#ff7900" d="M13.6 15.2v4.8h4.8v-9.6h-4.8v4.8z"></path>
</svg>
