<!-- Generated by IcoMoon.io -->
<svg version="1.1" xmlns="http://www.w3.org/2000/svg" width="32" height="32" viewBox="0 0 32 32">
<title>smart_home</title>
<path fill="#ff7900" d="M15.376 4.547c-0.381 0.080-0.464 0.109-0.784 0.266-0.512 0.253-0.573 0.307-2.381 2.122-0.742 0.742-3.072 3.078-5.184 5.194l-3.834 3.84h4.806v4.928c0 4.381 0.006 4.957 0.051 5.178 0.182 0.89 0.822 1.574 1.731 1.853 0.176 0.051 0.538 0.058 6.106 0.064 5.36 0.010 5.942 0.006 6.176-0.042 0.992-0.202 1.741-0.976 1.904-1.968 0.019-0.134 0.032-1.891 0.032-5.107v-4.906l4.781-0.016-5.379-5.382c-5.808-5.811-5.584-5.6-6.16-5.837-0.406-0.166-0.704-0.23-1.162-0.24-0.32-0.006-0.483 0.006-0.704 0.054zM10.784 17.68c1.472 0.214 2.733 0.714 3.917 1.546 0.461 0.323 1.226 1.027 1.613 1.485 1.254 1.475 1.978 3.322 2.074 5.299l0.019 0.39h-1.446v-0.202c-0.003-0.234-0.022-0.477-0.064-0.742-0.019-0.106-0.042-0.243-0.051-0.304-0.029-0.186-0.141-0.608-0.243-0.912-0.768-2.307-2.797-4.266-5.104-4.925-0.566-0.163-0.954-0.23-1.52-0.262l-0.378-0.022v-1.437l0.442 0.022c0.24 0.010 0.576 0.038 0.742 0.064zM10.054 20.557c2.227 0.134 4.304 1.715 5.059 3.85 0.234 0.662 0.368 1.418 0.346 1.936-0.003 0.054-0.058 0.058-0.701 0.058h-0.701l-0.019-0.314c-0.067-1.082-0.509-2.064-1.27-2.822-0.64-0.64-1.386-1.030-2.314-1.213-0.32-0.061-0.592-0.096-0.765-0.099h-0.086v-0.694c-0.003-0.688 0.006-0.758 0.106-0.73 0.019 0.006 0.176 0.019 0.346 0.029zM10.157 23.523c0.698 0.122 1.43 0.605 1.843 1.213 0.32 0.474 0.48 0.928 0.528 1.51l0.010 0.154h-1.453l-0.042-0.24c-0.070-0.432-0.33-0.813-0.688-1.024-0.163-0.096-0.518-0.205-0.666-0.208h-0.090v-1.472l0.186 0.016c0.099 0.010 0.266 0.032 0.371 0.051z"></path>
</svg>
