<!-- Generated by IcoMoon.io -->
<svg version="1.1" xmlns="http://www.w3.org/2000/svg" width="32" height="32" viewBox="0 0 32 32">
<title>Smart_electric_meter</title>
<path fill="#ff7900" d="M15.197 2.413c-0.006 0.006-0.141 0.022-0.301 0.032-2.256 0.173-4.506 0.957-6.432 2.237-2.64 1.757-4.614 4.429-5.501 7.446-0.208 0.704-0.39 1.562-0.451 2.128-0.013 0.106-0.029 0.227-0.035 0.272-0.093 0.579-0.080 2.333 0.022 3.136 0.496 3.917 2.595 7.344 5.885 9.603 1.507 1.037 3.424 1.811 5.254 2.125 0.928 0.16 1.328 0.192 2.362 0.192 0.826 0 1.040-0.013 1.757-0.099 1.91-0.23 3.91-0.96 5.6-2.045 0.515-0.333 1.29-0.922 1.731-1.322 2.237-2.029 3.686-4.598 4.269-7.558 0.042-0.221 0.086-0.464 0.096-0.544 0.019-0.157 0.048-0.378 0.067-0.528 0.064-0.438 0.086-1.949 0.038-2.544-0.038-0.525-0.141-1.238-0.246-1.728-0.861-4.074-3.514-7.517-7.226-9.376-1.306-0.653-2.838-1.136-4.122-1.296-0.086-0.013-0.179-0.026-0.205-0.032s-0.163-0.022-0.304-0.035c-0.141-0.010-0.291-0.026-0.336-0.035-0.093-0.016-1.907-0.042-1.923-0.029zM17.088 4.845c0.045 0.010 0.253 0.038 0.464 0.067 0.426 0.054 0.493 0.067 1.088 0.208 3.974 0.941 7.206 4.125 8.205 8.083 0.131 0.528 0.176 0.752 0.275 1.421 0.064 0.445 0.086 1.667 0.042 2.294-0.061 0.819-0.269 1.84-0.541 2.643-0.57 1.677-1.501 3.171-2.746 4.394l-0.243 0.237-1.69-1.69 0.282-0.278 0.278-0.278 0.566 0.56 0.563 0.56 0.144-0.16c0.429-0.48 0.918-1.165 1.245-1.728 0.195-0.339 0.435-0.822 0.416-0.835-0.006-0.006-0.339-0.144-0.736-0.307l-0.726-0.298 0.144-0.342c0.077-0.186 0.154-0.352 0.166-0.365s0.346 0.112 0.742 0.275c0.394 0.166 0.72 0.298 0.726 0.294 0.026-0.022 0.246-0.72 0.33-1.050 0.16-0.637 0.288-1.523 0.298-2.054l0.003-0.096h-0.794l-0.794 0.003 0.010-0.403 0.010-0.4h1.568l-0.003-0.144c-0.010-0.499-0.125-1.28-0.285-1.936-0.096-0.4-0.278-0.995-0.333-1.091-0.013-0.022-0.275 0.074-0.736 0.266-0.397 0.163-0.73 0.288-0.742 0.275-0.013-0.016-0.090-0.179-0.166-0.368l-0.144-0.339 0.726-0.298c0.397-0.163 0.73-0.301 0.736-0.307 0.019-0.013-0.173-0.406-0.358-0.73-0.355-0.627-0.768-1.213-1.219-1.734l-0.227-0.266-1.13 1.13-0.282-0.278-0.282-0.275 0.563-0.57 0.566-0.566-0.077-0.067c-0.294-0.262-0.694-0.582-0.963-0.774-0.47-0.333-1.069-0.685-1.085-0.637-0.010 0.032-0.138 0.694-0.224 1.19-0.010 0.051-0.054 0.282-0.096 0.512-0.042 0.227-0.173 0.934-0.288 1.568-0.118 0.634-0.256 1.382-0.307 1.664s-0.115 0.627-0.141 0.768c-0.038 0.224-0.202 1.11-0.64 3.472-0.128 0.701-0.154 0.81-0.243 1.050-0.282 0.774-0.918 1.456-1.68 1.802-0.115 0.054-0.349 0.134-0.518 0.179-0.272 0.077-0.371 0.086-0.79 0.086-0.403 0.003-0.525-0.010-0.765-0.074-1.229-0.32-2.109-1.238-2.39-2.483-0.058-0.269-0.064-0.896-0.010-1.184 0.112-0.576 0.275-0.922 0.739-1.574 0.189-0.269 0.506-0.714 0.704-0.992 0.195-0.278 1.36-1.917 2.582-3.642s2.214-3.146 2.202-3.158c-0.045-0.045-0.909-0.25-1.379-0.33-0.432-0.074-0.915-0.125-1.187-0.128h-0.112v1.587l-0.8-0.019-0.003-0.752c-0.003-0.413-0.006-0.771-0.010-0.794-0.003-0.032-0.042-0.038-0.154-0.026-0.086 0.010-0.262 0.026-0.394 0.035-0.301 0.022-0.787 0.096-1.19 0.176-0.534 0.112-1.482 0.397-1.453 0.445 0.074 0.118 0.592 1.427 0.573 1.446-0.016 0.013-0.179 0.090-0.365 0.166l-0.342 0.144-0.298-0.72c-0.163-0.394-0.31-0.723-0.323-0.733s-0.131 0.038-0.256 0.102c-0.861 0.445-1.61 0.95-2.291 1.549l-0.166 0.144 1.133 1.133-0.563 0.557-1.13-1.13-0.227 0.266c-0.304 0.355-0.509 0.621-0.755 0.982-0.339 0.496-0.845 1.414-0.813 1.466 0.010 0.016 0.339 0.16 0.733 0.326l0.72 0.294-0.144 0.342c-0.077 0.186-0.154 0.349-0.166 0.365-0.013 0.013-0.346-0.112-0.742-0.275-0.394-0.166-0.72-0.298-0.726-0.294-0.019 0.016-0.202 0.576-0.278 0.845-0.147 0.531-0.278 1.258-0.32 1.763-0.045 0.541-0.045 0.576-0.006 0.579 0.022 0.003 0.362 0.010 0.758 0.013s0.739 0.010 0.762 0.013c0.029 0.003 0.038 0.106 0.038 0.397v0.394l-0.758-0.003c-0.419-0.003-0.778 0.003-0.797 0.010-0.048 0.013-0.032 0.339 0.054 1.014 0.074 0.579 0.278 1.44 0.464 1.958l0.083 0.227 0.118-0.048c0.838-0.355 1.331-0.55 1.35-0.531 0.013 0.016 0.090 0.179 0.166 0.365l0.144 0.342-0.726 0.298c-0.397 0.163-0.73 0.301-0.736 0.307-0.022 0.016 0.294 0.634 0.528 1.018 0.339 0.563 0.589 0.902 1.229 1.658 0.045 0.051 0.090 0.013 0.614-0.512l0.563-0.563 0.563 0.557-0.848 0.845-0.845 0.848-0.208-0.202c-1.885-1.814-3.062-4.314-3.322-7.030-0.048-0.496-0.022-1.93 0.042-2.31 0.006-0.042 0.029-0.189 0.048-0.33 0.368-2.557 1.715-5.014 3.709-6.758 1.763-1.542 4.058-2.522 6.355-2.717 0.141-0.010 0.262-0.026 0.269-0.032 0.016-0.016 1.738 0.013 1.827 0.032zM16.803 22.57l-0.346 1.206 0.832 0.006 0.832 0.010-0.525 0.611c-0.288 0.336-0.941 1.098-1.446 1.69-0.509 0.592-0.928 1.075-0.934 1.075s0.019-0.096 0.054-0.218c0.032-0.118 0.090-0.307 0.122-0.422 0.086-0.304 0.314-1.101 0.39-1.36 0.035-0.125 0.074-0.262 0.090-0.314 0.019-0.061 0.016-0.086-0.010-0.090-0.022-0.003-0.387-0.006-0.813-0.010-0.429 0-0.781-0.013-0.784-0.022-0.006-0.013 0.461-0.573 1.181-1.405 0.474-0.55 1.568-1.827 1.622-1.891 0.035-0.048 0.070-0.083 0.074-0.080s-0.15 0.547-0.339 1.213z"></path>
<path fill="#ff7900" d="M19.68 6.662c-0.342 0.48-0.899 1.27-1.245 1.754-1.059 1.498-1.958 2.765-3.235 4.56-0.675 0.95-1.283 1.837-1.35 1.968-0.298 0.592-0.323 1.302-0.074 1.939 0.55 1.386 2.214 1.933 3.498 1.152 0.454-0.278 0.864-0.797 1.018-1.296 0.035-0.118 0.301-1.485 0.429-2.227 0.029-0.163 0.23-1.251 0.435-2.368 0.064-0.336 0.163-0.874 0.221-1.2 0.224-1.216 0.448-2.435 0.659-3.568 0.051-0.282 0.115-0.634 0.141-0.784 0.029-0.15 0.070-0.384 0.099-0.522s0.045-0.259 0.035-0.266c-0.006-0.006-0.291 0.381-0.63 0.858z"></path>
</svg>
