<!-- Generated by IcoMoon.io -->
<svg version="1.1" xmlns="http://www.w3.org/2000/svg" width="32" height="32" viewBox="0 0 32 32">
<title>smart_tap</title>
<path fill="#ff7900" d="M12.88 1.642c-0.333 0.112-0.602 0.333-0.739 0.605l-0.077 0.154h-1.898c-2.096 0-2.131 0.003-2.416 0.198-0.218 0.15-0.32 0.269-0.432 0.506-0.090 0.186-0.102 0.24-0.102 0.496s0.010 0.31 0.099 0.496c0.163 0.346 0.458 0.589 0.819 0.672 0.083 0.019 0.89 0.032 2.003 0.032h1.862v2.394l-0.582 0.013c-0.534 0.016-0.602 0.022-0.784 0.096-0.515 0.214-0.89 0.653-0.998 1.171-0.019 0.099-0.035 0.531-0.035 1.046v0.88h-5.6v5.6h8.48c6.064 0 8.525 0.010 8.646 0.035 0.598 0.125 1.117 0.643 1.238 1.238 0.022 0.106 0.035 0.666 0.035 1.507 0 1.446 0.006 1.494 0.176 1.718 0.042 0.054 0.147 0.144 0.23 0.192l0.154 0.093 4.4 0.019 0.176-0.083c0.189-0.090 0.352-0.266 0.419-0.458 0.064-0.182 0.061-3.648-0.003-4.214-0.166-1.411-0.765-2.662-1.773-3.702-1.014-1.050-2.208-1.648-3.779-1.901-0.080-0.013-1.366-0.029-2.864-0.035-1.494-0.006-2.72-0.016-2.726-0.022-0.003-0.003-0.010-0.41-0.010-0.906-0.003-0.653-0.016-0.944-0.048-1.066-0.154-0.586-0.646-1.059-1.226-1.181-0.093-0.019-0.384-0.035-0.646-0.035h-0.48v-2.4h1.888c1.821 0 1.898-0.003 2.086-0.067 0.33-0.109 0.566-0.326 0.723-0.659 0.074-0.16 0.086-0.227 0.086-0.474 0-0.256-0.013-0.31-0.099-0.496-0.125-0.266-0.323-0.464-0.589-0.589l-0.208-0.099-3.952-0.019-0.080-0.154c-0.182-0.365-0.57-0.608-1.002-0.63-0.154-0.006-0.294 0.003-0.374 0.029z"></path>
<path fill="#ff7900" d="M25.050 22.63c-0.064 0.112-0.298 0.518-0.522 0.906s-0.442 0.765-0.483 0.838c-0.042 0.074-0.256 0.442-0.47 0.816-0.531 0.915-0.563 0.973-0.63 1.158-0.093 0.256-0.128 0.406-0.147 0.678-0.077 1.014 0.512 1.981 1.45 2.378 0.595 0.256 1.36 0.246 1.93-0.022 0.646-0.301 1.12-0.854 1.315-1.53 0.058-0.195 0.074-0.336 0.074-0.621 0-0.202-0.010-0.413-0.019-0.464-0.013-0.054-0.032-0.141-0.045-0.192-0.042-0.198-0.192-0.499-0.598-1.2-0.813-1.405-1.584-2.746-1.635-2.845-0.029-0.054-0.064-0.099-0.077-0.099s-0.077 0.090-0.141 0.198zM24.816 27.114c-0.096 0.23-0.352 0.406-0.592 0.406-0.346 0-0.64-0.307-0.64-0.666 0-0.138 0.019-0.176 0.541-1.078 0.253-0.442 0.502-0.874 0.554-0.96 0.051-0.090 0.109-0.195 0.131-0.237 0.032-0.064 0.042 0.163 0.048 1.171 0.006 1.053 0 1.267-0.042 1.363z"></path>
</svg>
