<!-- Generated by IcoMoon.io -->
<svg version="1.1" xmlns="http://www.w3.org/2000/svg" width="32" height="32" viewBox="0 0 32 32">
<title>social_network</title>
<path fill="#ff7900" d="M21.882 4.016c-0.006 0.006-0.096 0.019-0.202 0.032-0.448 0.048-1.005 0.202-1.472 0.397-1.843 0.784-3.152 2.541-3.373 4.534-0.061 0.566-0.029 1.258 0.077 1.725 0.026 0.102 0.042 0.192 0.038 0.198-0.006 0.006-0.925 0.451-1.766 0.854l-0.413 0.198-0.144-0.176c-0.224-0.275-0.691-0.72-1.011-0.96-0.848-0.637-1.677-0.979-2.832-1.171-0.269-0.045-1.238-0.045-1.568 0.003-2.25 0.317-4.090 1.802-4.867 3.93-0.086 0.234-0.144 0.454-0.25 0.931-0.070 0.314-0.096 0.678-0.083 1.216 0.006 0.298 0.019 0.595 0.032 0.656 0.154 0.925 0.394 1.61 0.8 2.285 0.957 1.594 2.608 2.672 4.416 2.89 0.336 0.038 1.341 0.029 1.616-0.019 0.653-0.112 1.197-0.282 1.744-0.55 0.646-0.314 1.139-0.672 1.67-1.206l0.294-0.301 0.314 0.176c0.173 0.096 0.445 0.246 0.602 0.333 1.318 0.704 1.52 0.826 1.504 0.89-0.24 0.906-0.269 1.821-0.077 2.704 0.57 2.653 2.979 4.518 5.693 4.406 2.659-0.112 4.835-2.026 5.299-4.662 0.058-0.333 0.083-1.206 0.042-1.552-0.042-0.381-0.147-0.842-0.266-1.187-0.701-2.019-2.454-3.453-4.579-3.741-0.698-0.096-1.818 0-2.416 0.208-0.87 0.301-1.562 0.72-2.195 1.325l-0.342 0.33-0.755-0.416c-0.416-0.227-0.954-0.522-1.194-0.653-0.243-0.131-0.448-0.25-0.458-0.266-0.010-0.013 0.019-0.16 0.061-0.326 0.042-0.163 0.086-0.378 0.099-0.474s0.029-0.205 0.035-0.24c0.010-0.035 0.022-0.266 0.032-0.512 0.022-0.483-0.016-0.976-0.109-1.43l-0.058-0.275 0.499-0.243c0.272-0.131 0.762-0.368 1.085-0.525l0.589-0.285 0.227 0.256c1.424 1.613 3.725 2.266 5.789 1.642 1.28-0.39 2.378-1.216 3.101-2.339 1.056-1.632 1.174-3.763 0.307-5.504-0.838-1.68-2.426-2.819-4.285-3.069-0.272-0.035-1.222-0.061-1.251-0.035zM22.688 6.432c0.694 0.131 1.216 0.765 1.216 1.469 0 0.522-0.266 1.002-0.704 1.283-0.451 0.291-1.101 0.301-1.565 0.022-0.845-0.506-0.989-1.67-0.294-2.358 0.368-0.362 0.848-0.512 1.347-0.416zM21.056 9.638c0.080 0.064 0.246 0.166 0.368 0.227 0.858 0.429 1.891 0.253 2.55-0.435l0.122-0.125 0.118 0.090c0.189 0.144 0.342 0.317 0.422 0.477 0.154 0.307 0.16 0.397 0.154 1.712l-0.006 1.232-0.208 0.134c-0.4 0.266-0.87 0.461-1.382 0.573-0.346 0.080-1.203 0.080-1.562 0.003-0.534-0.115-1.059-0.333-1.44-0.595l-0.176-0.122v-1.293c0-1.194 0.003-1.306 0.061-1.453 0.106-0.278 0.294-0.525 0.512-0.669l0.125-0.083 0.099 0.106c0.054 0.058 0.163 0.157 0.243 0.221zM10.397 12.048c0.778 0.186 1.347 0.89 1.354 1.677 0.006 0.698-0.352 1.293-0.96 1.597-0.704 0.352-1.494 0.221-2.051-0.346-0.522-0.528-0.646-1.36-0.304-2.022 0.365-0.707 1.19-1.088 1.962-0.906zM8.557 15.872c0.218 0.147 0.474 0.269 0.758 0.355 0.342 0.106 0.992 0.106 1.35 0.003 0.435-0.125 0.874-0.384 1.171-0.691l0.141-0.144 0.134 0.093c0.31 0.214 0.576 0.614 0.653 0.986 0.022 0.106 0.035 0.621 0.035 1.35v1.181l-0.211 0.15c-0.474 0.339-1.008 0.586-1.533 0.714-0.384 0.093-0.474 0.102-0.976 0.115-0.438 0.013-0.563 0.003-0.992-0.083-0.512-0.099-1.184-0.394-1.638-0.717l-0.25-0.179v-1.181c0-0.736 0.013-1.245 0.035-1.35 0.077-0.365 0.326-0.749 0.637-0.973l0.144-0.106 0.192 0.186c0.106 0.099 0.262 0.23 0.349 0.291zM22.688 19.232c0.694 0.131 1.216 0.765 1.216 1.469 0 0.422-0.141 0.752-0.448 1.059-0.429 0.432-1.011 0.563-1.578 0.365-0.435-0.154-0.842-0.614-0.947-1.072-0.122-0.518 0.080-1.139 0.48-1.478 0.157-0.138 0.486-0.31 0.586-0.31 0.038 0 0.086-0.013 0.109-0.029 0.064-0.038 0.384-0.042 0.582-0.003zM21.056 22.438c0.192 0.154 0.544 0.326 0.8 0.394 0.253 0.067 0.778 0.077 1.024 0.019 0.397-0.096 0.768-0.301 1.066-0.595l0.154-0.147 0.118 0.086c0.221 0.163 0.406 0.41 0.506 0.669 0.058 0.147 0.061 0.259 0.061 1.456v1.296l-0.176 0.118c-0.381 0.256-0.922 0.483-1.408 0.589-0.374 0.080-1.101 0.086-1.488 0.016-0.557-0.102-1.117-0.326-1.52-0.608l-0.176-0.122-0.010-1.213c-0.003-0.742 0.006-1.274 0.026-1.366 0.070-0.333 0.317-0.691 0.592-0.861l0.096-0.058 0.096 0.106c0.054 0.058 0.16 0.16 0.24 0.221z"></path>
</svg>
