<!-- Generated by IcoMoon.io -->
<svg version="1.1" xmlns="http://www.w3.org/2000/svg" width="32" height="32" viewBox="0 0 32 32">
<title>software_update</title>
<path fill="#ff7900" d="M15.194 2.416c-0.003 0.003-0.147 0.019-0.314 0.029-0.166 0.013-0.326 0.029-0.352 0.035s-0.134 0.019-0.24 0.032c-0.182 0.019-0.694 0.096-0.832 0.125-0.035 0.006-0.179 0.038-0.32 0.067-0.682 0.144-1.843 0.499-2.24 0.688-0.035 0.016-0.157 0.067-0.272 0.115-0.304 0.122-1.114 0.531-1.469 0.739-1.030 0.605-1.907 1.283-2.752 2.125-1.616 1.61-2.806 3.597-3.44 5.757-0.147 0.493-0.339 1.306-0.339 1.424 0 0.042 0.243 0.048 2.045 0.048h2.045l0.019-0.112c0.038-0.192 0.275-0.88 0.438-1.261 1.389-3.235 4.448-5.466 7.936-5.786 0.685-0.064 1.987-0.013 2.557 0.102 0.637 0.125 0.816 0.17 1.296 0.326 1.491 0.486 2.794 1.293 3.878 2.4 0.33 0.333 0.742 0.822 0.925 1.082l0.115 0.17-1.523 1.523c-0.838 0.838-1.523 1.53-1.523 1.539s1.619 0.016 3.594 0.016c3.478 0 3.603-0.003 3.843-0.064 0.342-0.086 0.541-0.202 0.803-0.464s0.378-0.461 0.464-0.803c0.061-0.24 0.064-0.365 0.064-3.843 0-1.974-0.006-3.594-0.013-3.594-0.010 0-0.653 0.634-1.43 1.411-0.778 0.774-1.424 1.398-1.437 1.382-0.016-0.013-0.109-0.128-0.208-0.25-1.424-1.75-3.363-3.168-5.504-4.022-1.082-0.432-2.47-0.774-3.568-0.877-0.115-0.010-0.25-0.026-0.304-0.035-0.106-0.016-1.923-0.042-1.942-0.026z"></path>
<path fill="#ff7900" d="M3.824 18.432c-0.515 0.106-1.005 0.474-1.226 0.931-0.202 0.413-0.192 0.211-0.195 4.198l-0.003 3.642 1.427-1.427c0.787-0.787 1.44-1.418 1.453-1.402 0.013 0.013 0.131 0.154 0.262 0.314 1.818 2.202 4.368 3.811 7.123 4.496 1.206 0.301 2.035 0.4 3.334 0.4 0.826 0 1.040-0.013 1.757-0.099 1.654-0.202 3.523-0.826 5.002-1.677 0.57-0.33 1.411-0.906 1.789-1.229 0.064-0.054 0.186-0.157 0.272-0.227 0.605-0.499 1.437-1.376 2.010-2.128 1.174-1.53 2.038-3.398 2.454-5.306 0.051-0.234 0.093-0.445 0.093-0.47 0-0.042-0.269-0.048-2.045-0.048h-2.045l-0.019 0.112c-0.077 0.413-0.49 1.44-0.822 2.048-1.459 2.685-4.045 4.493-7.069 4.944-0.749 0.112-1.997 0.112-2.762-0.003-2.048-0.301-3.91-1.232-5.37-2.685-0.406-0.403-1.117-1.248-1.117-1.325 0-0.010 0.691-0.707 1.536-1.555l1.539-1.536-3.626 0.003c-1.994 0.003-3.683 0.016-3.754 0.029z"></path>
</svg>
