<!-- Generated by IcoMoon.io -->
<svg version="1.1" xmlns="http://www.w3.org/2000/svg" width="32" height="32" viewBox="0 0 32 32">
<title>Sport_channel</title>
<path fill="#ff7900" d="M15.194 2.416c-0.003 0.003-0.147 0.019-0.314 0.029-0.166 0.013-0.333 0.029-0.368 0.035s-0.134 0.022-0.224 0.032c-0.211 0.022-0.342 0.045-0.832 0.125-0.035 0.003-0.099 0.019-0.144 0.029s-0.218 0.051-0.384 0.086c-0.592 0.131-1.597 0.445-2 0.624-0.051 0.026-0.189 0.083-0.304 0.128-0.307 0.128-1.117 0.534-1.469 0.742-1.024 0.602-1.907 1.283-2.752 2.122-1.437 1.43-2.534 3.162-3.226 5.088-0.24 0.675-0.493 1.648-0.586 2.266-0.080 0.509-0.093 0.611-0.112 0.822-0.013 0.122-0.029 0.266-0.038 0.32-0.029 0.182-0.035 1.795-0.010 2.112 0.032 0.368 0.096 0.963 0.115 1.056 0.010 0.035 0.045 0.23 0.080 0.432 0.301 1.725 1.005 3.475 2.010 5.008 0.115 0.176 0.221 0.333 0.237 0.352 0.013 0.016 0.125 0.17 0.25 0.336 0.762 1.018 1.658 1.914 2.669 2.678 0.806 0.605 1.299 0.912 2.195 1.36 1.203 0.598 2.765 1.088 4.013 1.254 0.070 0.010 0.23 0.032 0.352 0.048 0.611 0.083 2.118 0.115 2.736 0.058 1.494-0.138 2.755-0.438 4.048-0.963 0.662-0.272 1.507-0.701 2.032-1.037 0.522-0.333 1.107-0.749 1.379-0.979 0.064-0.054 0.186-0.157 0.272-0.227s0.256-0.221 0.381-0.336c2.144-1.997 3.552-4.49 4.122-7.296 0.102-0.493 0.176-0.963 0.202-1.28 0.010-0.131 0.026-0.275 0.035-0.32 0.029-0.144 0.035-1.798 0.006-2.112-0.035-0.435-0.093-0.918-0.125-1.104-0.016-0.090-0.045-0.253-0.064-0.368-0.262-1.485-0.89-3.165-1.667-4.454-0.189-0.31-0.525-0.835-0.582-0.906-0.013-0.019-0.131-0.176-0.266-0.352-1.642-2.195-3.955-3.859-6.589-4.736-0.874-0.291-1.99-0.531-2.832-0.611-0.115-0.010-0.25-0.026-0.304-0.035-0.106-0.016-1.923-0.042-1.942-0.026zM23.072 7.293c0.422 0.134 0.858 0.509 1.059 0.909 0.202 0.394 0.253 0.826 0.15 1.254-0.080 0.342-0.227 0.598-0.49 0.867-0.81 0.822-2.182 0.691-2.81-0.269-0.227-0.349-0.304-0.614-0.304-1.046 0-0.32 0.099-0.688 0.256-0.928 0.272-0.426 0.71-0.736 1.194-0.845 0.214-0.048 0.714-0.016 0.944 0.058zM17.085 7.91c0.192 0.090 4.602 4.483 4.701 4.685 0.038 0.074 0.074 0.173 0.083 0.224 0.006 0.051 0.016 0.736 0.016 1.523l0.003 1.434h3.574l0.198 0.099c0.416 0.208 0.614 0.691 0.454 1.114-0.109 0.291-0.326 0.496-0.618 0.582-0.064 0.019-0.982 0.032-2.394 0.032-2.25 0-2.294 0-2.47-0.067-0.211-0.077-0.41-0.275-0.512-0.506-0.061-0.141-0.064-0.211-0.067-1.264 0-0.611-0.010-1.11-0.019-1.11s-0.477 0.458-1.037 1.018l-1.014 1.014 1.869 1.869c1.318 1.318 1.891 1.91 1.942 2.016 0.061 0.118 0.077 0.198 0.077 0.403 0 0.224-0.013 0.278-0.096 0.429-0.109 0.195-0.342 0.387-0.547 0.445-0.096 0.029-0.989 0.038-3.315 0.038-3.584 0-3.386 0.013-3.667-0.24-0.256-0.23-0.371-0.608-0.282-0.915 0.090-0.298 0.352-0.563 0.64-0.64 0.090-0.026 0.768-0.035 2.125-0.038 1.094 0 1.99-0.010 1.99-0.019s-0.733-0.752-1.626-1.645l-1.629-1.629-3.398 3.398c-3.763 3.763-3.536 3.558-3.958 3.555-0.64-0.003-1.069-0.634-0.842-1.238 0.067-0.182 0.262-0.381 5.472-5.594l5.402-5.402-0.733-0.736-0.736-0.733-1.267 1.264c-1.165 1.162-1.28 1.27-1.446 1.331-0.614 0.234-1.235-0.195-1.235-0.848 0-0.406-0.032-0.365 1.718-2.118 0.864-0.867 1.629-1.616 1.696-1.664 0.256-0.179 0.653-0.208 0.947-0.067z"></path>
</svg>
