<!-- Generated by IcoMoon.io -->
<svg version="1.1" xmlns="http://www.w3.org/2000/svg" width="32" height="32" viewBox="0 0 32 32">
<title>Start_services</title>
<path fill="#ff7900" d="M15.194 2.416c-0.003 0.003-0.147 0.019-0.314 0.029-0.166 0.013-0.333 0.029-0.368 0.035s-0.134 0.022-0.224 0.032c-0.211 0.022-0.342 0.045-0.832 0.125-0.035 0.003-0.099 0.019-0.144 0.029s-0.218 0.051-0.384 0.086c-0.592 0.131-1.597 0.445-2 0.624-0.051 0.026-0.189 0.083-0.304 0.128-0.291 0.122-1.078 0.515-1.443 0.73-1.283 0.742-2.4 1.667-3.453 2.854-0.214 0.243-0.502 0.608-0.733 0.928-0.125 0.176-0.237 0.333-0.253 0.352-0.058 0.074-0.422 0.659-0.544 0.867-0.762 1.312-1.392 3.078-1.606 4.486-0.080 0.509-0.093 0.611-0.112 0.822-0.013 0.122-0.029 0.266-0.038 0.32-0.029 0.182-0.035 1.795-0.010 2.112 0.032 0.368 0.096 0.963 0.115 1.056 0.010 0.035 0.045 0.23 0.080 0.432 0.301 1.725 1.005 3.475 2.010 5.008 0.115 0.176 0.221 0.333 0.237 0.352 0.013 0.016 0.125 0.17 0.25 0.336 0.762 1.018 1.658 1.914 2.669 2.678 0.806 0.605 1.299 0.912 2.195 1.36 1.203 0.598 2.765 1.088 4.013 1.254 0.070 0.010 0.23 0.032 0.352 0.048 0.611 0.083 2.118 0.115 2.736 0.058 1.494-0.138 2.755-0.438 4.048-0.963 0.662-0.272 1.507-0.701 2.032-1.037 0.522-0.333 1.107-0.749 1.379-0.979 0.064-0.054 0.186-0.157 0.272-0.227s0.256-0.221 0.381-0.336c2.144-1.997 3.552-4.49 4.122-7.296 0.102-0.493 0.176-0.963 0.202-1.28 0.010-0.131 0.026-0.275 0.035-0.32 0.029-0.144 0.035-1.798 0.006-2.112-0.035-0.435-0.093-0.918-0.125-1.104-0.016-0.090-0.045-0.253-0.064-0.368-0.262-1.485-0.89-3.165-1.667-4.454-0.189-0.31-0.525-0.835-0.582-0.906-0.013-0.019-0.131-0.176-0.266-0.352-1.741-2.33-4.259-4.070-7.053-4.88-0.806-0.234-1.654-0.4-2.368-0.467-0.115-0.010-0.25-0.026-0.304-0.035-0.106-0.016-1.923-0.042-1.942-0.026zM16.461 8.093c0.323 0.141 0.538 0.381 0.656 0.733 0.067 0.192 0.067 0.25 0.067 3.152 0 3.222 0.003 3.142-0.186 3.466-0.106 0.186-0.426 0.442-0.624 0.499-0.208 0.061-0.621 0.051-0.79-0.016-0.333-0.138-0.589-0.41-0.704-0.746-0.061-0.173-0.064-0.298-0.064-3.158 0-2.467 0.010-3.011 0.045-3.152 0.099-0.365 0.406-0.688 0.778-0.81 0.237-0.080 0.598-0.064 0.822 0.032zM12.416 10.848c0.186 0.048 0.454 0.23 0.598 0.41 0.272 0.333 0.336 0.832 0.157 1.229-0.042 0.099-0.182 0.288-0.336 0.458-0.675 0.736-1.040 1.478-1.187 2.4-0.042 0.243-0.051 0.928-0.019 1.181 0.189 1.475 1.104 2.765 2.429 3.418 1.021 0.506 2.243 0.589 3.309 0.234 1.485-0.496 2.573-1.686 2.922-3.2 0.080-0.346 0.109-0.637 0.102-1.056-0.010-1.107-0.416-2.096-1.219-2.966-0.141-0.154-0.282-0.326-0.31-0.381-0.141-0.275-0.176-0.624-0.090-0.915 0.176-0.586 0.762-0.944 1.366-0.835 0.272 0.051 0.512 0.198 0.794 0.499 0.95 1.005 1.584 2.285 1.789 3.622 0.403 2.65-0.749 5.248-2.992 6.733-2.157 1.434-5.008 1.491-7.232 0.147-0.64-0.387-1.341-1.002-1.805-1.584-2.118-2.653-1.962-6.432 0.365-8.906 0.448-0.477 0.842-0.618 1.36-0.486z"></path>
</svg>
