<!-- Generated by IcoMoon.io -->
<svg version="1.1" xmlns="http://www.w3.org/2000/svg" width="32" height="32" viewBox="0 0 32 32">
<title>startup_wizard</title>
<path fill="#ff7900" d="M12.32 2.931c-0.608 0.093-1.296 0.33-2.096 0.717-0.691 0.336-1.117 0.672-1.28 1.008-0.17 0.346-0.147 0.56 0.15 1.299 0.275 0.688 0.323 1.040 0.198 1.469-0.138 0.474-0.566 1.034-1.114 1.443-0.435 0.33-0.758 0.454-1.171 0.451-0.301 0-0.544-0.064-1.072-0.275-0.509-0.205-0.707-0.256-0.928-0.234-0.605 0.061-1.187 0.848-1.744 2.358-0.237 0.64-0.307 0.973-0.301 1.44 0.003 0.582 0.218 0.81 1.085 1.168 0.586 0.24 0.874 0.445 1.101 0.79 0.41 0.608 0.454 1.904 0.099 2.64-0.208 0.422-0.509 0.659-1.245 0.973-0.518 0.221-0.682 0.32-0.842 0.509-0.362 0.419-0.256 1.28 0.32 2.624 0.506 1.184 0.979 1.747 1.52 1.811 0.227 0.026 0.416-0.019 0.947-0.234 0.634-0.256 0.912-0.314 1.27-0.262 0.448 0.064 0.87 0.31 1.344 0.781 0.451 0.454 0.678 0.829 0.762 1.254 0.080 0.416 0.032 0.675-0.253 1.37-0.093 0.227-0.186 0.499-0.208 0.605-0.131 0.637 0.278 1.13 1.392 1.664 1.005 0.486 1.92 0.752 2.448 0.717 0.522-0.038 0.803-0.314 1.088-1.066 0.016-0.035 0.093-0.205 0.176-0.378 0.227-0.483 0.509-0.742 1.018-0.947 0.477-0.192 1.472-0.189 2.035 0.006 0.57 0.198 0.858 0.518 1.19 1.334 0.336 0.816 0.573 1.027 1.165 1.043 0.557 0.013 1.402-0.24 2.352-0.701 0.675-0.33 0.989-0.55 1.238-0.87 0.282-0.365 0.266-0.723-0.070-1.475-0.202-0.442-0.288-0.909-0.234-1.248 0.083-0.534 0.55-1.2 1.162-1.654 0.448-0.333 0.758-0.448 1.184-0.445 0.304 0 0.493 0.051 1.056 0.278 0.509 0.202 0.71 0.253 0.928 0.23 0.515-0.054 0.986-0.592 1.469-1.686 0.55-1.251 0.71-2.070 0.499-2.55-0.125-0.294-0.365-0.467-1.011-0.733-0.746-0.304-1.069-0.595-1.27-1.133-0.115-0.304-0.163-0.637-0.157-1.104 0.006-0.931 0.269-1.498 0.861-1.872 0.080-0.051 0.342-0.176 0.582-0.275 0.464-0.195 0.704-0.333 0.842-0.48 0.41-0.438 0.301-1.338-0.339-2.784-0.502-1.133-0.957-1.651-1.491-1.699-0.214-0.019-0.47 0.045-0.976 0.256-0.493 0.202-0.688 0.253-0.989 0.253-0.534 0.003-0.963-0.205-1.552-0.758-0.202-0.189-0.518-0.602-0.627-0.813-0.173-0.346-0.227-0.723-0.157-1.101 0.022-0.118 0.128-0.435 0.234-0.704 0.109-0.266 0.211-0.563 0.23-0.659 0.125-0.595-0.259-1.075-1.261-1.584-0.179-0.090-0.384-0.189-0.454-0.218-0.982-0.416-1.478-0.55-2-0.55-0.63-0.003-0.848 0.176-1.181 0.973-0.307 0.723-0.509 1.014-0.861 1.229-0.563 0.342-1.584 0.426-2.333 0.192-0.653-0.205-0.915-0.506-1.325-1.501-0.208-0.515-0.435-0.768-0.762-0.861-0.17-0.048-0.445-0.061-0.643-0.032zM16.371 8.342c0.314 0.102 0.566 0.33 0.707 0.634l0.090 0.192v6.24l-0.086 0.186c-0.106 0.224-0.374 0.499-0.586 0.602-0.134 0.064-0.211 0.074-0.496 0.077-0.323 0-0.346-0.003-0.538-0.109-0.24-0.131-0.432-0.33-0.544-0.573l-0.086-0.182v-6.24l0.083-0.179c0.147-0.31 0.4-0.541 0.726-0.656 0.166-0.061 0.541-0.054 0.73 0.010zM12.595 10.496c0.202 0.099 0.448 0.333 0.544 0.515 0.074 0.147 0.134 0.461 0.122 0.627-0.032 0.352-0.144 0.55-0.518 0.928-1.062 1.059-1.568 2.464-1.411 3.914 0.304 2.816 3.024 4.752 5.773 4.112 1.866-0.435 3.293-1.933 3.619-3.805 0.054-0.31 0.077-1.056 0.038-1.379-0.125-1.082-0.685-2.176-1.488-2.928-0.32-0.298-0.461-0.618-0.438-0.995 0.022-0.422 0.304-0.829 0.691-1.008 0.176-0.080 0.24-0.093 0.49-0.093 0.262 0 0.31 0.010 0.502 0.106 0.221 0.109 0.614 0.467 0.957 0.87 0.573 0.675 1.014 1.456 1.306 2.294 0.112 0.326 0.272 0.986 0.307 1.258 0.013 0.096 0.029 0.205 0.038 0.24 0.029 0.118 0.035 1.312 0.010 1.504-0.013 0.106-0.035 0.272-0.045 0.368-0.080 0.624-0.339 1.443-0.672 2.112-1.744 3.501-5.974 4.944-9.475 3.232-2.013-0.986-3.418-2.794-3.872-4.986-0.102-0.486-0.128-0.774-0.128-1.414 0-0.634 0.022-0.87 0.131-1.405 0.285-1.411 0.938-2.624 1.971-3.658 0.438-0.438 0.669-0.547 1.11-0.522 0.182 0.010 0.282 0.035 0.438 0.112z"></path>
</svg>
