<!-- Generated by IcoMoon.io -->
<svg version="1.1" xmlns="http://www.w3.org/2000/svg" width="32" height="32" viewBox="0 0 32 32">
<title>stocks</title>
<path fill="#ff7900" d="M4.8 14.646c0 8.918 0 9.050-0.064 9.152-0.16 0.262-0.512 0.262-0.672 0-0.064-0.099-0.064-0.218-0.064-7.392v-7.286h-1.6v7.558c0 8.141-0.006 7.731 0.16 8.179 0.083 0.218 0.141 0.326 0.291 0.534 0.33 0.448 0.701 0.72 1.245 0.902l0.272 0.090h11.6c11.302 0 11.606 0 11.824-0.061 0.854-0.234 1.498-0.867 1.734-1.715 0.054-0.198 0.058-0.576 0.058-8.256v-8.048l-0.086-0.307c-0.192-0.704-0.608-1.325-1.155-1.734-0.442-0.326-0.803-0.49-1.334-0.598-0.307-0.064-0.47-0.064-11.261-0.064h-10.947v9.046zM26.477 8.102c0.416 0.198 0.666 0.541 0.71 0.982 0.054 0.499-0.221 0.976-0.691 1.2l-0.208 0.099h-18.176l-0.211-0.102c-0.272-0.134-0.464-0.326-0.586-0.586-0.090-0.186-0.099-0.24-0.099-0.496s0.013-0.31 0.099-0.496c0.112-0.237 0.266-0.406 0.48-0.531 0.307-0.179-0.31-0.17 9.453-0.163l9.040 0.006 0.189 0.086zM8.8 17.2v5.2h17.568v0.8h-17.568v0.8h-0.8v-0.8h-0.8v-0.8h0.8v-10.4h0.8v5.2zM26.368 16.8v4.8h-16.768l2.4-3.2 1.6 1.6 3.2-3.2 1.6 1.6 1.302-1.046c0.72-0.576 1.45-1.162 1.626-1.306s0.97-0.781 1.76-1.414c0.794-0.634 1.85-1.488 2.352-1.891 0.502-0.406 0.915-0.739 0.922-0.739 0.003-0.003 0.006 2.157 0.006 4.797z"></path>
</svg>
