<!-- Generated by IcoMoon.io -->
<svg version="1.1" xmlns="http://www.w3.org/2000/svg" width="32" height="32" viewBox="0 0 32 32">
<title>stop_secret</title>
<path fill="#ff7900" d="M15.68 2.611c-0.65 0.445-1.67 1.014-2.368 1.325-0.166 0.074-0.374 0.17-0.464 0.208-0.979 0.438-2.506 0.902-3.664 1.117-0.15 0.029-0.342 0.067-0.432 0.083-0.086 0.016-0.23 0.038-0.32 0.048-0.086 0.010-0.195 0.026-0.24 0.032-0.16 0.029-0.95 0.109-1.264 0.128-0.176 0.013-0.39 0.026-0.48 0.032-0.086 0.006-0.496 0.013-0.906 0.013l-0.746 0.003 0.013 4.966c0.006 2.733 0.022 5.005 0.029 5.050 0.010 0.045 0.026 0.179 0.038 0.304 0.099 1.088 0.362 2.342 0.73 3.472 1.114 3.424 3.248 6.269 6.154 8.202 1.181 0.787 2.374 1.373 3.795 1.862l0.435 0.15 0.381-0.128c1.987-0.659 4.010-1.802 5.421-3.062 1.162-1.040 1.968-1.965 2.758-3.168 1.13-1.715 1.949-3.738 2.342-5.76 0.112-0.579 0.147-0.81 0.208-1.392 0.019-0.166 0.045-0.362 0.054-0.432 0.013-0.070 0.029-2.365 0.035-5.098l0.013-4.966-0.746-0.003c-0.41 0-0.816-0.006-0.906-0.013-0.086-0.006-0.32-0.019-0.515-0.032-0.195-0.010-0.403-0.026-0.464-0.032-0.061-0.010-0.179-0.022-0.269-0.032-0.381-0.045-0.71-0.086-0.784-0.099-0.045-0.010-0.166-0.029-0.272-0.045-0.752-0.115-1.875-0.397-2.755-0.691-0.365-0.122-1.258-0.464-1.533-0.589-0.979-0.442-1.859-0.928-2.678-1.478-0.157-0.102-0.285-0.186-0.288-0.182-0.006 0-0.147 0.093-0.314 0.208zM11.421 9.84c0.374 0.272 1.616 1.818 1.834 2.278 0.208 0.442 0.125 0.637-0.602 1.386-0.451 0.467-0.518 0.547-0.534 0.662-0.090 0.55 0.483 1.43 1.814 2.79 1.594 1.622 2.698 2.342 3.226 2.106 0.048-0.022 0.307-0.256 0.576-0.518 0.566-0.554 0.742-0.669 1.021-0.672 0.317 0 0.678 0.23 1.808 1.158 0.81 0.659 0.986 0.874 0.986 1.178 0 0.25-0.186 0.499-0.931 1.238-0.73 0.726-0.736 0.73-0.97 0.816-0.515 0.192-1.136 0.15-2.144-0.141-0.419-0.122-1.306-0.522-1.866-0.845-0.435-0.253-1.27-0.819-1.606-1.088-1.565-1.264-2.816-2.608-3.757-4.035-1.251-1.901-1.754-3.728-1.286-4.678 0.077-0.157 0.23-0.333 0.778-0.89 0.714-0.723 0.858-0.845 1.107-0.906 0.182-0.048 0.323-0.006 0.547 0.16z"></path>
</svg>
