<!-- Generated by IcoMoon.io -->
<svg version="1.1" xmlns="http://www.w3.org/2000/svg" width="32" height="32" viewBox="0 0 32 32">
<title>Stop_video</title>
<path fill="#ff7900" d="M15.136 15.136l-13.6 13.6 1.696 1.696 27.2-27.2-0.438-0.442c-0.243-0.24-0.624-0.621-0.851-0.848l-0.406-0.406-13.6 13.6z"></path>
<path fill="#ff7900" d="M3.606 6.448c-0.592 0.163-1.066 0.666-1.171 1.245-0.026 0.134-0.035 2.627-0.035 8.352 0 8.861-0.010 8.298 0.173 8.672 0.045 0.093 0.131 0.224 0.192 0.294l0.112 0.125 18.739-18.736-8.928 0.003c-7.283 0.003-8.957 0.010-9.082 0.045z"></path>
<path fill="#ff7900" d="M28.691 8.848c-0.102 0.035-0.176 0.093-0.403 0.304-0.099 0.093-0.538 0.499-0.829 0.768-0.499 0.458-0.768 0.707-1.699 1.568-0.256 0.237-0.528 0.486-0.605 0.56-0.077 0.070-0.179 0.163-0.227 0.208-0.045 0.045-0.24 0.224-0.432 0.4s-0.381 0.352-0.422 0.394l-0.074 0.070-0.006-0.592-0.010-0.592-13.664 13.664h6.144c4.080 0 6.192-0.013 6.288-0.035 0.419-0.096 0.886-0.461 1.069-0.832 0.182-0.378 0.179-0.304 0.179-3.142v-2.618l0.218 0.205c0.349 0.33 1.056 0.979 1.382 1.27 0.166 0.15 0.31 0.278 0.32 0.288s0.131 0.118 0.272 0.24c0.141 0.125 0.269 0.24 0.288 0.259 0.016 0.019 0.17 0.157 0.336 0.304s0.31 0.275 0.32 0.285c0.010 0.010 0.218 0.195 0.464 0.416 0.246 0.218 0.499 0.445 0.56 0.499 0.435 0.394 0.55 0.461 0.803 0.461 0.237 0 0.48-0.157 0.576-0.365 0.058-0.125 0.061-0.378 0.061-6.845 0-6.64 0-6.714-0.064-6.838-0.147-0.288-0.515-0.422-0.845-0.304z"></path>
</svg>
