<!-- Generated by IcoMoon.io -->
<svg version="1.1" xmlns="http://www.w3.org/2000/svg" width="32" height="32" viewBox="0 0 32 32">
<title>Street</title>
<path fill="#ff7900" d="M6.218 8.064c-0.15 0.090-0.202 0.214-0.202 0.496v0.24h-0.246c-0.192 0-0.275 0.016-0.352 0.064-0.198 0.118-0.202 0.144-0.202 1.296v1.040h-3.2v6.214l0.106-0.077c0.054-0.045 0.586-0.432 1.174-0.858 0.589-0.429 1.267-0.922 1.504-1.094s0.698-0.506 1.024-0.742l0.592-0.429 0.144 0.106c0.080 0.058 0.262 0.189 0.406 0.291 0.342 0.25 1.136 0.822 1.338 0.973 0.426 0.314 0.685 0.502 1.2 0.874 0.307 0.224 0.733 0.531 0.944 0.688 0.211 0.154 0.474 0.342 0.579 0.416l0.195 0.138 0.909-0.662c0.499-0.365 0.982-0.714 1.069-0.781 0.227-0.17 1.414-1.030 1.498-1.088 0.038-0.026 0.349-0.253 0.691-0.502l0.621-0.454 0.147 0.106c0.080 0.058 0.816 0.592 1.635 1.187s1.539 1.12 1.603 1.165c0.064 0.045 0.41 0.294 0.765 0.554 0.496 0.362 0.659 0.464 0.701 0.445 0.029-0.016 0.186-0.128 0.346-0.25 0.365-0.269 2.134-1.555 2.33-1.693 0.077-0.058 0.512-0.371 0.966-0.704 0.454-0.33 0.89-0.646 0.97-0.704l0.144-0.102 0.816 0.592c0.448 0.323 0.909 0.659 1.024 0.742 0.115 0.086 0.691 0.502 1.28 0.931s1.12 0.813 1.178 0.858l0.102 0.077v-6.214h-3.2v-1.040c0-1.152-0.003-1.178-0.202-1.296-0.077-0.048-0.16-0.064-0.349-0.064h-0.25v-0.24c0-0.282-0.051-0.406-0.202-0.496-0.131-0.080-0.266-0.080-0.397 0-0.15 0.090-0.202 0.214-0.202 0.496v0.24h-0.246c-0.192 0-0.275 0.016-0.352 0.064-0.198 0.118-0.202 0.144-0.202 1.296v1.040h-7.2v-1.050c0-1.146-0.003-1.152-0.189-1.277-0.090-0.061-0.15-0.074-0.358-0.074h-0.253v-0.243c0-0.131-0.016-0.272-0.035-0.31-0.157-0.301-0.531-0.323-0.701-0.045-0.048 0.077-0.064 0.16-0.064 0.346v0.246l-0.269 0.010c-0.211 0.010-0.291 0.026-0.362 0.080-0.166 0.125-0.17 0.141-0.17 1.267v1.050h-7.2v-1.050c0-0.982-0.003-1.053-0.064-1.149-0.090-0.15-0.214-0.202-0.496-0.202h-0.24v-0.25c0-0.189-0.016-0.272-0.064-0.349-0.118-0.195-0.346-0.253-0.534-0.138z"></path>
<path fill="#ff7900" d="M5.184 16.099c-0.678 0.49-1.664 1.206-2.192 1.59l-0.96 0.698-0.010 3.206-0.006 3.206h5.6v-4h1.6v4h1.6l-0.006-3.203-0.010-3.206-1.008-0.733c-0.554-0.403-1.101-0.803-1.216-0.886-0.355-0.262-2.102-1.53-2.134-1.549-0.016-0.010-0.582 0.384-1.258 0.877zM6.016 22v1.2h-2.4v-2.4h2.4v1.2z"></path>
<path fill="#ff7900" d="M15.549 15.539c-0.253 0.182-0.502 0.368-0.557 0.406-0.083 0.064-2.442 1.779-3.114 2.266l-0.246 0.176-0.010 3.206-0.006 3.206h5.6v-4h1.6v4h1.6l-0.006-3.206-0.010-3.206-0.96-0.698c-0.528-0.384-1.088-0.794-1.248-0.909-1.68-1.222-2.099-1.526-2.144-1.555-0.022-0.013-0.234 0.122-0.499 0.314zM15.616 22v1.2h-2.4v-2.4h2.4v1.2z"></path>
<path fill="#ff7900" d="M24.384 16.096c-0.678 0.493-1.664 1.21-2.192 1.594l-0.96 0.698-0.010 3.206-0.006 3.206h5.6v-4h1.6v4h1.6l-0.006-3.206-0.010-3.206-2.192-1.594c-1.206-0.877-2.192-1.594-2.192-1.594s-0.554 0.403-1.232 0.896zM25.216 22v1.2h-2.4v-2.4h2.4v1.2z"></path>
</svg>
