<!-- Generated by IcoMoon.io -->
<svg version="1.1" xmlns="http://www.w3.org/2000/svg" width="32" height="32" viewBox="0 0 32 32">
<title>Stretcher</title>
<path fill="#ff7900" d="M2.118 8.854c-0.074 0.026-0.198 0.112-0.278 0.189-0.368 0.371-0.294 0.966 0.157 1.245l0.157 0.096 2.646 0.019v11.997h-1.258c-1.43 0-1.459 0.003-1.699 0.24-0.371 0.362-0.298 0.97 0.154 1.248l0.157 0.096 13.699 0.010c7.536 0.006 13.776 0 13.866-0.010 0.221-0.026 0.442-0.176 0.57-0.381 0.086-0.141 0.096-0.186 0.096-0.403 0-0.205-0.016-0.266-0.090-0.39-0.048-0.083-0.138-0.189-0.198-0.237-0.214-0.163-0.307-0.173-1.654-0.173h-1.242v-12h1.261c1.363 0 1.414-0.006 1.642-0.179 0.058-0.042 0.144-0.147 0.192-0.23 0.179-0.304 0.096-0.774-0.179-1.002-0.25-0.205 0.97-0.189-14.128-0.186-12.147 0-13.747 0.006-13.869 0.051zM19.504 11.277c0.381 0.176 0.563 0.589 0.432 0.979-0.061 0.179-0.173 0.314-0.368 0.445l-0.128 0.083-2.384 0.016c-1.907 0.013-2.4 0.026-2.458 0.058-0.109 0.064-0.205 0.291-0.17 0.41 0.051 0.166 0.070 0.202 0.157 0.259 0.083 0.054 0.33 0.058 5.094 0.074l5.008 0.016 0.208 0.099c0.266 0.128 0.448 0.31 0.582 0.579 0.093 0.192 0.102 0.24 0.106 0.502 0 0.262-0.010 0.314-0.099 0.499-0.128 0.266-0.326 0.464-0.589 0.589l-0.208 0.099-3.024 0.016c-2.282 0.013-3.040 0.026-3.091 0.054-0.23 0.131-0.234 0.557-0.003 0.688 0.054 0.032 0.72 0.045 3.094 0.058l3.024 0.016 0.208 0.099c0.269 0.128 0.464 0.326 0.589 0.589 0.086 0.182 0.096 0.243 0.099 0.496 0 0.259-0.010 0.31-0.102 0.496-0.157 0.326-0.381 0.528-0.704 0.637-0.198 0.067-0.218 0.067-5.117 0.067-5.536 0-5.085-0.022-5.2 0.243-0.035 0.074-0.051 0.16-0.042 0.195 0.061 0.186 0.096 0.24 0.189 0.298 0.102 0.064 0.157 0.064 2.394 0.064 2.614 0 2.506-0.010 2.755 0.256 0.381 0.406 0.256 1.030-0.253 1.267l-0.16 0.077h-2.966c-3.219 0-3.213 0-3.664-0.179-0.55-0.221-0.998-0.637-1.267-1.181-0.243-0.493-0.23-0.291-0.23-3.872v-3.2l0.102-0.288c0.131-0.381 0.288-0.643 0.547-0.918 0.355-0.374 0.813-0.627 1.302-0.714 0.17-0.032 0.938-0.042 3.2-0.045l2.976-0.003 0.16 0.077zM8.797 14.445c0.576 0.112 1.117 0.522 1.376 1.046 0.227 0.461 0.282 0.925 0.166 1.379-0.358 1.405-1.981 1.981-3.146 1.12-0.314-0.23-0.55-0.56-0.688-0.957-0.074-0.218-0.086-0.298-0.083-0.634 0-0.298 0.013-0.429 0.064-0.582 0.173-0.522 0.547-0.963 1.008-1.194 0.435-0.214 0.835-0.269 1.302-0.179z"></path>
</svg>
