<!-- Generated by IcoMoon.io -->
<svg version="1.1" xmlns="http://www.w3.org/2000/svg" width="32" height="32" viewBox="0 0 32 32">
<title>subscription_package</title>
<path fill="#ff7900" d="M9.6 12.058c0 5.11 0.010 7.315 0.035 7.446 0.058 0.32 0.195 0.573 0.435 0.813 0.381 0.381 0.694 0.483 1.459 0.483 0.445 0 0.506-0.006 0.49-0.048-0.125-0.33-0.16-0.531-0.16-0.912 0-0.49 0.019-0.573 0.358-1.392 0.051-0.125 0.355-0.858 0.675-1.632s0.595-1.437 0.611-1.472c0.016-0.035 0.125-0.294 0.24-0.576s0.269-0.646 0.339-0.81c0.067-0.163 0.125-0.317 0.125-0.336 0-0.022-0.138-0.176-0.307-0.342-1.011-0.995-1.904-2.275-2.333-3.334-0.262-0.65-0.349-1.034-0.352-1.546 0-0.547 0.026-0.595 0.691-1.267 0.525-0.531 0.774-0.733 0.915-0.733 0.208 0 0.419 0.176 0.842 0.701 0.131 0.163 0.301 0.371 0.378 0.461 0.224 0.266 0.512 0.717 0.55 0.854 0.067 0.253-0.016 0.403-0.493 0.89-0.195 0.198-0.374 0.406-0.397 0.461-0.141 0.333 0.24 0.995 1.104 1.923 0.080 0.086 0.147 0.15 0.15 0.144 0.006-0.006 0.106-0.246 0.227-0.538 0.118-0.291 0.336-0.816 0.483-1.168 0.144-0.352 0.547-1.325 0.893-2.16s0.646-1.565 0.669-1.616c0.022-0.054 0.112-0.266 0.198-0.474s0.195-0.426 0.243-0.486c0.138-0.166 0.352-0.253 0.618-0.253 0.208 0.003 0.272 0.022 0.848 0.266 0.342 0.147 0.742 0.314 0.89 0.374 0.4 0.166 0.72 0.298 1.571 0.65 0.429 0.179 0.784 0.323 0.79 0.323 0.032 0 0.006-0.486-0.032-0.675-0.112-0.528-0.499-0.973-1.027-1.184l-0.192-0.077-11.536-0.016v7.258z"></path>
<path fill="#ff7900" d="M18.221 6.042c-0.026 0.064-0.166 0.4-0.307 0.742-0.595 1.443-0.669 1.619-0.698 1.68-0.029 0.067-0.979 2.358-1.104 2.672-0.038 0.096-0.23 0.557-0.426 1.024-1.504 3.61-2.979 7.213-3.011 7.354-0.112 0.534 0.048 1.056 0.442 1.446 0.237 0.23 0.352 0.298 1.043 0.576 0.266 0.106 0.509 0.208 0.544 0.224s0.416 0.176 0.848 0.355c0.432 0.176 1.411 0.582 2.176 0.899s1.507 0.624 1.648 0.682c0.141 0.058 1.235 0.509 2.429 1.005s2.176 0.896 2.179 0.893c0.003-0.006 0.378-0.909 0.832-2.010s0.88-2.131 0.947-2.288c0.147-0.352 1.181-2.845 1.325-3.2 0.192-0.47 1.744-4.221 1.821-4.4 0.266-0.611 0.605-1.472 0.65-1.642 0.096-0.374 0.003-0.902-0.224-1.258-0.125-0.198-0.406-0.442-0.63-0.547-0.115-0.054-1.677-0.707-3.472-1.45s-4.064-1.683-5.040-2.086c-0.976-0.406-1.808-0.749-1.846-0.765-0.064-0.022-0.080-0.013-0.125 0.093zM18.739 9.581c1.261 0.499 7.677 3.187 7.776 3.254 0.371 0.253 0.573 0.749 0.49 1.187-0.013 0.080-0.48 1.245-1.040 2.589-1.014 2.448-1.149 2.771-1.453 3.517-0.090 0.218-0.17 0.403-0.173 0.41-0.006 0.006-0.314-0.115-0.678-0.269-0.368-0.15-0.701-0.288-0.736-0.301-0.067-0.026-0.096 0.035-0.525 1.075-0.253 0.605-0.461 1.098-0.464 1.094-0.006-0.006-0.234-0.557-0.512-1.226-0.275-0.669-0.557-1.347-0.621-1.504-0.067-0.16-0.128-0.31-0.138-0.336s-0.358-0.189-0.781-0.365c-0.422-0.173-0.979-0.406-1.245-0.515-0.262-0.109-0.87-0.362-1.347-0.56-0.947-0.39-1.088-0.477-1.261-0.758-0.15-0.25-0.198-0.435-0.182-0.714 0.013-0.205 0.048-0.32 0.246-0.8 0.128-0.307 0.25-0.605 0.272-0.656 0.026-0.054 0.234-0.557 0.464-1.12 0.234-0.563 0.477-1.155 0.544-1.312 0.067-0.16 0.224-0.541 0.352-0.848 0.125-0.307 0.246-0.605 0.272-0.656 0.138-0.323 0.214-0.509 0.298-0.72 0.131-0.33 0.227-0.544 0.24-0.544 0.006 0 0.096 0.035 0.202 0.077z"></path>
<path fill="#ff7900" d="M5.664 9.299c-1.715 0.714-3.219 1.338-3.344 1.386-0.15 0.061-0.221 0.109-0.214 0.138 0.006 0.042 1.562 3.824 1.686 4.106 0.035 0.080 0.752 1.811 1.024 2.48 0.042 0.096 0.16 0.384 0.266 0.64s0.352 0.851 0.547 1.328c0.195 0.474 0.371 0.893 0.387 0.928s0.275 0.662 0.576 1.392c1.165 2.829 1.075 2.637 1.347 2.909 0.365 0.371 0.915 0.538 1.424 0.432 0.17-0.032 0.96-0.349 2.445-0.97 0.202-0.086 1.002-0.419 1.776-0.739s1.411-0.586 1.414-0.589c0.003-0.003-0.198-0.090-0.448-0.192-1.174-0.486-1.459-0.614-1.702-0.784l-0.256-0.176-0.848-0.003c-0.755-0.006-0.877-0.013-1.114-0.077-0.432-0.112-0.749-0.282-1.072-0.579-0.192-0.176-0.47-0.563-0.538-0.752-0.048-0.128-0.035-0.125-0.259-0.067-0.326 0.083-0.71 0.010-0.976-0.195-0.282-0.214-0.314-0.269-0.662-1.12-0.128-0.314-0.461-1.117-0.739-1.786-0.275-0.669-0.71-1.722-0.963-2.336-0.256-0.618-0.502-1.21-0.547-1.322-0.048-0.118-0.074-0.211-0.054-0.227 0.026-0.022 1.466-0.621 3.437-1.434 0.272-0.109 0.506-0.214 0.518-0.227 0.016-0.016 0.022-0.8 0.019-1.744l-0.010-1.715-3.12 1.296z"></path>
<path fill="#ff7900" d="M5.824 13.581c0 0.006 0.099 0.243 0.218 0.534l0.218 0.525 0.224 0.093c0.122 0.051 0.691 0.285 1.27 0.518l1.050 0.426-0.019-0.896-0.944-0.384c-1.789-0.73-2.016-0.822-2.016-0.816z"></path>
</svg>
