<!-- Generated by IcoMoon.io -->
<svg version="1.1" xmlns="http://www.w3.org/2000/svg" width="32" height="32" viewBox="0 0 32 32">
<title>Sudoku</title>
<path fill="#ff7900" d="M4.003 14.934c0.003 11.77-0.006 11.088 0.163 11.542 0.080 0.214 0.314 0.589 0.477 0.758 0.298 0.31 0.717 0.566 1.133 0.691 0.182 0.054 0.704 0.058 11.21 0.064l11.014 0.010v-10.906c0-7.619-0.010-10.963-0.035-11.098-0.179-0.989-0.912-1.741-1.901-1.949-0.195-0.042-1.645-0.048-11.146-0.048h-10.918l0.003 10.934zM26.4 10.8v5.2h-10.4v10.4h-10.4v-10.4h10.4v-10.4h10.4v5.2zM11.232 8.019c0.544 0.102 1.030 0.467 1.258 0.941 0.093 0.198 0.163 0.442 0.166 0.592 0 0.019-0.205 0.032-0.55 0.032l-0.554 0.003-0.051-0.16c-0.074-0.218-0.33-0.48-0.525-0.531-0.195-0.054-0.454-0.022-0.621 0.077-0.246 0.144-0.486 0.512-0.592 0.915-0.048 0.189-0.125 0.714-0.109 0.746 0.010 0.013 0.054-0.029 0.102-0.096 0.307-0.422 1.005-0.63 1.619-0.486 0.467 0.112 0.915 0.432 1.13 0.806 0.368 0.646 0.339 1.606-0.064 2.237-0.301 0.474-0.701 0.752-1.254 0.88-0.304 0.067-0.877 0.042-1.165-0.054-0.368-0.122-0.669-0.326-0.902-0.614-0.41-0.509-0.614-1.248-0.614-2.234-0.003-0.842 0.147-1.482 0.483-2.064 0.166-0.291 0.579-0.685 0.87-0.829 0.394-0.192 0.893-0.253 1.373-0.16zM21.978 21.398l-0.010 2.906-1.168 0.013v-1.888c0-1.773-0.003-1.885-0.054-1.888-0.032 0-0.358-0.003-0.73-0.006l-0.672-0.006-0.003-0.442-0.006-0.438 0.15-0.003c0.317-0.003 0.653-0.080 0.896-0.202 0.301-0.154 0.582-0.522 0.634-0.829l0.019-0.118h0.95l-0.006 2.902z"></path>
<path fill="#ff7900" d="M20.598 8.71c-0.253 0.339-0.822 1.104-1.264 1.699l-0.806 1.078v1.078l1.203-0.003c0.662-0.003 1.216 0.006 1.235 0.016 0.019 0.013 0.032 0.269 0.029 0.678l-0.003 0.656 0.56 0.006 0.56 0.003v-0.675c0-0.618 0.003-0.672 0.058-0.675 0.029 0 0.195-0.003 0.368-0.003 0.256-0.003 0.317-0.013 0.336-0.054s0.026-0.707 0.010-0.89c-0.003-0.029-0.090-0.038-0.314-0.038-0.173 0.003-0.346 0.003-0.384 0l-0.074-0.003v-3.488h-1.056l-0.458 0.614zM20.998 10.576c0 0.541-0.010 0.989-0.019 0.998-0.029 0.032-1.475 0.022-1.475-0.010 0-0.038 1.466-2 1.482-1.984 0.006 0.006 0.013 0.454 0.013 0.995z"></path>
<path fill="#ff7900" d="M10.176 18.419c-0.435 0.093-0.72 0.25-0.989 0.544-0.486 0.531-0.717 1.408-0.688 2.611 0.048 1.888 0.794 2.864 2.173 2.838 1.114-0.019 1.773-0.669 2.022-1.994 0.067-0.368 0.083-1.446 0.026-1.869-0.166-1.21-0.688-1.914-1.578-2.122-0.237-0.054-0.733-0.061-0.966-0.010zM10.966 19.427c0.259 0.125 0.438 0.41 0.541 0.861 0.077 0.326 0.093 1.686 0.026 2.064-0.083 0.474-0.246 0.822-0.448 0.966-0.285 0.205-0.742 0.173-0.976-0.067-0.198-0.198-0.355-0.624-0.403-1.091-0.045-0.442-0.022-1.453 0.038-1.782 0.067-0.378 0.23-0.726 0.406-0.867 0.221-0.176 0.547-0.208 0.816-0.083z"></path>
<path fill="#ff7900" d="M10.464 10.925c-0.406 0.106-0.659 0.442-0.694 0.925-0.048 0.653 0.307 1.142 0.864 1.197 0.269 0.022 0.48-0.067 0.678-0.288 0.39-0.429 0.352-1.283-0.067-1.654-0.214-0.189-0.502-0.253-0.781-0.179z"></path>
</svg>
