<!-- Generated by IcoMoon.io -->
<svg version="1.1" xmlns="http://www.w3.org/2000/svg" width="32" height="32" viewBox="0 0 32 32">
<title>support</title>
<path fill="#ff7900" d="M10.016 3.824c-1.722 0.256-3.152 1.299-3.901 2.845-0.352 0.723-0.493 1.347-0.496 2.195-0.003 0.774 0.093 1.302 0.365 1.971 0.659 1.619 2.096 2.778 3.853 3.107 0.445 0.083 1.434 0.074 1.859-0.019 0.483-0.102 0.886-0.243 1.312-0.454 0.49-0.243 0.906-0.541 1.299-0.931l0.31-0.307-0.019-0.141c-0.032-0.195-0.029-1.213 0.003-1.482 0.106-0.902 0.445-1.891 0.915-2.669 0.090-0.147 0.163-0.285 0.163-0.307 0-0.019-0.045-0.17-0.099-0.333-0.579-1.747-1.994-3.011-3.821-3.418-0.429-0.093-1.306-0.125-1.744-0.058z"></path>
<path fill="#ff7900" d="M20.56 6.195c-1.117 0.173-2.074 0.646-2.858 1.418-0.832 0.819-1.322 1.786-1.498 2.963-0.042 0.282-0.038 1.152 0.003 1.44 0.061 0.403 0.246 1.008 0.432 1.408 0.262 0.566 0.771 1.261 1.19 1.619 0.112 0.096 0.208 0.182 0.218 0.192 0.067 0.086 0.672 0.47 0.966 0.614 0.723 0.355 1.299 0.496 2.122 0.518 0.845 0.026 1.558-0.118 2.298-0.458 1.187-0.55 2.214-1.654 2.634-2.829 0.154-0.432 0.163-0.48 0.285-1.098 0.013-0.054 0.026-0.314 0.035-0.576 0.022-0.81-0.102-1.462-0.429-2.218-0.589-1.357-1.859-2.461-3.277-2.848-0.65-0.179-1.52-0.24-2.122-0.147z"></path>
<path fill="#ff7900" d="M6.093 14.179c-1.456 0.755-2.582 2.256-2.922 3.885-0.035 0.176-0.077 0.371-0.090 0.432-0.042 0.208-0.051 5.853-0.010 6.048 0.131 0.608 0.64 1.12 1.242 1.245 0.118 0.026 1.309 0.035 3.926 0.035h3.76l0.003-2.282c0-1.251 0.006-2.352 0.016-2.438 0.122-1.299 0.502-2.422 1.181-3.456 0.544-0.835 1.242-1.542 2.061-2.093 0.15-0.102 0.323-0.211 0.381-0.24 0.054-0.029 0.102-0.064 0.102-0.080s-0.077-0.15-0.173-0.301c-0.093-0.15-0.23-0.397-0.304-0.55-0.090-0.182-0.147-0.266-0.173-0.25-0.022 0.013-0.118 0.086-0.214 0.166-0.506 0.413-1.347 0.874-1.952 1.069-0.896 0.291-1.347 0.362-2.32 0.355-0.387-0.003-0.72-0.022-0.915-0.058-1.104-0.182-2.157-0.627-2.979-1.258-0.147-0.112-0.304-0.23-0.349-0.266l-0.083-0.061-0.189 0.096zM6.48 18.742c0.496 0.157 0.832 0.602 0.87 1.146l0.019 0.269 1.43 1.434c0.979 0.979 1.456 1.478 1.504 1.578 0.176 0.346 0.019 0.829-0.323 1.011-0.24 0.125-0.576 0.112-0.781-0.029-0.051-0.035-0.733-0.701-1.514-1.478l-1.414-1.414-0.25-0.019c-0.413-0.029-0.733-0.189-0.963-0.493-0.15-0.195-0.259-0.483-0.266-0.704s0.032-0.49 0.067-0.49c0.016 0 0.192 0.163 0.39 0.362 0.397 0.397 0.477 0.451 0.582 0.422 0.099-0.032 0.589-0.522 0.614-0.618 0.026-0.109-0.035-0.192-0.451-0.608-0.243-0.24-0.349-0.365-0.32-0.378 0.192-0.074 0.55-0.070 0.803 0.010z"></path>
<path fill="#ff7900" d="M16.733 16.541c-0.96 0.483-1.834 1.318-2.371 2.269-0.326 0.579-0.531 1.133-0.675 1.83-0.067 0.326-0.067 0.416-0.080 3.242-0.010 3.178-0.016 3.082 0.176 3.478 0.182 0.381 0.653 0.736 1.091 0.829 0.122 0.026 2.173 0.035 7.13 0.035h6.96l-0.013-3.61c-0.003-1.984-0.016-3.635-0.029-3.67-0.010-0.035-0.029-0.138-0.038-0.224-0.032-0.208-0.16-0.717-0.24-0.947-0.493-1.389-1.498-2.544-2.797-3.222l-0.246-0.131-0.218 0.163c-0.794 0.605-1.638 1.005-2.582 1.226-0.176 0.042-0.39 0.083-0.48 0.096-0.086 0.013-0.195 0.029-0.24 0.035-0.17 0.032-1.277 0.038-1.52 0.010-1.254-0.15-2.429-0.624-3.395-1.376l-0.195-0.15-0.237 0.118zM25.709 18.701c0.192 0.093 0.333 0.237 0.442 0.445 0.058 0.106 0.070 0.189 0.074 0.406 0 0.243-0.010 0.291-0.096 0.445-0.374 0.678-1.322 0.678-1.696-0.003-0.083-0.15-0.096-0.202-0.096-0.442 0-0.243 0.010-0.291 0.096-0.445 0.128-0.23 0.371-0.426 0.608-0.486 0.176-0.048 0.486-0.010 0.669 0.080zM26.31 23.686c0.010 1.907 0.019 2.432 0.051 2.512 0.051 0.118 0.234 0.221 0.454 0.246 0.080 0.010 0.147 0.016 0.154 0.016 0.003 0.003 0.006 0.074 0.006 0.163v0.16h-3.136v-0.16c0-0.090 0.003-0.16 0.010-0.16 0.003-0.003 0.064-0.010 0.134-0.019s0.192-0.048 0.272-0.086c0.259-0.125 0.256-0.080 0.246-2.358-0.006-1.869-0.010-1.974-0.067-2.086-0.070-0.138-0.192-0.205-0.429-0.237l-0.166-0.022v-0.374h2.461l0.010 2.406z"></path>
</svg>
