<!-- Generated by IcoMoon.io -->
<svg version="1.1" xmlns="http://www.w3.org/2000/svg" width="32" height="32" viewBox="0 0 32 32">
<title>surveillance_camera</title>
<path fill="#ff7900" d="M8.864 3.222c-0.099 0.035-0.198 0.157-0.307 0.378-0.064 0.122-0.192 0.368-0.285 0.544-0.256 0.49-0.56 1.069-0.832 1.6-0.237 0.461-0.4 0.774-0.88 1.696-0.547 1.050-0.544 1.040-0.525 1.165 0.035 0.23 0.042 0.234 1.085 0.771 0.563 0.291 1.123 0.582 1.664 0.864 0.538 0.282 1.104 0.573 1.632 0.848 0.266 0.138 0.624 0.323 0.8 0.416s0.55 0.288 0.832 0.432c0.57 0.294 1.133 0.589 1.664 0.864 0.195 0.099 0.554 0.288 0.8 0.416s0.608 0.314 0.8 0.416c0.195 0.102 0.582 0.304 0.864 0.448 0.282 0.147 0.643 0.333 0.8 0.416 0.16 0.083 0.547 0.285 0.864 0.448s0.678 0.349 0.8 0.416c0.944 0.506 1.376 0.71 1.485 0.71 0.064 0 0.576-0.144 1.139-0.323s1.277-0.406 1.584-0.506c1.226-0.387 1.37-0.432 1.6-0.506 0.131-0.042 0.81-0.256 1.504-0.477 0.694-0.218 1.414-0.445 1.597-0.502 0.458-0.147 0.55-0.246 0.515-0.557-0.019-0.17-0.035-0.179-1.312-0.838-0.362-0.186-0.726-0.378-0.816-0.426-0.086-0.048-0.419-0.221-0.736-0.384s-0.755-0.39-0.976-0.506c-0.221-0.112-0.579-0.301-0.8-0.416-0.221-0.112-0.528-0.275-0.688-0.358-0.157-0.083-0.56-0.291-0.896-0.464-0.333-0.173-0.707-0.365-0.832-0.432-0.122-0.067-0.483-0.253-0.8-0.416s-0.704-0.365-0.864-0.448c-0.157-0.083-0.531-0.278-0.832-0.432-0.298-0.154-0.643-0.333-0.768-0.4-0.122-0.067-0.467-0.246-0.768-0.4-0.298-0.154-0.701-0.362-0.896-0.464-0.192-0.102-0.554-0.288-0.8-0.416s-0.605-0.314-0.8-0.416c-0.506-0.262-1.456-0.758-2.496-1.296-0.262-0.138-0.624-0.323-0.8-0.416-1.942-1.018-2.054-1.072-2.163-1.069-0.061 0-0.131 0.010-0.157 0.019z"></path>
<path fill="#ff7900" d="M5.398 9.677c-0.701 1.344-0.698 1.341-0.698 1.546 0 0.106 0.019 0.243 0.045 0.304 0.074 0.176 0.259 0.362 0.48 0.474 0.269 0.138 1.181 0.611 1.574 0.816 0.176 0.093 0.538 0.278 0.8 0.416 0.266 0.138 0.624 0.323 0.8 0.416s0.566 0.294 0.864 0.448c0.301 0.157 0.682 0.355 0.851 0.445l0.307 0.16-0.010 0.368c-0.003 0.205 0.006 0.47 0.022 0.595 0.070 0.48 0.301 1.034 0.595 1.427l0.17 0.224-1.155 2.31c-0.634 1.27-1.168 2.323-1.184 2.342-0.019 0.019-0.656 0.029-1.667 0.032-1.603 0-1.635 0-1.661-0.064-0.013-0.035-0.048-0.208-0.077-0.384s-0.093-0.48-0.144-0.678c-0.499-1.878-1.549-3.142-2.707-3.261l-0.205-0.022v11.216l0.189-0.019c0.771-0.083 1.469-0.621 2.035-1.568 0.39-0.656 0.733-1.658 0.864-2.531 0.010-0.070 0.026-0.163 0.035-0.208l0.016-0.080h2.067c2.218 0 2.326-0.006 2.589-0.16 0.307-0.179 0.358-0.262 1.114-1.773 0.394-0.784 1.018-2.026 1.382-2.755l0.669-1.328 0.352-0.003c0.4-0.003 0.787-0.086 1.152-0.243 0.227-0.099 0.643-0.362 0.848-0.531 0.112-0.096 0.112-0.096 0.224-0.042 0.106 0.051 0.832 0.429 1.52 0.787 0.176 0.093 0.522 0.272 0.768 0.4s0.592 0.307 0.768 0.4c0.176 0.093 0.579 0.301 0.896 0.464s0.678 0.349 0.8 0.416c0.125 0.064 0.541 0.282 0.928 0.483 0.685 0.352 0.71 0.362 0.912 0.365 0.16 0 0.243-0.019 0.365-0.080 0.243-0.125 0.23-0.102 0.928-1.456 0.192-0.371 0.416-0.803 0.499-0.96 0.17-0.323 0.406-0.781 0.899-1.728 0.182-0.352 0.442-0.848 0.576-1.104 0.131-0.256 0.24-0.467 0.237-0.47 0-0.003-0.275 0.080-0.608 0.186-1.37 0.432-1.654 0.522-2.928 0.925-0.73 0.23-1.507 0.477-1.728 0.547-0.458 0.144-0.643 0.166-0.909 0.102-0.163-0.038-0.806-0.349-1.539-0.746-0.086-0.048-0.432-0.227-0.768-0.4-0.333-0.173-0.723-0.374-0.864-0.448s-0.486-0.256-0.768-0.4c-0.282-0.144-0.685-0.355-0.896-0.464s-0.586-0.304-0.832-0.432c-0.246-0.128-0.605-0.317-0.8-0.416-0.55-0.288-1.11-0.579-1.6-0.832-0.246-0.128-0.605-0.314-0.8-0.416-0.192-0.099-0.582-0.304-0.864-0.448-0.282-0.147-0.64-0.333-0.8-0.416-0.157-0.083-0.518-0.272-0.8-0.416s-0.611-0.317-0.736-0.384c-0.122-0.064-0.525-0.275-0.896-0.467-0.989-0.509-1.107-0.576-1.232-0.678l-0.115-0.096-0.15 0.294z"></path>
<path fill="#ff7900" d="M26.432 16.189c-0.051 0.106-0.125 0.246-0.163 0.314s-0.221 0.416-0.406 0.778c-0.186 0.362-0.48 0.928-0.653 1.264-0.173 0.333-0.362 0.698-0.416 0.803l-0.099 0.198 0.336 0.426c1.104 1.395 1.286 1.61 1.44 1.686 0.304 0.157 0.771 0.061 0.97-0.198 0.067-0.090 0.41-0.774 0.864-1.731 0.077-0.16 0.237-0.496 0.362-0.752 1.005-2.090 0.934-1.926 0.934-2.138-0.003-0.31-0.179-0.598-0.464-0.752-0.125-0.067-0.166-0.070-1.366-0.080l-1.238-0.010-0.099 0.192z"></path>
</svg>
