<!-- Generated by IcoMoon.io -->
<svg version="1.1" xmlns="http://www.w3.org/2000/svg" width="32" height="32" viewBox="0 0 32 32">
<title>Syncronise</title>
<path fill="#ff7900" d="M15.354 3.213c-0.003 0.006-0.154 0.019-0.33 0.032-0.688 0.042-1.494 0.173-2.211 0.358-0.394 0.102-1.123 0.326-1.277 0.397-0.035 0.013-0.214 0.086-0.4 0.16-2.266 0.906-4.403 2.656-5.782 4.736-0.957 1.446-1.536 2.845-1.917 4.63l-0.013 0.074h4.954l0.022-0.096c0.074-0.33 0.486-1.222 0.794-1.712 0.614-0.976 1.466-1.85 2.406-2.47 0.979-0.643 2.054-1.059 3.184-1.226 0.131-0.019 0.275-0.045 0.32-0.054s0.39-0.019 0.768-0.026c0.544-0.010 0.784 0.003 1.152 0.051 1.68 0.224 3.12 0.896 4.39 2.048l0.246 0.224-3.245 3.245 4.048 0.010c2.902 0.006 4.102 0 4.24-0.026 0.592-0.112 1.091-0.586 1.248-1.187 0.038-0.144 0.048-0.835 0.048-4.278v-4.106l-1.472 1.475-1.475 1.475-0.342-0.32c-1.549-1.45-3.494-2.512-5.542-3.027-0.416-0.106-0.963-0.218-1.232-0.256-0.070-0.010-0.163-0.022-0.208-0.032-0.083-0.013-0.349-0.038-0.8-0.077-0.266-0.026-1.552-0.042-1.574-0.022z"></path>
<path fill="#ff7900" d="M5.226 18.445c-0.576 0.141-1.069 0.65-1.19 1.229-0.035 0.17-0.054 8.294-0.019 8.294 0.010 0 0.672-0.656 1.475-1.459l1.459-1.459 0.198 0.189c1.491 1.45 3.462 2.57 5.475 3.107 0.496 0.134 0.864 0.211 1.536 0.323 0.448 0.074 1.008 0.112 1.728 0.112 0.915 0.003 1.44-0.029 2.048-0.128 0.054-0.006 0.147-0.022 0.208-0.032 1.926-0.307 3.917-1.165 5.552-2.394 1.283-0.966 2.538-2.358 3.283-3.645 0.061-0.106 0.131-0.227 0.16-0.275 0.56-0.934 1.158-2.512 1.373-3.603 0.019-0.106 0.045-0.218 0.051-0.25 0.016-0.051-0.115-0.054-2.461-0.054h-2.48l-0.022 0.086c-0.051 0.205-0.259 0.72-0.422 1.046-0.41 0.819-0.874 1.459-1.53 2.115-0.781 0.784-1.53 1.286-2.64 1.77-0.429 0.189-1.242 0.406-1.856 0.499-0.445 0.070-1.542 0.093-1.987 0.042-0.979-0.109-1.869-0.371-2.752-0.813-0.682-0.339-1.229-0.717-1.811-1.245l-0.262-0.24 3.261-3.261-4.102 0.003c-3.168 0.003-4.144 0.013-4.272 0.042z"></path>
</svg>
