<!-- Generated by IcoMoon.io -->
<svg version="1.1" xmlns="http://www.w3.org/2000/svg" width="32" height="32" viewBox="0 0 32 32">
<title>target_location</title>
<path fill="#ff7900" d="M14.72 2.832v1.229l-0.102 0.016c-0.058 0.010-0.221 0.032-0.362 0.051-0.672 0.096-1.507 0.301-2.192 0.538-4.24 1.475-7.35 5.264-7.949 9.686-0.010 0.070-0.029 0.182-0.038 0.246l-0.019 0.122h-2.458v2.56h2.458l0.019 0.086c0.010 0.051 0.026 0.16 0.035 0.25 0.080 0.698 0.304 1.622 0.582 2.4 0.947 2.675 2.931 5.043 5.37 6.406 0.515 0.288 0.656 0.358 1.066 0.541 1.040 0.461 2.096 0.765 3.222 0.922 0.070 0.010 0.182 0.029 0.25 0.038l0.118 0.019v2.458h2.56v-1.232c0-0.678 0.010-1.232 0.026-1.235 0.013 0 0.045-0.006 0.070-0.010 0.026-0.006 0.134-0.019 0.237-0.032 0.253-0.029 1.126-0.198 1.427-0.282 1.45-0.384 2.781-1.018 4.016-1.91 0.16-0.115 0.294-0.218 0.304-0.227s0.080-0.067 0.16-0.128c0.198-0.154 0.707-0.614 0.963-0.867 1.722-1.728 2.886-3.942 3.322-6.317 0.035-0.195 0.070-0.432 0.083-0.528 0.010-0.096 0.026-0.214 0.035-0.266l0.019-0.086h2.458v-2.56h-2.461l-0.016-0.106c-0.010-0.054-0.032-0.218-0.051-0.358-0.253-1.882-1.082-3.862-2.298-5.475-1.891-2.515-4.771-4.221-7.846-4.656-0.15-0.019-0.301-0.042-0.336-0.048-0.035-0.003-0.074-0.010-0.086-0.010-0.016-0.003-0.026-0.557-0.026-1.235v-1.232h-2.56v1.232zM14.72 7.648v1.152h2.56v-2.304h0.074c0.227 0 1.267 0.253 1.776 0.432 3.005 1.046 5.302 3.507 6.134 6.563 0.086 0.307 0.24 1.066 0.24 1.171 0 0.054-0.067 0.058-1.152 0.058h-1.152v2.56h2.307l-0.019 0.166c-0.013 0.093-0.042 0.278-0.067 0.41-0.582 2.909-2.483 5.398-5.133 6.723-0.79 0.397-1.568 0.662-2.41 0.832-0.259 0.051-0.502 0.093-0.538 0.093-0.058 0-0.061-0.032-0.061-1.152v-1.152h-2.56v2.304h-0.070c-0.042 0-0.285-0.042-0.541-0.096-3.789-0.768-6.749-3.728-7.517-7.517-0.054-0.256-0.096-0.499-0.096-0.541v-0.070h2.304v-2.56h-2.314l0.022-0.17c0.048-0.352 0.224-1.082 0.371-1.526 1.040-3.152 3.6-5.536 6.8-6.336 0.394-0.099 0.819-0.182 0.97-0.189l0.070-0.003v1.152z"></path>
</svg>
