<!-- Generated by IcoMoon.io -->
<svg version="1.1" xmlns="http://www.w3.org/2000/svg" width="32" height="32" viewBox="0 0 32 32">
<title>tariff</title>
<path fill="#ff7900" d="M9.83 9.117c-4.349 4.352-6.749 6.781-6.845 6.915-0.816 1.181-0.762 2.829 0.128 3.904 0.090 0.109 7.475 7.51 8.47 8.49 0.531 0.525 0.803 0.726 1.226 0.906 0.454 0.195 0.739 0.25 1.302 0.25 0.442 0 0.531-0.010 0.813-0.086 0.39-0.109 0.829-0.317 1.114-0.534 0.118-0.090 3.219-3.168 6.89-6.838l6.672-6.672v-5.795c0-5.222-0.006-5.814-0.051-6.003-0.147-0.598-0.592-1.046-1.187-1.2-0.173-0.045-0.813-0.051-6.013-0.048l-5.821 0.003-6.698 6.71zM26.166 4.906c1.091 0.438 1.379 1.795 0.557 2.618-0.634 0.634-1.613 0.634-2.246 0-0.49-0.49-0.611-1.194-0.31-1.824 0.189-0.397 0.624-0.749 1.066-0.854 0.256-0.061 0.701-0.032 0.934 0.061z"></path>
</svg>
