<!-- Generated by IcoMoon.io -->
<svg version="1.1" xmlns="http://www.w3.org/2000/svg" width="32" height="32" viewBox="0 0 32 32">
<title>tarif</title>
<path fill="#ff7900" d="M16.41 2.416c-0.006 0.003-0.109 0.016-0.234 0.029-3.046 0.282-5.885 2.432-7.466 5.661-0.202 0.41-0.506 1.139-0.618 1.478-0.022 0.070-0.058 0.144-0.074 0.163-0.019 0.022-0.218 0.131-0.442 0.246-0.538 0.275-1.12 0.64-1.619 1.014-0.621 0.467-0.762 0.589-1.382 1.213-0.797 0.797-1.488 1.728-2.016 2.704-0.176 0.33-0.198 0.454-0.096 0.618 0.122 0.202 0.33 0.243 0.56 0.118 0.326-0.179 0.422-0.218 0.685-0.285 0.464-0.122 1.037-0.064 1.459 0.15 0.365 0.189 0.723 0.547 0.912 0.925 0.195 0.387 0.227 0.554 0.24 1.338 0.013 0.669 0.035 1.149 0.064 1.315 0.006 0.045 0.022 0.166 0.032 0.272 0.147 1.459 0.621 3.053 1.315 4.442 1.197 2.39 3.114 4.24 5.334 5.139 0.816 0.33 1.43 0.483 2.454 0.608 0.355 0.045 1.555 0.019 1.952-0.042 1.222-0.182 2.285-0.563 3.363-1.203 0.87-0.518 1.882-1.382 2.538-2.176l0.090-0.109 0.246 0.013c1.597 0.074 2.819-0.147 3.875-0.71 0.346-0.182 0.416-0.237 0.416-0.314s-0.586-0.63-0.963-0.918c-0.88-0.662-2.013-1.162-2.899-1.277l-0.17-0.022-0.115-0.227c-0.544-1.062-1.61-2.045-3.053-2.81-0.266-0.141-0.352-0.173-0.406-0.15-0.042 0.016-0.074 0.045-0.077 0.067 0 0.022-0.006 0.064-0.010 0.090-0.045 0.237-0.070 1.382-0.038 1.648 0.006 0.051 0.022 0.195 0.035 0.32 0.090 0.934 0.464 2.058 0.928 2.784l0.112 0.176-0.195 0.182c-1.318 1.245-3.318 1.584-4.918 0.835-1.341-0.624-2.326-2.096-2.518-3.757-0.013-0.106-0.029-0.224-0.035-0.269-0.019-0.112-0.019-1.453 0-1.648 0.010-0.090 0.026-0.253 0.035-0.368 0.048-0.534 0.17-1.232 0.31-1.76 0.064-0.253 0.266-0.899 0.31-1.008 0.016-0.035 0.083-0.202 0.147-0.368 0.134-0.336 0.618-1.328 0.72-1.472 0.035-0.048 0.064-0.099 0.064-0.109 0-0.035 0.467-0.755 0.73-1.123 0.582-0.816 1.226-1.578 2.006-2.378 0.397-0.41 0.826-0.832 0.944-0.934 0.045-0.038 0.125-0.109 0.176-0.157 0.227-0.205 1.456-1.197 1.814-1.459 0.122-0.093 1.219-0.954 1.261-0.992 0.022-0.016 0.221-0.176 0.448-0.352 1.546-1.206 1.955-1.558 2.33-2.013 0.592-0.707 0.704-1.229 0.397-1.837-0.362-0.717-1.2-0.883-2.928-0.582-1.251 0.221-2.829 0.81-3.971 1.485-0.381 0.227-0.464 0.237-0.618 0.086-0.099-0.102-0.115-0.205-0.054-0.339 0.070-0.154 1.158-0.742 2.010-1.088 0.202-0.083 0.381-0.16 0.394-0.176 0.058-0.051-1.024-0.397-1.645-0.525-0.634-0.131-1.034-0.173-1.603-0.173-0.291 0-0.538 0.003-0.544 0.010zM15.802 4.96c0.448 0.198 0.701 0.739 0.566 1.206-0.115 0.403-0.381 0.662-0.778 0.762-0.502 0.128-1.037-0.157-1.226-0.653-0.090-0.24-0.074-0.592 0.035-0.819 0.253-0.525 0.858-0.736 1.402-0.496z"></path>
</svg>
