<!-- Generated by IcoMoon.io -->
<svg version="1.1" xmlns="http://www.w3.org/2000/svg" width="32" height="32" viewBox="0 0 32 32">
<title>task_list</title>
<path fill="#ff7900" d="M15.696 1.619c-0.035 0.006-0.144 0.029-0.24 0.048-0.384 0.077-0.858 0.342-1.155 0.643-0.186 0.189-0.413 0.522-0.509 0.742l-0.061 0.144-1.981 0.019-0.186 0.128c-0.131 0.093-0.208 0.173-0.269 0.288l-0.080 0.157-0.019 3.411h9.606l-0.010-1.722-0.010-1.718-0.093-0.154c-0.048-0.083-0.138-0.189-0.198-0.234-0.202-0.157-0.333-0.173-1.315-0.173h-0.909l-0.061-0.147c-0.31-0.723-1.005-1.27-1.795-1.414-0.16-0.032-0.611-0.042-0.717-0.019zM16.323 3.27c0.307 0.131 0.496 0.454 0.467 0.794-0.064 0.752-1.021 0.998-1.45 0.374-0.291-0.422-0.093-1.011 0.4-1.197 0.138-0.051 0.422-0.035 0.582 0.029z"></path>
<path fill="#ff7900" d="M6.826 4.845c-0.419 0.102-0.874 0.458-1.043 0.819-0.198 0.416-0.182-0.493-0.182 11.552 0 11.978-0.013 11.12 0.179 11.517 0.115 0.234 0.454 0.573 0.688 0.688 0.394 0.192-0.275 0.179 9.485 0.179 6.32 0 9.021-0.010 9.152-0.035 0.589-0.106 1.088-0.582 1.248-1.184 0.070-0.259 0.070-22.102 0-22.362-0.112-0.429-0.454-0.861-0.816-1.037-0.374-0.179-0.413-0.182-2.246-0.182h-1.69v3.2h-11.2v-3.2l-1.702 0.003c-1.248 0-1.75 0.013-1.872 0.042zM23.914 11.328c0.090 0.102 0.109 0.218 0.051 0.323-0.019 0.038-0.15 0.198-0.291 0.358-0.266 0.304-0.278 0.32-0.57 0.662-0.096 0.115-0.182 0.214-0.192 0.224s-0.102 0.115-0.208 0.24c-0.106 0.122-0.198 0.23-0.208 0.24s-0.131 0.154-0.272 0.32c-0.422 0.499-0.592 0.666-0.691 0.688-0.208 0.048-0.253 0.013-0.851-0.682-0.314-0.362-0.595-0.694-0.624-0.739-0.112-0.163-0.064-0.31 0.16-0.493 0.134-0.109 0.166-0.122 0.291-0.109 0.128 0.013 0.166 0.045 0.499 0.374 0.198 0.198 0.368 0.362 0.374 0.365 0.010 0 0.138-0.106 0.285-0.237s0.339-0.304 0.429-0.384c0.086-0.077 0.246-0.221 0.352-0.32 0.592-0.544 0.963-0.867 1.056-0.925 0.109-0.064 0.31-0.019 0.41 0.093zM17.866 12.051c0.336 0.115 0.563 0.474 0.525 0.838-0.032 0.317-0.285 0.611-0.586 0.678-0.070 0.019-1.875 0.032-4.224 0.032-4.595 0-4.275 0.016-4.534-0.237-0.288-0.278-0.323-0.714-0.083-1.046 0.074-0.102 0.278-0.246 0.413-0.288 0.045-0.013 1.939-0.026 4.211-0.026 3.702-0.003 4.144 0.003 4.278 0.048zM23.914 15.328c0.182 0.205 0.192 0.189-0.838 1.379-0.326 0.378-0.765 0.886-0.976 1.133-0.445 0.515-0.448 0.518-0.589 0.547-0.176 0.035-0.278-0.038-0.624-0.445-0.179-0.214-0.435-0.509-0.57-0.659-0.387-0.435-0.4-0.499-0.16-0.749 0.15-0.157 0.166-0.166 0.32-0.166h0.163l0.374 0.374 0.378 0.374 0.16-0.15c0.090-0.083 0.205-0.186 0.256-0.23 0.083-0.070 0.768-0.688 0.867-0.784 0.291-0.272 0.752-0.669 0.829-0.717 0.109-0.064 0.31-0.019 0.41 0.093zM17.994 16.106c0.528 0.31 0.534 1.059 0.010 1.382l-0.157 0.096-4.173 0.010c-2.829 0.006-4.214-0.003-4.298-0.026-0.070-0.019-0.186-0.080-0.259-0.138-0.381-0.294-0.416-0.851-0.077-1.19 0.253-0.253-0.086-0.237 4.608-0.23l4.192 0.006 0.154 0.090zM17.859 20.048c0.192 0.067 0.333 0.186 0.435 0.362 0.077 0.128 0.090 0.186 0.090 0.39 0 0.208-0.013 0.262-0.093 0.394-0.048 0.083-0.138 0.189-0.192 0.23-0.243 0.186-0.016 0.176-4.496 0.176-4.643 0-4.31 0.019-4.566-0.246-0.41-0.419-0.246-1.114 0.304-1.309 0.093-0.032 0.97-0.042 4.246-0.045 3.619 0 4.15 0.006 4.272 0.048zM21.6 20.8v0.8h-1.6v-1.6h1.6v0.8zM18.003 24.112c0.522 0.323 0.518 1.072-0.010 1.382l-0.154 0.090-4.157 0.010c-4.688 0.010-4.387 0.022-4.64-0.23-0.317-0.317-0.32-0.797-0.006-1.12 0.253-0.256-0.093-0.24 4.614-0.234l4.195 0.006 0.157 0.096zM21.6 24.8v0.8h-1.6v-1.6h1.6v0.8z"></path>
</svg>
