<!-- Generated by IcoMoon.io -->
<svg version="1.1" xmlns="http://www.w3.org/2000/svg" width="32" height="32" viewBox="0 0 32 32">
<title>Taxi</title>
<path fill="#ff7900" d="M12 6.8l-0.8 1.2h-1.68c-1.101 0-1.734 0.013-1.846 0.035-0.24 0.051-0.531 0.195-0.714 0.355-0.096 0.083-1.136 1.446-2.624 3.434-1.357 1.811-2.486 3.331-2.515 3.376s-0.086 0.166-0.128 0.272l-0.077 0.192-0.013 6.176 0.074 0.23c0.176 0.541 0.592 0.938 1.136 1.082 0.099 0.026 0.362 0.045 0.666 0.048 0.275 0 0.506 0.006 0.509 0.010s0.013 0.134 0.026 0.294c0.131 1.741 1.395 3.2 3.123 3.603 0.406 0.096 1.222 0.106 1.632 0.019 0.554-0.118 1.014-0.31 1.485-0.624 0.278-0.182 0.822-0.717 1.018-0.998 0.435-0.618 0.714-1.45 0.726-2.17l0.003-0.134h7.2l0.003 0.134c0.010 0.694 0.266 1.469 0.691 2.118 0.208 0.314 0.765 0.861 1.098 1.078 0.688 0.445 1.309 0.637 2.112 0.656 1.11 0.022 2.054-0.342 2.851-1.101 0.755-0.717 1.226-1.763 1.242-2.752l0.003-0.134h0.88c0.515 0 0.947-0.016 1.046-0.035 0.611-0.128 1.123-0.65 1.242-1.261 0.026-0.138 0.032-0.95 0.026-2.816l-0.010-2.624-0.077-0.192c-0.214-0.534-0.618-0.893-1.155-1.021-0.115-0.026-0.906-0.179-1.76-0.339s-1.61-0.304-1.68-0.32c-0.070-0.016-0.208-0.045-0.307-0.061-0.186-0.032-0.24-0.077-0.701-0.579-0.058-0.061-0.205-0.221-0.333-0.352-0.358-0.378-1.12-1.19-1.216-1.296-0.077-0.083-0.454-0.483-1.21-1.28-0.115-0.122-0.25-0.269-0.298-0.32-0.096-0.102-0.458-0.486-0.832-0.88-0.125-0.131-0.47-0.499-0.768-0.816-0.592-0.627-0.694-0.72-0.918-0.835-0.31-0.16-0.454-0.173-1.84-0.173h-1.29l-0.694-1.050c-0.384-0.576-0.704-1.053-0.714-1.062s-0.058-0.077-0.106-0.154l-0.086-0.134h-1.6l-0.8 1.2zM12.384 12.064v2.336h-3.811c-2.096 0-3.805-0.013-3.798-0.026 0.006-0.016 0.787-1.066 1.738-2.336l1.728-2.31h4.144v2.336zM18.496 9.878c0.074 0.086 0.253 0.275 0.394 0.426s0.374 0.394 0.515 0.544c0.141 0.15 0.365 0.387 0.496 0.528 0.134 0.141 0.445 0.474 0.691 0.736s0.55 0.586 0.678 0.72c0.125 0.131 0.272 0.291 0.33 0.352 0.125 0.138 0.477 0.509 0.781 0.832 0.125 0.131 0.256 0.272 0.288 0.31l0.061 0.074h-7.946v-4.672h3.578l0.134 0.15zM12.544 16.125c0.182 0.093 0.304 0.208 0.4 0.371 0.080 0.134 1.453 3.878 1.555 4.24 0.077 0.259 0.077 0.365 0 0.531-0.070 0.154-0.214 0.253-0.442 0.304-0.208 0.048-0.362 0.016-0.483-0.099-0.134-0.128-0.189-0.243-0.298-0.618-0.051-0.176-0.099-0.326-0.112-0.339-0.010-0.010-0.477-0.019-1.037-0.022h-1.018l-0.102 0.352c-0.122 0.416-0.15 0.48-0.288 0.618-0.125 0.125-0.272 0.16-0.493 0.109-0.477-0.106-0.608-0.445-0.394-1.018 0.045-0.118 0.381-1.037 0.742-2.042 0.365-1.002 0.694-1.888 0.736-1.968 0.067-0.128 0.186-0.262 0.342-0.381 0.198-0.15 0.64-0.17 0.89-0.038zM21.542 16.115c0.109 0.058 0.243 0.23 0.285 0.368 0.019 0.067 0.032 0.954 0.032 2.362v2.25l-0.083 0.173c-0.096 0.195-0.24 0.301-0.442 0.323-0.282 0.032-0.502-0.090-0.634-0.346l-0.070-0.141-0.003-2.128c-0.003-1.171 0.006-2.218 0.016-2.33 0.032-0.307 0.202-0.528 0.454-0.579 0.134-0.029 0.336-0.006 0.445 0.048zM16.416 16.176c0.080 0.054 0.304 0.333 0.611 0.755 0.48 0.656 0.486 0.666 0.541 0.595 0.029-0.038 0.224-0.317 0.432-0.614 0.208-0.301 0.413-0.582 0.458-0.63 0.198-0.214 0.598-0.288 0.81-0.144 0.24 0.16 0.336 0.541 0.208 0.803-0.035 0.067-0.326 0.477-0.65 0.906-0.522 0.698-0.582 0.794-0.547 0.845 0.022 0.032 0.362 0.48 0.749 0.995 0.39 0.515 0.733 0.982 0.762 1.040 0.099 0.198 0.042 0.509-0.128 0.71-0.131 0.15-0.31 0.195-0.534 0.134-0.246-0.070-0.403-0.221-0.79-0.758-0.202-0.278-0.467-0.65-0.592-0.819l-0.23-0.307-0.582 0.819c-0.637 0.896-0.746 1.008-1.034 1.069-0.205 0.042-0.307 0.022-0.442-0.090-0.179-0.15-0.278-0.458-0.218-0.672 0.016-0.064 0.368-0.563 0.797-1.133 0.419-0.563 0.765-1.034 0.765-1.046 0-0.016-0.061-0.106-0.138-0.202-0.438-0.56-1.056-1.398-1.114-1.51-0.144-0.282-0.029-0.662 0.25-0.813 0.141-0.077 0.461-0.042 0.618 0.067zM9.488 16.163c0.070 0.019 0.163 0.064 0.208 0.099 0.256 0.202 0.256 0.637-0.003 0.835-0.154 0.115-0.282 0.138-0.71 0.138-0.211-0.003-0.387 0.010-0.397 0.026s-0.019 0.896-0.022 1.955l-0.003 1.926-0.096 0.157c-0.134 0.218-0.317 0.31-0.573 0.291-0.221-0.019-0.381-0.128-0.483-0.33-0.061-0.122-0.064-0.198-0.074-2.070-0.003-1.069-0.019-1.942-0.032-1.946s-0.218-0.006-0.454-0.010c-0.49-0.006-0.608-0.045-0.768-0.24-0.080-0.093-0.096-0.144-0.096-0.282 0-0.090 0.013-0.202 0.029-0.243 0.045-0.112 0.205-0.262 0.33-0.301 0.15-0.048 2.973-0.054 3.146-0.006z"></path>
<path fill="#ff7900" d="M12.090 17.507c-0.029 0.096-0.163 0.518-0.298 0.941s-0.259 0.806-0.272 0.854l-0.026 0.083 0.653 0.003c0.358 0.003 0.653 0 0.653-0.006s-0.042-0.138-0.093-0.294c-0.051-0.16-0.179-0.57-0.288-0.912s-0.218-0.672-0.24-0.733l-0.042-0.106-0.048 0.17z"></path>
</svg>
