<!-- Generated by IcoMoon.io -->
<svg version="1.1" xmlns="http://www.w3.org/2000/svg" width="32" height="32" viewBox="0 0 32 32">
<title>team_connect</title>
<path fill="#ff7900" d="M8.71 4.861c-1.254 0.342-1.866 1.693-1.286 2.845 0.070 0.134 0.214 0.346 0.32 0.47 0.314 0.362 0.365 0.678 0.157 1.024-0.112 0.182-0.275 0.314-0.461 0.365-0.090 0.026-0.989 0.035-2.986 0.035h-2.854l0.010 7.382c0.003 4.064 0.019 7.437 0.035 7.498 0.176 0.749 0.64 1.347 1.299 1.67 0.518 0.253-0.157 0.23 7.142 0.24l6.522 0.010-0.128-0.166c-0.234-0.31-0.406-0.736-0.461-1.13-0.010-0.070-0.016-1.254-0.019-2.634v-2.502l-0.23 0.195c-0.275 0.227-0.707 0.451-1.066 0.544-0.282 0.074-0.886 0.109-1.136 0.061-1.091-0.198-1.914-0.922-2.246-1.968-0.099-0.301-0.102-0.349-0.102-0.784 0.003-0.368 0.016-0.515 0.070-0.72 0.314-1.171 1.354-2.019 2.55-2.086 0.749-0.042 1.494 0.218 2.026 0.704l0.134 0.128v-2.512c0-2.131-0.006-2.538-0.048-2.698-0.138-0.538-0.518-0.96-1.034-1.149-0.173-0.064-0.269-0.067-2.070-0.083-1.859-0.016-1.891-0.016-2.016-0.086-0.358-0.192-0.528-0.576-0.419-0.947 0.035-0.115 0.112-0.24 0.259-0.416 0.342-0.41 0.486-0.755 0.518-1.238 0.048-0.781-0.381-1.533-1.078-1.888-0.419-0.214-0.973-0.278-1.402-0.163zM7.136 12.432c0.39 0.054 0.742 0.243 1.072 0.576 0.429 0.429 0.602 0.87 0.579 1.472-0.032 0.742-0.435 1.373-1.094 1.706-1.29 0.65-2.829-0.262-2.88-1.706-0.029-0.781 0.349-1.446 1.034-1.834 0.387-0.218 0.784-0.282 1.29-0.214zM7.2 17.229c0.931 0.125 1.824 0.813 2.176 1.68 0.211 0.522 0.205 0.406 0.218 2.861l0.010 2.234-2.186-0.010c-2.15-0.013-2.189-0.013-2.355-0.080-0.531-0.214-0.918-0.666-1.027-1.19-0.054-0.262-0.045-2.928 0.013-3.219 0.288-1.498 1.638-2.474 3.152-2.275z"></path>
<path fill="#ff7900" d="M23.107 4.867c-1.056 0.269-1.712 1.363-1.443 2.41 0.064 0.253 0.243 0.627 0.365 0.762 0.038 0.042 0.118 0.134 0.182 0.208 0.211 0.237 0.269 0.618 0.134 0.89-0.083 0.166-0.272 0.333-0.448 0.4-0.166 0.061-0.253 0.064-2.938 0.064h-2.768l0.128 0.166c0.166 0.221 0.33 0.56 0.403 0.842 0.058 0.211 0.061 0.39 0.061 2.928v2.704l-0.070 0.128c-0.157 0.291-0.374 0.416-0.73 0.416-0.298 0-0.371-0.032-0.682-0.294-0.81-0.685-1.971-0.64-2.717 0.109-0.778 0.781-0.774 2.019 0.006 2.806 0.592 0.598 1.488 0.758 2.246 0.406 0.198-0.096 0.499-0.301 0.582-0.4 0.163-0.195 0.685-0.266 0.947-0.125 0.17 0.090 0.285 0.218 0.365 0.397 0.064 0.144 0.067 0.202 0.067 2.736 0.003 2.806-0.003 2.739 0.179 3.114 0.112 0.23 0.454 0.573 0.685 0.685 0.397 0.195-0.016 0.182 6.64 0.182h6.096v-7.312c0-8.048 0.013-7.539-0.192-8.022-0.224-0.525-0.646-0.973-1.158-1.219-0.438-0.211-0.506-0.221-1.642-0.234-2.099-0.026-2.035-0.022-2.176-0.099-0.272-0.144-0.435-0.39-0.448-0.678-0.013-0.243 0.058-0.413 0.259-0.646 0.342-0.394 0.515-0.8 0.544-1.277 0.083-1.338-1.174-2.378-2.48-2.045zM24.112 12.47c0.65 0.176 1.158 0.656 1.386 1.302 0.067 0.192 0.080 0.288 0.080 0.627 0.003 0.342-0.006 0.432-0.070 0.608-0.118 0.333-0.253 0.544-0.512 0.8-0.624 0.621-1.539 0.765-2.314 0.365-0.317-0.163-0.71-0.557-0.848-0.845-0.186-0.381-0.211-0.499-0.214-0.912-0.003-0.339 0.010-0.413 0.086-0.646 0.346-1.005 1.395-1.574 2.406-1.299zM24.176 17.267c0.307 0.058 0.723 0.237 1.008 0.429 0.406 0.272 0.813 0.768 0.992 1.213 0.211 0.522 0.205 0.406 0.218 2.858l0.010 2.234h-2.080c-1.395 0-2.134-0.013-2.25-0.035-0.262-0.054-0.55-0.208-0.758-0.4s-0.314-0.352-0.426-0.64c-0.074-0.189-0.074-0.198-0.074-1.773 0-1.549 0.003-1.59 0.074-1.85 0.307-1.13 1.293-1.984 2.39-2.077 0.106-0.010 0.198-0.022 0.202-0.026 0.026-0.022 0.451 0.019 0.694 0.067z"></path>
</svg>
