<!-- Generated by IcoMoon.io -->
<svg version="1.1" xmlns="http://www.w3.org/2000/svg" width="32" height="32" viewBox="0 0 32 32">
<title>temperature</title>
<path fill="#ff7900" d="M15.488 2.432c-0.858 0.102-1.654 0.499-2.307 1.149-0.486 0.49-0.787 0.976-0.989 1.61-0.195 0.611-0.186 0.173-0.189 7.843l-0.003 7.034-0.227 0.262c-0.55 0.637-0.982 1.45-1.181 2.23-0.134 0.522-0.163 0.755-0.176 1.312-0.019 0.842 0.090 1.459 0.387 2.205 0.474 1.187 1.373 2.208 2.486 2.819 2.314 1.277 5.187 0.771 6.928-1.216 1.83-2.093 1.834-5.254 0.010-7.347l-0.227-0.259-0.010-7.117c-0.006-6.717-0.013-7.13-0.067-7.357-0.202-0.848-0.531-1.446-1.104-2.016-0.362-0.358-0.65-0.57-1.056-0.771-0.685-0.336-1.491-0.474-2.275-0.381zM16.739 4.125c0.822 0.266 1.427 0.941 1.61 1.795 0.038 0.173 0.045 1.392 0.048 7.53l0.003 7.318 0.378 0.378c0.509 0.502 0.81 0.973 1.011 1.574 0.154 0.461 0.195 0.746 0.195 1.312-0.003 0.461-0.013 0.57-0.086 0.864-0.278 1.117-0.931 2-1.872 2.547-0.694 0.4-1.322 0.563-2.106 0.544-0.835-0.022-1.472-0.224-2.173-0.682-0.314-0.208-0.88-0.781-1.085-1.107-0.47-0.736-0.646-1.347-0.643-2.23 0-0.464 0.010-0.57 0.086-0.874 0.202-0.803 0.512-1.35 1.117-1.952l0.378-0.374v-9.568h0.65c0.586 0 0.656-0.006 0.749-0.064 0.243-0.147 0.266-0.454 0.042-0.656-0.064-0.058-0.125-0.064-0.755-0.074l-0.685-0.010v-0.797h0.64c0.714 0 0.784-0.016 0.896-0.202 0.080-0.131 0.080-0.266 0-0.397-0.112-0.186-0.182-0.202-0.896-0.202h-0.64v-0.8h0.653c0.624 0 0.653-0.003 0.758-0.074 0.253-0.17 0.253-0.483 0-0.653-0.106-0.070-0.134-0.074-0.765-0.074h-0.653l0.016-0.618c0.019-0.787 0.077-1.005 0.39-1.494 0.33-0.512 0.838-0.874 1.424-1.008 0.131-0.029 0.256-0.061 0.272-0.067 0.019-0.006 0.192-0.006 0.384 0 0.285 0.010 0.41 0.032 0.659 0.112z"></path>
<path fill="#ff7900" d="M15.68 12.848c-0.352 0.099-0.637 0.342-0.794 0.682l-0.086 0.182-0.010 4.112-0.006 4.112-0.141 0.090c-0.189 0.118-0.499 0.432-0.646 0.653-0.4 0.602-0.502 1.421-0.262 2.106 0.259 0.746 0.886 1.328 1.658 1.542 0.285 0.077 0.925 0.077 1.216-0.003 0.563-0.154 1.040-0.496 1.382-0.989 0.435-0.634 0.528-1.514 0.234-2.234-0.16-0.4-0.541-0.87-0.87-1.078l-0.138-0.086-0.006-4.112-0.010-4.112-0.086-0.182c-0.256-0.547-0.87-0.838-1.434-0.682z"></path>
</svg>
