<!-- Generated by IcoMoon.io -->
<svg version="1.1" xmlns="http://www.w3.org/2000/svg" width="32" height="32" viewBox="0 0 32 32">
<title>text_alerts</title>
<path fill="#ff7900" d="M3.21 12.614c0.006 8.17 0.010 8.627 0.064 8.803 0.298 0.97 1.062 1.632 2.038 1.766 0.045 0.006 0.848 0.013 1.786 0.013l1.702 0.003v4.8l4.8-4.8h15.2l-0.003-8.538c-0.003-9.347 0.010-8.726-0.189-9.197-0.285-0.666-0.819-1.139-1.568-1.382l-0.208-0.067-23.632-0.016 0.010 8.614zM16.307 7.235c0.304 0.054 0.579 0.205 0.813 0.442 0.202 0.205 0.381 0.493 1.587 2.589 0.038 0.067 0.547 0.938 1.133 1.942 0.586 1.002 1.091 1.866 1.12 1.92 0.144 0.25 0.31 0.531 0.672 1.152 0.214 0.368 0.419 0.714 0.448 0.768 0.032 0.051 0.262 0.448 0.512 0.877 0.253 0.432 0.486 0.864 0.522 0.96 0.083 0.224 0.102 0.659 0.038 0.899-0.067 0.256-0.195 0.493-0.371 0.685-0.202 0.221-0.416 0.358-0.71 0.454l-0.23 0.074-5.814 0.003c-6.352 0-5.962 0.013-6.362-0.182-0.243-0.118-0.57-0.451-0.694-0.714-0.186-0.387-0.218-0.835-0.080-1.216 0.032-0.099 0.317-0.618 0.63-1.152 0.314-0.538 0.595-1.021 0.624-1.072 0.134-0.23 0.595-1.024 2.016-3.456 0.832-1.427 1.542-2.643 1.581-2.707 0.035-0.067 0.262-0.451 0.499-0.861 0.448-0.771 0.63-1.014 0.89-1.178 0.358-0.23 0.749-0.307 1.178-0.227z"></path>
<path fill="#ff7900" d="M15.402 10.464c-0.205 0.125-0.208 0.134-0.192 1.418 0.010 0.989 0.022 1.216 0.080 1.558 0.035 0.221 0.131 0.838 0.211 1.376s0.154 1.024 0.163 1.078l0.019 0.106h0.634l0.019-0.122c0.010-0.064 0.029-0.17 0.038-0.23s0.022-0.141 0.026-0.176c0.006-0.035 0.042-0.272 0.080-0.528 0.035-0.256 0.074-0.515 0.083-0.576s0.064-0.422 0.125-0.8c0.102-0.672 0.106-0.714 0.109-1.77 0.006-1.194 0.003-1.213-0.198-1.334-0.090-0.058-0.163-0.064-0.598-0.064s-0.509 0.006-0.598 0.064z"></path>
<path fill="#ff7900" d="M15.2 17.6v0.8h1.6v-1.6h-1.6v0.8z"></path>
</svg>
