<!-- Generated by IcoMoon.io -->
<svg version="1.1" xmlns="http://www.w3.org/2000/svg" width="32" height="32" viewBox="0 0 32 32">
<title>Thumb_down</title>
<path fill="#ff7900" d="M8.512 3.219c-1.014 0.157-1.77 0.813-2.035 1.773-0.080 0.282-0.080 0.922 0 1.216 0.070 0.266 0.24 0.611 0.4 0.822l0.128 0.166-0.182 0.035c-0.717 0.141-1.258 0.493-1.622 1.056-0.285 0.438-0.4 0.842-0.387 1.376 0.016 0.595 0.221 1.117 0.605 1.533 0.064 0.070 0.118 0.138 0.118 0.144 0 0.010-0.051 0.038-0.112 0.064-0.195 0.083-0.538 0.323-0.726 0.512-0.678 0.678-0.886 1.757-0.502 2.63 0.086 0.198 0.31 0.541 0.442 0.675 0.054 0.058 0.099 0.109 0.099 0.118s-0.067 0.048-0.15 0.086c-0.877 0.397-1.443 1.35-1.373 2.31 0.054 0.797 0.435 1.45 1.082 1.869 0.282 0.182 0.464 0.259 0.794 0.333 0.256 0.058 0.454 0.061 3.594 0.061 1.824 0 3.318 0.006 3.318 0.013s-0.022 0.131-0.051 0.278c-0.029 0.147-0.054 0.298-0.061 0.333-0.003 0.035-0.112 0.675-0.234 1.424-0.39 2.339-0.435 2.659-0.435 3.296-0.003 0.573 0.010 0.72 0.090 1.168 0.246 1.386 0.915 2.403 1.885 2.877 0.33 0.16 0.618 0.221 0.934 0.202 0.826-0.058 1.517-0.595 1.782-1.389 0.070-0.211 0.070-0.253 0.083-1.814l0.010-1.594 1.21-2.422c0.755-1.504 1.27-2.499 1.366-2.63 0.819-1.117 2.093-1.885 3.437-2.077 0.131-0.019 0.272-0.042 0.314-0.051l0.070-0.013v-12h-0.707c-0.538 0-0.755-0.013-0.899-0.051-0.115-0.029-1.024-0.464-2.208-1.056-2.115-1.059-2.202-1.098-2.586-1.206-0.237-0.067-0.282-0.067-3.824-0.074-1.971-0.003-3.619 0-3.664 0.006z"></path>
<path fill="#ff7900" d="M24.432 4.845c-0.602 0.154-1.072 0.637-1.197 1.229-0.058 0.272-0.048 10.88 0.010 11.094 0.163 0.614 0.653 1.085 1.251 1.2 0.134 0.026 0.624 0.032 1.616 0.026 1.578-0.016 1.555-0.013 1.92-0.234 0.349-0.211 0.611-0.573 0.72-0.979 0.070-0.259 0.070-10.819 0-11.142-0.061-0.294-0.186-0.512-0.432-0.762-0.224-0.224-0.438-0.349-0.752-0.429-0.253-0.064-2.88-0.067-3.136-0.003zM26.499 6.518c0.259 0.122 0.458 0.32 0.586 0.586 0.090 0.186 0.099 0.24 0.099 0.496s-0.013 0.31-0.099 0.496c-0.125 0.266-0.323 0.464-0.589 0.589-0.186 0.090-0.24 0.099-0.496 0.099s-0.31-0.013-0.496-0.099c-0.266-0.128-0.464-0.326-0.589-0.589-0.086-0.182-0.099-0.24-0.099-0.496s0.010-0.31 0.099-0.496c0.218-0.458 0.63-0.71 1.136-0.691 0.195 0.010 0.288 0.029 0.448 0.106z"></path>
</svg>
