<!-- Generated by IcoMoon.io -->
<svg version="1.1" xmlns="http://www.w3.org/2000/svg" width="32" height="32" viewBox="0 0 32 32">
<title>Thumb_up</title>
<path fill="#ff7900" d="M17.51 2.464c-0.707 0.186-1.245 0.72-1.443 1.434-0.061 0.218-0.064 0.333-0.067 1.77l-0.003 1.536-1.226 2.454c-0.822 1.638-1.277 2.515-1.376 2.64-0.403 0.515-0.771 0.861-1.296 1.222-0.63 0.426-1.411 0.723-2.186 0.826l-0.298 0.042-0.010 6.006-0.006 6.006h0.707c0.538 0 0.755 0.013 0.899 0.051 0.115 0.029 1.024 0.464 2.214 1.059 1.11 0.557 2.109 1.043 2.218 1.085 0.525 0.198 0.317 0.189 4.314 0.189 3.414 0 3.661-0.003 3.85-0.058 1.12-0.317 1.856-1.328 1.789-2.451-0.032-0.496-0.189-0.938-0.47-1.306-0.122-0.163-0.125-0.17-0.054-0.182 0.646-0.118 1.046-0.314 1.43-0.698 0.48-0.48 0.71-1.069 0.688-1.77-0.016-0.598-0.23-1.123-0.621-1.546-0.054-0.058-0.099-0.112-0.099-0.115 0-0.006 0.106-0.064 0.234-0.131 0.384-0.198 0.662-0.451 0.915-0.835 0.272-0.41 0.387-0.826 0.374-1.357-0.010-0.371-0.074-0.646-0.214-0.95-0.083-0.176-0.336-0.547-0.464-0.672-0.061-0.064-0.061-0.064 0.093-0.131 0.202-0.093 0.563-0.349 0.72-0.515 0.467-0.493 0.71-1.142 0.669-1.786-0.042-0.637-0.256-1.12-0.688-1.565-0.314-0.323-0.682-0.531-1.158-0.646-0.269-0.067-0.326-0.067-3.597-0.070-1.83 0-3.331-0.006-3.338-0.010-0.006-0.006 0.026-0.205 0.070-0.442 0.064-0.358 0.422-2.509 0.483-2.925 0.013-0.070 0.026-0.157 0.032-0.192 0.058-0.342 0.112-0.742 0.166-1.184 0.029-0.243 0.029-0.986-0.003-1.28-0.16-1.613-0.874-2.835-1.952-3.354-0.461-0.221-0.851-0.266-1.296-0.15z"></path>
<path fill="#ff7900" d="M4.426 13.645c-0.586 0.144-1.085 0.666-1.19 1.248-0.048 0.269-0.048 10.749 0 11.014 0.109 0.605 0.627 1.13 1.238 1.258 0.227 0.048 2.774 0.048 3.034 0 0.605-0.109 1.13-0.627 1.258-1.238 0.051-0.24 0.051-10.813 0-11.053-0.122-0.582-0.592-1.069-1.184-1.226-0.234-0.064-2.899-0.064-3.155-0.003zM6.499 23.318c0.928 0.438 0.928 1.722-0.003 2.166-0.186 0.086-0.24 0.099-0.496 0.099s-0.31-0.010-0.496-0.099c-0.262-0.125-0.461-0.323-0.589-0.589-0.090-0.186-0.099-0.24-0.099-0.496s0.013-0.31 0.099-0.496c0.288-0.608 0.989-0.867 1.584-0.586z"></path>
</svg>
