<!-- Generated by IcoMoon.io -->
<svg version="1.1" xmlns="http://www.w3.org/2000/svg" width="32" height="32" viewBox="0 0 32 32">
<title>tick_circle</title>
<path fill="#ff7900" d="M15.194 2.416c-0.003 0.003-0.147 0.019-0.314 0.029-0.166 0.013-0.333 0.029-0.368 0.035s-0.134 0.022-0.224 0.032c-0.211 0.022-0.342 0.045-0.832 0.125-0.035 0.003-0.099 0.019-0.144 0.029s-0.218 0.051-0.384 0.086c-0.592 0.131-1.597 0.445-2 0.624-0.051 0.026-0.189 0.083-0.304 0.128-0.307 0.128-1.117 0.534-1.469 0.742-1.024 0.602-1.907 1.283-2.752 2.122-1.437 1.43-2.534 3.162-3.226 5.088-0.24 0.675-0.493 1.648-0.586 2.266-0.080 0.509-0.093 0.611-0.112 0.822-0.013 0.122-0.029 0.266-0.038 0.32-0.029 0.182-0.035 1.795-0.010 2.112 0.032 0.368 0.096 0.963 0.115 1.056 0.010 0.035 0.045 0.23 0.080 0.432 0.301 1.725 1.005 3.475 2.010 5.008 0.115 0.176 0.221 0.333 0.237 0.352 0.013 0.016 0.125 0.17 0.25 0.336 0.762 1.018 1.658 1.914 2.669 2.678 0.806 0.605 1.299 0.912 2.195 1.36 1.203 0.598 2.765 1.088 4.013 1.254 0.070 0.010 0.23 0.032 0.352 0.048 0.611 0.083 2.118 0.115 2.736 0.058 1.494-0.138 2.755-0.438 4.048-0.963 0.662-0.272 1.507-0.701 2.032-1.037 0.522-0.333 1.107-0.749 1.379-0.979 0.064-0.054 0.186-0.157 0.272-0.227s0.256-0.221 0.381-0.336c2.144-1.997 3.552-4.49 4.122-7.296 0.102-0.493 0.176-0.963 0.202-1.28 0.010-0.131 0.026-0.275 0.035-0.32 0.029-0.144 0.035-1.798 0.006-2.112-0.035-0.435-0.093-0.918-0.125-1.104-0.016-0.090-0.045-0.253-0.064-0.368-0.262-1.485-0.89-3.165-1.667-4.454-0.189-0.31-0.525-0.835-0.582-0.906-0.013-0.019-0.131-0.176-0.266-0.352-1.642-2.195-3.955-3.859-6.589-4.736-0.874-0.291-1.99-0.531-2.832-0.611-0.115-0.010-0.25-0.026-0.304-0.035-0.106-0.016-1.923-0.042-1.942-0.026zM22.64 8.925c0.486 0.227 0.771 0.71 0.736 1.254-0.029 0.416-0.048 0.442-2.256 3.197-0.093 0.115-0.256 0.32-2.192 2.752-0.634 0.797-1.469 1.846-1.856 2.333s-0.931 1.171-1.213 1.523c-0.278 0.352-0.55 0.698-0.608 0.765-0.445 0.563-0.592 0.688-0.925 0.79-0.454 0.141-0.934 0.016-1.267-0.333-0.086-0.093-0.506-0.605-0.931-1.142s-0.797-1.005-0.826-1.040c-0.029-0.035-0.163-0.202-0.294-0.368s-0.256-0.326-0.278-0.352c-0.038-0.045-1.034-1.299-1.664-2.090-0.317-0.403-0.426-0.627-0.442-0.944-0.022-0.461 0.118-0.739 0.646-1.261 0.304-0.301 0.426-0.397 0.605-0.48 0.202-0.096 0.246-0.106 0.525-0.106 0.272 0 0.326 0.010 0.512 0.099 0.23 0.109 0.294 0.166 0.624 0.538 0.125 0.138 0.246 0.275 0.272 0.304 0.029 0.029 0.166 0.179 0.304 0.339 0.141 0.157 0.282 0.317 0.317 0.352 0.032 0.035 0.333 0.371 0.669 0.746l0.611 0.682 0.288-0.288c0.16-0.157 0.387-0.378 0.502-0.486 0.115-0.112 0.618-0.602 1.114-1.085 0.499-0.483 1.059-1.030 1.245-1.21 0.189-0.182 0.781-0.762 1.318-1.283 0.538-0.525 1.078-1.053 1.206-1.174 0.125-0.122 0.611-0.595 1.082-1.053 1.062-1.034 1.194-1.117 1.718-1.091 0.192 0.010 0.298 0.035 0.458 0.112z"></path>
</svg>
