<!-- Generated by IcoMoon.io -->
<svg version="1.1" xmlns="http://www.w3.org/2000/svg" width="32" height="32" viewBox="0 0 32 32">
<title>tick</title>
<path fill="#ff7900" d="M25.44 5.661c-0.269 0.074-0.403 0.134-0.614 0.269-0.218 0.141-0.163 0.093-1.232 1.133-0.502 0.49-1.024 0.995-1.158 1.126-0.445 0.432-2.214 2.154-2.864 2.787-0.349 0.342-0.714 0.694-0.803 0.784-0.093 0.086-0.618 0.602-1.171 1.139-0.554 0.541-1.091 1.062-1.197 1.165s-0.467 0.454-0.803 0.781c-1.722 1.68-2.723 2.656-2.858 2.784-0.080 0.077-0.221 0.211-0.307 0.298l-0.163 0.154-0.259-0.294c-0.144-0.163-0.294-0.333-0.336-0.378-0.064-0.067-2.301-2.563-3.142-3.504-0.301-0.336-0.304-0.336-0.518-0.48-0.653-0.432-1.51-0.442-2.202-0.026-0.218 0.131-1.206 1.101-1.418 1.389-0.454 0.627-0.515 1.482-0.154 2.17 0.070 0.131 0.541 0.752 1.155 1.526 1.808 2.272 3.552 4.464 4.429 5.565 0.467 0.586 0.883 1.11 0.928 1.168 0.493 0.653 0.797 0.906 1.296 1.072 0.73 0.246 1.542 0.058 2.086-0.486 0.083-0.083 0.272-0.304 0.416-0.49s0.352-0.445 0.458-0.576c0.106-0.131 0.259-0.326 0.342-0.432 0.918-1.158 1.59-2 1.77-2.224 0.122-0.15 0.541-0.675 0.931-1.168 0.666-0.835 1.51-1.901 2.461-3.091 0.221-0.278 0.582-0.733 0.803-1.011s0.854-1.075 1.408-1.77c0.554-0.694 1.178-1.482 1.389-1.744 0.746-0.941 1.642-2.064 2.541-3.194 1.027-1.286 1.082-1.363 1.197-1.658 0.394-0.989-0.038-2.128-0.986-2.618-0.419-0.214-0.995-0.282-1.424-0.166z"></path>
</svg>
