<!-- Generated by IcoMoon.io -->
<svg version="1.1" xmlns="http://www.w3.org/2000/svg" width="32" height="32" viewBox="0 0 32 32">
<title>tickets</title>
<path fill="#ff7900" d="M4 13.2v10.8l3.405-0.016 0.57-1.568c0.314-0.861 0.57-1.578 0.57-1.59 0-0.016-0.662-0.026-1.472-0.026h-1.472v-15.2h8.496l0.397-1.098c0.218-0.602 0.406-1.104 0.419-1.12 0.013-0.013 0.794 0.256 1.738 0.602 0.944 0.342 1.725 0.624 1.734 0.624s0.016-0.496 0.016-1.104v-1.104h-5.584l-0.042 0.246c-0.179 1.139-1.469 1.712-2.445 1.088-0.336-0.214-0.608-0.608-0.694-1.008-0.019-0.093-0.032-0.179-0.032-0.192 0.003-0.013 0.003-0.048 0-0.080-0.003-0.051-0.16-0.054-2.803-0.054h-2.8v10.8z"></path>
<path fill="#ff7900" d="M15.363 4.454c-0.016 0.042-0.413 1.133-0.883 2.426s-0.896 2.461-0.944 2.592c-1.338 3.674-2.947 8.096-3.040 8.352-0.067 0.186-0.378 1.034-0.688 1.888s-0.614 1.68-0.669 1.84c-0.058 0.157-0.33 0.906-0.605 1.664-0.275 0.755-0.506 1.395-0.509 1.418-0.006 0.029 0.227 0.131 0.726 0.314 0.406 0.147 0.909 0.333 1.12 0.41s1.040 0.378 1.84 0.669c0.8 0.291 1.478 0.538 1.507 0.55 0.042 0.016 0.064-0.006 0.093-0.093 0.080-0.246 0.406-0.595 0.704-0.752 0.474-0.25 0.979-0.256 1.469-0.016 0.64 0.314 0.995 1.037 0.848 1.734-0.058 0.272-0.061 0.253 0.038 0.275 0.074 0.019 0.563 0.195 1.117 0.403 0.090 0.032 0.499 0.182 0.912 0.333 1.702 0.618 2.467 0.896 2.784 1.011 0.186 0.067 0.346 0.112 0.355 0.102 0.010-0.013 0.499-1.341 1.085-2.95s1.229-3.382 1.43-3.936c0.202-0.554 0.461-1.267 0.576-1.584 0.112-0.317 0.227-0.627 0.25-0.688 0.026-0.061 0.336-0.912 0.691-1.888s0.666-1.834 0.691-1.904c0.026-0.070 0.074-0.202 0.106-0.288 0.083-0.221 0.685-1.875 0.832-2.288 0.067-0.186 0.426-1.171 0.8-2.192 0.371-1.021 0.688-1.891 0.704-1.936 0.013-0.045 0.070-0.198 0.125-0.342 0.051-0.144 0.086-0.269 0.074-0.278-0.016-0.010-0.902-0.333-1.974-0.723s-2-0.73-2.064-0.752c-1.066-0.406-1.245-0.454-1.248-0.32 0 0.054-0.182 0.307-0.33 0.461-0.608 0.624-1.642 0.621-2.259 0-0.381-0.387-0.547-0.976-0.422-1.494 0.022-0.093 0.038-0.176 0.032-0.179-0.006-0.006-1.072-0.397-2.365-0.864-1.293-0.47-2.464-0.899-2.598-0.95-0.138-0.051-0.256-0.093-0.266-0.093s-0.029 0.032-0.045 0.070zM16.147 8.061c0.192 0.067 2.256 0.819 4.589 1.667s4.378 1.594 4.544 1.654c0.883 0.317 1.024 0.374 1.024 0.41 0 0.022-0.275 0.794-0.611 1.715-0.605 1.654-0.752 2.058-0.989 2.717-0.067 0.186-0.182 0.502-0.256 0.704-0.17 0.464-0.355 0.976-0.512 1.408-0.067 0.186-0.298 0.819-0.512 1.408s-0.438 1.2-0.496 1.36c-0.058 0.157-0.221 0.611-0.368 1.008-0.752 2.064-1.174 3.219-1.283 3.53-0.070 0.192-0.131 0.358-0.141 0.374-0.006 0.013-0.128-0.016-0.262-0.064-0.253-0.090-4.426-1.606-5.386-1.958-0.291-0.106-0.685-0.253-0.88-0.32-0.192-0.070-0.502-0.182-0.688-0.25s-0.493-0.179-0.688-0.25c-0.49-0.179-2.458-0.896-2.554-0.931l-0.080-0.032 0.365-1.002c0.202-0.55 0.422-1.152 0.49-1.338 0.122-0.323 0.314-0.854 0.531-1.456 0.058-0.16 0.163-0.448 0.234-0.64 0.070-0.195 0.39-1.072 0.71-1.952 0.749-2.058 0.816-2.237 0.96-2.64 0.31-0.858 0.874-2.4 0.928-2.544 0.176-0.461 0.96-2.64 0.96-2.669 0-0.045-0.022-0.051 0.371 0.090z"></path>
<path fill="#ff7900" d="M16.272 8.992c-0.013 0.019-0.080 0.195-0.15 0.394-0.070 0.195-0.173 0.474-0.224 0.614s-0.128 0.349-0.166 0.464c-0.042 0.115-0.336 0.928-0.659 1.808-0.32 0.88-0.611 1.68-0.646 1.776-0.074 0.205-0.79 2.17-0.928 2.544-0.051 0.141-0.157 0.429-0.23 0.64-0.186 0.512-0.774 2.134-0.851 2.336-0.058 0.154-0.182 0.493-0.589 1.613-0.099 0.272-0.179 0.512-0.179 0.534s0.125 0.083 0.282 0.134c0.154 0.054 0.64 0.227 1.078 0.39 0.442 0.16 0.893 0.326 1.008 0.365 0.115 0.042 1.146 0.416 2.288 0.835 1.146 0.416 2.23 0.813 2.416 0.88s0.682 0.246 1.104 0.397c0.422 0.154 0.784 0.285 0.803 0.291s0.058-0.058 0.083-0.138c0.077-0.227 1.27-3.514 1.824-5.014 0.051-0.141 0.112-0.314 0.138-0.384 0.022-0.070 0.138-0.387 0.253-0.704 0.118-0.317 0.243-0.656 0.275-0.752 0.035-0.096 0.522-1.437 1.085-2.976l1.018-2.8-0.099-0.035c-0.054-0.019-1.133-0.413-2.397-0.874-1.261-0.458-2.371-0.861-2.464-0.896-0.090-0.032-0.886-0.32-1.766-0.643-2.307-0.842-2.285-0.832-2.304-0.8zM20.275 14.669l0.323 0.118-0.109 0.294c-0.061 0.163-0.134 0.365-0.166 0.454-0.032 0.086-0.464 1.28-0.963 2.65-0.851 2.333-0.909 2.486-0.973 2.467-0.038-0.013-0.307-0.109-0.598-0.218l-0.534-0.195 0.624-1.712c0.342-0.941 0.656-1.798 0.698-1.904l0.074-0.192-0.083-0.038c-0.077-0.032-0.947-0.352-1.261-0.461-0.067-0.022-0.122-0.058-0.122-0.077 0-0.016 0.070-0.221 0.154-0.448 0.112-0.301 0.166-0.413 0.202-0.403 0.026 0.010 0.176 0.048 0.333 0.090 0.736 0.195 1.341 0.006 1.696-0.528l0.086-0.131 0.147 0.058c0.083 0.032 0.298 0.112 0.474 0.176z"></path>
<path fill="#ff7900" d="M6.4 13.2v6.8h2.454l0.074-0.202c0.038-0.109 0.147-0.406 0.24-0.662s0.288-0.787 0.432-1.184c0.144-0.397 0.464-1.274 0.71-1.952s0.496-1.363 0.554-1.52c0.058-0.16 0.394-1.088 0.752-2.064 0.355-0.976 0.874-2.403 1.152-3.168s0.614-1.686 0.746-2.048c0.131-0.362 0.25-0.688 0.262-0.73l0.019-0.070h-7.395v6.8z"></path>
</svg>
