<!-- Generated by IcoMoon.io -->
<svg version="1.1" xmlns="http://www.w3.org/2000/svg" width="32" height="32" viewBox="0 0 32 32">
<title>top_up_uk_bank</title>
<path fill="#ff7900" d="M15.478 2.454c-0.381 0.064-0.771 0.234-1.126 0.483-0.086 0.064-1.11 1.062-2.272 2.218-1.162 1.158-3.546 3.533-5.296 5.274l-3.184 3.168 6 0.003 0.003 4.982c0.003 2.742 0.006 5.021 0.010 5.066 0.096 0.966 0.285 1.651 0.669 2.416 0.259 0.522 0.528 0.915 0.934 1.376 0.272 0.31 0.266 0.304 0.56 0.563 0.874 0.765 1.891 1.264 3.056 1.488 0.406 0.080 0.515 0.086 1.168 0.086 0.646 0 0.765-0.010 1.165-0.086 0.534-0.102 1.194-0.317 1.597-0.518 0.326-0.166 0.723-0.394 0.87-0.502 0.963-0.714 1.616-1.466 2.077-2.384 0.374-0.749 0.624-1.632 0.672-2.39 0.006-0.106 0.016-2.419 0.016-5.146l0.003-4.95 6-0.003-3.462-3.446c-1.904-1.894-4.282-4.262-5.28-5.258-0.998-0.998-1.907-1.878-2.016-1.955-0.621-0.454-1.37-0.621-2.163-0.483zM16.784 18.467c1.523 0.259 2.816 1.213 3.498 2.573 0.339 0.678 0.486 1.277 0.502 2.032 0.013 0.554-0.026 0.896-0.157 1.392-0.397 1.485-1.539 2.723-3.011 3.258-0.966 0.349-2.147 0.358-3.155 0.022-1.629-0.541-2.864-1.974-3.184-3.683-0.067-0.362-0.083-1.187-0.029-1.533 0.192-1.232 0.768-2.253 1.712-3.037 0.688-0.573 1.645-0.973 2.544-1.069 0.31-0.032 0.96-0.010 1.28 0.045z"></path>
<path fill="#ff7900" d="M15.802 19.52c-0.678 0.122-1.149 0.496-1.36 1.072-0.090 0.246-0.125 0.598-0.115 1.152l0.010 0.547-0.253-0.003c-0.32-0.006-0.445 0.035-0.538 0.173-0.134 0.195-0.080 0.55 0.096 0.65 0.038 0.022 0.221 0.048 0.406 0.058l0.336 0.016v0.496c0 0.426-0.013 0.528-0.074 0.72-0.093 0.291-0.24 0.49-0.518 0.691-0.25 0.182-0.352 0.336-0.352 0.531 0.003 0.173 0.106 0.381 0.23 0.458 0.102 0.061 0.157 0.064 2.205 0.064 2.282 0 2.269 0 2.384-0.176 0.134-0.205 0.080-0.512-0.109-0.63l-0.118-0.074h-3.050l0.080-0.128c0.278-0.451 0.381-0.883 0.378-1.626v-0.342h0.576c0.394 0 0.602-0.013 0.653-0.042 0.266-0.134 0.301-0.592 0.058-0.765-0.093-0.067-0.131-0.070-0.704-0.074h-0.605l0.016-0.576c0.019-0.637 0.061-0.829 0.218-1.018 0.243-0.298 0.813-0.349 1.174-0.109 0.093 0.061 0.16 0.147 0.25 0.326 0.144 0.291 0.246 0.374 0.474 0.394 0.317 0.026 0.589-0.176 0.621-0.464 0.022-0.211-0.163-0.57-0.438-0.842-0.355-0.349-0.701-0.474-1.363-0.496-0.227-0.006-0.483 0-0.566 0.016z"></path>
</svg>
