<!-- Generated by IcoMoon.io -->
<svg version="1.1" xmlns="http://www.w3.org/2000/svg" width="32" height="32" viewBox="0 0 32 32">
<title>top_up_dollar</title>
<path fill="#ff7900" d="M15.478 2.454c-0.381 0.064-0.771 0.234-1.126 0.483-0.086 0.064-1.11 1.062-2.272 2.218-1.162 1.158-3.546 3.533-5.296 5.274l-3.184 3.168 6 0.003 0.003 4.982c0.003 2.742 0.006 5.021 0.010 5.066 0.096 0.966 0.285 1.651 0.669 2.416 0.259 0.522 0.528 0.915 0.934 1.376 0.272 0.31 0.266 0.304 0.56 0.563 0.874 0.765 1.891 1.264 3.056 1.488 0.406 0.080 0.515 0.086 1.168 0.086 0.646 0 0.765-0.010 1.165-0.086 0.534-0.102 1.194-0.317 1.597-0.518 0.326-0.166 0.723-0.394 0.87-0.502 0.963-0.714 1.616-1.466 2.077-2.384 0.374-0.749 0.624-1.632 0.672-2.39 0.006-0.106 0.016-2.419 0.016-5.146l0.003-4.95 6-0.003-3.462-3.446c-1.904-1.894-4.282-4.262-5.28-5.258-0.998-0.998-1.907-1.878-2.016-1.955-0.621-0.454-1.37-0.621-2.163-0.483zM16.784 18.467c1.523 0.262 2.816 1.213 3.498 2.573 0.339 0.678 0.486 1.277 0.502 2.032 0.013 0.554-0.026 0.896-0.157 1.392-0.397 1.485-1.539 2.723-3.011 3.258-0.966 0.349-2.147 0.358-3.155 0.022-1.363-0.454-2.493-1.565-2.982-2.928-0.179-0.502-0.25-0.909-0.262-1.52-0.013-0.525 0.022-0.838 0.144-1.312 0.285-1.123 1.037-2.166 2.019-2.803 0.608-0.394 1.421-0.685 2.125-0.758 0.314-0.032 0.96-0.010 1.28 0.045z"></path>
<path fill="#ff7900" d="M15.862 18.819c-0.102 0.061-0.15 0.234-0.15 0.538s-0.010 0.323-0.179 0.323c-0.138 0-0.566 0.128-0.803 0.24-0.448 0.211-0.813 0.678-0.922 1.181-0.051 0.243-0.038 0.81 0.029 1.014 0.147 0.47 0.467 0.822 0.95 1.050 0.099 0.048 0.349 0.144 0.554 0.214l0.371 0.125v2.125l-0.134-0.048c-0.189-0.064-0.419-0.24-0.531-0.403-0.051-0.077-0.154-0.294-0.224-0.486-0.154-0.403-0.198-0.48-0.32-0.544-0.326-0.17-0.749-0.026-0.877 0.298-0.086 0.224 0.006 0.694 0.211 1.037 0.112 0.192 0.406 0.512 0.589 0.637 0.307 0.211 0.816 0.403 1.19 0.448 0.080 0.010 0.080 0.010 0.096 0.442 0.019 0.531 0.070 0.64 0.301 0.64s0.275-0.102 0.282-0.65l0.003-0.426 0.256-0.042c0.49-0.077 0.957-0.304 1.261-0.614 0.262-0.269 0.381-0.467 0.486-0.813 0.208-0.666 0.058-1.389-0.378-1.853-0.291-0.31-0.557-0.451-1.235-0.659l-0.384-0.118-0.003-0.947c-0.003-0.522 0-0.95 0.010-0.95 0.051 0 0.256 0.109 0.358 0.195 0.17 0.134 0.266 0.285 0.355 0.557 0.109 0.333 0.314 0.496 0.608 0.496 0.134-0.003 0.339-0.115 0.435-0.243 0.083-0.106 0.093-0.147 0.093-0.346 0-0.195-0.016-0.262-0.115-0.467-0.115-0.234-0.32-0.502-0.499-0.653-0.259-0.214-0.666-0.381-1.050-0.429l-0.192-0.022-0.006-0.317c-0.003-0.176-0.022-0.355-0.042-0.403-0.058-0.141-0.259-0.202-0.394-0.125zM15.712 21.424v0.88l-0.134-0.054c-0.166-0.064-0.438-0.234-0.512-0.317-0.15-0.17-0.202-0.531-0.118-0.81 0.022-0.074 0.090-0.186 0.154-0.246 0.106-0.102 0.413-0.269 0.605-0.33 0.003-0.003 0.006 0.394 0.006 0.877zM16.666 23.818c0.266 0.128 0.47 0.31 0.534 0.48 0.189 0.496-0.054 1.046-0.563 1.267-0.077 0.032-0.186 0.070-0.24 0.083l-0.102 0.019v-0.992l0.003-0.995 0.083 0.019c0.045 0.013 0.173 0.064 0.285 0.118z"></path>
</svg>
