<!-- Generated by IcoMoon.io -->
<svg version="1.1" xmlns="http://www.w3.org/2000/svg" width="32" height="32" viewBox="0 0 32 32">
<title>Top_10</title>
<path fill="#ff7900" d="M15.43 4.666c-0.525 1.6-0.803 2.461-1.35 4.134-0.23 0.714-0.454 1.395-0.496 1.52-0.042 0.122-0.227 0.698-0.416 1.28-0.189 0.579-0.355 1.069-0.368 1.082-0.013 0.016-2.282 0.029-5.043 0.029h-5.021l0.096 0.077c0.090 0.070 0.675 0.496 2.864 2.077 0.483 0.349 1.082 0.781 1.328 0.96 0.544 0.394 1.258 0.909 2.675 1.933l1.075 0.778-0.326 1.043c-0.179 0.576-0.374 1.197-0.429 1.382-0.058 0.186-0.118 0.371-0.131 0.416-0.016 0.045-0.096 0.294-0.176 0.56-0.083 0.262-0.16 0.515-0.176 0.56s-0.074 0.23-0.131 0.416c-0.054 0.186-0.141 0.464-0.192 0.624-0.083 0.269-0.176 0.563-0.627 2-0.096 0.307-0.192 0.624-0.218 0.704-0.022 0.080-0.122 0.403-0.224 0.72-0.099 0.317-0.221 0.71-0.269 0.874l-0.090 0.294 0.099-0.074c0.054-0.042 0.509-0.374 1.011-0.742 0.502-0.365 0.986-0.72 1.072-0.784 0.090-0.064 0.464-0.339 0.832-0.608 0.371-0.269 0.931-0.682 1.248-0.912s1.094-0.8 1.728-1.264c0.634-0.464 1.344-0.982 1.581-1.158 0.429-0.314 0.429-0.314 0.512-0.259 0.045 0.029 0.579 0.403 1.187 0.835s1.494 1.062 1.968 1.398c0.477 0.336 1.418 1.008 2.096 1.488s1.491 1.059 1.808 1.283c0.317 0.224 0.688 0.49 0.826 0.589s0.259 0.176 0.266 0.17c0.006-0.010-0.166-0.554-0.384-1.213-0.893-2.707-2.374-7.187-2.563-7.747l-0.198-0.595 0.451-0.33c0.25-0.182 0.611-0.448 0.803-0.592 0.195-0.141 1.088-0.797 1.984-1.456 0.899-0.659 2.032-1.494 2.522-1.853 0.493-0.362 1.155-0.848 1.472-1.082 0.32-0.234 0.602-0.445 0.627-0.47 0.035-0.035-0.752-0.042-4.816-0.045-2.675 0-4.883 0-4.912-0.003-0.038 0-0.083-0.099-0.163-0.346-0.064-0.189-0.33-0.998-0.595-1.798-0.838-2.547-1.949-5.914-2.154-6.544-0.109-0.336-0.208-0.618-0.218-0.63-0.013-0.013-0.211 0.563-0.445 1.28zM16.64 16.944v3.536h-1.28v-5.12h-1.92v-0.733l0.106-0.016c0.054-0.010 0.205-0.026 0.326-0.035 0.56-0.051 0.938-0.189 1.203-0.438 0.173-0.163 0.253-0.275 0.381-0.534l0.099-0.195h1.085v3.536z"></path>
</svg>
