<!-- Generated by IcoMoon.io -->
<svg version="1.1" xmlns="http://www.w3.org/2000/svg" width="32" height="32" viewBox="0 0 32 32">
<title>top_up_euro</title>
<path fill="#ff7900" d="M15.478 2.454c-0.381 0.064-0.771 0.234-1.126 0.483-0.086 0.064-1.11 1.062-2.272 2.218-1.162 1.158-3.546 3.533-5.296 5.274l-3.184 3.168 6 0.003 0.003 4.982c0.003 2.742 0.006 5.021 0.010 5.066 0.096 0.966 0.285 1.651 0.669 2.416 0.259 0.522 0.528 0.915 0.934 1.376 0.272 0.31 0.266 0.304 0.56 0.563 0.874 0.765 1.891 1.264 3.056 1.488 0.406 0.080 0.515 0.086 1.168 0.086 0.646 0 0.765-0.010 1.165-0.086 0.534-0.102 1.194-0.317 1.597-0.518 0.326-0.166 0.723-0.394 0.87-0.502 0.963-0.714 1.616-1.466 2.077-2.384 0.374-0.749 0.624-1.632 0.672-2.39 0.006-0.106 0.016-2.419 0.016-5.146l0.003-4.95 6-0.003-3.462-3.446c-1.904-1.894-4.282-4.262-5.28-5.258-0.998-0.998-1.907-1.878-2.016-1.955-0.621-0.454-1.37-0.621-2.163-0.483zM16.784 18.467c1.722 0.294 3.155 1.488 3.738 3.117 0.317 0.89 0.355 1.936 0.106 2.874-0.49 1.843-2.067 3.229-3.987 3.501-0.333 0.048-1.146 0.029-1.488-0.035-1.974-0.365-3.507-1.894-3.875-3.862-0.067-0.362-0.083-1.187-0.029-1.533 0.192-1.232 0.768-2.253 1.712-3.037 0.688-0.573 1.645-0.973 2.544-1.069 0.31-0.032 0.96-0.010 1.28 0.045z"></path>
<path fill="#ff7900" d="M15.568 19.645c-1.059 0.237-1.674 0.925-2.051 2.298-0.006 0.029-0.086 0.042-0.253 0.042-0.134 0-0.288 0.019-0.349 0.045-0.301 0.125-0.365 0.595-0.112 0.838 0.086 0.083 0.122 0.093 0.352 0.106l0.253 0.010-0.006 0.246-0.010 0.243-0.218 0.006c-0.17 0.003-0.243 0.019-0.326 0.080-0.198 0.134-0.262 0.432-0.147 0.662 0.096 0.182 0.195 0.234 0.486 0.243 0.138 0.006 0.262 0.019 0.282 0.029 0.016 0.010 0.038 0.077 0.051 0.147 0.061 0.352 0.32 0.877 0.614 1.235 0.467 0.563 1.072 0.835 1.914 0.864 0.874 0.029 1.533-0.195 1.942-0.656 0.301-0.342 0.525-0.794 0.496-1.005-0.035-0.256-0.304-0.467-0.592-0.47-0.269 0-0.406 0.118-0.586 0.496-0.102 0.214-0.339 0.445-0.531 0.512-0.237 0.083-0.81 0.102-1.104 0.035-0.275-0.061-0.55-0.214-0.717-0.394-0.125-0.138-0.33-0.531-0.352-0.688l-0.019-0.106h1.072c1.040 0 1.075-0.003 1.165-0.067 0.282-0.208 0.282-0.646 0.003-0.854-0.080-0.061-0.138-0.064-1.216-0.064h-1.13l-0.016-0.179c-0.010-0.099-0.010-0.211-0.003-0.253l0.010-0.070h1.322c0.81 0 1.354-0.013 1.411-0.032 0.224-0.080 0.346-0.506 0.208-0.73-0.038-0.058-0.112-0.131-0.17-0.166-0.099-0.061-0.163-0.064-1.363-0.064h-1.261l0.022-0.106c0.013-0.054 0.077-0.218 0.144-0.358 0.157-0.326 0.39-0.576 0.672-0.714 0.269-0.131 0.307-0.141 0.675-0.154 0.618-0.019 0.938 0.16 1.194 0.669 0.064 0.128 0.131 0.253 0.154 0.282 0.186 0.227 0.63 0.224 0.848-0.010 0.173-0.186 0.179-0.413 0.022-0.746-0.307-0.65-0.774-1.027-1.469-1.187-0.323-0.077-1.011-0.083-1.312-0.016z"></path>
</svg>
