<!-- Generated by IcoMoon.io -->
<svg version="1.1" xmlns="http://www.w3.org/2000/svg" width="32" height="32" viewBox="0 0 32 32">
<title>townhall</title>
<path fill="#ff7900" d="M15.818 2.848c-0.208 0.125-0.202 0.074-0.202 2 0 0.992-0.013 1.744-0.029 1.744s-0.253 0.109-0.531 0.24c-0.275 0.131-0.506 0.24-0.512 0.24-0.003 0-0.202 0.093-0.435 0.205-0.381 0.179-2.134 1.008-2.835 1.334-0.307 0.144-0.669 0.314-1.098 0.518-0.166 0.077-0.432 0.205-0.592 0.278-0.157 0.074-0.41 0.192-0.56 0.262s-0.624 0.294-1.056 0.496c-0.432 0.205-0.912 0.429-1.072 0.506-0.157 0.074-0.778 0.365-1.376 0.65-0.598 0.282-1.245 0.586-1.44 0.678-0.192 0.093-0.438 0.208-0.544 0.256s-0.358 0.166-0.56 0.262c-0.202 0.096-0.416 0.195-0.474 0.221l-0.102 0.045v2.416l0.678-0.003c0.374 0 0.736 0 0.803 0l0.118 0.003v11.2h-0.8v0.8h-0.8v0.8h-0.8v0.8h28.8v-0.8h-0.8v-0.8h-0.8v-0.8h-0.8v-11.2l0.106-0.003c0.054 0 0.416 0 0.8 0h0.694v-2.413l-0.102-0.045c-0.058-0.026-0.394-0.182-0.746-0.349-1.398-0.659-1.651-0.778-1.92-0.902-0.106-0.048-0.365-0.17-0.576-0.272-0.211-0.099-0.598-0.285-0.864-0.406-0.79-0.371-0.976-0.458-1.312-0.618-0.176-0.083-0.442-0.208-0.592-0.278-0.246-0.118-1.53-0.72-2.16-1.018-0.141-0.067-0.4-0.189-0.576-0.272s-0.435-0.205-0.576-0.272c-0.141-0.067-0.378-0.179-0.528-0.25-0.653-0.307-0.925-0.435-1.136-0.534-0.122-0.058-0.506-0.237-0.848-0.4-0.342-0.16-0.765-0.358-0.934-0.438l-0.314-0.147v-0.982h4.384v-2.4h-4.371l-0.045-0.134c-0.086-0.25-0.352-0.352-0.566-0.218zM16.198 8.253c0.112 0.051 0.323 0.15 0.474 0.221s0.387 0.179 0.528 0.246c0.141 0.064 0.387 0.179 0.544 0.256 0.16 0.077 0.784 0.371 1.392 0.656 1.293 0.608 1.51 0.714 1.92 0.906 1.091 0.512 2.493 1.171 2.736 1.286 0.442 0.208 1.344 0.634 1.648 0.778 1.014 0.474 2.064 0.973 2.074 0.982 0.006 0.006-5.168 0.010-11.494 0.010-6.33 0-11.507-0.006-11.507-0.013 0-0.010 0.134-0.080 0.298-0.154 0.16-0.077 0.438-0.208 0.614-0.291s0.406-0.192 0.512-0.24c0.106-0.048 0.342-0.16 0.528-0.25 0.349-0.166 0.733-0.346 1.168-0.55 0.141-0.067 0.378-0.179 0.528-0.25s0.646-0.304 1.104-0.518c0.458-0.214 0.947-0.445 1.088-0.512s0.89-0.419 1.664-0.784c1.411-0.666 1.786-0.842 2.144-1.008 0.656-0.307 1.674-0.79 1.728-0.826 0.086-0.051 0.083-0.051 0.31 0.054zM7.162 15.197c0.029 0.003 0.038 1.146 0.038 5.603v5.6h-1.6v-11.197l0.202-0.010c0.157-0.006 1.171-0.003 1.36 0.003zM11.114 15.2h0.086v11.2h-1.6v-11.197l0.090-0.010c0.067-0.006 0.87-0.006 1.424 0.006zM22.298 15.197l0.102 0.003v11.2h-1.6v-11.197l0.154-0.010c0.122-0.006 0.81-0.006 1.344 0.003zM26.266 15.197l0.134 0.003v11.2h-1.6v-11.197l0.138-0.010c0.112-0.006 0.586-0.006 1.328 0.003zM16.474 18.445c0.467 0.096 0.854 0.301 1.187 0.627 0.384 0.378 0.608 0.794 0.704 1.312 0.019 0.109 0.032 1.29 0.035 3.094v2.922h-4.803l0.010-3.034 0.010-3.030 0.090-0.256c0.294-0.838 0.893-1.398 1.718-1.61 0.301-0.077 0.749-0.090 1.050-0.026z"></path>
<path fill="#ff7900" d="M15.658 9.632c-0.282 0.067-0.47 0.157-0.662 0.317-0.723 0.605-0.797 1.645-0.163 2.326 0.314 0.339 0.704 0.502 1.184 0.502 0.586 0 1.085-0.294 1.386-0.819 0.102-0.179 0.198-0.55 0.198-0.768 0-1.008-0.973-1.789-1.942-1.558z"></path>
</svg>
