<!-- Generated by IcoMoon.io -->
<svg version="1.1" xmlns="http://www.w3.org/2000/svg" width="32" height="32" viewBox="0 0 32 32">
<title>town</title>
<path fill="#ff7900" d="M6.96 2.858c-0.141 0.246-0.301 0.531-0.355 0.627-0.086 0.157-0.493 0.88-0.765 1.363-0.051 0.086-0.179 0.317-0.288 0.512-0.109 0.192-0.486 0.864-0.838 1.488s-0.678 1.206-0.73 1.296c-0.048 0.086-0.131 0.24-0.186 0.336s-0.115 0.205-0.141 0.24c-0.035 0.051-0.042 1.139-0.042 6.358v6.298l0.586-0.467c0.32-0.256 0.611-0.49 0.646-0.522 0.035-0.029 0.192-0.154 0.349-0.275 0.154-0.125 0.451-0.362 0.659-0.528s0.541-0.432 0.742-0.592c0.198-0.157 0.368-0.294 0.378-0.304s0.109-0.090 0.221-0.176c0.112-0.090 0.291-0.234 0.4-0.32 0.106-0.090 0.323-0.262 0.477-0.384 0.486-0.384 0.547-0.435 0.614-0.49 0.035-0.029 0.166-0.134 0.288-0.23 0.314-0.246 0.333-0.262 0.445-0.352 0.211-0.173 0.192-0.17 0.33-0.058 0.070 0.058 0.182 0.15 0.253 0.205 0.067 0.058 0.355 0.288 0.637 0.512 0.282 0.227 0.55 0.442 0.595 0.477 0.048 0.035 0.246 0.192 0.445 0.352 0.406 0.326 1.232 0.989 1.728 1.386 0.186 0.147 0.387 0.31 0.448 0.358 0.061 0.051 0.243 0.195 0.406 0.326 0.16 0.128 0.454 0.362 0.65 0.522 0.198 0.157 0.397 0.317 0.445 0.352 0.045 0.035 0.211 0.166 0.365 0.298l0.282 0.234 0.134-0.106c0.074-0.058 0.314-0.25 0.534-0.426 0.218-0.176 0.435-0.349 0.483-0.384 0.080-0.061 0.56-0.442 1.757-1.405 0.166-0.134 0.326-0.262 0.352-0.285s0.15-0.118 0.272-0.214c0.125-0.096 0.23-0.182 0.24-0.192s0.154-0.125 0.32-0.256c0.362-0.285 0.413-0.326 0.461-0.368 0.019-0.019 0.15-0.125 0.291-0.237 0.141-0.109 0.285-0.224 0.32-0.253 0.077-0.064 1.168-0.934 1.216-0.97 0.035-0.026 0.093 0.016 0.794 0.582 0.141 0.112 0.301 0.24 0.358 0.285 0.096 0.074 0.656 0.522 0.941 0.752 0.067 0.051 0.176 0.141 0.246 0.198 0.067 0.054 0.275 0.221 0.458 0.368 0.179 0.144 0.368 0.294 0.416 0.33 0.045 0.035 0.227 0.179 0.4 0.32 0.176 0.141 0.362 0.291 0.416 0.336 0.739 0.586 1.2 0.954 1.251 0.998 0.035 0.029 0.141 0.115 0.237 0.192 0.096 0.074 0.25 0.198 0.346 0.275l0.17 0.134v-5.376h-2.4v-6.24c0-6.896 0.016-6.365-0.202-6.496-0.093-0.058-0.163-0.064-0.749-0.064h-0.65v-0.8h-6.4v0.8h-0.64c-0.714 0-0.784 0.016-0.896 0.202-0.064 0.099-0.064 0.198-0.064 4.749v4.65h-5.6v-2.010c0-1.629-0.010-2.019-0.042-2.070-0.026-0.035-0.099-0.166-0.166-0.288-0.067-0.125-0.211-0.384-0.32-0.576-0.272-0.477-0.333-0.586-0.426-0.752-0.045-0.080-0.24-0.426-0.432-0.768s-0.387-0.688-0.432-0.768c-0.045-0.080-0.173-0.31-0.288-0.512s-0.253-0.448-0.304-0.544c-0.054-0.096-0.131-0.23-0.173-0.294-0.042-0.067-0.074-0.125-0.074-0.134 0-0.006-0.128-0.24-0.288-0.518-0.157-0.275-0.288-0.509-0.288-0.512s-0.070-0.131-0.16-0.285c-0.086-0.154-0.16-0.288-0.16-0.304 0-0.109-0.083 0-0.304 0.394zM19.616 5.6v0.8h-1.6v-1.6h1.6v0.8zM22.016 5.6v0.8h-1.6v-1.6h1.6v0.8zM24.416 5.6v0.8h-1.6v-1.6h1.6v0.8zM19.616 8v0.8h-1.6v-1.6h1.6v0.8zM22.016 8v0.8h-1.6v-1.6h1.6v0.8zM24.416 8v0.8h-1.6v-1.6h1.6v0.8zM7.722 8.922c0.266 0.131 0.454 0.323 0.579 0.582 0.086 0.186 0.099 0.24 0.099 0.496s-0.010 0.31-0.099 0.496c-0.131 0.272-0.301 0.445-0.573 0.579-0.205 0.099-0.246 0.109-0.512 0.109-0.256 0-0.31-0.010-0.496-0.099-0.266-0.128-0.464-0.326-0.589-0.589-0.086-0.186-0.099-0.24-0.099-0.496s0.013-0.31 0.099-0.496c0.218-0.458 0.637-0.714 1.139-0.694 0.198 0.010 0.285 0.032 0.451 0.112zM19.616 10.4v0.8h-1.6v-1.6h1.6v0.8zM22.016 10.4v0.8h-1.6v-1.6h1.6v0.8zM24.416 10.4v0.8h-1.6v-1.6h1.6v0.8zM19.616 12.8v0.8h-1.6v-1.6h1.6v0.8zM22.016 12.8v0.8h-1.6v-1.6h1.6v0.8zM24.416 12.8v0.8h-1.6v-1.6h1.6v0.8z"></path>
<path fill="#ff7900" d="M9.229 17.907c-0.211 0.17-0.41 0.33-0.445 0.358s-0.202 0.163-0.368 0.298c-0.166 0.131-0.419 0.333-0.56 0.445s-0.464 0.371-0.72 0.576c-0.256 0.205-0.714 0.573-1.021 0.819-0.573 0.458-0.963 0.771-1.379 1.101-0.131 0.102-0.419 0.336-0.64 0.512-0.221 0.179-0.419 0.333-0.442 0.342-0.029 0.013-0.038 0.768-0.038 3.629v3.613h7.2v-4.8h2.4v4.8h2.4l-0.006-3.606-0.010-3.603-0.323-0.259c-0.336-0.272-0.982-0.787-1.472-1.181-0.886-0.707-1.123-0.896-1.181-0.944-0.035-0.032-0.202-0.163-0.368-0.294s-0.31-0.246-0.32-0.256c-0.010-0.010-0.102-0.086-0.208-0.17-0.259-0.205-0.736-0.586-1.104-0.88-0.323-0.262-0.365-0.294-0.762-0.605l-0.253-0.198-0.381 0.304zM8.416 26v1.2h-2.4v-2.4h2.4v1.2z"></path>
<path fill="#ff7900" d="M22.365 17.645c-0.029 0.019-0.109 0.083-0.176 0.138-0.237 0.189-1.126 0.899-2.429 1.942-0.72 0.576-1.341 1.072-1.376 1.101s-0.202 0.163-0.368 0.294c-0.166 0.131-0.33 0.262-0.358 0.288-0.032 0.026-0.32 0.256-0.646 0.512l-0.592 0.464v3.606l-0.003 3.61h7.2v-4.8h2.4v4.8h2.4l-0.006-3.606-0.010-3.606-0.16-0.128c-0.090-0.074-0.221-0.176-0.288-0.23-0.070-0.058-0.365-0.291-0.656-0.525s-0.576-0.461-0.634-0.509c-0.061-0.045-0.32-0.253-0.576-0.461-0.259-0.205-0.582-0.464-0.72-0.576-0.141-0.109-0.349-0.278-0.467-0.374s-0.301-0.24-0.4-0.32c-0.102-0.080-0.275-0.218-0.384-0.304-0.109-0.090-0.256-0.205-0.326-0.259-0.694-0.557-1.194-0.957-1.245-1.002-0.106-0.090-0.125-0.096-0.179-0.054zM21.216 26v1.2h-2.4v-2.4h2.4v1.2z"></path>
</svg>
