<!-- Generated by IcoMoon.io -->
<svg version="1.1" xmlns="http://www.w3.org/2000/svg" width="32" height="32" viewBox="0 0 32 32">
<title>track_your_delivery</title>
<path fill="#ff7900" d="M5.206 6c-0.582 0.16-1.053 0.653-1.171 1.226-0.048 0.234-0.051 15.251 0 15.613 0.099 0.755 0.47 1.494 1.021 2.051 1.261 1.267 3.245 1.414 4.691 0.349 0.726-0.534 1.299-1.482 1.408-2.333 0.013-0.093 0.026-0.192 0.032-0.218 0.003-0.026 0.010-0.096 0.010-0.154l0.003-0.102h3.2c3.027 0 3.2 0.003 3.2 0.054 0.013 0.64 0.31 1.475 0.71 2.010 0.563 0.749 1.392 1.251 2.314 1.408 0.32 0.058 1.008 0.042 1.312-0.026 1.555-0.346 2.707-1.645 2.851-3.216l0.022-0.23h3.19v-3.146c0-2.608-0.010-3.171-0.048-3.315-0.138-0.528-0.512-0.938-1.030-1.133-0.179-0.067-0.243-0.070-1.558-0.086l-1.373-0.016-2.438-4.064c-2.656-4.429-2.576-4.31-2.998-4.518-0.435-0.214 0.070-0.202-6.89-0.198-5.114 0.003-6.333 0.010-6.458 0.045zM13.184 9.242c1.069 0.259 1.93 0.928 2.413 1.878 0.269 0.525 0.371 0.928 0.39 1.52 0.016 0.582-0.064 0.912-0.381 1.565-0.128 0.269-0.931 1.613-2.39 4.003-0.198 0.326-0.464 0.762-0.589 0.966l-0.227 0.378-0.128-0.208c-0.070-0.115-0.269-0.442-0.445-0.726-0.173-0.288-0.413-0.682-0.531-0.874-1.19-1.942-1.952-3.216-2.093-3.498-0.189-0.378-0.314-0.739-0.374-1.075-0.045-0.266-0.022-0.832 0.048-1.155 0.323-1.485 1.507-2.598 3.011-2.832 0.291-0.045 1.002-0.013 1.296 0.058z"></path>
<path fill="#ff7900" d="M12.102 11.584c-0.202 0.045-0.506 0.218-0.678 0.39-0.509 0.512-0.502 1.37 0.019 1.891 0.528 0.531 1.376 0.534 1.91 0.003 0.701-0.698 0.448-1.869-0.486-2.234-0.166-0.064-0.573-0.093-0.765-0.051z"></path>
</svg>
