<!-- Generated by IcoMoon.io -->
<svg version="1.1" xmlns="http://www.w3.org/2000/svg" width="32" height="32" viewBox="0 0 32 32">
<title>Trading</title>
<path fill="#ff7900" d="M3.606 6.448c-0.509 0.141-0.925 0.525-1.12 1.034l-0.070 0.182-0.010 8.24c-0.006 6.374 0 8.278 0.029 8.416 0.125 0.566 0.509 0.986 1.117 1.219 0.093 0.038 2.163 0.045 12.336 0.054 8.957 0.006 12.275 0 12.416-0.026 0.435-0.083 0.922-0.448 1.11-0.832 0.198-0.403 0.186 0.221 0.186-8.736 0-8.925 0.013-8.31-0.179-8.726-0.163-0.358-0.611-0.714-1.053-0.829-0.237-0.064-24.531-0.061-24.762 0.003zM28 16v8h-24v-16h24v8z"></path>
<path fill="#ff7900" d="M20.832 8.816c0 0.010 0.531 0.55 1.184 1.203l1.184 1.181-5.603 5.6-3.197-3.197-4.784 4.784c-2.63 2.63-4.784 4.79-4.784 4.797 0 0.010 0.714 0.016 1.584 0.016h1.584l6.4-6.4 3.2 3.203 7.2-7.2 1.184 1.181c0.65 0.653 1.19 1.184 1.2 1.184s0.016-1.434 0.016-3.184v-3.184h-3.184c-1.75 0-3.184 0.006-3.184 0.016z"></path>
<path fill="#ff7900" d="M24.8 18.57v4.63h2.4v-6.864l-2.4-2.4v4.634z"></path>
<path fill="#ff7900" d="M22.79 15.946l-1.19 1.19v6.064h2.4v-4.224c0-2.323-0.003-4.224-0.010-4.224-0.003 0-0.544 0.538-1.2 1.194z"></path>
<path fill="#ff7900" d="M13.19 19.146l-1.19 1.19v2.864h2.4v-2.624c0-1.443-0.003-2.624-0.010-2.624-0.003 0-0.544 0.538-1.2 1.194z"></path>
<path fill="#ff7900" d="M19.59 19.146l-1.19 1.19v2.864h2.4v-2.624c0-1.443-0.003-2.624-0.010-2.624-0.003 0-0.544 0.538-1.2 1.194z"></path>
<path fill="#ff7900" d="M15.2 20.97v2.23h2.4v-2.064l-2.4-2.4v2.234z"></path>
<path fill="#ff7900" d="M10.16 22.176l-1.024 1.024h2.064v-1.024c0-0.563-0.003-1.024-0.010-1.024-0.003 0-0.467 0.461-1.030 1.024z"></path>
</svg>
