<!-- Generated by IcoMoon.io -->
<svg version="1.1" xmlns="http://www.w3.org/2000/svg" width="32" height="32" viewBox="0 0 32 32">
<title>tv_plus</title>
<path fill="#ff7900" d="M2.4 14.72v8.32h4.8v2.56h17.6v-2.56h4.8v-8.941l-0.163 0.237c-0.432 0.627-0.998 1.187-1.59 1.565l-0.166 0.106v5.114h-23.36v-12.8h15.67l0.090-0.138c0.432-0.653 0.944-1.181 1.584-1.619l0.237-0.163h-19.501v8.32zM16.342 22.31c0.522 0.195 0.758 0.806 0.509 1.318-0.349 0.714-1.402 0.688-1.725-0.042-0.342-0.771 0.422-1.574 1.216-1.277z"></path>
<path fill="#ff7900" d="M24.304 6.426c-0.256 0.026-0.794 0.144-1.053 0.234-1.648 0.563-2.848 1.962-3.174 3.693-0.070 0.365-0.083 1.146-0.029 1.52 0.214 1.446 1.040 2.688 2.288 3.446 0.458 0.275 0.966 0.47 1.581 0.602 0.307 0.064 1.178 0.090 1.517 0.038 2.138-0.307 3.795-1.936 4.106-4.038 0.259-1.766-0.422-3.453-1.843-4.544-0.554-0.426-1.379-0.79-2.016-0.893-0.464-0.074-1.002-0.099-1.376-0.058zM25.44 9.28v1.28h2.56v1.28h-2.56v2.56h-1.28v-2.56h-2.56v-1.28h2.56v-2.56h1.28v1.28z"></path>
</svg>
