<!-- Generated by IcoMoon.io -->
<svg version="1.1" xmlns="http://www.w3.org/2000/svg" width="32" height="32" viewBox="0 0 32 32">
<title>TV_series</title>
<path fill="#ff7900" d="M3.2 12.877c0 5.776 0.010 8.128 0.035 8.25 0.138 0.662 0.71 1.181 1.386 1.261l0.179 0.022v-16.010h19.2v-0.080c0-0.301-0.182-0.73-0.422-0.995-0.195-0.211-0.336-0.307-0.63-0.422l-0.211-0.086-19.536-0.016v8.077z"></path>
<path fill="#ff7900" d="M5.6 15.258c0 5.651 0.010 8.115 0.035 8.25 0.109 0.605 0.624 1.126 1.238 1.258 0.093 0.019 0.205 0.035 0.246 0.035h0.080v-16h19.206l-0.022-0.202c-0.074-0.64-0.554-1.181-1.203-1.35-0.147-0.042-1.578-0.048-9.875-0.048h-9.706v8.058z"></path>
<path fill="#ff7900" d="M8.010 17.75c0.003 4.486 0.019 8.195 0.032 8.25 0.058 0.214 0.23 0.509 0.41 0.701 0.208 0.224 0.522 0.4 0.822 0.464 0.122 0.026 2.848 0.035 9.846 0.035h9.68v-8.080c0-5.773-0.010-8.125-0.035-8.246-0.122-0.576-0.582-1.062-1.155-1.213-0.224-0.058-0.518-0.061-9.92-0.061h-9.69l0.010 8.15zM11.2 12v0.8h-1.6v-1.6h1.6v0.8zM14.4 12v0.8h-1.6v-1.6h1.6v0.8zM17.6 12v0.8h-1.6v-1.6h1.6v0.8zM20.8 12v0.8h-1.6v-1.6h1.6v0.8zM24 12v0.8h-1.6v-1.6h1.6v0.8zM27.2 12v0.8h-1.6v-1.6h1.6v0.8zM17.6 18.4v4h-8v-8h8v4zM27.2 18.4v4h-8v-8h8v4zM11.2 24.8v0.8h-1.6v-1.6h1.6v0.8zM14.4 24.8v0.8h-1.6v-1.6h1.6v0.8zM17.6 24.8v0.8h-1.6v-1.6h1.6v0.8zM20.8 24.8v0.8h-1.6v-1.6h1.6v0.8zM24 24.8v0.8h-1.6v-1.6h1.6v0.8zM27.2 24.8v0.8h-1.6v-1.6h1.6v0.8z"></path>
</svg>
