<!-- Generated by IcoMoon.io -->
<svg version="1.1" xmlns="http://www.w3.org/2000/svg" width="32" height="32" viewBox="0 0 32 32">
<title>Undo</title>
<path fill="#ff7900" d="M7.52 2.451c-0.49 0.106-0.886 0.323-1.245 0.688-0.333 0.339-0.563 0.8-0.64 1.28-0.022 0.138-0.035 2.634-0.035 7.581v7.376l4.528-4.528 3.264 3.27c3.53 3.539 3.514 3.52 3.85 4.202 0.774 1.558 0.659 3.411-0.298 4.816-0.256 0.381-0.397 0.531-1.469 1.6-0.518 0.518-0.934 0.954-0.922 0.963 0.042 0.042 0.787 0.080 1.382 0.074 0.79-0.010 1.437-0.086 2.173-0.256 1.926-0.448 3.616-1.382 4.979-2.749 0.515-0.512 0.57-0.576 0.902-0.998 1.2-1.536 1.936-3.376 2.147-5.37 0.029-0.301 0.029-1.686-0.003-2.048-0.054-0.618-0.24-1.507-0.445-2.16-0.074-0.23-0.323-0.886-0.371-0.979-0.019-0.035-0.096-0.198-0.176-0.368-0.304-0.653-0.762-1.37-1.312-2.061-0.154-0.192-1.37-1.437-3.018-3.088l-2.765-2.768 4.528-4.528-7.424 0.003c-6.253 0-7.456 0.010-7.632 0.048z"></path>
</svg>
