<!-- Generated by IcoMoon.io -->
<svg version="1.1" xmlns="http://www.w3.org/2000/svg" width="32" height="32" viewBox="0 0 32 32">
<title>unique</title>
<path fill="#ff7900" d="M15.946 2.486c-0.013 0.032-0.086 0.166-0.163 0.298-0.080 0.131-0.173 0.291-0.208 0.352s-0.227 0.4-0.432 0.752c-0.701 1.21-0.944 1.632-1.238 2.144-0.163 0.282-0.406 0.707-0.544 0.944s-0.429 0.742-0.646 1.12l-0.394 0.688-8.32 0.032 0.112 0.186c0.112 0.186 0.339 0.579 1.402 2.422 0.298 0.518 0.624 1.082 0.72 1.248s0.202 0.346 0.23 0.4c0.032 0.051 0.298 0.512 0.592 1.024 0.669 1.158 0.65 1.123 0.746 1.293 0.045 0.080 0.122 0.218 0.176 0.304 0.198 0.333 0.202 0.272-0.032 0.669-0.192 0.33-1.104 1.91-1.248 2.166-0.035 0.061-0.198 0.342-0.362 0.624s-0.374 0.64-0.464 0.8c-0.090 0.157-0.365 0.634-0.608 1.056s-0.467 0.81-0.496 0.864c-0.032 0.051-0.214 0.368-0.406 0.704l-0.352 0.608 8.298 0.016 0.749 1.299c0.413 0.714 0.787 1.357 0.829 1.43 0.058 0.106 1.094 1.898 1.453 2.518 0.035 0.061 0.080 0.141 0.099 0.176 0.173 0.314 0.55 0.944 0.566 0.944 0.013 0 0.045-0.038 0.070-0.090 0.045-0.083 0.218-0.387 0.573-0.998 0.096-0.166 0.48-0.829 0.848-1.472 0.371-0.643 1.014-1.76 1.43-2.48l0.755-1.312 8.314-0.032-0.288-0.496c-0.16-0.272-0.32-0.554-0.362-0.624-0.102-0.182-1.59-2.758-1.789-3.104-0.262-0.448-0.509-0.877-1.133-1.962l-0.576-1.002 0.218-0.374c0.403-0.694 1.526-2.646 1.6-2.774 0.038-0.070 0.176-0.307 0.304-0.528s0.483-0.832 0.787-1.36c0.304-0.528 0.707-1.226 0.896-1.552l0.342-0.592-8.301-0.016-0.291-0.506c-0.33-0.57-1.568-2.717-1.667-2.886-0.035-0.061-0.112-0.198-0.173-0.304-0.502-0.864-0.72-1.242-0.806-1.395-0.336-0.602-0.739-1.277-0.762-1.277-0.016 0-0.038 0.026-0.048 0.054zM16.045 8.352c0.013 0.112 0.035 0.307 0.051 0.432 0.051 0.387 0.093 0.73 0.115 0.896 0.010 0.086 0.022 0.195 0.029 0.24s0.029 0.208 0.048 0.368c0.035 0.291 0.048 0.397 0.080 0.656 0.010 0.080 0.026 0.198 0.032 0.262 0.010 0.067 0.022 0.176 0.032 0.24 0.013 0.112 0.035 0.278 0.115 0.922 0.016 0.141 0.038 0.307 0.045 0.368s0.022 0.182 0.032 0.272c0.010 0.086 0.022 0.182 0.032 0.208 0.006 0.026 0.019 0.147 0.032 0.266 0.010 0.118 0.026 0.243 0.032 0.272 0.003 0.029 0.019 0.141 0.029 0.246 0.026 0.205 0.051 0.378 0.061 0.387 0.006 0.006 2.214-0.918 2.678-1.12 0.061-0.026 0.71-0.298 1.44-0.605s1.498-0.63 1.706-0.72c0.205-0.086 0.374-0.157 0.374-0.15s-0.627 0.496-1.395 1.094c-0.768 0.595-1.93 1.498-2.582 2.006-0.656 0.509-1.245 0.963-1.312 1.011l-0.118 0.090 0.294 0.234c0.163 0.128 0.362 0.285 0.438 0.346 0.080 0.064 0.176 0.138 0.214 0.163 0.042 0.026 0.746 0.573 1.571 1.213 0.822 0.643 1.805 1.405 2.176 1.696 0.374 0.288 0.675 0.531 0.672 0.538-0.010 0.010-0.819-0.32-0.998-0.406-0.070-0.035-2.061-0.87-2.288-0.963-0.080-0.032-0.755-0.317-1.504-0.634-0.749-0.314-1.363-0.57-1.37-0.566-0.006 0.010-0.086 0.592-0.166 1.267-0.019 0.15-0.042 0.323-0.048 0.384-0.010 0.061-0.067 0.522-0.128 1.024s-0.118 0.966-0.128 1.030c-0.010 0.067-0.022 0.176-0.029 0.24-0.032 0.259-0.058 0.477-0.067 0.522-0.010 0.048-0.035 0.269-0.067 0.528-0.006 0.070-0.029 0.227-0.045 0.352-0.016 0.122-0.038 0.288-0.045 0.368-0.045 0.416-0.061 0.512-0.086 0.512-0.016 0-0.029-0.038-0.032-0.090 0-0.048-0.006-0.115-0.013-0.15s-0.026-0.195-0.045-0.352c-0.061-0.47-0.064-0.499-0.099-0.784-0.019-0.15-0.042-0.323-0.048-0.384s-0.029-0.234-0.048-0.384c-0.054-0.432-0.061-0.486-0.080-0.656-0.010-0.090-0.022-0.189-0.029-0.224s-0.022-0.15-0.032-0.256c-0.013-0.106-0.029-0.237-0.035-0.288-0.010-0.054-0.038-0.275-0.064-0.496-0.029-0.221-0.058-0.451-0.064-0.512s-0.022-0.186-0.032-0.272c-0.013-0.090-0.026-0.195-0.032-0.24s-0.022-0.166-0.035-0.272c-0.010-0.106-0.026-0.218-0.032-0.246-0.003-0.029-0.019-0.15-0.029-0.266-0.045-0.413 0.054-0.413-0.896-0.013-0.458 0.192-0.861 0.365-0.896 0.381s-0.566 0.24-1.184 0.499c-0.614 0.256-1.162 0.486-1.216 0.509-0.349 0.157-2.013 0.845-2.022 0.838-0.003-0.006 0.397-0.326 0.896-0.714 0.496-0.384 1.392-1.078 1.99-1.542s1.146-0.89 1.216-0.944c0.070-0.058 0.301-0.237 0.512-0.4 0.602-0.461 0.72-0.557 0.72-0.582 0-0.022-0.723-0.592-1.68-1.325-0.157-0.125-0.426-0.333-0.595-0.464-0.17-0.134-0.928-0.723-1.69-1.312-0.758-0.589-1.373-1.075-1.37-1.082 0.010-0.006 2.016 0.829 3.814 1.59 0.246 0.106 0.874 0.371 1.392 0.589l0.944 0.397 0.022-0.099c0.013-0.058 0.032-0.166 0.038-0.246 0.019-0.176 0.051-0.435 0.067-0.544 0.006-0.045 0.022-0.166 0.032-0.272s0.026-0.227 0.032-0.272c0.013-0.077 0.032-0.211 0.067-0.496 0.006-0.070 0.029-0.23 0.045-0.352 0.016-0.125 0.035-0.288 0.045-0.368 0.035-0.314 0.086-0.723 0.099-0.8 0.006-0.045 0.022-0.166 0.032-0.272s0.026-0.227 0.032-0.272c0.032-0.179 0.045-0.285 0.080-0.598 0.019-0.179 0.038-0.352 0.048-0.387 0.006-0.032 0.019-0.138 0.032-0.234 0.038-0.323 0.051-0.429 0.064-0.541 0.010-0.061 0.026-0.218 0.038-0.346 0.022-0.269 0.058-0.246 0.086 0.058z"></path>
</svg>
