<!-- Generated by IcoMoon.io -->
<svg version="1.1" xmlns="http://www.w3.org/2000/svg" width="32" height="32" viewBox="0 0 32 32">
<title>unknown_file</title>
<path fill="#ff7900" d="M5.6 15.302c0 14.067-0.013 13.034 0.179 13.43 0.115 0.234 0.454 0.573 0.688 0.688 0.397 0.192-0.342 0.179 10.23 0.179h9.702v-19.2l-2.518-0.003c-1.389 0-2.586-0.010-2.666-0.019-0.467-0.058-1.005-0.262-1.421-0.538-0.445-0.294-0.896-0.842-1.123-1.357-0.109-0.246-0.224-0.659-0.253-0.915-0.006-0.070-0.016-1.261-0.016-2.65l-0.003-2.518h-12.8v12.902zM16.704 11.789c1.174 0.070 2.195 0.509 2.944 1.264 0.662 0.672 0.986 1.443 0.986 2.352-0.003 0.589-0.115 1.024-0.39 1.491-0.317 0.541-0.57 0.81-1.859 1.971-0.582 0.525-0.781 0.723-0.944 0.941-0.211 0.288-0.269 0.419-0.381 0.89-0.147 0.602-0.186 0.717-0.298 0.883-0.326 0.499-1.219 0.547-1.667 0.096-0.24-0.24-0.317-0.483-0.314-1.008 0-0.739 0.259-1.491 0.691-2.016 0.272-0.326 0.928-0.96 1.581-1.52 0.25-0.214 0.669-0.653 0.784-0.822 0.259-0.384 0.349-0.774 0.278-1.19-0.15-0.861-0.915-1.427-1.926-1.427-1.133 0.003-1.699 0.474-2.186 1.811-0.246 0.682-0.419 0.934-0.752 1.094-0.16 0.080-0.214 0.090-0.499 0.090-0.259-0.003-0.349-0.016-0.474-0.074-0.173-0.077-0.445-0.32-0.554-0.49-0.269-0.426-0.208-1.114 0.16-1.894 0.65-1.366 2.118-2.31 3.795-2.442 0.15-0.010 0.275-0.022 0.278-0.026 0.010-0.006 0.432 0.006 0.746 0.026zM16.461 22.909c0.816 0.288 1.146 1.36 0.64 2.090-0.131 0.186-0.432 0.4-0.678 0.474-0.832 0.259-1.683-0.24-1.792-1.050-0.070-0.512 0.083-0.954 0.445-1.267 0.355-0.31 0.918-0.41 1.386-0.246z"></path>
<path fill="#ff7900" d="M20 4.918c0.003 1.61 0.016 2.547 0.035 2.65 0.125 0.586 0.589 1.085 1.123 1.2 0.122 0.026 0.89 0.032 2.698 0.026l2.528-0.010-3.178-3.178c-1.744-1.744-3.181-3.174-3.19-3.174s-0.016 1.12-0.016 2.486z"></path>
</svg>
