<!-- Generated by IcoMoon.io -->
<svg version="1.1" xmlns="http://www.w3.org/2000/svg" width="32" height="32" viewBox="0 0 32 32">
<title>unlimited_calls</title>
<path fill="#ff7900" d="M15.862 3.478c-0.061 0.138-0.246 0.522-0.406 0.858-0.57 1.181-0.848 1.757-1.248 2.592-0.272 0.57-0.541 1.126-0.8 1.664-0.128 0.262-0.314 0.653-0.416 0.864s-0.269 0.563-0.378 0.784c-0.106 0.221-0.285 0.595-0.4 0.838-0.186 0.384-0.221 0.438-0.301 0.454-0.048 0.010-0.57 0.099-1.155 0.195-0.582 0.096-1.094 0.182-1.136 0.192-0.038 0.006-0.128 0.022-0.198 0.032s-0.733 0.118-1.472 0.243c-0.739 0.125-1.424 0.237-1.52 0.253s-0.96 0.157-1.92 0.32c-0.96 0.16-1.786 0.298-1.84 0.307-0.298 0.045-0.298 0.022 0.042 0.323 0.298 0.262 0.403 0.355 1.091 0.973 0.166 0.147 0.512 0.454 0.768 0.682 0.259 0.224 0.525 0.464 0.595 0.528s0.381 0.339 0.688 0.611c0.307 0.272 0.611 0.541 0.672 0.598 0.061 0.054 0.147 0.131 0.189 0.166 0.038 0.035 0.182 0.163 0.317 0.282 0.349 0.314 0.899 0.803 1.030 0.918 0.445 0.394 0.659 0.582 0.691 0.611 0.019 0.016 0.141 0.125 0.272 0.24s0.314 0.278 0.403 0.368l0.166 0.16-0.141 0.56c-0.237 0.944-0.733 2.931-1.037 4.16-0.16 0.643-0.314 1.248-0.339 1.344-0.045 0.166-0.192 0.755-0.576 2.32-0.096 0.387-0.195 0.774-0.221 0.864-0.026 0.086-0.054 0.202-0.064 0.25l-0.022 0.090 0.17-0.093c0.144-0.080 1.078-0.589 1.818-0.992 0.115-0.061 0.33-0.179 0.48-0.262s0.365-0.202 0.48-0.262c0.723-0.394 2.026-1.104 2.16-1.178 0.090-0.048 0.483-0.266 0.88-0.48s0.797-0.432 0.89-0.483c0.323-0.179 1.501-0.819 1.76-0.96l0.173-0.093 0.707 0.39c0.39 0.214 0.784 0.429 0.87 0.477 0.221 0.118 2.97 1.616 3.168 1.725 0.090 0.048 0.406 0.221 0.704 0.384 0.301 0.163 0.618 0.336 0.704 0.384 0.25 0.138 1.898 1.037 2.112 1.152 0.106 0.058 0.253 0.138 0.326 0.179 0.182 0.106 0.202 0.099 0.163-0.038-0.016-0.064-0.035-0.141-0.042-0.17-0.013-0.061-0.083-0.339-0.304-1.219-0.090-0.362-0.17-0.678-0.176-0.704-0.029-0.131-0.438-1.766-0.48-1.92s-0.259-1.018-0.288-1.152c-0.006-0.026-0.048-0.195-0.093-0.371-0.048-0.179-0.090-0.352-0.096-0.387-0.010-0.035-0.029-0.118-0.048-0.189-0.029-0.106-0.24-0.944-0.275-1.101-0.006-0.026-0.070-0.285-0.144-0.576s-0.138-0.55-0.144-0.576c-0.006-0.026-0.070-0.285-0.141-0.573-0.074-0.291-0.118-0.534-0.102-0.544 0.029-0.019 0.31-0.269 0.819-0.723 0.176-0.16 0.442-0.397 0.592-0.528s0.278-0.246 0.288-0.256c0.010-0.010 0.138-0.125 0.288-0.256s0.278-0.246 0.288-0.256c0.010-0.010 0.195-0.176 0.416-0.368 0.221-0.195 0.474-0.419 0.56-0.499 0.090-0.080 0.224-0.205 0.304-0.272s0.15-0.131 0.16-0.141c0.010-0.010 0.205-0.182 0.432-0.384 0.23-0.202 0.432-0.381 0.451-0.4 0.019-0.016 0.141-0.125 0.272-0.24 0.128-0.115 0.314-0.282 0.413-0.368 0.25-0.224 0.653-0.582 0.736-0.656 0.038-0.035 0.173-0.154 0.301-0.266 0.125-0.112 0.368-0.33 0.538-0.48 0.342-0.304 0.339-0.278 0.026-0.326-0.061-0.010-0.147-0.022-0.192-0.032s-0.122-0.022-0.176-0.029c-0.051-0.010-0.234-0.038-0.4-0.067s-0.339-0.058-0.384-0.064c-0.093-0.016-2.182-0.365-2.304-0.384-0.045-0.006-0.47-0.077-0.947-0.157-0.474-0.080-0.906-0.15-0.96-0.16-0.096-0.019-0.899-0.15-2.701-0.451-0.589-0.096-1.114-0.186-1.165-0.195-0.080-0.016-0.112-0.067-0.275-0.41-0.099-0.211-0.282-0.589-0.4-0.835-0.262-0.541-0.528-1.098-1.008-2.096-0.352-0.733-0.56-1.168-1.027-2.138-0.125-0.259-0.288-0.602-0.365-0.758-0.077-0.16-0.269-0.563-0.432-0.896-0.16-0.336-0.352-0.733-0.426-0.89-0.070-0.154-0.141-0.278-0.15-0.278-0.013 0-0.074 0.112-0.138 0.246zM14.314 12.205c0.058 0.026 0.157 0.099 0.224 0.16 0.198 0.189 0.941 1.133 1.030 1.309 0.15 0.307 0.102 0.435-0.365 0.915-0.314 0.323-0.336 0.365-0.326 0.554 0.016 0.314 0.48 0.954 1.27 1.741 0.848 0.848 1.514 1.286 1.824 1.21 0.051-0.013 0.25-0.173 0.454-0.368 0.589-0.563 0.64-0.557 1.558 0.179 0.525 0.422 0.659 0.547 0.749 0.691 0.144 0.234 0.064 0.387-0.506 0.96-0.554 0.557-0.614 0.589-1.107 0.586-0.406-0.003-0.691-0.070-1.232-0.285-1.907-0.768-4.070-2.941-4.829-4.854-0.269-0.675-0.323-1.328-0.147-1.699 0.067-0.144 0.934-1.021 1.072-1.088 0.138-0.064 0.198-0.067 0.33-0.010z"></path>
</svg>
