<!-- Generated by IcoMoon.io -->
<svg version="1.1" xmlns="http://www.w3.org/2000/svg" width="32" height="32" viewBox="0 0 32 32">
<title>unlocked</title>
<path fill="#ff7900" d="M15.52 1.61c-0.010 0.010-0.112 0.022-0.227 0.035-0.733 0.067-1.568 0.323-2.269 0.698-1.45 0.771-2.547 2.058-3.085 3.616-0.131 0.381-0.262 0.95-0.291 1.29-0.013 0.125-0.026 0.266-0.032 0.32-0.006 0.051-0.013 1.43-0.013 3.062l-0.003 2.97h-3.2l0.010 7.414c0.006 6.912 0.013 7.43 0.064 7.597 0.262 0.861 0.851 1.453 1.715 1.715 0.166 0.051 0.739 0.058 8.797 0.064l8.614 0.010-0.010-7.414c-0.006-7.014-0.010-7.427-0.064-7.603-0.227-0.746-0.758-1.341-1.43-1.61-0.454-0.179-0.237-0.173-6.41-0.173h-5.686l0.003-3.002 0.003-2.998 0.074-0.365c0.147-0.704 0.387-1.21 0.851-1.779 0.842-1.037 2.218-1.59 3.536-1.424 0.912 0.112 1.712 0.509 2.365 1.165 0.637 0.64 1.011 1.411 1.149 2.371 0.006 0.051 0.016 1.072 0.016 2.262l0.003 2.17h2.4l-0.003-2.234c-0.003-2.352-0.010-2.506-0.157-3.174-0.349-1.571-1.347-3.011-2.723-3.93-0.72-0.483-1.555-0.81-2.509-0.982-0.259-0.048-1.453-0.102-1.488-0.070zM16.454 17.648c1.21 0.25 2.019 1.306 1.933 2.528-0.051 0.73-0.435 1.398-1.037 1.802l-0.173 0.115 0.022 0.291c0.010 0.157 0.026 0.31 0.032 0.336s0.019 0.163 0.032 0.304c0.013 0.141 0.026 0.298 0.032 0.352 0.013 0.096 0.035 0.31 0.064 0.646 0.010 0.102 0.022 0.243 0.032 0.314 0.006 0.070 0.022 0.208 0.032 0.304s0.038 0.39 0.064 0.656c0.029 0.262 0.058 0.547 0.064 0.63 0.010 0.086 0.026 0.224 0.035 0.314l0.016 0.16h-3.206l0.019-0.17c0.016-0.16 0.035-0.326 0.064-0.63 0.006-0.080 0.029-0.282 0.045-0.448 0.019-0.166 0.042-0.39 0.051-0.496 0.026-0.294 0.051-0.566 0.064-0.656 0.006-0.045 0.022-0.195 0.035-0.336 0.010-0.141 0.026-0.278 0.029-0.304 0.006-0.026 0.019-0.163 0.032-0.304s0.026-0.288 0.032-0.33c0.006-0.038 0.022-0.198 0.032-0.352l0.022-0.282-0.176-0.115c-0.512-0.342-0.893-0.931-1.011-1.562-0.048-0.272-0.019-0.81 0.058-1.072 0.275-0.918 1.008-1.558 1.971-1.722 0.189-0.032 0.576-0.019 0.79 0.026z"></path>
</svg>
