<!-- Generated by IcoMoon.io -->
<svg version="1.1" xmlns="http://www.w3.org/2000/svg" width="32" height="32" viewBox="0 0 32 32">
<title>Unmissable</title>
<path fill="#ff7900" d="M15.808 3.59c-0.096 0.198-0.387 0.8-0.65 1.338s-0.547 1.12-0.63 1.296c-0.083 0.176-0.352 0.723-0.592 1.216-0.243 0.493-0.522 1.069-0.624 1.28s-0.342 0.707-0.534 1.104c-0.195 0.397-0.448 0.918-0.566 1.158-0.118 0.243-0.227 0.442-0.24 0.442-0.016 0-0.371 0.058-0.79 0.128-1.552 0.256-4.912 0.81-7.501 1.235-1.254 0.205-1.254 0.205-1.242 0.234 0.006 0.013 0.125 0.122 0.266 0.243s0.262 0.23 0.272 0.24c0.010 0.010 0.355 0.314 0.771 0.678 0.413 0.362 0.774 0.678 0.8 0.701 0.026 0.026 0.147 0.131 0.269 0.237 0.125 0.106 0.23 0.198 0.24 0.208s0.246 0.221 0.528 0.464c0.282 0.246 0.518 0.454 0.528 0.464s0.304 0.269 0.656 0.576c0.352 0.307 0.646 0.566 0.656 0.576s0.131 0.115 0.272 0.237c0.141 0.125 0.272 0.24 0.288 0.256 0.019 0.019 0.192 0.173 0.384 0.339 0.195 0.166 0.358 0.31 0.368 0.32s0.189 0.166 0.4 0.349c0.211 0.182 0.403 0.352 0.426 0.371 0.035 0.032 0.019 0.128-0.086 0.531-0.070 0.272-0.323 1.264-0.56 2.205-1.299 5.152-1.674 6.634-1.706 6.733-0.013 0.051 0.006 0.048 0.154-0.035 0.096-0.054 0.282-0.154 0.413-0.224 0.467-0.25 0.691-0.371 0.88-0.474 0.106-0.058 0.48-0.259 0.832-0.448s0.72-0.387 0.816-0.438c0.096-0.054 0.47-0.256 0.832-0.448 0.774-0.419 1.018-0.547 1.232-0.666 0.090-0.048 0.275-0.15 0.416-0.224s0.33-0.176 0.416-0.224c0.090-0.048 0.256-0.141 0.378-0.205 0.118-0.064 0.31-0.166 0.432-0.23 0.118-0.064 0.288-0.157 0.374-0.205 0.090-0.048 0.32-0.173 0.512-0.272 0.195-0.102 0.368-0.195 0.384-0.208 0.019-0.013 0.186-0.106 0.374-0.205l0.346-0.182 0.662 0.355c0.368 0.195 0.694 0.371 0.73 0.39 0.102 0.058 0.938 0.509 1.424 0.771 0.131 0.070 0.314 0.166 0.4 0.214 0.090 0.048 0.262 0.141 0.384 0.208 0.125 0.067 0.31 0.166 0.416 0.224s0.573 0.31 1.040 0.56c0.467 0.25 0.957 0.512 1.088 0.586 0.131 0.070 0.326 0.176 0.432 0.23 0.106 0.058 0.445 0.24 0.752 0.406s0.72 0.387 0.912 0.49c0.195 0.102 0.381 0.205 0.416 0.23 0.035 0.022 0.080 0.042 0.099 0.042 0.026 0-0.054-0.362-0.214-1.002-0.141-0.547-0.445-1.741-0.675-2.646s-0.429-1.699-0.442-1.76c-0.013-0.061-0.15-0.602-0.301-1.2-0.646-2.528-0.723-2.845-0.701-2.864 0.099-0.086 3.018-2.643 3.178-2.784 0.112-0.096 0.227-0.198 0.253-0.227 0.045-0.042 1.341-1.178 2.064-1.811 0.125-0.106 0.282-0.243 0.346-0.304 0.067-0.058 0.394-0.342 0.726-0.634s0.602-0.531 0.598-0.534c-0.003-0.006-1.478-0.25-3.907-0.65-0.755-0.125-1.901-0.314-2.544-0.419s-1.197-0.198-1.232-0.202c-0.035-0.006-0.125-0.022-0.202-0.035-0.147-0.022-0.176-0.029-0.502-0.077-0.122-0.019-0.294-0.051-0.384-0.067-0.186-0.035-0.752-0.128-0.79-0.128-0.016 0-0.112-0.176-0.214-0.394-0.102-0.214-0.342-0.707-0.531-1.094-0.701-1.434-0.989-2.029-1.248-2.56-0.144-0.301-0.378-0.781-0.522-1.072-0.627-1.296-1.11-2.288-1.296-2.662-0.109-0.227-0.208-0.41-0.218-0.41s-0.096 0.163-0.189 0.358zM16.496 10.509c0.438 0.214 0.704 0.634 0.701 1.107-0.003 0.154-0.045 0.915-0.061 1.072-0.006 0.070-0.022 0.278-0.032 0.464-0.026 0.496-0.045 0.819-0.064 1.072-0.006 0.122-0.022 0.381-0.032 0.576-0.010 0.192-0.026 0.432-0.032 0.528s-0.022 0.333-0.032 0.528c-0.013 0.192-0.026 0.438-0.032 0.544s-0.022 0.336-0.032 0.512c-0.010 0.176-0.026 0.406-0.032 0.512s-0.022 0.342-0.032 0.528c-0.026 0.4-0.058 0.538-0.144 0.634-0.269 0.288-0.986 0.307-1.293 0.035-0.141-0.122-0.17-0.218-0.195-0.669-0.010-0.202-0.026-0.448-0.032-0.544-0.010-0.096-0.022-0.32-0.032-0.496s-0.022-0.422-0.032-0.544c-0.029-0.435-0.048-0.739-0.064-1.056-0.010-0.176-0.022-0.422-0.032-0.544-0.019-0.256-0.038-0.595-0.064-1.056-0.010-0.176-0.026-0.422-0.035-0.544-0.006-0.125-0.022-0.317-0.029-0.432-0.074-1.267-0.070-1.168-0.038-1.36 0.077-0.442 0.474-0.854 0.918-0.947 0.211-0.048 0.57-0.006 0.752 0.080zM16.448 20.093c0.458 0.176 0.784 0.694 0.746 1.187-0.042 0.502-0.371 0.915-0.845 1.059-1.136 0.346-2.026-1.008-1.258-1.92 0.31-0.371 0.883-0.509 1.357-0.326z"></path>
</svg>
