<!-- Generated by IcoMoon.io -->
<svg version="1.1" xmlns="http://www.w3.org/2000/svg" width="32" height="32" viewBox="0 0 32 32">
<title>upload</title>
<path fill="#ff7900" d="M15.616 2.419c-0.464 0.061-1.123 0.323-1.469 0.586-0.198 0.147-0.419 0.358-1.891 1.798-0.573 0.557-1.139 1.11-1.264 1.229-0.122 0.118-0.691 0.672-1.261 1.229-0.573 0.557-1.114 1.082-1.203 1.171-0.093 0.086-0.63 0.614-1.2 1.168-0.566 0.554-1.13 1.101-1.248 1.216-0.122 0.115-0.669 0.65-1.219 1.184-0.547 0.538-1.123 1.098-1.274 1.242-0.15 0.147-0.48 0.47-0.73 0.714l-0.451 0.445h7.194l0.003 5.702c0 3.139 0.006 5.734 0.013 5.77s0.019 0.118 0.032 0.186c0.032 0.221 0.173 0.57 0.32 0.806 0.362 0.582 0.979 0.995 1.648 1.101 0.282 0.048 8.48 0.048 8.762 0.003 0.522-0.086 1.046-0.374 1.405-0.768 0.301-0.33 0.531-0.829 0.598-1.296 0.006-0.054 0.016-2.662 0.016-5.802l0.003-5.702h7.194l-0.528-0.522c-0.294-0.285-0.614-0.598-0.714-0.694s-0.634-0.618-1.187-1.155c-0.554-0.538-1.123-1.094-1.264-1.232-0.144-0.138-0.698-0.678-1.232-1.2s-1.091-1.062-1.232-1.2c-0.144-0.141-0.698-0.678-1.232-1.2s-1.082-1.053-1.213-1.181c-0.131-0.128-0.669-0.653-1.194-1.165-1.635-1.594-1.699-1.654-1.878-1.792-0.55-0.422-1.117-0.624-1.808-0.643-0.211-0.006-0.435-0.003-0.496 0.003z"></path>
</svg>
