<!-- Generated by IcoMoon.io -->
<svg version="1.1" xmlns="http://www.w3.org/2000/svg" width="32" height="32" viewBox="0 0 32 32">
<title>USB</title>
<path fill="#ff7900" d="M15.194 2.416c-0.003 0.003-0.147 0.019-0.314 0.029-0.166 0.013-0.333 0.029-0.368 0.035s-0.134 0.022-0.224 0.032c-0.211 0.022-0.342 0.045-0.832 0.125-0.035 0.003-0.099 0.019-0.144 0.029s-0.218 0.051-0.384 0.086c-0.592 0.131-1.597 0.445-2 0.624-0.051 0.026-0.189 0.083-0.304 0.128-0.57 0.234-1.491 0.733-2.115 1.149-0.515 0.342-0.605 0.406-1.043 0.765-1.968 1.59-3.434 3.658-4.288 6.038-0.24 0.675-0.493 1.648-0.586 2.266-0.080 0.509-0.093 0.611-0.112 0.822-0.013 0.122-0.029 0.266-0.038 0.32-0.029 0.182-0.035 1.795-0.010 2.112 0.032 0.368 0.096 0.963 0.115 1.056 0.010 0.035 0.045 0.23 0.080 0.432 0.301 1.725 1.005 3.475 2.010 5.008 0.115 0.176 0.221 0.333 0.237 0.352 0.013 0.016 0.125 0.17 0.25 0.336 0.762 1.018 1.658 1.914 2.669 2.678 0.806 0.605 1.299 0.912 2.195 1.36 1.203 0.598 2.765 1.088 4.013 1.254 0.070 0.010 0.23 0.032 0.352 0.048 0.611 0.083 2.118 0.115 2.736 0.058 1.494-0.138 2.755-0.438 4.048-0.963 0.662-0.272 1.507-0.701 2.032-1.037 0.522-0.333 1.107-0.749 1.379-0.979 0.064-0.054 0.186-0.157 0.272-0.227s0.256-0.221 0.381-0.336c2.144-1.997 3.552-4.49 4.122-7.296 0.102-0.493 0.176-0.963 0.202-1.28 0.010-0.131 0.026-0.275 0.035-0.32 0.029-0.144 0.035-1.798 0.006-2.112-0.035-0.435-0.093-0.918-0.125-1.104-0.016-0.090-0.045-0.253-0.064-0.368-0.262-1.485-0.89-3.165-1.667-4.454-0.189-0.31-0.525-0.835-0.582-0.906-0.013-0.019-0.131-0.176-0.266-0.352-1.741-2.33-4.259-4.070-7.053-4.88-0.806-0.234-1.654-0.4-2.368-0.467-0.115-0.010-0.25-0.026-0.304-0.035-0.106-0.016-1.923-0.042-1.942-0.026zM16.147 5.014c0.067 0.102 0.538 0.813 1.050 1.578 0.509 0.765 0.989 1.485 1.062 1.6 0.077 0.115 0.147 0.224 0.163 0.24 0.013 0.019 0.195 0.288 0.403 0.602l0.374 0.566h-2.56v4.224c0 2.323 0.006 4.224 0.016 4.224 0.013 0 0.602-0.378 1.472-0.944 0.195-0.125 0.662-0.429 1.040-0.672 1.094-0.71 1.155-0.752 1.274-0.947 0.179-0.298 0.202-0.285-0.57-0.285h-0.672v-4h4v4l-0.678 0.006-0.682 0.010-0.026 0.176c-0.061 0.448-0.288 0.877-0.637 1.206-0.157 0.147-0.4 0.314-1.546 1.056-0.176 0.115-0.592 0.384-0.928 0.602-1.814 1.178-1.798 1.168-1.926 1.354l-0.122 0.173v1.894l0.176 0.054c0.435 0.131 0.816 0.365 1.158 0.707 0.723 0.73 0.992 1.85 0.675 2.81-0.31 0.938-1.024 1.61-1.978 1.866-0.346 0.090-1.014 0.096-1.344 0.010-1.629-0.429-2.522-2.074-1.984-3.661 0.262-0.774 0.934-1.434 1.744-1.712 0.275-0.093 0.294-0.131 0.208-0.362-0.067-0.173-0.243-0.358-0.483-0.499-0.106-0.061-0.96-0.576-1.901-1.146s-1.754-1.056-1.802-1.085c-0.838-0.474-1.28-1.053-1.357-1.773-0.016-0.163-0.029-0.186-0.102-0.205-0.237-0.058-0.678-0.317-0.902-0.525-0.186-0.176-0.429-0.509-0.534-0.736-0.355-0.758-0.282-1.674 0.182-2.362 0.33-0.486 0.864-0.854 1.443-0.998 0.259-0.064 0.893-0.058 1.152 0.016 0.688 0.189 1.264 0.672 1.562 1.302 0.432 0.922 0.234 2.013-0.496 2.73-0.288 0.278-0.534 0.432-0.915 0.566-0.118 0.042-0.122 0.048-0.102 0.157 0.058 0.298 0.218 0.435 1.226 1.027 0.067 0.042 2.95 1.779 3.056 1.843 0.013 0.006 0.022-2.262 0.022-5.043v-5.059h-2.56l0.586-0.877c0.32-0.48 1.034-1.555 1.587-2.384s1.014-1.507 1.030-1.507c0.013 0 0.077 0.083 0.144 0.182z"></path>
</svg>
