<!-- Generated by IcoMoon.io -->
<svg version="1.1" xmlns="http://www.w3.org/2000/svg" width="32" height="32" viewBox="0 0 32 32">
<title>usb_key</title>
<path fill="#ff7900" d="M6.301 10.029c-0.006 0.006-0.099 0.019-0.205 0.032-1.872 0.192-3.616 1.373-4.557 3.075-0.349 0.634-0.55 1.245-0.691 2.096-0.045 0.282-0.054 0.982-0.019 1.35 0.275 2.704 2.218 4.819 4.915 5.344l0.352 0.070 8.192 0.010c6.246 0.010 8.224 0.003 8.33-0.026 0.192-0.054 0.371-0.192 0.477-0.371l0.090-0.154 0.010-5.376c0.010-6.038 0.026-5.565-0.234-5.824-0.262-0.262 0.55-0.24-8.544-0.24-4.458 0-8.109 0.006-8.115 0.013zM7.232 13.248c1.181 0.189 2.144 1.146 2.333 2.32 0.032 0.198 0.026 0.794-0.010 0.96-0.227 1.075-0.954 1.869-1.994 2.179-0.502 0.15-1.21 0.128-1.699-0.051-1.427-0.528-2.182-2.051-1.728-3.488 0.307-0.97 1.158-1.718 2.17-1.907 0.266-0.048 0.662-0.054 0.928-0.013z"></path>
<path fill="#ff7900" d="M24 16.016v4.4h7.2v-8.8h-7.2v4.4zM27.2 14.016v0.8h-1.6v-1.6h1.6v0.8zM27.2 18.016v0.8h-1.6v-1.6h1.6v0.8z"></path>
</svg>
