<!-- Generated by IcoMoon.io -->
<svg version="1.1" xmlns="http://www.w3.org/2000/svg" width="32" height="32" viewBox="0 0 32 32">
<title>Value</title>
<path fill="#ff7900" d="M2.029 3.478c0.045 0.72 0.17 1.734 0.291 2.362 0.144 0.736 0.269 1.238 0.48 1.936 0.838 2.755 2.349 5.322 4.333 7.366l0.301 0.31 0.243-0.214c0.134-0.118 0.25-0.224 0.259-0.234 0.064-0.070 0.922-0.742 1.248-0.976 0.874-0.63 1.613-1.078 2.576-1.565 1.168-0.589 2.221-1.002 3.44-1.344 0.515-0.144 1.325-0.333 1.712-0.4 0.406-0.070 0.403-0.067 0.074-0.205-2.362-0.995-4.182-2.982-4.97-5.427-0.189-0.589-0.368-1.466-0.378-1.85 0-0.029-0.986-0.038-4.813-0.038h-4.813l0.016 0.278z"></path>
<path fill="#ff7900" d="M20.416 8.416v2.784l-0.294 0.003c-0.163 0.003-0.368 0.006-0.458 0.013-0.086 0.006-0.317 0.019-0.512 0.029-0.192 0.013-0.394 0.026-0.448 0.035-0.051 0.006-0.189 0.019-0.304 0.029-1.37 0.131-3.146 0.56-4.544 1.098-1.946 0.749-3.642 1.747-5.309 3.13-0.752 0.621-1.629 1.51-2.358 2.384-1.069 1.286-1.942 2.72-2.72 4.47-0.662 1.488-1.206 3.597-1.373 5.322-0.013 0.115-0.026 0.266-0.032 0.336-0.010 0.070-0.022 0.269-0.032 0.438l-0.019 0.314h9.622l0.006-0.118c0.010-0.173 0.096-0.682 0.173-1.018 0.854-3.83 4.227-6.656 8.179-6.851l0.422-0.022v5.616l2.65-2.64c1.456-1.453 3.504-3.494 4.554-4.541 1.050-1.043 1.946-1.949 1.99-2.010 0.496-0.682 0.515-1.654 0.042-2.362-0.102-0.154-1.27-1.334-4.058-4.106-2.154-2.141-4.189-4.17-4.528-4.506-0.336-0.336-0.621-0.611-0.63-0.611s-0.019 1.251-0.019 2.784z"></path>
</svg>
