<!-- Generated by IcoMoon.io -->
<svg version="1.1" xmlns="http://www.w3.org/2000/svg" width="32" height="32" viewBox="0 0 32 32">
<title>vehicle</title>
<path fill="#ff7900" d="M7.606 6.448c-0.224 0.061-0.486 0.202-0.656 0.352-0.166 0.147-5.062 6.669-5.178 6.896-0.179 0.358-0.176 0.275-0.166 3.606 0.010 3.059 0.010 3.066 0.080 3.235 0.218 0.531 0.666 0.918 1.187 1.027 0.093 0.019 0.384 0.035 0.646 0.035h0.48l0.003 0.15c0 0.086 0.006 0.176 0.010 0.202 0.006 0.026 0.022 0.134 0.035 0.24 0.122 1.027 0.819 2.131 1.715 2.72 0.717 0.47 1.376 0.669 2.237 0.672 0.854 0 1.526-0.202 2.246-0.675 0.486-0.32 1.088-1.014 1.344-1.552 0.25-0.518 0.406-1.149 0.41-1.638v-0.118h7.2l0.003 0.102c0.003 0.32 0.086 0.797 0.192 1.123 0.202 0.621 0.509 1.114 0.989 1.59 0.813 0.813 1.741 1.187 2.902 1.168 0.813-0.013 1.466-0.218 2.16-0.675 0.298-0.195 0.861-0.762 1.056-1.053 0.314-0.477 0.554-1.059 0.63-1.536 0.019-0.125 0.042-0.259 0.048-0.304 0.010-0.045 0.016-0.157 0.016-0.25l0.003-0.166h0.89c0.963 0 1.104-0.019 1.446-0.182 0.25-0.122 0.573-0.454 0.694-0.714 0.176-0.381 0.176-0.342 0.163-3.2l-0.010-2.64-0.077-0.192c-0.166-0.416-0.438-0.714-0.813-0.893-0.23-0.109-0.586-0.189-2.198-0.483-0.237-0.045-0.496-0.096-0.576-0.112-0.080-0.019-0.454-0.093-0.832-0.163s-0.694-0.141-0.704-0.157c-0.010-0.013-0.131-0.147-0.272-0.294s-0.464-0.49-0.72-0.762c-0.256-0.272-0.573-0.611-0.71-0.752-0.134-0.141-0.275-0.291-0.314-0.336s-0.179-0.195-0.314-0.336c-0.138-0.144-0.362-0.381-0.502-0.531-0.432-0.454-1.149-1.216-1.232-1.309-0.045-0.045-0.282-0.298-0.528-0.56s-0.557-0.592-0.688-0.733c-0.55-0.586-0.739-0.72-1.142-0.803-0.31-0.067-10.918-0.064-11.155 0zM12.384 10.464v2.336h-3.808c-2.096 0-3.808-0.006-3.808-0.016 0-0.006 0.176-0.25 0.394-0.538 0.214-0.288 0.995-1.334 1.734-2.32l1.341-1.798h4.147v2.336zM18.512 8.294c0.083 0.093 0.346 0.371 0.576 0.618 0.234 0.246 0.461 0.49 0.509 0.544 0.048 0.051 0.192 0.205 0.317 0.336 0.25 0.262 1.014 1.075 1.325 1.408 0.365 0.39 0.442 0.47 0.877 0.931 0.24 0.253 0.474 0.509 0.522 0.563l0.090 0.106h-7.942v-4.672h3.571l0.157 0.166z"></path>
</svg>
