<!-- Generated by IcoMoon.io -->
<svg version="1.1" xmlns="http://www.w3.org/2000/svg" width="32" height="32" viewBox="0 0 32 32">
<title>video_phone</title>
<path fill="#ff7900" d="M9.226 2.445c-0.579 0.141-1.069 0.646-1.19 1.229-0.051 0.24-0.051 24.413 0 24.653 0.125 0.598 0.64 1.114 1.238 1.238 0.24 0.051 13.213 0.051 13.453 0 0.598-0.125 1.114-0.64 1.238-1.238 0.051-0.24 0.051-24.413 0-24.653-0.118-0.563-0.611-1.082-1.165-1.232-0.054-0.013-3.091-0.029-6.752-0.032-5.245-0.003-6.691 0.003-6.822 0.035zM17.398 3.264c0.115 0.070 0.202 0.211 0.202 0.336s-0.086 0.266-0.202 0.336c-0.096 0.061-0.17 0.064-1.392 0.064-1.424 0-1.421 0-1.542-0.202-0.115-0.189-0.058-0.416 0.138-0.534 0.096-0.061 0.17-0.064 1.398-0.064s1.302 0.003 1.398 0.064zM22.4 15.6v10.8h-12.8v-21.6h12.8v10.8zM16.4 27.309c0.39 0.23 0.512 0.749 0.266 1.12-0.112 0.17-0.221 0.256-0.413 0.323-0.608 0.214-1.222-0.394-1.005-1.005 0.086-0.246 0.282-0.442 0.522-0.518 0.16-0.051 0.47-0.013 0.63 0.080z"></path>
<path fill="#ff7900" d="M15.568 7.987c-0.25 0.035-0.627 0.118-0.816 0.179-1.194 0.384-2.198 1.389-2.586 2.586-0.23 0.71-0.253 1.568-0.058 2.31 0.32 1.235 1.334 2.317 2.579 2.752 1.203 0.422 2.669 0.198 3.683-0.557 0.723-0.541 1.229-1.248 1.482-2.074 0.234-0.768 0.23-1.629-0.013-2.413-0.438-1.405-1.725-2.515-3.184-2.746-0.278-0.045-0.886-0.064-1.088-0.038z"></path>
<path fill="#ff7900" d="M11.978 16.042c-0.573 0.378-1.053 0.835-1.424 1.357l-0.15 0.218-0.003 3.99v3.994h11.2v-7.971l-0.102-0.15c-0.39-0.582-1.002-1.162-1.619-1.536-0.198-0.122-0.224-0.125-0.326-0.029-0.342 0.317-0.973 0.72-1.44 0.922-0.758 0.326-1.382 0.445-2.24 0.429-0.774-0.016-1.424-0.163-2.096-0.48-0.429-0.198-0.96-0.541-1.248-0.806-0.211-0.189-0.16-0.195-0.55 0.064z"></path>
</svg>
