<!-- Generated by IcoMoon.io -->
<svg version="1.1" xmlns="http://www.w3.org/2000/svg" width="32" height="32" viewBox="0 0 32 32">
<title>video_file</title>
<path fill="#ff7900" d="M5.6 15.302c0 14.067-0.013 13.034 0.179 13.43 0.115 0.234 0.454 0.573 0.688 0.688 0.397 0.192-0.342 0.179 10.23 0.179h9.702v-19.2l-2.518-0.003c-1.389 0-2.586-0.010-2.666-0.019-0.467-0.058-1.005-0.262-1.421-0.538-0.445-0.294-0.896-0.842-1.123-1.357-0.109-0.246-0.224-0.659-0.253-0.915-0.006-0.070-0.016-1.261-0.016-2.65l-0.003-2.518h-12.8v12.902zM21.843 14.448c0.186 0.054 0.362 0.198 0.467 0.384l0.074 0.128 0.010 5.318 0.006 5.322h-6.058c-6.81 0-6.243 0.022-6.506-0.243-0.256-0.253-0.237 0.176-0.237-5.715v-5.242h6.042c5.248 0 6.064 0.006 6.202 0.048z"></path>
<path fill="#ff7900" d="M10.4 16v0.8h1.6v-1.6h-1.6v0.8z"></path>
<path fill="#ff7900" d="M12.8 16v0.8h1.6v-1.6h-1.6v0.8z"></path>
<path fill="#ff7900" d="M15.2 16v0.8h1.6v-1.6h-1.6v0.8z"></path>
<path fill="#ff7900" d="M17.6 16v0.8h1.6v-1.6h-1.6v0.8z"></path>
<path fill="#ff7900" d="M20 16v0.8h1.6v-1.6h-1.6v0.8z"></path>
<path fill="#ff7900" d="M10.4 20v2.4h5.2v-4.784l-5.2-0.016v2.4z"></path>
<path fill="#ff7900" d="M16.41 17.622c-0.006 0.016-0.013 1.091-0.010 2.394v2.368l5.2 0.016v-4.8h-2.589c-1.427 0-2.595 0.010-2.602 0.022z"></path>
<path fill="#ff7900" d="M10.4 24v0.8h1.6v-1.6h-1.6v0.8z"></path>
<path fill="#ff7900" d="M12.8 24v0.8h1.6v-1.6h-1.6v0.8z"></path>
<path fill="#ff7900" d="M15.2 24v0.8h1.6v-1.6h-1.6v0.8z"></path>
<path fill="#ff7900" d="M17.6 24v0.8h1.6v-1.6h-1.6v0.8z"></path>
<path fill="#ff7900" d="M20 24v0.8h1.6v-1.6h-1.6v0.8z"></path>
<path fill="#ff7900" d="M20 4.918c0.003 1.61 0.016 2.547 0.035 2.65 0.125 0.586 0.589 1.085 1.123 1.2 0.122 0.026 0.89 0.032 2.698 0.026l2.528-0.010-3.178-3.178c-1.744-1.744-3.181-3.174-3.19-3.174s-0.016 1.12-0.016 2.486z"></path>
</svg>
