<!-- Generated by IcoMoon.io -->
<svg version="1.1" xmlns="http://www.w3.org/2000/svg" width="32" height="32" viewBox="0 0 32 32">
<title>video</title>
<path fill="#ff7900" d="M3.21 15.014c0.006 9.702 0.010 10.227 0.064 10.403 0.243 0.797 0.774 1.363 1.542 1.651 0.362 0.134-0.051 0.131 12.291 0.131h11.693l-0.003-10.138c-0.003-9.61-0.006-10.147-0.058-10.39-0.195-0.864-0.829-1.523-1.715-1.789l-0.224-0.067-23.6-0.016 0.010 10.214zM7.2 7.6v1.2h-2.4v-2.4h2.4v1.2zM11.2 7.6v1.2h-2.4v-2.4h2.4v1.2zM15.2 7.6v1.2h-2.4v-2.4h2.4v1.2zM19.2 7.6v1.2h-2.4v-2.4h2.4v1.2zM23.2 7.6v1.2h-2.4v-2.4h2.4v1.2zM27.2 7.6v1.2h-2.4v-2.4h2.4v1.2zM14.666 10.451c0.086 0.029 0.211 0.109 0.288 0.186 0.266 0.256 0.246-0.176 0.246 5.376-0.003 3.987-0.010 4.954-0.045 5.050-0.064 0.179-0.227 0.365-0.397 0.448l-0.15 0.074-4.56 0.010c-4.97 0.006-4.698 0.016-4.944-0.173-0.064-0.048-0.154-0.154-0.202-0.234l-0.086-0.147v-10.080l0.086-0.144c0.099-0.17 0.23-0.282 0.419-0.358 0.125-0.051 0.483-0.054 4.666-0.054 4.067-0.003 4.544 0.003 4.678 0.048zM26.768 10.499c0.182 0.096 0.349 0.294 0.4 0.47 0.019 0.080 0.032 1.747 0.032 5.034 0 5.514 0.019 5.088-0.24 5.354-0.253 0.259 0.099 0.243-4.976 0.243-4.934 0-4.656 0.010-4.899-0.189-0.061-0.051-0.144-0.16-0.189-0.246l-0.080-0.157-0.010-4.96c-0.010-5.587-0.026-5.152 0.237-5.411 0.259-0.25-0.125-0.234 4.989-0.227l4.576 0.006 0.16 0.083zM7.2 24.4v1.2h-2.4v-2.4h2.4v1.2zM11.2 24.4v1.2h-2.4v-2.4h2.4v1.2zM15.2 24.4v1.2h-2.4v-2.4h2.4v1.2zM19.2 24.4v1.2h-2.4v-2.4h2.4v1.2zM23.2 24.4v1.2h-2.4v-2.4h2.4v1.2zM27.2 24.4v1.2h-2.4v-2.4h2.4v1.2z"></path>
</svg>
