<!-- Generated by IcoMoon.io -->
<svg version="1.1" xmlns="http://www.w3.org/2000/svg" width="32" height="32" viewBox="0 0 32 32">
<title>Vinyl</title>
<path fill="#ff7900" d="M15.197 2.413c-0.006 0.006-0.141 0.022-0.301 0.032-2.256 0.173-4.506 0.957-6.432 2.237-2.64 1.757-4.614 4.429-5.501 7.446-0.208 0.704-0.39 1.562-0.451 2.128-0.013 0.106-0.029 0.227-0.035 0.272-0.093 0.579-0.080 2.333 0.022 3.136 0.496 3.917 2.595 7.344 5.885 9.603 1.507 1.037 3.424 1.811 5.254 2.125 0.928 0.16 1.328 0.192 2.362 0.192 0.826 0 1.040-0.013 1.757-0.099 1.91-0.23 3.91-0.96 5.6-2.045 0.515-0.333 1.29-0.922 1.731-1.322 2.237-2.029 3.686-4.598 4.269-7.558 0.042-0.221 0.086-0.464 0.096-0.544 0.019-0.157 0.048-0.378 0.067-0.528 0.064-0.438 0.086-1.949 0.038-2.544-0.038-0.525-0.141-1.238-0.246-1.728-0.861-4.074-3.514-7.517-7.226-9.376-1.306-0.653-2.838-1.136-4.122-1.296-0.086-0.013-0.179-0.026-0.205-0.032s-0.163-0.022-0.304-0.035c-0.141-0.010-0.291-0.026-0.336-0.035-0.093-0.016-1.907-0.042-1.923-0.029zM11.254 4.541c0.074 0.182 0.138 0.342 0.138 0.352 0 0.013-0.125 0.077-0.278 0.147-2.64 1.174-4.858 3.37-6.026 5.968-0.093 0.202-0.173 0.374-0.179 0.381-0.019 0.022-0.691-0.266-0.704-0.301-0.026-0.064 0.432-1.011 0.749-1.552 1.267-2.166 3.117-3.891 5.366-4.998 0.666-0.326 0.698-0.342 0.749-0.336 0.026 0.003 0.109 0.157 0.186 0.339zM11.862 6.016c0.077 0.182 0.138 0.342 0.138 0.358 0 0.013-0.061 0.051-0.134 0.080-0.282 0.109-1.046 0.518-1.421 0.755-1.68 1.066-3.056 2.63-3.872 4.4-0.093 0.202-0.176 0.371-0.186 0.381-0.019 0.019-0.685-0.243-0.707-0.278-0.038-0.061 0.403-0.96 0.742-1.52 0.934-1.533 2.253-2.851 3.779-3.773 0.518-0.314 1.427-0.765 1.494-0.746 0.016 0.006 0.093 0.16 0.166 0.342zM12.483 7.507l0.147 0.349-0.435 0.211c-1.862 0.899-3.392 2.461-4.211 4.298l-0.118 0.269-0.118-0.048c-0.064-0.026-0.157-0.067-0.211-0.090-0.051-0.022-0.163-0.070-0.246-0.109-0.086-0.035-0.154-0.074-0.154-0.086 0-0.051 0.458-0.954 0.627-1.229 0.787-1.306 1.85-2.39 3.139-3.206 0.346-0.221 1.35-0.736 1.402-0.72 0.016 0.006 0.099 0.17 0.179 0.362zM13.091 8.973l0.15 0.365-0.422 0.208c-1.421 0.701-2.55 1.824-3.254 3.242l-0.227 0.454-0.355-0.147c-0.198-0.080-0.365-0.15-0.371-0.154-0.006-0.006 0.090-0.214 0.214-0.467 0.781-1.594 2.093-2.896 3.702-3.68 0.211-0.102 0.39-0.186 0.4-0.186s0.083 0.166 0.163 0.365zM13.568 10.125c0 0.003 0.064 0.163 0.144 0.352l0.141 0.339-0.342 0.173c-1.107 0.557-1.987 1.44-2.531 2.538l-0.163 0.326-0.339-0.141c-0.189-0.080-0.349-0.144-0.352-0.144-0.074 0 0.221-0.605 0.512-1.053 0.483-0.746 1.168-1.424 1.923-1.91 0.41-0.262 1.008-0.55 1.008-0.48zM16.992 11.306c1.264 0.282 2.307 0.992 3.014 2.058 0.326 0.49 0.598 1.162 0.717 1.757 0.083 0.435 0.086 1.216 0.006 1.677-0.323 1.869-1.699 3.376-3.51 3.843-0.458 0.118-0.762 0.154-1.315 0.144-0.685-0.010-1.174-0.112-1.782-0.368-1.478-0.63-2.56-1.981-2.845-3.562-0.070-0.378-0.083-1.168-0.029-1.526 0.314-2.064 1.837-3.654 3.872-4.045 0.365-0.070 0.422-0.074 0.992-0.067 0.413 0.006 0.582 0.026 0.88 0.090zM21.866 18.429c0.051 0.019 0.038 0.061-0.138 0.413-0.512 1.024-1.27 1.882-2.214 2.502-0.435 0.288-1.082 0.605-1.082 0.531 0-0.003-0.064-0.163-0.144-0.349l-0.141-0.342 0.326-0.163c1.107-0.55 1.997-1.44 2.547-2.547l0.163-0.326 0.31 0.131c0.173 0.070 0.339 0.138 0.371 0.15zM23.366 19.066c0.013 0.013-0.077 0.224-0.195 0.47-0.672 1.366-1.712 2.499-3.030 3.306-0.294 0.182-1.066 0.57-1.082 0.544-0.003-0.006-0.074-0.173-0.157-0.371l-0.147-0.362 0.144-0.064c0.080-0.032 0.15-0.061 0.154-0.061 0.035 0 0.72-0.39 0.928-0.531 1.037-0.682 1.917-1.686 2.47-2.813l0.211-0.426 0.339 0.141c0.189 0.080 0.352 0.154 0.365 0.166zM24.838 19.674c0.032 0.032-0.237 0.618-0.458 1.005-0.826 1.456-1.917 2.595-3.325 3.478-0.438 0.278-1.341 0.723-1.376 0.685-0.016-0.013-0.093-0.179-0.17-0.365l-0.141-0.339 0.368-0.17c0.653-0.304 1.53-0.874 2.022-1.312 0.986-0.88 1.77-1.926 2.256-3.021l0.118-0.269 0.342 0.144c0.186 0.077 0.349 0.15 0.362 0.163zM26 20.141c0.275 0.115 0.32 0.144 0.314 0.205-0.010 0.083-0.33 0.752-0.541 1.126-0.227 0.41-0.598 0.966-0.886 1.344-0.262 0.339-0.346 0.438-0.662 0.781-0.95 1.027-2.074 1.862-3.296 2.454-0.256 0.122-0.49 0.237-0.518 0.256-0.093 0.048-0.118 0.035-0.182-0.109-0.093-0.205-0.227-0.541-0.227-0.57 0-0.016 0.077-0.058 0.17-0.099 0.269-0.112 0.976-0.483 1.277-0.669 1.357-0.838 2.522-1.997 3.389-3.373 0.202-0.323 0.611-1.101 0.71-1.354 0.029-0.074 0.070-0.134 0.093-0.131 0.022 0 0.186 0.061 0.362 0.138zM27.443 20.739c0.176 0.070 0.33 0.144 0.346 0.157 0.070 0.067-0.605 1.389-1.085 2.128-1.050 1.613-2.592 3.072-4.256 4.032-0.637 0.368-1.507 0.781-1.549 0.733-0.038-0.038-0.304-0.685-0.288-0.698 0.006-0.006 0.163-0.080 0.349-0.163 2.282-1.021 4.282-2.864 5.533-5.098 0.134-0.24 0.47-0.931 0.544-1.12 0.026-0.054 0.054-0.102 0.067-0.102s0.166 0.058 0.339 0.131z"></path>
<path fill="#ff7900" d="M15.357 11.888c-1.238 0.208-2.288 0.918-2.938 1.994-0.47 0.781-0.675 1.843-0.531 2.749 0.278 1.744 1.568 3.088 3.312 3.453 0.374 0.080 1.187 0.080 1.574 0.003 1.376-0.278 2.506-1.181 3.046-2.445 0.246-0.579 0.342-1.107 0.323-1.786-0.054-1.891-1.357-3.472-3.216-3.91-0.403-0.096-1.174-0.122-1.571-0.058zM16.4 15.309c0.582 0.342 0.496 1.226-0.141 1.443-0.547 0.186-1.11-0.259-1.050-0.832 0.022-0.205 0.083-0.333 0.243-0.493 0.24-0.24 0.65-0.291 0.947-0.118z"></path>
</svg>
