<!-- Generated by IcoMoon.io -->
<svg version="1.1" xmlns="http://www.w3.org/2000/svg" width="32" height="32" viewBox="0 0 32 32">
<title>vip_contact</title>
<path fill="#ff7900" d="M2.4 14.518c0 10.48-0.010 9.888 0.16 10.339 0.083 0.218 0.141 0.326 0.291 0.534 0.32 0.438 0.669 0.698 1.203 0.89l0.282 0.102 4.88 0.019v-1.568l-0.096-0.106c-0.054-0.058-0.144-0.198-0.202-0.314-0.093-0.186-0.102-0.234-0.102-0.496 0-0.256 0.013-0.31 0.099-0.496 0.125-0.262 0.32-0.458 0.589-0.589 0.186-0.090 0.24-0.099 0.496-0.099s0.31 0.013 0.496 0.099c0.323 0.154 0.528 0.384 0.64 0.717 0.131 0.381 0.051 0.781-0.224 1.136l-0.128 0.166v1.546h10.4v-0.816c0-0.448-0.013-0.816-0.029-0.816s-0.080-0.077-0.141-0.17c-0.246-0.358-0.278-0.803-0.090-1.187 0.131-0.269 0.298-0.435 0.566-0.566 0.202-0.099 0.243-0.109 0.509-0.109 0.253 0.003 0.314 0.016 0.496 0.102 0.755 0.358 0.931 1.248 0.371 1.878l-0.083 0.093v1.59h6.816l-0.010-9.818c-0.006-9.315-0.010-9.824-0.064-10-0.278-0.912-0.963-1.549-1.866-1.734-0.205-0.042-1.738-0.048-12.749-0.048h-12.512v9.718zM14.758 8.89c0.17 0.083 0.333 0.269 0.397 0.448 0.035 0.096 0.042 1.062 0.045 5.050 0 5.526 0.019 5.11-0.237 5.373-0.186 0.195-0.362 0.24-0.922 0.24h-0.442l-0.003-0.346c0-0.189-0.006-0.365-0.013-0.39-0.003-0.026-0.026-0.15-0.045-0.278-0.221-1.424-1.411-2.64-2.867-2.925-0.291-0.058-1.056-0.058-1.344 0-0.512 0.102-1.043 0.336-1.453 0.646-0.285 0.214-0.349 0.272-0.566 0.515-0.429 0.477-0.784 1.222-0.858 1.802-0.013 0.090-0.029 0.189-0.035 0.224s-0.013 0.218-0.013 0.406l-0.003 0.346h-0.458c-0.336 0-0.499-0.013-0.608-0.051-0.163-0.054-0.371-0.237-0.461-0.403-0.054-0.099-0.058-0.355-0.067-5.082-0.010-5.59-0.026-5.165 0.234-5.424 0.253-0.253-0.131-0.237 4.992-0.23l4.576 0.006 0.15 0.074zM26.752 8.877c0.134 0.074 0.301 0.24 0.368 0.374 0.144 0.275 0.077 0.662-0.157 0.902-0.256 0.266 0.077 0.246-4.566 0.246-4.486 0-4.246 0.010-4.496-0.179-0.368-0.282-0.397-0.854-0.058-1.184 0.259-0.25-0.080-0.234 4.605-0.227 4.042 0.006 4.195 0.010 4.304 0.067zM26.659 12.848c0.192 0.067 0.333 0.186 0.435 0.362 0.074 0.125 0.090 0.186 0.090 0.39 0 0.275-0.045 0.381-0.237 0.573-0.243 0.243 0.061 0.23-4.614 0.221l-4.179-0.010-0.157-0.096c-0.451-0.278-0.525-0.886-0.154-1.248 0.259-0.253-0.074-0.234 4.544-0.237 3.619-0.003 4.15 0.003 4.272 0.045zM23.459 16.848c0.65 0.23 0.726 1.098 0.128 1.45l-0.147 0.086-2.573 0.010c-2.826 0.010-2.742 0.013-2.982-0.182-0.179-0.147-0.269-0.358-0.269-0.624 0-0.189 0.016-0.253 0.086-0.374 0.096-0.166 0.256-0.298 0.435-0.365 0.096-0.035 0.586-0.045 2.65-0.045 2.189-0.003 2.55 0.003 2.672 0.045z"></path>
<path fill="#ff7900" d="M9.632 10.422c-1.002 0.182-1.709 0.832-1.984 1.818-0.019 0.070-0.042 0.266-0.054 0.432-0.070 1.126 0.682 2.157 1.789 2.451 0.24 0.064 0.774 0.086 1.018 0.042 0.822-0.154 1.53-0.736 1.821-1.498 0.342-0.902 0.118-1.914-0.566-2.586-0.32-0.31-0.749-0.538-1.174-0.627-0.218-0.045-0.685-0.061-0.848-0.032z"></path>
</svg>
