<!-- Generated by IcoMoon.io -->
<svg version="1.1" xmlns="http://www.w3.org/2000/svg" width="32" height="32" viewBox="0 0 32 32">
<title>virtual_gamepad</title>
<path fill="#ff7900" d="M3.606 8.048c-0.582 0.16-1.053 0.653-1.171 1.226-0.026 0.122-0.035 2.051-0.035 6.752 0 5.59 0.006 6.608 0.048 6.755 0.154 0.586 0.65 1.066 1.226 1.184 0.122 0.026 3.603 0.035 12.352 0.035 10.246 0 12.208-0.006 12.349-0.045 0.57-0.15 1.027-0.598 1.168-1.136 0.051-0.195 0.054-0.678 0.054-6.819 0.003-6.461 0.003-6.614-0.061-6.826-0.163-0.573-0.64-1.021-1.21-1.139-0.272-0.058-24.515-0.045-24.72 0.013zM26.4 16v6.4h-21.6v-12.8h21.6v6.4zM3.779 14.448c0.051 0.029 0.125 0.096 0.157 0.154 0.061 0.096 0.064 0.17 0.064 1.398s-0.003 1.302-0.064 1.398c-0.16 0.262-0.512 0.262-0.672 0-0.061-0.096-0.064-0.17-0.064-1.392 0-1.424 0-1.421 0.202-1.542 0.125-0.077 0.25-0.080 0.378-0.016zM28.23 15.245c0.579 0.173 0.755 0.899 0.323 1.318-0.374 0.365-0.963 0.285-1.242-0.163-0.083-0.134-0.096-0.186-0.096-0.381 0-0.272 0.093-0.486 0.278-0.63 0.224-0.179 0.467-0.227 0.736-0.144z"></path>
<path fill="#ff7900" d="M9.856 12.41c-0.448 0.061-0.826 0.365-0.979 0.794-0.074 0.195-0.077 0.253-0.077 0.902v0.694h-0.598c-0.717-0.003-0.918 0.019-1.13 0.128-0.323 0.163-0.522 0.406-0.624 0.765-0.141 0.483 0.086 1.069 0.509 1.315 0.288 0.17 0.374 0.182 1.107 0.192 0.378 0.006 0.698 0.010 0.714 0.013 0.013 0 0.022 0.301 0.022 0.666 0 0.742 0.029 0.906 0.192 1.162 0.333 0.515 0.998 0.704 1.53 0.435 0.211-0.109 0.429-0.307 0.512-0.474 0.157-0.307 0.166-0.381 0.166-1.11v-0.691h0.618c0.336 0.003 0.691-0.010 0.787-0.026 0.371-0.054 0.73-0.336 0.89-0.694 0.259-0.576-0.003-1.293-0.57-1.549-0.256-0.118-0.384-0.134-1.091-0.131h-0.634v-0.672c0-0.752-0.026-0.912-0.192-1.168-0.25-0.387-0.714-0.611-1.152-0.55z"></path>
<path fill="#ff7900" d="M20.998 12.419c-0.659 0.118-1.104 0.765-0.97 1.411 0.048 0.237 0.099 0.346 0.253 0.534 0.624 0.771 1.888 0.448 2.090-0.534 0.166-0.806-0.56-1.555-1.373-1.411z"></path>
<path fill="#ff7900" d="M18.56 14.829c-0.538 0.112-0.928 0.57-0.947 1.114-0.035 0.941 0.925 1.546 1.757 1.104 0.717-0.378 0.842-1.386 0.24-1.93-0.278-0.25-0.685-0.362-1.050-0.288z"></path>
<path fill="#ff7900" d="M23.472 14.806c-0.509 0.086-0.864 0.381-1.008 0.838-0.109 0.349-0.064 0.691 0.134 1.002 0.509 0.803 1.728 0.698 2.106-0.179 0.221-0.515 0.022-1.168-0.442-1.462-0.23-0.144-0.582-0.234-0.79-0.198z"></path>
<path fill="#ff7900" d="M21.072 17.206c-0.461 0.080-0.81 0.339-0.973 0.723-0.035 0.083-0.074 0.243-0.086 0.355-0.112 1.078 1.168 1.725 1.99 1.005 0.621-0.544 0.477-1.581-0.269-1.958-0.195-0.099-0.49-0.154-0.662-0.125z"></path>
</svg>
