<!-- Generated by IcoMoon.io -->
<svg version="1.1" xmlns="http://www.w3.org/2000/svg" width="32" height="32" viewBox="0 0 32 32">
<title>visual_voicemail</title>
<path fill="#ff7900" d="M8.112 9.664c-1.277 0.144-2.534 0.691-3.488 1.517-1.194 1.034-1.962 2.454-2.173 4.019-0.064 0.483-0.045 1.411 0.038 1.888 0.374 2.077 1.677 3.795 3.565 4.698 0.378 0.179 1.056 0.403 1.466 0.483 0.186 0.035 0.387 0.077 0.448 0.090s3.603 0.026 7.872 0.029c8.173 0.010 8 0.013 8.675-0.128 2.237-0.467 4.141-2.218 4.778-4.387 0.202-0.694 0.259-1.117 0.259-1.888-0.003-0.675-0.038-0.976-0.189-1.562-0.659-2.566-2.861-4.464-5.523-4.758-0.298-0.032-1.248-0.022-1.472 0.016-0.061 0.010-0.198 0.035-0.304 0.051-1.686 0.282-3.245 1.302-4.208 2.755-1.258 1.901-1.418 4.301-0.419 6.33 0.099 0.202 0.186 0.378 0.189 0.39 0.006 0.016-0.73 0.026-1.638 0.026s-1.651-0.006-1.651-0.010c0-0.006 0.080-0.17 0.176-0.362 0.906-1.808 0.893-3.962-0.032-5.76-0.749-1.453-2.086-2.608-3.632-3.13-0.32-0.109-0.909-0.246-1.216-0.288-0.262-0.035-1.261-0.048-1.52-0.019zM9.443 12.083c2.112 0.339 3.61 2.365 3.302 4.474-0.221 1.52-1.229 2.739-2.669 3.232-1.581 0.538-3.338 0.029-4.39-1.27-0.39-0.483-0.634-0.979-0.794-1.638-0.099-0.39-0.106-1.238-0.019-1.648 0.352-1.622 1.587-2.838 3.19-3.136 0.374-0.070 1.002-0.077 1.379-0.013zM23.856 12.080c0.739 0.154 1.293 0.406 1.84 0.845 0.742 0.595 1.277 1.52 1.43 2.483 0.048 0.304 0.029 1.13-0.035 1.408-0.381 1.667-1.632 2.861-3.28 3.136-0.48 0.080-1.139 0.054-1.603-0.064-0.707-0.182-1.306-0.522-1.843-1.056-0.771-0.762-1.165-1.69-1.178-2.778-0.026-2.010 1.45-3.706 3.485-4.003 0.131-0.019 1.066 0.003 1.184 0.029z"></path>
</svg>
