<!-- Generated by IcoMoon.io -->
<svg version="1.1" xmlns="http://www.w3.org/2000/svg" width="32" height="32" viewBox="0 0 32 32">
<title>volte</title>
<path fill="#ff7900" d="M15.197 2.413c-0.006 0.006-0.141 0.022-0.301 0.032-3.504 0.266-6.858 1.965-9.187 4.662-1.808 2.096-2.957 4.733-3.229 7.421-0.013 0.115-0.029 0.259-0.035 0.32-0.010 0.061-0.022 0.486-0.029 0.944-0.016 0.864 0.032 1.654 0.131 2.224 0.198 1.139 0.352 1.754 0.643 2.56 1.050 2.915 3.066 5.398 5.69 7.011 1.808 1.114 3.936 1.808 6.032 1.971 0.426 0.032 1.818 0.032 2.176 0 1.19-0.109 2.237-0.326 3.248-0.669 4.198-1.418 7.472-4.816 8.701-9.030 0.237-0.806 0.416-1.699 0.483-2.387 0.010-0.115 0.032-0.339 0.045-0.496 0.016-0.16 0.029-2.845 0.029-5.968 0.003-6.096 0.010-5.888-0.157-6.4-0.307-0.954-1.075-1.725-2.045-2.045-0.506-0.166-0.256-0.16-6.435-0.16-3.162 0-5.754 0.003-5.76 0.010zM18.784 5.626c0.096 0.019 0.25 0.045 0.336 0.054 0.090 0.010 0.32 0.054 0.512 0.099 2.163 0.483 4.054 1.773 5.293 3.613 0.317 0.47 0.509 0.819 0.736 1.334 0.371 0.848 0.598 1.709 0.698 2.656 0.032 0.288 0.032 1.376 0.003 1.658-0.211 2.019-1.024 3.779-2.41 5.21-0.192 0.202-0.394 0.394-0.448 0.432l-0.096 0.064 0.099-0.109c0.278-0.304 0.714-0.96 1.011-1.533 0.771-1.475 1.107-3.309 0.906-4.944-0.042-0.346-0.061-0.461-0.147-0.864-0.531-2.483-2.125-4.582-4.419-5.818-0.829-0.445-2.141-0.851-3.034-0.934-0.131-0.013-0.269-0.029-0.304-0.035-0.109-0.022-1.136-0.019-1.392 0.003-1.69 0.15-3.366 0.8-4.611 1.795-0.122 0.096-0.221 0.166-0.221 0.154 0-0.038 0.426-0.461 0.736-0.73 0.355-0.307 0.643-0.531 0.912-0.704 0.106-0.070 0.25-0.163 0.32-0.211 0.208-0.134 0.87-0.464 1.251-0.618 0.742-0.304 1.616-0.518 2.381-0.586 0.131-0.010 0.246-0.026 0.253-0.032 0.029-0.026 1.469 0.016 1.635 0.045zM18.48 8.208c1.811 0.237 3.376 1.222 4.365 2.749 0.416 0.643 0.746 1.485 0.87 2.227 0.080 0.47 0.102 1.258 0.051 1.725-0.122 1.101-0.586 2.221-1.296 3.107-0.176 0.221-0.694 0.752-0.822 0.842l-0.096 0.067 0.067-0.080c0.16-0.182 0.448-0.65 0.637-1.037 0.243-0.496 0.4-0.957 0.515-1.51 0.074-0.355 0.086-0.493 0.090-1.050 0-0.352-0.010-0.733-0.022-0.848-0.339-2.765-2.512-4.928-5.302-5.277-0.362-0.045-1.19-0.035-1.536 0.016-1.037 0.157-2.051 0.573-2.8 1.146l-0.128 0.099 0.070-0.096c0.112-0.16 0.678-0.691 0.97-0.909 0.88-0.656 1.942-1.075 2.976-1.174 0.115-0.013 0.211-0.026 0.218-0.029 0.019-0.016 1.011 0.010 1.174 0.032zM9.296 10.483c0.269 0.141 0.634 0.515 1.264 1.309 0.198 0.246 0.384 0.477 0.413 0.512 0.048 0.058 0.314 0.413 0.499 0.672 0.189 0.256 0.336 0.653 0.314 0.832-0.042 0.323-0.198 0.544-0.883 1.238-0.374 0.378-0.541 0.57-0.566 0.653-0.045 0.134-0.026 0.461 0.035 0.608 0.019 0.051 0.058 0.144 0.083 0.205 0.176 0.432 0.682 1.152 1.283 1.824 0.438 0.49 1.334 1.392 1.814 1.827 0.106 0.096 0.198 0.179 0.208 0.189 0.051 0.058 0.595 0.496 0.8 0.646 0.624 0.458 1.088 0.672 1.472 0.678 0.298 0.003 0.298 0.003 0.906-0.602 0.726-0.726 0.925-0.861 1.27-0.864 0.179 0 0.243 0.016 0.451 0.118 0.243 0.122 0.781 0.509 1.405 1.014 0.186 0.15 0.362 0.294 0.397 0.32 0.723 0.57 1.085 0.97 1.126 1.232 0.026 0.186-0.045 0.39-0.214 0.621-0.074 0.099-0.502 0.544-0.95 0.989-0.675 0.666-0.854 0.826-1.018 0.906-0.282 0.138-0.586 0.186-1.101 0.17-1.674-0.048-4.006-1.178-6.176-2.986-0.202-0.166-0.384-0.32-0.403-0.339-1.021-0.938-1.811-1.754-2.413-2.496-0.112-0.141-0.214-0.262-0.224-0.272-0.045-0.038-0.678-0.909-0.883-1.216-0.512-0.762-0.97-1.619-1.28-2.387-0.208-0.525-0.403-1.181-0.448-1.53-0.013-0.070-0.029-0.192-0.045-0.266-0.042-0.24-0.035-0.723 0.016-1.018 0.093-0.534 0.16-0.634 1.082-1.562 0.755-0.758 1.021-0.986 1.254-1.072 0.131-0.051 0.368-0.029 0.512 0.045zM18.342 10.816c1.104 0.195 2.035 0.902 2.528 1.92 0.618 1.28 0.362 2.861-0.637 3.888-0.182 0.189-0.464 0.432-0.499 0.432-0.010 0 0.045-0.112 0.122-0.25 0.458-0.803 0.55-1.846 0.25-2.774-0.086-0.269-0.32-0.71-0.506-0.957-0.912-1.216-2.496-1.696-3.92-1.197-0.25 0.090-0.621 0.269-0.733 0.358-0.086 0.067 0.010-0.070 0.205-0.294 0.672-0.768 1.661-1.2 2.678-1.171 0.17 0.006 0.4 0.026 0.512 0.045z"></path>
</svg>
