<!-- Generated by IcoMoon.io -->
<svg version="1.1" xmlns="http://www.w3.org/2000/svg" width="32" height="32" viewBox="0 0 32 32">
<title>volume_high</title>
<path fill="#ff7900" d="M16.8 4.707c-0.413 0.371-0.851 0.762-0.976 0.87-0.122 0.109-0.374 0.333-0.56 0.499-0.426 0.381-0.448 0.4-1.12 0.995-0.307 0.272-0.566 0.502-0.576 0.512s-0.218 0.195-0.464 0.413c-0.246 0.221-0.557 0.493-0.688 0.611-0.198 0.179-1.466 1.302-1.898 1.686l-0.118 0.106h-3.658c-2.49 0-3.718 0.010-3.85 0.035-0.614 0.112-1.142 0.64-1.261 1.261-0.026 0.141-0.032 1.357-0.026 4.432l0.010 4.24 0.070 0.17c0.218 0.531 0.666 0.918 1.187 1.027 0.118 0.026 1.286 0.035 3.853 0.035h3.68l0.278 0.25c0.15 0.134 0.282 0.253 0.291 0.262s0.275 0.246 0.592 0.528c0.723 0.64 0.672 0.595 1.267 1.123 0.272 0.246 0.934 0.832 1.472 1.309 0.534 0.474 1.024 0.909 1.085 0.963 0.061 0.058 0.582 0.522 1.162 1.034l1.046 0.934v-11.987c0-6.592-0.010-11.984-0.022-11.981-0.016 0-0.365 0.304-0.778 0.672z"></path>
<path fill="#ff7900" d="M26.525 6.486c-0.077 0.067-0.147 0.128-0.157 0.141-0.010 0.010-0.31 0.275-0.672 0.589s-0.691 0.602-0.733 0.643l-0.077 0.074 0.173 0.202c1.040 1.197 1.827 2.579 2.33 4.077 0.23 0.691 0.448 1.638 0.499 2.173 0.013 0.122 0.029 0.23 0.032 0.24 0.058 0.099 0.086 1.805 0.038 2.358-0.080 0.97-0.259 1.862-0.55 2.746-0.499 1.504-1.238 2.826-2.256 4.032l-0.266 0.31 0.077 0.070c0.109 0.099 1.603 1.402 1.67 1.456 0.064 0.051 0.070 0.042 0.378-0.317 1.258-1.472 2.31-3.443 2.826-5.29 0.246-0.89 0.365-1.485 0.48-2.448 0.067-0.55 0.090-1.965 0.045-2.614-0.115-1.587-0.506-3.168-1.155-4.678-0.138-0.32-0.515-1.072-0.678-1.354-0.067-0.115-0.138-0.237-0.157-0.272-0.294-0.509-0.925-1.395-1.347-1.888-0.093-0.106-0.198-0.23-0.24-0.282-0.042-0.048-0.083-0.086-0.096-0.086s-0.083 0.054-0.163 0.118z"></path>
<path fill="#ff7900" d="M23.568 9.078c-0.054 0.045-0.195 0.173-0.32 0.282-0.122 0.109-0.477 0.416-0.784 0.685s-0.563 0.499-0.57 0.512c-0.003 0.013 0.080 0.122 0.186 0.246 1.034 1.19 1.731 2.819 1.882 4.397 0.029 0.304 0.029 1.29 0 1.584-0.16 1.651-0.806 3.139-1.958 4.512-0.106 0.125-0.118 0.154-0.080 0.189 0.026 0.022 0.397 0.349 0.829 0.723s0.816 0.71 0.854 0.742c0.067 0.064 0.067 0.064 0.195-0.077 0.835-0.912 1.597-2.224 2.045-3.523 0.947-2.755 0.653-5.933-0.784-8.454-0.326-0.573-0.838-1.296-1.242-1.75-0.138-0.154-0.147-0.157-0.253-0.067z"></path>
<path fill="#ff7900" d="M20 12.195c-0.362 0.317-0.749 0.659-0.861 0.758s-0.214 0.186-0.23 0.192c-0.058 0.022-0.026 0.090 0.118 0.246 0.192 0.208 0.403 0.531 0.557 0.842 0.701 1.414 0.483 3.181-0.531 4.349-0.16 0.182-0.208 0.266-0.147 0.266 0.013 0 0.090 0.064 0.17 0.138s0.246 0.221 0.368 0.326c0.506 0.442 1.059 0.928 1.136 0.998l0.086 0.080 0.214-0.253c0.736-0.858 1.245-1.965 1.443-3.139 0.070-0.413 0.083-1.325 0.029-1.782-0.061-0.467-0.221-1.149-0.336-1.408-0.016-0.035-0.067-0.157-0.115-0.272-0.23-0.563-0.63-1.219-1.021-1.674-0.115-0.134-0.214-0.246-0.218-0.243-0.003 0-0.301 0.259-0.662 0.576z"></path>
</svg>
