<!-- Generated by IcoMoon.io -->
<svg version="1.1" xmlns="http://www.w3.org/2000/svg" width="32" height="32" viewBox="0 0 32 32">
<title>volume_low</title>
<path fill="#ff7900" d="M16.8 4.707c-0.413 0.371-0.851 0.762-0.976 0.87-0.122 0.109-0.374 0.333-0.56 0.499-0.426 0.381-0.448 0.4-1.12 0.995-0.307 0.272-0.566 0.502-0.576 0.512s-0.218 0.195-0.464 0.413c-0.246 0.221-0.557 0.493-0.688 0.611-0.198 0.179-1.466 1.302-1.898 1.686l-0.118 0.106h-3.658c-2.49 0-3.718 0.010-3.85 0.035-0.614 0.112-1.142 0.64-1.261 1.261-0.026 0.141-0.032 1.357-0.026 4.432l0.010 4.24 0.070 0.17c0.218 0.531 0.666 0.918 1.187 1.027 0.118 0.026 1.286 0.035 3.853 0.035h3.68l0.278 0.25c0.15 0.134 0.282 0.253 0.291 0.262s0.275 0.246 0.592 0.528c0.723 0.64 0.672 0.595 1.267 1.123 0.272 0.246 0.934 0.832 1.472 1.309 0.534 0.474 1.024 0.909 1.085 0.963 0.061 0.058 0.582 0.522 1.162 1.034l1.046 0.934v-11.987c0-6.592-0.010-11.984-0.022-11.981-0.016 0-0.365 0.304-0.778 0.672z"></path>
<path fill="#ff7900" d="M20 12.195c-0.362 0.317-0.749 0.659-0.861 0.758s-0.214 0.186-0.23 0.192c-0.058 0.022-0.026 0.090 0.118 0.246 0.192 0.208 0.403 0.531 0.557 0.842 0.701 1.414 0.483 3.181-0.531 4.349-0.16 0.182-0.208 0.266-0.147 0.266 0.013 0 0.090 0.064 0.17 0.138s0.246 0.221 0.368 0.326c0.506 0.442 1.059 0.928 1.136 0.998l0.086 0.080 0.214-0.253c0.736-0.861 1.245-1.962 1.443-3.139 0.070-0.419 0.083-1.325 0.026-1.792-0.122-0.966-0.477-1.92-1.014-2.733-0.189-0.285-0.643-0.864-0.672-0.854-0.003 0-0.301 0.259-0.662 0.576z"></path>
</svg>
