<!-- Generated by IcoMoon.io -->
<svg version="1.1" xmlns="http://www.w3.org/2000/svg" width="32" height="32" viewBox="0 0 32 32">
<title>vowifi</title>
<path fill="#ff7900" d="M15.293 2.413c-0.006 0.006-0.176 0.019-0.374 0.032s-0.378 0.029-0.4 0.035c-0.022 0.006-0.118 0.019-0.214 0.032-0.522 0.054-1.398 0.23-1.952 0.387-2.595 0.739-4.864 2.182-6.637 4.221-0.477 0.55-1.178 1.533-1.459 2.048-0.058 0.106-0.115 0.205-0.128 0.224-0.016 0.016-0.141 0.262-0.282 0.544-2.045 4.096-1.888 8.957 0.416 12.906 0.819 1.402 1.984 2.758 3.219 3.744 0.39 0.31 1.504 1.094 1.555 1.094 0.006 0 0.138 0.074 0.294 0.163 0.845 0.486 1.866 0.915 2.886 1.213 0.57 0.166 1.405 0.352 1.798 0.397 0.080 0.010 0.202 0.026 0.275 0.035 0.493 0.074 1.040 0.102 1.837 0.096 0.483-0.006 0.954-0.019 1.040-0.029 0.090-0.010 0.218-0.026 0.288-0.035 0.070-0.006 0.214-0.022 0.32-0.035 0.707-0.074 1.802-0.33 2.64-0.618 1.971-0.672 3.718-1.763 5.2-3.248 1.75-1.75 2.944-3.827 3.565-6.198 0.090-0.342 0.227-1.014 0.278-1.341 0.010-0.080 0.026-0.166 0.029-0.192s0.019-0.15 0.032-0.272c0.013-0.125 0.026-0.269 0.032-0.32 0.058-0.47 0.077-1.766 0.035-2.224-0.038-0.438-0.054-0.57-0.099-0.912-0.115-0.864-0.272-1.542-0.55-2.4-0.154-0.467-0.419-1.152-0.57-1.456-0.048-0.096-0.131-0.269-0.186-0.384-0.813-1.677-2.202-3.379-3.782-4.627-1.44-1.136-3.178-1.994-4.992-2.461-0.694-0.179-1.258-0.278-2.208-0.387-0.173-0.019-1.888-0.048-1.907-0.032zM16.736 5.456c0.15 0.010 0.317 0.026 0.368 0.032 0.499 0.067 0.65 0.093 0.928 0.147 2.525 0.506 4.794 1.946 6.371 4.045 1.245 1.658 1.997 3.782 2.067 5.856l0.010 0.256-0.714 0.006c-0.522 0.003-0.71-0.006-0.714-0.032-0.010-0.109-0.022-0.262-0.042-0.55-0.045-0.707-0.253-1.658-0.528-2.39-0.48-1.283-1.155-2.333-2.112-3.29-1.069-1.069-2.314-1.824-3.718-2.259-0.685-0.211-1.674-0.387-2.253-0.4-0.323-0.006-0.298 0.061-0.298-0.726 0-0.381 0.003-0.701 0.010-0.71 0.013-0.019 0.246-0.013 0.624 0.016zM16.64 8.336c0.627 0.048 1.472 0.25 2.128 0.506 0.614 0.237 1.43 0.714 1.984 1.158 0.298 0.237 0.806 0.739 1.069 1.056 0.742 0.89 1.27 1.92 1.552 3.040 0.131 0.525 0.182 0.867 0.227 1.494l0.013 0.214h-0.717c-0.659 0-0.72-0.003-0.723-0.054-0.003-0.061-0.022-0.269-0.042-0.47-0.259-2.451-2.048-4.592-4.416-5.277-0.413-0.122-0.854-0.205-1.203-0.23-0.166-0.013-0.326-0.026-0.352-0.029-0.042-0.006-0.048-0.112-0.054-0.707-0.003-0.477 0.006-0.707 0.029-0.72 0.019-0.013 0.080-0.019 0.134-0.013s0.221 0.019 0.371 0.032zM16.512 11.216c0.515 0.051 1.21 0.272 1.722 0.55 0.582 0.314 1.258 0.918 1.629 1.456 0.483 0.698 0.816 1.632 0.848 2.378l0.010 0.192-0.71 0.006c-0.394 0.003-0.714-0.003-0.717-0.016 0-0.013-0.006-0.045-0.010-0.070-0.006-0.026-0.019-0.134-0.032-0.24-0.086-0.778-0.634-1.693-1.299-2.179-0.506-0.368-1.098-0.602-1.696-0.666-0.080-0.010-0.147-0.016-0.147-0.016-0.013-0.006-0.003-1.398 0.006-1.418 0.006-0.010 0.051-0.016 0.102-0.010 0.048 0.006 0.179 0.019 0.294 0.032zM7.939 13.606c0.102 0.035 0.237 0.122 0.406 0.266 0.192 0.16 1.254 1.469 1.533 1.882 0.33 0.493 0.346 0.794 0.061 1.174-0.048 0.061-0.285 0.317-0.531 0.563-0.246 0.25-0.461 0.49-0.48 0.538-0.157 0.413 0.192 1.107 1.053 2.115 0.282 0.326 1.338 1.405 1.667 1.696 0.781 0.691 1.354 1.085 1.798 1.229 0.163 0.054 0.403 0.067 0.512 0.029 0.048-0.019 0.301-0.24 0.56-0.493 0.995-0.976 1.123-0.976 2.362 0 1.184 0.931 1.552 1.312 1.552 1.594 0 0.141-0.093 0.349-0.234 0.534-0.074 0.096-0.422 0.464-0.774 0.816-0.528 0.528-0.669 0.653-0.832 0.726-0.96 0.448-2.858-0.096-4.784-1.363-2.538-1.67-4.947-4.48-5.824-6.784-0.278-0.733-0.384-1.187-0.403-1.744-0.022-0.714 0.083-0.982 0.595-1.514 0.918-0.95 1.101-1.123 1.328-1.226 0.179-0.086 0.278-0.093 0.435-0.038zM16.461 14.253c0.461 0.141 0.854 0.48 1.075 0.925 0.157 0.323 0.205 0.563 0.179 0.918-0.032 0.486-0.224 0.886-0.573 1.2-0.346 0.314-0.736 0.464-1.206 0.464-0.509 0-0.906-0.166-1.261-0.525-0.979-0.982-0.55-2.602 0.79-2.995 0.25-0.074 0.726-0.067 0.995 0.013z"></path>
</svg>
