<!-- Generated by IcoMoon.io -->
<svg version="1.1" xmlns="http://www.w3.org/2000/svg" width="32" height="32" viewBox="0 0 32 32">
<title>vvm_message_read_full</title>
<path fill="#ff7900" d="M7.664 5.638c-0.595 0.112-1.126 0.662-1.232 1.274-0.026 0.144-0.032 1.027-0.026 2.912l0.010 2.704 0.086 0.221c0.051 0.118 0.138 0.285 0.198 0.368 0.173 0.23 8.227 8.227 8.426 8.362 0.387 0.266 0.966 0.336 1.395 0.173 0.122-0.045 0.288-0.128 0.374-0.186s1.29-1.232 2.678-2.605c1.386-1.376 3.245-3.216 4.131-4.093 1.501-1.488 1.616-1.61 1.718-1.821 0.061-0.125 0.125-0.32 0.144-0.435 0.019-0.131 0.032-1.213 0.029-2.88v-2.672l-0.074-0.23c-0.042-0.128-0.122-0.304-0.179-0.394-0.218-0.339-0.624-0.618-1.018-0.701-0.218-0.045-16.422-0.045-16.662 0.003zM21.923 7.274c0.605 0.301 0.605 1.152 0 1.453-0.109 0.054-0.4 0.058-5.923 0.058-5.597 0-5.811-0.003-5.926-0.061-0.278-0.138-0.454-0.41-0.451-0.707 0-0.371 0.221-0.682 0.554-0.778 0.074-0.022 2.115-0.032 5.872-0.029 5.472 0.006 5.766 0.010 5.875 0.064zM17.104 10.477c0.189 0.090 0.346 0.243 0.416 0.413 0.064 0.157 0.067 0.458 0.006 0.605-0.074 0.173-0.262 0.362-0.438 0.438l-0.16 0.067-3.366-0.006c-3.197-0.010-3.376-0.013-3.488-0.067-0.512-0.256-0.611-0.912-0.198-1.312 0.227-0.221 0.054-0.211 3.741-0.211l3.328-0.003 0.16 0.077z"></path>
<path fill="#ff7900" d="M4 18.886c0 6.653-0.013 6.234 0.182 6.643 0.102 0.221 0.435 0.56 0.672 0.688 0.362 0.192-0.432 0.182 11.875 0.182h11.27v-13.606l-0.109 0.106c-0.173 0.176-2.282 2.237-2.618 2.56-0.17 0.166-0.566 0.554-0.88 0.861-0.72 0.701-2.72 2.656-3.050 2.976-0.355 0.346-2.374 2.314-3.075 3.002-0.656 0.643-0.835 0.79-1.149 0.947-0.4 0.205-0.723 0.278-1.19 0.278-0.4-0.003-0.752-0.086-1.13-0.272-0.432-0.214-0.038 0.157-4.125-3.875-0.928-0.915-1.93-1.901-2.227-2.192-0.682-0.669-4.090-4.029-4.294-4.237l-0.154-0.154v6.093z"></path>
</svg>
