<!-- Generated by IcoMoon.io -->
<svg version="1.1" xmlns="http://www.w3.org/2000/svg" width="32" height="32" viewBox="0 0 32 32">
<title>Warningimportant</title>
<path fill="#ff7900" d="M15.578 5.088c-0.611 0.096-1.267 0.477-1.642 0.954-0.125 0.157-0.538 0.829-0.81 1.318-0.042 0.080-0.090 0.157-0.102 0.176-0.013 0.016-0.157 0.262-0.32 0.544-0.352 0.608-0.448 0.771-0.672 1.152-0.090 0.157-0.195 0.339-0.23 0.4-0.058 0.096-0.422 0.726-0.858 1.472-0.067 0.115-0.208 0.355-0.317 0.538-0.106 0.179-0.224 0.381-0.259 0.448-0.035 0.064-0.080 0.141-0.096 0.166-0.029 0.042-0.438 0.746-0.608 1.040-0.029 0.051-0.432 0.742-0.896 1.536-0.464 0.79-0.944 1.619-1.072 1.84-0.298 0.512-1.824 3.133-2.192 3.76-0.554 0.944-1.178 2.019-1.245 2.15-0.141 0.282-0.234 0.678-0.246 1.066-0.006 0.202 0.003 0.438 0.019 0.528 0.051 0.262 0.186 0.64 0.307 0.854 0.102 0.182 0.4 0.57 0.502 0.65 0.374 0.307 0.614 0.451 0.922 0.56 0.467 0.163-0.051 0.157 10.192 0.157 10.336 0.003 9.856 0.010 10.291-0.16 0.461-0.176 0.861-0.464 1.146-0.819 0.624-0.774 0.774-1.782 0.406-2.698-0.042-0.099-0.49-0.893-0.998-1.763-0.506-0.87-0.966-1.661-1.024-1.757-0.205-0.352-0.698-1.203-1.584-2.72-0.499-0.854-1.085-1.862-1.306-2.24-0.528-0.906-0.557-0.96-0.886-1.52-0.154-0.266-0.323-0.56-0.378-0.656-0.051-0.096-0.112-0.198-0.134-0.224-0.019-0.026-0.074-0.112-0.118-0.192-0.077-0.138-0.698-1.21-1.050-1.808-0.093-0.16-0.195-0.336-0.227-0.394-0.035-0.054-0.086-0.15-0.122-0.208-0.032-0.054-0.131-0.224-0.218-0.374-0.275-0.467-0.941-1.61-1.008-1.728-0.496-0.861-0.669-1.12-0.893-1.331-0.326-0.304-0.634-0.483-1.069-0.627-0.234-0.077-0.358-0.096-0.656-0.106-0.202-0.006-0.451 0-0.55 0.016zM16.294 8.835c0.573 0.118 1.037 0.582 1.178 1.174 0.035 0.154 0.029 0.691-0.016 1.142-0.006 0.070-0.022 0.301-0.032 0.512s-0.026 0.47-0.032 0.576c-0.010 0.106-0.022 0.336-0.032 0.512s-0.026 0.406-0.032 0.512c-0.006 0.106-0.022 0.336-0.032 0.512-0.038 0.634-0.048 0.803-0.064 1.056-0.022 0.371-0.045 0.73-0.064 1.056-0.022 0.432-0.048 0.806-0.064 1.056-0.010 0.122-0.022 0.352-0.032 0.512-0.010 0.157-0.022 0.387-0.032 0.512-0.010 0.122-0.022 0.368-0.035 0.544-0.022 0.413-0.064 0.547-0.211 0.691-0.368 0.355-1.338 0.333-1.661-0.042-0.112-0.128-0.15-0.269-0.17-0.634-0.022-0.352-0.042-0.675-0.067-1.040-0.010-0.141-0.022-0.4-0.032-0.576s-0.022-0.384-0.029-0.464c-0.010-0.080-0.022-0.317-0.032-0.528-0.013-0.211-0.029-0.47-0.035-0.576-0.010-0.106-0.022-0.336-0.032-0.512s-0.026-0.429-0.032-0.56c-0.029-0.432-0.045-0.714-0.061-1.008-0.026-0.4-0.054-0.874-0.067-1.008-0.006-0.061-0.019-0.33-0.032-0.592-0.013-0.266-0.029-0.486-0.032-0.499-0.032-0.048-0.042-1.053-0.016-1.174 0.186-0.797 0.998-1.322 1.798-1.155zM16.349 21.008c0.675 0.179 1.155 0.79 1.155 1.472-0.003 1.034-1.046 1.773-2.019 1.43-0.451-0.157-0.746-0.458-0.954-0.979-0.061-0.147-0.080-0.531-0.035-0.739 0.17-0.845 1.040-1.402 1.853-1.184z"></path>
</svg>
