<!-- Generated by IcoMoon.io -->
<svg version="1.1" xmlns="http://www.w3.org/2000/svg" width="32" height="32" viewBox="0 0 32 32">
<title>Warning_important</title>
<path fill="#ff7900" d="M15.2 2.41c-0.010 0.006-0.16 0.022-0.336 0.035-0.176 0.010-0.355 0.026-0.4 0.032s-0.15 0.022-0.24 0.035c-0.275 0.035-0.762 0.112-0.896 0.144-0.070 0.016-0.237 0.054-0.368 0.083-1.808 0.4-3.77 1.322-5.232 2.461-1.158 0.902-2.106 1.891-2.915 3.056-0.896 1.283-1.597 2.8-1.994 4.32-0.122 0.47-0.275 1.245-0.32 1.616-0.019 0.157-0.042 0.346-0.051 0.416-0.083 0.678-0.083 2.186 0 2.854 0.144 1.171 0.307 1.907 0.637 2.906 0.275 0.826 0.723 1.824 1.107 2.467 0.070 0.122 0.141 0.24 0.154 0.259 0.099 0.17 0.378 0.592 0.56 0.848 1.642 2.304 4.013 4.080 6.666 4.989 0.694 0.237 1.805 0.509 2.429 0.592 0.090 0.013 0.189 0.026 0.224 0.032 0.032 0.006 0.157 0.022 0.272 0.032 0.115 0.013 0.253 0.029 0.304 0.035 0.243 0.035 2.074 0.032 2.448-0.006 0.861-0.086 1.261-0.154 2.032-0.342 3.45-0.842 6.461-3.037 8.339-6.074 1.158-1.872 1.862-4.054 2.003-6.224 0.042-0.653 0.022-1.981-0.038-2.358-0.006-0.038-0.035-0.262-0.064-0.49-0.262-2.042-1.12-4.205-2.358-5.958-0.179-0.256-0.256-0.355-0.579-0.762-0.413-0.515-1.126-1.248-1.693-1.734-1.763-1.514-3.891-2.55-6.186-3.014-0.176-0.035-0.378-0.074-0.445-0.083s-0.154-0.022-0.192-0.032c-0.038-0.006-0.138-0.022-0.227-0.032-0.086-0.010-0.218-0.026-0.288-0.035s-0.186-0.022-0.256-0.032c-0.173-0.019-2.077-0.051-2.096-0.035zM16.563 7.136c0.381 0.125 0.723 0.384 0.922 0.701 0.195 0.31 0.333 0.848 0.32 1.267-0.003 0.211-0.045 0.928-0.061 1.104-0.003 0.061-0.019 0.24-0.029 0.4-0.022 0.301-0.042 0.573-0.067 0.896-0.010 0.106-0.022 0.301-0.032 0.432-0.038 0.557-0.051 0.694-0.064 0.832-0.006 0.080-0.022 0.253-0.032 0.384-0.032 0.432-0.045 0.589-0.077 0.96-0.019 0.202-0.042 0.483-0.051 0.624s-0.022 0.32-0.032 0.4c-0.006 0.080-0.022 0.23-0.032 0.336s-0.022 0.256-0.032 0.336c-0.006 0.080-0.022 0.259-0.032 0.4s-0.026 0.314-0.032 0.384c-0.010 0.070-0.022 0.214-0.032 0.32-0.042 0.454-0.064 0.685-0.112 1.088-0.019 0.157-0.042 0.358-0.051 0.448-0.032 0.291-0.077 0.442-0.173 0.57-0.182 0.25-0.429 0.362-0.816 0.371-0.426 0.010-0.704-0.115-0.893-0.397-0.090-0.131-0.115-0.211-0.144-0.448-0.022-0.16-0.045-0.323-0.051-0.368s-0.029-0.253-0.048-0.464c-0.032-0.365-0.051-0.554-0.080-0.768-0.006-0.054-0.022-0.211-0.032-0.352s-0.026-0.314-0.032-0.384c-0.026-0.234-0.045-0.477-0.064-0.736-0.010-0.141-0.026-0.301-0.032-0.352-0.006-0.054-0.022-0.24-0.032-0.416-0.013-0.176-0.029-0.355-0.032-0.4-0.006-0.045-0.019-0.211-0.032-0.368-0.010-0.16-0.026-0.333-0.032-0.384-0.006-0.054-0.022-0.227-0.032-0.384-0.010-0.16-0.026-0.352-0.032-0.432-0.013-0.134-0.032-0.39-0.064-0.8-0.006-0.096-0.022-0.291-0.032-0.432-0.022-0.298-0.042-0.554-0.064-0.848-0.006-0.115-0.022-0.317-0.032-0.448-0.006-0.131-0.022-0.362-0.035-0.512-0.080-1.021 0.061-1.638 0.477-2.090 0.458-0.493 1.194-0.682 1.834-0.47zM16.579 21.558c0.598 0.205 1.072 0.73 1.194 1.322 0.070 0.349 0.029 0.79-0.099 1.104-0.182 0.435-0.624 0.819-1.114 0.966-0.288 0.086-0.858 0.077-1.136-0.019-0.387-0.134-0.758-0.413-0.944-0.707-0.298-0.47-0.336-1.235-0.090-1.747 0.237-0.49 0.707-0.858 1.242-0.973 0.211-0.048 0.746-0.016 0.947 0.054z"></path>
</svg>
