<!-- Generated by IcoMoon.io -->
<svg version="1.1" xmlns="http://www.w3.org/2000/svg" width="32" height="32" viewBox="0 0 32 32">
<title>web_fax_widget</title>
<path fill="#ff7900" d="M7.2 10.397v4.8l-3.568 0.019-0.176 0.080c-0.528 0.23-0.877 0.621-1.011 1.13-0.035 0.138-0.045 0.906-0.045 4.358 0 4.586-0.010 4.358 0.186 4.752 0.192 0.387 0.675 0.749 1.11 0.829 0.134 0.026 3.725 0.035 12.346 0.035 10.989 0 12.176-0.006 12.355-0.051 0.422-0.109 0.784-0.39 0.998-0.771 0.211-0.374 0.205-0.198 0.205-4.781 0-2.675-0.013-4.208-0.032-4.32-0.083-0.438-0.4-0.867-0.787-1.075-0.374-0.198-0.41-0.202-2.282-0.202h-1.699v-3.2l-6.381-6.4h-11.219v4.797zM17.6 9.29c0 1.933 0.003 2.109 0.061 2.317 0.15 0.582 0.653 1.053 1.232 1.158 0.125 0.022 0.909 0.035 2.25 0.035h2.058v3.2h-14.4v-8.8h8.8v2.090zM17.28 17.645c0.045 0.006 0.24 0.032 0.432 0.051 0.848 0.086 1.76 0.278 2.464 0.515 1.411 0.48 2.378 1.222 2.509 1.93 0.016 0.086 0.026 0.547 0.026 1.024-0.006 0.858-0.006 0.87-0.086 1.027-0.064 0.128-0.112 0.176-0.237 0.237-0.141 0.070-0.198 0.080-0.528 0.077-0.205-0.003-0.573-0.026-0.819-0.054s-0.518-0.061-0.608-0.070c-0.298-0.032-0.704-0.112-0.829-0.16-0.195-0.077-0.294-0.16-0.362-0.307-0.090-0.189-0.106-0.339-0.109-0.97-0.003-0.573-0.019-0.646-0.166-0.787s-0.541-0.294-0.918-0.362c-0.061-0.010-0.147-0.026-0.192-0.035-0.099-0.022-0.314-0.045-0.704-0.077-0.317-0.029-2.259-0.022-2.4 0.006-0.045 0.010-0.179 0.026-0.304 0.038-0.765 0.074-1.325 0.275-1.485 0.541-0.051 0.086-0.061 0.186-0.077 0.755-0.010 0.362-0.032 0.71-0.054 0.778-0.106 0.355-0.435 0.496-1.405 0.598-0.182 0.019-0.378 0.042-0.432 0.048-0.256 0.035-0.73 0.064-0.95 0.061-0.406-0.006-0.55-0.086-0.656-0.365-0.083-0.224-0.106-1.834-0.029-2.099 0.285-0.982 2.192-1.958 4.454-2.282 0.675-0.096 0.672-0.096 1.066-0.118 0.202-0.013 0.374-0.026 0.381-0.032 0.019-0.016 1.926 0.013 2.019 0.032zM16.374 23.29c0.15 0.077 0.32 0.259 0.384 0.419 0.061 0.147 0.064 0.438 0.003 0.582-0.173 0.403-0.653 0.611-1.037 0.448-0.422-0.182-0.608-0.618-0.445-1.046 0.064-0.17 0.32-0.41 0.486-0.458 0.173-0.048 0.458-0.022 0.608 0.054z"></path>
</svg>
