<!-- Generated by IcoMoon.io -->
<svg version="1.1" xmlns="http://www.w3.org/2000/svg" width="32" height="32" viewBox="0 0 32 32">
<title>web_cam</title>
<path fill="#ff7900" d="M15.357 4.813c-0.006 0.006-0.128 0.019-0.269 0.032-1.747 0.147-3.478 0.826-4.95 1.946-0.694 0.525-1.59 1.472-2.070 2.179-0.886 1.318-1.376 2.605-1.616 4.278-0.029 0.179-0.064 0.886-0.064 1.2 0.003 0.294 0.045 1.043 0.061 1.072 0.003 0.010 0.019 0.102 0.029 0.208 0.051 0.442 0.218 1.155 0.403 1.709 1.043 3.142 3.664 5.539 6.906 6.307 0.39 0.093 0.992 0.189 1.35 0.218 0.397 0.029 1.341 0.029 1.731-0.003 1.616-0.125 3.405-0.8 4.765-1.798 0.816-0.598 1.712-1.514 2.246-2.298 0.49-0.717 0.925-1.578 1.2-2.374 0.214-0.624 0.419-1.619 0.477-2.336 0.026-0.298 0.026-1.328 0-1.507-0.010-0.070-0.026-0.218-0.035-0.333-0.051-0.518-0.224-1.325-0.41-1.888-0.275-0.829-0.531-1.363-1.094-2.285-0.23-0.374-0.701-0.957-1.152-1.424-1.466-1.514-3.414-2.515-5.456-2.803-0.202-0.029-0.403-0.061-0.448-0.070-0.086-0.016-1.587-0.045-1.603-0.029zM16.768 10.477c1.549 0.336 2.714 1.456 3.098 2.979 0.218 0.861 0.118 1.834-0.278 2.678-0.346 0.736-1.066 1.472-1.811 1.843-0.259 0.128-0.682 0.275-0.992 0.342-0.298 0.064-1.059 0.090-1.344 0.045-0.886-0.138-1.571-0.477-2.269-1.117-0.304-0.278-0.746-0.957-0.928-1.424-0.39-1.002-0.33-2.208 0.163-3.2 0.579-1.158 1.654-1.952 2.954-2.176 0.317-0.054 1.094-0.038 1.408 0.029z"></path>
<path fill="#ff7900" d="M15.6 12.029l-0.128 0.019 0.096 0.054c0.448 0.25 0.55 0.87 0.198 1.235-0.31 0.326-0.784 0.342-1.12 0.042-0.17-0.154-0.253-0.346-0.253-0.592v-0.195l-0.176 0.189c-0.835 0.915-0.842 2.298-0.010 3.229 0.717 0.8 1.923 1.014 2.88 0.515 1.034-0.541 1.523-1.725 1.181-2.851-0.227-0.749-0.886-1.376-1.677-1.597-0.202-0.054-0.765-0.083-0.992-0.048z"></path>
<path fill="#ff7900" d="M9.040 22.79c-0.294 0.362-0.355 0.435-1.619 1.978-0.397 0.483-0.746 0.918-0.778 0.966-0.138 0.211-0.192 0.71-0.112 1.037 0.096 0.406 0.429 0.838 0.787 1.030 0.406 0.214-0.262 0.198 8.666 0.198 7.274 0 8.106-0.006 8.285-0.051 0.701-0.179 1.197-0.806 1.21-1.526 0.003-0.23-0.054-0.509-0.134-0.653-0.032-0.054-0.445-0.57-0.918-1.146-0.81-0.989-1.034-1.261-1.558-1.907-0.118-0.147-0.23-0.272-0.246-0.278-0.013-0.006-0.125 0.067-0.243 0.163-1.411 1.12-3.2 1.862-5.098 2.118-0.726 0.099-2.109 0.083-2.832-0.032-1.76-0.275-3.328-0.938-4.73-1.994-0.192-0.144-0.358-0.262-0.368-0.259-0.013 0-0.15 0.16-0.31 0.355z"></path>
</svg>
