<!-- Generated by IcoMoon.io -->
<svg version="1.1" xmlns="http://www.w3.org/2000/svg" width="32" height="32" viewBox="0 0 32 32">
<title>Wholesale_retail</title>
<path fill="#ff7900" d="M13.76 5.776c-1.222 0.538-2.483 1.088-2.8 1.229s-1.088 0.477-1.712 0.749c-0.624 0.272-1.389 0.608-1.696 0.742s-0.717 0.317-0.912 0.4c-1.494 0.653-3.162 1.382-3.29 1.44l-0.15 0.067v17.597h4.8v-8h16v8h4.8l-0.006-8.803-0.010-8.806-0.24-0.102c-0.131-0.058-1.514-0.662-3.072-1.347-1.558-0.682-2.941-1.283-3.072-1.341s-0.701-0.304-1.264-0.55c-0.563-0.25-1.117-0.49-1.229-0.538-0.109-0.045-0.224-0.096-0.256-0.112-0.058-0.035-3.645-1.6-3.658-1.6-0.006 0.003-1.011 0.442-2.234 0.976zM24 14.4v1.6h-16v-3.2h16v1.6z"></path>
<path fill="#ff7900" d="M8.8 22.4v1.6h3.2v-3.2h-3.2v1.6z"></path>
<path fill="#ff7900" d="M12.8 22.4v1.6h3.2v-3.2h-3.2v1.6z"></path>
<path fill="#ff7900" d="M8.8 26.4v1.6h3.2v-3.2h-3.2v1.6z"></path>
<path fill="#ff7900" d="M12.8 26.4v1.6h3.2v-3.2h-3.2v1.6z"></path>
<path fill="#ff7900" d="M16.8 26.4v1.6h3.2v-3.2h-3.2v1.6z"></path>
</svg>
