<!-- Generated by IcoMoon.io -->
<svg version="1.1" xmlns="http://www.w3.org/2000/svg" width="32" height="32" viewBox="0 0 32 32">
<title>Widget</title>
<path fill="#ff7900" d="M9.082 4.016c-0.006 0.006-0.090 0.019-0.186 0.029-0.618 0.074-1.216 0.259-1.84 0.573-1.373 0.688-2.419 1.965-2.845 3.462-0.134 0.48-0.186 0.832-0.195 1.408-0.010 0.474 0.003 0.688 0.061 1.040 0.339 1.987 1.728 3.651 3.629 4.342 0.17 0.061 0.442 0.141 0.598 0.176 0.659 0.147 0.707 0.15 3.882 0.15l3.014 0.003-0.003-2.982c-0.003-2.912-0.013-3.306-0.106-3.722-0.067-0.294-0.099-0.41-0.186-0.672-0.656-2.006-2.451-3.488-4.573-3.773-0.269-0.035-1.219-0.061-1.251-0.035zM9.923 6.16c0.467 0.16 0.694 0.736 0.458 1.168-0.294 0.544-1.024 0.605-1.392 0.115-0.134-0.176-0.173-0.307-0.163-0.557 0.022-0.531 0.582-0.902 1.098-0.726zM10.406 10.79c0.010 2.096 0.013 2.256 0.067 2.355 0.070 0.131 0.211 0.218 0.394 0.246 0.131 0.019 0.141 0.029 0.141 0.115v0.093h-2.72v-0.090c0-0.083 0.013-0.096 0.163-0.128 0.090-0.022 0.205-0.067 0.253-0.102 0.176-0.125 0.176-0.141 0.176-2.192 0-1.757-0.003-1.898-0.058-2.042-0.067-0.173-0.16-0.237-0.39-0.269-0.138-0.016-0.144-0.022-0.144-0.125v-0.109h2.109l0.010 2.246z"></path>
<path fill="#ff7900" d="M21.664 4.048c-0.851 0.118-1.626 0.406-2.307 0.851-0.394 0.256-0.557 0.394-0.928 0.762-0.704 0.707-1.174 1.523-1.44 2.499-0.054 0.195-0.051 0.192-0.122 0.608-0.058 0.342-0.061 0.573-0.064 3.402l-0.003 3.034 3.11-0.013c1.712-0.003 3.142-0.019 3.178-0.029s0.138-0.029 0.224-0.038c0.371-0.054 1.037-0.262 1.44-0.454 1.43-0.678 2.534-1.955 2.97-3.437 0.195-0.669 0.246-1.053 0.23-1.744-0.019-0.72-0.077-1.075-0.291-1.712-0.317-0.938-0.963-1.872-1.722-2.493-1.034-0.845-2.243-1.277-3.571-1.274-0.237 0-0.554 0.016-0.704 0.038zM21.981 7.344c0.118 0.093 1.082 0.864 2.016 1.616 0.25 0.202 0.538 0.429 0.634 0.502l0.173 0.131-1.13 0.906c-0.621 0.496-1.174 0.941-1.229 0.986s-0.192 0.154-0.304 0.243c-0.112 0.086-0.234 0.186-0.269 0.214s-0.115 0.096-0.179 0.144c-0.064 0.048-0.259 0.205-0.432 0.346s-0.349 0.282-0.387 0.314l-0.074 0.058v-6.403l0.528 0.426c0.291 0.23 0.586 0.464 0.653 0.518z"></path>
<path fill="#ff7900" d="M9.181 16.813c-0.006 0.006-0.099 0.019-0.205 0.029-0.765 0.070-1.702 0.4-2.384 0.838-1.338 0.858-2.237 2.211-2.509 3.776-0.102 0.582-0.096 1.568 0.013 2 0.016 0.061 0.061 0.234 0.099 0.384 0.499 1.987 2.173 3.584 4.214 4.029 1.046 0.227 2.307 0.131 3.206-0.243 0.819-0.342 1.338-0.682 1.904-1.242 0.784-0.774 1.29-1.674 1.536-2.726 0.131-0.563 0.138-0.746 0.141-3.859l0.003-2.998h-3.002c-1.651 0-3.011 0.006-3.018 0.013zM10.4 19.306c0.547 0.141 1.021 0.41 1.421 0.803 0.294 0.288 0.47 0.531 0.643 0.88 0.25 0.502 0.339 0.931 0.32 1.539-0.045 1.472-1.091 2.701-2.56 3.008-0.314 0.064-0.934 0.067-1.251 0.003-0.451-0.090-0.989-0.342-1.357-0.637-0.547-0.435-0.931-1.024-1.11-1.696-0.074-0.269-0.083-0.378-0.083-0.806 0-0.435 0.010-0.534 0.080-0.8 0.31-1.146 1.19-2.016 2.33-2.304 0.336-0.083 0.381-0.086 0.848-0.077 0.32 0.006 0.486 0.026 0.72 0.086z"></path>
<path fill="#ff7900" d="M9.373 20.074c-0.189 0.128-0.189 0.112-0.189 1.526 0 1.229 0.003 1.302 0.064 1.398 0.118 0.195 0.157 0.202 1.146 0.202 0.877 0 0.896 0 1.002-0.074 0.192-0.128 0.243-0.336 0.125-0.525-0.112-0.186-0.182-0.202-0.896-0.202h-0.64v-1.050c0-0.982-0.003-1.053-0.064-1.149-0.122-0.202-0.358-0.256-0.547-0.128z"></path>
<path fill="#ff7900" d="M16.803 19.782c0 1.642 0.016 3.101 0.032 3.242 0.211 1.872 1.376 3.542 3.053 4.378 0.861 0.429 1.658 0.605 2.64 0.582 0.794-0.016 1.395-0.144 2.080-0.442 2.56-1.11 3.904-3.875 3.203-6.582-0.246-0.957-0.742-1.802-1.491-2.544-0.893-0.886-2.016-1.427-3.28-1.581-0.131-0.016-1.59-0.032-3.242-0.032l-2.998-0.003 0.003 2.982zM22.88 19.251c0.31 0.064 0.557 0.166 0.816 0.336 0.749 0.486 1.152 1.296 1.094 2.189-0.035 0.522-0.147 0.813-0.557 1.462-0.682 1.078-0.822 1.315-1.178 1.962-0.067 0.122-0.147 0.266-0.176 0.32-0.029 0.051-0.144 0.266-0.256 0.47-0.112 0.208-0.211 0.378-0.224 0.378-0.010 0-0.090-0.125-0.176-0.282-0.083-0.154-0.25-0.445-0.368-0.646s-0.25-0.432-0.294-0.512c-0.205-0.371-0.525-0.925-0.723-1.254-0.662-1.098-0.87-1.658-0.829-2.234 0.109-1.456 1.453-2.48 2.87-2.189z"></path>
<path fill="#ff7900" d="M22.026 20.048c-0.685 0.15-1.226 0.832-1.226 1.552 0 0.861 0.739 1.6 1.6 1.6 0.867 0 1.603-0.739 1.6-1.61-0.003-0.586-0.378-1.174-0.906-1.424-0.355-0.166-0.678-0.202-1.069-0.118z"></path>
</svg>
