<!-- Generated by IcoMoon.io -->
<svg version="1.1" xmlns="http://www.w3.org/2000/svg" width="32" height="32" viewBox="0 0 32 32">
<title>widget_tour</title>
<path fill="#ff7900" d="M2.4 15.28c0 6.941 0.010 9.725 0.035 9.846 0.122 0.582 0.592 1.069 1.184 1.226 0.259 0.070 24.502 0.070 24.762 0 0.528-0.141 0.934-0.509 1.13-1.027l0.074-0.189 0.010-9.77 0.006-9.766-5.814 0.010c-5.517 0.006-5.827 0.010-6.010 0.067-0.941 0.285-1.638 1.078-1.75 1.987-0.016 0.115-0.032 0.077-0.099-0.227-0.128-0.566-0.512-1.114-1.014-1.44-0.288-0.186-0.467-0.262-0.8-0.336-0.262-0.058-0.499-0.061-5.99-0.061h-5.722v9.68zM9.709 10.189c0.579 0.285 0.835 0.982 0.57 1.562-0.355 0.774-1.389 0.947-1.958 0.323-0.243-0.266-0.301-0.416-0.304-0.794 0-0.301 0.006-0.336 0.106-0.534 0.166-0.336 0.506-0.602 0.851-0.659 0.214-0.038 0.541 0.006 0.736 0.102zM26.666 11.245c0.176 0.064 0.323 0.189 0.426 0.362 0.080 0.134 0.093 0.186 0.093 0.394 0 0.205-0.016 0.266-0.086 0.387-0.048 0.080-0.138 0.186-0.205 0.237-0.24 0.182-0.093 0.176-4.093 0.176-4.163 0-3.91 0.016-4.16-0.243-0.144-0.147-0.24-0.365-0.24-0.541 0-0.355 0.266-0.707 0.589-0.784 0.054-0.016 1.776-0.026 3.827-0.029 3.037 0 3.75 0.006 3.85 0.042zM10.4 16.614c0.003 3.024 0.003 3.139 0.070 3.43 0.061 0.272 0.294 0.451 0.627 0.474 0.099 0.006 0.102 0.013 0.102 0.144v0.138h-4v-0.125c0-0.138 0.006-0.141 0.246-0.179 0.074-0.013 0.198-0.064 0.282-0.115 0.275-0.173 0.256 0.045 0.256-3.181 0-1.568-0.010-2.886-0.022-2.934-0.064-0.227-0.339-0.381-0.72-0.406-0.026-0.003-0.042-0.051-0.042-0.131v-0.128h3.2v3.014zM26.666 14.445c0.176 0.064 0.33 0.195 0.429 0.365 0.077 0.128 0.090 0.186 0.090 0.39s-0.016 0.266-0.090 0.39c-0.048 0.083-0.134 0.189-0.192 0.23-0.246 0.189-0.051 0.179-4.115 0.179-2.995-0.003-3.754-0.010-3.85-0.045-0.547-0.195-0.707-0.893-0.301-1.309 0.25-0.259-0.038-0.24 4.163-0.243 3.050 0 3.766 0.006 3.866 0.042zM26.637 17.645c0.198 0.061 0.342 0.176 0.454 0.362 0.080 0.134 0.093 0.186 0.093 0.394 0 0.205-0.016 0.266-0.090 0.39-0.048 0.083-0.134 0.189-0.192 0.23-0.246 0.189-0.051 0.179-4.099 0.179-4.182 0-3.91 0.016-4.163-0.24-0.144-0.144-0.24-0.368-0.24-0.563 0-0.33 0.253-0.669 0.57-0.765 0.048-0.016 1.757-0.029 3.802-0.029 3.117-0.003 3.738 0.003 3.866 0.042zM23.472 20.854c0.211 0.070 0.406 0.272 0.48 0.49 0.102 0.31-0.006 0.691-0.253 0.88-0.234 0.179-0.205 0.176-2.48 0.176-2.374 0-2.336 0.003-2.566-0.227-0.234-0.234-0.301-0.496-0.205-0.816 0.074-0.253 0.269-0.442 0.56-0.534 0.026-0.010 1.008-0.019 2.179-0.019 1.901-0.003 2.147 0.003 2.285 0.051z"></path>
</svg>
