<!-- Generated by IcoMoon.io -->
<svg version="1.1" xmlns="http://www.w3.org/2000/svg" width="32" height="32" viewBox="0 0 32 32">
<title>wifi_1</title>
<path fill="#ff7900" d="M14.97 15.472c-1.901 0.211-3.683 0.957-5.13 2.141-0.294 0.24-0.72 0.63-0.72 0.659 0 0.016 0.419 0.448 0.931 0.957l0.931 0.931 0.218-0.205c0.118-0.112 0.358-0.31 0.531-0.442 0.97-0.726 2.016-1.165 3.248-1.357 0.362-0.058 1.35-0.077 1.757-0.035 0.826 0.083 1.555 0.291 2.397 0.688 0.531 0.246 1.258 0.752 1.702 1.181l0.179 0.173 0.931-0.931c0.515-0.512 0.934-0.941 0.934-0.957 0-0.035-0.291-0.307-0.643-0.598-1.392-1.168-3.21-1.962-4.973-2.173-0.086-0.013-0.195-0.029-0.24-0.038-0.192-0.038-1.696-0.035-2.054 0.006z"></path>
<path fill="#ff7900" d="M15.568 20.822c-0.662 0.093-1.325 0.426-1.808 0.906-0.624 0.618-0.963 1.437-0.954 2.304 0.016 1.488 1.008 2.717 2.49 3.091 0.349 0.086 1.066 0.083 1.44-0.010 0.941-0.237 1.712-0.851 2.131-1.706 0.669-1.36 0.275-3.053-0.925-3.942-0.592-0.442-1.133-0.63-1.846-0.646-0.237-0.006-0.474-0.003-0.528 0.003z"></path>
</svg>
