<!-- Generated by IcoMoon.io -->
<svg version="1.1" xmlns="http://www.w3.org/2000/svg" width="32" height="32" viewBox="0 0 32 32">
<title>wifi_2</title>
<path fill="#ff7900" d="M15.51 10.099c-0.003 0.003-0.192 0.016-0.422 0.029-0.227 0.010-0.451 0.026-0.496 0.029-0.045 0.006-0.179 0.022-0.304 0.032-0.653 0.067-1.706 0.275-2.445 0.486-1.12 0.323-2 0.688-3.187 1.322-0.224 0.122-0.64 0.378-1.136 0.704-0.544 0.358-1.347 1.008-1.882 1.526l-0.301 0.288 0.934 0.934c0.813 0.813 0.944 0.931 0.986 0.896 0.029-0.022 0.154-0.138 0.278-0.253 0.195-0.186 0.298-0.278 0.618-0.544 0.038-0.035 0.211-0.17 0.384-0.298 1.923-1.453 4.266-2.32 6.662-2.47 0.33-0.019 1.51-0.019 1.638 0 0.058 0.010 0.214 0.026 0.346 0.035 0.416 0.032 1.059 0.131 1.536 0.24 2.186 0.49 4.243 1.594 5.866 3.149 0.106 0.099 0.192 0.179 0.198 0.179s0.429-0.419 0.944-0.934l0.931-0.931-0.186-0.192c-0.464-0.474-1.395-1.222-2.122-1.709-0.627-0.416-1.536-0.925-2.112-1.174-0.115-0.051-0.278-0.125-0.368-0.163-0.23-0.102-0.877-0.342-1.232-0.458-1.037-0.333-1.85-0.502-3.184-0.662-0.31-0.035-1.914-0.090-1.946-0.061z"></path>
<path fill="#ff7900" d="M14.97 15.472c-1.901 0.211-3.683 0.957-5.13 2.141-0.294 0.24-0.72 0.63-0.72 0.659 0 0.016 0.419 0.448 0.931 0.957l0.931 0.931 0.218-0.205c0.118-0.112 0.358-0.31 0.531-0.442 0.97-0.726 2.016-1.165 3.248-1.357 0.362-0.058 1.35-0.077 1.757-0.035 0.826 0.083 1.555 0.291 2.397 0.688 0.531 0.246 1.258 0.752 1.702 1.181l0.179 0.173 0.931-0.931c0.515-0.512 0.934-0.941 0.934-0.957 0-0.035-0.291-0.307-0.643-0.598-1.392-1.168-3.21-1.962-4.973-2.173-0.086-0.013-0.195-0.029-0.24-0.038-0.192-0.038-1.696-0.035-2.054 0.006z"></path>
<path fill="#ff7900" d="M15.568 20.822c-0.662 0.093-1.325 0.426-1.808 0.906-0.624 0.618-0.963 1.437-0.954 2.304 0.016 1.488 1.008 2.717 2.49 3.091 0.349 0.086 1.066 0.083 1.44-0.010 0.941-0.237 1.712-0.851 2.131-1.706 0.669-1.36 0.275-3.053-0.925-3.942-0.592-0.442-1.133-0.63-1.846-0.646-0.237-0.006-0.474-0.003-0.528 0.003z"></path>
</svg>
