<!-- Generated by IcoMoon.io -->
<svg version="1.1" xmlns="http://www.w3.org/2000/svg" width="32" height="32" viewBox="0 0 32 32">
<title>wifi</title>
<path fill="#ff7900" d="M15.069 4.781c-0.006 0.006-0.179 0.022-0.381 0.032-0.378 0.019-0.464 0.029-0.992 0.086-2.861 0.314-5.68 1.267-8.176 2.765-1.046 0.627-2.237 1.501-3.072 2.253-0.461 0.416-0.848 0.79-0.848 0.822 0 0.045 1.824 1.875 1.859 1.862 0.013-0.006 0.179-0.154 0.371-0.333 0.829-0.774 1.485-1.299 2.33-1.859 1.962-1.302 4.058-2.173 6.346-2.634 0.483-0.096 1.197-0.205 1.59-0.243 0.125-0.010 0.269-0.026 0.32-0.032 0.608-0.080 2.352-0.077 3.232 0.003 1.862 0.173 3.965 0.72 5.552 1.45 2.010 0.922 3.578 1.978 5.082 3.414l0.269 0.259 0.944-0.944 0.941-0.944-0.186-0.173c-0.102-0.096-0.272-0.256-0.378-0.355-1.018-0.966-2.41-1.987-3.766-2.765-0.458-0.262-1.808-0.95-1.869-0.95-0.010 0-0.134-0.051-0.278-0.115-0.56-0.246-1.661-0.637-2.374-0.842-0.522-0.15-1.68-0.413-2.048-0.467-0.070-0.010-0.15-0.022-0.176-0.032-0.026-0.006-0.118-0.019-0.208-0.032-0.086-0.010-0.246-0.032-0.352-0.048s-0.285-0.038-0.4-0.048c-0.115-0.010-0.237-0.026-0.272-0.032s-0.186-0.022-0.336-0.032c-0.15-0.013-0.323-0.029-0.384-0.038-0.138-0.019-2.32-0.048-2.339-0.029z"></path>
<path fill="#ff7900" d="M15.51 10.099c-0.003 0.003-0.214 0.016-0.47 0.029-0.253 0.013-0.47 0.026-0.48 0.032-0.010 0.003-0.125 0.019-0.256 0.029-0.131 0.013-0.464 0.058-0.736 0.102-1.747 0.288-3.344 0.842-4.896 1.699-0.835 0.464-1.706 1.069-2.442 1.696-0.301 0.259-0.467 0.413-0.845 0.774-0.032 0.032-0.035 0.051-0.006 0.086 0.019 0.026 0.438 0.448 0.931 0.944 0.781 0.784 0.902 0.89 0.947 0.854 0.061-0.048 0.093-0.077 0.362-0.33 0.112-0.109 0.285-0.259 0.381-0.336 0.096-0.080 0.182-0.154 0.192-0.163 0.038-0.045 0.682-0.515 0.944-0.691 1.664-1.107 3.792-1.862 5.68-2.013 0.15-0.013 0.323-0.026 0.384-0.032 0.186-0.016 1.555-0.016 1.638 0 0.038 0.010 0.189 0.026 0.33 0.035 0.618 0.045 1.453 0.195 2.144 0.387 1.91 0.528 3.795 1.587 5.171 2.906 0.131 0.128 0.259 0.243 0.278 0.253 0.019 0.013 0.429-0.371 0.966-0.909l0.931-0.934-0.186-0.189c-0.653-0.669-1.824-1.562-2.81-2.144-1.584-0.934-3.501-1.635-5.152-1.882-0.141-0.022-0.285-0.045-0.32-0.051-0.163-0.032-0.899-0.109-1.232-0.128-0.358-0.019-1.434-0.038-1.45-0.026z"></path>
<path fill="#ff7900" d="M14.97 15.472c-1.69 0.189-3.309 0.806-4.65 1.773-0.454 0.326-1.2 0.966-1.2 1.030 0 0.013 0.419 0.445 0.931 0.957l0.931 0.928 0.227-0.211c1.078-0.998 2.477-1.638 3.978-1.821 0.339-0.038 1.405-0.042 1.645 0 0.061 0.010 0.214 0.032 0.336 0.051 0.611 0.093 1.277 0.307 1.965 0.63 0.538 0.25 1.251 0.749 1.718 1.197l0.163 0.157 0.931-0.931c0.515-0.512 0.934-0.941 0.934-0.957 0-0.032-0.451-0.448-0.749-0.691-1.354-1.104-3.155-1.875-4.867-2.080-0.086-0.013-0.195-0.029-0.24-0.038-0.189-0.038-1.696-0.035-2.054 0.006z"></path>
<path fill="#ff7900" d="M15.6 20.819c-0.035 0.006-0.144 0.029-0.24 0.048-1.482 0.301-2.554 1.616-2.554 3.133-0.003 1.443 0.95 2.691 2.362 3.088 0.528 0.147 1.238 0.134 1.782-0.035 1.139-0.352 2.013-1.35 2.202-2.525 0.24-1.482-0.566-2.928-1.946-3.491-0.374-0.15-0.682-0.211-1.126-0.221-0.227-0.006-0.445-0.003-0.48 0.003z"></path>
</svg>
