<!-- Generated by IcoMoon.io -->
<svg version="1.1" xmlns="http://www.w3.org/2000/svg" width="32" height="32" viewBox="0 0 32 32">
<title>wps_pairing</title>
<path fill="#ff7900" d="M21.648 2.483c-1.184 0.16-2.173 0.525-3.184 1.171-0.378 0.243-0.896 0.47-1.395 0.618-0.157 0.045-0.602 0.138-0.989 0.208-1.136 0.208-2.214 0.586-3.539 1.248-2.63 1.312-4.64 3.216-5.773 5.469-0.48 0.957-0.874 2.176-1.037 3.203-0.077 0.496-0.096 0.64-0.115 0.88-0.010 0.141-0.026 0.342-0.035 0.448-0.019 0.23-0.019 1.51 0 1.712 0.051 0.531 0.054 0.608 0.013 0.611-0.022 0-0.070 0.006-0.106 0.013s-0.438 0.058-0.896 0.109c-0.458 0.054-1.011 0.122-1.232 0.147s-0.47 0.054-0.56 0.064c-0.192 0.022-0.349 0.048-0.358 0.058-0.042 0.042 0.41 1.635 0.64 2.262 0.71 1.936 1.52 3.322 2.554 4.371l0.285 0.291-0.045 0.221c-0.253 1.206 0.003 2.304 0.701 2.998 0.474 0.47 1.072 0.771 1.904 0.954 0.387 0.083 1.36 0.109 1.84 0.048 1.152-0.15 2.147-0.502 3.094-1.094 0.867-0.544 1.427-0.742 2.794-0.989 0.16-0.029 0.378-0.070 0.486-0.099 0.291-0.070 1.45-0.464 1.904-0.65 0.221-0.090 0.406-0.163 0.416-0.163s0.083 0.112 0.16 0.25c0.24 0.406 0.525 0.771 0.902 1.142 0.79 0.778 1.715 1.274 2.816 1.507 0.346 0.074 0.627 0.093 1.219 0.090 0.944-0.010 1.68-0.198 2.56-0.662 0.88-0.461 1.725-1.302 2.23-2.214 0.742-1.344 0.896-2.986 0.419-4.448-0.464-1.427-1.546-2.659-2.893-3.296-0.147-0.070-0.272-0.128-0.278-0.131s0.019-0.134 0.054-0.288c0.077-0.33 0.182-0.938 0.211-1.213 0.010-0.106 0.026-0.221 0.032-0.256 0.077-0.381 0.074-2.25-0.003-2.742l-0.019-0.115 0.17-0.035c0.214-0.042 0.736-0.138 1.325-0.24 0.246-0.045 0.57-0.102 0.72-0.131 0.15-0.026 0.323-0.058 0.384-0.067 0.237-0.038 0.586-0.109 0.598-0.118 0.022-0.022-0.237-0.992-0.406-1.51-0.72-2.234-1.68-3.958-2.87-5.168l-0.237-0.237 0.035-0.147c0.083-0.352 0.109-0.608 0.106-1.040-0.010-1.478-0.877-2.525-2.426-2.931-0.56-0.147-1.526-0.195-2.176-0.106zM20.822 8.157c1.904 0.678 3.366 2.278 4.134 4.528 0.109 0.31 0.291 0.938 0.291 0.992 0 0.013-0.349 0.080-1.536 0.304-0.531 0.099-0.477 0.035-0.419 0.499 0.032 0.262 0.022 1.699-0.013 1.984-0.083 0.653-0.448 2.054-0.541 2.080-1.219 0.301-2.253 0.934-3.021 1.856-0.586 0.698-0.995 1.52-1.181 2.365-0.032 0.147-0.067 0.17-0.538 0.362-0.442 0.182-1.136 0.41-1.597 0.525-0.214 0.051-0.406 0.102-0.429 0.112-0.026 0.006 0.157-0.186 0.4-0.426 1.773-1.754 2.912-3.776 3.322-5.898 0.102-0.525 0.138-1.021 0.128-1.696-0.016-0.934-0.035-1.043-0.163-1.011-0.070 0.019-2.262 0.429-2.378 0.445-0.061 0.010-0.090-0.125-0.118-0.538-0.138-1.866 0.339-3.731 1.331-5.216 0.387-0.576 0.858-1.133 1.082-1.27 0.317-0.195 0.691-0.195 1.245 0.003zM15.734 8.806c-1.763 1.718-2.986 3.878-3.363 5.946-0.048 0.266-0.058 0.336-0.112 0.832-0.029 0.253-0.019 1.44 0.013 1.632 0.038 0.237 0.048 0.259 0.106 0.243 0.029-0.010 0.371-0.077 0.758-0.147 1.149-0.214 1.565-0.291 1.635-0.304 0.083-0.019 0.102 0.048 0.131 0.528 0.080 1.194-0.058 2.278-0.426 3.379-0.298 0.886-0.758 1.722-1.379 2.493-0.515 0.64-0.71 0.768-1.178 0.762-0.336 0-0.688-0.106-1.216-0.358-1.546-0.739-2.733-2.083-3.456-3.92-0.147-0.374-0.445-1.36-0.419-1.386 0.006-0.006 0.205-0.048 0.438-0.093 0.237-0.045 0.624-0.115 0.861-0.16 0.48-0.090 0.672-0.131 0.688-0.147 0.006-0.003-0.010-0.16-0.032-0.346-0.074-0.624-0.045-1.734 0.064-2.416 0.070-0.426 0.266-1.197 0.365-1.44 0.016-0.035 0.067-0.173 0.115-0.304 0.122-0.326 0.384-0.854 0.611-1.216 0.765-1.235 1.904-2.246 3.341-2.963 0.566-0.282 0.883-0.413 1.494-0.618 0.39-0.131 1.222-0.371 1.334-0.384 0.016-0.003-0.154 0.173-0.374 0.387zM24.784 20.080c0.81 0.17 1.437 0.512 2.032 1.104 0.592 0.589 0.931 1.216 1.11 2.048 0.042 0.205 0.058 0.403 0.054 0.8 0 0.461-0.013 0.573-0.090 0.88-0.195 0.79-0.57 1.44-1.146 1.987-1.382 1.306-3.466 1.462-5.034 0.381-0.291-0.202-0.826-0.742-1.011-1.024-0.31-0.464-0.509-0.944-0.627-1.488-0.042-0.205-0.058-0.403-0.054-0.8 0.003-0.461 0.013-0.573 0.090-0.88 0.406-1.664 1.741-2.845 3.459-3.066 0.224-0.029 0.976 0.006 1.216 0.058z"></path>
<path fill="#ff7900" d="M23.424 20.842c-0.045 0.019-0.112 0.102-0.15 0.182-0.070 0.138-0.074 0.166-0.074 1.158v1.018h-1.018c-0.992 0-1.021 0.003-1.158 0.070-0.080 0.042-0.163 0.109-0.182 0.154-0.029 0.054-0.042 0.246-0.042 0.579 0 0.464 0.006 0.506 0.074 0.605 0.118 0.176 0.189 0.186 1.312 0.189l1.014 0.003v0.998c0 0.906 0.006 1.014 0.061 1.133 0.112 0.25 0.166 0.269 0.73 0.269 0.538 0 0.624-0.022 0.733-0.182 0.058-0.083 0.061-0.17 0.070-1.152l0.010-1.062 1.062-0.010c0.982-0.010 1.069-0.013 1.152-0.070 0.16-0.109 0.182-0.195 0.182-0.723s-0.022-0.614-0.182-0.723c-0.083-0.058-0.17-0.061-1.152-0.070l-1.066-0.010-0.003-1.014c-0.003-1.12-0.013-1.19-0.189-1.312-0.099-0.064-0.141-0.070-0.605-0.070-0.333 0-0.525 0.013-0.579 0.042z"></path>
</svg>
