<!-- Generated by IcoMoon.io -->
<svg version="1.1" xmlns="http://www.w3.org/2000/svg" width="32" height="32" viewBox="0 0 32 32">
<title>WPT</title>
<path fill="#ff7900" d="M15.872 1.626c-0.112 0.051-0.192 0.128-0.224 0.211-0.019 0.051-0.032 0.358-0.032 0.726v0.637h-0.269c-0.426 0-0.672 0.118-0.842 0.41-0.086 0.144-0.090 0.17-0.102 0.669l-0.010 0.522h-0.24c-0.275 0-0.4 0.051-0.49 0.202-0.058 0.093-0.064 0.163-0.064 0.749v0.65l0.307 0.4 0.307 0.403-0.019 0.166c-0.010 0.093-0.026 0.266-0.035 0.39-0.042 0.454-0.112 1.056-0.227 1.92-0.493 3.69-1.552 7.552-2.883 10.512-0.131 0.291-0.246 0.547-0.256 0.57-0.013 0.032 0.25 0.038 1.302 0.032l1.318-0.010 0.077-0.192c0.045-0.106 0.093-0.221 0.109-0.256 0.272-0.573 0.97-2.576 1.328-3.802l0.16-0.534h1.827l0.106 0.358c0.234 0.816 0.525 1.728 0.723 2.266 0.349 0.95 0.419 1.136 0.762 1.968l0.080 0.192 1.318 0.010c1.053 0.006 1.315 0 1.302-0.032-0.010-0.022-0.122-0.272-0.246-0.554-0.954-2.131-1.786-4.733-2.32-7.264-0.208-0.97-0.448-2.352-0.576-3.296-0.045-0.336-0.086-0.653-0.096-0.704-0.006-0.054-0.019-0.17-0.029-0.256-0.035-0.333-0.115-1.126-0.134-1.302l-0.019-0.186 0.307-0.397 0.307-0.4v-0.65c0-0.589-0.006-0.659-0.064-0.752-0.090-0.15-0.214-0.202-0.496-0.202h-0.24v-0.458c0-0.557-0.042-0.707-0.246-0.906-0.176-0.173-0.365-0.237-0.701-0.237h-0.266l-0.019-1.376-0.099-0.099c-0.102-0.099-0.294-0.15-0.397-0.099z"></path>
<path fill="#ff7900" d="M9.584 23.062c-0.438 0.806-0.819 1.507-0.848 1.562-0.029 0.051-0.112 0.205-0.182 0.336s-0.394 0.723-0.714 1.312c-0.32 0.589-0.64 1.181-0.714 1.312-0.070 0.131-0.166 0.31-0.214 0.4-0.048 0.086-0.323 0.592-0.608 1.12-0.288 0.528-0.563 1.037-0.614 1.126l-0.096 0.17h4.806l0.003-0.176c0.003-0.096 0.006-0.202 0.010-0.234 0.003-0.029 0.019-0.163 0.032-0.294 0.035-0.33 0.189-0.934 0.32-1.277 0.749-1.939 2.394-3.248 4.483-3.571 0.070-0.013 0.365-0.026 0.656-0.032 0.672-0.016 1.19 0.058 1.808 0.253 1.878 0.595 3.357 2.224 3.76 4.147 0.070 0.336 0.128 0.8 0.128 1.030v0.154h4.803l-0.093-0.17c-0.122-0.218-0.682-1.251-0.848-1.558-0.070-0.131-0.15-0.285-0.182-0.336-0.032-0.054-0.112-0.205-0.182-0.336s-0.163-0.304-0.208-0.384c-0.086-0.154-0.605-1.11-0.819-1.504-0.070-0.131-0.381-0.704-0.691-1.274s-0.563-1.040-0.563-1.046c0-0.006-0.042-0.083-0.090-0.166-0.051-0.083-0.166-0.298-0.262-0.474-0.093-0.176-0.192-0.365-0.224-0.416-0.032-0.054-0.106-0.189-0.166-0.304s-0.189-0.349-0.278-0.522l-0.17-0.31h-11.251l-0.79 1.462z"></path>
</svg>
