<!-- Generated by IcoMoon.io -->
<svg version="1.1" xmlns="http://www.w3.org/2000/svg" width="32" height="32" viewBox="0 0 32 32">
<title>zoom_in</title>
<path fill="#ff7900" d="M12.573 3.213c-0.006 0.006-0.134 0.019-0.285 0.032-0.678 0.051-1.533 0.23-2.243 0.467-2.778 0.925-5.014 3.024-6.118 5.744-0.467 1.155-0.691 2.275-0.71 3.584-0.016 1.011 0.064 1.712 0.291 2.618 0.506 2.013 1.648 3.834 3.261 5.197 1.005 0.851 2.23 1.517 3.504 1.907 0.544 0.166 1.222 0.31 1.68 0.358 0.106 0.013 0.227 0.029 0.272 0.038 0.208 0.038 1.517 0.035 1.923-0.006 1.69-0.17 3.222-0.714 4.582-1.622l0.282-0.189 3.661 3.661c2.304 2.304 3.706 3.683 3.782 3.722 0.176 0.086 0.528 0.080 0.698-0.010 0.144-0.077 1.453-1.373 1.558-1.546 0.099-0.16 0.099-0.538 0-0.723-0.042-0.086-1.386-1.45-3.718-3.786l-3.651-3.648 0.189-0.282c0.845-1.264 1.421-2.813 1.59-4.282 0.010-0.090 0.032-0.269 0.048-0.4 0.029-0.253 0.016-1.654-0.016-1.872-0.010-0.070-0.042-0.278-0.067-0.464-0.445-3.174-2.512-6.006-5.443-7.469-0.97-0.483-2.131-0.838-3.162-0.963-0.086-0.010-0.211-0.026-0.272-0.035-0.125-0.019-1.616-0.048-1.635-0.032zM14.064 6.448c1.568 0.237 2.867 0.877 3.936 1.949 1.078 1.082 1.731 2.406 1.952 3.955 0.045 0.31 0.045 1.328 0 1.664-0.144 1.107-0.496 2.048-1.114 2.976-1.011 1.52-2.688 2.611-4.47 2.909-0.115 0.019-0.259 0.042-0.32 0.054-0.243 0.038-1.363 0.038-1.677-0.003-1.581-0.214-2.928-0.883-4.019-1.997-0.979-0.998-1.606-2.218-1.856-3.603-0.099-0.547-0.109-1.587-0.022-2.144 0.346-2.246 1.702-4.102 3.728-5.104 0.758-0.374 1.523-0.592 2.406-0.682 0.163-0.016 1.306 0.003 1.456 0.026z"></path>
<path fill="#ff7900" d="M12.534 8.845c-0.176 0.064-0.33 0.195-0.429 0.365l-0.090 0.15-0.010 1.318-0.010 1.322h-1.254c-0.765 0-1.302 0.013-1.373 0.032-0.179 0.051-0.381 0.221-0.47 0.4-0.077 0.147-0.083 0.192-0.093 0.714-0.013 0.65 0.022 0.803 0.221 1.002 0.246 0.246 0.179 0.237 1.654 0.246l1.318 0.010v1.258c0 1.363 0.006 1.414 0.179 1.642 0.042 0.058 0.147 0.144 0.23 0.192 0.147 0.086 0.166 0.090 0.717 0.099 0.675 0.016 0.819-0.019 1.034-0.234 0.234-0.234 0.24-0.269 0.24-1.702v-1.258h1.245c1.427 0 1.485-0.010 1.722-0.243 0.195-0.195 0.234-0.358 0.234-0.973 0-0.595-0.038-0.742-0.24-0.944-0.234-0.234-0.269-0.24-1.699-0.24h-1.258l-0.010-1.322-0.010-1.318-0.086-0.147c-0.099-0.17-0.256-0.301-0.445-0.365-0.179-0.064-1.142-0.064-1.318-0.003z"></path>
</svg>
